G04 #@! TF.GenerationSoftware,KiCad,Pcbnew,(5.1.5-0-10_14)*
G04 #@! TF.CreationDate,2020-04-19T20:25:50+02:00*
G04 #@! TF.ProjectId,inuk-base,696e756b-2d62-4617-9365-2e6b69636164,rev?*
G04 #@! TF.SameCoordinates,Original*
G04 #@! TF.FileFunction,Soldermask,Bot*
G04 #@! TF.FilePolarity,Negative*
%FSLAX46Y46*%
G04 Gerber Fmt 4.6, Leading zero omitted, Abs format (unit mm)*
G04 Created by KiCad (PCBNEW (5.1.5-0-10_14)) date 2020-04-19 20:25:50*
%MOMM*%
%LPD*%
G04 APERTURE LIST*
%ADD10O,2.100000X2.100000*%
%ADD11R,2.100000X2.100000*%
%ADD12C,1.150000*%
%ADD13C,0.100000*%
%ADD14C,1.300000*%
%ADD15R,3.200000X3.200000*%
%ADD16C,1.200000*%
%ADD17C,6.800000*%
%ADD18C,3.600000*%
%ADD19R,3.900000X3.900000*%
%ADD20C,3.900000*%
G04 APERTURE END LIST*
D10*
X96090000Y-142390000D03*
X98630000Y-142390000D03*
D11*
X93550000Y-142390000D03*
D10*
X101170000Y-142390000D03*
X103710000Y-142390000D03*
X106250000Y-142390000D03*
X108790000Y-142390000D03*
X111330000Y-142390000D03*
X113870000Y-142390000D03*
X116410000Y-142390000D03*
D12*
X138450000Y-75525000D03*
X138450000Y-78275000D03*
X128250000Y-75525000D03*
X128250000Y-78275000D03*
D13*
G36*
X129314372Y-141001525D02*
G01*
X129345112Y-141006085D01*
X129375257Y-141013636D01*
X129404516Y-141024105D01*
X129432609Y-141037392D01*
X129459264Y-141053368D01*
X129484224Y-141071880D01*
X129507250Y-141092750D01*
X129528120Y-141115776D01*
X129546632Y-141140736D01*
X129562608Y-141167391D01*
X129575895Y-141195484D01*
X129586364Y-141224743D01*
X129593915Y-141254888D01*
X129598475Y-141285628D01*
X129600000Y-141316667D01*
X129600000Y-144483333D01*
X129598475Y-144514372D01*
X129593915Y-144545112D01*
X129586364Y-144575257D01*
X129575895Y-144604516D01*
X129562608Y-144632609D01*
X129546632Y-144659264D01*
X129528120Y-144684224D01*
X129507250Y-144707250D01*
X129484224Y-144728120D01*
X129459264Y-144746632D01*
X129432609Y-144762608D01*
X129404516Y-144775895D01*
X129375257Y-144786364D01*
X129345112Y-144793915D01*
X129314372Y-144798475D01*
X129283333Y-144800000D01*
X128016667Y-144800000D01*
X127985628Y-144798475D01*
X127954888Y-144793915D01*
X127924743Y-144786364D01*
X127895484Y-144775895D01*
X127867391Y-144762608D01*
X127840736Y-144746632D01*
X127815776Y-144728120D01*
X127792750Y-144707250D01*
X127771880Y-144684224D01*
X127753368Y-144659264D01*
X127737392Y-144632609D01*
X127724105Y-144604516D01*
X127713636Y-144575257D01*
X127706085Y-144545112D01*
X127701525Y-144514372D01*
X127700000Y-144483333D01*
X127700000Y-141316667D01*
X127701525Y-141285628D01*
X127706085Y-141254888D01*
X127713636Y-141224743D01*
X127724105Y-141195484D01*
X127737392Y-141167391D01*
X127753368Y-141140736D01*
X127771880Y-141115776D01*
X127792750Y-141092750D01*
X127815776Y-141071880D01*
X127840736Y-141053368D01*
X127867391Y-141037392D01*
X127895484Y-141024105D01*
X127924743Y-141013636D01*
X127954888Y-141006085D01*
X127985628Y-141001525D01*
X128016667Y-141000000D01*
X129283333Y-141000000D01*
X129314372Y-141001525D01*
G37*
G36*
X136014372Y-141001525D02*
G01*
X136045112Y-141006085D01*
X136075257Y-141013636D01*
X136104516Y-141024105D01*
X136132609Y-141037392D01*
X136159264Y-141053368D01*
X136184224Y-141071880D01*
X136207250Y-141092750D01*
X136228120Y-141115776D01*
X136246632Y-141140736D01*
X136262608Y-141167391D01*
X136275895Y-141195484D01*
X136286364Y-141224743D01*
X136293915Y-141254888D01*
X136298475Y-141285628D01*
X136300000Y-141316667D01*
X136300000Y-144483333D01*
X136298475Y-144514372D01*
X136293915Y-144545112D01*
X136286364Y-144575257D01*
X136275895Y-144604516D01*
X136262608Y-144632609D01*
X136246632Y-144659264D01*
X136228120Y-144684224D01*
X136207250Y-144707250D01*
X136184224Y-144728120D01*
X136159264Y-144746632D01*
X136132609Y-144762608D01*
X136104516Y-144775895D01*
X136075257Y-144786364D01*
X136045112Y-144793915D01*
X136014372Y-144798475D01*
X135983333Y-144800000D01*
X134716667Y-144800000D01*
X134685628Y-144798475D01*
X134654888Y-144793915D01*
X134624743Y-144786364D01*
X134595484Y-144775895D01*
X134567391Y-144762608D01*
X134540736Y-144746632D01*
X134515776Y-144728120D01*
X134492750Y-144707250D01*
X134471880Y-144684224D01*
X134453368Y-144659264D01*
X134437392Y-144632609D01*
X134424105Y-144604516D01*
X134413636Y-144575257D01*
X134406085Y-144545112D01*
X134401525Y-144514372D01*
X134400000Y-144483333D01*
X134400000Y-141316667D01*
X134401525Y-141285628D01*
X134406085Y-141254888D01*
X134413636Y-141224743D01*
X134424105Y-141195484D01*
X134437392Y-141167391D01*
X134453368Y-141140736D01*
X134471880Y-141115776D01*
X134492750Y-141092750D01*
X134515776Y-141071880D01*
X134540736Y-141053368D01*
X134567391Y-141037392D01*
X134595484Y-141024105D01*
X134624743Y-141013636D01*
X134654888Y-141006085D01*
X134685628Y-141001525D01*
X134716667Y-141000000D01*
X135983333Y-141000000D01*
X136014372Y-141001525D01*
G37*
G36*
X131384306Y-135201685D02*
G01*
X131418282Y-135206725D01*
X131451600Y-135215071D01*
X131483939Y-135226642D01*
X131514989Y-135241328D01*
X131544450Y-135258986D01*
X131572038Y-135279446D01*
X131597487Y-135302513D01*
X131620554Y-135327962D01*
X131641014Y-135355550D01*
X131658672Y-135385011D01*
X131673358Y-135416061D01*
X131684929Y-135448400D01*
X131693275Y-135481718D01*
X131698315Y-135515694D01*
X131700000Y-135550000D01*
X131700000Y-138750000D01*
X131698315Y-138784306D01*
X131693275Y-138818282D01*
X131684929Y-138851600D01*
X131673358Y-138883939D01*
X131658672Y-138914989D01*
X131641014Y-138944450D01*
X131620554Y-138972038D01*
X131597487Y-138997487D01*
X131572038Y-139020554D01*
X131544450Y-139041014D01*
X131514989Y-139058672D01*
X131483939Y-139073358D01*
X131451600Y-139084929D01*
X131418282Y-139093275D01*
X131384306Y-139098315D01*
X131350000Y-139100000D01*
X130650000Y-139100000D01*
X130615694Y-139098315D01*
X130581718Y-139093275D01*
X130548400Y-139084929D01*
X130516061Y-139073358D01*
X130485011Y-139058672D01*
X130455550Y-139041014D01*
X130427962Y-139020554D01*
X130402513Y-138997487D01*
X130379446Y-138972038D01*
X130358986Y-138944450D01*
X130341328Y-138914989D01*
X130326642Y-138883939D01*
X130315071Y-138851600D01*
X130306725Y-138818282D01*
X130301685Y-138784306D01*
X130300000Y-138750000D01*
X130300000Y-135550000D01*
X130301685Y-135515694D01*
X130306725Y-135481718D01*
X130315071Y-135448400D01*
X130326642Y-135416061D01*
X130341328Y-135385011D01*
X130358986Y-135355550D01*
X130379446Y-135327962D01*
X130402513Y-135302513D01*
X130427962Y-135279446D01*
X130455550Y-135258986D01*
X130485011Y-135241328D01*
X130516061Y-135226642D01*
X130548400Y-135215071D01*
X130581718Y-135206725D01*
X130615694Y-135201685D01*
X130650000Y-135200000D01*
X131350000Y-135200000D01*
X131384306Y-135201685D01*
G37*
G36*
X133384306Y-135201685D02*
G01*
X133418282Y-135206725D01*
X133451600Y-135215071D01*
X133483939Y-135226642D01*
X133514989Y-135241328D01*
X133544450Y-135258986D01*
X133572038Y-135279446D01*
X133597487Y-135302513D01*
X133620554Y-135327962D01*
X133641014Y-135355550D01*
X133658672Y-135385011D01*
X133673358Y-135416061D01*
X133684929Y-135448400D01*
X133693275Y-135481718D01*
X133698315Y-135515694D01*
X133700000Y-135550000D01*
X133700000Y-138750000D01*
X133698315Y-138784306D01*
X133693275Y-138818282D01*
X133684929Y-138851600D01*
X133673358Y-138883939D01*
X133658672Y-138914989D01*
X133641014Y-138944450D01*
X133620554Y-138972038D01*
X133597487Y-138997487D01*
X133572038Y-139020554D01*
X133544450Y-139041014D01*
X133514989Y-139058672D01*
X133483939Y-139073358D01*
X133451600Y-139084929D01*
X133418282Y-139093275D01*
X133384306Y-139098315D01*
X133350000Y-139100000D01*
X132650000Y-139100000D01*
X132615694Y-139098315D01*
X132581718Y-139093275D01*
X132548400Y-139084929D01*
X132516061Y-139073358D01*
X132485011Y-139058672D01*
X132455550Y-139041014D01*
X132427962Y-139020554D01*
X132402513Y-138997487D01*
X132379446Y-138972038D01*
X132358986Y-138944450D01*
X132341328Y-138914989D01*
X132326642Y-138883939D01*
X132315071Y-138851600D01*
X132306725Y-138818282D01*
X132301685Y-138784306D01*
X132300000Y-138750000D01*
X132300000Y-135550000D01*
X132301685Y-135515694D01*
X132306725Y-135481718D01*
X132315071Y-135448400D01*
X132326642Y-135416061D01*
X132341328Y-135385011D01*
X132358986Y-135355550D01*
X132379446Y-135327962D01*
X132402513Y-135302513D01*
X132427962Y-135279446D01*
X132455550Y-135258986D01*
X132485011Y-135241328D01*
X132516061Y-135226642D01*
X132548400Y-135215071D01*
X132581718Y-135206725D01*
X132615694Y-135201685D01*
X132650000Y-135200000D01*
X133350000Y-135200000D01*
X133384306Y-135201685D01*
G37*
D14*
X152900000Y-126900000D03*
X152900000Y-133700000D03*
D10*
X140560000Y-127600000D03*
D11*
X143100000Y-127600000D03*
D10*
X89180000Y-142400000D03*
X86640000Y-142400000D03*
D11*
X84100000Y-142400000D03*
D10*
X74940000Y-142300000D03*
X72400000Y-142300000D03*
D11*
X69860000Y-142300000D03*
D15*
X129900000Y-110600000D03*
X129900000Y-118200000D03*
X129900000Y-107200000D03*
X129900000Y-121700000D03*
X152800000Y-107500000D03*
X152800000Y-121700000D03*
D13*
G36*
X117949398Y-139656112D02*
G01*
X117949398Y-139674534D01*
X117948435Y-139694140D01*
X117943625Y-139742971D01*
X117940746Y-139762380D01*
X117931174Y-139810505D01*
X117926404Y-139829548D01*
X117912160Y-139876503D01*
X117905549Y-139894980D01*
X117886772Y-139940313D01*
X117878377Y-139958061D01*
X117855246Y-140001334D01*
X117845160Y-140018162D01*
X117817900Y-140058961D01*
X117806205Y-140074730D01*
X117775077Y-140112659D01*
X117761897Y-140127200D01*
X117727200Y-140161897D01*
X117712659Y-140175077D01*
X117674730Y-140206205D01*
X117658961Y-140217900D01*
X117618162Y-140245160D01*
X117601334Y-140255246D01*
X117558061Y-140278377D01*
X117540313Y-140286772D01*
X117494980Y-140305549D01*
X117476503Y-140312160D01*
X117429548Y-140326404D01*
X117410505Y-140331174D01*
X117362380Y-140340746D01*
X117342971Y-140343625D01*
X117294140Y-140348435D01*
X117274534Y-140349398D01*
X117256112Y-140349398D01*
X117250000Y-140350000D01*
X116750000Y-140350000D01*
X116743888Y-140349398D01*
X116725466Y-140349398D01*
X116705860Y-140348435D01*
X116657029Y-140343625D01*
X116637620Y-140340746D01*
X116589495Y-140331174D01*
X116570452Y-140326404D01*
X116523497Y-140312160D01*
X116505020Y-140305549D01*
X116459687Y-140286772D01*
X116441939Y-140278377D01*
X116398666Y-140255246D01*
X116381838Y-140245160D01*
X116341039Y-140217900D01*
X116325270Y-140206205D01*
X116287341Y-140175077D01*
X116272800Y-140161897D01*
X116238103Y-140127200D01*
X116224923Y-140112659D01*
X116193795Y-140074730D01*
X116182100Y-140058961D01*
X116154840Y-140018162D01*
X116144754Y-140001334D01*
X116121623Y-139958061D01*
X116113228Y-139940313D01*
X116094451Y-139894980D01*
X116087840Y-139876503D01*
X116073596Y-139829548D01*
X116068826Y-139810505D01*
X116059254Y-139762380D01*
X116056375Y-139742971D01*
X116051565Y-139694140D01*
X116050602Y-139674534D01*
X116050602Y-139656112D01*
X116050000Y-139650000D01*
X116050000Y-139150000D01*
X116053843Y-139110982D01*
X116065224Y-139073463D01*
X116083706Y-139038886D01*
X116108579Y-139008579D01*
X116138886Y-138983706D01*
X116173463Y-138965224D01*
X116210982Y-138953843D01*
X116250000Y-138950000D01*
X117750000Y-138950000D01*
X117789018Y-138953843D01*
X117826537Y-138965224D01*
X117861114Y-138983706D01*
X117891421Y-139008579D01*
X117916294Y-139038886D01*
X117934776Y-139073463D01*
X117946157Y-139110982D01*
X117950000Y-139150000D01*
X117950000Y-139650000D01*
X117949398Y-139656112D01*
G37*
G36*
X117946157Y-138889018D02*
G01*
X117934776Y-138926537D01*
X117916294Y-138961114D01*
X117891421Y-138991421D01*
X117861114Y-139016294D01*
X117826537Y-139034776D01*
X117789018Y-139046157D01*
X117750000Y-139050000D01*
X116250000Y-139050000D01*
X116210982Y-139046157D01*
X116173463Y-139034776D01*
X116138886Y-139016294D01*
X116108579Y-138991421D01*
X116083706Y-138961114D01*
X116065224Y-138926537D01*
X116053843Y-138889018D01*
X116050000Y-138850000D01*
X116050000Y-138350000D01*
X116050602Y-138343888D01*
X116050602Y-138325466D01*
X116051565Y-138305860D01*
X116056375Y-138257029D01*
X116059254Y-138237620D01*
X116068826Y-138189495D01*
X116073596Y-138170452D01*
X116087840Y-138123497D01*
X116094451Y-138105020D01*
X116113228Y-138059687D01*
X116121623Y-138041939D01*
X116144754Y-137998666D01*
X116154840Y-137981838D01*
X116182100Y-137941039D01*
X116193795Y-137925270D01*
X116224923Y-137887341D01*
X116238103Y-137872800D01*
X116272800Y-137838103D01*
X116287341Y-137824923D01*
X116325270Y-137793795D01*
X116341039Y-137782100D01*
X116381838Y-137754840D01*
X116398666Y-137744754D01*
X116441939Y-137721623D01*
X116459687Y-137713228D01*
X116505020Y-137694451D01*
X116523497Y-137687840D01*
X116570452Y-137673596D01*
X116589495Y-137668826D01*
X116637620Y-137659254D01*
X116657029Y-137656375D01*
X116705860Y-137651565D01*
X116725466Y-137650602D01*
X116743888Y-137650602D01*
X116750000Y-137650000D01*
X117250000Y-137650000D01*
X117256112Y-137650602D01*
X117274534Y-137650602D01*
X117294140Y-137651565D01*
X117342971Y-137656375D01*
X117362380Y-137659254D01*
X117410505Y-137668826D01*
X117429548Y-137673596D01*
X117476503Y-137687840D01*
X117494980Y-137694451D01*
X117540313Y-137713228D01*
X117558061Y-137721623D01*
X117601334Y-137744754D01*
X117618162Y-137754840D01*
X117658961Y-137782100D01*
X117674730Y-137793795D01*
X117712659Y-137824923D01*
X117727200Y-137838103D01*
X117761897Y-137872800D01*
X117775077Y-137887341D01*
X117806205Y-137925270D01*
X117817900Y-137941039D01*
X117845160Y-137981838D01*
X117855246Y-137998666D01*
X117878377Y-138041939D01*
X117886772Y-138059687D01*
X117905549Y-138105020D01*
X117912160Y-138123497D01*
X117926404Y-138170452D01*
X117931174Y-138189495D01*
X117940746Y-138237620D01*
X117943625Y-138257029D01*
X117948435Y-138305860D01*
X117949398Y-138325466D01*
X117949398Y-138343888D01*
X117950000Y-138350000D01*
X117950000Y-138850000D01*
X117946157Y-138889018D01*
G37*
G36*
X115249398Y-139656112D02*
G01*
X115249398Y-139674534D01*
X115248435Y-139694140D01*
X115243625Y-139742971D01*
X115240746Y-139762380D01*
X115231174Y-139810505D01*
X115226404Y-139829548D01*
X115212160Y-139876503D01*
X115205549Y-139894980D01*
X115186772Y-139940313D01*
X115178377Y-139958061D01*
X115155246Y-140001334D01*
X115145160Y-140018162D01*
X115117900Y-140058961D01*
X115106205Y-140074730D01*
X115075077Y-140112659D01*
X115061897Y-140127200D01*
X115027200Y-140161897D01*
X115012659Y-140175077D01*
X114974730Y-140206205D01*
X114958961Y-140217900D01*
X114918162Y-140245160D01*
X114901334Y-140255246D01*
X114858061Y-140278377D01*
X114840313Y-140286772D01*
X114794980Y-140305549D01*
X114776503Y-140312160D01*
X114729548Y-140326404D01*
X114710505Y-140331174D01*
X114662380Y-140340746D01*
X114642971Y-140343625D01*
X114594140Y-140348435D01*
X114574534Y-140349398D01*
X114556112Y-140349398D01*
X114550000Y-140350000D01*
X114050000Y-140350000D01*
X114043888Y-140349398D01*
X114025466Y-140349398D01*
X114005860Y-140348435D01*
X113957029Y-140343625D01*
X113937620Y-140340746D01*
X113889495Y-140331174D01*
X113870452Y-140326404D01*
X113823497Y-140312160D01*
X113805020Y-140305549D01*
X113759687Y-140286772D01*
X113741939Y-140278377D01*
X113698666Y-140255246D01*
X113681838Y-140245160D01*
X113641039Y-140217900D01*
X113625270Y-140206205D01*
X113587341Y-140175077D01*
X113572800Y-140161897D01*
X113538103Y-140127200D01*
X113524923Y-140112659D01*
X113493795Y-140074730D01*
X113482100Y-140058961D01*
X113454840Y-140018162D01*
X113444754Y-140001334D01*
X113421623Y-139958061D01*
X113413228Y-139940313D01*
X113394451Y-139894980D01*
X113387840Y-139876503D01*
X113373596Y-139829548D01*
X113368826Y-139810505D01*
X113359254Y-139762380D01*
X113356375Y-139742971D01*
X113351565Y-139694140D01*
X113350602Y-139674534D01*
X113350602Y-139656112D01*
X113350000Y-139650000D01*
X113350000Y-139150000D01*
X113353843Y-139110982D01*
X113365224Y-139073463D01*
X113383706Y-139038886D01*
X113408579Y-139008579D01*
X113438886Y-138983706D01*
X113473463Y-138965224D01*
X113510982Y-138953843D01*
X113550000Y-138950000D01*
X115050000Y-138950000D01*
X115089018Y-138953843D01*
X115126537Y-138965224D01*
X115161114Y-138983706D01*
X115191421Y-139008579D01*
X115216294Y-139038886D01*
X115234776Y-139073463D01*
X115246157Y-139110982D01*
X115250000Y-139150000D01*
X115250000Y-139650000D01*
X115249398Y-139656112D01*
G37*
G36*
X115246157Y-138889018D02*
G01*
X115234776Y-138926537D01*
X115216294Y-138961114D01*
X115191421Y-138991421D01*
X115161114Y-139016294D01*
X115126537Y-139034776D01*
X115089018Y-139046157D01*
X115050000Y-139050000D01*
X113550000Y-139050000D01*
X113510982Y-139046157D01*
X113473463Y-139034776D01*
X113438886Y-139016294D01*
X113408579Y-138991421D01*
X113383706Y-138961114D01*
X113365224Y-138926537D01*
X113353843Y-138889018D01*
X113350000Y-138850000D01*
X113350000Y-138350000D01*
X113350602Y-138343888D01*
X113350602Y-138325466D01*
X113351565Y-138305860D01*
X113356375Y-138257029D01*
X113359254Y-138237620D01*
X113368826Y-138189495D01*
X113373596Y-138170452D01*
X113387840Y-138123497D01*
X113394451Y-138105020D01*
X113413228Y-138059687D01*
X113421623Y-138041939D01*
X113444754Y-137998666D01*
X113454840Y-137981838D01*
X113482100Y-137941039D01*
X113493795Y-137925270D01*
X113524923Y-137887341D01*
X113538103Y-137872800D01*
X113572800Y-137838103D01*
X113587341Y-137824923D01*
X113625270Y-137793795D01*
X113641039Y-137782100D01*
X113681838Y-137754840D01*
X113698666Y-137744754D01*
X113741939Y-137721623D01*
X113759687Y-137713228D01*
X113805020Y-137694451D01*
X113823497Y-137687840D01*
X113870452Y-137673596D01*
X113889495Y-137668826D01*
X113937620Y-137659254D01*
X113957029Y-137656375D01*
X114005860Y-137651565D01*
X114025466Y-137650602D01*
X114043888Y-137650602D01*
X114050000Y-137650000D01*
X114550000Y-137650000D01*
X114556112Y-137650602D01*
X114574534Y-137650602D01*
X114594140Y-137651565D01*
X114642971Y-137656375D01*
X114662380Y-137659254D01*
X114710505Y-137668826D01*
X114729548Y-137673596D01*
X114776503Y-137687840D01*
X114794980Y-137694451D01*
X114840313Y-137713228D01*
X114858061Y-137721623D01*
X114901334Y-137744754D01*
X114918162Y-137754840D01*
X114958961Y-137782100D01*
X114974730Y-137793795D01*
X115012659Y-137824923D01*
X115027200Y-137838103D01*
X115061897Y-137872800D01*
X115075077Y-137887341D01*
X115106205Y-137925270D01*
X115117900Y-137941039D01*
X115145160Y-137981838D01*
X115155246Y-137998666D01*
X115178377Y-138041939D01*
X115186772Y-138059687D01*
X115205549Y-138105020D01*
X115212160Y-138123497D01*
X115226404Y-138170452D01*
X115231174Y-138189495D01*
X115240746Y-138237620D01*
X115243625Y-138257029D01*
X115248435Y-138305860D01*
X115249398Y-138325466D01*
X115249398Y-138343888D01*
X115250000Y-138350000D01*
X115250000Y-138850000D01*
X115246157Y-138889018D01*
G37*
G36*
X112449398Y-139656112D02*
G01*
X112449398Y-139674534D01*
X112448435Y-139694140D01*
X112443625Y-139742971D01*
X112440746Y-139762380D01*
X112431174Y-139810505D01*
X112426404Y-139829548D01*
X112412160Y-139876503D01*
X112405549Y-139894980D01*
X112386772Y-139940313D01*
X112378377Y-139958061D01*
X112355246Y-140001334D01*
X112345160Y-140018162D01*
X112317900Y-140058961D01*
X112306205Y-140074730D01*
X112275077Y-140112659D01*
X112261897Y-140127200D01*
X112227200Y-140161897D01*
X112212659Y-140175077D01*
X112174730Y-140206205D01*
X112158961Y-140217900D01*
X112118162Y-140245160D01*
X112101334Y-140255246D01*
X112058061Y-140278377D01*
X112040313Y-140286772D01*
X111994980Y-140305549D01*
X111976503Y-140312160D01*
X111929548Y-140326404D01*
X111910505Y-140331174D01*
X111862380Y-140340746D01*
X111842971Y-140343625D01*
X111794140Y-140348435D01*
X111774534Y-140349398D01*
X111756112Y-140349398D01*
X111750000Y-140350000D01*
X111250000Y-140350000D01*
X111243888Y-140349398D01*
X111225466Y-140349398D01*
X111205860Y-140348435D01*
X111157029Y-140343625D01*
X111137620Y-140340746D01*
X111089495Y-140331174D01*
X111070452Y-140326404D01*
X111023497Y-140312160D01*
X111005020Y-140305549D01*
X110959687Y-140286772D01*
X110941939Y-140278377D01*
X110898666Y-140255246D01*
X110881838Y-140245160D01*
X110841039Y-140217900D01*
X110825270Y-140206205D01*
X110787341Y-140175077D01*
X110772800Y-140161897D01*
X110738103Y-140127200D01*
X110724923Y-140112659D01*
X110693795Y-140074730D01*
X110682100Y-140058961D01*
X110654840Y-140018162D01*
X110644754Y-140001334D01*
X110621623Y-139958061D01*
X110613228Y-139940313D01*
X110594451Y-139894980D01*
X110587840Y-139876503D01*
X110573596Y-139829548D01*
X110568826Y-139810505D01*
X110559254Y-139762380D01*
X110556375Y-139742971D01*
X110551565Y-139694140D01*
X110550602Y-139674534D01*
X110550602Y-139656112D01*
X110550000Y-139650000D01*
X110550000Y-139150000D01*
X110553843Y-139110982D01*
X110565224Y-139073463D01*
X110583706Y-139038886D01*
X110608579Y-139008579D01*
X110638886Y-138983706D01*
X110673463Y-138965224D01*
X110710982Y-138953843D01*
X110750000Y-138950000D01*
X112250000Y-138950000D01*
X112289018Y-138953843D01*
X112326537Y-138965224D01*
X112361114Y-138983706D01*
X112391421Y-139008579D01*
X112416294Y-139038886D01*
X112434776Y-139073463D01*
X112446157Y-139110982D01*
X112450000Y-139150000D01*
X112450000Y-139650000D01*
X112449398Y-139656112D01*
G37*
G36*
X112446157Y-138889018D02*
G01*
X112434776Y-138926537D01*
X112416294Y-138961114D01*
X112391421Y-138991421D01*
X112361114Y-139016294D01*
X112326537Y-139034776D01*
X112289018Y-139046157D01*
X112250000Y-139050000D01*
X110750000Y-139050000D01*
X110710982Y-139046157D01*
X110673463Y-139034776D01*
X110638886Y-139016294D01*
X110608579Y-138991421D01*
X110583706Y-138961114D01*
X110565224Y-138926537D01*
X110553843Y-138889018D01*
X110550000Y-138850000D01*
X110550000Y-138350000D01*
X110550602Y-138343888D01*
X110550602Y-138325466D01*
X110551565Y-138305860D01*
X110556375Y-138257029D01*
X110559254Y-138237620D01*
X110568826Y-138189495D01*
X110573596Y-138170452D01*
X110587840Y-138123497D01*
X110594451Y-138105020D01*
X110613228Y-138059687D01*
X110621623Y-138041939D01*
X110644754Y-137998666D01*
X110654840Y-137981838D01*
X110682100Y-137941039D01*
X110693795Y-137925270D01*
X110724923Y-137887341D01*
X110738103Y-137872800D01*
X110772800Y-137838103D01*
X110787341Y-137824923D01*
X110825270Y-137793795D01*
X110841039Y-137782100D01*
X110881838Y-137754840D01*
X110898666Y-137744754D01*
X110941939Y-137721623D01*
X110959687Y-137713228D01*
X111005020Y-137694451D01*
X111023497Y-137687840D01*
X111070452Y-137673596D01*
X111089495Y-137668826D01*
X111137620Y-137659254D01*
X111157029Y-137656375D01*
X111205860Y-137651565D01*
X111225466Y-137650602D01*
X111243888Y-137650602D01*
X111250000Y-137650000D01*
X111750000Y-137650000D01*
X111756112Y-137650602D01*
X111774534Y-137650602D01*
X111794140Y-137651565D01*
X111842971Y-137656375D01*
X111862380Y-137659254D01*
X111910505Y-137668826D01*
X111929548Y-137673596D01*
X111976503Y-137687840D01*
X111994980Y-137694451D01*
X112040313Y-137713228D01*
X112058061Y-137721623D01*
X112101334Y-137744754D01*
X112118162Y-137754840D01*
X112158961Y-137782100D01*
X112174730Y-137793795D01*
X112212659Y-137824923D01*
X112227200Y-137838103D01*
X112261897Y-137872800D01*
X112275077Y-137887341D01*
X112306205Y-137925270D01*
X112317900Y-137941039D01*
X112345160Y-137981838D01*
X112355246Y-137998666D01*
X112378377Y-138041939D01*
X112386772Y-138059687D01*
X112405549Y-138105020D01*
X112412160Y-138123497D01*
X112426404Y-138170452D01*
X112431174Y-138189495D01*
X112440746Y-138237620D01*
X112443625Y-138257029D01*
X112448435Y-138305860D01*
X112449398Y-138325466D01*
X112449398Y-138343888D01*
X112450000Y-138350000D01*
X112450000Y-138850000D01*
X112446157Y-138889018D01*
G37*
G36*
X109649398Y-139656112D02*
G01*
X109649398Y-139674534D01*
X109648435Y-139694140D01*
X109643625Y-139742971D01*
X109640746Y-139762380D01*
X109631174Y-139810505D01*
X109626404Y-139829548D01*
X109612160Y-139876503D01*
X109605549Y-139894980D01*
X109586772Y-139940313D01*
X109578377Y-139958061D01*
X109555246Y-140001334D01*
X109545160Y-140018162D01*
X109517900Y-140058961D01*
X109506205Y-140074730D01*
X109475077Y-140112659D01*
X109461897Y-140127200D01*
X109427200Y-140161897D01*
X109412659Y-140175077D01*
X109374730Y-140206205D01*
X109358961Y-140217900D01*
X109318162Y-140245160D01*
X109301334Y-140255246D01*
X109258061Y-140278377D01*
X109240313Y-140286772D01*
X109194980Y-140305549D01*
X109176503Y-140312160D01*
X109129548Y-140326404D01*
X109110505Y-140331174D01*
X109062380Y-140340746D01*
X109042971Y-140343625D01*
X108994140Y-140348435D01*
X108974534Y-140349398D01*
X108956112Y-140349398D01*
X108950000Y-140350000D01*
X108450000Y-140350000D01*
X108443888Y-140349398D01*
X108425466Y-140349398D01*
X108405860Y-140348435D01*
X108357029Y-140343625D01*
X108337620Y-140340746D01*
X108289495Y-140331174D01*
X108270452Y-140326404D01*
X108223497Y-140312160D01*
X108205020Y-140305549D01*
X108159687Y-140286772D01*
X108141939Y-140278377D01*
X108098666Y-140255246D01*
X108081838Y-140245160D01*
X108041039Y-140217900D01*
X108025270Y-140206205D01*
X107987341Y-140175077D01*
X107972800Y-140161897D01*
X107938103Y-140127200D01*
X107924923Y-140112659D01*
X107893795Y-140074730D01*
X107882100Y-140058961D01*
X107854840Y-140018162D01*
X107844754Y-140001334D01*
X107821623Y-139958061D01*
X107813228Y-139940313D01*
X107794451Y-139894980D01*
X107787840Y-139876503D01*
X107773596Y-139829548D01*
X107768826Y-139810505D01*
X107759254Y-139762380D01*
X107756375Y-139742971D01*
X107751565Y-139694140D01*
X107750602Y-139674534D01*
X107750602Y-139656112D01*
X107750000Y-139650000D01*
X107750000Y-139150000D01*
X107753843Y-139110982D01*
X107765224Y-139073463D01*
X107783706Y-139038886D01*
X107808579Y-139008579D01*
X107838886Y-138983706D01*
X107873463Y-138965224D01*
X107910982Y-138953843D01*
X107950000Y-138950000D01*
X109450000Y-138950000D01*
X109489018Y-138953843D01*
X109526537Y-138965224D01*
X109561114Y-138983706D01*
X109591421Y-139008579D01*
X109616294Y-139038886D01*
X109634776Y-139073463D01*
X109646157Y-139110982D01*
X109650000Y-139150000D01*
X109650000Y-139650000D01*
X109649398Y-139656112D01*
G37*
G36*
X109646157Y-138889018D02*
G01*
X109634776Y-138926537D01*
X109616294Y-138961114D01*
X109591421Y-138991421D01*
X109561114Y-139016294D01*
X109526537Y-139034776D01*
X109489018Y-139046157D01*
X109450000Y-139050000D01*
X107950000Y-139050000D01*
X107910982Y-139046157D01*
X107873463Y-139034776D01*
X107838886Y-139016294D01*
X107808579Y-138991421D01*
X107783706Y-138961114D01*
X107765224Y-138926537D01*
X107753843Y-138889018D01*
X107750000Y-138850000D01*
X107750000Y-138350000D01*
X107750602Y-138343888D01*
X107750602Y-138325466D01*
X107751565Y-138305860D01*
X107756375Y-138257029D01*
X107759254Y-138237620D01*
X107768826Y-138189495D01*
X107773596Y-138170452D01*
X107787840Y-138123497D01*
X107794451Y-138105020D01*
X107813228Y-138059687D01*
X107821623Y-138041939D01*
X107844754Y-137998666D01*
X107854840Y-137981838D01*
X107882100Y-137941039D01*
X107893795Y-137925270D01*
X107924923Y-137887341D01*
X107938103Y-137872800D01*
X107972800Y-137838103D01*
X107987341Y-137824923D01*
X108025270Y-137793795D01*
X108041039Y-137782100D01*
X108081838Y-137754840D01*
X108098666Y-137744754D01*
X108141939Y-137721623D01*
X108159687Y-137713228D01*
X108205020Y-137694451D01*
X108223497Y-137687840D01*
X108270452Y-137673596D01*
X108289495Y-137668826D01*
X108337620Y-137659254D01*
X108357029Y-137656375D01*
X108405860Y-137651565D01*
X108425466Y-137650602D01*
X108443888Y-137650602D01*
X108450000Y-137650000D01*
X108950000Y-137650000D01*
X108956112Y-137650602D01*
X108974534Y-137650602D01*
X108994140Y-137651565D01*
X109042971Y-137656375D01*
X109062380Y-137659254D01*
X109110505Y-137668826D01*
X109129548Y-137673596D01*
X109176503Y-137687840D01*
X109194980Y-137694451D01*
X109240313Y-137713228D01*
X109258061Y-137721623D01*
X109301334Y-137744754D01*
X109318162Y-137754840D01*
X109358961Y-137782100D01*
X109374730Y-137793795D01*
X109412659Y-137824923D01*
X109427200Y-137838103D01*
X109461897Y-137872800D01*
X109475077Y-137887341D01*
X109506205Y-137925270D01*
X109517900Y-137941039D01*
X109545160Y-137981838D01*
X109555246Y-137998666D01*
X109578377Y-138041939D01*
X109586772Y-138059687D01*
X109605549Y-138105020D01*
X109612160Y-138123497D01*
X109626404Y-138170452D01*
X109631174Y-138189495D01*
X109640746Y-138237620D01*
X109643625Y-138257029D01*
X109648435Y-138305860D01*
X109649398Y-138325466D01*
X109649398Y-138343888D01*
X109650000Y-138350000D01*
X109650000Y-138850000D01*
X109646157Y-138889018D01*
G37*
G36*
X106849398Y-139656112D02*
G01*
X106849398Y-139674534D01*
X106848435Y-139694140D01*
X106843625Y-139742971D01*
X106840746Y-139762380D01*
X106831174Y-139810505D01*
X106826404Y-139829548D01*
X106812160Y-139876503D01*
X106805549Y-139894980D01*
X106786772Y-139940313D01*
X106778377Y-139958061D01*
X106755246Y-140001334D01*
X106745160Y-140018162D01*
X106717900Y-140058961D01*
X106706205Y-140074730D01*
X106675077Y-140112659D01*
X106661897Y-140127200D01*
X106627200Y-140161897D01*
X106612659Y-140175077D01*
X106574730Y-140206205D01*
X106558961Y-140217900D01*
X106518162Y-140245160D01*
X106501334Y-140255246D01*
X106458061Y-140278377D01*
X106440313Y-140286772D01*
X106394980Y-140305549D01*
X106376503Y-140312160D01*
X106329548Y-140326404D01*
X106310505Y-140331174D01*
X106262380Y-140340746D01*
X106242971Y-140343625D01*
X106194140Y-140348435D01*
X106174534Y-140349398D01*
X106156112Y-140349398D01*
X106150000Y-140350000D01*
X105650000Y-140350000D01*
X105643888Y-140349398D01*
X105625466Y-140349398D01*
X105605860Y-140348435D01*
X105557029Y-140343625D01*
X105537620Y-140340746D01*
X105489495Y-140331174D01*
X105470452Y-140326404D01*
X105423497Y-140312160D01*
X105405020Y-140305549D01*
X105359687Y-140286772D01*
X105341939Y-140278377D01*
X105298666Y-140255246D01*
X105281838Y-140245160D01*
X105241039Y-140217900D01*
X105225270Y-140206205D01*
X105187341Y-140175077D01*
X105172800Y-140161897D01*
X105138103Y-140127200D01*
X105124923Y-140112659D01*
X105093795Y-140074730D01*
X105082100Y-140058961D01*
X105054840Y-140018162D01*
X105044754Y-140001334D01*
X105021623Y-139958061D01*
X105013228Y-139940313D01*
X104994451Y-139894980D01*
X104987840Y-139876503D01*
X104973596Y-139829548D01*
X104968826Y-139810505D01*
X104959254Y-139762380D01*
X104956375Y-139742971D01*
X104951565Y-139694140D01*
X104950602Y-139674534D01*
X104950602Y-139656112D01*
X104950000Y-139650000D01*
X104950000Y-139150000D01*
X104953843Y-139110982D01*
X104965224Y-139073463D01*
X104983706Y-139038886D01*
X105008579Y-139008579D01*
X105038886Y-138983706D01*
X105073463Y-138965224D01*
X105110982Y-138953843D01*
X105150000Y-138950000D01*
X106650000Y-138950000D01*
X106689018Y-138953843D01*
X106726537Y-138965224D01*
X106761114Y-138983706D01*
X106791421Y-139008579D01*
X106816294Y-139038886D01*
X106834776Y-139073463D01*
X106846157Y-139110982D01*
X106850000Y-139150000D01*
X106850000Y-139650000D01*
X106849398Y-139656112D01*
G37*
G36*
X106846157Y-138889018D02*
G01*
X106834776Y-138926537D01*
X106816294Y-138961114D01*
X106791421Y-138991421D01*
X106761114Y-139016294D01*
X106726537Y-139034776D01*
X106689018Y-139046157D01*
X106650000Y-139050000D01*
X105150000Y-139050000D01*
X105110982Y-139046157D01*
X105073463Y-139034776D01*
X105038886Y-139016294D01*
X105008579Y-138991421D01*
X104983706Y-138961114D01*
X104965224Y-138926537D01*
X104953843Y-138889018D01*
X104950000Y-138850000D01*
X104950000Y-138350000D01*
X104950602Y-138343888D01*
X104950602Y-138325466D01*
X104951565Y-138305860D01*
X104956375Y-138257029D01*
X104959254Y-138237620D01*
X104968826Y-138189495D01*
X104973596Y-138170452D01*
X104987840Y-138123497D01*
X104994451Y-138105020D01*
X105013228Y-138059687D01*
X105021623Y-138041939D01*
X105044754Y-137998666D01*
X105054840Y-137981838D01*
X105082100Y-137941039D01*
X105093795Y-137925270D01*
X105124923Y-137887341D01*
X105138103Y-137872800D01*
X105172800Y-137838103D01*
X105187341Y-137824923D01*
X105225270Y-137793795D01*
X105241039Y-137782100D01*
X105281838Y-137754840D01*
X105298666Y-137744754D01*
X105341939Y-137721623D01*
X105359687Y-137713228D01*
X105405020Y-137694451D01*
X105423497Y-137687840D01*
X105470452Y-137673596D01*
X105489495Y-137668826D01*
X105537620Y-137659254D01*
X105557029Y-137656375D01*
X105605860Y-137651565D01*
X105625466Y-137650602D01*
X105643888Y-137650602D01*
X105650000Y-137650000D01*
X106150000Y-137650000D01*
X106156112Y-137650602D01*
X106174534Y-137650602D01*
X106194140Y-137651565D01*
X106242971Y-137656375D01*
X106262380Y-137659254D01*
X106310505Y-137668826D01*
X106329548Y-137673596D01*
X106376503Y-137687840D01*
X106394980Y-137694451D01*
X106440313Y-137713228D01*
X106458061Y-137721623D01*
X106501334Y-137744754D01*
X106518162Y-137754840D01*
X106558961Y-137782100D01*
X106574730Y-137793795D01*
X106612659Y-137824923D01*
X106627200Y-137838103D01*
X106661897Y-137872800D01*
X106675077Y-137887341D01*
X106706205Y-137925270D01*
X106717900Y-137941039D01*
X106745160Y-137981838D01*
X106755246Y-137998666D01*
X106778377Y-138041939D01*
X106786772Y-138059687D01*
X106805549Y-138105020D01*
X106812160Y-138123497D01*
X106826404Y-138170452D01*
X106831174Y-138189495D01*
X106840746Y-138237620D01*
X106843625Y-138257029D01*
X106848435Y-138305860D01*
X106849398Y-138325466D01*
X106849398Y-138343888D01*
X106850000Y-138350000D01*
X106850000Y-138850000D01*
X106846157Y-138889018D01*
G37*
D16*
X151697056Y-138302944D03*
X150000000Y-137600000D03*
X148302944Y-138302944D03*
X147600000Y-140000000D03*
X148302944Y-141697056D03*
X150000000Y-142400000D03*
X151697056Y-141697056D03*
X152400000Y-140000000D03*
D17*
X150000000Y-140000000D03*
D16*
X151697056Y-78302944D03*
X150000000Y-77600000D03*
X148302944Y-78302944D03*
X147600000Y-80000000D03*
X148302944Y-81697056D03*
X150000000Y-82400000D03*
X151697056Y-81697056D03*
X152400000Y-80000000D03*
D17*
X150000000Y-80000000D03*
D16*
X61697056Y-78302944D03*
X60000000Y-77600000D03*
X58302944Y-78302944D03*
X57600000Y-80000000D03*
X58302944Y-81697056D03*
X60000000Y-82400000D03*
X61697056Y-81697056D03*
X62400000Y-80000000D03*
D17*
X60000000Y-80000000D03*
D16*
X61697056Y-138302944D03*
X60000000Y-137600000D03*
X58302944Y-138302944D03*
X57600000Y-140000000D03*
X58302944Y-141697056D03*
X60000000Y-142400000D03*
X61697056Y-141697056D03*
X62400000Y-140000000D03*
D17*
X60000000Y-140000000D03*
D18*
X67745000Y-126000000D03*
X123355000Y-126000000D03*
D19*
X132000000Y-126000000D03*
D20*
X60000000Y-126000000D03*
D18*
X67745000Y-103000000D03*
X123355000Y-103000000D03*
D19*
X132000000Y-103000000D03*
D20*
X60000000Y-103000000D03*
D10*
X119700000Y-79000000D03*
X117160000Y-79000000D03*
X114620000Y-79000000D03*
X112080000Y-79000000D03*
X109540000Y-79000000D03*
D11*
X107000000Y-79000000D03*
M02*
