G04 #@! TF.GenerationSoftware,KiCad,Pcbnew,(5.1.5-0-10_14)*
G04 #@! TF.CreationDate,2020-04-19T20:25:50+02:00*
G04 #@! TF.ProjectId,inuk-base,696e756b-2d62-4617-9365-2e6b69636164,rev?*
G04 #@! TF.SameCoordinates,Original*
G04 #@! TF.FileFunction,Paste,Bot*
G04 #@! TF.FilePolarity,Positive*
%FSLAX46Y46*%
G04 Gerber Fmt 4.6, Leading zero omitted, Abs format (unit mm)*
G04 Created by KiCad (PCBNEW (5.1.5-0-10_14)) date 2020-04-19 20:25:50*
%MOMM*%
%LPD*%
G04 APERTURE LIST*
%ADD10C,0.100000*%
G04 APERTURE END LIST*
D10*
G36*
X129174504Y-141201204D02*
G01*
X129198773Y-141204804D01*
X129222571Y-141210765D01*
X129245671Y-141219030D01*
X129267849Y-141229520D01*
X129288893Y-141242133D01*
X129308598Y-141256747D01*
X129326777Y-141273223D01*
X129343253Y-141291402D01*
X129357867Y-141311107D01*
X129370480Y-141332151D01*
X129380970Y-141354329D01*
X129389235Y-141377429D01*
X129395196Y-141401227D01*
X129398796Y-141425496D01*
X129400000Y-141450000D01*
X129400000Y-144350000D01*
X129398796Y-144374504D01*
X129395196Y-144398773D01*
X129389235Y-144422571D01*
X129380970Y-144445671D01*
X129370480Y-144467849D01*
X129357867Y-144488893D01*
X129343253Y-144508598D01*
X129326777Y-144526777D01*
X129308598Y-144543253D01*
X129288893Y-144557867D01*
X129267849Y-144570480D01*
X129245671Y-144580970D01*
X129222571Y-144589235D01*
X129198773Y-144595196D01*
X129174504Y-144598796D01*
X129150000Y-144600000D01*
X128150000Y-144600000D01*
X128125496Y-144598796D01*
X128101227Y-144595196D01*
X128077429Y-144589235D01*
X128054329Y-144580970D01*
X128032151Y-144570480D01*
X128011107Y-144557867D01*
X127991402Y-144543253D01*
X127973223Y-144526777D01*
X127956747Y-144508598D01*
X127942133Y-144488893D01*
X127929520Y-144467849D01*
X127919030Y-144445671D01*
X127910765Y-144422571D01*
X127904804Y-144398773D01*
X127901204Y-144374504D01*
X127900000Y-144350000D01*
X127900000Y-141450000D01*
X127901204Y-141425496D01*
X127904804Y-141401227D01*
X127910765Y-141377429D01*
X127919030Y-141354329D01*
X127929520Y-141332151D01*
X127942133Y-141311107D01*
X127956747Y-141291402D01*
X127973223Y-141273223D01*
X127991402Y-141256747D01*
X128011107Y-141242133D01*
X128032151Y-141229520D01*
X128054329Y-141219030D01*
X128077429Y-141210765D01*
X128101227Y-141204804D01*
X128125496Y-141201204D01*
X128150000Y-141200000D01*
X129150000Y-141200000D01*
X129174504Y-141201204D01*
G37*
G36*
X135874504Y-141201204D02*
G01*
X135898773Y-141204804D01*
X135922571Y-141210765D01*
X135945671Y-141219030D01*
X135967849Y-141229520D01*
X135988893Y-141242133D01*
X136008598Y-141256747D01*
X136026777Y-141273223D01*
X136043253Y-141291402D01*
X136057867Y-141311107D01*
X136070480Y-141332151D01*
X136080970Y-141354329D01*
X136089235Y-141377429D01*
X136095196Y-141401227D01*
X136098796Y-141425496D01*
X136100000Y-141450000D01*
X136100000Y-144350000D01*
X136098796Y-144374504D01*
X136095196Y-144398773D01*
X136089235Y-144422571D01*
X136080970Y-144445671D01*
X136070480Y-144467849D01*
X136057867Y-144488893D01*
X136043253Y-144508598D01*
X136026777Y-144526777D01*
X136008598Y-144543253D01*
X135988893Y-144557867D01*
X135967849Y-144570480D01*
X135945671Y-144580970D01*
X135922571Y-144589235D01*
X135898773Y-144595196D01*
X135874504Y-144598796D01*
X135850000Y-144600000D01*
X134850000Y-144600000D01*
X134825496Y-144598796D01*
X134801227Y-144595196D01*
X134777429Y-144589235D01*
X134754329Y-144580970D01*
X134732151Y-144570480D01*
X134711107Y-144557867D01*
X134691402Y-144543253D01*
X134673223Y-144526777D01*
X134656747Y-144508598D01*
X134642133Y-144488893D01*
X134629520Y-144467849D01*
X134619030Y-144445671D01*
X134610765Y-144422571D01*
X134604804Y-144398773D01*
X134601204Y-144374504D01*
X134600000Y-144350000D01*
X134600000Y-141450000D01*
X134601204Y-141425496D01*
X134604804Y-141401227D01*
X134610765Y-141377429D01*
X134619030Y-141354329D01*
X134629520Y-141332151D01*
X134642133Y-141311107D01*
X134656747Y-141291402D01*
X134673223Y-141273223D01*
X134691402Y-141256747D01*
X134711107Y-141242133D01*
X134732151Y-141229520D01*
X134754329Y-141219030D01*
X134777429Y-141210765D01*
X134801227Y-141204804D01*
X134825496Y-141201204D01*
X134850000Y-141200000D01*
X135850000Y-141200000D01*
X135874504Y-141201204D01*
G37*
G36*
X131274504Y-135401204D02*
G01*
X131298773Y-135404804D01*
X131322571Y-135410765D01*
X131345671Y-135419030D01*
X131367849Y-135429520D01*
X131388893Y-135442133D01*
X131408598Y-135456747D01*
X131426777Y-135473223D01*
X131443253Y-135491402D01*
X131457867Y-135511107D01*
X131470480Y-135532151D01*
X131480970Y-135554329D01*
X131489235Y-135577429D01*
X131495196Y-135601227D01*
X131498796Y-135625496D01*
X131500000Y-135650000D01*
X131500000Y-138650000D01*
X131498796Y-138674504D01*
X131495196Y-138698773D01*
X131489235Y-138722571D01*
X131480970Y-138745671D01*
X131470480Y-138767849D01*
X131457867Y-138788893D01*
X131443253Y-138808598D01*
X131426777Y-138826777D01*
X131408598Y-138843253D01*
X131388893Y-138857867D01*
X131367849Y-138870480D01*
X131345671Y-138880970D01*
X131322571Y-138889235D01*
X131298773Y-138895196D01*
X131274504Y-138898796D01*
X131250000Y-138900000D01*
X130750000Y-138900000D01*
X130725496Y-138898796D01*
X130701227Y-138895196D01*
X130677429Y-138889235D01*
X130654329Y-138880970D01*
X130632151Y-138870480D01*
X130611107Y-138857867D01*
X130591402Y-138843253D01*
X130573223Y-138826777D01*
X130556747Y-138808598D01*
X130542133Y-138788893D01*
X130529520Y-138767849D01*
X130519030Y-138745671D01*
X130510765Y-138722571D01*
X130504804Y-138698773D01*
X130501204Y-138674504D01*
X130500000Y-138650000D01*
X130500000Y-135650000D01*
X130501204Y-135625496D01*
X130504804Y-135601227D01*
X130510765Y-135577429D01*
X130519030Y-135554329D01*
X130529520Y-135532151D01*
X130542133Y-135511107D01*
X130556747Y-135491402D01*
X130573223Y-135473223D01*
X130591402Y-135456747D01*
X130611107Y-135442133D01*
X130632151Y-135429520D01*
X130654329Y-135419030D01*
X130677429Y-135410765D01*
X130701227Y-135404804D01*
X130725496Y-135401204D01*
X130750000Y-135400000D01*
X131250000Y-135400000D01*
X131274504Y-135401204D01*
G37*
G36*
X133274504Y-135401204D02*
G01*
X133298773Y-135404804D01*
X133322571Y-135410765D01*
X133345671Y-135419030D01*
X133367849Y-135429520D01*
X133388893Y-135442133D01*
X133408598Y-135456747D01*
X133426777Y-135473223D01*
X133443253Y-135491402D01*
X133457867Y-135511107D01*
X133470480Y-135532151D01*
X133480970Y-135554329D01*
X133489235Y-135577429D01*
X133495196Y-135601227D01*
X133498796Y-135625496D01*
X133500000Y-135650000D01*
X133500000Y-138650000D01*
X133498796Y-138674504D01*
X133495196Y-138698773D01*
X133489235Y-138722571D01*
X133480970Y-138745671D01*
X133470480Y-138767849D01*
X133457867Y-138788893D01*
X133443253Y-138808598D01*
X133426777Y-138826777D01*
X133408598Y-138843253D01*
X133388893Y-138857867D01*
X133367849Y-138870480D01*
X133345671Y-138880970D01*
X133322571Y-138889235D01*
X133298773Y-138895196D01*
X133274504Y-138898796D01*
X133250000Y-138900000D01*
X132750000Y-138900000D01*
X132725496Y-138898796D01*
X132701227Y-138895196D01*
X132677429Y-138889235D01*
X132654329Y-138880970D01*
X132632151Y-138870480D01*
X132611107Y-138857867D01*
X132591402Y-138843253D01*
X132573223Y-138826777D01*
X132556747Y-138808598D01*
X132542133Y-138788893D01*
X132529520Y-138767849D01*
X132519030Y-138745671D01*
X132510765Y-138722571D01*
X132504804Y-138698773D01*
X132501204Y-138674504D01*
X132500000Y-138650000D01*
X132500000Y-135650000D01*
X132501204Y-135625496D01*
X132504804Y-135601227D01*
X132510765Y-135577429D01*
X132519030Y-135554329D01*
X132529520Y-135532151D01*
X132542133Y-135511107D01*
X132556747Y-135491402D01*
X132573223Y-135473223D01*
X132591402Y-135456747D01*
X132611107Y-135442133D01*
X132632151Y-135429520D01*
X132654329Y-135419030D01*
X132677429Y-135410765D01*
X132701227Y-135404804D01*
X132725496Y-135401204D01*
X132750000Y-135400000D01*
X133250000Y-135400000D01*
X133274504Y-135401204D01*
G37*
M02*
