M48
; DRILL file {KiCad (5.1.5-0-10_14)} date 2020 April 19, Sunday 20:26:32
; FORMAT={-:-/ absolute / metric / decimal}
; #@! TF.CreationDate,2020-04-19T20:26:32+02:00
; #@! TF.GenerationSoftware,Kicad,Pcbnew,(5.1.5-0-10_14)
; #@! TF.FileFunction,Plated,1,2,PTH
FMAT,2
METRIC
T1C0.300
T2C0.400
T3C0.500
T4C1.000
T5C1.540
T6C2.000
T7C3.200
%
G90
G05
T1
X55.9Y-84.6
X56.1Y-90.7
X56.8Y-122.9
X57.4Y-92.9
X62.0Y-92.6
X62.4Y-118.6
X63.3Y-120.9
X64.0Y-117.7
X69.8Y-90.9
X70.6Y-92.0
X70.6Y-123.9
X71.2Y-95.1
X72.1Y-105.3
X72.9Y-104.0
X73.1Y-115.0
X73.1Y-120.3
X73.5Y-80.9
X73.9Y-109.4
X73.9Y-114.4
X73.9Y-127.1
X74.0Y-95.6
X74.8Y-118.7
X75.3Y-101.2
X75.7Y-109.7
X76.0Y-79.4
X76.5Y-99.8
X78.2Y-101.4
X79.0Y-100.6
X80.7Y-116.6
X82.6Y-109.7
X82.7Y-95.5
X82.8Y-103.1
X83.3Y-117.8
X84.0Y-119.6
X86.2Y-97.8
X87.7Y-96.0
X87.7Y-104.7
X88.3Y-93.4
X88.4Y-94.7
X89.2Y-119.6
X92.0Y-127.1
X93.85Y-123.55
X93.85Y-124.55
X93.85Y-125.55
X94.45Y-120.85
X94.45Y-121.85
X95.3Y-134.9
X95.35Y-121.85
X96.5Y-103.0
X96.95Y-124.75
X98.1Y-98.9
X98.3Y-88.7
X99.1Y-104.7
X99.35Y-123.55
X99.35Y-124.55
X99.35Y-125.55
X99.95Y-120.85
X99.95Y-121.85
X100.2Y-94.7
X100.85Y-121.85
X101.4Y-93.4
X102.4Y-81.9
X102.4Y-88.7
X102.4Y-124.7
X104.2Y-98.4
X104.5Y-86.6
X104.85Y-123.55
X104.85Y-124.55
X104.85Y-125.55
X105.45Y-120.85
X105.45Y-121.85
X105.6Y-108.8
X106.2Y-104.0
X106.35Y-121.85
X107.0Y-83.1
X107.95Y-124.75
X108.1Y-88.7
X110.35Y-123.55
X110.35Y-124.55
X110.35Y-125.55
X110.95Y-120.85
X110.95Y-121.85
X111.3Y-99.3
X111.85Y-121.85
X112.1Y-100.7
X112.1Y-102.2
X113.45Y-124.75
X113.5Y-100.0
X115.85Y-123.55
X115.85Y-124.55
X115.85Y-125.55
X116.45Y-120.85
X116.45Y-121.85
X117.35Y-121.85
X118.95Y-124.85
X120.7Y-106.4
X120.7Y-115.5
X122.9Y-80.9
X125.6Y-81.2
X125.6Y-116.2
X126.6Y-105.5
X128.8Y-98.8
X132.5Y-80.0
X133.4Y-99.0
X150.0Y-119.0
T2
X65.0Y-76.05
X65.0Y-77.4
X65.2Y-110.65
X65.2Y-112.0
X65.2Y-114.15
X65.2Y-115.5
X66.2Y-96.8
X66.3Y-76.05
X66.3Y-77.4
X66.4Y-107.6
X66.4Y-108.8
X66.6Y-140.3
X67.3Y-138.5
X76.7Y-114.5
X76.7Y-115.85
X79.1Y-133.4
X80.1Y-140.0
X83.7Y-79.4
X87.7Y-75.95
X87.7Y-77.3
X88.45Y-133.35
X89.0Y-75.95
X89.0Y-77.3
X89.0Y-87.2
X89.3Y-138.3
X89.8Y-88.6
X90.0Y-82.755
X90.5Y-83.75
X91.4Y-81.6
X94.4Y-79.0
X94.5Y-88.5
X96.5Y-82.5
X96.5Y-83.75
X123.5Y-75.9
X131.0Y-135.9
X131.0Y-136.9
X131.0Y-138.0
X132.6Y-78.6
X134.2Y-78.6
X137.3Y-130.3
X137.3Y-131.3
X137.9Y-135.9
X138.4Y-139.1
X138.4Y-140.1
X138.4Y-141.2
X138.65Y-130.3
X138.65Y-131.3
X144.0Y-100.55
X144.0Y-101.55
X145.1Y-100.55
X145.1Y-101.55
X146.1Y-84.4
X146.2Y-100.55
X146.2Y-101.55
X147.0Y-136.0
X147.3Y-100.55
X147.3Y-101.55
X147.3Y-132.8
X148.4Y-100.55
X148.4Y-101.55
T3
X93.5Y-117.7
X96.6Y-134.5
X57.6Y-140.0
X58.303Y-138.303
X58.303Y-141.697
X60.0Y-137.6
X60.0Y-142.4
X61.697Y-138.303
X61.697Y-141.697
X62.4Y-140.0
X57.6Y-80.0
X58.303Y-78.303
X58.303Y-81.697
X60.0Y-77.6
X60.0Y-82.4
X61.697Y-78.303
X61.697Y-81.697
X62.4Y-80.0
X147.6Y-80.0
X148.303Y-78.303
X148.303Y-81.697
X150.0Y-77.6
X150.0Y-82.4
X151.697Y-78.303
X151.697Y-81.697
X152.4Y-80.0
X147.6Y-140.0
X148.303Y-138.303
X148.303Y-141.697
X150.0Y-137.6
X150.0Y-142.4
X151.697Y-138.303
X151.697Y-141.697
X152.4Y-140.0
T4
X84.1Y-142.4
X86.64Y-142.4
X89.18Y-142.4
X107.0Y-79.0
X109.54Y-79.0
X112.08Y-79.0
X114.62Y-79.0
X117.16Y-79.0
X119.7Y-79.0
X140.56Y-127.6
X143.1Y-127.6
X93.55Y-142.39
X96.09Y-142.39
X98.63Y-142.39
X101.17Y-142.39
X103.71Y-142.39
X106.25Y-142.39
X108.79Y-142.39
X111.33Y-142.39
X113.87Y-142.39
X116.41Y-142.39
X69.86Y-142.3
X72.4Y-142.3
X74.94Y-142.3
T5
X129.9Y-107.2
X129.9Y-110.6
X129.9Y-118.2
X129.9Y-121.7
X152.8Y-107.5
X152.8Y-121.7
T6
X60.0Y-126.0
X132.0Y-126.0
X60.0Y-103.0
X132.0Y-103.0
T7
X60.0Y-80.0
X150.0Y-140.0
X60.0Y-140.0
X150.0Y-80.0
T0
M30
