G04 #@! TF.GenerationSoftware,KiCad,Pcbnew,(5.1.5-0-10_14)*
G04 #@! TF.CreationDate,2020-04-19T20:25:50+02:00*
G04 #@! TF.ProjectId,inuk-base,696e756b-2d62-4617-9365-2e6b69636164,rev?*
G04 #@! TF.SameCoordinates,Original*
G04 #@! TF.FileFunction,Soldermask,Top*
G04 #@! TF.FilePolarity,Negative*
%FSLAX46Y46*%
G04 Gerber Fmt 4.6, Leading zero omitted, Abs format (unit mm)*
G04 Created by KiCad (PCBNEW (5.1.5-0-10_14)) date 2020-04-19 20:25:50*
%MOMM*%
%LPD*%
G04 APERTURE LIST*
%ADD10C,0.200000*%
%ADD11C,0.350000*%
%ADD12C,0.100000*%
%ADD13R,2.700000X2.900000*%
%ADD14O,2.100000X2.100000*%
%ADD15R,2.100000X2.100000*%
%ADD16R,1.400000X2.910000*%
%ADD17R,2.910000X1.400000*%
%ADD18C,1.150000*%
%ADD19R,1.950000X1.400000*%
%ADD20C,1.300000*%
%ADD21R,2.900000X1.650000*%
%ADD22C,1.900000*%
%ADD23R,1.900000X1.400000*%
%ADD24R,1.400000X1.900000*%
%ADD25R,1.300000X1.200000*%
%ADD26R,3.200000X3.200000*%
%ADD27R,2.200000X1.100000*%
%ADD28R,1.100000X2.200000*%
%ADD29R,1.050000X1.460000*%
%ADD30R,1.200000X1.300000*%
%ADD31C,1.200000*%
%ADD32C,6.800000*%
%ADD33C,3.600000*%
%ADD34R,3.900000X3.900000*%
%ADD35C,3.900000*%
%ADD36R,2.800000X1.140000*%
G04 APERTURE END LIST*
D10*
X126328571Y-86142857D02*
X125928571Y-85571428D01*
X125642857Y-86142857D02*
X125642857Y-84942857D01*
X126100000Y-84942857D01*
X126214285Y-85000000D01*
X126271428Y-85057142D01*
X126328571Y-85171428D01*
X126328571Y-85342857D01*
X126271428Y-85457142D01*
X126214285Y-85514285D01*
X126100000Y-85571428D01*
X125642857Y-85571428D01*
X127300000Y-86085714D02*
X127185714Y-86142857D01*
X126957142Y-86142857D01*
X126842857Y-86085714D01*
X126785714Y-85971428D01*
X126785714Y-85514285D01*
X126842857Y-85400000D01*
X126957142Y-85342857D01*
X127185714Y-85342857D01*
X127300000Y-85400000D01*
X127357142Y-85514285D01*
X127357142Y-85628571D01*
X126785714Y-85742857D01*
X127757142Y-85342857D02*
X128042857Y-86142857D01*
X128328571Y-85342857D01*
X128785714Y-86028571D02*
X128842857Y-86085714D01*
X128785714Y-86142857D01*
X128728571Y-86085714D01*
X128785714Y-86028571D01*
X128785714Y-86142857D01*
X130900000Y-86142857D02*
X130214285Y-86142857D01*
X130557142Y-86142857D02*
X130557142Y-84942857D01*
X130442857Y-85114285D01*
X130328571Y-85228571D01*
X130214285Y-85285714D01*
X131414285Y-86028571D02*
X131471428Y-86085714D01*
X131414285Y-86142857D01*
X131357142Y-86085714D01*
X131414285Y-86028571D01*
X131414285Y-86142857D01*
X132214285Y-84942857D02*
X132328571Y-84942857D01*
X132442857Y-85000000D01*
X132500000Y-85057142D01*
X132557142Y-85171428D01*
X132614285Y-85400000D01*
X132614285Y-85685714D01*
X132557142Y-85914285D01*
X132500000Y-86028571D01*
X132442857Y-86085714D01*
X132328571Y-86142857D01*
X132214285Y-86142857D01*
X132100000Y-86085714D01*
X132042857Y-86028571D01*
X131985714Y-85914285D01*
X131928571Y-85685714D01*
X131928571Y-85400000D01*
X131985714Y-85171428D01*
X132042857Y-85057142D01*
X132100000Y-85000000D01*
X132214285Y-84942857D01*
X125685714Y-84142857D02*
X125685714Y-82942857D01*
X126257142Y-83342857D02*
X126257142Y-84142857D01*
X126257142Y-83457142D02*
X126314285Y-83400000D01*
X126428571Y-83342857D01*
X126600000Y-83342857D01*
X126714285Y-83400000D01*
X126771428Y-83514285D01*
X126771428Y-84142857D01*
X127857142Y-83342857D02*
X127857142Y-84142857D01*
X127342857Y-83342857D02*
X127342857Y-83971428D01*
X127400000Y-84085714D01*
X127514285Y-84142857D01*
X127685714Y-84142857D01*
X127800000Y-84085714D01*
X127857142Y-84028571D01*
X128428571Y-84142857D02*
X128428571Y-82942857D01*
X128542857Y-83685714D02*
X128885714Y-84142857D01*
X128885714Y-83342857D02*
X128428571Y-83800000D01*
X130314285Y-84142857D02*
X130314285Y-82942857D01*
X130314285Y-83400000D02*
X130428571Y-83342857D01*
X130657142Y-83342857D01*
X130771428Y-83400000D01*
X130828571Y-83457142D01*
X130885714Y-83571428D01*
X130885714Y-83914285D01*
X130828571Y-84028571D01*
X130771428Y-84085714D01*
X130657142Y-84142857D01*
X130428571Y-84142857D01*
X130314285Y-84085714D01*
X131914285Y-84142857D02*
X131914285Y-83514285D01*
X131857142Y-83400000D01*
X131742857Y-83342857D01*
X131514285Y-83342857D01*
X131400000Y-83400000D01*
X131914285Y-84085714D02*
X131800000Y-84142857D01*
X131514285Y-84142857D01*
X131400000Y-84085714D01*
X131342857Y-83971428D01*
X131342857Y-83857142D01*
X131400000Y-83742857D01*
X131514285Y-83685714D01*
X131800000Y-83685714D01*
X131914285Y-83628571D01*
X132428571Y-84085714D02*
X132542857Y-84142857D01*
X132771428Y-84142857D01*
X132885714Y-84085714D01*
X132942857Y-83971428D01*
X132942857Y-83914285D01*
X132885714Y-83800000D01*
X132771428Y-83742857D01*
X132600000Y-83742857D01*
X132485714Y-83685714D01*
X132428571Y-83571428D01*
X132428571Y-83514285D01*
X132485714Y-83400000D01*
X132600000Y-83342857D01*
X132771428Y-83342857D01*
X132885714Y-83400000D01*
X133914285Y-84085714D02*
X133800000Y-84142857D01*
X133571428Y-84142857D01*
X133457142Y-84085714D01*
X133400000Y-83971428D01*
X133400000Y-83514285D01*
X133457142Y-83400000D01*
X133571428Y-83342857D01*
X133800000Y-83342857D01*
X133914285Y-83400000D01*
X133971428Y-83514285D01*
X133971428Y-83628571D01*
X133400000Y-83742857D01*
D11*
X135940000Y-85610000D02*
X136690000Y-83610000D01*
D12*
G36*
X138300000Y-84510000D02*
G01*
X138060000Y-84600000D01*
X138000000Y-84380000D01*
X138170000Y-83920000D01*
X138300000Y-84510000D01*
G37*
X138300000Y-84510000D02*
X138060000Y-84600000D01*
X138000000Y-84380000D01*
X138170000Y-83920000D01*
X138300000Y-84510000D01*
D11*
X136690000Y-83610000D02*
X137190000Y-85610000D01*
X137190000Y-85610000D02*
X137940000Y-83610000D01*
X138140000Y-84390000D02*
X138440000Y-85610000D01*
D13*
X140000000Y-97150000D03*
X140000000Y-101450000D03*
D12*
G36*
X128996071Y-97051623D02*
G01*
X129028781Y-97056475D01*
X129060857Y-97064509D01*
X129091991Y-97075649D01*
X129121884Y-97089787D01*
X129150247Y-97106787D01*
X129176807Y-97126485D01*
X129201308Y-97148692D01*
X129223515Y-97173193D01*
X129243213Y-97199753D01*
X129260213Y-97228116D01*
X129274351Y-97258009D01*
X129285491Y-97289143D01*
X129293525Y-97321219D01*
X129298377Y-97353929D01*
X129300000Y-97386956D01*
X129300000Y-98263044D01*
X129298377Y-98296071D01*
X129293525Y-98328781D01*
X129285491Y-98360857D01*
X129274351Y-98391991D01*
X129260213Y-98421884D01*
X129243213Y-98450247D01*
X129223515Y-98476807D01*
X129201308Y-98501308D01*
X129176807Y-98523515D01*
X129150247Y-98543213D01*
X129121884Y-98560213D01*
X129091991Y-98574351D01*
X129060857Y-98585491D01*
X129028781Y-98593525D01*
X128996071Y-98598377D01*
X128963044Y-98600000D01*
X127836956Y-98600000D01*
X127803929Y-98598377D01*
X127771219Y-98593525D01*
X127739143Y-98585491D01*
X127708009Y-98574351D01*
X127678116Y-98560213D01*
X127649753Y-98543213D01*
X127623193Y-98523515D01*
X127598692Y-98501308D01*
X127576485Y-98476807D01*
X127556787Y-98450247D01*
X127539787Y-98421884D01*
X127525649Y-98391991D01*
X127514509Y-98360857D01*
X127506475Y-98328781D01*
X127501623Y-98296071D01*
X127500000Y-98263044D01*
X127500000Y-97386956D01*
X127501623Y-97353929D01*
X127506475Y-97321219D01*
X127514509Y-97289143D01*
X127525649Y-97258009D01*
X127539787Y-97228116D01*
X127556787Y-97199753D01*
X127576485Y-97173193D01*
X127598692Y-97148692D01*
X127623193Y-97126485D01*
X127649753Y-97106787D01*
X127678116Y-97089787D01*
X127708009Y-97075649D01*
X127739143Y-97064509D01*
X127771219Y-97056475D01*
X127803929Y-97051623D01*
X127836956Y-97050000D01*
X128963044Y-97050000D01*
X128996071Y-97051623D01*
G37*
G36*
X128996071Y-95001623D02*
G01*
X129028781Y-95006475D01*
X129060857Y-95014509D01*
X129091991Y-95025649D01*
X129121884Y-95039787D01*
X129150247Y-95056787D01*
X129176807Y-95076485D01*
X129201308Y-95098692D01*
X129223515Y-95123193D01*
X129243213Y-95149753D01*
X129260213Y-95178116D01*
X129274351Y-95208009D01*
X129285491Y-95239143D01*
X129293525Y-95271219D01*
X129298377Y-95303929D01*
X129300000Y-95336956D01*
X129300000Y-96213044D01*
X129298377Y-96246071D01*
X129293525Y-96278781D01*
X129285491Y-96310857D01*
X129274351Y-96341991D01*
X129260213Y-96371884D01*
X129243213Y-96400247D01*
X129223515Y-96426807D01*
X129201308Y-96451308D01*
X129176807Y-96473515D01*
X129150247Y-96493213D01*
X129121884Y-96510213D01*
X129091991Y-96524351D01*
X129060857Y-96535491D01*
X129028781Y-96543525D01*
X128996071Y-96548377D01*
X128963044Y-96550000D01*
X127836956Y-96550000D01*
X127803929Y-96548377D01*
X127771219Y-96543525D01*
X127739143Y-96535491D01*
X127708009Y-96524351D01*
X127678116Y-96510213D01*
X127649753Y-96493213D01*
X127623193Y-96473515D01*
X127598692Y-96451308D01*
X127576485Y-96426807D01*
X127556787Y-96400247D01*
X127539787Y-96371884D01*
X127525649Y-96341991D01*
X127514509Y-96310857D01*
X127506475Y-96278781D01*
X127501623Y-96246071D01*
X127500000Y-96213044D01*
X127500000Y-95336956D01*
X127501623Y-95303929D01*
X127506475Y-95271219D01*
X127514509Y-95239143D01*
X127525649Y-95208009D01*
X127539787Y-95178116D01*
X127556787Y-95149753D01*
X127576485Y-95123193D01*
X127598692Y-95098692D01*
X127623193Y-95076485D01*
X127649753Y-95056787D01*
X127678116Y-95039787D01*
X127708009Y-95025649D01*
X127739143Y-95014509D01*
X127771219Y-95006475D01*
X127803929Y-95001623D01*
X127836956Y-95000000D01*
X128963044Y-95000000D01*
X128996071Y-95001623D01*
G37*
D14*
X96090000Y-142390000D03*
X98630000Y-142390000D03*
D15*
X93550000Y-142390000D03*
D14*
X101170000Y-142390000D03*
X103710000Y-142390000D03*
X106250000Y-142390000D03*
X108790000Y-142390000D03*
X111330000Y-142390000D03*
X113870000Y-142390000D03*
X116410000Y-142390000D03*
D16*
X75610000Y-118655000D03*
X80690000Y-118655000D03*
X85770000Y-118655000D03*
X90850000Y-118655000D03*
X78150000Y-115345000D03*
X83230000Y-115345000D03*
X88310000Y-115345000D03*
X93390000Y-115345000D03*
D17*
X108155000Y-108890000D03*
X108155000Y-103810000D03*
X108155000Y-98730000D03*
X108155000Y-93650000D03*
X104845000Y-106350000D03*
X104845000Y-101270000D03*
X104845000Y-96190000D03*
X104845000Y-91110000D03*
D12*
G36*
X70596071Y-107301623D02*
G01*
X70628781Y-107306475D01*
X70660857Y-107314509D01*
X70691991Y-107325649D01*
X70721884Y-107339787D01*
X70750247Y-107356787D01*
X70776807Y-107376485D01*
X70801308Y-107398692D01*
X70823515Y-107423193D01*
X70843213Y-107449753D01*
X70860213Y-107478116D01*
X70874351Y-107508009D01*
X70885491Y-107539143D01*
X70893525Y-107571219D01*
X70898377Y-107603929D01*
X70900000Y-107636956D01*
X70900000Y-108763044D01*
X70898377Y-108796071D01*
X70893525Y-108828781D01*
X70885491Y-108860857D01*
X70874351Y-108891991D01*
X70860213Y-108921884D01*
X70843213Y-108950247D01*
X70823515Y-108976807D01*
X70801308Y-109001308D01*
X70776807Y-109023515D01*
X70750247Y-109043213D01*
X70721884Y-109060213D01*
X70691991Y-109074351D01*
X70660857Y-109085491D01*
X70628781Y-109093525D01*
X70596071Y-109098377D01*
X70563044Y-109100000D01*
X69686956Y-109100000D01*
X69653929Y-109098377D01*
X69621219Y-109093525D01*
X69589143Y-109085491D01*
X69558009Y-109074351D01*
X69528116Y-109060213D01*
X69499753Y-109043213D01*
X69473193Y-109023515D01*
X69448692Y-109001308D01*
X69426485Y-108976807D01*
X69406787Y-108950247D01*
X69389787Y-108921884D01*
X69375649Y-108891991D01*
X69364509Y-108860857D01*
X69356475Y-108828781D01*
X69351623Y-108796071D01*
X69350000Y-108763044D01*
X69350000Y-107636956D01*
X69351623Y-107603929D01*
X69356475Y-107571219D01*
X69364509Y-107539143D01*
X69375649Y-107508009D01*
X69389787Y-107478116D01*
X69406787Y-107449753D01*
X69426485Y-107423193D01*
X69448692Y-107398692D01*
X69473193Y-107376485D01*
X69499753Y-107356787D01*
X69528116Y-107339787D01*
X69558009Y-107325649D01*
X69589143Y-107314509D01*
X69621219Y-107306475D01*
X69653929Y-107301623D01*
X69686956Y-107300000D01*
X70563044Y-107300000D01*
X70596071Y-107301623D01*
G37*
G36*
X68546071Y-107301623D02*
G01*
X68578781Y-107306475D01*
X68610857Y-107314509D01*
X68641991Y-107325649D01*
X68671884Y-107339787D01*
X68700247Y-107356787D01*
X68726807Y-107376485D01*
X68751308Y-107398692D01*
X68773515Y-107423193D01*
X68793213Y-107449753D01*
X68810213Y-107478116D01*
X68824351Y-107508009D01*
X68835491Y-107539143D01*
X68843525Y-107571219D01*
X68848377Y-107603929D01*
X68850000Y-107636956D01*
X68850000Y-108763044D01*
X68848377Y-108796071D01*
X68843525Y-108828781D01*
X68835491Y-108860857D01*
X68824351Y-108891991D01*
X68810213Y-108921884D01*
X68793213Y-108950247D01*
X68773515Y-108976807D01*
X68751308Y-109001308D01*
X68726807Y-109023515D01*
X68700247Y-109043213D01*
X68671884Y-109060213D01*
X68641991Y-109074351D01*
X68610857Y-109085491D01*
X68578781Y-109093525D01*
X68546071Y-109098377D01*
X68513044Y-109100000D01*
X67636956Y-109100000D01*
X67603929Y-109098377D01*
X67571219Y-109093525D01*
X67539143Y-109085491D01*
X67508009Y-109074351D01*
X67478116Y-109060213D01*
X67449753Y-109043213D01*
X67423193Y-109023515D01*
X67398692Y-109001308D01*
X67376485Y-108976807D01*
X67356787Y-108950247D01*
X67339787Y-108921884D01*
X67325649Y-108891991D01*
X67314509Y-108860857D01*
X67306475Y-108828781D01*
X67301623Y-108796071D01*
X67300000Y-108763044D01*
X67300000Y-107636956D01*
X67301623Y-107603929D01*
X67306475Y-107571219D01*
X67314509Y-107539143D01*
X67325649Y-107508009D01*
X67339787Y-107478116D01*
X67356787Y-107449753D01*
X67376485Y-107423193D01*
X67398692Y-107398692D01*
X67423193Y-107376485D01*
X67449753Y-107356787D01*
X67478116Y-107339787D01*
X67508009Y-107325649D01*
X67539143Y-107314509D01*
X67571219Y-107306475D01*
X67603929Y-107301623D01*
X67636956Y-107300000D01*
X68513044Y-107300000D01*
X68546071Y-107301623D01*
G37*
G36*
X67636207Y-109576542D02*
G01*
X67667287Y-109581152D01*
X67697766Y-109588787D01*
X67727350Y-109599372D01*
X67755754Y-109612806D01*
X67782704Y-109628959D01*
X67807942Y-109647677D01*
X67831223Y-109668777D01*
X67852323Y-109692058D01*
X67871041Y-109717296D01*
X67887194Y-109744246D01*
X67900628Y-109772650D01*
X67911213Y-109802234D01*
X67918848Y-109832713D01*
X67923458Y-109863793D01*
X67925000Y-109895176D01*
X67925000Y-112304824D01*
X67923458Y-112336207D01*
X67918848Y-112367287D01*
X67911213Y-112397766D01*
X67900628Y-112427350D01*
X67887194Y-112455754D01*
X67871041Y-112482704D01*
X67852323Y-112507942D01*
X67831223Y-112531223D01*
X67807942Y-112552323D01*
X67782704Y-112571041D01*
X67755754Y-112587194D01*
X67727350Y-112600628D01*
X67697766Y-112611213D01*
X67667287Y-112618848D01*
X67636207Y-112623458D01*
X67604824Y-112625000D01*
X66420176Y-112625000D01*
X66388793Y-112623458D01*
X66357713Y-112618848D01*
X66327234Y-112611213D01*
X66297650Y-112600628D01*
X66269246Y-112587194D01*
X66242296Y-112571041D01*
X66217058Y-112552323D01*
X66193777Y-112531223D01*
X66172677Y-112507942D01*
X66153959Y-112482704D01*
X66137806Y-112455754D01*
X66124372Y-112427350D01*
X66113787Y-112397766D01*
X66106152Y-112367287D01*
X66101542Y-112336207D01*
X66100000Y-112304824D01*
X66100000Y-109895176D01*
X66101542Y-109863793D01*
X66106152Y-109832713D01*
X66113787Y-109802234D01*
X66124372Y-109772650D01*
X66137806Y-109744246D01*
X66153959Y-109717296D01*
X66172677Y-109692058D01*
X66193777Y-109668777D01*
X66217058Y-109647677D01*
X66242296Y-109628959D01*
X66269246Y-109612806D01*
X66297650Y-109599372D01*
X66327234Y-109588787D01*
X66357713Y-109581152D01*
X66388793Y-109576542D01*
X66420176Y-109575000D01*
X67604824Y-109575000D01*
X67636207Y-109576542D01*
G37*
G36*
X70611207Y-109576542D02*
G01*
X70642287Y-109581152D01*
X70672766Y-109588787D01*
X70702350Y-109599372D01*
X70730754Y-109612806D01*
X70757704Y-109628959D01*
X70782942Y-109647677D01*
X70806223Y-109668777D01*
X70827323Y-109692058D01*
X70846041Y-109717296D01*
X70862194Y-109744246D01*
X70875628Y-109772650D01*
X70886213Y-109802234D01*
X70893848Y-109832713D01*
X70898458Y-109863793D01*
X70900000Y-109895176D01*
X70900000Y-112304824D01*
X70898458Y-112336207D01*
X70893848Y-112367287D01*
X70886213Y-112397766D01*
X70875628Y-112427350D01*
X70862194Y-112455754D01*
X70846041Y-112482704D01*
X70827323Y-112507942D01*
X70806223Y-112531223D01*
X70782942Y-112552323D01*
X70757704Y-112571041D01*
X70730754Y-112587194D01*
X70702350Y-112600628D01*
X70672766Y-112611213D01*
X70642287Y-112618848D01*
X70611207Y-112623458D01*
X70579824Y-112625000D01*
X69395176Y-112625000D01*
X69363793Y-112623458D01*
X69332713Y-112618848D01*
X69302234Y-112611213D01*
X69272650Y-112600628D01*
X69244246Y-112587194D01*
X69217296Y-112571041D01*
X69192058Y-112552323D01*
X69168777Y-112531223D01*
X69147677Y-112507942D01*
X69128959Y-112482704D01*
X69112806Y-112455754D01*
X69099372Y-112427350D01*
X69088787Y-112397766D01*
X69081152Y-112367287D01*
X69076542Y-112336207D01*
X69075000Y-112304824D01*
X69075000Y-109895176D01*
X69076542Y-109863793D01*
X69081152Y-109832713D01*
X69088787Y-109802234D01*
X69099372Y-109772650D01*
X69112806Y-109744246D01*
X69128959Y-109717296D01*
X69147677Y-109692058D01*
X69168777Y-109668777D01*
X69192058Y-109647677D01*
X69217296Y-109628959D01*
X69244246Y-109612806D01*
X69272650Y-109599372D01*
X69302234Y-109588787D01*
X69332713Y-109581152D01*
X69363793Y-109576542D01*
X69395176Y-109575000D01*
X70579824Y-109575000D01*
X70611207Y-109576542D01*
G37*
G36*
X67636207Y-113276542D02*
G01*
X67667287Y-113281152D01*
X67697766Y-113288787D01*
X67727350Y-113299372D01*
X67755754Y-113312806D01*
X67782704Y-113328959D01*
X67807942Y-113347677D01*
X67831223Y-113368777D01*
X67852323Y-113392058D01*
X67871041Y-113417296D01*
X67887194Y-113444246D01*
X67900628Y-113472650D01*
X67911213Y-113502234D01*
X67918848Y-113532713D01*
X67923458Y-113563793D01*
X67925000Y-113595176D01*
X67925000Y-116004824D01*
X67923458Y-116036207D01*
X67918848Y-116067287D01*
X67911213Y-116097766D01*
X67900628Y-116127350D01*
X67887194Y-116155754D01*
X67871041Y-116182704D01*
X67852323Y-116207942D01*
X67831223Y-116231223D01*
X67807942Y-116252323D01*
X67782704Y-116271041D01*
X67755754Y-116287194D01*
X67727350Y-116300628D01*
X67697766Y-116311213D01*
X67667287Y-116318848D01*
X67636207Y-116323458D01*
X67604824Y-116325000D01*
X66420176Y-116325000D01*
X66388793Y-116323458D01*
X66357713Y-116318848D01*
X66327234Y-116311213D01*
X66297650Y-116300628D01*
X66269246Y-116287194D01*
X66242296Y-116271041D01*
X66217058Y-116252323D01*
X66193777Y-116231223D01*
X66172677Y-116207942D01*
X66153959Y-116182704D01*
X66137806Y-116155754D01*
X66124372Y-116127350D01*
X66113787Y-116097766D01*
X66106152Y-116067287D01*
X66101542Y-116036207D01*
X66100000Y-116004824D01*
X66100000Y-113595176D01*
X66101542Y-113563793D01*
X66106152Y-113532713D01*
X66113787Y-113502234D01*
X66124372Y-113472650D01*
X66137806Y-113444246D01*
X66153959Y-113417296D01*
X66172677Y-113392058D01*
X66193777Y-113368777D01*
X66217058Y-113347677D01*
X66242296Y-113328959D01*
X66269246Y-113312806D01*
X66297650Y-113299372D01*
X66327234Y-113288787D01*
X66357713Y-113281152D01*
X66388793Y-113276542D01*
X66420176Y-113275000D01*
X67604824Y-113275000D01*
X67636207Y-113276542D01*
G37*
G36*
X70611207Y-113276542D02*
G01*
X70642287Y-113281152D01*
X70672766Y-113288787D01*
X70702350Y-113299372D01*
X70730754Y-113312806D01*
X70757704Y-113328959D01*
X70782942Y-113347677D01*
X70806223Y-113368777D01*
X70827323Y-113392058D01*
X70846041Y-113417296D01*
X70862194Y-113444246D01*
X70875628Y-113472650D01*
X70886213Y-113502234D01*
X70893848Y-113532713D01*
X70898458Y-113563793D01*
X70900000Y-113595176D01*
X70900000Y-116004824D01*
X70898458Y-116036207D01*
X70893848Y-116067287D01*
X70886213Y-116097766D01*
X70875628Y-116127350D01*
X70862194Y-116155754D01*
X70846041Y-116182704D01*
X70827323Y-116207942D01*
X70806223Y-116231223D01*
X70782942Y-116252323D01*
X70757704Y-116271041D01*
X70730754Y-116287194D01*
X70702350Y-116300628D01*
X70672766Y-116311213D01*
X70642287Y-116318848D01*
X70611207Y-116323458D01*
X70579824Y-116325000D01*
X69395176Y-116325000D01*
X69363793Y-116323458D01*
X69332713Y-116318848D01*
X69302234Y-116311213D01*
X69272650Y-116300628D01*
X69244246Y-116287194D01*
X69217296Y-116271041D01*
X69192058Y-116252323D01*
X69168777Y-116231223D01*
X69147677Y-116207942D01*
X69128959Y-116182704D01*
X69112806Y-116155754D01*
X69099372Y-116127350D01*
X69088787Y-116097766D01*
X69081152Y-116067287D01*
X69076542Y-116036207D01*
X69075000Y-116004824D01*
X69075000Y-113595176D01*
X69076542Y-113563793D01*
X69081152Y-113532713D01*
X69088787Y-113502234D01*
X69099372Y-113472650D01*
X69112806Y-113444246D01*
X69128959Y-113417296D01*
X69147677Y-113392058D01*
X69168777Y-113368777D01*
X69192058Y-113347677D01*
X69217296Y-113328959D01*
X69244246Y-113312806D01*
X69272650Y-113299372D01*
X69302234Y-113288787D01*
X69332713Y-113281152D01*
X69363793Y-113276542D01*
X69395176Y-113275000D01*
X70579824Y-113275000D01*
X70611207Y-113276542D01*
G37*
G36*
X81062493Y-110226535D02*
G01*
X81093435Y-110231125D01*
X81123778Y-110238725D01*
X81153230Y-110249263D01*
X81181508Y-110262638D01*
X81208338Y-110278719D01*
X81233463Y-110297353D01*
X81256640Y-110318360D01*
X81277647Y-110341537D01*
X81296281Y-110366662D01*
X81312362Y-110393492D01*
X81325737Y-110421770D01*
X81336275Y-110451222D01*
X81343875Y-110481565D01*
X81348465Y-110512507D01*
X81350000Y-110543750D01*
X81350000Y-111256250D01*
X81348465Y-111287493D01*
X81343875Y-111318435D01*
X81336275Y-111348778D01*
X81325737Y-111378230D01*
X81312362Y-111406508D01*
X81296281Y-111433338D01*
X81277647Y-111458463D01*
X81256640Y-111481640D01*
X81233463Y-111502647D01*
X81208338Y-111521281D01*
X81181508Y-111537362D01*
X81153230Y-111550737D01*
X81123778Y-111561275D01*
X81093435Y-111568875D01*
X81062493Y-111573465D01*
X81031250Y-111575000D01*
X80393750Y-111575000D01*
X80362507Y-111573465D01*
X80331565Y-111568875D01*
X80301222Y-111561275D01*
X80271770Y-111550737D01*
X80243492Y-111537362D01*
X80216662Y-111521281D01*
X80191537Y-111502647D01*
X80168360Y-111481640D01*
X80147353Y-111458463D01*
X80128719Y-111433338D01*
X80112638Y-111406508D01*
X80099263Y-111378230D01*
X80088725Y-111348778D01*
X80081125Y-111318435D01*
X80076535Y-111287493D01*
X80075000Y-111256250D01*
X80075000Y-110543750D01*
X80076535Y-110512507D01*
X80081125Y-110481565D01*
X80088725Y-110451222D01*
X80099263Y-110421770D01*
X80112638Y-110393492D01*
X80128719Y-110366662D01*
X80147353Y-110341537D01*
X80168360Y-110318360D01*
X80191537Y-110297353D01*
X80216662Y-110278719D01*
X80243492Y-110262638D01*
X80271770Y-110249263D01*
X80301222Y-110238725D01*
X80331565Y-110231125D01*
X80362507Y-110226535D01*
X80393750Y-110225000D01*
X81031250Y-110225000D01*
X81062493Y-110226535D01*
G37*
G36*
X82637493Y-110226535D02*
G01*
X82668435Y-110231125D01*
X82698778Y-110238725D01*
X82728230Y-110249263D01*
X82756508Y-110262638D01*
X82783338Y-110278719D01*
X82808463Y-110297353D01*
X82831640Y-110318360D01*
X82852647Y-110341537D01*
X82871281Y-110366662D01*
X82887362Y-110393492D01*
X82900737Y-110421770D01*
X82911275Y-110451222D01*
X82918875Y-110481565D01*
X82923465Y-110512507D01*
X82925000Y-110543750D01*
X82925000Y-111256250D01*
X82923465Y-111287493D01*
X82918875Y-111318435D01*
X82911275Y-111348778D01*
X82900737Y-111378230D01*
X82887362Y-111406508D01*
X82871281Y-111433338D01*
X82852647Y-111458463D01*
X82831640Y-111481640D01*
X82808463Y-111502647D01*
X82783338Y-111521281D01*
X82756508Y-111537362D01*
X82728230Y-111550737D01*
X82698778Y-111561275D01*
X82668435Y-111568875D01*
X82637493Y-111573465D01*
X82606250Y-111575000D01*
X81968750Y-111575000D01*
X81937507Y-111573465D01*
X81906565Y-111568875D01*
X81876222Y-111561275D01*
X81846770Y-111550737D01*
X81818492Y-111537362D01*
X81791662Y-111521281D01*
X81766537Y-111502647D01*
X81743360Y-111481640D01*
X81722353Y-111458463D01*
X81703719Y-111433338D01*
X81687638Y-111406508D01*
X81674263Y-111378230D01*
X81663725Y-111348778D01*
X81656125Y-111318435D01*
X81651535Y-111287493D01*
X81650000Y-111256250D01*
X81650000Y-110543750D01*
X81651535Y-110512507D01*
X81656125Y-110481565D01*
X81663725Y-110451222D01*
X81674263Y-110421770D01*
X81687638Y-110393492D01*
X81703719Y-110366662D01*
X81722353Y-110341537D01*
X81743360Y-110318360D01*
X81766537Y-110297353D01*
X81791662Y-110278719D01*
X81818492Y-110262638D01*
X81846770Y-110249263D01*
X81876222Y-110238725D01*
X81906565Y-110231125D01*
X81937507Y-110226535D01*
X81968750Y-110225000D01*
X82606250Y-110225000D01*
X82637493Y-110226535D01*
G37*
G36*
X78037493Y-110226535D02*
G01*
X78068435Y-110231125D01*
X78098778Y-110238725D01*
X78128230Y-110249263D01*
X78156508Y-110262638D01*
X78183338Y-110278719D01*
X78208463Y-110297353D01*
X78231640Y-110318360D01*
X78252647Y-110341537D01*
X78271281Y-110366662D01*
X78287362Y-110393492D01*
X78300737Y-110421770D01*
X78311275Y-110451222D01*
X78318875Y-110481565D01*
X78323465Y-110512507D01*
X78325000Y-110543750D01*
X78325000Y-111256250D01*
X78323465Y-111287493D01*
X78318875Y-111318435D01*
X78311275Y-111348778D01*
X78300737Y-111378230D01*
X78287362Y-111406508D01*
X78271281Y-111433338D01*
X78252647Y-111458463D01*
X78231640Y-111481640D01*
X78208463Y-111502647D01*
X78183338Y-111521281D01*
X78156508Y-111537362D01*
X78128230Y-111550737D01*
X78098778Y-111561275D01*
X78068435Y-111568875D01*
X78037493Y-111573465D01*
X78006250Y-111575000D01*
X77368750Y-111575000D01*
X77337507Y-111573465D01*
X77306565Y-111568875D01*
X77276222Y-111561275D01*
X77246770Y-111550737D01*
X77218492Y-111537362D01*
X77191662Y-111521281D01*
X77166537Y-111502647D01*
X77143360Y-111481640D01*
X77122353Y-111458463D01*
X77103719Y-111433338D01*
X77087638Y-111406508D01*
X77074263Y-111378230D01*
X77063725Y-111348778D01*
X77056125Y-111318435D01*
X77051535Y-111287493D01*
X77050000Y-111256250D01*
X77050000Y-110543750D01*
X77051535Y-110512507D01*
X77056125Y-110481565D01*
X77063725Y-110451222D01*
X77074263Y-110421770D01*
X77087638Y-110393492D01*
X77103719Y-110366662D01*
X77122353Y-110341537D01*
X77143360Y-110318360D01*
X77166537Y-110297353D01*
X77191662Y-110278719D01*
X77218492Y-110262638D01*
X77246770Y-110249263D01*
X77276222Y-110238725D01*
X77306565Y-110231125D01*
X77337507Y-110226535D01*
X77368750Y-110225000D01*
X78006250Y-110225000D01*
X78037493Y-110226535D01*
G37*
G36*
X76462493Y-110226535D02*
G01*
X76493435Y-110231125D01*
X76523778Y-110238725D01*
X76553230Y-110249263D01*
X76581508Y-110262638D01*
X76608338Y-110278719D01*
X76633463Y-110297353D01*
X76656640Y-110318360D01*
X76677647Y-110341537D01*
X76696281Y-110366662D01*
X76712362Y-110393492D01*
X76725737Y-110421770D01*
X76736275Y-110451222D01*
X76743875Y-110481565D01*
X76748465Y-110512507D01*
X76750000Y-110543750D01*
X76750000Y-111256250D01*
X76748465Y-111287493D01*
X76743875Y-111318435D01*
X76736275Y-111348778D01*
X76725737Y-111378230D01*
X76712362Y-111406508D01*
X76696281Y-111433338D01*
X76677647Y-111458463D01*
X76656640Y-111481640D01*
X76633463Y-111502647D01*
X76608338Y-111521281D01*
X76581508Y-111537362D01*
X76553230Y-111550737D01*
X76523778Y-111561275D01*
X76493435Y-111568875D01*
X76462493Y-111573465D01*
X76431250Y-111575000D01*
X75793750Y-111575000D01*
X75762507Y-111573465D01*
X75731565Y-111568875D01*
X75701222Y-111561275D01*
X75671770Y-111550737D01*
X75643492Y-111537362D01*
X75616662Y-111521281D01*
X75591537Y-111502647D01*
X75568360Y-111481640D01*
X75547353Y-111458463D01*
X75528719Y-111433338D01*
X75512638Y-111406508D01*
X75499263Y-111378230D01*
X75488725Y-111348778D01*
X75481125Y-111318435D01*
X75476535Y-111287493D01*
X75475000Y-111256250D01*
X75475000Y-110543750D01*
X75476535Y-110512507D01*
X75481125Y-110481565D01*
X75488725Y-110451222D01*
X75499263Y-110421770D01*
X75512638Y-110393492D01*
X75528719Y-110366662D01*
X75547353Y-110341537D01*
X75568360Y-110318360D01*
X75591537Y-110297353D01*
X75616662Y-110278719D01*
X75643492Y-110262638D01*
X75671770Y-110249263D01*
X75701222Y-110238725D01*
X75731565Y-110231125D01*
X75762507Y-110226535D01*
X75793750Y-110225000D01*
X76431250Y-110225000D01*
X76462493Y-110226535D01*
G37*
D18*
X138450000Y-75525000D03*
X138450000Y-78275000D03*
D19*
X141075000Y-76050000D03*
X135825000Y-76050000D03*
X135825000Y-77750000D03*
X141075000Y-77750000D03*
D18*
X128250000Y-75525000D03*
X128250000Y-78275000D03*
D19*
X130875000Y-76050000D03*
X125625000Y-76050000D03*
X125625000Y-77750000D03*
X130875000Y-77750000D03*
D12*
G36*
X154414372Y-93801525D02*
G01*
X154445112Y-93806085D01*
X154475257Y-93813636D01*
X154504516Y-93824105D01*
X154532609Y-93837392D01*
X154559264Y-93853368D01*
X154584224Y-93871880D01*
X154607250Y-93892750D01*
X154628120Y-93915776D01*
X154646632Y-93940736D01*
X154662608Y-93967391D01*
X154675895Y-93995484D01*
X154686364Y-94024743D01*
X154693915Y-94054888D01*
X154698475Y-94085628D01*
X154700000Y-94116667D01*
X154700000Y-95383333D01*
X154698475Y-95414372D01*
X154693915Y-95445112D01*
X154686364Y-95475257D01*
X154675895Y-95504516D01*
X154662608Y-95532609D01*
X154646632Y-95559264D01*
X154628120Y-95584224D01*
X154607250Y-95607250D01*
X154584224Y-95628120D01*
X154559264Y-95646632D01*
X154532609Y-95662608D01*
X154504516Y-95675895D01*
X154475257Y-95686364D01*
X154445112Y-95693915D01*
X154414372Y-95698475D01*
X154383333Y-95700000D01*
X151216667Y-95700000D01*
X151185628Y-95698475D01*
X151154888Y-95693915D01*
X151124743Y-95686364D01*
X151095484Y-95675895D01*
X151067391Y-95662608D01*
X151040736Y-95646632D01*
X151015776Y-95628120D01*
X150992750Y-95607250D01*
X150971880Y-95584224D01*
X150953368Y-95559264D01*
X150937392Y-95532609D01*
X150924105Y-95504516D01*
X150913636Y-95475257D01*
X150906085Y-95445112D01*
X150901525Y-95414372D01*
X150900000Y-95383333D01*
X150900000Y-94116667D01*
X150901525Y-94085628D01*
X150906085Y-94054888D01*
X150913636Y-94024743D01*
X150924105Y-93995484D01*
X150937392Y-93967391D01*
X150953368Y-93940736D01*
X150971880Y-93915776D01*
X150992750Y-93892750D01*
X151015776Y-93871880D01*
X151040736Y-93853368D01*
X151067391Y-93837392D01*
X151095484Y-93824105D01*
X151124743Y-93813636D01*
X151154888Y-93806085D01*
X151185628Y-93801525D01*
X151216667Y-93800000D01*
X154383333Y-93800000D01*
X154414372Y-93801525D01*
G37*
G36*
X154414372Y-100501525D02*
G01*
X154445112Y-100506085D01*
X154475257Y-100513636D01*
X154504516Y-100524105D01*
X154532609Y-100537392D01*
X154559264Y-100553368D01*
X154584224Y-100571880D01*
X154607250Y-100592750D01*
X154628120Y-100615776D01*
X154646632Y-100640736D01*
X154662608Y-100667391D01*
X154675895Y-100695484D01*
X154686364Y-100724743D01*
X154693915Y-100754888D01*
X154698475Y-100785628D01*
X154700000Y-100816667D01*
X154700000Y-102083333D01*
X154698475Y-102114372D01*
X154693915Y-102145112D01*
X154686364Y-102175257D01*
X154675895Y-102204516D01*
X154662608Y-102232609D01*
X154646632Y-102259264D01*
X154628120Y-102284224D01*
X154607250Y-102307250D01*
X154584224Y-102328120D01*
X154559264Y-102346632D01*
X154532609Y-102362608D01*
X154504516Y-102375895D01*
X154475257Y-102386364D01*
X154445112Y-102393915D01*
X154414372Y-102398475D01*
X154383333Y-102400000D01*
X151216667Y-102400000D01*
X151185628Y-102398475D01*
X151154888Y-102393915D01*
X151124743Y-102386364D01*
X151095484Y-102375895D01*
X151067391Y-102362608D01*
X151040736Y-102346632D01*
X151015776Y-102328120D01*
X150992750Y-102307250D01*
X150971880Y-102284224D01*
X150953368Y-102259264D01*
X150937392Y-102232609D01*
X150924105Y-102204516D01*
X150913636Y-102175257D01*
X150906085Y-102145112D01*
X150901525Y-102114372D01*
X150900000Y-102083333D01*
X150900000Y-100816667D01*
X150901525Y-100785628D01*
X150906085Y-100754888D01*
X150913636Y-100724743D01*
X150924105Y-100695484D01*
X150937392Y-100667391D01*
X150953368Y-100640736D01*
X150971880Y-100615776D01*
X150992750Y-100592750D01*
X151015776Y-100571880D01*
X151040736Y-100553368D01*
X151067391Y-100537392D01*
X151095484Y-100524105D01*
X151124743Y-100513636D01*
X151154888Y-100506085D01*
X151185628Y-100501525D01*
X151216667Y-100500000D01*
X154383333Y-100500000D01*
X154414372Y-100501525D01*
G37*
G36*
X148684306Y-96401685D02*
G01*
X148718282Y-96406725D01*
X148751600Y-96415071D01*
X148783939Y-96426642D01*
X148814989Y-96441328D01*
X148844450Y-96458986D01*
X148872038Y-96479446D01*
X148897487Y-96502513D01*
X148920554Y-96527962D01*
X148941014Y-96555550D01*
X148958672Y-96585011D01*
X148973358Y-96616061D01*
X148984929Y-96648400D01*
X148993275Y-96681718D01*
X148998315Y-96715694D01*
X149000000Y-96750000D01*
X149000000Y-97450000D01*
X148998315Y-97484306D01*
X148993275Y-97518282D01*
X148984929Y-97551600D01*
X148973358Y-97583939D01*
X148958672Y-97614989D01*
X148941014Y-97644450D01*
X148920554Y-97672038D01*
X148897487Y-97697487D01*
X148872038Y-97720554D01*
X148844450Y-97741014D01*
X148814989Y-97758672D01*
X148783939Y-97773358D01*
X148751600Y-97784929D01*
X148718282Y-97793275D01*
X148684306Y-97798315D01*
X148650000Y-97800000D01*
X145450000Y-97800000D01*
X145415694Y-97798315D01*
X145381718Y-97793275D01*
X145348400Y-97784929D01*
X145316061Y-97773358D01*
X145285011Y-97758672D01*
X145255550Y-97741014D01*
X145227962Y-97720554D01*
X145202513Y-97697487D01*
X145179446Y-97672038D01*
X145158986Y-97644450D01*
X145141328Y-97614989D01*
X145126642Y-97583939D01*
X145115071Y-97551600D01*
X145106725Y-97518282D01*
X145101685Y-97484306D01*
X145100000Y-97450000D01*
X145100000Y-96750000D01*
X145101685Y-96715694D01*
X145106725Y-96681718D01*
X145115071Y-96648400D01*
X145126642Y-96616061D01*
X145141328Y-96585011D01*
X145158986Y-96555550D01*
X145179446Y-96527962D01*
X145202513Y-96502513D01*
X145227962Y-96479446D01*
X145255550Y-96458986D01*
X145285011Y-96441328D01*
X145316061Y-96426642D01*
X145348400Y-96415071D01*
X145381718Y-96406725D01*
X145415694Y-96401685D01*
X145450000Y-96400000D01*
X148650000Y-96400000D01*
X148684306Y-96401685D01*
G37*
G36*
X148684306Y-98401685D02*
G01*
X148718282Y-98406725D01*
X148751600Y-98415071D01*
X148783939Y-98426642D01*
X148814989Y-98441328D01*
X148844450Y-98458986D01*
X148872038Y-98479446D01*
X148897487Y-98502513D01*
X148920554Y-98527962D01*
X148941014Y-98555550D01*
X148958672Y-98585011D01*
X148973358Y-98616061D01*
X148984929Y-98648400D01*
X148993275Y-98681718D01*
X148998315Y-98715694D01*
X149000000Y-98750000D01*
X149000000Y-99450000D01*
X148998315Y-99484306D01*
X148993275Y-99518282D01*
X148984929Y-99551600D01*
X148973358Y-99583939D01*
X148958672Y-99614989D01*
X148941014Y-99644450D01*
X148920554Y-99672038D01*
X148897487Y-99697487D01*
X148872038Y-99720554D01*
X148844450Y-99741014D01*
X148814989Y-99758672D01*
X148783939Y-99773358D01*
X148751600Y-99784929D01*
X148718282Y-99793275D01*
X148684306Y-99798315D01*
X148650000Y-99800000D01*
X145450000Y-99800000D01*
X145415694Y-99798315D01*
X145381718Y-99793275D01*
X145348400Y-99784929D01*
X145316061Y-99773358D01*
X145285011Y-99758672D01*
X145255550Y-99741014D01*
X145227962Y-99720554D01*
X145202513Y-99697487D01*
X145179446Y-99672038D01*
X145158986Y-99644450D01*
X145141328Y-99614989D01*
X145126642Y-99583939D01*
X145115071Y-99551600D01*
X145106725Y-99518282D01*
X145101685Y-99484306D01*
X145100000Y-99450000D01*
X145100000Y-98750000D01*
X145101685Y-98715694D01*
X145106725Y-98681718D01*
X145115071Y-98648400D01*
X145126642Y-98616061D01*
X145141328Y-98585011D01*
X145158986Y-98555550D01*
X145179446Y-98527962D01*
X145202513Y-98502513D01*
X145227962Y-98479446D01*
X145255550Y-98458986D01*
X145285011Y-98441328D01*
X145316061Y-98426642D01*
X145348400Y-98415071D01*
X145381718Y-98406725D01*
X145415694Y-98401685D01*
X145450000Y-98400000D01*
X148650000Y-98400000D01*
X148684306Y-98401685D01*
G37*
D20*
X152900000Y-126900000D03*
X152900000Y-133700000D03*
D21*
X150150000Y-127800000D03*
X150150000Y-130300000D03*
X150150000Y-132800000D03*
D14*
X140560000Y-127600000D03*
D15*
X143100000Y-127600000D03*
D22*
X80650000Y-108300000D03*
X77750000Y-108300000D03*
D12*
G36*
X144696071Y-79201623D02*
G01*
X144728781Y-79206475D01*
X144760857Y-79214509D01*
X144791991Y-79225649D01*
X144821884Y-79239787D01*
X144850247Y-79256787D01*
X144876807Y-79276485D01*
X144901308Y-79298692D01*
X144923515Y-79323193D01*
X144943213Y-79349753D01*
X144960213Y-79378116D01*
X144974351Y-79408009D01*
X144985491Y-79439143D01*
X144993525Y-79471219D01*
X144998377Y-79503929D01*
X145000000Y-79536956D01*
X145000000Y-80413044D01*
X144998377Y-80446071D01*
X144993525Y-80478781D01*
X144985491Y-80510857D01*
X144974351Y-80541991D01*
X144960213Y-80571884D01*
X144943213Y-80600247D01*
X144923515Y-80626807D01*
X144901308Y-80651308D01*
X144876807Y-80673515D01*
X144850247Y-80693213D01*
X144821884Y-80710213D01*
X144791991Y-80724351D01*
X144760857Y-80735491D01*
X144728781Y-80743525D01*
X144696071Y-80748377D01*
X144663044Y-80750000D01*
X143536956Y-80750000D01*
X143503929Y-80748377D01*
X143471219Y-80743525D01*
X143439143Y-80735491D01*
X143408009Y-80724351D01*
X143378116Y-80710213D01*
X143349753Y-80693213D01*
X143323193Y-80673515D01*
X143298692Y-80651308D01*
X143276485Y-80626807D01*
X143256787Y-80600247D01*
X143239787Y-80571884D01*
X143225649Y-80541991D01*
X143214509Y-80510857D01*
X143206475Y-80478781D01*
X143201623Y-80446071D01*
X143200000Y-80413044D01*
X143200000Y-79536956D01*
X143201623Y-79503929D01*
X143206475Y-79471219D01*
X143214509Y-79439143D01*
X143225649Y-79408009D01*
X143239787Y-79378116D01*
X143256787Y-79349753D01*
X143276485Y-79323193D01*
X143298692Y-79298692D01*
X143323193Y-79276485D01*
X143349753Y-79256787D01*
X143378116Y-79239787D01*
X143408009Y-79225649D01*
X143439143Y-79214509D01*
X143471219Y-79206475D01*
X143503929Y-79201623D01*
X143536956Y-79200000D01*
X144663044Y-79200000D01*
X144696071Y-79201623D01*
G37*
G36*
X144696071Y-81251623D02*
G01*
X144728781Y-81256475D01*
X144760857Y-81264509D01*
X144791991Y-81275649D01*
X144821884Y-81289787D01*
X144850247Y-81306787D01*
X144876807Y-81326485D01*
X144901308Y-81348692D01*
X144923515Y-81373193D01*
X144943213Y-81399753D01*
X144960213Y-81428116D01*
X144974351Y-81458009D01*
X144985491Y-81489143D01*
X144993525Y-81521219D01*
X144998377Y-81553929D01*
X145000000Y-81586956D01*
X145000000Y-82463044D01*
X144998377Y-82496071D01*
X144993525Y-82528781D01*
X144985491Y-82560857D01*
X144974351Y-82591991D01*
X144960213Y-82621884D01*
X144943213Y-82650247D01*
X144923515Y-82676807D01*
X144901308Y-82701308D01*
X144876807Y-82723515D01*
X144850247Y-82743213D01*
X144821884Y-82760213D01*
X144791991Y-82774351D01*
X144760857Y-82785491D01*
X144728781Y-82793525D01*
X144696071Y-82798377D01*
X144663044Y-82800000D01*
X143536956Y-82800000D01*
X143503929Y-82798377D01*
X143471219Y-82793525D01*
X143439143Y-82785491D01*
X143408009Y-82774351D01*
X143378116Y-82760213D01*
X143349753Y-82743213D01*
X143323193Y-82723515D01*
X143298692Y-82701308D01*
X143276485Y-82676807D01*
X143256787Y-82650247D01*
X143239787Y-82621884D01*
X143225649Y-82591991D01*
X143214509Y-82560857D01*
X143206475Y-82528781D01*
X143201623Y-82496071D01*
X143200000Y-82463044D01*
X143200000Y-81586956D01*
X143201623Y-81553929D01*
X143206475Y-81521219D01*
X143214509Y-81489143D01*
X143225649Y-81458009D01*
X143239787Y-81428116D01*
X143256787Y-81399753D01*
X143276485Y-81373193D01*
X143298692Y-81348692D01*
X143323193Y-81326485D01*
X143349753Y-81306787D01*
X143378116Y-81289787D01*
X143408009Y-81275649D01*
X143439143Y-81264509D01*
X143471219Y-81256475D01*
X143503929Y-81251623D01*
X143536956Y-81250000D01*
X144663044Y-81250000D01*
X144696071Y-81251623D01*
G37*
G36*
X60846071Y-87701623D02*
G01*
X60878781Y-87706475D01*
X60910857Y-87714509D01*
X60941991Y-87725649D01*
X60971884Y-87739787D01*
X61000247Y-87756787D01*
X61026807Y-87776485D01*
X61051308Y-87798692D01*
X61073515Y-87823193D01*
X61093213Y-87849753D01*
X61110213Y-87878116D01*
X61124351Y-87908009D01*
X61135491Y-87939143D01*
X61143525Y-87971219D01*
X61148377Y-88003929D01*
X61150000Y-88036956D01*
X61150000Y-89163044D01*
X61148377Y-89196071D01*
X61143525Y-89228781D01*
X61135491Y-89260857D01*
X61124351Y-89291991D01*
X61110213Y-89321884D01*
X61093213Y-89350247D01*
X61073515Y-89376807D01*
X61051308Y-89401308D01*
X61026807Y-89423515D01*
X61000247Y-89443213D01*
X60971884Y-89460213D01*
X60941991Y-89474351D01*
X60910857Y-89485491D01*
X60878781Y-89493525D01*
X60846071Y-89498377D01*
X60813044Y-89500000D01*
X59936956Y-89500000D01*
X59903929Y-89498377D01*
X59871219Y-89493525D01*
X59839143Y-89485491D01*
X59808009Y-89474351D01*
X59778116Y-89460213D01*
X59749753Y-89443213D01*
X59723193Y-89423515D01*
X59698692Y-89401308D01*
X59676485Y-89376807D01*
X59656787Y-89350247D01*
X59639787Y-89321884D01*
X59625649Y-89291991D01*
X59614509Y-89260857D01*
X59606475Y-89228781D01*
X59601623Y-89196071D01*
X59600000Y-89163044D01*
X59600000Y-88036956D01*
X59601623Y-88003929D01*
X59606475Y-87971219D01*
X59614509Y-87939143D01*
X59625649Y-87908009D01*
X59639787Y-87878116D01*
X59656787Y-87849753D01*
X59676485Y-87823193D01*
X59698692Y-87798692D01*
X59723193Y-87776485D01*
X59749753Y-87756787D01*
X59778116Y-87739787D01*
X59808009Y-87725649D01*
X59839143Y-87714509D01*
X59871219Y-87706475D01*
X59903929Y-87701623D01*
X59936956Y-87700000D01*
X60813044Y-87700000D01*
X60846071Y-87701623D01*
G37*
G36*
X62896071Y-87701623D02*
G01*
X62928781Y-87706475D01*
X62960857Y-87714509D01*
X62991991Y-87725649D01*
X63021884Y-87739787D01*
X63050247Y-87756787D01*
X63076807Y-87776485D01*
X63101308Y-87798692D01*
X63123515Y-87823193D01*
X63143213Y-87849753D01*
X63160213Y-87878116D01*
X63174351Y-87908009D01*
X63185491Y-87939143D01*
X63193525Y-87971219D01*
X63198377Y-88003929D01*
X63200000Y-88036956D01*
X63200000Y-89163044D01*
X63198377Y-89196071D01*
X63193525Y-89228781D01*
X63185491Y-89260857D01*
X63174351Y-89291991D01*
X63160213Y-89321884D01*
X63143213Y-89350247D01*
X63123515Y-89376807D01*
X63101308Y-89401308D01*
X63076807Y-89423515D01*
X63050247Y-89443213D01*
X63021884Y-89460213D01*
X62991991Y-89474351D01*
X62960857Y-89485491D01*
X62928781Y-89493525D01*
X62896071Y-89498377D01*
X62863044Y-89500000D01*
X61986956Y-89500000D01*
X61953929Y-89498377D01*
X61921219Y-89493525D01*
X61889143Y-89485491D01*
X61858009Y-89474351D01*
X61828116Y-89460213D01*
X61799753Y-89443213D01*
X61773193Y-89423515D01*
X61748692Y-89401308D01*
X61726485Y-89376807D01*
X61706787Y-89350247D01*
X61689787Y-89321884D01*
X61675649Y-89291991D01*
X61664509Y-89260857D01*
X61656475Y-89228781D01*
X61651623Y-89196071D01*
X61650000Y-89163044D01*
X61650000Y-88036956D01*
X61651623Y-88003929D01*
X61656475Y-87971219D01*
X61664509Y-87939143D01*
X61675649Y-87908009D01*
X61689787Y-87878116D01*
X61706787Y-87849753D01*
X61726485Y-87823193D01*
X61748692Y-87798692D01*
X61773193Y-87776485D01*
X61799753Y-87756787D01*
X61828116Y-87739787D01*
X61858009Y-87725649D01*
X61889143Y-87714509D01*
X61921219Y-87706475D01*
X61953929Y-87701623D01*
X61986956Y-87700000D01*
X62863044Y-87700000D01*
X62896071Y-87701623D01*
G37*
G36*
X60846071Y-85501623D02*
G01*
X60878781Y-85506475D01*
X60910857Y-85514509D01*
X60941991Y-85525649D01*
X60971884Y-85539787D01*
X61000247Y-85556787D01*
X61026807Y-85576485D01*
X61051308Y-85598692D01*
X61073515Y-85623193D01*
X61093213Y-85649753D01*
X61110213Y-85678116D01*
X61124351Y-85708009D01*
X61135491Y-85739143D01*
X61143525Y-85771219D01*
X61148377Y-85803929D01*
X61150000Y-85836956D01*
X61150000Y-86963044D01*
X61148377Y-86996071D01*
X61143525Y-87028781D01*
X61135491Y-87060857D01*
X61124351Y-87091991D01*
X61110213Y-87121884D01*
X61093213Y-87150247D01*
X61073515Y-87176807D01*
X61051308Y-87201308D01*
X61026807Y-87223515D01*
X61000247Y-87243213D01*
X60971884Y-87260213D01*
X60941991Y-87274351D01*
X60910857Y-87285491D01*
X60878781Y-87293525D01*
X60846071Y-87298377D01*
X60813044Y-87300000D01*
X59936956Y-87300000D01*
X59903929Y-87298377D01*
X59871219Y-87293525D01*
X59839143Y-87285491D01*
X59808009Y-87274351D01*
X59778116Y-87260213D01*
X59749753Y-87243213D01*
X59723193Y-87223515D01*
X59698692Y-87201308D01*
X59676485Y-87176807D01*
X59656787Y-87150247D01*
X59639787Y-87121884D01*
X59625649Y-87091991D01*
X59614509Y-87060857D01*
X59606475Y-87028781D01*
X59601623Y-86996071D01*
X59600000Y-86963044D01*
X59600000Y-85836956D01*
X59601623Y-85803929D01*
X59606475Y-85771219D01*
X59614509Y-85739143D01*
X59625649Y-85708009D01*
X59639787Y-85678116D01*
X59656787Y-85649753D01*
X59676485Y-85623193D01*
X59698692Y-85598692D01*
X59723193Y-85576485D01*
X59749753Y-85556787D01*
X59778116Y-85539787D01*
X59808009Y-85525649D01*
X59839143Y-85514509D01*
X59871219Y-85506475D01*
X59903929Y-85501623D01*
X59936956Y-85500000D01*
X60813044Y-85500000D01*
X60846071Y-85501623D01*
G37*
G36*
X62896071Y-85501623D02*
G01*
X62928781Y-85506475D01*
X62960857Y-85514509D01*
X62991991Y-85525649D01*
X63021884Y-85539787D01*
X63050247Y-85556787D01*
X63076807Y-85576485D01*
X63101308Y-85598692D01*
X63123515Y-85623193D01*
X63143213Y-85649753D01*
X63160213Y-85678116D01*
X63174351Y-85708009D01*
X63185491Y-85739143D01*
X63193525Y-85771219D01*
X63198377Y-85803929D01*
X63200000Y-85836956D01*
X63200000Y-86963044D01*
X63198377Y-86996071D01*
X63193525Y-87028781D01*
X63185491Y-87060857D01*
X63174351Y-87091991D01*
X63160213Y-87121884D01*
X63143213Y-87150247D01*
X63123515Y-87176807D01*
X63101308Y-87201308D01*
X63076807Y-87223515D01*
X63050247Y-87243213D01*
X63021884Y-87260213D01*
X62991991Y-87274351D01*
X62960857Y-87285491D01*
X62928781Y-87293525D01*
X62896071Y-87298377D01*
X62863044Y-87300000D01*
X61986956Y-87300000D01*
X61953929Y-87298377D01*
X61921219Y-87293525D01*
X61889143Y-87285491D01*
X61858009Y-87274351D01*
X61828116Y-87260213D01*
X61799753Y-87243213D01*
X61773193Y-87223515D01*
X61748692Y-87201308D01*
X61726485Y-87176807D01*
X61706787Y-87150247D01*
X61689787Y-87121884D01*
X61675649Y-87091991D01*
X61664509Y-87060857D01*
X61656475Y-87028781D01*
X61651623Y-86996071D01*
X61650000Y-86963044D01*
X61650000Y-85836956D01*
X61651623Y-85803929D01*
X61656475Y-85771219D01*
X61664509Y-85739143D01*
X61675649Y-85708009D01*
X61689787Y-85678116D01*
X61706787Y-85649753D01*
X61726485Y-85623193D01*
X61748692Y-85598692D01*
X61773193Y-85576485D01*
X61799753Y-85556787D01*
X61828116Y-85539787D01*
X61858009Y-85525649D01*
X61889143Y-85514509D01*
X61921219Y-85506475D01*
X61953929Y-85501623D01*
X61986956Y-85500000D01*
X62863044Y-85500000D01*
X62896071Y-85501623D01*
G37*
G36*
X58695581Y-89026625D02*
G01*
X58728343Y-89031485D01*
X58760471Y-89039533D01*
X58791656Y-89050691D01*
X58821596Y-89064852D01*
X58850005Y-89081879D01*
X58876608Y-89101609D01*
X58901149Y-89123851D01*
X58923391Y-89148392D01*
X58943121Y-89174995D01*
X58960148Y-89203404D01*
X58974309Y-89233344D01*
X58985467Y-89264529D01*
X58993515Y-89296657D01*
X58998375Y-89329419D01*
X59000000Y-89362500D01*
X59000000Y-90037500D01*
X58998375Y-90070581D01*
X58993515Y-90103343D01*
X58985467Y-90135471D01*
X58974309Y-90166656D01*
X58960148Y-90196596D01*
X58943121Y-90225005D01*
X58923391Y-90251608D01*
X58901149Y-90276149D01*
X58876608Y-90298391D01*
X58850005Y-90318121D01*
X58821596Y-90335148D01*
X58791656Y-90349309D01*
X58760471Y-90360467D01*
X58728343Y-90368515D01*
X58695581Y-90373375D01*
X58662500Y-90375000D01*
X57887500Y-90375000D01*
X57854419Y-90373375D01*
X57821657Y-90368515D01*
X57789529Y-90360467D01*
X57758344Y-90349309D01*
X57728404Y-90335148D01*
X57699995Y-90318121D01*
X57673392Y-90298391D01*
X57648851Y-90276149D01*
X57626609Y-90251608D01*
X57606879Y-90225005D01*
X57589852Y-90196596D01*
X57575691Y-90166656D01*
X57564533Y-90135471D01*
X57556485Y-90103343D01*
X57551625Y-90070581D01*
X57550000Y-90037500D01*
X57550000Y-89362500D01*
X57551625Y-89329419D01*
X57556485Y-89296657D01*
X57564533Y-89264529D01*
X57575691Y-89233344D01*
X57589852Y-89203404D01*
X57606879Y-89174995D01*
X57626609Y-89148392D01*
X57648851Y-89123851D01*
X57673392Y-89101609D01*
X57699995Y-89081879D01*
X57728404Y-89064852D01*
X57758344Y-89050691D01*
X57789529Y-89039533D01*
X57821657Y-89031485D01*
X57854419Y-89026625D01*
X57887500Y-89025000D01*
X58662500Y-89025000D01*
X58695581Y-89026625D01*
G37*
G36*
X56945581Y-89026625D02*
G01*
X56978343Y-89031485D01*
X57010471Y-89039533D01*
X57041656Y-89050691D01*
X57071596Y-89064852D01*
X57100005Y-89081879D01*
X57126608Y-89101609D01*
X57151149Y-89123851D01*
X57173391Y-89148392D01*
X57193121Y-89174995D01*
X57210148Y-89203404D01*
X57224309Y-89233344D01*
X57235467Y-89264529D01*
X57243515Y-89296657D01*
X57248375Y-89329419D01*
X57250000Y-89362500D01*
X57250000Y-90037500D01*
X57248375Y-90070581D01*
X57243515Y-90103343D01*
X57235467Y-90135471D01*
X57224309Y-90166656D01*
X57210148Y-90196596D01*
X57193121Y-90225005D01*
X57173391Y-90251608D01*
X57151149Y-90276149D01*
X57126608Y-90298391D01*
X57100005Y-90318121D01*
X57071596Y-90335148D01*
X57041656Y-90349309D01*
X57010471Y-90360467D01*
X56978343Y-90368515D01*
X56945581Y-90373375D01*
X56912500Y-90375000D01*
X56137500Y-90375000D01*
X56104419Y-90373375D01*
X56071657Y-90368515D01*
X56039529Y-90360467D01*
X56008344Y-90349309D01*
X55978404Y-90335148D01*
X55949995Y-90318121D01*
X55923392Y-90298391D01*
X55898851Y-90276149D01*
X55876609Y-90251608D01*
X55856879Y-90225005D01*
X55839852Y-90196596D01*
X55825691Y-90166656D01*
X55814533Y-90135471D01*
X55806485Y-90103343D01*
X55801625Y-90070581D01*
X55800000Y-90037500D01*
X55800000Y-89362500D01*
X55801625Y-89329419D01*
X55806485Y-89296657D01*
X55814533Y-89264529D01*
X55825691Y-89233344D01*
X55839852Y-89203404D01*
X55856879Y-89174995D01*
X55876609Y-89148392D01*
X55898851Y-89123851D01*
X55923392Y-89101609D01*
X55949995Y-89081879D01*
X55978404Y-89064852D01*
X56008344Y-89050691D01*
X56039529Y-89039533D01*
X56071657Y-89031485D01*
X56104419Y-89026625D01*
X56137500Y-89025000D01*
X56912500Y-89025000D01*
X56945581Y-89026625D01*
G37*
G36*
X58695581Y-84826625D02*
G01*
X58728343Y-84831485D01*
X58760471Y-84839533D01*
X58791656Y-84850691D01*
X58821596Y-84864852D01*
X58850005Y-84881879D01*
X58876608Y-84901609D01*
X58901149Y-84923851D01*
X58923391Y-84948392D01*
X58943121Y-84974995D01*
X58960148Y-85003404D01*
X58974309Y-85033344D01*
X58985467Y-85064529D01*
X58993515Y-85096657D01*
X58998375Y-85129419D01*
X59000000Y-85162500D01*
X59000000Y-85837500D01*
X58998375Y-85870581D01*
X58993515Y-85903343D01*
X58985467Y-85935471D01*
X58974309Y-85966656D01*
X58960148Y-85996596D01*
X58943121Y-86025005D01*
X58923391Y-86051608D01*
X58901149Y-86076149D01*
X58876608Y-86098391D01*
X58850005Y-86118121D01*
X58821596Y-86135148D01*
X58791656Y-86149309D01*
X58760471Y-86160467D01*
X58728343Y-86168515D01*
X58695581Y-86173375D01*
X58662500Y-86175000D01*
X57887500Y-86175000D01*
X57854419Y-86173375D01*
X57821657Y-86168515D01*
X57789529Y-86160467D01*
X57758344Y-86149309D01*
X57728404Y-86135148D01*
X57699995Y-86118121D01*
X57673392Y-86098391D01*
X57648851Y-86076149D01*
X57626609Y-86051608D01*
X57606879Y-86025005D01*
X57589852Y-85996596D01*
X57575691Y-85966656D01*
X57564533Y-85935471D01*
X57556485Y-85903343D01*
X57551625Y-85870581D01*
X57550000Y-85837500D01*
X57550000Y-85162500D01*
X57551625Y-85129419D01*
X57556485Y-85096657D01*
X57564533Y-85064529D01*
X57575691Y-85033344D01*
X57589852Y-85003404D01*
X57606879Y-84974995D01*
X57626609Y-84948392D01*
X57648851Y-84923851D01*
X57673392Y-84901609D01*
X57699995Y-84881879D01*
X57728404Y-84864852D01*
X57758344Y-84850691D01*
X57789529Y-84839533D01*
X57821657Y-84831485D01*
X57854419Y-84826625D01*
X57887500Y-84825000D01*
X58662500Y-84825000D01*
X58695581Y-84826625D01*
G37*
G36*
X56945581Y-84826625D02*
G01*
X56978343Y-84831485D01*
X57010471Y-84839533D01*
X57041656Y-84850691D01*
X57071596Y-84864852D01*
X57100005Y-84881879D01*
X57126608Y-84901609D01*
X57151149Y-84923851D01*
X57173391Y-84948392D01*
X57193121Y-84974995D01*
X57210148Y-85003404D01*
X57224309Y-85033344D01*
X57235467Y-85064529D01*
X57243515Y-85096657D01*
X57248375Y-85129419D01*
X57250000Y-85162500D01*
X57250000Y-85837500D01*
X57248375Y-85870581D01*
X57243515Y-85903343D01*
X57235467Y-85935471D01*
X57224309Y-85966656D01*
X57210148Y-85996596D01*
X57193121Y-86025005D01*
X57173391Y-86051608D01*
X57151149Y-86076149D01*
X57126608Y-86098391D01*
X57100005Y-86118121D01*
X57071596Y-86135148D01*
X57041656Y-86149309D01*
X57010471Y-86160467D01*
X56978343Y-86168515D01*
X56945581Y-86173375D01*
X56912500Y-86175000D01*
X56137500Y-86175000D01*
X56104419Y-86173375D01*
X56071657Y-86168515D01*
X56039529Y-86160467D01*
X56008344Y-86149309D01*
X55978404Y-86135148D01*
X55949995Y-86118121D01*
X55923392Y-86098391D01*
X55898851Y-86076149D01*
X55876609Y-86051608D01*
X55856879Y-86025005D01*
X55839852Y-85996596D01*
X55825691Y-85966656D01*
X55814533Y-85935471D01*
X55806485Y-85903343D01*
X55801625Y-85870581D01*
X55800000Y-85837500D01*
X55800000Y-85162500D01*
X55801625Y-85129419D01*
X55806485Y-85096657D01*
X55814533Y-85064529D01*
X55825691Y-85033344D01*
X55839852Y-85003404D01*
X55856879Y-84974995D01*
X55876609Y-84948392D01*
X55898851Y-84923851D01*
X55923392Y-84901609D01*
X55949995Y-84881879D01*
X55978404Y-84864852D01*
X56008344Y-84850691D01*
X56039529Y-84839533D01*
X56071657Y-84831485D01*
X56104419Y-84826625D01*
X56137500Y-84825000D01*
X56912500Y-84825000D01*
X56945581Y-84826625D01*
G37*
G36*
X98553843Y-137310982D02*
G01*
X98565224Y-137273463D01*
X98583706Y-137238886D01*
X98608579Y-137208579D01*
X98638886Y-137183706D01*
X98673463Y-137165224D01*
X98710982Y-137153843D01*
X98750000Y-137150000D01*
X100250000Y-137150000D01*
X100289018Y-137153843D01*
X100326537Y-137165224D01*
X100361114Y-137183706D01*
X100391421Y-137208579D01*
X100416294Y-137238886D01*
X100434776Y-137273463D01*
X100446157Y-137310982D01*
X100450000Y-137350000D01*
X100450000Y-137900000D01*
X100449398Y-137906112D01*
X100449398Y-137924534D01*
X100448435Y-137944140D01*
X100443625Y-137992971D01*
X100440746Y-138012380D01*
X100431174Y-138060505D01*
X100426404Y-138079548D01*
X100412160Y-138126503D01*
X100405549Y-138144980D01*
X100386772Y-138190313D01*
X100378377Y-138208061D01*
X100355246Y-138251334D01*
X100345160Y-138268162D01*
X100317900Y-138308961D01*
X100306205Y-138324730D01*
X100275077Y-138362659D01*
X100261897Y-138377200D01*
X100227200Y-138411897D01*
X100212659Y-138425077D01*
X100174730Y-138456205D01*
X100158961Y-138467900D01*
X100118162Y-138495160D01*
X100101334Y-138505246D01*
X100058061Y-138528377D01*
X100040313Y-138536772D01*
X99994980Y-138555549D01*
X99976503Y-138562160D01*
X99929548Y-138576404D01*
X99910505Y-138581174D01*
X99862380Y-138590746D01*
X99842971Y-138593625D01*
X99794140Y-138598435D01*
X99774534Y-138599398D01*
X99756112Y-138599398D01*
X99750000Y-138600000D01*
X99250000Y-138600000D01*
X99243888Y-138599398D01*
X99225466Y-138599398D01*
X99205860Y-138598435D01*
X99157029Y-138593625D01*
X99137620Y-138590746D01*
X99089495Y-138581174D01*
X99070452Y-138576404D01*
X99023497Y-138562160D01*
X99005020Y-138555549D01*
X98959687Y-138536772D01*
X98941939Y-138528377D01*
X98898666Y-138505246D01*
X98881838Y-138495160D01*
X98841039Y-138467900D01*
X98825270Y-138456205D01*
X98787341Y-138425077D01*
X98772800Y-138411897D01*
X98738103Y-138377200D01*
X98724923Y-138362659D01*
X98693795Y-138324730D01*
X98682100Y-138308961D01*
X98654840Y-138268162D01*
X98644754Y-138251334D01*
X98621623Y-138208061D01*
X98613228Y-138190313D01*
X98594451Y-138144980D01*
X98587840Y-138126503D01*
X98573596Y-138079548D01*
X98568826Y-138060505D01*
X98559254Y-138012380D01*
X98556375Y-137992971D01*
X98551565Y-137944140D01*
X98550602Y-137924534D01*
X98550602Y-137906112D01*
X98550000Y-137900000D01*
X98550000Y-137350000D01*
X98553843Y-137310982D01*
G37*
D23*
X99500000Y-136600000D03*
D12*
G36*
X98550602Y-135293888D02*
G01*
X98550602Y-135275466D01*
X98551565Y-135255860D01*
X98556375Y-135207029D01*
X98559254Y-135187620D01*
X98568826Y-135139495D01*
X98573596Y-135120452D01*
X98587840Y-135073497D01*
X98594451Y-135055020D01*
X98613228Y-135009687D01*
X98621623Y-134991939D01*
X98644754Y-134948666D01*
X98654840Y-134931838D01*
X98682100Y-134891039D01*
X98693795Y-134875270D01*
X98724923Y-134837341D01*
X98738103Y-134822800D01*
X98772800Y-134788103D01*
X98787341Y-134774923D01*
X98825270Y-134743795D01*
X98841039Y-134732100D01*
X98881838Y-134704840D01*
X98898666Y-134694754D01*
X98941939Y-134671623D01*
X98959687Y-134663228D01*
X99005020Y-134644451D01*
X99023497Y-134637840D01*
X99070452Y-134623596D01*
X99089495Y-134618826D01*
X99137620Y-134609254D01*
X99157029Y-134606375D01*
X99205860Y-134601565D01*
X99225466Y-134600602D01*
X99243888Y-134600602D01*
X99250000Y-134600000D01*
X99750000Y-134600000D01*
X99756112Y-134600602D01*
X99774534Y-134600602D01*
X99794140Y-134601565D01*
X99842971Y-134606375D01*
X99862380Y-134609254D01*
X99910505Y-134618826D01*
X99929548Y-134623596D01*
X99976503Y-134637840D01*
X99994980Y-134644451D01*
X100040313Y-134663228D01*
X100058061Y-134671623D01*
X100101334Y-134694754D01*
X100118162Y-134704840D01*
X100158961Y-134732100D01*
X100174730Y-134743795D01*
X100212659Y-134774923D01*
X100227200Y-134788103D01*
X100261897Y-134822800D01*
X100275077Y-134837341D01*
X100306205Y-134875270D01*
X100317900Y-134891039D01*
X100345160Y-134931838D01*
X100355246Y-134948666D01*
X100378377Y-134991939D01*
X100386772Y-135009687D01*
X100405549Y-135055020D01*
X100412160Y-135073497D01*
X100426404Y-135120452D01*
X100431174Y-135139495D01*
X100440746Y-135187620D01*
X100443625Y-135207029D01*
X100448435Y-135255860D01*
X100449398Y-135275466D01*
X100449398Y-135293888D01*
X100450000Y-135300000D01*
X100450000Y-135850000D01*
X100446157Y-135889018D01*
X100434776Y-135926537D01*
X100416294Y-135961114D01*
X100391421Y-135991421D01*
X100361114Y-136016294D01*
X100326537Y-136034776D01*
X100289018Y-136046157D01*
X100250000Y-136050000D01*
X98750000Y-136050000D01*
X98710982Y-136046157D01*
X98673463Y-136034776D01*
X98638886Y-136016294D01*
X98608579Y-135991421D01*
X98583706Y-135961114D01*
X98565224Y-135926537D01*
X98553843Y-135889018D01*
X98550000Y-135850000D01*
X98550000Y-135300000D01*
X98550602Y-135293888D01*
G37*
G36*
X85489018Y-134753843D02*
G01*
X85526537Y-134765224D01*
X85561114Y-134783706D01*
X85591421Y-134808579D01*
X85616294Y-134838886D01*
X85634776Y-134873463D01*
X85646157Y-134910982D01*
X85650000Y-134950000D01*
X85650000Y-136450000D01*
X85646157Y-136489018D01*
X85634776Y-136526537D01*
X85616294Y-136561114D01*
X85591421Y-136591421D01*
X85561114Y-136616294D01*
X85526537Y-136634776D01*
X85489018Y-136646157D01*
X85450000Y-136650000D01*
X84900000Y-136650000D01*
X84893888Y-136649398D01*
X84875466Y-136649398D01*
X84855860Y-136648435D01*
X84807029Y-136643625D01*
X84787620Y-136640746D01*
X84739495Y-136631174D01*
X84720452Y-136626404D01*
X84673497Y-136612160D01*
X84655020Y-136605549D01*
X84609687Y-136586772D01*
X84591939Y-136578377D01*
X84548666Y-136555246D01*
X84531838Y-136545160D01*
X84491039Y-136517900D01*
X84475270Y-136506205D01*
X84437341Y-136475077D01*
X84422800Y-136461897D01*
X84388103Y-136427200D01*
X84374923Y-136412659D01*
X84343795Y-136374730D01*
X84332100Y-136358961D01*
X84304840Y-136318162D01*
X84294754Y-136301334D01*
X84271623Y-136258061D01*
X84263228Y-136240313D01*
X84244451Y-136194980D01*
X84237840Y-136176503D01*
X84223596Y-136129548D01*
X84218826Y-136110505D01*
X84209254Y-136062380D01*
X84206375Y-136042971D01*
X84201565Y-135994140D01*
X84200602Y-135974534D01*
X84200602Y-135956112D01*
X84200000Y-135950000D01*
X84200000Y-135450000D01*
X84200602Y-135443888D01*
X84200602Y-135425466D01*
X84201565Y-135405860D01*
X84206375Y-135357029D01*
X84209254Y-135337620D01*
X84218826Y-135289495D01*
X84223596Y-135270452D01*
X84237840Y-135223497D01*
X84244451Y-135205020D01*
X84263228Y-135159687D01*
X84271623Y-135141939D01*
X84294754Y-135098666D01*
X84304840Y-135081838D01*
X84332100Y-135041039D01*
X84343795Y-135025270D01*
X84374923Y-134987341D01*
X84388103Y-134972800D01*
X84422800Y-134938103D01*
X84437341Y-134924923D01*
X84475270Y-134893795D01*
X84491039Y-134882100D01*
X84531838Y-134854840D01*
X84548666Y-134844754D01*
X84591939Y-134821623D01*
X84609687Y-134813228D01*
X84655020Y-134794451D01*
X84673497Y-134787840D01*
X84720452Y-134773596D01*
X84739495Y-134768826D01*
X84787620Y-134759254D01*
X84807029Y-134756375D01*
X84855860Y-134751565D01*
X84875466Y-134750602D01*
X84893888Y-134750602D01*
X84900000Y-134750000D01*
X85450000Y-134750000D01*
X85489018Y-134753843D01*
G37*
D24*
X86200000Y-135700000D03*
D12*
G36*
X87506112Y-134750602D02*
G01*
X87524534Y-134750602D01*
X87544140Y-134751565D01*
X87592971Y-134756375D01*
X87612380Y-134759254D01*
X87660505Y-134768826D01*
X87679548Y-134773596D01*
X87726503Y-134787840D01*
X87744980Y-134794451D01*
X87790313Y-134813228D01*
X87808061Y-134821623D01*
X87851334Y-134844754D01*
X87868162Y-134854840D01*
X87908961Y-134882100D01*
X87924730Y-134893795D01*
X87962659Y-134924923D01*
X87977200Y-134938103D01*
X88011897Y-134972800D01*
X88025077Y-134987341D01*
X88056205Y-135025270D01*
X88067900Y-135041039D01*
X88095160Y-135081838D01*
X88105246Y-135098666D01*
X88128377Y-135141939D01*
X88136772Y-135159687D01*
X88155549Y-135205020D01*
X88162160Y-135223497D01*
X88176404Y-135270452D01*
X88181174Y-135289495D01*
X88190746Y-135337620D01*
X88193625Y-135357029D01*
X88198435Y-135405860D01*
X88199398Y-135425466D01*
X88199398Y-135443888D01*
X88200000Y-135450000D01*
X88200000Y-135950000D01*
X88199398Y-135956112D01*
X88199398Y-135974534D01*
X88198435Y-135994140D01*
X88193625Y-136042971D01*
X88190746Y-136062380D01*
X88181174Y-136110505D01*
X88176404Y-136129548D01*
X88162160Y-136176503D01*
X88155549Y-136194980D01*
X88136772Y-136240313D01*
X88128377Y-136258061D01*
X88105246Y-136301334D01*
X88095160Y-136318162D01*
X88067900Y-136358961D01*
X88056205Y-136374730D01*
X88025077Y-136412659D01*
X88011897Y-136427200D01*
X87977200Y-136461897D01*
X87962659Y-136475077D01*
X87924730Y-136506205D01*
X87908961Y-136517900D01*
X87868162Y-136545160D01*
X87851334Y-136555246D01*
X87808061Y-136578377D01*
X87790313Y-136586772D01*
X87744980Y-136605549D01*
X87726503Y-136612160D01*
X87679548Y-136626404D01*
X87660505Y-136631174D01*
X87612380Y-136640746D01*
X87592971Y-136643625D01*
X87544140Y-136648435D01*
X87524534Y-136649398D01*
X87506112Y-136649398D01*
X87500000Y-136650000D01*
X86950000Y-136650000D01*
X86910982Y-136646157D01*
X86873463Y-136634776D01*
X86838886Y-136616294D01*
X86808579Y-136591421D01*
X86783706Y-136561114D01*
X86765224Y-136526537D01*
X86753843Y-136489018D01*
X86750000Y-136450000D01*
X86750000Y-134950000D01*
X86753843Y-134910982D01*
X86765224Y-134873463D01*
X86783706Y-134838886D01*
X86808579Y-134808579D01*
X86838886Y-134783706D01*
X86873463Y-134765224D01*
X86910982Y-134753843D01*
X86950000Y-134750000D01*
X87500000Y-134750000D01*
X87506112Y-134750602D01*
G37*
G36*
X67746071Y-136201623D02*
G01*
X67778781Y-136206475D01*
X67810857Y-136214509D01*
X67841991Y-136225649D01*
X67871884Y-136239787D01*
X67900247Y-136256787D01*
X67926807Y-136276485D01*
X67951308Y-136298692D01*
X67973515Y-136323193D01*
X67993213Y-136349753D01*
X68010213Y-136378116D01*
X68024351Y-136408009D01*
X68035491Y-136439143D01*
X68043525Y-136471219D01*
X68048377Y-136503929D01*
X68050000Y-136536956D01*
X68050000Y-137663044D01*
X68048377Y-137696071D01*
X68043525Y-137728781D01*
X68035491Y-137760857D01*
X68024351Y-137791991D01*
X68010213Y-137821884D01*
X67993213Y-137850247D01*
X67973515Y-137876807D01*
X67951308Y-137901308D01*
X67926807Y-137923515D01*
X67900247Y-137943213D01*
X67871884Y-137960213D01*
X67841991Y-137974351D01*
X67810857Y-137985491D01*
X67778781Y-137993525D01*
X67746071Y-137998377D01*
X67713044Y-138000000D01*
X66836956Y-138000000D01*
X66803929Y-137998377D01*
X66771219Y-137993525D01*
X66739143Y-137985491D01*
X66708009Y-137974351D01*
X66678116Y-137960213D01*
X66649753Y-137943213D01*
X66623193Y-137923515D01*
X66598692Y-137901308D01*
X66576485Y-137876807D01*
X66556787Y-137850247D01*
X66539787Y-137821884D01*
X66525649Y-137791991D01*
X66514509Y-137760857D01*
X66506475Y-137728781D01*
X66501623Y-137696071D01*
X66500000Y-137663044D01*
X66500000Y-136536956D01*
X66501623Y-136503929D01*
X66506475Y-136471219D01*
X66514509Y-136439143D01*
X66525649Y-136408009D01*
X66539787Y-136378116D01*
X66556787Y-136349753D01*
X66576485Y-136323193D01*
X66598692Y-136298692D01*
X66623193Y-136276485D01*
X66649753Y-136256787D01*
X66678116Y-136239787D01*
X66708009Y-136225649D01*
X66739143Y-136214509D01*
X66771219Y-136206475D01*
X66803929Y-136201623D01*
X66836956Y-136200000D01*
X67713044Y-136200000D01*
X67746071Y-136201623D01*
G37*
G36*
X69796071Y-136201623D02*
G01*
X69828781Y-136206475D01*
X69860857Y-136214509D01*
X69891991Y-136225649D01*
X69921884Y-136239787D01*
X69950247Y-136256787D01*
X69976807Y-136276485D01*
X70001308Y-136298692D01*
X70023515Y-136323193D01*
X70043213Y-136349753D01*
X70060213Y-136378116D01*
X70074351Y-136408009D01*
X70085491Y-136439143D01*
X70093525Y-136471219D01*
X70098377Y-136503929D01*
X70100000Y-136536956D01*
X70100000Y-137663044D01*
X70098377Y-137696071D01*
X70093525Y-137728781D01*
X70085491Y-137760857D01*
X70074351Y-137791991D01*
X70060213Y-137821884D01*
X70043213Y-137850247D01*
X70023515Y-137876807D01*
X70001308Y-137901308D01*
X69976807Y-137923515D01*
X69950247Y-137943213D01*
X69921884Y-137960213D01*
X69891991Y-137974351D01*
X69860857Y-137985491D01*
X69828781Y-137993525D01*
X69796071Y-137998377D01*
X69763044Y-138000000D01*
X68886956Y-138000000D01*
X68853929Y-137998377D01*
X68821219Y-137993525D01*
X68789143Y-137985491D01*
X68758009Y-137974351D01*
X68728116Y-137960213D01*
X68699753Y-137943213D01*
X68673193Y-137923515D01*
X68648692Y-137901308D01*
X68626485Y-137876807D01*
X68606787Y-137850247D01*
X68589787Y-137821884D01*
X68575649Y-137791991D01*
X68564509Y-137760857D01*
X68556475Y-137728781D01*
X68551623Y-137696071D01*
X68550000Y-137663044D01*
X68550000Y-136536956D01*
X68551623Y-136503929D01*
X68556475Y-136471219D01*
X68564509Y-136439143D01*
X68575649Y-136408009D01*
X68589787Y-136378116D01*
X68606787Y-136349753D01*
X68626485Y-136323193D01*
X68648692Y-136298692D01*
X68673193Y-136276485D01*
X68699753Y-136256787D01*
X68728116Y-136239787D01*
X68758009Y-136225649D01*
X68789143Y-136214509D01*
X68821219Y-136206475D01*
X68853929Y-136201623D01*
X68886956Y-136200000D01*
X69763044Y-136200000D01*
X69796071Y-136201623D01*
G37*
G36*
X86146071Y-130201623D02*
G01*
X86178781Y-130206475D01*
X86210857Y-130214509D01*
X86241991Y-130225649D01*
X86271884Y-130239787D01*
X86300247Y-130256787D01*
X86326807Y-130276485D01*
X86351308Y-130298692D01*
X86373515Y-130323193D01*
X86393213Y-130349753D01*
X86410213Y-130378116D01*
X86424351Y-130408009D01*
X86435491Y-130439143D01*
X86443525Y-130471219D01*
X86448377Y-130503929D01*
X86450000Y-130536956D01*
X86450000Y-131663044D01*
X86448377Y-131696071D01*
X86443525Y-131728781D01*
X86435491Y-131760857D01*
X86424351Y-131791991D01*
X86410213Y-131821884D01*
X86393213Y-131850247D01*
X86373515Y-131876807D01*
X86351308Y-131901308D01*
X86326807Y-131923515D01*
X86300247Y-131943213D01*
X86271884Y-131960213D01*
X86241991Y-131974351D01*
X86210857Y-131985491D01*
X86178781Y-131993525D01*
X86146071Y-131998377D01*
X86113044Y-132000000D01*
X85236956Y-132000000D01*
X85203929Y-131998377D01*
X85171219Y-131993525D01*
X85139143Y-131985491D01*
X85108009Y-131974351D01*
X85078116Y-131960213D01*
X85049753Y-131943213D01*
X85023193Y-131923515D01*
X84998692Y-131901308D01*
X84976485Y-131876807D01*
X84956787Y-131850247D01*
X84939787Y-131821884D01*
X84925649Y-131791991D01*
X84914509Y-131760857D01*
X84906475Y-131728781D01*
X84901623Y-131696071D01*
X84900000Y-131663044D01*
X84900000Y-130536956D01*
X84901623Y-130503929D01*
X84906475Y-130471219D01*
X84914509Y-130439143D01*
X84925649Y-130408009D01*
X84939787Y-130378116D01*
X84956787Y-130349753D01*
X84976485Y-130323193D01*
X84998692Y-130298692D01*
X85023193Y-130276485D01*
X85049753Y-130256787D01*
X85078116Y-130239787D01*
X85108009Y-130225649D01*
X85139143Y-130214509D01*
X85171219Y-130206475D01*
X85203929Y-130201623D01*
X85236956Y-130200000D01*
X86113044Y-130200000D01*
X86146071Y-130201623D01*
G37*
G36*
X88196071Y-130201623D02*
G01*
X88228781Y-130206475D01*
X88260857Y-130214509D01*
X88291991Y-130225649D01*
X88321884Y-130239787D01*
X88350247Y-130256787D01*
X88376807Y-130276485D01*
X88401308Y-130298692D01*
X88423515Y-130323193D01*
X88443213Y-130349753D01*
X88460213Y-130378116D01*
X88474351Y-130408009D01*
X88485491Y-130439143D01*
X88493525Y-130471219D01*
X88498377Y-130503929D01*
X88500000Y-130536956D01*
X88500000Y-131663044D01*
X88498377Y-131696071D01*
X88493525Y-131728781D01*
X88485491Y-131760857D01*
X88474351Y-131791991D01*
X88460213Y-131821884D01*
X88443213Y-131850247D01*
X88423515Y-131876807D01*
X88401308Y-131901308D01*
X88376807Y-131923515D01*
X88350247Y-131943213D01*
X88321884Y-131960213D01*
X88291991Y-131974351D01*
X88260857Y-131985491D01*
X88228781Y-131993525D01*
X88196071Y-131998377D01*
X88163044Y-132000000D01*
X87286956Y-132000000D01*
X87253929Y-131998377D01*
X87221219Y-131993525D01*
X87189143Y-131985491D01*
X87158009Y-131974351D01*
X87128116Y-131960213D01*
X87099753Y-131943213D01*
X87073193Y-131923515D01*
X87048692Y-131901308D01*
X87026485Y-131876807D01*
X87006787Y-131850247D01*
X86989787Y-131821884D01*
X86975649Y-131791991D01*
X86964509Y-131760857D01*
X86956475Y-131728781D01*
X86951623Y-131696071D01*
X86950000Y-131663044D01*
X86950000Y-130536956D01*
X86951623Y-130503929D01*
X86956475Y-130471219D01*
X86964509Y-130439143D01*
X86975649Y-130408009D01*
X86989787Y-130378116D01*
X87006787Y-130349753D01*
X87026485Y-130323193D01*
X87048692Y-130298692D01*
X87073193Y-130276485D01*
X87099753Y-130256787D01*
X87128116Y-130239787D01*
X87158009Y-130225649D01*
X87189143Y-130214509D01*
X87221219Y-130206475D01*
X87253929Y-130201623D01*
X87286956Y-130200000D01*
X88163044Y-130200000D01*
X88196071Y-130201623D01*
G37*
D25*
X91950000Y-132100000D03*
X89950000Y-133050000D03*
X89950000Y-131150000D03*
D14*
X89180000Y-142400000D03*
X86640000Y-142400000D03*
D15*
X84100000Y-142400000D03*
D14*
X74940000Y-142300000D03*
X72400000Y-142300000D03*
D15*
X69860000Y-142300000D03*
D12*
G36*
X82596071Y-137501623D02*
G01*
X82628781Y-137506475D01*
X82660857Y-137514509D01*
X82691991Y-137525649D01*
X82721884Y-137539787D01*
X82750247Y-137556787D01*
X82776807Y-137576485D01*
X82801308Y-137598692D01*
X82823515Y-137623193D01*
X82843213Y-137649753D01*
X82860213Y-137678116D01*
X82874351Y-137708009D01*
X82885491Y-137739143D01*
X82893525Y-137771219D01*
X82898377Y-137803929D01*
X82900000Y-137836956D01*
X82900000Y-138963044D01*
X82898377Y-138996071D01*
X82893525Y-139028781D01*
X82885491Y-139060857D01*
X82874351Y-139091991D01*
X82860213Y-139121884D01*
X82843213Y-139150247D01*
X82823515Y-139176807D01*
X82801308Y-139201308D01*
X82776807Y-139223515D01*
X82750247Y-139243213D01*
X82721884Y-139260213D01*
X82691991Y-139274351D01*
X82660857Y-139285491D01*
X82628781Y-139293525D01*
X82596071Y-139298377D01*
X82563044Y-139300000D01*
X81686956Y-139300000D01*
X81653929Y-139298377D01*
X81621219Y-139293525D01*
X81589143Y-139285491D01*
X81558009Y-139274351D01*
X81528116Y-139260213D01*
X81499753Y-139243213D01*
X81473193Y-139223515D01*
X81448692Y-139201308D01*
X81426485Y-139176807D01*
X81406787Y-139150247D01*
X81389787Y-139121884D01*
X81375649Y-139091991D01*
X81364509Y-139060857D01*
X81356475Y-139028781D01*
X81351623Y-138996071D01*
X81350000Y-138963044D01*
X81350000Y-137836956D01*
X81351623Y-137803929D01*
X81356475Y-137771219D01*
X81364509Y-137739143D01*
X81375649Y-137708009D01*
X81389787Y-137678116D01*
X81406787Y-137649753D01*
X81426485Y-137623193D01*
X81448692Y-137598692D01*
X81473193Y-137576485D01*
X81499753Y-137556787D01*
X81528116Y-137539787D01*
X81558009Y-137525649D01*
X81589143Y-137514509D01*
X81621219Y-137506475D01*
X81653929Y-137501623D01*
X81686956Y-137500000D01*
X82563044Y-137500000D01*
X82596071Y-137501623D01*
G37*
G36*
X80546071Y-137501623D02*
G01*
X80578781Y-137506475D01*
X80610857Y-137514509D01*
X80641991Y-137525649D01*
X80671884Y-137539787D01*
X80700247Y-137556787D01*
X80726807Y-137576485D01*
X80751308Y-137598692D01*
X80773515Y-137623193D01*
X80793213Y-137649753D01*
X80810213Y-137678116D01*
X80824351Y-137708009D01*
X80835491Y-137739143D01*
X80843525Y-137771219D01*
X80848377Y-137803929D01*
X80850000Y-137836956D01*
X80850000Y-138963044D01*
X80848377Y-138996071D01*
X80843525Y-139028781D01*
X80835491Y-139060857D01*
X80824351Y-139091991D01*
X80810213Y-139121884D01*
X80793213Y-139150247D01*
X80773515Y-139176807D01*
X80751308Y-139201308D01*
X80726807Y-139223515D01*
X80700247Y-139243213D01*
X80671884Y-139260213D01*
X80641991Y-139274351D01*
X80610857Y-139285491D01*
X80578781Y-139293525D01*
X80546071Y-139298377D01*
X80513044Y-139300000D01*
X79636956Y-139300000D01*
X79603929Y-139298377D01*
X79571219Y-139293525D01*
X79539143Y-139285491D01*
X79508009Y-139274351D01*
X79478116Y-139260213D01*
X79449753Y-139243213D01*
X79423193Y-139223515D01*
X79398692Y-139201308D01*
X79376485Y-139176807D01*
X79356787Y-139150247D01*
X79339787Y-139121884D01*
X79325649Y-139091991D01*
X79314509Y-139060857D01*
X79306475Y-139028781D01*
X79301623Y-138996071D01*
X79300000Y-138963044D01*
X79300000Y-137836956D01*
X79301623Y-137803929D01*
X79306475Y-137771219D01*
X79314509Y-137739143D01*
X79325649Y-137708009D01*
X79339787Y-137678116D01*
X79356787Y-137649753D01*
X79376485Y-137623193D01*
X79398692Y-137598692D01*
X79423193Y-137576485D01*
X79449753Y-137556787D01*
X79478116Y-137539787D01*
X79508009Y-137525649D01*
X79539143Y-137514509D01*
X79571219Y-137506475D01*
X79603929Y-137501623D01*
X79636956Y-137500000D01*
X80513044Y-137500000D01*
X80546071Y-137501623D01*
G37*
G36*
X65796071Y-141551623D02*
G01*
X65828781Y-141556475D01*
X65860857Y-141564509D01*
X65891991Y-141575649D01*
X65921884Y-141589787D01*
X65950247Y-141606787D01*
X65976807Y-141626485D01*
X66001308Y-141648692D01*
X66023515Y-141673193D01*
X66043213Y-141699753D01*
X66060213Y-141728116D01*
X66074351Y-141758009D01*
X66085491Y-141789143D01*
X66093525Y-141821219D01*
X66098377Y-141853929D01*
X66100000Y-141886956D01*
X66100000Y-142763044D01*
X66098377Y-142796071D01*
X66093525Y-142828781D01*
X66085491Y-142860857D01*
X66074351Y-142891991D01*
X66060213Y-142921884D01*
X66043213Y-142950247D01*
X66023515Y-142976807D01*
X66001308Y-143001308D01*
X65976807Y-143023515D01*
X65950247Y-143043213D01*
X65921884Y-143060213D01*
X65891991Y-143074351D01*
X65860857Y-143085491D01*
X65828781Y-143093525D01*
X65796071Y-143098377D01*
X65763044Y-143100000D01*
X64636956Y-143100000D01*
X64603929Y-143098377D01*
X64571219Y-143093525D01*
X64539143Y-143085491D01*
X64508009Y-143074351D01*
X64478116Y-143060213D01*
X64449753Y-143043213D01*
X64423193Y-143023515D01*
X64398692Y-143001308D01*
X64376485Y-142976807D01*
X64356787Y-142950247D01*
X64339787Y-142921884D01*
X64325649Y-142891991D01*
X64314509Y-142860857D01*
X64306475Y-142828781D01*
X64301623Y-142796071D01*
X64300000Y-142763044D01*
X64300000Y-141886956D01*
X64301623Y-141853929D01*
X64306475Y-141821219D01*
X64314509Y-141789143D01*
X64325649Y-141758009D01*
X64339787Y-141728116D01*
X64356787Y-141699753D01*
X64376485Y-141673193D01*
X64398692Y-141648692D01*
X64423193Y-141626485D01*
X64449753Y-141606787D01*
X64478116Y-141589787D01*
X64508009Y-141575649D01*
X64539143Y-141564509D01*
X64571219Y-141556475D01*
X64603929Y-141551623D01*
X64636956Y-141550000D01*
X65763044Y-141550000D01*
X65796071Y-141551623D01*
G37*
G36*
X65796071Y-139501623D02*
G01*
X65828781Y-139506475D01*
X65860857Y-139514509D01*
X65891991Y-139525649D01*
X65921884Y-139539787D01*
X65950247Y-139556787D01*
X65976807Y-139576485D01*
X66001308Y-139598692D01*
X66023515Y-139623193D01*
X66043213Y-139649753D01*
X66060213Y-139678116D01*
X66074351Y-139708009D01*
X66085491Y-139739143D01*
X66093525Y-139771219D01*
X66098377Y-139803929D01*
X66100000Y-139836956D01*
X66100000Y-140713044D01*
X66098377Y-140746071D01*
X66093525Y-140778781D01*
X66085491Y-140810857D01*
X66074351Y-140841991D01*
X66060213Y-140871884D01*
X66043213Y-140900247D01*
X66023515Y-140926807D01*
X66001308Y-140951308D01*
X65976807Y-140973515D01*
X65950247Y-140993213D01*
X65921884Y-141010213D01*
X65891991Y-141024351D01*
X65860857Y-141035491D01*
X65828781Y-141043525D01*
X65796071Y-141048377D01*
X65763044Y-141050000D01*
X64636956Y-141050000D01*
X64603929Y-141048377D01*
X64571219Y-141043525D01*
X64539143Y-141035491D01*
X64508009Y-141024351D01*
X64478116Y-141010213D01*
X64449753Y-140993213D01*
X64423193Y-140973515D01*
X64398692Y-140951308D01*
X64376485Y-140926807D01*
X64356787Y-140900247D01*
X64339787Y-140871884D01*
X64325649Y-140841991D01*
X64314509Y-140810857D01*
X64306475Y-140778781D01*
X64301623Y-140746071D01*
X64300000Y-140713044D01*
X64300000Y-139836956D01*
X64301623Y-139803929D01*
X64306475Y-139771219D01*
X64314509Y-139739143D01*
X64325649Y-139708009D01*
X64339787Y-139678116D01*
X64356787Y-139649753D01*
X64376485Y-139623193D01*
X64398692Y-139598692D01*
X64423193Y-139576485D01*
X64449753Y-139556787D01*
X64478116Y-139539787D01*
X64508009Y-139525649D01*
X64539143Y-139514509D01*
X64571219Y-139506475D01*
X64603929Y-139501623D01*
X64636956Y-139500000D01*
X65763044Y-139500000D01*
X65796071Y-139501623D01*
G37*
G36*
X79736207Y-133876542D02*
G01*
X79767287Y-133881152D01*
X79797766Y-133888787D01*
X79827350Y-133899372D01*
X79855754Y-133912806D01*
X79882704Y-133928959D01*
X79907942Y-133947677D01*
X79931223Y-133968777D01*
X79952323Y-133992058D01*
X79971041Y-134017296D01*
X79987194Y-134044246D01*
X80000628Y-134072650D01*
X80011213Y-134102234D01*
X80018848Y-134132713D01*
X80023458Y-134163793D01*
X80025000Y-134195176D01*
X80025000Y-136604824D01*
X80023458Y-136636207D01*
X80018848Y-136667287D01*
X80011213Y-136697766D01*
X80000628Y-136727350D01*
X79987194Y-136755754D01*
X79971041Y-136782704D01*
X79952323Y-136807942D01*
X79931223Y-136831223D01*
X79907942Y-136852323D01*
X79882704Y-136871041D01*
X79855754Y-136887194D01*
X79827350Y-136900628D01*
X79797766Y-136911213D01*
X79767287Y-136918848D01*
X79736207Y-136923458D01*
X79704824Y-136925000D01*
X78520176Y-136925000D01*
X78488793Y-136923458D01*
X78457713Y-136918848D01*
X78427234Y-136911213D01*
X78397650Y-136900628D01*
X78369246Y-136887194D01*
X78342296Y-136871041D01*
X78317058Y-136852323D01*
X78293777Y-136831223D01*
X78272677Y-136807942D01*
X78253959Y-136782704D01*
X78237806Y-136755754D01*
X78224372Y-136727350D01*
X78213787Y-136697766D01*
X78206152Y-136667287D01*
X78201542Y-136636207D01*
X78200000Y-136604824D01*
X78200000Y-134195176D01*
X78201542Y-134163793D01*
X78206152Y-134132713D01*
X78213787Y-134102234D01*
X78224372Y-134072650D01*
X78237806Y-134044246D01*
X78253959Y-134017296D01*
X78272677Y-133992058D01*
X78293777Y-133968777D01*
X78317058Y-133947677D01*
X78342296Y-133928959D01*
X78369246Y-133912806D01*
X78397650Y-133899372D01*
X78427234Y-133888787D01*
X78457713Y-133881152D01*
X78488793Y-133876542D01*
X78520176Y-133875000D01*
X79704824Y-133875000D01*
X79736207Y-133876542D01*
G37*
G36*
X82711207Y-133876542D02*
G01*
X82742287Y-133881152D01*
X82772766Y-133888787D01*
X82802350Y-133899372D01*
X82830754Y-133912806D01*
X82857704Y-133928959D01*
X82882942Y-133947677D01*
X82906223Y-133968777D01*
X82927323Y-133992058D01*
X82946041Y-134017296D01*
X82962194Y-134044246D01*
X82975628Y-134072650D01*
X82986213Y-134102234D01*
X82993848Y-134132713D01*
X82998458Y-134163793D01*
X83000000Y-134195176D01*
X83000000Y-136604824D01*
X82998458Y-136636207D01*
X82993848Y-136667287D01*
X82986213Y-136697766D01*
X82975628Y-136727350D01*
X82962194Y-136755754D01*
X82946041Y-136782704D01*
X82927323Y-136807942D01*
X82906223Y-136831223D01*
X82882942Y-136852323D01*
X82857704Y-136871041D01*
X82830754Y-136887194D01*
X82802350Y-136900628D01*
X82772766Y-136911213D01*
X82742287Y-136918848D01*
X82711207Y-136923458D01*
X82679824Y-136925000D01*
X81495176Y-136925000D01*
X81463793Y-136923458D01*
X81432713Y-136918848D01*
X81402234Y-136911213D01*
X81372650Y-136900628D01*
X81344246Y-136887194D01*
X81317296Y-136871041D01*
X81292058Y-136852323D01*
X81268777Y-136831223D01*
X81247677Y-136807942D01*
X81228959Y-136782704D01*
X81212806Y-136755754D01*
X81199372Y-136727350D01*
X81188787Y-136697766D01*
X81181152Y-136667287D01*
X81176542Y-136636207D01*
X81175000Y-136604824D01*
X81175000Y-134195176D01*
X81176542Y-134163793D01*
X81181152Y-134132713D01*
X81188787Y-134102234D01*
X81199372Y-134072650D01*
X81212806Y-134044246D01*
X81228959Y-134017296D01*
X81247677Y-133992058D01*
X81268777Y-133968777D01*
X81292058Y-133947677D01*
X81317296Y-133928959D01*
X81344246Y-133912806D01*
X81372650Y-133899372D01*
X81402234Y-133888787D01*
X81432713Y-133881152D01*
X81463793Y-133876542D01*
X81495176Y-133875000D01*
X82679824Y-133875000D01*
X82711207Y-133876542D01*
G37*
D26*
X129900000Y-110600000D03*
X129900000Y-118200000D03*
X129900000Y-107200000D03*
X129900000Y-121700000D03*
X152800000Y-107500000D03*
X152800000Y-121700000D03*
D27*
X85850000Y-75680000D03*
X85850000Y-76950000D03*
X85850000Y-79490000D03*
X85850000Y-80760000D03*
X85850000Y-82030000D03*
X85850000Y-83300000D03*
X85850000Y-84570000D03*
X85850000Y-85840000D03*
X85850000Y-87110000D03*
X85850000Y-88380000D03*
X85850000Y-89650000D03*
X85850000Y-90920000D03*
X85850000Y-92190000D03*
X85850000Y-93460000D03*
X85850000Y-94730000D03*
X85850000Y-96000000D03*
D28*
X84085000Y-97750000D03*
X82815000Y-97750000D03*
X81545000Y-97750000D03*
X80275000Y-97750000D03*
X79005000Y-97750000D03*
X77735000Y-97750000D03*
X76465000Y-97750000D03*
X75195000Y-97750000D03*
X73925000Y-97750000D03*
X72655000Y-97750000D03*
X71385000Y-97750000D03*
X70115000Y-97750000D03*
D27*
X68350000Y-96000000D03*
X68350000Y-94730000D03*
X68350000Y-93460000D03*
X68350000Y-92190000D03*
X68350000Y-90920000D03*
X68350000Y-89650000D03*
X68350000Y-88380000D03*
X68350000Y-87110000D03*
X68350000Y-85840000D03*
X68350000Y-84570000D03*
X68350000Y-83300000D03*
X68350000Y-82030000D03*
X68350000Y-80760000D03*
X68350000Y-79490000D03*
X68350000Y-76950000D03*
X68350000Y-75680000D03*
D12*
G36*
X92446071Y-136801623D02*
G01*
X92478781Y-136806475D01*
X92510857Y-136814509D01*
X92541991Y-136825649D01*
X92571884Y-136839787D01*
X92600247Y-136856787D01*
X92626807Y-136876485D01*
X92651308Y-136898692D01*
X92673515Y-136923193D01*
X92693213Y-136949753D01*
X92710213Y-136978116D01*
X92724351Y-137008009D01*
X92735491Y-137039143D01*
X92743525Y-137071219D01*
X92748377Y-137103929D01*
X92750000Y-137136956D01*
X92750000Y-138263044D01*
X92748377Y-138296071D01*
X92743525Y-138328781D01*
X92735491Y-138360857D01*
X92724351Y-138391991D01*
X92710213Y-138421884D01*
X92693213Y-138450247D01*
X92673515Y-138476807D01*
X92651308Y-138501308D01*
X92626807Y-138523515D01*
X92600247Y-138543213D01*
X92571884Y-138560213D01*
X92541991Y-138574351D01*
X92510857Y-138585491D01*
X92478781Y-138593525D01*
X92446071Y-138598377D01*
X92413044Y-138600000D01*
X91536956Y-138600000D01*
X91503929Y-138598377D01*
X91471219Y-138593525D01*
X91439143Y-138585491D01*
X91408009Y-138574351D01*
X91378116Y-138560213D01*
X91349753Y-138543213D01*
X91323193Y-138523515D01*
X91298692Y-138501308D01*
X91276485Y-138476807D01*
X91256787Y-138450247D01*
X91239787Y-138421884D01*
X91225649Y-138391991D01*
X91214509Y-138360857D01*
X91206475Y-138328781D01*
X91201623Y-138296071D01*
X91200000Y-138263044D01*
X91200000Y-137136956D01*
X91201623Y-137103929D01*
X91206475Y-137071219D01*
X91214509Y-137039143D01*
X91225649Y-137008009D01*
X91239787Y-136978116D01*
X91256787Y-136949753D01*
X91276485Y-136923193D01*
X91298692Y-136898692D01*
X91323193Y-136876485D01*
X91349753Y-136856787D01*
X91378116Y-136839787D01*
X91408009Y-136825649D01*
X91439143Y-136814509D01*
X91471219Y-136806475D01*
X91503929Y-136801623D01*
X91536956Y-136800000D01*
X92413044Y-136800000D01*
X92446071Y-136801623D01*
G37*
G36*
X94496071Y-136801623D02*
G01*
X94528781Y-136806475D01*
X94560857Y-136814509D01*
X94591991Y-136825649D01*
X94621884Y-136839787D01*
X94650247Y-136856787D01*
X94676807Y-136876485D01*
X94701308Y-136898692D01*
X94723515Y-136923193D01*
X94743213Y-136949753D01*
X94760213Y-136978116D01*
X94774351Y-137008009D01*
X94785491Y-137039143D01*
X94793525Y-137071219D01*
X94798377Y-137103929D01*
X94800000Y-137136956D01*
X94800000Y-138263044D01*
X94798377Y-138296071D01*
X94793525Y-138328781D01*
X94785491Y-138360857D01*
X94774351Y-138391991D01*
X94760213Y-138421884D01*
X94743213Y-138450247D01*
X94723515Y-138476807D01*
X94701308Y-138501308D01*
X94676807Y-138523515D01*
X94650247Y-138543213D01*
X94621884Y-138560213D01*
X94591991Y-138574351D01*
X94560857Y-138585491D01*
X94528781Y-138593525D01*
X94496071Y-138598377D01*
X94463044Y-138600000D01*
X93586956Y-138600000D01*
X93553929Y-138598377D01*
X93521219Y-138593525D01*
X93489143Y-138585491D01*
X93458009Y-138574351D01*
X93428116Y-138560213D01*
X93399753Y-138543213D01*
X93373193Y-138523515D01*
X93348692Y-138501308D01*
X93326485Y-138476807D01*
X93306787Y-138450247D01*
X93289787Y-138421884D01*
X93275649Y-138391991D01*
X93264509Y-138360857D01*
X93256475Y-138328781D01*
X93251623Y-138296071D01*
X93250000Y-138263044D01*
X93250000Y-137136956D01*
X93251623Y-137103929D01*
X93256475Y-137071219D01*
X93264509Y-137039143D01*
X93275649Y-137008009D01*
X93289787Y-136978116D01*
X93306787Y-136949753D01*
X93326485Y-136923193D01*
X93348692Y-136898692D01*
X93373193Y-136876485D01*
X93399753Y-136856787D01*
X93428116Y-136839787D01*
X93458009Y-136825649D01*
X93489143Y-136814509D01*
X93521219Y-136806475D01*
X93553929Y-136801623D01*
X93586956Y-136800000D01*
X94463044Y-136800000D01*
X94496071Y-136801623D01*
G37*
D29*
X142350000Y-137150000D03*
X140450000Y-137150000D03*
X140450000Y-134950000D03*
X141400000Y-134950000D03*
X142350000Y-134950000D03*
D12*
G36*
X123636207Y-132101542D02*
G01*
X123667287Y-132106152D01*
X123697766Y-132113787D01*
X123727350Y-132124372D01*
X123755754Y-132137806D01*
X123782704Y-132153959D01*
X123807942Y-132172677D01*
X123831223Y-132193777D01*
X123852323Y-132217058D01*
X123871041Y-132242296D01*
X123887194Y-132269246D01*
X123900628Y-132297650D01*
X123911213Y-132327234D01*
X123918848Y-132357713D01*
X123923458Y-132388793D01*
X123925000Y-132420176D01*
X123925000Y-133604824D01*
X123923458Y-133636207D01*
X123918848Y-133667287D01*
X123911213Y-133697766D01*
X123900628Y-133727350D01*
X123887194Y-133755754D01*
X123871041Y-133782704D01*
X123852323Y-133807942D01*
X123831223Y-133831223D01*
X123807942Y-133852323D01*
X123782704Y-133871041D01*
X123755754Y-133887194D01*
X123727350Y-133900628D01*
X123697766Y-133911213D01*
X123667287Y-133918848D01*
X123636207Y-133923458D01*
X123604824Y-133925000D01*
X121195176Y-133925000D01*
X121163793Y-133923458D01*
X121132713Y-133918848D01*
X121102234Y-133911213D01*
X121072650Y-133900628D01*
X121044246Y-133887194D01*
X121017296Y-133871041D01*
X120992058Y-133852323D01*
X120968777Y-133831223D01*
X120947677Y-133807942D01*
X120928959Y-133782704D01*
X120912806Y-133755754D01*
X120899372Y-133727350D01*
X120888787Y-133697766D01*
X120881152Y-133667287D01*
X120876542Y-133636207D01*
X120875000Y-133604824D01*
X120875000Y-132420176D01*
X120876542Y-132388793D01*
X120881152Y-132357713D01*
X120888787Y-132327234D01*
X120899372Y-132297650D01*
X120912806Y-132269246D01*
X120928959Y-132242296D01*
X120947677Y-132217058D01*
X120968777Y-132193777D01*
X120992058Y-132172677D01*
X121017296Y-132153959D01*
X121044246Y-132137806D01*
X121072650Y-132124372D01*
X121102234Y-132113787D01*
X121132713Y-132106152D01*
X121163793Y-132101542D01*
X121195176Y-132100000D01*
X123604824Y-132100000D01*
X123636207Y-132101542D01*
G37*
G36*
X123636207Y-135076542D02*
G01*
X123667287Y-135081152D01*
X123697766Y-135088787D01*
X123727350Y-135099372D01*
X123755754Y-135112806D01*
X123782704Y-135128959D01*
X123807942Y-135147677D01*
X123831223Y-135168777D01*
X123852323Y-135192058D01*
X123871041Y-135217296D01*
X123887194Y-135244246D01*
X123900628Y-135272650D01*
X123911213Y-135302234D01*
X123918848Y-135332713D01*
X123923458Y-135363793D01*
X123925000Y-135395176D01*
X123925000Y-136579824D01*
X123923458Y-136611207D01*
X123918848Y-136642287D01*
X123911213Y-136672766D01*
X123900628Y-136702350D01*
X123887194Y-136730754D01*
X123871041Y-136757704D01*
X123852323Y-136782942D01*
X123831223Y-136806223D01*
X123807942Y-136827323D01*
X123782704Y-136846041D01*
X123755754Y-136862194D01*
X123727350Y-136875628D01*
X123697766Y-136886213D01*
X123667287Y-136893848D01*
X123636207Y-136898458D01*
X123604824Y-136900000D01*
X121195176Y-136900000D01*
X121163793Y-136898458D01*
X121132713Y-136893848D01*
X121102234Y-136886213D01*
X121072650Y-136875628D01*
X121044246Y-136862194D01*
X121017296Y-136846041D01*
X120992058Y-136827323D01*
X120968777Y-136806223D01*
X120947677Y-136782942D01*
X120928959Y-136757704D01*
X120912806Y-136730754D01*
X120899372Y-136702350D01*
X120888787Y-136672766D01*
X120881152Y-136642287D01*
X120876542Y-136611207D01*
X120875000Y-136579824D01*
X120875000Y-135395176D01*
X120876542Y-135363793D01*
X120881152Y-135332713D01*
X120888787Y-135302234D01*
X120899372Y-135272650D01*
X120912806Y-135244246D01*
X120928959Y-135217296D01*
X120947677Y-135192058D01*
X120968777Y-135168777D01*
X120992058Y-135147677D01*
X121017296Y-135128959D01*
X121044246Y-135112806D01*
X121072650Y-135099372D01*
X121102234Y-135088787D01*
X121132713Y-135081152D01*
X121163793Y-135076542D01*
X121195176Y-135075000D01*
X123604824Y-135075000D01*
X123636207Y-135076542D01*
G37*
G36*
X120036207Y-132101542D02*
G01*
X120067287Y-132106152D01*
X120097766Y-132113787D01*
X120127350Y-132124372D01*
X120155754Y-132137806D01*
X120182704Y-132153959D01*
X120207942Y-132172677D01*
X120231223Y-132193777D01*
X120252323Y-132217058D01*
X120271041Y-132242296D01*
X120287194Y-132269246D01*
X120300628Y-132297650D01*
X120311213Y-132327234D01*
X120318848Y-132357713D01*
X120323458Y-132388793D01*
X120325000Y-132420176D01*
X120325000Y-133604824D01*
X120323458Y-133636207D01*
X120318848Y-133667287D01*
X120311213Y-133697766D01*
X120300628Y-133727350D01*
X120287194Y-133755754D01*
X120271041Y-133782704D01*
X120252323Y-133807942D01*
X120231223Y-133831223D01*
X120207942Y-133852323D01*
X120182704Y-133871041D01*
X120155754Y-133887194D01*
X120127350Y-133900628D01*
X120097766Y-133911213D01*
X120067287Y-133918848D01*
X120036207Y-133923458D01*
X120004824Y-133925000D01*
X117595176Y-133925000D01*
X117563793Y-133923458D01*
X117532713Y-133918848D01*
X117502234Y-133911213D01*
X117472650Y-133900628D01*
X117444246Y-133887194D01*
X117417296Y-133871041D01*
X117392058Y-133852323D01*
X117368777Y-133831223D01*
X117347677Y-133807942D01*
X117328959Y-133782704D01*
X117312806Y-133755754D01*
X117299372Y-133727350D01*
X117288787Y-133697766D01*
X117281152Y-133667287D01*
X117276542Y-133636207D01*
X117275000Y-133604824D01*
X117275000Y-132420176D01*
X117276542Y-132388793D01*
X117281152Y-132357713D01*
X117288787Y-132327234D01*
X117299372Y-132297650D01*
X117312806Y-132269246D01*
X117328959Y-132242296D01*
X117347677Y-132217058D01*
X117368777Y-132193777D01*
X117392058Y-132172677D01*
X117417296Y-132153959D01*
X117444246Y-132137806D01*
X117472650Y-132124372D01*
X117502234Y-132113787D01*
X117532713Y-132106152D01*
X117563793Y-132101542D01*
X117595176Y-132100000D01*
X120004824Y-132100000D01*
X120036207Y-132101542D01*
G37*
G36*
X120036207Y-135076542D02*
G01*
X120067287Y-135081152D01*
X120097766Y-135088787D01*
X120127350Y-135099372D01*
X120155754Y-135112806D01*
X120182704Y-135128959D01*
X120207942Y-135147677D01*
X120231223Y-135168777D01*
X120252323Y-135192058D01*
X120271041Y-135217296D01*
X120287194Y-135244246D01*
X120300628Y-135272650D01*
X120311213Y-135302234D01*
X120318848Y-135332713D01*
X120323458Y-135363793D01*
X120325000Y-135395176D01*
X120325000Y-136579824D01*
X120323458Y-136611207D01*
X120318848Y-136642287D01*
X120311213Y-136672766D01*
X120300628Y-136702350D01*
X120287194Y-136730754D01*
X120271041Y-136757704D01*
X120252323Y-136782942D01*
X120231223Y-136806223D01*
X120207942Y-136827323D01*
X120182704Y-136846041D01*
X120155754Y-136862194D01*
X120127350Y-136875628D01*
X120097766Y-136886213D01*
X120067287Y-136893848D01*
X120036207Y-136898458D01*
X120004824Y-136900000D01*
X117595176Y-136900000D01*
X117563793Y-136898458D01*
X117532713Y-136893848D01*
X117502234Y-136886213D01*
X117472650Y-136875628D01*
X117444246Y-136862194D01*
X117417296Y-136846041D01*
X117392058Y-136827323D01*
X117368777Y-136806223D01*
X117347677Y-136782942D01*
X117328959Y-136757704D01*
X117312806Y-136730754D01*
X117299372Y-136702350D01*
X117288787Y-136672766D01*
X117281152Y-136642287D01*
X117276542Y-136611207D01*
X117275000Y-136579824D01*
X117275000Y-135395176D01*
X117276542Y-135363793D01*
X117281152Y-135332713D01*
X117288787Y-135302234D01*
X117299372Y-135272650D01*
X117312806Y-135244246D01*
X117328959Y-135217296D01*
X117347677Y-135192058D01*
X117368777Y-135168777D01*
X117392058Y-135147677D01*
X117417296Y-135128959D01*
X117444246Y-135112806D01*
X117472650Y-135099372D01*
X117502234Y-135088787D01*
X117532713Y-135081152D01*
X117563793Y-135076542D01*
X117595176Y-135075000D01*
X120004824Y-135075000D01*
X120036207Y-135076542D01*
G37*
G36*
X116436207Y-132101542D02*
G01*
X116467287Y-132106152D01*
X116497766Y-132113787D01*
X116527350Y-132124372D01*
X116555754Y-132137806D01*
X116582704Y-132153959D01*
X116607942Y-132172677D01*
X116631223Y-132193777D01*
X116652323Y-132217058D01*
X116671041Y-132242296D01*
X116687194Y-132269246D01*
X116700628Y-132297650D01*
X116711213Y-132327234D01*
X116718848Y-132357713D01*
X116723458Y-132388793D01*
X116725000Y-132420176D01*
X116725000Y-133604824D01*
X116723458Y-133636207D01*
X116718848Y-133667287D01*
X116711213Y-133697766D01*
X116700628Y-133727350D01*
X116687194Y-133755754D01*
X116671041Y-133782704D01*
X116652323Y-133807942D01*
X116631223Y-133831223D01*
X116607942Y-133852323D01*
X116582704Y-133871041D01*
X116555754Y-133887194D01*
X116527350Y-133900628D01*
X116497766Y-133911213D01*
X116467287Y-133918848D01*
X116436207Y-133923458D01*
X116404824Y-133925000D01*
X113995176Y-133925000D01*
X113963793Y-133923458D01*
X113932713Y-133918848D01*
X113902234Y-133911213D01*
X113872650Y-133900628D01*
X113844246Y-133887194D01*
X113817296Y-133871041D01*
X113792058Y-133852323D01*
X113768777Y-133831223D01*
X113747677Y-133807942D01*
X113728959Y-133782704D01*
X113712806Y-133755754D01*
X113699372Y-133727350D01*
X113688787Y-133697766D01*
X113681152Y-133667287D01*
X113676542Y-133636207D01*
X113675000Y-133604824D01*
X113675000Y-132420176D01*
X113676542Y-132388793D01*
X113681152Y-132357713D01*
X113688787Y-132327234D01*
X113699372Y-132297650D01*
X113712806Y-132269246D01*
X113728959Y-132242296D01*
X113747677Y-132217058D01*
X113768777Y-132193777D01*
X113792058Y-132172677D01*
X113817296Y-132153959D01*
X113844246Y-132137806D01*
X113872650Y-132124372D01*
X113902234Y-132113787D01*
X113932713Y-132106152D01*
X113963793Y-132101542D01*
X113995176Y-132100000D01*
X116404824Y-132100000D01*
X116436207Y-132101542D01*
G37*
G36*
X116436207Y-135076542D02*
G01*
X116467287Y-135081152D01*
X116497766Y-135088787D01*
X116527350Y-135099372D01*
X116555754Y-135112806D01*
X116582704Y-135128959D01*
X116607942Y-135147677D01*
X116631223Y-135168777D01*
X116652323Y-135192058D01*
X116671041Y-135217296D01*
X116687194Y-135244246D01*
X116700628Y-135272650D01*
X116711213Y-135302234D01*
X116718848Y-135332713D01*
X116723458Y-135363793D01*
X116725000Y-135395176D01*
X116725000Y-136579824D01*
X116723458Y-136611207D01*
X116718848Y-136642287D01*
X116711213Y-136672766D01*
X116700628Y-136702350D01*
X116687194Y-136730754D01*
X116671041Y-136757704D01*
X116652323Y-136782942D01*
X116631223Y-136806223D01*
X116607942Y-136827323D01*
X116582704Y-136846041D01*
X116555754Y-136862194D01*
X116527350Y-136875628D01*
X116497766Y-136886213D01*
X116467287Y-136893848D01*
X116436207Y-136898458D01*
X116404824Y-136900000D01*
X113995176Y-136900000D01*
X113963793Y-136898458D01*
X113932713Y-136893848D01*
X113902234Y-136886213D01*
X113872650Y-136875628D01*
X113844246Y-136862194D01*
X113817296Y-136846041D01*
X113792058Y-136827323D01*
X113768777Y-136806223D01*
X113747677Y-136782942D01*
X113728959Y-136757704D01*
X113712806Y-136730754D01*
X113699372Y-136702350D01*
X113688787Y-136672766D01*
X113681152Y-136642287D01*
X113676542Y-136611207D01*
X113675000Y-136579824D01*
X113675000Y-135395176D01*
X113676542Y-135363793D01*
X113681152Y-135332713D01*
X113688787Y-135302234D01*
X113699372Y-135272650D01*
X113712806Y-135244246D01*
X113728959Y-135217296D01*
X113747677Y-135192058D01*
X113768777Y-135168777D01*
X113792058Y-135147677D01*
X113817296Y-135128959D01*
X113844246Y-135112806D01*
X113872650Y-135099372D01*
X113902234Y-135088787D01*
X113932713Y-135081152D01*
X113963793Y-135076542D01*
X113995176Y-135075000D01*
X116404824Y-135075000D01*
X116436207Y-135076542D01*
G37*
G36*
X117346071Y-122501623D02*
G01*
X117378781Y-122506475D01*
X117410857Y-122514509D01*
X117441991Y-122525649D01*
X117471884Y-122539787D01*
X117500247Y-122556787D01*
X117526807Y-122576485D01*
X117551308Y-122598692D01*
X117573515Y-122623193D01*
X117593213Y-122649753D01*
X117610213Y-122678116D01*
X117624351Y-122708009D01*
X117635491Y-122739143D01*
X117643525Y-122771219D01*
X117648377Y-122803929D01*
X117650000Y-122836956D01*
X117650000Y-123963044D01*
X117648377Y-123996071D01*
X117643525Y-124028781D01*
X117635491Y-124060857D01*
X117624351Y-124091991D01*
X117610213Y-124121884D01*
X117593213Y-124150247D01*
X117573515Y-124176807D01*
X117551308Y-124201308D01*
X117526807Y-124223515D01*
X117500247Y-124243213D01*
X117471884Y-124260213D01*
X117441991Y-124274351D01*
X117410857Y-124285491D01*
X117378781Y-124293525D01*
X117346071Y-124298377D01*
X117313044Y-124300000D01*
X116436956Y-124300000D01*
X116403929Y-124298377D01*
X116371219Y-124293525D01*
X116339143Y-124285491D01*
X116308009Y-124274351D01*
X116278116Y-124260213D01*
X116249753Y-124243213D01*
X116223193Y-124223515D01*
X116198692Y-124201308D01*
X116176485Y-124176807D01*
X116156787Y-124150247D01*
X116139787Y-124121884D01*
X116125649Y-124091991D01*
X116114509Y-124060857D01*
X116106475Y-124028781D01*
X116101623Y-123996071D01*
X116100000Y-123963044D01*
X116100000Y-122836956D01*
X116101623Y-122803929D01*
X116106475Y-122771219D01*
X116114509Y-122739143D01*
X116125649Y-122708009D01*
X116139787Y-122678116D01*
X116156787Y-122649753D01*
X116176485Y-122623193D01*
X116198692Y-122598692D01*
X116223193Y-122576485D01*
X116249753Y-122556787D01*
X116278116Y-122539787D01*
X116308009Y-122525649D01*
X116339143Y-122514509D01*
X116371219Y-122506475D01*
X116403929Y-122501623D01*
X116436956Y-122500000D01*
X117313044Y-122500000D01*
X117346071Y-122501623D01*
G37*
G36*
X119396071Y-122501623D02*
G01*
X119428781Y-122506475D01*
X119460857Y-122514509D01*
X119491991Y-122525649D01*
X119521884Y-122539787D01*
X119550247Y-122556787D01*
X119576807Y-122576485D01*
X119601308Y-122598692D01*
X119623515Y-122623193D01*
X119643213Y-122649753D01*
X119660213Y-122678116D01*
X119674351Y-122708009D01*
X119685491Y-122739143D01*
X119693525Y-122771219D01*
X119698377Y-122803929D01*
X119700000Y-122836956D01*
X119700000Y-123963044D01*
X119698377Y-123996071D01*
X119693525Y-124028781D01*
X119685491Y-124060857D01*
X119674351Y-124091991D01*
X119660213Y-124121884D01*
X119643213Y-124150247D01*
X119623515Y-124176807D01*
X119601308Y-124201308D01*
X119576807Y-124223515D01*
X119550247Y-124243213D01*
X119521884Y-124260213D01*
X119491991Y-124274351D01*
X119460857Y-124285491D01*
X119428781Y-124293525D01*
X119396071Y-124298377D01*
X119363044Y-124300000D01*
X118486956Y-124300000D01*
X118453929Y-124298377D01*
X118421219Y-124293525D01*
X118389143Y-124285491D01*
X118358009Y-124274351D01*
X118328116Y-124260213D01*
X118299753Y-124243213D01*
X118273193Y-124223515D01*
X118248692Y-124201308D01*
X118226485Y-124176807D01*
X118206787Y-124150247D01*
X118189787Y-124121884D01*
X118175649Y-124091991D01*
X118164509Y-124060857D01*
X118156475Y-124028781D01*
X118151623Y-123996071D01*
X118150000Y-123963044D01*
X118150000Y-122836956D01*
X118151623Y-122803929D01*
X118156475Y-122771219D01*
X118164509Y-122739143D01*
X118175649Y-122708009D01*
X118189787Y-122678116D01*
X118206787Y-122649753D01*
X118226485Y-122623193D01*
X118248692Y-122598692D01*
X118273193Y-122576485D01*
X118299753Y-122556787D01*
X118328116Y-122539787D01*
X118358009Y-122525649D01*
X118389143Y-122514509D01*
X118421219Y-122506475D01*
X118453929Y-122501623D01*
X118486956Y-122500000D01*
X119363044Y-122500000D01*
X119396071Y-122501623D01*
G37*
G36*
X112836207Y-132101542D02*
G01*
X112867287Y-132106152D01*
X112897766Y-132113787D01*
X112927350Y-132124372D01*
X112955754Y-132137806D01*
X112982704Y-132153959D01*
X113007942Y-132172677D01*
X113031223Y-132193777D01*
X113052323Y-132217058D01*
X113071041Y-132242296D01*
X113087194Y-132269246D01*
X113100628Y-132297650D01*
X113111213Y-132327234D01*
X113118848Y-132357713D01*
X113123458Y-132388793D01*
X113125000Y-132420176D01*
X113125000Y-133604824D01*
X113123458Y-133636207D01*
X113118848Y-133667287D01*
X113111213Y-133697766D01*
X113100628Y-133727350D01*
X113087194Y-133755754D01*
X113071041Y-133782704D01*
X113052323Y-133807942D01*
X113031223Y-133831223D01*
X113007942Y-133852323D01*
X112982704Y-133871041D01*
X112955754Y-133887194D01*
X112927350Y-133900628D01*
X112897766Y-133911213D01*
X112867287Y-133918848D01*
X112836207Y-133923458D01*
X112804824Y-133925000D01*
X110395176Y-133925000D01*
X110363793Y-133923458D01*
X110332713Y-133918848D01*
X110302234Y-133911213D01*
X110272650Y-133900628D01*
X110244246Y-133887194D01*
X110217296Y-133871041D01*
X110192058Y-133852323D01*
X110168777Y-133831223D01*
X110147677Y-133807942D01*
X110128959Y-133782704D01*
X110112806Y-133755754D01*
X110099372Y-133727350D01*
X110088787Y-133697766D01*
X110081152Y-133667287D01*
X110076542Y-133636207D01*
X110075000Y-133604824D01*
X110075000Y-132420176D01*
X110076542Y-132388793D01*
X110081152Y-132357713D01*
X110088787Y-132327234D01*
X110099372Y-132297650D01*
X110112806Y-132269246D01*
X110128959Y-132242296D01*
X110147677Y-132217058D01*
X110168777Y-132193777D01*
X110192058Y-132172677D01*
X110217296Y-132153959D01*
X110244246Y-132137806D01*
X110272650Y-132124372D01*
X110302234Y-132113787D01*
X110332713Y-132106152D01*
X110363793Y-132101542D01*
X110395176Y-132100000D01*
X112804824Y-132100000D01*
X112836207Y-132101542D01*
G37*
G36*
X112836207Y-135076542D02*
G01*
X112867287Y-135081152D01*
X112897766Y-135088787D01*
X112927350Y-135099372D01*
X112955754Y-135112806D01*
X112982704Y-135128959D01*
X113007942Y-135147677D01*
X113031223Y-135168777D01*
X113052323Y-135192058D01*
X113071041Y-135217296D01*
X113087194Y-135244246D01*
X113100628Y-135272650D01*
X113111213Y-135302234D01*
X113118848Y-135332713D01*
X113123458Y-135363793D01*
X113125000Y-135395176D01*
X113125000Y-136579824D01*
X113123458Y-136611207D01*
X113118848Y-136642287D01*
X113111213Y-136672766D01*
X113100628Y-136702350D01*
X113087194Y-136730754D01*
X113071041Y-136757704D01*
X113052323Y-136782942D01*
X113031223Y-136806223D01*
X113007942Y-136827323D01*
X112982704Y-136846041D01*
X112955754Y-136862194D01*
X112927350Y-136875628D01*
X112897766Y-136886213D01*
X112867287Y-136893848D01*
X112836207Y-136898458D01*
X112804824Y-136900000D01*
X110395176Y-136900000D01*
X110363793Y-136898458D01*
X110332713Y-136893848D01*
X110302234Y-136886213D01*
X110272650Y-136875628D01*
X110244246Y-136862194D01*
X110217296Y-136846041D01*
X110192058Y-136827323D01*
X110168777Y-136806223D01*
X110147677Y-136782942D01*
X110128959Y-136757704D01*
X110112806Y-136730754D01*
X110099372Y-136702350D01*
X110088787Y-136672766D01*
X110081152Y-136642287D01*
X110076542Y-136611207D01*
X110075000Y-136579824D01*
X110075000Y-135395176D01*
X110076542Y-135363793D01*
X110081152Y-135332713D01*
X110088787Y-135302234D01*
X110099372Y-135272650D01*
X110112806Y-135244246D01*
X110128959Y-135217296D01*
X110147677Y-135192058D01*
X110168777Y-135168777D01*
X110192058Y-135147677D01*
X110217296Y-135128959D01*
X110244246Y-135112806D01*
X110272650Y-135099372D01*
X110302234Y-135088787D01*
X110332713Y-135081152D01*
X110363793Y-135076542D01*
X110395176Y-135075000D01*
X112804824Y-135075000D01*
X112836207Y-135076542D01*
G37*
G36*
X111846071Y-122501623D02*
G01*
X111878781Y-122506475D01*
X111910857Y-122514509D01*
X111941991Y-122525649D01*
X111971884Y-122539787D01*
X112000247Y-122556787D01*
X112026807Y-122576485D01*
X112051308Y-122598692D01*
X112073515Y-122623193D01*
X112093213Y-122649753D01*
X112110213Y-122678116D01*
X112124351Y-122708009D01*
X112135491Y-122739143D01*
X112143525Y-122771219D01*
X112148377Y-122803929D01*
X112150000Y-122836956D01*
X112150000Y-123963044D01*
X112148377Y-123996071D01*
X112143525Y-124028781D01*
X112135491Y-124060857D01*
X112124351Y-124091991D01*
X112110213Y-124121884D01*
X112093213Y-124150247D01*
X112073515Y-124176807D01*
X112051308Y-124201308D01*
X112026807Y-124223515D01*
X112000247Y-124243213D01*
X111971884Y-124260213D01*
X111941991Y-124274351D01*
X111910857Y-124285491D01*
X111878781Y-124293525D01*
X111846071Y-124298377D01*
X111813044Y-124300000D01*
X110936956Y-124300000D01*
X110903929Y-124298377D01*
X110871219Y-124293525D01*
X110839143Y-124285491D01*
X110808009Y-124274351D01*
X110778116Y-124260213D01*
X110749753Y-124243213D01*
X110723193Y-124223515D01*
X110698692Y-124201308D01*
X110676485Y-124176807D01*
X110656787Y-124150247D01*
X110639787Y-124121884D01*
X110625649Y-124091991D01*
X110614509Y-124060857D01*
X110606475Y-124028781D01*
X110601623Y-123996071D01*
X110600000Y-123963044D01*
X110600000Y-122836956D01*
X110601623Y-122803929D01*
X110606475Y-122771219D01*
X110614509Y-122739143D01*
X110625649Y-122708009D01*
X110639787Y-122678116D01*
X110656787Y-122649753D01*
X110676485Y-122623193D01*
X110698692Y-122598692D01*
X110723193Y-122576485D01*
X110749753Y-122556787D01*
X110778116Y-122539787D01*
X110808009Y-122525649D01*
X110839143Y-122514509D01*
X110871219Y-122506475D01*
X110903929Y-122501623D01*
X110936956Y-122500000D01*
X111813044Y-122500000D01*
X111846071Y-122501623D01*
G37*
G36*
X113896071Y-122501623D02*
G01*
X113928781Y-122506475D01*
X113960857Y-122514509D01*
X113991991Y-122525649D01*
X114021884Y-122539787D01*
X114050247Y-122556787D01*
X114076807Y-122576485D01*
X114101308Y-122598692D01*
X114123515Y-122623193D01*
X114143213Y-122649753D01*
X114160213Y-122678116D01*
X114174351Y-122708009D01*
X114185491Y-122739143D01*
X114193525Y-122771219D01*
X114198377Y-122803929D01*
X114200000Y-122836956D01*
X114200000Y-123963044D01*
X114198377Y-123996071D01*
X114193525Y-124028781D01*
X114185491Y-124060857D01*
X114174351Y-124091991D01*
X114160213Y-124121884D01*
X114143213Y-124150247D01*
X114123515Y-124176807D01*
X114101308Y-124201308D01*
X114076807Y-124223515D01*
X114050247Y-124243213D01*
X114021884Y-124260213D01*
X113991991Y-124274351D01*
X113960857Y-124285491D01*
X113928781Y-124293525D01*
X113896071Y-124298377D01*
X113863044Y-124300000D01*
X112986956Y-124300000D01*
X112953929Y-124298377D01*
X112921219Y-124293525D01*
X112889143Y-124285491D01*
X112858009Y-124274351D01*
X112828116Y-124260213D01*
X112799753Y-124243213D01*
X112773193Y-124223515D01*
X112748692Y-124201308D01*
X112726485Y-124176807D01*
X112706787Y-124150247D01*
X112689787Y-124121884D01*
X112675649Y-124091991D01*
X112664509Y-124060857D01*
X112656475Y-124028781D01*
X112651623Y-123996071D01*
X112650000Y-123963044D01*
X112650000Y-122836956D01*
X112651623Y-122803929D01*
X112656475Y-122771219D01*
X112664509Y-122739143D01*
X112675649Y-122708009D01*
X112689787Y-122678116D01*
X112706787Y-122649753D01*
X112726485Y-122623193D01*
X112748692Y-122598692D01*
X112773193Y-122576485D01*
X112799753Y-122556787D01*
X112828116Y-122539787D01*
X112858009Y-122525649D01*
X112889143Y-122514509D01*
X112921219Y-122506475D01*
X112953929Y-122501623D01*
X112986956Y-122500000D01*
X113863044Y-122500000D01*
X113896071Y-122501623D01*
G37*
G36*
X109236207Y-132101542D02*
G01*
X109267287Y-132106152D01*
X109297766Y-132113787D01*
X109327350Y-132124372D01*
X109355754Y-132137806D01*
X109382704Y-132153959D01*
X109407942Y-132172677D01*
X109431223Y-132193777D01*
X109452323Y-132217058D01*
X109471041Y-132242296D01*
X109487194Y-132269246D01*
X109500628Y-132297650D01*
X109511213Y-132327234D01*
X109518848Y-132357713D01*
X109523458Y-132388793D01*
X109525000Y-132420176D01*
X109525000Y-133604824D01*
X109523458Y-133636207D01*
X109518848Y-133667287D01*
X109511213Y-133697766D01*
X109500628Y-133727350D01*
X109487194Y-133755754D01*
X109471041Y-133782704D01*
X109452323Y-133807942D01*
X109431223Y-133831223D01*
X109407942Y-133852323D01*
X109382704Y-133871041D01*
X109355754Y-133887194D01*
X109327350Y-133900628D01*
X109297766Y-133911213D01*
X109267287Y-133918848D01*
X109236207Y-133923458D01*
X109204824Y-133925000D01*
X106795176Y-133925000D01*
X106763793Y-133923458D01*
X106732713Y-133918848D01*
X106702234Y-133911213D01*
X106672650Y-133900628D01*
X106644246Y-133887194D01*
X106617296Y-133871041D01*
X106592058Y-133852323D01*
X106568777Y-133831223D01*
X106547677Y-133807942D01*
X106528959Y-133782704D01*
X106512806Y-133755754D01*
X106499372Y-133727350D01*
X106488787Y-133697766D01*
X106481152Y-133667287D01*
X106476542Y-133636207D01*
X106475000Y-133604824D01*
X106475000Y-132420176D01*
X106476542Y-132388793D01*
X106481152Y-132357713D01*
X106488787Y-132327234D01*
X106499372Y-132297650D01*
X106512806Y-132269246D01*
X106528959Y-132242296D01*
X106547677Y-132217058D01*
X106568777Y-132193777D01*
X106592058Y-132172677D01*
X106617296Y-132153959D01*
X106644246Y-132137806D01*
X106672650Y-132124372D01*
X106702234Y-132113787D01*
X106732713Y-132106152D01*
X106763793Y-132101542D01*
X106795176Y-132100000D01*
X109204824Y-132100000D01*
X109236207Y-132101542D01*
G37*
G36*
X109236207Y-135076542D02*
G01*
X109267287Y-135081152D01*
X109297766Y-135088787D01*
X109327350Y-135099372D01*
X109355754Y-135112806D01*
X109382704Y-135128959D01*
X109407942Y-135147677D01*
X109431223Y-135168777D01*
X109452323Y-135192058D01*
X109471041Y-135217296D01*
X109487194Y-135244246D01*
X109500628Y-135272650D01*
X109511213Y-135302234D01*
X109518848Y-135332713D01*
X109523458Y-135363793D01*
X109525000Y-135395176D01*
X109525000Y-136579824D01*
X109523458Y-136611207D01*
X109518848Y-136642287D01*
X109511213Y-136672766D01*
X109500628Y-136702350D01*
X109487194Y-136730754D01*
X109471041Y-136757704D01*
X109452323Y-136782942D01*
X109431223Y-136806223D01*
X109407942Y-136827323D01*
X109382704Y-136846041D01*
X109355754Y-136862194D01*
X109327350Y-136875628D01*
X109297766Y-136886213D01*
X109267287Y-136893848D01*
X109236207Y-136898458D01*
X109204824Y-136900000D01*
X106795176Y-136900000D01*
X106763793Y-136898458D01*
X106732713Y-136893848D01*
X106702234Y-136886213D01*
X106672650Y-136875628D01*
X106644246Y-136862194D01*
X106617296Y-136846041D01*
X106592058Y-136827323D01*
X106568777Y-136806223D01*
X106547677Y-136782942D01*
X106528959Y-136757704D01*
X106512806Y-136730754D01*
X106499372Y-136702350D01*
X106488787Y-136672766D01*
X106481152Y-136642287D01*
X106476542Y-136611207D01*
X106475000Y-136579824D01*
X106475000Y-135395176D01*
X106476542Y-135363793D01*
X106481152Y-135332713D01*
X106488787Y-135302234D01*
X106499372Y-135272650D01*
X106512806Y-135244246D01*
X106528959Y-135217296D01*
X106547677Y-135192058D01*
X106568777Y-135168777D01*
X106592058Y-135147677D01*
X106617296Y-135128959D01*
X106644246Y-135112806D01*
X106672650Y-135099372D01*
X106702234Y-135088787D01*
X106732713Y-135081152D01*
X106763793Y-135076542D01*
X106795176Y-135075000D01*
X109204824Y-135075000D01*
X109236207Y-135076542D01*
G37*
G36*
X106346071Y-122501623D02*
G01*
X106378781Y-122506475D01*
X106410857Y-122514509D01*
X106441991Y-122525649D01*
X106471884Y-122539787D01*
X106500247Y-122556787D01*
X106526807Y-122576485D01*
X106551308Y-122598692D01*
X106573515Y-122623193D01*
X106593213Y-122649753D01*
X106610213Y-122678116D01*
X106624351Y-122708009D01*
X106635491Y-122739143D01*
X106643525Y-122771219D01*
X106648377Y-122803929D01*
X106650000Y-122836956D01*
X106650000Y-123963044D01*
X106648377Y-123996071D01*
X106643525Y-124028781D01*
X106635491Y-124060857D01*
X106624351Y-124091991D01*
X106610213Y-124121884D01*
X106593213Y-124150247D01*
X106573515Y-124176807D01*
X106551308Y-124201308D01*
X106526807Y-124223515D01*
X106500247Y-124243213D01*
X106471884Y-124260213D01*
X106441991Y-124274351D01*
X106410857Y-124285491D01*
X106378781Y-124293525D01*
X106346071Y-124298377D01*
X106313044Y-124300000D01*
X105436956Y-124300000D01*
X105403929Y-124298377D01*
X105371219Y-124293525D01*
X105339143Y-124285491D01*
X105308009Y-124274351D01*
X105278116Y-124260213D01*
X105249753Y-124243213D01*
X105223193Y-124223515D01*
X105198692Y-124201308D01*
X105176485Y-124176807D01*
X105156787Y-124150247D01*
X105139787Y-124121884D01*
X105125649Y-124091991D01*
X105114509Y-124060857D01*
X105106475Y-124028781D01*
X105101623Y-123996071D01*
X105100000Y-123963044D01*
X105100000Y-122836956D01*
X105101623Y-122803929D01*
X105106475Y-122771219D01*
X105114509Y-122739143D01*
X105125649Y-122708009D01*
X105139787Y-122678116D01*
X105156787Y-122649753D01*
X105176485Y-122623193D01*
X105198692Y-122598692D01*
X105223193Y-122576485D01*
X105249753Y-122556787D01*
X105278116Y-122539787D01*
X105308009Y-122525649D01*
X105339143Y-122514509D01*
X105371219Y-122506475D01*
X105403929Y-122501623D01*
X105436956Y-122500000D01*
X106313044Y-122500000D01*
X106346071Y-122501623D01*
G37*
G36*
X108396071Y-122501623D02*
G01*
X108428781Y-122506475D01*
X108460857Y-122514509D01*
X108491991Y-122525649D01*
X108521884Y-122539787D01*
X108550247Y-122556787D01*
X108576807Y-122576485D01*
X108601308Y-122598692D01*
X108623515Y-122623193D01*
X108643213Y-122649753D01*
X108660213Y-122678116D01*
X108674351Y-122708009D01*
X108685491Y-122739143D01*
X108693525Y-122771219D01*
X108698377Y-122803929D01*
X108700000Y-122836956D01*
X108700000Y-123963044D01*
X108698377Y-123996071D01*
X108693525Y-124028781D01*
X108685491Y-124060857D01*
X108674351Y-124091991D01*
X108660213Y-124121884D01*
X108643213Y-124150247D01*
X108623515Y-124176807D01*
X108601308Y-124201308D01*
X108576807Y-124223515D01*
X108550247Y-124243213D01*
X108521884Y-124260213D01*
X108491991Y-124274351D01*
X108460857Y-124285491D01*
X108428781Y-124293525D01*
X108396071Y-124298377D01*
X108363044Y-124300000D01*
X107486956Y-124300000D01*
X107453929Y-124298377D01*
X107421219Y-124293525D01*
X107389143Y-124285491D01*
X107358009Y-124274351D01*
X107328116Y-124260213D01*
X107299753Y-124243213D01*
X107273193Y-124223515D01*
X107248692Y-124201308D01*
X107226485Y-124176807D01*
X107206787Y-124150247D01*
X107189787Y-124121884D01*
X107175649Y-124091991D01*
X107164509Y-124060857D01*
X107156475Y-124028781D01*
X107151623Y-123996071D01*
X107150000Y-123963044D01*
X107150000Y-122836956D01*
X107151623Y-122803929D01*
X107156475Y-122771219D01*
X107164509Y-122739143D01*
X107175649Y-122708009D01*
X107189787Y-122678116D01*
X107206787Y-122649753D01*
X107226485Y-122623193D01*
X107248692Y-122598692D01*
X107273193Y-122576485D01*
X107299753Y-122556787D01*
X107328116Y-122539787D01*
X107358009Y-122525649D01*
X107389143Y-122514509D01*
X107421219Y-122506475D01*
X107453929Y-122501623D01*
X107486956Y-122500000D01*
X108363044Y-122500000D01*
X108396071Y-122501623D01*
G37*
G36*
X100846071Y-122501623D02*
G01*
X100878781Y-122506475D01*
X100910857Y-122514509D01*
X100941991Y-122525649D01*
X100971884Y-122539787D01*
X101000247Y-122556787D01*
X101026807Y-122576485D01*
X101051308Y-122598692D01*
X101073515Y-122623193D01*
X101093213Y-122649753D01*
X101110213Y-122678116D01*
X101124351Y-122708009D01*
X101135491Y-122739143D01*
X101143525Y-122771219D01*
X101148377Y-122803929D01*
X101150000Y-122836956D01*
X101150000Y-123963044D01*
X101148377Y-123996071D01*
X101143525Y-124028781D01*
X101135491Y-124060857D01*
X101124351Y-124091991D01*
X101110213Y-124121884D01*
X101093213Y-124150247D01*
X101073515Y-124176807D01*
X101051308Y-124201308D01*
X101026807Y-124223515D01*
X101000247Y-124243213D01*
X100971884Y-124260213D01*
X100941991Y-124274351D01*
X100910857Y-124285491D01*
X100878781Y-124293525D01*
X100846071Y-124298377D01*
X100813044Y-124300000D01*
X99936956Y-124300000D01*
X99903929Y-124298377D01*
X99871219Y-124293525D01*
X99839143Y-124285491D01*
X99808009Y-124274351D01*
X99778116Y-124260213D01*
X99749753Y-124243213D01*
X99723193Y-124223515D01*
X99698692Y-124201308D01*
X99676485Y-124176807D01*
X99656787Y-124150247D01*
X99639787Y-124121884D01*
X99625649Y-124091991D01*
X99614509Y-124060857D01*
X99606475Y-124028781D01*
X99601623Y-123996071D01*
X99600000Y-123963044D01*
X99600000Y-122836956D01*
X99601623Y-122803929D01*
X99606475Y-122771219D01*
X99614509Y-122739143D01*
X99625649Y-122708009D01*
X99639787Y-122678116D01*
X99656787Y-122649753D01*
X99676485Y-122623193D01*
X99698692Y-122598692D01*
X99723193Y-122576485D01*
X99749753Y-122556787D01*
X99778116Y-122539787D01*
X99808009Y-122525649D01*
X99839143Y-122514509D01*
X99871219Y-122506475D01*
X99903929Y-122501623D01*
X99936956Y-122500000D01*
X100813044Y-122500000D01*
X100846071Y-122501623D01*
G37*
G36*
X102896071Y-122501623D02*
G01*
X102928781Y-122506475D01*
X102960857Y-122514509D01*
X102991991Y-122525649D01*
X103021884Y-122539787D01*
X103050247Y-122556787D01*
X103076807Y-122576485D01*
X103101308Y-122598692D01*
X103123515Y-122623193D01*
X103143213Y-122649753D01*
X103160213Y-122678116D01*
X103174351Y-122708009D01*
X103185491Y-122739143D01*
X103193525Y-122771219D01*
X103198377Y-122803929D01*
X103200000Y-122836956D01*
X103200000Y-123963044D01*
X103198377Y-123996071D01*
X103193525Y-124028781D01*
X103185491Y-124060857D01*
X103174351Y-124091991D01*
X103160213Y-124121884D01*
X103143213Y-124150247D01*
X103123515Y-124176807D01*
X103101308Y-124201308D01*
X103076807Y-124223515D01*
X103050247Y-124243213D01*
X103021884Y-124260213D01*
X102991991Y-124274351D01*
X102960857Y-124285491D01*
X102928781Y-124293525D01*
X102896071Y-124298377D01*
X102863044Y-124300000D01*
X101986956Y-124300000D01*
X101953929Y-124298377D01*
X101921219Y-124293525D01*
X101889143Y-124285491D01*
X101858009Y-124274351D01*
X101828116Y-124260213D01*
X101799753Y-124243213D01*
X101773193Y-124223515D01*
X101748692Y-124201308D01*
X101726485Y-124176807D01*
X101706787Y-124150247D01*
X101689787Y-124121884D01*
X101675649Y-124091991D01*
X101664509Y-124060857D01*
X101656475Y-124028781D01*
X101651623Y-123996071D01*
X101650000Y-123963044D01*
X101650000Y-122836956D01*
X101651623Y-122803929D01*
X101656475Y-122771219D01*
X101664509Y-122739143D01*
X101675649Y-122708009D01*
X101689787Y-122678116D01*
X101706787Y-122649753D01*
X101726485Y-122623193D01*
X101748692Y-122598692D01*
X101773193Y-122576485D01*
X101799753Y-122556787D01*
X101828116Y-122539787D01*
X101858009Y-122525649D01*
X101889143Y-122514509D01*
X101921219Y-122506475D01*
X101953929Y-122501623D01*
X101986956Y-122500000D01*
X102863044Y-122500000D01*
X102896071Y-122501623D01*
G37*
G36*
X95346071Y-122501623D02*
G01*
X95378781Y-122506475D01*
X95410857Y-122514509D01*
X95441991Y-122525649D01*
X95471884Y-122539787D01*
X95500247Y-122556787D01*
X95526807Y-122576485D01*
X95551308Y-122598692D01*
X95573515Y-122623193D01*
X95593213Y-122649753D01*
X95610213Y-122678116D01*
X95624351Y-122708009D01*
X95635491Y-122739143D01*
X95643525Y-122771219D01*
X95648377Y-122803929D01*
X95650000Y-122836956D01*
X95650000Y-123963044D01*
X95648377Y-123996071D01*
X95643525Y-124028781D01*
X95635491Y-124060857D01*
X95624351Y-124091991D01*
X95610213Y-124121884D01*
X95593213Y-124150247D01*
X95573515Y-124176807D01*
X95551308Y-124201308D01*
X95526807Y-124223515D01*
X95500247Y-124243213D01*
X95471884Y-124260213D01*
X95441991Y-124274351D01*
X95410857Y-124285491D01*
X95378781Y-124293525D01*
X95346071Y-124298377D01*
X95313044Y-124300000D01*
X94436956Y-124300000D01*
X94403929Y-124298377D01*
X94371219Y-124293525D01*
X94339143Y-124285491D01*
X94308009Y-124274351D01*
X94278116Y-124260213D01*
X94249753Y-124243213D01*
X94223193Y-124223515D01*
X94198692Y-124201308D01*
X94176485Y-124176807D01*
X94156787Y-124150247D01*
X94139787Y-124121884D01*
X94125649Y-124091991D01*
X94114509Y-124060857D01*
X94106475Y-124028781D01*
X94101623Y-123996071D01*
X94100000Y-123963044D01*
X94100000Y-122836956D01*
X94101623Y-122803929D01*
X94106475Y-122771219D01*
X94114509Y-122739143D01*
X94125649Y-122708009D01*
X94139787Y-122678116D01*
X94156787Y-122649753D01*
X94176485Y-122623193D01*
X94198692Y-122598692D01*
X94223193Y-122576485D01*
X94249753Y-122556787D01*
X94278116Y-122539787D01*
X94308009Y-122525649D01*
X94339143Y-122514509D01*
X94371219Y-122506475D01*
X94403929Y-122501623D01*
X94436956Y-122500000D01*
X95313044Y-122500000D01*
X95346071Y-122501623D01*
G37*
G36*
X97396071Y-122501623D02*
G01*
X97428781Y-122506475D01*
X97460857Y-122514509D01*
X97491991Y-122525649D01*
X97521884Y-122539787D01*
X97550247Y-122556787D01*
X97576807Y-122576485D01*
X97601308Y-122598692D01*
X97623515Y-122623193D01*
X97643213Y-122649753D01*
X97660213Y-122678116D01*
X97674351Y-122708009D01*
X97685491Y-122739143D01*
X97693525Y-122771219D01*
X97698377Y-122803929D01*
X97700000Y-122836956D01*
X97700000Y-123963044D01*
X97698377Y-123996071D01*
X97693525Y-124028781D01*
X97685491Y-124060857D01*
X97674351Y-124091991D01*
X97660213Y-124121884D01*
X97643213Y-124150247D01*
X97623515Y-124176807D01*
X97601308Y-124201308D01*
X97576807Y-124223515D01*
X97550247Y-124243213D01*
X97521884Y-124260213D01*
X97491991Y-124274351D01*
X97460857Y-124285491D01*
X97428781Y-124293525D01*
X97396071Y-124298377D01*
X97363044Y-124300000D01*
X96486956Y-124300000D01*
X96453929Y-124298377D01*
X96421219Y-124293525D01*
X96389143Y-124285491D01*
X96358009Y-124274351D01*
X96328116Y-124260213D01*
X96299753Y-124243213D01*
X96273193Y-124223515D01*
X96248692Y-124201308D01*
X96226485Y-124176807D01*
X96206787Y-124150247D01*
X96189787Y-124121884D01*
X96175649Y-124091991D01*
X96164509Y-124060857D01*
X96156475Y-124028781D01*
X96151623Y-123996071D01*
X96150000Y-123963044D01*
X96150000Y-122836956D01*
X96151623Y-122803929D01*
X96156475Y-122771219D01*
X96164509Y-122739143D01*
X96175649Y-122708009D01*
X96189787Y-122678116D01*
X96206787Y-122649753D01*
X96226485Y-122623193D01*
X96248692Y-122598692D01*
X96273193Y-122576485D01*
X96299753Y-122556787D01*
X96328116Y-122539787D01*
X96358009Y-122525649D01*
X96389143Y-122514509D01*
X96421219Y-122506475D01*
X96453929Y-122501623D01*
X96486956Y-122500000D01*
X97363044Y-122500000D01*
X97396071Y-122501623D01*
G37*
G36*
X119496071Y-118101623D02*
G01*
X119528781Y-118106475D01*
X119560857Y-118114509D01*
X119591991Y-118125649D01*
X119621884Y-118139787D01*
X119650247Y-118156787D01*
X119676807Y-118176485D01*
X119701308Y-118198692D01*
X119723515Y-118223193D01*
X119743213Y-118249753D01*
X119760213Y-118278116D01*
X119774351Y-118308009D01*
X119785491Y-118339143D01*
X119793525Y-118371219D01*
X119798377Y-118403929D01*
X119800000Y-118436956D01*
X119800000Y-119313044D01*
X119798377Y-119346071D01*
X119793525Y-119378781D01*
X119785491Y-119410857D01*
X119774351Y-119441991D01*
X119760213Y-119471884D01*
X119743213Y-119500247D01*
X119723515Y-119526807D01*
X119701308Y-119551308D01*
X119676807Y-119573515D01*
X119650247Y-119593213D01*
X119621884Y-119610213D01*
X119591991Y-119624351D01*
X119560857Y-119635491D01*
X119528781Y-119643525D01*
X119496071Y-119648377D01*
X119463044Y-119650000D01*
X118336956Y-119650000D01*
X118303929Y-119648377D01*
X118271219Y-119643525D01*
X118239143Y-119635491D01*
X118208009Y-119624351D01*
X118178116Y-119610213D01*
X118149753Y-119593213D01*
X118123193Y-119573515D01*
X118098692Y-119551308D01*
X118076485Y-119526807D01*
X118056787Y-119500247D01*
X118039787Y-119471884D01*
X118025649Y-119441991D01*
X118014509Y-119410857D01*
X118006475Y-119378781D01*
X118001623Y-119346071D01*
X118000000Y-119313044D01*
X118000000Y-118436956D01*
X118001623Y-118403929D01*
X118006475Y-118371219D01*
X118014509Y-118339143D01*
X118025649Y-118308009D01*
X118039787Y-118278116D01*
X118056787Y-118249753D01*
X118076485Y-118223193D01*
X118098692Y-118198692D01*
X118123193Y-118176485D01*
X118149753Y-118156787D01*
X118178116Y-118139787D01*
X118208009Y-118125649D01*
X118239143Y-118114509D01*
X118271219Y-118106475D01*
X118303929Y-118101623D01*
X118336956Y-118100000D01*
X119463044Y-118100000D01*
X119496071Y-118101623D01*
G37*
G36*
X119496071Y-120151623D02*
G01*
X119528781Y-120156475D01*
X119560857Y-120164509D01*
X119591991Y-120175649D01*
X119621884Y-120189787D01*
X119650247Y-120206787D01*
X119676807Y-120226485D01*
X119701308Y-120248692D01*
X119723515Y-120273193D01*
X119743213Y-120299753D01*
X119760213Y-120328116D01*
X119774351Y-120358009D01*
X119785491Y-120389143D01*
X119793525Y-120421219D01*
X119798377Y-120453929D01*
X119800000Y-120486956D01*
X119800000Y-121363044D01*
X119798377Y-121396071D01*
X119793525Y-121428781D01*
X119785491Y-121460857D01*
X119774351Y-121491991D01*
X119760213Y-121521884D01*
X119743213Y-121550247D01*
X119723515Y-121576807D01*
X119701308Y-121601308D01*
X119676807Y-121623515D01*
X119650247Y-121643213D01*
X119621884Y-121660213D01*
X119591991Y-121674351D01*
X119560857Y-121685491D01*
X119528781Y-121693525D01*
X119496071Y-121698377D01*
X119463044Y-121700000D01*
X118336956Y-121700000D01*
X118303929Y-121698377D01*
X118271219Y-121693525D01*
X118239143Y-121685491D01*
X118208009Y-121674351D01*
X118178116Y-121660213D01*
X118149753Y-121643213D01*
X118123193Y-121623515D01*
X118098692Y-121601308D01*
X118076485Y-121576807D01*
X118056787Y-121550247D01*
X118039787Y-121521884D01*
X118025649Y-121491991D01*
X118014509Y-121460857D01*
X118006475Y-121428781D01*
X118001623Y-121396071D01*
X118000000Y-121363044D01*
X118000000Y-120486956D01*
X118001623Y-120453929D01*
X118006475Y-120421219D01*
X118014509Y-120389143D01*
X118025649Y-120358009D01*
X118039787Y-120328116D01*
X118056787Y-120299753D01*
X118076485Y-120273193D01*
X118098692Y-120248692D01*
X118123193Y-120226485D01*
X118149753Y-120206787D01*
X118178116Y-120189787D01*
X118208009Y-120175649D01*
X118239143Y-120164509D01*
X118271219Y-120156475D01*
X118303929Y-120151623D01*
X118336956Y-120150000D01*
X119463044Y-120150000D01*
X119496071Y-120151623D01*
G37*
G36*
X113996071Y-118101623D02*
G01*
X114028781Y-118106475D01*
X114060857Y-118114509D01*
X114091991Y-118125649D01*
X114121884Y-118139787D01*
X114150247Y-118156787D01*
X114176807Y-118176485D01*
X114201308Y-118198692D01*
X114223515Y-118223193D01*
X114243213Y-118249753D01*
X114260213Y-118278116D01*
X114274351Y-118308009D01*
X114285491Y-118339143D01*
X114293525Y-118371219D01*
X114298377Y-118403929D01*
X114300000Y-118436956D01*
X114300000Y-119313044D01*
X114298377Y-119346071D01*
X114293525Y-119378781D01*
X114285491Y-119410857D01*
X114274351Y-119441991D01*
X114260213Y-119471884D01*
X114243213Y-119500247D01*
X114223515Y-119526807D01*
X114201308Y-119551308D01*
X114176807Y-119573515D01*
X114150247Y-119593213D01*
X114121884Y-119610213D01*
X114091991Y-119624351D01*
X114060857Y-119635491D01*
X114028781Y-119643525D01*
X113996071Y-119648377D01*
X113963044Y-119650000D01*
X112836956Y-119650000D01*
X112803929Y-119648377D01*
X112771219Y-119643525D01*
X112739143Y-119635491D01*
X112708009Y-119624351D01*
X112678116Y-119610213D01*
X112649753Y-119593213D01*
X112623193Y-119573515D01*
X112598692Y-119551308D01*
X112576485Y-119526807D01*
X112556787Y-119500247D01*
X112539787Y-119471884D01*
X112525649Y-119441991D01*
X112514509Y-119410857D01*
X112506475Y-119378781D01*
X112501623Y-119346071D01*
X112500000Y-119313044D01*
X112500000Y-118436956D01*
X112501623Y-118403929D01*
X112506475Y-118371219D01*
X112514509Y-118339143D01*
X112525649Y-118308009D01*
X112539787Y-118278116D01*
X112556787Y-118249753D01*
X112576485Y-118223193D01*
X112598692Y-118198692D01*
X112623193Y-118176485D01*
X112649753Y-118156787D01*
X112678116Y-118139787D01*
X112708009Y-118125649D01*
X112739143Y-118114509D01*
X112771219Y-118106475D01*
X112803929Y-118101623D01*
X112836956Y-118100000D01*
X113963044Y-118100000D01*
X113996071Y-118101623D01*
G37*
G36*
X113996071Y-120151623D02*
G01*
X114028781Y-120156475D01*
X114060857Y-120164509D01*
X114091991Y-120175649D01*
X114121884Y-120189787D01*
X114150247Y-120206787D01*
X114176807Y-120226485D01*
X114201308Y-120248692D01*
X114223515Y-120273193D01*
X114243213Y-120299753D01*
X114260213Y-120328116D01*
X114274351Y-120358009D01*
X114285491Y-120389143D01*
X114293525Y-120421219D01*
X114298377Y-120453929D01*
X114300000Y-120486956D01*
X114300000Y-121363044D01*
X114298377Y-121396071D01*
X114293525Y-121428781D01*
X114285491Y-121460857D01*
X114274351Y-121491991D01*
X114260213Y-121521884D01*
X114243213Y-121550247D01*
X114223515Y-121576807D01*
X114201308Y-121601308D01*
X114176807Y-121623515D01*
X114150247Y-121643213D01*
X114121884Y-121660213D01*
X114091991Y-121674351D01*
X114060857Y-121685491D01*
X114028781Y-121693525D01*
X113996071Y-121698377D01*
X113963044Y-121700000D01*
X112836956Y-121700000D01*
X112803929Y-121698377D01*
X112771219Y-121693525D01*
X112739143Y-121685491D01*
X112708009Y-121674351D01*
X112678116Y-121660213D01*
X112649753Y-121643213D01*
X112623193Y-121623515D01*
X112598692Y-121601308D01*
X112576485Y-121576807D01*
X112556787Y-121550247D01*
X112539787Y-121521884D01*
X112525649Y-121491991D01*
X112514509Y-121460857D01*
X112506475Y-121428781D01*
X112501623Y-121396071D01*
X112500000Y-121363044D01*
X112500000Y-120486956D01*
X112501623Y-120453929D01*
X112506475Y-120421219D01*
X112514509Y-120389143D01*
X112525649Y-120358009D01*
X112539787Y-120328116D01*
X112556787Y-120299753D01*
X112576485Y-120273193D01*
X112598692Y-120248692D01*
X112623193Y-120226485D01*
X112649753Y-120206787D01*
X112678116Y-120189787D01*
X112708009Y-120175649D01*
X112739143Y-120164509D01*
X112771219Y-120156475D01*
X112803929Y-120151623D01*
X112836956Y-120150000D01*
X113963044Y-120150000D01*
X113996071Y-120151623D01*
G37*
G36*
X108496071Y-118101623D02*
G01*
X108528781Y-118106475D01*
X108560857Y-118114509D01*
X108591991Y-118125649D01*
X108621884Y-118139787D01*
X108650247Y-118156787D01*
X108676807Y-118176485D01*
X108701308Y-118198692D01*
X108723515Y-118223193D01*
X108743213Y-118249753D01*
X108760213Y-118278116D01*
X108774351Y-118308009D01*
X108785491Y-118339143D01*
X108793525Y-118371219D01*
X108798377Y-118403929D01*
X108800000Y-118436956D01*
X108800000Y-119313044D01*
X108798377Y-119346071D01*
X108793525Y-119378781D01*
X108785491Y-119410857D01*
X108774351Y-119441991D01*
X108760213Y-119471884D01*
X108743213Y-119500247D01*
X108723515Y-119526807D01*
X108701308Y-119551308D01*
X108676807Y-119573515D01*
X108650247Y-119593213D01*
X108621884Y-119610213D01*
X108591991Y-119624351D01*
X108560857Y-119635491D01*
X108528781Y-119643525D01*
X108496071Y-119648377D01*
X108463044Y-119650000D01*
X107336956Y-119650000D01*
X107303929Y-119648377D01*
X107271219Y-119643525D01*
X107239143Y-119635491D01*
X107208009Y-119624351D01*
X107178116Y-119610213D01*
X107149753Y-119593213D01*
X107123193Y-119573515D01*
X107098692Y-119551308D01*
X107076485Y-119526807D01*
X107056787Y-119500247D01*
X107039787Y-119471884D01*
X107025649Y-119441991D01*
X107014509Y-119410857D01*
X107006475Y-119378781D01*
X107001623Y-119346071D01*
X107000000Y-119313044D01*
X107000000Y-118436956D01*
X107001623Y-118403929D01*
X107006475Y-118371219D01*
X107014509Y-118339143D01*
X107025649Y-118308009D01*
X107039787Y-118278116D01*
X107056787Y-118249753D01*
X107076485Y-118223193D01*
X107098692Y-118198692D01*
X107123193Y-118176485D01*
X107149753Y-118156787D01*
X107178116Y-118139787D01*
X107208009Y-118125649D01*
X107239143Y-118114509D01*
X107271219Y-118106475D01*
X107303929Y-118101623D01*
X107336956Y-118100000D01*
X108463044Y-118100000D01*
X108496071Y-118101623D01*
G37*
G36*
X108496071Y-120151623D02*
G01*
X108528781Y-120156475D01*
X108560857Y-120164509D01*
X108591991Y-120175649D01*
X108621884Y-120189787D01*
X108650247Y-120206787D01*
X108676807Y-120226485D01*
X108701308Y-120248692D01*
X108723515Y-120273193D01*
X108743213Y-120299753D01*
X108760213Y-120328116D01*
X108774351Y-120358009D01*
X108785491Y-120389143D01*
X108793525Y-120421219D01*
X108798377Y-120453929D01*
X108800000Y-120486956D01*
X108800000Y-121363044D01*
X108798377Y-121396071D01*
X108793525Y-121428781D01*
X108785491Y-121460857D01*
X108774351Y-121491991D01*
X108760213Y-121521884D01*
X108743213Y-121550247D01*
X108723515Y-121576807D01*
X108701308Y-121601308D01*
X108676807Y-121623515D01*
X108650247Y-121643213D01*
X108621884Y-121660213D01*
X108591991Y-121674351D01*
X108560857Y-121685491D01*
X108528781Y-121693525D01*
X108496071Y-121698377D01*
X108463044Y-121700000D01*
X107336956Y-121700000D01*
X107303929Y-121698377D01*
X107271219Y-121693525D01*
X107239143Y-121685491D01*
X107208009Y-121674351D01*
X107178116Y-121660213D01*
X107149753Y-121643213D01*
X107123193Y-121623515D01*
X107098692Y-121601308D01*
X107076485Y-121576807D01*
X107056787Y-121550247D01*
X107039787Y-121521884D01*
X107025649Y-121491991D01*
X107014509Y-121460857D01*
X107006475Y-121428781D01*
X107001623Y-121396071D01*
X107000000Y-121363044D01*
X107000000Y-120486956D01*
X107001623Y-120453929D01*
X107006475Y-120421219D01*
X107014509Y-120389143D01*
X107025649Y-120358009D01*
X107039787Y-120328116D01*
X107056787Y-120299753D01*
X107076485Y-120273193D01*
X107098692Y-120248692D01*
X107123193Y-120226485D01*
X107149753Y-120206787D01*
X107178116Y-120189787D01*
X107208009Y-120175649D01*
X107239143Y-120164509D01*
X107271219Y-120156475D01*
X107303929Y-120151623D01*
X107336956Y-120150000D01*
X108463044Y-120150000D01*
X108496071Y-120151623D01*
G37*
G36*
X102996071Y-118201623D02*
G01*
X103028781Y-118206475D01*
X103060857Y-118214509D01*
X103091991Y-118225649D01*
X103121884Y-118239787D01*
X103150247Y-118256787D01*
X103176807Y-118276485D01*
X103201308Y-118298692D01*
X103223515Y-118323193D01*
X103243213Y-118349753D01*
X103260213Y-118378116D01*
X103274351Y-118408009D01*
X103285491Y-118439143D01*
X103293525Y-118471219D01*
X103298377Y-118503929D01*
X103300000Y-118536956D01*
X103300000Y-119413044D01*
X103298377Y-119446071D01*
X103293525Y-119478781D01*
X103285491Y-119510857D01*
X103274351Y-119541991D01*
X103260213Y-119571884D01*
X103243213Y-119600247D01*
X103223515Y-119626807D01*
X103201308Y-119651308D01*
X103176807Y-119673515D01*
X103150247Y-119693213D01*
X103121884Y-119710213D01*
X103091991Y-119724351D01*
X103060857Y-119735491D01*
X103028781Y-119743525D01*
X102996071Y-119748377D01*
X102963044Y-119750000D01*
X101836956Y-119750000D01*
X101803929Y-119748377D01*
X101771219Y-119743525D01*
X101739143Y-119735491D01*
X101708009Y-119724351D01*
X101678116Y-119710213D01*
X101649753Y-119693213D01*
X101623193Y-119673515D01*
X101598692Y-119651308D01*
X101576485Y-119626807D01*
X101556787Y-119600247D01*
X101539787Y-119571884D01*
X101525649Y-119541991D01*
X101514509Y-119510857D01*
X101506475Y-119478781D01*
X101501623Y-119446071D01*
X101500000Y-119413044D01*
X101500000Y-118536956D01*
X101501623Y-118503929D01*
X101506475Y-118471219D01*
X101514509Y-118439143D01*
X101525649Y-118408009D01*
X101539787Y-118378116D01*
X101556787Y-118349753D01*
X101576485Y-118323193D01*
X101598692Y-118298692D01*
X101623193Y-118276485D01*
X101649753Y-118256787D01*
X101678116Y-118239787D01*
X101708009Y-118225649D01*
X101739143Y-118214509D01*
X101771219Y-118206475D01*
X101803929Y-118201623D01*
X101836956Y-118200000D01*
X102963044Y-118200000D01*
X102996071Y-118201623D01*
G37*
G36*
X102996071Y-120251623D02*
G01*
X103028781Y-120256475D01*
X103060857Y-120264509D01*
X103091991Y-120275649D01*
X103121884Y-120289787D01*
X103150247Y-120306787D01*
X103176807Y-120326485D01*
X103201308Y-120348692D01*
X103223515Y-120373193D01*
X103243213Y-120399753D01*
X103260213Y-120428116D01*
X103274351Y-120458009D01*
X103285491Y-120489143D01*
X103293525Y-120521219D01*
X103298377Y-120553929D01*
X103300000Y-120586956D01*
X103300000Y-121463044D01*
X103298377Y-121496071D01*
X103293525Y-121528781D01*
X103285491Y-121560857D01*
X103274351Y-121591991D01*
X103260213Y-121621884D01*
X103243213Y-121650247D01*
X103223515Y-121676807D01*
X103201308Y-121701308D01*
X103176807Y-121723515D01*
X103150247Y-121743213D01*
X103121884Y-121760213D01*
X103091991Y-121774351D01*
X103060857Y-121785491D01*
X103028781Y-121793525D01*
X102996071Y-121798377D01*
X102963044Y-121800000D01*
X101836956Y-121800000D01*
X101803929Y-121798377D01*
X101771219Y-121793525D01*
X101739143Y-121785491D01*
X101708009Y-121774351D01*
X101678116Y-121760213D01*
X101649753Y-121743213D01*
X101623193Y-121723515D01*
X101598692Y-121701308D01*
X101576485Y-121676807D01*
X101556787Y-121650247D01*
X101539787Y-121621884D01*
X101525649Y-121591991D01*
X101514509Y-121560857D01*
X101506475Y-121528781D01*
X101501623Y-121496071D01*
X101500000Y-121463044D01*
X101500000Y-120586956D01*
X101501623Y-120553929D01*
X101506475Y-120521219D01*
X101514509Y-120489143D01*
X101525649Y-120458009D01*
X101539787Y-120428116D01*
X101556787Y-120399753D01*
X101576485Y-120373193D01*
X101598692Y-120348692D01*
X101623193Y-120326485D01*
X101649753Y-120306787D01*
X101678116Y-120289787D01*
X101708009Y-120275649D01*
X101739143Y-120264509D01*
X101771219Y-120256475D01*
X101803929Y-120251623D01*
X101836956Y-120250000D01*
X102963044Y-120250000D01*
X102996071Y-120251623D01*
G37*
G36*
X97496071Y-118201623D02*
G01*
X97528781Y-118206475D01*
X97560857Y-118214509D01*
X97591991Y-118225649D01*
X97621884Y-118239787D01*
X97650247Y-118256787D01*
X97676807Y-118276485D01*
X97701308Y-118298692D01*
X97723515Y-118323193D01*
X97743213Y-118349753D01*
X97760213Y-118378116D01*
X97774351Y-118408009D01*
X97785491Y-118439143D01*
X97793525Y-118471219D01*
X97798377Y-118503929D01*
X97800000Y-118536956D01*
X97800000Y-119413044D01*
X97798377Y-119446071D01*
X97793525Y-119478781D01*
X97785491Y-119510857D01*
X97774351Y-119541991D01*
X97760213Y-119571884D01*
X97743213Y-119600247D01*
X97723515Y-119626807D01*
X97701308Y-119651308D01*
X97676807Y-119673515D01*
X97650247Y-119693213D01*
X97621884Y-119710213D01*
X97591991Y-119724351D01*
X97560857Y-119735491D01*
X97528781Y-119743525D01*
X97496071Y-119748377D01*
X97463044Y-119750000D01*
X96336956Y-119750000D01*
X96303929Y-119748377D01*
X96271219Y-119743525D01*
X96239143Y-119735491D01*
X96208009Y-119724351D01*
X96178116Y-119710213D01*
X96149753Y-119693213D01*
X96123193Y-119673515D01*
X96098692Y-119651308D01*
X96076485Y-119626807D01*
X96056787Y-119600247D01*
X96039787Y-119571884D01*
X96025649Y-119541991D01*
X96014509Y-119510857D01*
X96006475Y-119478781D01*
X96001623Y-119446071D01*
X96000000Y-119413044D01*
X96000000Y-118536956D01*
X96001623Y-118503929D01*
X96006475Y-118471219D01*
X96014509Y-118439143D01*
X96025649Y-118408009D01*
X96039787Y-118378116D01*
X96056787Y-118349753D01*
X96076485Y-118323193D01*
X96098692Y-118298692D01*
X96123193Y-118276485D01*
X96149753Y-118256787D01*
X96178116Y-118239787D01*
X96208009Y-118225649D01*
X96239143Y-118214509D01*
X96271219Y-118206475D01*
X96303929Y-118201623D01*
X96336956Y-118200000D01*
X97463044Y-118200000D01*
X97496071Y-118201623D01*
G37*
G36*
X97496071Y-120251623D02*
G01*
X97528781Y-120256475D01*
X97560857Y-120264509D01*
X97591991Y-120275649D01*
X97621884Y-120289787D01*
X97650247Y-120306787D01*
X97676807Y-120326485D01*
X97701308Y-120348692D01*
X97723515Y-120373193D01*
X97743213Y-120399753D01*
X97760213Y-120428116D01*
X97774351Y-120458009D01*
X97785491Y-120489143D01*
X97793525Y-120521219D01*
X97798377Y-120553929D01*
X97800000Y-120586956D01*
X97800000Y-121463044D01*
X97798377Y-121496071D01*
X97793525Y-121528781D01*
X97785491Y-121560857D01*
X97774351Y-121591991D01*
X97760213Y-121621884D01*
X97743213Y-121650247D01*
X97723515Y-121676807D01*
X97701308Y-121701308D01*
X97676807Y-121723515D01*
X97650247Y-121743213D01*
X97621884Y-121760213D01*
X97591991Y-121774351D01*
X97560857Y-121785491D01*
X97528781Y-121793525D01*
X97496071Y-121798377D01*
X97463044Y-121800000D01*
X96336956Y-121800000D01*
X96303929Y-121798377D01*
X96271219Y-121793525D01*
X96239143Y-121785491D01*
X96208009Y-121774351D01*
X96178116Y-121760213D01*
X96149753Y-121743213D01*
X96123193Y-121723515D01*
X96098692Y-121701308D01*
X96076485Y-121676807D01*
X96056787Y-121650247D01*
X96039787Y-121621884D01*
X96025649Y-121591991D01*
X96014509Y-121560857D01*
X96006475Y-121528781D01*
X96001623Y-121496071D01*
X96000000Y-121463044D01*
X96000000Y-120586956D01*
X96001623Y-120553929D01*
X96006475Y-120521219D01*
X96014509Y-120489143D01*
X96025649Y-120458009D01*
X96039787Y-120428116D01*
X96056787Y-120399753D01*
X96076485Y-120373193D01*
X96098692Y-120348692D01*
X96123193Y-120326485D01*
X96149753Y-120306787D01*
X96178116Y-120289787D01*
X96208009Y-120275649D01*
X96239143Y-120264509D01*
X96271219Y-120256475D01*
X96303929Y-120251623D01*
X96336956Y-120250000D01*
X97463044Y-120250000D01*
X97496071Y-120251623D01*
G37*
G36*
X138496071Y-132001623D02*
G01*
X138528781Y-132006475D01*
X138560857Y-132014509D01*
X138591991Y-132025649D01*
X138621884Y-132039787D01*
X138650247Y-132056787D01*
X138676807Y-132076485D01*
X138701308Y-132098692D01*
X138723515Y-132123193D01*
X138743213Y-132149753D01*
X138760213Y-132178116D01*
X138774351Y-132208009D01*
X138785491Y-132239143D01*
X138793525Y-132271219D01*
X138798377Y-132303929D01*
X138800000Y-132336956D01*
X138800000Y-133213044D01*
X138798377Y-133246071D01*
X138793525Y-133278781D01*
X138785491Y-133310857D01*
X138774351Y-133341991D01*
X138760213Y-133371884D01*
X138743213Y-133400247D01*
X138723515Y-133426807D01*
X138701308Y-133451308D01*
X138676807Y-133473515D01*
X138650247Y-133493213D01*
X138621884Y-133510213D01*
X138591991Y-133524351D01*
X138560857Y-133535491D01*
X138528781Y-133543525D01*
X138496071Y-133548377D01*
X138463044Y-133550000D01*
X137336956Y-133550000D01*
X137303929Y-133548377D01*
X137271219Y-133543525D01*
X137239143Y-133535491D01*
X137208009Y-133524351D01*
X137178116Y-133510213D01*
X137149753Y-133493213D01*
X137123193Y-133473515D01*
X137098692Y-133451308D01*
X137076485Y-133426807D01*
X137056787Y-133400247D01*
X137039787Y-133371884D01*
X137025649Y-133341991D01*
X137014509Y-133310857D01*
X137006475Y-133278781D01*
X137001623Y-133246071D01*
X137000000Y-133213044D01*
X137000000Y-132336956D01*
X137001623Y-132303929D01*
X137006475Y-132271219D01*
X137014509Y-132239143D01*
X137025649Y-132208009D01*
X137039787Y-132178116D01*
X137056787Y-132149753D01*
X137076485Y-132123193D01*
X137098692Y-132098692D01*
X137123193Y-132076485D01*
X137149753Y-132056787D01*
X137178116Y-132039787D01*
X137208009Y-132025649D01*
X137239143Y-132014509D01*
X137271219Y-132006475D01*
X137303929Y-132001623D01*
X137336956Y-132000000D01*
X138463044Y-132000000D01*
X138496071Y-132001623D01*
G37*
G36*
X138496071Y-134051623D02*
G01*
X138528781Y-134056475D01*
X138560857Y-134064509D01*
X138591991Y-134075649D01*
X138621884Y-134089787D01*
X138650247Y-134106787D01*
X138676807Y-134126485D01*
X138701308Y-134148692D01*
X138723515Y-134173193D01*
X138743213Y-134199753D01*
X138760213Y-134228116D01*
X138774351Y-134258009D01*
X138785491Y-134289143D01*
X138793525Y-134321219D01*
X138798377Y-134353929D01*
X138800000Y-134386956D01*
X138800000Y-135263044D01*
X138798377Y-135296071D01*
X138793525Y-135328781D01*
X138785491Y-135360857D01*
X138774351Y-135391991D01*
X138760213Y-135421884D01*
X138743213Y-135450247D01*
X138723515Y-135476807D01*
X138701308Y-135501308D01*
X138676807Y-135523515D01*
X138650247Y-135543213D01*
X138621884Y-135560213D01*
X138591991Y-135574351D01*
X138560857Y-135585491D01*
X138528781Y-135593525D01*
X138496071Y-135598377D01*
X138463044Y-135600000D01*
X137336956Y-135600000D01*
X137303929Y-135598377D01*
X137271219Y-135593525D01*
X137239143Y-135585491D01*
X137208009Y-135574351D01*
X137178116Y-135560213D01*
X137149753Y-135543213D01*
X137123193Y-135523515D01*
X137098692Y-135501308D01*
X137076485Y-135476807D01*
X137056787Y-135450247D01*
X137039787Y-135421884D01*
X137025649Y-135391991D01*
X137014509Y-135360857D01*
X137006475Y-135328781D01*
X137001623Y-135296071D01*
X137000000Y-135263044D01*
X137000000Y-134386956D01*
X137001623Y-134353929D01*
X137006475Y-134321219D01*
X137014509Y-134289143D01*
X137025649Y-134258009D01*
X137039787Y-134228116D01*
X137056787Y-134199753D01*
X137076485Y-134173193D01*
X137098692Y-134148692D01*
X137123193Y-134126485D01*
X137149753Y-134106787D01*
X137178116Y-134089787D01*
X137208009Y-134075649D01*
X137239143Y-134064509D01*
X137271219Y-134056475D01*
X137303929Y-134051623D01*
X137336956Y-134050000D01*
X138463044Y-134050000D01*
X138496071Y-134051623D01*
G37*
G36*
X131046071Y-94801623D02*
G01*
X131078781Y-94806475D01*
X131110857Y-94814509D01*
X131141991Y-94825649D01*
X131171884Y-94839787D01*
X131200247Y-94856787D01*
X131226807Y-94876485D01*
X131251308Y-94898692D01*
X131273515Y-94923193D01*
X131293213Y-94949753D01*
X131310213Y-94978116D01*
X131324351Y-95008009D01*
X131335491Y-95039143D01*
X131343525Y-95071219D01*
X131348377Y-95103929D01*
X131350000Y-95136956D01*
X131350000Y-96263044D01*
X131348377Y-96296071D01*
X131343525Y-96328781D01*
X131335491Y-96360857D01*
X131324351Y-96391991D01*
X131310213Y-96421884D01*
X131293213Y-96450247D01*
X131273515Y-96476807D01*
X131251308Y-96501308D01*
X131226807Y-96523515D01*
X131200247Y-96543213D01*
X131171884Y-96560213D01*
X131141991Y-96574351D01*
X131110857Y-96585491D01*
X131078781Y-96593525D01*
X131046071Y-96598377D01*
X131013044Y-96600000D01*
X130136956Y-96600000D01*
X130103929Y-96598377D01*
X130071219Y-96593525D01*
X130039143Y-96585491D01*
X130008009Y-96574351D01*
X129978116Y-96560213D01*
X129949753Y-96543213D01*
X129923193Y-96523515D01*
X129898692Y-96501308D01*
X129876485Y-96476807D01*
X129856787Y-96450247D01*
X129839787Y-96421884D01*
X129825649Y-96391991D01*
X129814509Y-96360857D01*
X129806475Y-96328781D01*
X129801623Y-96296071D01*
X129800000Y-96263044D01*
X129800000Y-95136956D01*
X129801623Y-95103929D01*
X129806475Y-95071219D01*
X129814509Y-95039143D01*
X129825649Y-95008009D01*
X129839787Y-94978116D01*
X129856787Y-94949753D01*
X129876485Y-94923193D01*
X129898692Y-94898692D01*
X129923193Y-94876485D01*
X129949753Y-94856787D01*
X129978116Y-94839787D01*
X130008009Y-94825649D01*
X130039143Y-94814509D01*
X130071219Y-94806475D01*
X130103929Y-94801623D01*
X130136956Y-94800000D01*
X131013044Y-94800000D01*
X131046071Y-94801623D01*
G37*
G36*
X133096071Y-94801623D02*
G01*
X133128781Y-94806475D01*
X133160857Y-94814509D01*
X133191991Y-94825649D01*
X133221884Y-94839787D01*
X133250247Y-94856787D01*
X133276807Y-94876485D01*
X133301308Y-94898692D01*
X133323515Y-94923193D01*
X133343213Y-94949753D01*
X133360213Y-94978116D01*
X133374351Y-95008009D01*
X133385491Y-95039143D01*
X133393525Y-95071219D01*
X133398377Y-95103929D01*
X133400000Y-95136956D01*
X133400000Y-96263044D01*
X133398377Y-96296071D01*
X133393525Y-96328781D01*
X133385491Y-96360857D01*
X133374351Y-96391991D01*
X133360213Y-96421884D01*
X133343213Y-96450247D01*
X133323515Y-96476807D01*
X133301308Y-96501308D01*
X133276807Y-96523515D01*
X133250247Y-96543213D01*
X133221884Y-96560213D01*
X133191991Y-96574351D01*
X133160857Y-96585491D01*
X133128781Y-96593525D01*
X133096071Y-96598377D01*
X133063044Y-96600000D01*
X132186956Y-96600000D01*
X132153929Y-96598377D01*
X132121219Y-96593525D01*
X132089143Y-96585491D01*
X132058009Y-96574351D01*
X132028116Y-96560213D01*
X131999753Y-96543213D01*
X131973193Y-96523515D01*
X131948692Y-96501308D01*
X131926485Y-96476807D01*
X131906787Y-96450247D01*
X131889787Y-96421884D01*
X131875649Y-96391991D01*
X131864509Y-96360857D01*
X131856475Y-96328781D01*
X131851623Y-96296071D01*
X131850000Y-96263044D01*
X131850000Y-95136956D01*
X131851623Y-95103929D01*
X131856475Y-95071219D01*
X131864509Y-95039143D01*
X131875649Y-95008009D01*
X131889787Y-94978116D01*
X131906787Y-94949753D01*
X131926485Y-94923193D01*
X131948692Y-94898692D01*
X131973193Y-94876485D01*
X131999753Y-94856787D01*
X132028116Y-94839787D01*
X132058009Y-94825649D01*
X132089143Y-94814509D01*
X132121219Y-94806475D01*
X132153929Y-94801623D01*
X132186956Y-94800000D01*
X133063044Y-94800000D01*
X133096071Y-94801623D01*
G37*
D30*
X118000000Y-127800000D03*
X117050000Y-125800000D03*
X118950000Y-125800000D03*
X112500000Y-127800000D03*
X111550000Y-125800000D03*
X113450000Y-125800000D03*
X107000000Y-127800000D03*
X106050000Y-125800000D03*
X107950000Y-125800000D03*
X101500000Y-127800000D03*
X100550000Y-125800000D03*
X102450000Y-125800000D03*
X96000000Y-127800000D03*
X95050000Y-125800000D03*
X96950000Y-125800000D03*
D12*
G36*
X140536207Y-138726542D02*
G01*
X140567287Y-138731152D01*
X140597766Y-138738787D01*
X140627350Y-138749372D01*
X140655754Y-138762806D01*
X140682704Y-138778959D01*
X140707942Y-138797677D01*
X140731223Y-138818777D01*
X140752323Y-138842058D01*
X140771041Y-138867296D01*
X140787194Y-138894246D01*
X140800628Y-138922650D01*
X140811213Y-138952234D01*
X140818848Y-138982713D01*
X140823458Y-139013793D01*
X140825000Y-139045176D01*
X140825000Y-141454824D01*
X140823458Y-141486207D01*
X140818848Y-141517287D01*
X140811213Y-141547766D01*
X140800628Y-141577350D01*
X140787194Y-141605754D01*
X140771041Y-141632704D01*
X140752323Y-141657942D01*
X140731223Y-141681223D01*
X140707942Y-141702323D01*
X140682704Y-141721041D01*
X140655754Y-141737194D01*
X140627350Y-141750628D01*
X140597766Y-141761213D01*
X140567287Y-141768848D01*
X140536207Y-141773458D01*
X140504824Y-141775000D01*
X139320176Y-141775000D01*
X139288793Y-141773458D01*
X139257713Y-141768848D01*
X139227234Y-141761213D01*
X139197650Y-141750628D01*
X139169246Y-141737194D01*
X139142296Y-141721041D01*
X139117058Y-141702323D01*
X139093777Y-141681223D01*
X139072677Y-141657942D01*
X139053959Y-141632704D01*
X139037806Y-141605754D01*
X139024372Y-141577350D01*
X139013787Y-141547766D01*
X139006152Y-141517287D01*
X139001542Y-141486207D01*
X139000000Y-141454824D01*
X139000000Y-139045176D01*
X139001542Y-139013793D01*
X139006152Y-138982713D01*
X139013787Y-138952234D01*
X139024372Y-138922650D01*
X139037806Y-138894246D01*
X139053959Y-138867296D01*
X139072677Y-138842058D01*
X139093777Y-138818777D01*
X139117058Y-138797677D01*
X139142296Y-138778959D01*
X139169246Y-138762806D01*
X139197650Y-138749372D01*
X139227234Y-138738787D01*
X139257713Y-138731152D01*
X139288793Y-138726542D01*
X139320176Y-138725000D01*
X140504824Y-138725000D01*
X140536207Y-138726542D01*
G37*
G36*
X143511207Y-138726542D02*
G01*
X143542287Y-138731152D01*
X143572766Y-138738787D01*
X143602350Y-138749372D01*
X143630754Y-138762806D01*
X143657704Y-138778959D01*
X143682942Y-138797677D01*
X143706223Y-138818777D01*
X143727323Y-138842058D01*
X143746041Y-138867296D01*
X143762194Y-138894246D01*
X143775628Y-138922650D01*
X143786213Y-138952234D01*
X143793848Y-138982713D01*
X143798458Y-139013793D01*
X143800000Y-139045176D01*
X143800000Y-141454824D01*
X143798458Y-141486207D01*
X143793848Y-141517287D01*
X143786213Y-141547766D01*
X143775628Y-141577350D01*
X143762194Y-141605754D01*
X143746041Y-141632704D01*
X143727323Y-141657942D01*
X143706223Y-141681223D01*
X143682942Y-141702323D01*
X143657704Y-141721041D01*
X143630754Y-141737194D01*
X143602350Y-141750628D01*
X143572766Y-141761213D01*
X143542287Y-141768848D01*
X143511207Y-141773458D01*
X143479824Y-141775000D01*
X142295176Y-141775000D01*
X142263793Y-141773458D01*
X142232713Y-141768848D01*
X142202234Y-141761213D01*
X142172650Y-141750628D01*
X142144246Y-141737194D01*
X142117296Y-141721041D01*
X142092058Y-141702323D01*
X142068777Y-141681223D01*
X142047677Y-141657942D01*
X142028959Y-141632704D01*
X142012806Y-141605754D01*
X141999372Y-141577350D01*
X141988787Y-141547766D01*
X141981152Y-141517287D01*
X141976542Y-141486207D01*
X141975000Y-141454824D01*
X141975000Y-139045176D01*
X141976542Y-139013793D01*
X141981152Y-138982713D01*
X141988787Y-138952234D01*
X141999372Y-138922650D01*
X142012806Y-138894246D01*
X142028959Y-138867296D01*
X142047677Y-138842058D01*
X142068777Y-138818777D01*
X142092058Y-138797677D01*
X142117296Y-138778959D01*
X142144246Y-138762806D01*
X142172650Y-138749372D01*
X142202234Y-138738787D01*
X142232713Y-138731152D01*
X142263793Y-138726542D01*
X142295176Y-138725000D01*
X143479824Y-138725000D01*
X143511207Y-138726542D01*
G37*
G36*
X140786207Y-130526542D02*
G01*
X140817287Y-130531152D01*
X140847766Y-130538787D01*
X140877350Y-130549372D01*
X140905754Y-130562806D01*
X140932704Y-130578959D01*
X140957942Y-130597677D01*
X140981223Y-130618777D01*
X141002323Y-130642058D01*
X141021041Y-130667296D01*
X141037194Y-130694246D01*
X141050628Y-130722650D01*
X141061213Y-130752234D01*
X141068848Y-130782713D01*
X141073458Y-130813793D01*
X141075000Y-130845176D01*
X141075000Y-133254824D01*
X141073458Y-133286207D01*
X141068848Y-133317287D01*
X141061213Y-133347766D01*
X141050628Y-133377350D01*
X141037194Y-133405754D01*
X141021041Y-133432704D01*
X141002323Y-133457942D01*
X140981223Y-133481223D01*
X140957942Y-133502323D01*
X140932704Y-133521041D01*
X140905754Y-133537194D01*
X140877350Y-133550628D01*
X140847766Y-133561213D01*
X140817287Y-133568848D01*
X140786207Y-133573458D01*
X140754824Y-133575000D01*
X139570176Y-133575000D01*
X139538793Y-133573458D01*
X139507713Y-133568848D01*
X139477234Y-133561213D01*
X139447650Y-133550628D01*
X139419246Y-133537194D01*
X139392296Y-133521041D01*
X139367058Y-133502323D01*
X139343777Y-133481223D01*
X139322677Y-133457942D01*
X139303959Y-133432704D01*
X139287806Y-133405754D01*
X139274372Y-133377350D01*
X139263787Y-133347766D01*
X139256152Y-133317287D01*
X139251542Y-133286207D01*
X139250000Y-133254824D01*
X139250000Y-130845176D01*
X139251542Y-130813793D01*
X139256152Y-130782713D01*
X139263787Y-130752234D01*
X139274372Y-130722650D01*
X139287806Y-130694246D01*
X139303959Y-130667296D01*
X139322677Y-130642058D01*
X139343777Y-130618777D01*
X139367058Y-130597677D01*
X139392296Y-130578959D01*
X139419246Y-130562806D01*
X139447650Y-130549372D01*
X139477234Y-130538787D01*
X139507713Y-130531152D01*
X139538793Y-130526542D01*
X139570176Y-130525000D01*
X140754824Y-130525000D01*
X140786207Y-130526542D01*
G37*
G36*
X143761207Y-130526542D02*
G01*
X143792287Y-130531152D01*
X143822766Y-130538787D01*
X143852350Y-130549372D01*
X143880754Y-130562806D01*
X143907704Y-130578959D01*
X143932942Y-130597677D01*
X143956223Y-130618777D01*
X143977323Y-130642058D01*
X143996041Y-130667296D01*
X144012194Y-130694246D01*
X144025628Y-130722650D01*
X144036213Y-130752234D01*
X144043848Y-130782713D01*
X144048458Y-130813793D01*
X144050000Y-130845176D01*
X144050000Y-133254824D01*
X144048458Y-133286207D01*
X144043848Y-133317287D01*
X144036213Y-133347766D01*
X144025628Y-133377350D01*
X144012194Y-133405754D01*
X143996041Y-133432704D01*
X143977323Y-133457942D01*
X143956223Y-133481223D01*
X143932942Y-133502323D01*
X143907704Y-133521041D01*
X143880754Y-133537194D01*
X143852350Y-133550628D01*
X143822766Y-133561213D01*
X143792287Y-133568848D01*
X143761207Y-133573458D01*
X143729824Y-133575000D01*
X142545176Y-133575000D01*
X142513793Y-133573458D01*
X142482713Y-133568848D01*
X142452234Y-133561213D01*
X142422650Y-133550628D01*
X142394246Y-133537194D01*
X142367296Y-133521041D01*
X142342058Y-133502323D01*
X142318777Y-133481223D01*
X142297677Y-133457942D01*
X142278959Y-133432704D01*
X142262806Y-133405754D01*
X142249372Y-133377350D01*
X142238787Y-133347766D01*
X142231152Y-133317287D01*
X142226542Y-133286207D01*
X142225000Y-133254824D01*
X142225000Y-130845176D01*
X142226542Y-130813793D01*
X142231152Y-130782713D01*
X142238787Y-130752234D01*
X142249372Y-130722650D01*
X142262806Y-130694246D01*
X142278959Y-130667296D01*
X142297677Y-130642058D01*
X142318777Y-130618777D01*
X142342058Y-130597677D01*
X142367296Y-130578959D01*
X142394246Y-130562806D01*
X142422650Y-130549372D01*
X142452234Y-130538787D01*
X142482713Y-130531152D01*
X142513793Y-130526542D01*
X142545176Y-130525000D01*
X143729824Y-130525000D01*
X143761207Y-130526542D01*
G37*
G36*
X133096071Y-96951623D02*
G01*
X133128781Y-96956475D01*
X133160857Y-96964509D01*
X133191991Y-96975649D01*
X133221884Y-96989787D01*
X133250247Y-97006787D01*
X133276807Y-97026485D01*
X133301308Y-97048692D01*
X133323515Y-97073193D01*
X133343213Y-97099753D01*
X133360213Y-97128116D01*
X133374351Y-97158009D01*
X133385491Y-97189143D01*
X133393525Y-97221219D01*
X133398377Y-97253929D01*
X133400000Y-97286956D01*
X133400000Y-98413044D01*
X133398377Y-98446071D01*
X133393525Y-98478781D01*
X133385491Y-98510857D01*
X133374351Y-98541991D01*
X133360213Y-98571884D01*
X133343213Y-98600247D01*
X133323515Y-98626807D01*
X133301308Y-98651308D01*
X133276807Y-98673515D01*
X133250247Y-98693213D01*
X133221884Y-98710213D01*
X133191991Y-98724351D01*
X133160857Y-98735491D01*
X133128781Y-98743525D01*
X133096071Y-98748377D01*
X133063044Y-98750000D01*
X132186956Y-98750000D01*
X132153929Y-98748377D01*
X132121219Y-98743525D01*
X132089143Y-98735491D01*
X132058009Y-98724351D01*
X132028116Y-98710213D01*
X131999753Y-98693213D01*
X131973193Y-98673515D01*
X131948692Y-98651308D01*
X131926485Y-98626807D01*
X131906787Y-98600247D01*
X131889787Y-98571884D01*
X131875649Y-98541991D01*
X131864509Y-98510857D01*
X131856475Y-98478781D01*
X131851623Y-98446071D01*
X131850000Y-98413044D01*
X131850000Y-97286956D01*
X131851623Y-97253929D01*
X131856475Y-97221219D01*
X131864509Y-97189143D01*
X131875649Y-97158009D01*
X131889787Y-97128116D01*
X131906787Y-97099753D01*
X131926485Y-97073193D01*
X131948692Y-97048692D01*
X131973193Y-97026485D01*
X131999753Y-97006787D01*
X132028116Y-96989787D01*
X132058009Y-96975649D01*
X132089143Y-96964509D01*
X132121219Y-96956475D01*
X132153929Y-96951623D01*
X132186956Y-96950000D01*
X133063044Y-96950000D01*
X133096071Y-96951623D01*
G37*
G36*
X131046071Y-96951623D02*
G01*
X131078781Y-96956475D01*
X131110857Y-96964509D01*
X131141991Y-96975649D01*
X131171884Y-96989787D01*
X131200247Y-97006787D01*
X131226807Y-97026485D01*
X131251308Y-97048692D01*
X131273515Y-97073193D01*
X131293213Y-97099753D01*
X131310213Y-97128116D01*
X131324351Y-97158009D01*
X131335491Y-97189143D01*
X131343525Y-97221219D01*
X131348377Y-97253929D01*
X131350000Y-97286956D01*
X131350000Y-98413044D01*
X131348377Y-98446071D01*
X131343525Y-98478781D01*
X131335491Y-98510857D01*
X131324351Y-98541991D01*
X131310213Y-98571884D01*
X131293213Y-98600247D01*
X131273515Y-98626807D01*
X131251308Y-98651308D01*
X131226807Y-98673515D01*
X131200247Y-98693213D01*
X131171884Y-98710213D01*
X131141991Y-98724351D01*
X131110857Y-98735491D01*
X131078781Y-98743525D01*
X131046071Y-98748377D01*
X131013044Y-98750000D01*
X130136956Y-98750000D01*
X130103929Y-98748377D01*
X130071219Y-98743525D01*
X130039143Y-98735491D01*
X130008009Y-98724351D01*
X129978116Y-98710213D01*
X129949753Y-98693213D01*
X129923193Y-98673515D01*
X129898692Y-98651308D01*
X129876485Y-98626807D01*
X129856787Y-98600247D01*
X129839787Y-98571884D01*
X129825649Y-98541991D01*
X129814509Y-98510857D01*
X129806475Y-98478781D01*
X129801623Y-98446071D01*
X129800000Y-98413044D01*
X129800000Y-97286956D01*
X129801623Y-97253929D01*
X129806475Y-97221219D01*
X129814509Y-97189143D01*
X129825649Y-97158009D01*
X129839787Y-97128116D01*
X129856787Y-97099753D01*
X129876485Y-97073193D01*
X129898692Y-97048692D01*
X129923193Y-97026485D01*
X129949753Y-97006787D01*
X129978116Y-96989787D01*
X130008009Y-96975649D01*
X130039143Y-96964509D01*
X130071219Y-96956475D01*
X130103929Y-96951623D01*
X130136956Y-96950000D01*
X131013044Y-96950000D01*
X131046071Y-96951623D01*
G37*
D31*
X151697056Y-138302944D03*
X150000000Y-137600000D03*
X148302944Y-138302944D03*
X147600000Y-140000000D03*
X148302944Y-141697056D03*
X150000000Y-142400000D03*
X151697056Y-141697056D03*
X152400000Y-140000000D03*
D32*
X150000000Y-140000000D03*
D31*
X151697056Y-78302944D03*
X150000000Y-77600000D03*
X148302944Y-78302944D03*
X147600000Y-80000000D03*
X148302944Y-81697056D03*
X150000000Y-82400000D03*
X151697056Y-81697056D03*
X152400000Y-80000000D03*
D32*
X150000000Y-80000000D03*
D31*
X61697056Y-78302944D03*
X60000000Y-77600000D03*
X58302944Y-78302944D03*
X57600000Y-80000000D03*
X58302944Y-81697056D03*
X60000000Y-82400000D03*
X61697056Y-81697056D03*
X62400000Y-80000000D03*
D32*
X60000000Y-80000000D03*
D31*
X61697056Y-138302944D03*
X60000000Y-137600000D03*
X58302944Y-138302944D03*
X57600000Y-140000000D03*
X58302944Y-141697056D03*
X60000000Y-142400000D03*
X61697056Y-141697056D03*
X62400000Y-140000000D03*
D32*
X60000000Y-140000000D03*
D12*
G36*
X121296071Y-113701623D02*
G01*
X121328781Y-113706475D01*
X121360857Y-113714509D01*
X121391991Y-113725649D01*
X121421884Y-113739787D01*
X121450247Y-113756787D01*
X121476807Y-113776485D01*
X121501308Y-113798692D01*
X121523515Y-113823193D01*
X121543213Y-113849753D01*
X121560213Y-113878116D01*
X121574351Y-113908009D01*
X121585491Y-113939143D01*
X121593525Y-113971219D01*
X121598377Y-114003929D01*
X121600000Y-114036956D01*
X121600000Y-114913044D01*
X121598377Y-114946071D01*
X121593525Y-114978781D01*
X121585491Y-115010857D01*
X121574351Y-115041991D01*
X121560213Y-115071884D01*
X121543213Y-115100247D01*
X121523515Y-115126807D01*
X121501308Y-115151308D01*
X121476807Y-115173515D01*
X121450247Y-115193213D01*
X121421884Y-115210213D01*
X121391991Y-115224351D01*
X121360857Y-115235491D01*
X121328781Y-115243525D01*
X121296071Y-115248377D01*
X121263044Y-115250000D01*
X120136956Y-115250000D01*
X120103929Y-115248377D01*
X120071219Y-115243525D01*
X120039143Y-115235491D01*
X120008009Y-115224351D01*
X119978116Y-115210213D01*
X119949753Y-115193213D01*
X119923193Y-115173515D01*
X119898692Y-115151308D01*
X119876485Y-115126807D01*
X119856787Y-115100247D01*
X119839787Y-115071884D01*
X119825649Y-115041991D01*
X119814509Y-115010857D01*
X119806475Y-114978781D01*
X119801623Y-114946071D01*
X119800000Y-114913044D01*
X119800000Y-114036956D01*
X119801623Y-114003929D01*
X119806475Y-113971219D01*
X119814509Y-113939143D01*
X119825649Y-113908009D01*
X119839787Y-113878116D01*
X119856787Y-113849753D01*
X119876485Y-113823193D01*
X119898692Y-113798692D01*
X119923193Y-113776485D01*
X119949753Y-113756787D01*
X119978116Y-113739787D01*
X120008009Y-113725649D01*
X120039143Y-113714509D01*
X120071219Y-113706475D01*
X120103929Y-113701623D01*
X120136956Y-113700000D01*
X121263044Y-113700000D01*
X121296071Y-113701623D01*
G37*
G36*
X121296071Y-111651623D02*
G01*
X121328781Y-111656475D01*
X121360857Y-111664509D01*
X121391991Y-111675649D01*
X121421884Y-111689787D01*
X121450247Y-111706787D01*
X121476807Y-111726485D01*
X121501308Y-111748692D01*
X121523515Y-111773193D01*
X121543213Y-111799753D01*
X121560213Y-111828116D01*
X121574351Y-111858009D01*
X121585491Y-111889143D01*
X121593525Y-111921219D01*
X121598377Y-111953929D01*
X121600000Y-111986956D01*
X121600000Y-112863044D01*
X121598377Y-112896071D01*
X121593525Y-112928781D01*
X121585491Y-112960857D01*
X121574351Y-112991991D01*
X121560213Y-113021884D01*
X121543213Y-113050247D01*
X121523515Y-113076807D01*
X121501308Y-113101308D01*
X121476807Y-113123515D01*
X121450247Y-113143213D01*
X121421884Y-113160213D01*
X121391991Y-113174351D01*
X121360857Y-113185491D01*
X121328781Y-113193525D01*
X121296071Y-113198377D01*
X121263044Y-113200000D01*
X120136956Y-113200000D01*
X120103929Y-113198377D01*
X120071219Y-113193525D01*
X120039143Y-113185491D01*
X120008009Y-113174351D01*
X119978116Y-113160213D01*
X119949753Y-113143213D01*
X119923193Y-113123515D01*
X119898692Y-113101308D01*
X119876485Y-113076807D01*
X119856787Y-113050247D01*
X119839787Y-113021884D01*
X119825649Y-112991991D01*
X119814509Y-112960857D01*
X119806475Y-112928781D01*
X119801623Y-112896071D01*
X119800000Y-112863044D01*
X119800000Y-111986956D01*
X119801623Y-111953929D01*
X119806475Y-111921219D01*
X119814509Y-111889143D01*
X119825649Y-111858009D01*
X119839787Y-111828116D01*
X119856787Y-111799753D01*
X119876485Y-111773193D01*
X119898692Y-111748692D01*
X119923193Y-111726485D01*
X119949753Y-111706787D01*
X119978116Y-111689787D01*
X120008009Y-111675649D01*
X120039143Y-111664509D01*
X120071219Y-111656475D01*
X120103929Y-111651623D01*
X120136956Y-111650000D01*
X121263044Y-111650000D01*
X121296071Y-111651623D01*
G37*
G36*
X123346071Y-111501623D02*
G01*
X123378781Y-111506475D01*
X123410857Y-111514509D01*
X123441991Y-111525649D01*
X123471884Y-111539787D01*
X123500247Y-111556787D01*
X123526807Y-111576485D01*
X123551308Y-111598692D01*
X123573515Y-111623193D01*
X123593213Y-111649753D01*
X123610213Y-111678116D01*
X123624351Y-111708009D01*
X123635491Y-111739143D01*
X123643525Y-111771219D01*
X123648377Y-111803929D01*
X123650000Y-111836956D01*
X123650000Y-112963044D01*
X123648377Y-112996071D01*
X123643525Y-113028781D01*
X123635491Y-113060857D01*
X123624351Y-113091991D01*
X123610213Y-113121884D01*
X123593213Y-113150247D01*
X123573515Y-113176807D01*
X123551308Y-113201308D01*
X123526807Y-113223515D01*
X123500247Y-113243213D01*
X123471884Y-113260213D01*
X123441991Y-113274351D01*
X123410857Y-113285491D01*
X123378781Y-113293525D01*
X123346071Y-113298377D01*
X123313044Y-113300000D01*
X122436956Y-113300000D01*
X122403929Y-113298377D01*
X122371219Y-113293525D01*
X122339143Y-113285491D01*
X122308009Y-113274351D01*
X122278116Y-113260213D01*
X122249753Y-113243213D01*
X122223193Y-113223515D01*
X122198692Y-113201308D01*
X122176485Y-113176807D01*
X122156787Y-113150247D01*
X122139787Y-113121884D01*
X122125649Y-113091991D01*
X122114509Y-113060857D01*
X122106475Y-113028781D01*
X122101623Y-112996071D01*
X122100000Y-112963044D01*
X122100000Y-111836956D01*
X122101623Y-111803929D01*
X122106475Y-111771219D01*
X122114509Y-111739143D01*
X122125649Y-111708009D01*
X122139787Y-111678116D01*
X122156787Y-111649753D01*
X122176485Y-111623193D01*
X122198692Y-111598692D01*
X122223193Y-111576485D01*
X122249753Y-111556787D01*
X122278116Y-111539787D01*
X122308009Y-111525649D01*
X122339143Y-111514509D01*
X122371219Y-111506475D01*
X122403929Y-111501623D01*
X122436956Y-111500000D01*
X123313044Y-111500000D01*
X123346071Y-111501623D01*
G37*
G36*
X125396071Y-111501623D02*
G01*
X125428781Y-111506475D01*
X125460857Y-111514509D01*
X125491991Y-111525649D01*
X125521884Y-111539787D01*
X125550247Y-111556787D01*
X125576807Y-111576485D01*
X125601308Y-111598692D01*
X125623515Y-111623193D01*
X125643213Y-111649753D01*
X125660213Y-111678116D01*
X125674351Y-111708009D01*
X125685491Y-111739143D01*
X125693525Y-111771219D01*
X125698377Y-111803929D01*
X125700000Y-111836956D01*
X125700000Y-112963044D01*
X125698377Y-112996071D01*
X125693525Y-113028781D01*
X125685491Y-113060857D01*
X125674351Y-113091991D01*
X125660213Y-113121884D01*
X125643213Y-113150247D01*
X125623515Y-113176807D01*
X125601308Y-113201308D01*
X125576807Y-113223515D01*
X125550247Y-113243213D01*
X125521884Y-113260213D01*
X125491991Y-113274351D01*
X125460857Y-113285491D01*
X125428781Y-113293525D01*
X125396071Y-113298377D01*
X125363044Y-113300000D01*
X124486956Y-113300000D01*
X124453929Y-113298377D01*
X124421219Y-113293525D01*
X124389143Y-113285491D01*
X124358009Y-113274351D01*
X124328116Y-113260213D01*
X124299753Y-113243213D01*
X124273193Y-113223515D01*
X124248692Y-113201308D01*
X124226485Y-113176807D01*
X124206787Y-113150247D01*
X124189787Y-113121884D01*
X124175649Y-113091991D01*
X124164509Y-113060857D01*
X124156475Y-113028781D01*
X124151623Y-112996071D01*
X124150000Y-112963044D01*
X124150000Y-111836956D01*
X124151623Y-111803929D01*
X124156475Y-111771219D01*
X124164509Y-111739143D01*
X124175649Y-111708009D01*
X124189787Y-111678116D01*
X124206787Y-111649753D01*
X124226485Y-111623193D01*
X124248692Y-111598692D01*
X124273193Y-111576485D01*
X124299753Y-111556787D01*
X124328116Y-111539787D01*
X124358009Y-111525649D01*
X124389143Y-111514509D01*
X124421219Y-111506475D01*
X124453929Y-111501623D01*
X124486956Y-111500000D01*
X125363044Y-111500000D01*
X125396071Y-111501623D01*
G37*
G36*
X130627346Y-130026589D02*
G01*
X130659380Y-130031341D01*
X130690794Y-130039210D01*
X130721286Y-130050120D01*
X130750561Y-130063966D01*
X130778338Y-130080615D01*
X130804350Y-130099907D01*
X130828345Y-130121655D01*
X130850093Y-130145650D01*
X130869385Y-130171662D01*
X130886034Y-130199439D01*
X130899880Y-130228714D01*
X130910790Y-130259206D01*
X130918659Y-130290620D01*
X130923411Y-130322654D01*
X130925000Y-130355000D01*
X130925000Y-131845000D01*
X130923411Y-131877346D01*
X130918659Y-131909380D01*
X130910790Y-131940794D01*
X130899880Y-131971286D01*
X130886034Y-132000561D01*
X130869385Y-132028338D01*
X130850093Y-132054350D01*
X130828345Y-132078345D01*
X130804350Y-132100093D01*
X130778338Y-132119385D01*
X130750561Y-132136034D01*
X130721286Y-132149880D01*
X130690794Y-132160790D01*
X130659380Y-132168659D01*
X130627346Y-132173411D01*
X130595000Y-132175000D01*
X129605000Y-132175000D01*
X129572654Y-132173411D01*
X129540620Y-132168659D01*
X129509206Y-132160790D01*
X129478714Y-132149880D01*
X129449439Y-132136034D01*
X129421662Y-132119385D01*
X129395650Y-132100093D01*
X129371655Y-132078345D01*
X129349907Y-132054350D01*
X129330615Y-132028338D01*
X129313966Y-132000561D01*
X129300120Y-131971286D01*
X129289210Y-131940794D01*
X129281341Y-131909380D01*
X129276589Y-131877346D01*
X129275000Y-131845000D01*
X129275000Y-130355000D01*
X129276589Y-130322654D01*
X129281341Y-130290620D01*
X129289210Y-130259206D01*
X129300120Y-130228714D01*
X129313966Y-130199439D01*
X129330615Y-130171662D01*
X129349907Y-130145650D01*
X129371655Y-130121655D01*
X129395650Y-130099907D01*
X129421662Y-130080615D01*
X129449439Y-130063966D01*
X129478714Y-130050120D01*
X129509206Y-130039210D01*
X129540620Y-130031341D01*
X129572654Y-130026589D01*
X129605000Y-130025000D01*
X130595000Y-130025000D01*
X130627346Y-130026589D01*
G37*
G36*
X127827346Y-130026589D02*
G01*
X127859380Y-130031341D01*
X127890794Y-130039210D01*
X127921286Y-130050120D01*
X127950561Y-130063966D01*
X127978338Y-130080615D01*
X128004350Y-130099907D01*
X128028345Y-130121655D01*
X128050093Y-130145650D01*
X128069385Y-130171662D01*
X128086034Y-130199439D01*
X128099880Y-130228714D01*
X128110790Y-130259206D01*
X128118659Y-130290620D01*
X128123411Y-130322654D01*
X128125000Y-130355000D01*
X128125000Y-131845000D01*
X128123411Y-131877346D01*
X128118659Y-131909380D01*
X128110790Y-131940794D01*
X128099880Y-131971286D01*
X128086034Y-132000561D01*
X128069385Y-132028338D01*
X128050093Y-132054350D01*
X128028345Y-132078345D01*
X128004350Y-132100093D01*
X127978338Y-132119385D01*
X127950561Y-132136034D01*
X127921286Y-132149880D01*
X127890794Y-132160790D01*
X127859380Y-132168659D01*
X127827346Y-132173411D01*
X127795000Y-132175000D01*
X126805000Y-132175000D01*
X126772654Y-132173411D01*
X126740620Y-132168659D01*
X126709206Y-132160790D01*
X126678714Y-132149880D01*
X126649439Y-132136034D01*
X126621662Y-132119385D01*
X126595650Y-132100093D01*
X126571655Y-132078345D01*
X126549907Y-132054350D01*
X126530615Y-132028338D01*
X126513966Y-132000561D01*
X126500120Y-131971286D01*
X126489210Y-131940794D01*
X126481341Y-131909380D01*
X126476589Y-131877346D01*
X126475000Y-131845000D01*
X126475000Y-130355000D01*
X126476589Y-130322654D01*
X126481341Y-130290620D01*
X126489210Y-130259206D01*
X126500120Y-130228714D01*
X126513966Y-130199439D01*
X126530615Y-130171662D01*
X126549907Y-130145650D01*
X126571655Y-130121655D01*
X126595650Y-130099907D01*
X126621662Y-130080615D01*
X126649439Y-130063966D01*
X126678714Y-130050120D01*
X126709206Y-130039210D01*
X126740620Y-130031341D01*
X126772654Y-130026589D01*
X126805000Y-130025000D01*
X127795000Y-130025000D01*
X127827346Y-130026589D01*
G37*
G36*
X125396071Y-113751623D02*
G01*
X125428781Y-113756475D01*
X125460857Y-113764509D01*
X125491991Y-113775649D01*
X125521884Y-113789787D01*
X125550247Y-113806787D01*
X125576807Y-113826485D01*
X125601308Y-113848692D01*
X125623515Y-113873193D01*
X125643213Y-113899753D01*
X125660213Y-113928116D01*
X125674351Y-113958009D01*
X125685491Y-113989143D01*
X125693525Y-114021219D01*
X125698377Y-114053929D01*
X125700000Y-114086956D01*
X125700000Y-115213044D01*
X125698377Y-115246071D01*
X125693525Y-115278781D01*
X125685491Y-115310857D01*
X125674351Y-115341991D01*
X125660213Y-115371884D01*
X125643213Y-115400247D01*
X125623515Y-115426807D01*
X125601308Y-115451308D01*
X125576807Y-115473515D01*
X125550247Y-115493213D01*
X125521884Y-115510213D01*
X125491991Y-115524351D01*
X125460857Y-115535491D01*
X125428781Y-115543525D01*
X125396071Y-115548377D01*
X125363044Y-115550000D01*
X124486956Y-115550000D01*
X124453929Y-115548377D01*
X124421219Y-115543525D01*
X124389143Y-115535491D01*
X124358009Y-115524351D01*
X124328116Y-115510213D01*
X124299753Y-115493213D01*
X124273193Y-115473515D01*
X124248692Y-115451308D01*
X124226485Y-115426807D01*
X124206787Y-115400247D01*
X124189787Y-115371884D01*
X124175649Y-115341991D01*
X124164509Y-115310857D01*
X124156475Y-115278781D01*
X124151623Y-115246071D01*
X124150000Y-115213044D01*
X124150000Y-114086956D01*
X124151623Y-114053929D01*
X124156475Y-114021219D01*
X124164509Y-113989143D01*
X124175649Y-113958009D01*
X124189787Y-113928116D01*
X124206787Y-113899753D01*
X124226485Y-113873193D01*
X124248692Y-113848692D01*
X124273193Y-113826485D01*
X124299753Y-113806787D01*
X124328116Y-113789787D01*
X124358009Y-113775649D01*
X124389143Y-113764509D01*
X124421219Y-113756475D01*
X124453929Y-113751623D01*
X124486956Y-113750000D01*
X125363044Y-113750000D01*
X125396071Y-113751623D01*
G37*
G36*
X123346071Y-113751623D02*
G01*
X123378781Y-113756475D01*
X123410857Y-113764509D01*
X123441991Y-113775649D01*
X123471884Y-113789787D01*
X123500247Y-113806787D01*
X123526807Y-113826485D01*
X123551308Y-113848692D01*
X123573515Y-113873193D01*
X123593213Y-113899753D01*
X123610213Y-113928116D01*
X123624351Y-113958009D01*
X123635491Y-113989143D01*
X123643525Y-114021219D01*
X123648377Y-114053929D01*
X123650000Y-114086956D01*
X123650000Y-115213044D01*
X123648377Y-115246071D01*
X123643525Y-115278781D01*
X123635491Y-115310857D01*
X123624351Y-115341991D01*
X123610213Y-115371884D01*
X123593213Y-115400247D01*
X123573515Y-115426807D01*
X123551308Y-115451308D01*
X123526807Y-115473515D01*
X123500247Y-115493213D01*
X123471884Y-115510213D01*
X123441991Y-115524351D01*
X123410857Y-115535491D01*
X123378781Y-115543525D01*
X123346071Y-115548377D01*
X123313044Y-115550000D01*
X122436956Y-115550000D01*
X122403929Y-115548377D01*
X122371219Y-115543525D01*
X122339143Y-115535491D01*
X122308009Y-115524351D01*
X122278116Y-115510213D01*
X122249753Y-115493213D01*
X122223193Y-115473515D01*
X122198692Y-115451308D01*
X122176485Y-115426807D01*
X122156787Y-115400247D01*
X122139787Y-115371884D01*
X122125649Y-115341991D01*
X122114509Y-115310857D01*
X122106475Y-115278781D01*
X122101623Y-115246071D01*
X122100000Y-115213044D01*
X122100000Y-114086956D01*
X122101623Y-114053929D01*
X122106475Y-114021219D01*
X122114509Y-113989143D01*
X122125649Y-113958009D01*
X122139787Y-113928116D01*
X122156787Y-113899753D01*
X122176485Y-113873193D01*
X122198692Y-113848692D01*
X122223193Y-113826485D01*
X122249753Y-113806787D01*
X122278116Y-113789787D01*
X122308009Y-113775649D01*
X122339143Y-113764509D01*
X122371219Y-113756475D01*
X122403929Y-113751623D01*
X122436956Y-113750000D01*
X123313044Y-113750000D01*
X123346071Y-113751623D01*
G37*
D33*
X67745000Y-126000000D03*
X123355000Y-126000000D03*
D34*
X132000000Y-126000000D03*
D35*
X60000000Y-126000000D03*
D33*
X67745000Y-103000000D03*
X123355000Y-103000000D03*
D34*
X132000000Y-103000000D03*
D35*
X60000000Y-103000000D03*
D12*
G36*
X117696071Y-85301623D02*
G01*
X117728781Y-85306475D01*
X117760857Y-85314509D01*
X117791991Y-85325649D01*
X117821884Y-85339787D01*
X117850247Y-85356787D01*
X117876807Y-85376485D01*
X117901308Y-85398692D01*
X117923515Y-85423193D01*
X117943213Y-85449753D01*
X117960213Y-85478116D01*
X117974351Y-85508009D01*
X117985491Y-85539143D01*
X117993525Y-85571219D01*
X117998377Y-85603929D01*
X118000000Y-85636956D01*
X118000000Y-86513044D01*
X117998377Y-86546071D01*
X117993525Y-86578781D01*
X117985491Y-86610857D01*
X117974351Y-86641991D01*
X117960213Y-86671884D01*
X117943213Y-86700247D01*
X117923515Y-86726807D01*
X117901308Y-86751308D01*
X117876807Y-86773515D01*
X117850247Y-86793213D01*
X117821884Y-86810213D01*
X117791991Y-86824351D01*
X117760857Y-86835491D01*
X117728781Y-86843525D01*
X117696071Y-86848377D01*
X117663044Y-86850000D01*
X116536956Y-86850000D01*
X116503929Y-86848377D01*
X116471219Y-86843525D01*
X116439143Y-86835491D01*
X116408009Y-86824351D01*
X116378116Y-86810213D01*
X116349753Y-86793213D01*
X116323193Y-86773515D01*
X116298692Y-86751308D01*
X116276485Y-86726807D01*
X116256787Y-86700247D01*
X116239787Y-86671884D01*
X116225649Y-86641991D01*
X116214509Y-86610857D01*
X116206475Y-86578781D01*
X116201623Y-86546071D01*
X116200000Y-86513044D01*
X116200000Y-85636956D01*
X116201623Y-85603929D01*
X116206475Y-85571219D01*
X116214509Y-85539143D01*
X116225649Y-85508009D01*
X116239787Y-85478116D01*
X116256787Y-85449753D01*
X116276485Y-85423193D01*
X116298692Y-85398692D01*
X116323193Y-85376485D01*
X116349753Y-85356787D01*
X116378116Y-85339787D01*
X116408009Y-85325649D01*
X116439143Y-85314509D01*
X116471219Y-85306475D01*
X116503929Y-85301623D01*
X116536956Y-85300000D01*
X117663044Y-85300000D01*
X117696071Y-85301623D01*
G37*
G36*
X117696071Y-83251623D02*
G01*
X117728781Y-83256475D01*
X117760857Y-83264509D01*
X117791991Y-83275649D01*
X117821884Y-83289787D01*
X117850247Y-83306787D01*
X117876807Y-83326485D01*
X117901308Y-83348692D01*
X117923515Y-83373193D01*
X117943213Y-83399753D01*
X117960213Y-83428116D01*
X117974351Y-83458009D01*
X117985491Y-83489143D01*
X117993525Y-83521219D01*
X117998377Y-83553929D01*
X118000000Y-83586956D01*
X118000000Y-84463044D01*
X117998377Y-84496071D01*
X117993525Y-84528781D01*
X117985491Y-84560857D01*
X117974351Y-84591991D01*
X117960213Y-84621884D01*
X117943213Y-84650247D01*
X117923515Y-84676807D01*
X117901308Y-84701308D01*
X117876807Y-84723515D01*
X117850247Y-84743213D01*
X117821884Y-84760213D01*
X117791991Y-84774351D01*
X117760857Y-84785491D01*
X117728781Y-84793525D01*
X117696071Y-84798377D01*
X117663044Y-84800000D01*
X116536956Y-84800000D01*
X116503929Y-84798377D01*
X116471219Y-84793525D01*
X116439143Y-84785491D01*
X116408009Y-84774351D01*
X116378116Y-84760213D01*
X116349753Y-84743213D01*
X116323193Y-84723515D01*
X116298692Y-84701308D01*
X116276485Y-84676807D01*
X116256787Y-84650247D01*
X116239787Y-84621884D01*
X116225649Y-84591991D01*
X116214509Y-84560857D01*
X116206475Y-84528781D01*
X116201623Y-84496071D01*
X116200000Y-84463044D01*
X116200000Y-83586956D01*
X116201623Y-83553929D01*
X116206475Y-83521219D01*
X116214509Y-83489143D01*
X116225649Y-83458009D01*
X116239787Y-83428116D01*
X116256787Y-83399753D01*
X116276485Y-83373193D01*
X116298692Y-83348692D01*
X116323193Y-83326485D01*
X116349753Y-83306787D01*
X116378116Y-83289787D01*
X116408009Y-83275649D01*
X116439143Y-83264509D01*
X116471219Y-83256475D01*
X116503929Y-83251623D01*
X116536956Y-83250000D01*
X117663044Y-83250000D01*
X117696071Y-83251623D01*
G37*
G36*
X115196071Y-85301623D02*
G01*
X115228781Y-85306475D01*
X115260857Y-85314509D01*
X115291991Y-85325649D01*
X115321884Y-85339787D01*
X115350247Y-85356787D01*
X115376807Y-85376485D01*
X115401308Y-85398692D01*
X115423515Y-85423193D01*
X115443213Y-85449753D01*
X115460213Y-85478116D01*
X115474351Y-85508009D01*
X115485491Y-85539143D01*
X115493525Y-85571219D01*
X115498377Y-85603929D01*
X115500000Y-85636956D01*
X115500000Y-86513044D01*
X115498377Y-86546071D01*
X115493525Y-86578781D01*
X115485491Y-86610857D01*
X115474351Y-86641991D01*
X115460213Y-86671884D01*
X115443213Y-86700247D01*
X115423515Y-86726807D01*
X115401308Y-86751308D01*
X115376807Y-86773515D01*
X115350247Y-86793213D01*
X115321884Y-86810213D01*
X115291991Y-86824351D01*
X115260857Y-86835491D01*
X115228781Y-86843525D01*
X115196071Y-86848377D01*
X115163044Y-86850000D01*
X114036956Y-86850000D01*
X114003929Y-86848377D01*
X113971219Y-86843525D01*
X113939143Y-86835491D01*
X113908009Y-86824351D01*
X113878116Y-86810213D01*
X113849753Y-86793213D01*
X113823193Y-86773515D01*
X113798692Y-86751308D01*
X113776485Y-86726807D01*
X113756787Y-86700247D01*
X113739787Y-86671884D01*
X113725649Y-86641991D01*
X113714509Y-86610857D01*
X113706475Y-86578781D01*
X113701623Y-86546071D01*
X113700000Y-86513044D01*
X113700000Y-85636956D01*
X113701623Y-85603929D01*
X113706475Y-85571219D01*
X113714509Y-85539143D01*
X113725649Y-85508009D01*
X113739787Y-85478116D01*
X113756787Y-85449753D01*
X113776485Y-85423193D01*
X113798692Y-85398692D01*
X113823193Y-85376485D01*
X113849753Y-85356787D01*
X113878116Y-85339787D01*
X113908009Y-85325649D01*
X113939143Y-85314509D01*
X113971219Y-85306475D01*
X114003929Y-85301623D01*
X114036956Y-85300000D01*
X115163044Y-85300000D01*
X115196071Y-85301623D01*
G37*
G36*
X115196071Y-83251623D02*
G01*
X115228781Y-83256475D01*
X115260857Y-83264509D01*
X115291991Y-83275649D01*
X115321884Y-83289787D01*
X115350247Y-83306787D01*
X115376807Y-83326485D01*
X115401308Y-83348692D01*
X115423515Y-83373193D01*
X115443213Y-83399753D01*
X115460213Y-83428116D01*
X115474351Y-83458009D01*
X115485491Y-83489143D01*
X115493525Y-83521219D01*
X115498377Y-83553929D01*
X115500000Y-83586956D01*
X115500000Y-84463044D01*
X115498377Y-84496071D01*
X115493525Y-84528781D01*
X115485491Y-84560857D01*
X115474351Y-84591991D01*
X115460213Y-84621884D01*
X115443213Y-84650247D01*
X115423515Y-84676807D01*
X115401308Y-84701308D01*
X115376807Y-84723515D01*
X115350247Y-84743213D01*
X115321884Y-84760213D01*
X115291991Y-84774351D01*
X115260857Y-84785491D01*
X115228781Y-84793525D01*
X115196071Y-84798377D01*
X115163044Y-84800000D01*
X114036956Y-84800000D01*
X114003929Y-84798377D01*
X113971219Y-84793525D01*
X113939143Y-84785491D01*
X113908009Y-84774351D01*
X113878116Y-84760213D01*
X113849753Y-84743213D01*
X113823193Y-84723515D01*
X113798692Y-84701308D01*
X113776485Y-84676807D01*
X113756787Y-84650247D01*
X113739787Y-84621884D01*
X113725649Y-84591991D01*
X113714509Y-84560857D01*
X113706475Y-84528781D01*
X113701623Y-84496071D01*
X113700000Y-84463044D01*
X113700000Y-83586956D01*
X113701623Y-83553929D01*
X113706475Y-83521219D01*
X113714509Y-83489143D01*
X113725649Y-83458009D01*
X113739787Y-83428116D01*
X113756787Y-83399753D01*
X113776485Y-83373193D01*
X113798692Y-83348692D01*
X113823193Y-83326485D01*
X113849753Y-83306787D01*
X113878116Y-83289787D01*
X113908009Y-83275649D01*
X113939143Y-83264509D01*
X113971219Y-83256475D01*
X114003929Y-83251623D01*
X114036956Y-83250000D01*
X115163044Y-83250000D01*
X115196071Y-83251623D01*
G37*
G36*
X112646071Y-85301623D02*
G01*
X112678781Y-85306475D01*
X112710857Y-85314509D01*
X112741991Y-85325649D01*
X112771884Y-85339787D01*
X112800247Y-85356787D01*
X112826807Y-85376485D01*
X112851308Y-85398692D01*
X112873515Y-85423193D01*
X112893213Y-85449753D01*
X112910213Y-85478116D01*
X112924351Y-85508009D01*
X112935491Y-85539143D01*
X112943525Y-85571219D01*
X112948377Y-85603929D01*
X112950000Y-85636956D01*
X112950000Y-86513044D01*
X112948377Y-86546071D01*
X112943525Y-86578781D01*
X112935491Y-86610857D01*
X112924351Y-86641991D01*
X112910213Y-86671884D01*
X112893213Y-86700247D01*
X112873515Y-86726807D01*
X112851308Y-86751308D01*
X112826807Y-86773515D01*
X112800247Y-86793213D01*
X112771884Y-86810213D01*
X112741991Y-86824351D01*
X112710857Y-86835491D01*
X112678781Y-86843525D01*
X112646071Y-86848377D01*
X112613044Y-86850000D01*
X111486956Y-86850000D01*
X111453929Y-86848377D01*
X111421219Y-86843525D01*
X111389143Y-86835491D01*
X111358009Y-86824351D01*
X111328116Y-86810213D01*
X111299753Y-86793213D01*
X111273193Y-86773515D01*
X111248692Y-86751308D01*
X111226485Y-86726807D01*
X111206787Y-86700247D01*
X111189787Y-86671884D01*
X111175649Y-86641991D01*
X111164509Y-86610857D01*
X111156475Y-86578781D01*
X111151623Y-86546071D01*
X111150000Y-86513044D01*
X111150000Y-85636956D01*
X111151623Y-85603929D01*
X111156475Y-85571219D01*
X111164509Y-85539143D01*
X111175649Y-85508009D01*
X111189787Y-85478116D01*
X111206787Y-85449753D01*
X111226485Y-85423193D01*
X111248692Y-85398692D01*
X111273193Y-85376485D01*
X111299753Y-85356787D01*
X111328116Y-85339787D01*
X111358009Y-85325649D01*
X111389143Y-85314509D01*
X111421219Y-85306475D01*
X111453929Y-85301623D01*
X111486956Y-85300000D01*
X112613044Y-85300000D01*
X112646071Y-85301623D01*
G37*
G36*
X112646071Y-83251623D02*
G01*
X112678781Y-83256475D01*
X112710857Y-83264509D01*
X112741991Y-83275649D01*
X112771884Y-83289787D01*
X112800247Y-83306787D01*
X112826807Y-83326485D01*
X112851308Y-83348692D01*
X112873515Y-83373193D01*
X112893213Y-83399753D01*
X112910213Y-83428116D01*
X112924351Y-83458009D01*
X112935491Y-83489143D01*
X112943525Y-83521219D01*
X112948377Y-83553929D01*
X112950000Y-83586956D01*
X112950000Y-84463044D01*
X112948377Y-84496071D01*
X112943525Y-84528781D01*
X112935491Y-84560857D01*
X112924351Y-84591991D01*
X112910213Y-84621884D01*
X112893213Y-84650247D01*
X112873515Y-84676807D01*
X112851308Y-84701308D01*
X112826807Y-84723515D01*
X112800247Y-84743213D01*
X112771884Y-84760213D01*
X112741991Y-84774351D01*
X112710857Y-84785491D01*
X112678781Y-84793525D01*
X112646071Y-84798377D01*
X112613044Y-84800000D01*
X111486956Y-84800000D01*
X111453929Y-84798377D01*
X111421219Y-84793525D01*
X111389143Y-84785491D01*
X111358009Y-84774351D01*
X111328116Y-84760213D01*
X111299753Y-84743213D01*
X111273193Y-84723515D01*
X111248692Y-84701308D01*
X111226485Y-84676807D01*
X111206787Y-84650247D01*
X111189787Y-84621884D01*
X111175649Y-84591991D01*
X111164509Y-84560857D01*
X111156475Y-84528781D01*
X111151623Y-84496071D01*
X111150000Y-84463044D01*
X111150000Y-83586956D01*
X111151623Y-83553929D01*
X111156475Y-83521219D01*
X111164509Y-83489143D01*
X111175649Y-83458009D01*
X111189787Y-83428116D01*
X111206787Y-83399753D01*
X111226485Y-83373193D01*
X111248692Y-83348692D01*
X111273193Y-83326485D01*
X111299753Y-83306787D01*
X111328116Y-83289787D01*
X111358009Y-83275649D01*
X111389143Y-83264509D01*
X111421219Y-83256475D01*
X111453929Y-83251623D01*
X111486956Y-83250000D01*
X112613044Y-83250000D01*
X112646071Y-83251623D01*
G37*
G36*
X110096071Y-85301623D02*
G01*
X110128781Y-85306475D01*
X110160857Y-85314509D01*
X110191991Y-85325649D01*
X110221884Y-85339787D01*
X110250247Y-85356787D01*
X110276807Y-85376485D01*
X110301308Y-85398692D01*
X110323515Y-85423193D01*
X110343213Y-85449753D01*
X110360213Y-85478116D01*
X110374351Y-85508009D01*
X110385491Y-85539143D01*
X110393525Y-85571219D01*
X110398377Y-85603929D01*
X110400000Y-85636956D01*
X110400000Y-86513044D01*
X110398377Y-86546071D01*
X110393525Y-86578781D01*
X110385491Y-86610857D01*
X110374351Y-86641991D01*
X110360213Y-86671884D01*
X110343213Y-86700247D01*
X110323515Y-86726807D01*
X110301308Y-86751308D01*
X110276807Y-86773515D01*
X110250247Y-86793213D01*
X110221884Y-86810213D01*
X110191991Y-86824351D01*
X110160857Y-86835491D01*
X110128781Y-86843525D01*
X110096071Y-86848377D01*
X110063044Y-86850000D01*
X108936956Y-86850000D01*
X108903929Y-86848377D01*
X108871219Y-86843525D01*
X108839143Y-86835491D01*
X108808009Y-86824351D01*
X108778116Y-86810213D01*
X108749753Y-86793213D01*
X108723193Y-86773515D01*
X108698692Y-86751308D01*
X108676485Y-86726807D01*
X108656787Y-86700247D01*
X108639787Y-86671884D01*
X108625649Y-86641991D01*
X108614509Y-86610857D01*
X108606475Y-86578781D01*
X108601623Y-86546071D01*
X108600000Y-86513044D01*
X108600000Y-85636956D01*
X108601623Y-85603929D01*
X108606475Y-85571219D01*
X108614509Y-85539143D01*
X108625649Y-85508009D01*
X108639787Y-85478116D01*
X108656787Y-85449753D01*
X108676485Y-85423193D01*
X108698692Y-85398692D01*
X108723193Y-85376485D01*
X108749753Y-85356787D01*
X108778116Y-85339787D01*
X108808009Y-85325649D01*
X108839143Y-85314509D01*
X108871219Y-85306475D01*
X108903929Y-85301623D01*
X108936956Y-85300000D01*
X110063044Y-85300000D01*
X110096071Y-85301623D01*
G37*
G36*
X110096071Y-83251623D02*
G01*
X110128781Y-83256475D01*
X110160857Y-83264509D01*
X110191991Y-83275649D01*
X110221884Y-83289787D01*
X110250247Y-83306787D01*
X110276807Y-83326485D01*
X110301308Y-83348692D01*
X110323515Y-83373193D01*
X110343213Y-83399753D01*
X110360213Y-83428116D01*
X110374351Y-83458009D01*
X110385491Y-83489143D01*
X110393525Y-83521219D01*
X110398377Y-83553929D01*
X110400000Y-83586956D01*
X110400000Y-84463044D01*
X110398377Y-84496071D01*
X110393525Y-84528781D01*
X110385491Y-84560857D01*
X110374351Y-84591991D01*
X110360213Y-84621884D01*
X110343213Y-84650247D01*
X110323515Y-84676807D01*
X110301308Y-84701308D01*
X110276807Y-84723515D01*
X110250247Y-84743213D01*
X110221884Y-84760213D01*
X110191991Y-84774351D01*
X110160857Y-84785491D01*
X110128781Y-84793525D01*
X110096071Y-84798377D01*
X110063044Y-84800000D01*
X108936956Y-84800000D01*
X108903929Y-84798377D01*
X108871219Y-84793525D01*
X108839143Y-84785491D01*
X108808009Y-84774351D01*
X108778116Y-84760213D01*
X108749753Y-84743213D01*
X108723193Y-84723515D01*
X108698692Y-84701308D01*
X108676485Y-84676807D01*
X108656787Y-84650247D01*
X108639787Y-84621884D01*
X108625649Y-84591991D01*
X108614509Y-84560857D01*
X108606475Y-84528781D01*
X108601623Y-84496071D01*
X108600000Y-84463044D01*
X108600000Y-83586956D01*
X108601623Y-83553929D01*
X108606475Y-83521219D01*
X108614509Y-83489143D01*
X108625649Y-83458009D01*
X108639787Y-83428116D01*
X108656787Y-83399753D01*
X108676485Y-83373193D01*
X108698692Y-83348692D01*
X108723193Y-83326485D01*
X108749753Y-83306787D01*
X108778116Y-83289787D01*
X108808009Y-83275649D01*
X108839143Y-83264509D01*
X108871219Y-83256475D01*
X108903929Y-83251623D01*
X108936956Y-83250000D01*
X110063044Y-83250000D01*
X110096071Y-83251623D01*
G37*
D14*
X119700000Y-79000000D03*
X117160000Y-79000000D03*
X114620000Y-79000000D03*
X112080000Y-79000000D03*
X109540000Y-79000000D03*
D15*
X107000000Y-79000000D03*
D36*
X98250000Y-87540000D03*
X94350000Y-87540000D03*
X98250000Y-86270000D03*
X94350000Y-86270000D03*
X98250000Y-85000000D03*
X94350000Y-85000000D03*
X98250000Y-83730000D03*
X94350000Y-83730000D03*
X98250000Y-82460000D03*
X94350000Y-82460000D03*
M02*
