G04 #@! TF.GenerationSoftware,KiCad,Pcbnew,(5.1.5-0-10_14)*
G04 #@! TF.CreationDate,2020-04-19T20:25:50+02:00*
G04 #@! TF.ProjectId,inuk-base,696e756b-2d62-4617-9365-2e6b69636164,rev?*
G04 #@! TF.SameCoordinates,Original*
G04 #@! TF.FileFunction,Legend,Top*
G04 #@! TF.FilePolarity,Positive*
%FSLAX46Y46*%
G04 Gerber Fmt 4.6, Leading zero omitted, Abs format (unit mm)*
G04 Created by KiCad (PCBNEW (5.1.5-0-10_14)) date 2020-04-19 20:25:50*
%MOMM*%
%LPD*%
G04 APERTURE LIST*
%ADD10C,0.200000*%
%ADD11C,0.300000*%
%ADD12C,0.150000*%
%ADD13C,0.120000*%
G04 APERTURE END LIST*
D10*
X144528571Y-97307142D02*
X145671428Y-97307142D01*
X145100000Y-97878571D02*
X145100000Y-96735714D01*
D11*
X105400000Y-117200000D02*
X106500000Y-117200000D01*
X106500000Y-111100000D02*
X106500000Y-117200000D01*
X95600000Y-117100000D02*
X97400000Y-117100000D01*
D10*
X98066666Y-116988571D02*
X98400000Y-116988571D01*
X98542857Y-117512380D02*
X98066666Y-117512380D01*
X98066666Y-116512380D01*
X98542857Y-116512380D01*
X98876190Y-117512380D02*
X99400000Y-116845714D01*
X98876190Y-116845714D02*
X99400000Y-117512380D01*
X99638095Y-116845714D02*
X100019047Y-116845714D01*
X99780952Y-116512380D02*
X99780952Y-117369523D01*
X99828571Y-117464761D01*
X99923809Y-117512380D01*
X100019047Y-117512380D01*
X100733333Y-117464761D02*
X100638095Y-117512380D01*
X100447619Y-117512380D01*
X100352380Y-117464761D01*
X100304761Y-117369523D01*
X100304761Y-116988571D01*
X100352380Y-116893333D01*
X100447619Y-116845714D01*
X100638095Y-116845714D01*
X100733333Y-116893333D01*
X100780952Y-116988571D01*
X100780952Y-117083809D01*
X100304761Y-117179047D01*
X101209523Y-116845714D02*
X101209523Y-117512380D01*
X101209523Y-116940952D02*
X101257142Y-116893333D01*
X101352380Y-116845714D01*
X101495238Y-116845714D01*
X101590476Y-116893333D01*
X101638095Y-116988571D01*
X101638095Y-117512380D01*
X102066666Y-117464761D02*
X102161904Y-117512380D01*
X102352380Y-117512380D01*
X102447619Y-117464761D01*
X102495238Y-117369523D01*
X102495238Y-117321904D01*
X102447619Y-117226666D01*
X102352380Y-117179047D01*
X102209523Y-117179047D01*
X102114285Y-117131428D01*
X102066666Y-117036190D01*
X102066666Y-116988571D01*
X102114285Y-116893333D01*
X102209523Y-116845714D01*
X102352380Y-116845714D01*
X102447619Y-116893333D01*
X102923809Y-117512380D02*
X102923809Y-116845714D01*
X102923809Y-116512380D02*
X102876190Y-116560000D01*
X102923809Y-116607619D01*
X102971428Y-116560000D01*
X102923809Y-116512380D01*
X102923809Y-116607619D01*
X103542857Y-117512380D02*
X103447619Y-117464761D01*
X103400000Y-117417142D01*
X103352380Y-117321904D01*
X103352380Y-117036190D01*
X103400000Y-116940952D01*
X103447619Y-116893333D01*
X103542857Y-116845714D01*
X103685714Y-116845714D01*
X103780952Y-116893333D01*
X103828571Y-116940952D01*
X103876190Y-117036190D01*
X103876190Y-117321904D01*
X103828571Y-117417142D01*
X103780952Y-117464761D01*
X103685714Y-117512380D01*
X103542857Y-117512380D01*
X104304761Y-116845714D02*
X104304761Y-117512380D01*
X104304761Y-116940952D02*
X104352380Y-116893333D01*
X104447619Y-116845714D01*
X104590476Y-116845714D01*
X104685714Y-116893333D01*
X104733333Y-116988571D01*
X104733333Y-117512380D01*
D12*
X72260714Y-99253571D02*
X73010714Y-99253571D01*
X73010714Y-99539285D01*
X72975000Y-99610714D01*
X72939285Y-99646428D01*
X72867857Y-99682142D01*
X72760714Y-99682142D01*
X72689285Y-99646428D01*
X72653571Y-99610714D01*
X72617857Y-99539285D01*
X72617857Y-99253571D01*
X73010714Y-100146428D02*
X73010714Y-100217857D01*
X72975000Y-100289285D01*
X72939285Y-100325000D01*
X72867857Y-100360714D01*
X72725000Y-100396428D01*
X72546428Y-100396428D01*
X72403571Y-100360714D01*
X72332142Y-100325000D01*
X72296428Y-100289285D01*
X72260714Y-100217857D01*
X72260714Y-100146428D01*
X72296428Y-100075000D01*
X72332142Y-100039285D01*
X72403571Y-100003571D01*
X72546428Y-99967857D01*
X72725000Y-99967857D01*
X72867857Y-100003571D01*
X72939285Y-100039285D01*
X72975000Y-100075000D01*
X73010714Y-100146428D01*
X72332142Y-100717857D02*
X72296428Y-100753571D01*
X72260714Y-100717857D01*
X72296428Y-100682142D01*
X72332142Y-100717857D01*
X72260714Y-100717857D01*
X73010714Y-101217857D02*
X73010714Y-101289285D01*
X72975000Y-101360714D01*
X72939285Y-101396428D01*
X72867857Y-101432142D01*
X72725000Y-101467857D01*
X72546428Y-101467857D01*
X72403571Y-101432142D01*
X72332142Y-101396428D01*
X72296428Y-101360714D01*
X72260714Y-101289285D01*
X72260714Y-101217857D01*
X72296428Y-101146428D01*
X72332142Y-101110714D01*
X72403571Y-101075000D01*
X72546428Y-101039285D01*
X72725000Y-101039285D01*
X72867857Y-101075000D01*
X72939285Y-101110714D01*
X72975000Y-101146428D01*
X73010714Y-101217857D01*
X73010714Y-101717857D02*
X73010714Y-102182142D01*
X72725000Y-101932142D01*
X72725000Y-102039285D01*
X72689285Y-102110714D01*
X72653571Y-102146428D01*
X72582142Y-102182142D01*
X72403571Y-102182142D01*
X72332142Y-102146428D01*
X72296428Y-102110714D01*
X72260714Y-102039285D01*
X72260714Y-101825000D01*
X72296428Y-101753571D01*
X72332142Y-101717857D01*
X70960714Y-99253571D02*
X71710714Y-99253571D01*
X71710714Y-99539285D01*
X71675000Y-99610714D01*
X71639285Y-99646428D01*
X71567857Y-99682142D01*
X71460714Y-99682142D01*
X71389285Y-99646428D01*
X71353571Y-99610714D01*
X71317857Y-99539285D01*
X71317857Y-99253571D01*
X71710714Y-100146428D02*
X71710714Y-100217857D01*
X71675000Y-100289285D01*
X71639285Y-100325000D01*
X71567857Y-100360714D01*
X71425000Y-100396428D01*
X71246428Y-100396428D01*
X71103571Y-100360714D01*
X71032142Y-100325000D01*
X70996428Y-100289285D01*
X70960714Y-100217857D01*
X70960714Y-100146428D01*
X70996428Y-100075000D01*
X71032142Y-100039285D01*
X71103571Y-100003571D01*
X71246428Y-99967857D01*
X71425000Y-99967857D01*
X71567857Y-100003571D01*
X71639285Y-100039285D01*
X71675000Y-100075000D01*
X71710714Y-100146428D01*
X71032142Y-100717857D02*
X70996428Y-100753571D01*
X70960714Y-100717857D01*
X70996428Y-100682142D01*
X71032142Y-100717857D01*
X70960714Y-100717857D01*
X71710714Y-101217857D02*
X71710714Y-101289285D01*
X71675000Y-101360714D01*
X71639285Y-101396428D01*
X71567857Y-101432142D01*
X71425000Y-101467857D01*
X71246428Y-101467857D01*
X71103571Y-101432142D01*
X71032142Y-101396428D01*
X70996428Y-101360714D01*
X70960714Y-101289285D01*
X70960714Y-101217857D01*
X70996428Y-101146428D01*
X71032142Y-101110714D01*
X71103571Y-101075000D01*
X71246428Y-101039285D01*
X71425000Y-101039285D01*
X71567857Y-101075000D01*
X71639285Y-101110714D01*
X71675000Y-101146428D01*
X71710714Y-101217857D01*
X71639285Y-101753571D02*
X71675000Y-101789285D01*
X71710714Y-101860714D01*
X71710714Y-102039285D01*
X71675000Y-102110714D01*
X71639285Y-102146428D01*
X71567857Y-102182142D01*
X71496428Y-102182142D01*
X71389285Y-102146428D01*
X70960714Y-101717857D01*
X70960714Y-102182142D01*
X76060714Y-99253571D02*
X76810714Y-99253571D01*
X76810714Y-99539285D01*
X76775000Y-99610714D01*
X76739285Y-99646428D01*
X76667857Y-99682142D01*
X76560714Y-99682142D01*
X76489285Y-99646428D01*
X76453571Y-99610714D01*
X76417857Y-99539285D01*
X76417857Y-99253571D01*
X76810714Y-100146428D02*
X76810714Y-100217857D01*
X76775000Y-100289285D01*
X76739285Y-100325000D01*
X76667857Y-100360714D01*
X76525000Y-100396428D01*
X76346428Y-100396428D01*
X76203571Y-100360714D01*
X76132142Y-100325000D01*
X76096428Y-100289285D01*
X76060714Y-100217857D01*
X76060714Y-100146428D01*
X76096428Y-100075000D01*
X76132142Y-100039285D01*
X76203571Y-100003571D01*
X76346428Y-99967857D01*
X76525000Y-99967857D01*
X76667857Y-100003571D01*
X76739285Y-100039285D01*
X76775000Y-100075000D01*
X76810714Y-100146428D01*
X76132142Y-100717857D02*
X76096428Y-100753571D01*
X76060714Y-100717857D01*
X76096428Y-100682142D01*
X76132142Y-100717857D01*
X76060714Y-100717857D01*
X76810714Y-101217857D02*
X76810714Y-101289285D01*
X76775000Y-101360714D01*
X76739285Y-101396428D01*
X76667857Y-101432142D01*
X76525000Y-101467857D01*
X76346428Y-101467857D01*
X76203571Y-101432142D01*
X76132142Y-101396428D01*
X76096428Y-101360714D01*
X76060714Y-101289285D01*
X76060714Y-101217857D01*
X76096428Y-101146428D01*
X76132142Y-101110714D01*
X76203571Y-101075000D01*
X76346428Y-101039285D01*
X76525000Y-101039285D01*
X76667857Y-101075000D01*
X76739285Y-101110714D01*
X76775000Y-101146428D01*
X76810714Y-101217857D01*
X76810714Y-102110714D02*
X76810714Y-101967857D01*
X76775000Y-101896428D01*
X76739285Y-101860714D01*
X76632142Y-101789285D01*
X76489285Y-101753571D01*
X76203571Y-101753571D01*
X76132142Y-101789285D01*
X76096428Y-101825000D01*
X76060714Y-101896428D01*
X76060714Y-102039285D01*
X76096428Y-102110714D01*
X76132142Y-102146428D01*
X76203571Y-102182142D01*
X76382142Y-102182142D01*
X76453571Y-102146428D01*
X76489285Y-102110714D01*
X76525000Y-102039285D01*
X76525000Y-101896428D01*
X76489285Y-101825000D01*
X76453571Y-101789285D01*
X76382142Y-101753571D01*
X73560714Y-99253571D02*
X74310714Y-99253571D01*
X74310714Y-99539285D01*
X74275000Y-99610714D01*
X74239285Y-99646428D01*
X74167857Y-99682142D01*
X74060714Y-99682142D01*
X73989285Y-99646428D01*
X73953571Y-99610714D01*
X73917857Y-99539285D01*
X73917857Y-99253571D01*
X74310714Y-100146428D02*
X74310714Y-100217857D01*
X74275000Y-100289285D01*
X74239285Y-100325000D01*
X74167857Y-100360714D01*
X74025000Y-100396428D01*
X73846428Y-100396428D01*
X73703571Y-100360714D01*
X73632142Y-100325000D01*
X73596428Y-100289285D01*
X73560714Y-100217857D01*
X73560714Y-100146428D01*
X73596428Y-100075000D01*
X73632142Y-100039285D01*
X73703571Y-100003571D01*
X73846428Y-99967857D01*
X74025000Y-99967857D01*
X74167857Y-100003571D01*
X74239285Y-100039285D01*
X74275000Y-100075000D01*
X74310714Y-100146428D01*
X73632142Y-100717857D02*
X73596428Y-100753571D01*
X73560714Y-100717857D01*
X73596428Y-100682142D01*
X73632142Y-100717857D01*
X73560714Y-100717857D01*
X74310714Y-101217857D02*
X74310714Y-101289285D01*
X74275000Y-101360714D01*
X74239285Y-101396428D01*
X74167857Y-101432142D01*
X74025000Y-101467857D01*
X73846428Y-101467857D01*
X73703571Y-101432142D01*
X73632142Y-101396428D01*
X73596428Y-101360714D01*
X73560714Y-101289285D01*
X73560714Y-101217857D01*
X73596428Y-101146428D01*
X73632142Y-101110714D01*
X73703571Y-101075000D01*
X73846428Y-101039285D01*
X74025000Y-101039285D01*
X74167857Y-101075000D01*
X74239285Y-101110714D01*
X74275000Y-101146428D01*
X74310714Y-101217857D01*
X74060714Y-102110714D02*
X73560714Y-102110714D01*
X74346428Y-101932142D02*
X73810714Y-101753571D01*
X73810714Y-102217857D01*
X74760714Y-99253571D02*
X75510714Y-99253571D01*
X75510714Y-99539285D01*
X75475000Y-99610714D01*
X75439285Y-99646428D01*
X75367857Y-99682142D01*
X75260714Y-99682142D01*
X75189285Y-99646428D01*
X75153571Y-99610714D01*
X75117857Y-99539285D01*
X75117857Y-99253571D01*
X75510714Y-100146428D02*
X75510714Y-100217857D01*
X75475000Y-100289285D01*
X75439285Y-100325000D01*
X75367857Y-100360714D01*
X75225000Y-100396428D01*
X75046428Y-100396428D01*
X74903571Y-100360714D01*
X74832142Y-100325000D01*
X74796428Y-100289285D01*
X74760714Y-100217857D01*
X74760714Y-100146428D01*
X74796428Y-100075000D01*
X74832142Y-100039285D01*
X74903571Y-100003571D01*
X75046428Y-99967857D01*
X75225000Y-99967857D01*
X75367857Y-100003571D01*
X75439285Y-100039285D01*
X75475000Y-100075000D01*
X75510714Y-100146428D01*
X74832142Y-100717857D02*
X74796428Y-100753571D01*
X74760714Y-100717857D01*
X74796428Y-100682142D01*
X74832142Y-100717857D01*
X74760714Y-100717857D01*
X75510714Y-101217857D02*
X75510714Y-101289285D01*
X75475000Y-101360714D01*
X75439285Y-101396428D01*
X75367857Y-101432142D01*
X75225000Y-101467857D01*
X75046428Y-101467857D01*
X74903571Y-101432142D01*
X74832142Y-101396428D01*
X74796428Y-101360714D01*
X74760714Y-101289285D01*
X74760714Y-101217857D01*
X74796428Y-101146428D01*
X74832142Y-101110714D01*
X74903571Y-101075000D01*
X75046428Y-101039285D01*
X75225000Y-101039285D01*
X75367857Y-101075000D01*
X75439285Y-101110714D01*
X75475000Y-101146428D01*
X75510714Y-101217857D01*
X75510714Y-102146428D02*
X75510714Y-101789285D01*
X75153571Y-101753571D01*
X75189285Y-101789285D01*
X75225000Y-101860714D01*
X75225000Y-102039285D01*
X75189285Y-102110714D01*
X75153571Y-102146428D01*
X75082142Y-102182142D01*
X74903571Y-102182142D01*
X74832142Y-102146428D01*
X74796428Y-102110714D01*
X74760714Y-102039285D01*
X74760714Y-101860714D01*
X74796428Y-101789285D01*
X74832142Y-101753571D01*
X79860714Y-99253571D02*
X80610714Y-99253571D01*
X80610714Y-99539285D01*
X80575000Y-99610714D01*
X80539285Y-99646428D01*
X80467857Y-99682142D01*
X80360714Y-99682142D01*
X80289285Y-99646428D01*
X80253571Y-99610714D01*
X80217857Y-99539285D01*
X80217857Y-99253571D01*
X80610714Y-100146428D02*
X80610714Y-100217857D01*
X80575000Y-100289285D01*
X80539285Y-100325000D01*
X80467857Y-100360714D01*
X80325000Y-100396428D01*
X80146428Y-100396428D01*
X80003571Y-100360714D01*
X79932142Y-100325000D01*
X79896428Y-100289285D01*
X79860714Y-100217857D01*
X79860714Y-100146428D01*
X79896428Y-100075000D01*
X79932142Y-100039285D01*
X80003571Y-100003571D01*
X80146428Y-99967857D01*
X80325000Y-99967857D01*
X80467857Y-100003571D01*
X80539285Y-100039285D01*
X80575000Y-100075000D01*
X80610714Y-100146428D01*
X79932142Y-100717857D02*
X79896428Y-100753571D01*
X79860714Y-100717857D01*
X79896428Y-100682142D01*
X79932142Y-100717857D01*
X79860714Y-100717857D01*
X80610714Y-101217857D02*
X80610714Y-101289285D01*
X80575000Y-101360714D01*
X80539285Y-101396428D01*
X80467857Y-101432142D01*
X80325000Y-101467857D01*
X80146428Y-101467857D01*
X80003571Y-101432142D01*
X79932142Y-101396428D01*
X79896428Y-101360714D01*
X79860714Y-101289285D01*
X79860714Y-101217857D01*
X79896428Y-101146428D01*
X79932142Y-101110714D01*
X80003571Y-101075000D01*
X80146428Y-101039285D01*
X80325000Y-101039285D01*
X80467857Y-101075000D01*
X80539285Y-101110714D01*
X80575000Y-101146428D01*
X80610714Y-101217857D01*
X79860714Y-101825000D02*
X79860714Y-101967857D01*
X79896428Y-102039285D01*
X79932142Y-102075000D01*
X80039285Y-102146428D01*
X80182142Y-102182142D01*
X80467857Y-102182142D01*
X80539285Y-102146428D01*
X80575000Y-102110714D01*
X80610714Y-102039285D01*
X80610714Y-101896428D01*
X80575000Y-101825000D01*
X80539285Y-101789285D01*
X80467857Y-101753571D01*
X80289285Y-101753571D01*
X80217857Y-101789285D01*
X80182142Y-101825000D01*
X80146428Y-101896428D01*
X80146428Y-102039285D01*
X80182142Y-102110714D01*
X80217857Y-102146428D01*
X80289285Y-102182142D01*
X77360714Y-99253571D02*
X78110714Y-99253571D01*
X78110714Y-99539285D01*
X78075000Y-99610714D01*
X78039285Y-99646428D01*
X77967857Y-99682142D01*
X77860714Y-99682142D01*
X77789285Y-99646428D01*
X77753571Y-99610714D01*
X77717857Y-99539285D01*
X77717857Y-99253571D01*
X78110714Y-100146428D02*
X78110714Y-100217857D01*
X78075000Y-100289285D01*
X78039285Y-100325000D01*
X77967857Y-100360714D01*
X77825000Y-100396428D01*
X77646428Y-100396428D01*
X77503571Y-100360714D01*
X77432142Y-100325000D01*
X77396428Y-100289285D01*
X77360714Y-100217857D01*
X77360714Y-100146428D01*
X77396428Y-100075000D01*
X77432142Y-100039285D01*
X77503571Y-100003571D01*
X77646428Y-99967857D01*
X77825000Y-99967857D01*
X77967857Y-100003571D01*
X78039285Y-100039285D01*
X78075000Y-100075000D01*
X78110714Y-100146428D01*
X77432142Y-100717857D02*
X77396428Y-100753571D01*
X77360714Y-100717857D01*
X77396428Y-100682142D01*
X77432142Y-100717857D01*
X77360714Y-100717857D01*
X78110714Y-101217857D02*
X78110714Y-101289285D01*
X78075000Y-101360714D01*
X78039285Y-101396428D01*
X77967857Y-101432142D01*
X77825000Y-101467857D01*
X77646428Y-101467857D01*
X77503571Y-101432142D01*
X77432142Y-101396428D01*
X77396428Y-101360714D01*
X77360714Y-101289285D01*
X77360714Y-101217857D01*
X77396428Y-101146428D01*
X77432142Y-101110714D01*
X77503571Y-101075000D01*
X77646428Y-101039285D01*
X77825000Y-101039285D01*
X77967857Y-101075000D01*
X78039285Y-101110714D01*
X78075000Y-101146428D01*
X78110714Y-101217857D01*
X78110714Y-101717857D02*
X78110714Y-102217857D01*
X77360714Y-101896428D01*
X78560714Y-99253571D02*
X79310714Y-99253571D01*
X79310714Y-99539285D01*
X79275000Y-99610714D01*
X79239285Y-99646428D01*
X79167857Y-99682142D01*
X79060714Y-99682142D01*
X78989285Y-99646428D01*
X78953571Y-99610714D01*
X78917857Y-99539285D01*
X78917857Y-99253571D01*
X79310714Y-100146428D02*
X79310714Y-100217857D01*
X79275000Y-100289285D01*
X79239285Y-100325000D01*
X79167857Y-100360714D01*
X79025000Y-100396428D01*
X78846428Y-100396428D01*
X78703571Y-100360714D01*
X78632142Y-100325000D01*
X78596428Y-100289285D01*
X78560714Y-100217857D01*
X78560714Y-100146428D01*
X78596428Y-100075000D01*
X78632142Y-100039285D01*
X78703571Y-100003571D01*
X78846428Y-99967857D01*
X79025000Y-99967857D01*
X79167857Y-100003571D01*
X79239285Y-100039285D01*
X79275000Y-100075000D01*
X79310714Y-100146428D01*
X78632142Y-100717857D02*
X78596428Y-100753571D01*
X78560714Y-100717857D01*
X78596428Y-100682142D01*
X78632142Y-100717857D01*
X78560714Y-100717857D01*
X79310714Y-101217857D02*
X79310714Y-101289285D01*
X79275000Y-101360714D01*
X79239285Y-101396428D01*
X79167857Y-101432142D01*
X79025000Y-101467857D01*
X78846428Y-101467857D01*
X78703571Y-101432142D01*
X78632142Y-101396428D01*
X78596428Y-101360714D01*
X78560714Y-101289285D01*
X78560714Y-101217857D01*
X78596428Y-101146428D01*
X78632142Y-101110714D01*
X78703571Y-101075000D01*
X78846428Y-101039285D01*
X79025000Y-101039285D01*
X79167857Y-101075000D01*
X79239285Y-101110714D01*
X79275000Y-101146428D01*
X79310714Y-101217857D01*
X78989285Y-101896428D02*
X79025000Y-101825000D01*
X79060714Y-101789285D01*
X79132142Y-101753571D01*
X79167857Y-101753571D01*
X79239285Y-101789285D01*
X79275000Y-101825000D01*
X79310714Y-101896428D01*
X79310714Y-102039285D01*
X79275000Y-102110714D01*
X79239285Y-102146428D01*
X79167857Y-102182142D01*
X79132142Y-102182142D01*
X79060714Y-102146428D01*
X79025000Y-102110714D01*
X78989285Y-102039285D01*
X78989285Y-101896428D01*
X78953571Y-101825000D01*
X78917857Y-101789285D01*
X78846428Y-101753571D01*
X78703571Y-101753571D01*
X78632142Y-101789285D01*
X78596428Y-101825000D01*
X78560714Y-101896428D01*
X78560714Y-102039285D01*
X78596428Y-102110714D01*
X78632142Y-102146428D01*
X78703571Y-102182142D01*
X78846428Y-102182142D01*
X78917857Y-102146428D01*
X78953571Y-102110714D01*
X78989285Y-102039285D01*
X83660714Y-99253571D02*
X84410714Y-99253571D01*
X84410714Y-99539285D01*
X84375000Y-99610714D01*
X84339285Y-99646428D01*
X84267857Y-99682142D01*
X84160714Y-99682142D01*
X84089285Y-99646428D01*
X84053571Y-99610714D01*
X84017857Y-99539285D01*
X84017857Y-99253571D01*
X84410714Y-100146428D02*
X84410714Y-100217857D01*
X84375000Y-100289285D01*
X84339285Y-100325000D01*
X84267857Y-100360714D01*
X84125000Y-100396428D01*
X83946428Y-100396428D01*
X83803571Y-100360714D01*
X83732142Y-100325000D01*
X83696428Y-100289285D01*
X83660714Y-100217857D01*
X83660714Y-100146428D01*
X83696428Y-100075000D01*
X83732142Y-100039285D01*
X83803571Y-100003571D01*
X83946428Y-99967857D01*
X84125000Y-99967857D01*
X84267857Y-100003571D01*
X84339285Y-100039285D01*
X84375000Y-100075000D01*
X84410714Y-100146428D01*
X83732142Y-100717857D02*
X83696428Y-100753571D01*
X83660714Y-100717857D01*
X83696428Y-100682142D01*
X83732142Y-100717857D01*
X83660714Y-100717857D01*
X83660714Y-101467857D02*
X83660714Y-101039285D01*
X83660714Y-101253571D02*
X84410714Y-101253571D01*
X84303571Y-101182142D01*
X84232142Y-101110714D01*
X84196428Y-101039285D01*
X84339285Y-101753571D02*
X84375000Y-101789285D01*
X84410714Y-101860714D01*
X84410714Y-102039285D01*
X84375000Y-102110714D01*
X84339285Y-102146428D01*
X84267857Y-102182142D01*
X84196428Y-102182142D01*
X84089285Y-102146428D01*
X83660714Y-101717857D01*
X83660714Y-102182142D01*
X81160714Y-99253571D02*
X81910714Y-99253571D01*
X81910714Y-99539285D01*
X81875000Y-99610714D01*
X81839285Y-99646428D01*
X81767857Y-99682142D01*
X81660714Y-99682142D01*
X81589285Y-99646428D01*
X81553571Y-99610714D01*
X81517857Y-99539285D01*
X81517857Y-99253571D01*
X81910714Y-100146428D02*
X81910714Y-100217857D01*
X81875000Y-100289285D01*
X81839285Y-100325000D01*
X81767857Y-100360714D01*
X81625000Y-100396428D01*
X81446428Y-100396428D01*
X81303571Y-100360714D01*
X81232142Y-100325000D01*
X81196428Y-100289285D01*
X81160714Y-100217857D01*
X81160714Y-100146428D01*
X81196428Y-100075000D01*
X81232142Y-100039285D01*
X81303571Y-100003571D01*
X81446428Y-99967857D01*
X81625000Y-99967857D01*
X81767857Y-100003571D01*
X81839285Y-100039285D01*
X81875000Y-100075000D01*
X81910714Y-100146428D01*
X81232142Y-100717857D02*
X81196428Y-100753571D01*
X81160714Y-100717857D01*
X81196428Y-100682142D01*
X81232142Y-100717857D01*
X81160714Y-100717857D01*
X81160714Y-101467857D02*
X81160714Y-101039285D01*
X81160714Y-101253571D02*
X81910714Y-101253571D01*
X81803571Y-101182142D01*
X81732142Y-101110714D01*
X81696428Y-101039285D01*
X81910714Y-101932142D02*
X81910714Y-102003571D01*
X81875000Y-102075000D01*
X81839285Y-102110714D01*
X81767857Y-102146428D01*
X81625000Y-102182142D01*
X81446428Y-102182142D01*
X81303571Y-102146428D01*
X81232142Y-102110714D01*
X81196428Y-102075000D01*
X81160714Y-102003571D01*
X81160714Y-101932142D01*
X81196428Y-101860714D01*
X81232142Y-101825000D01*
X81303571Y-101789285D01*
X81446428Y-101753571D01*
X81625000Y-101753571D01*
X81767857Y-101789285D01*
X81839285Y-101825000D01*
X81875000Y-101860714D01*
X81910714Y-101932142D01*
X82360714Y-99253571D02*
X83110714Y-99253571D01*
X83110714Y-99539285D01*
X83075000Y-99610714D01*
X83039285Y-99646428D01*
X82967857Y-99682142D01*
X82860714Y-99682142D01*
X82789285Y-99646428D01*
X82753571Y-99610714D01*
X82717857Y-99539285D01*
X82717857Y-99253571D01*
X83110714Y-100146428D02*
X83110714Y-100217857D01*
X83075000Y-100289285D01*
X83039285Y-100325000D01*
X82967857Y-100360714D01*
X82825000Y-100396428D01*
X82646428Y-100396428D01*
X82503571Y-100360714D01*
X82432142Y-100325000D01*
X82396428Y-100289285D01*
X82360714Y-100217857D01*
X82360714Y-100146428D01*
X82396428Y-100075000D01*
X82432142Y-100039285D01*
X82503571Y-100003571D01*
X82646428Y-99967857D01*
X82825000Y-99967857D01*
X82967857Y-100003571D01*
X83039285Y-100039285D01*
X83075000Y-100075000D01*
X83110714Y-100146428D01*
X82432142Y-100717857D02*
X82396428Y-100753571D01*
X82360714Y-100717857D01*
X82396428Y-100682142D01*
X82432142Y-100717857D01*
X82360714Y-100717857D01*
X82360714Y-101467857D02*
X82360714Y-101039285D01*
X82360714Y-101253571D02*
X83110714Y-101253571D01*
X83003571Y-101182142D01*
X82932142Y-101110714D01*
X82896428Y-101039285D01*
X82360714Y-102182142D02*
X82360714Y-101753571D01*
X82360714Y-101967857D02*
X83110714Y-101967857D01*
X83003571Y-101896428D01*
X82932142Y-101825000D01*
X82896428Y-101753571D01*
X87553571Y-95139285D02*
X87553571Y-94389285D01*
X87839285Y-94389285D01*
X87910714Y-94425000D01*
X87946428Y-94460714D01*
X87982142Y-94532142D01*
X87982142Y-94639285D01*
X87946428Y-94710714D01*
X87910714Y-94746428D01*
X87839285Y-94782142D01*
X87553571Y-94782142D01*
X88446428Y-94389285D02*
X88517857Y-94389285D01*
X88589285Y-94425000D01*
X88625000Y-94460714D01*
X88660714Y-94532142D01*
X88696428Y-94675000D01*
X88696428Y-94853571D01*
X88660714Y-94996428D01*
X88625000Y-95067857D01*
X88589285Y-95103571D01*
X88517857Y-95139285D01*
X88446428Y-95139285D01*
X88375000Y-95103571D01*
X88339285Y-95067857D01*
X88303571Y-94996428D01*
X88267857Y-94853571D01*
X88267857Y-94675000D01*
X88303571Y-94532142D01*
X88339285Y-94460714D01*
X88375000Y-94425000D01*
X88446428Y-94389285D01*
X89017857Y-95067857D02*
X89053571Y-95103571D01*
X89017857Y-95139285D01*
X88982142Y-95103571D01*
X89017857Y-95067857D01*
X89017857Y-95139285D01*
X89767857Y-95139285D02*
X89339285Y-95139285D01*
X89553571Y-95139285D02*
X89553571Y-94389285D01*
X89482142Y-94496428D01*
X89410714Y-94567857D01*
X89339285Y-94603571D01*
X90410714Y-94639285D02*
X90410714Y-95139285D01*
X90232142Y-94353571D02*
X90053571Y-94889285D01*
X90517857Y-94889285D01*
X87553571Y-96339285D02*
X87553571Y-95589285D01*
X87839285Y-95589285D01*
X87910714Y-95625000D01*
X87946428Y-95660714D01*
X87982142Y-95732142D01*
X87982142Y-95839285D01*
X87946428Y-95910714D01*
X87910714Y-95946428D01*
X87839285Y-95982142D01*
X87553571Y-95982142D01*
X88446428Y-95589285D02*
X88517857Y-95589285D01*
X88589285Y-95625000D01*
X88625000Y-95660714D01*
X88660714Y-95732142D01*
X88696428Y-95875000D01*
X88696428Y-96053571D01*
X88660714Y-96196428D01*
X88625000Y-96267857D01*
X88589285Y-96303571D01*
X88517857Y-96339285D01*
X88446428Y-96339285D01*
X88375000Y-96303571D01*
X88339285Y-96267857D01*
X88303571Y-96196428D01*
X88267857Y-96053571D01*
X88267857Y-95875000D01*
X88303571Y-95732142D01*
X88339285Y-95660714D01*
X88375000Y-95625000D01*
X88446428Y-95589285D01*
X89017857Y-96267857D02*
X89053571Y-96303571D01*
X89017857Y-96339285D01*
X88982142Y-96303571D01*
X89017857Y-96267857D01*
X89017857Y-96339285D01*
X89767857Y-96339285D02*
X89339285Y-96339285D01*
X89553571Y-96339285D02*
X89553571Y-95589285D01*
X89482142Y-95696428D01*
X89410714Y-95767857D01*
X89339285Y-95803571D01*
X90017857Y-95589285D02*
X90482142Y-95589285D01*
X90232142Y-95875000D01*
X90339285Y-95875000D01*
X90410714Y-95910714D01*
X90446428Y-95946428D01*
X90482142Y-96017857D01*
X90482142Y-96196428D01*
X90446428Y-96267857D01*
X90410714Y-96303571D01*
X90339285Y-96339285D01*
X90125000Y-96339285D01*
X90053571Y-96303571D01*
X90017857Y-96267857D01*
X87553571Y-91339285D02*
X87553571Y-90589285D01*
X87839285Y-90589285D01*
X87910714Y-90625000D01*
X87946428Y-90660714D01*
X87982142Y-90732142D01*
X87982142Y-90839285D01*
X87946428Y-90910714D01*
X87910714Y-90946428D01*
X87839285Y-90982142D01*
X87553571Y-90982142D01*
X88446428Y-90589285D02*
X88517857Y-90589285D01*
X88589285Y-90625000D01*
X88625000Y-90660714D01*
X88660714Y-90732142D01*
X88696428Y-90875000D01*
X88696428Y-91053571D01*
X88660714Y-91196428D01*
X88625000Y-91267857D01*
X88589285Y-91303571D01*
X88517857Y-91339285D01*
X88446428Y-91339285D01*
X88375000Y-91303571D01*
X88339285Y-91267857D01*
X88303571Y-91196428D01*
X88267857Y-91053571D01*
X88267857Y-90875000D01*
X88303571Y-90732142D01*
X88339285Y-90660714D01*
X88375000Y-90625000D01*
X88446428Y-90589285D01*
X89017857Y-91267857D02*
X89053571Y-91303571D01*
X89017857Y-91339285D01*
X88982142Y-91303571D01*
X89017857Y-91267857D01*
X89017857Y-91339285D01*
X89767857Y-91339285D02*
X89339285Y-91339285D01*
X89553571Y-91339285D02*
X89553571Y-90589285D01*
X89482142Y-90696428D01*
X89410714Y-90767857D01*
X89339285Y-90803571D01*
X90017857Y-90589285D02*
X90517857Y-90589285D01*
X90196428Y-91339285D01*
X87553571Y-92539285D02*
X87553571Y-91789285D01*
X87839285Y-91789285D01*
X87910714Y-91825000D01*
X87946428Y-91860714D01*
X87982142Y-91932142D01*
X87982142Y-92039285D01*
X87946428Y-92110714D01*
X87910714Y-92146428D01*
X87839285Y-92182142D01*
X87553571Y-92182142D01*
X88446428Y-91789285D02*
X88517857Y-91789285D01*
X88589285Y-91825000D01*
X88625000Y-91860714D01*
X88660714Y-91932142D01*
X88696428Y-92075000D01*
X88696428Y-92253571D01*
X88660714Y-92396428D01*
X88625000Y-92467857D01*
X88589285Y-92503571D01*
X88517857Y-92539285D01*
X88446428Y-92539285D01*
X88375000Y-92503571D01*
X88339285Y-92467857D01*
X88303571Y-92396428D01*
X88267857Y-92253571D01*
X88267857Y-92075000D01*
X88303571Y-91932142D01*
X88339285Y-91860714D01*
X88375000Y-91825000D01*
X88446428Y-91789285D01*
X89017857Y-92467857D02*
X89053571Y-92503571D01*
X89017857Y-92539285D01*
X88982142Y-92503571D01*
X89017857Y-92467857D01*
X89017857Y-92539285D01*
X89767857Y-92539285D02*
X89339285Y-92539285D01*
X89553571Y-92539285D02*
X89553571Y-91789285D01*
X89482142Y-91896428D01*
X89410714Y-91967857D01*
X89339285Y-92003571D01*
X90410714Y-91789285D02*
X90267857Y-91789285D01*
X90196428Y-91825000D01*
X90160714Y-91860714D01*
X90089285Y-91967857D01*
X90053571Y-92110714D01*
X90053571Y-92396428D01*
X90089285Y-92467857D01*
X90125000Y-92503571D01*
X90196428Y-92539285D01*
X90339285Y-92539285D01*
X90410714Y-92503571D01*
X90446428Y-92467857D01*
X90482142Y-92396428D01*
X90482142Y-92217857D01*
X90446428Y-92146428D01*
X90410714Y-92110714D01*
X90339285Y-92075000D01*
X90196428Y-92075000D01*
X90125000Y-92110714D01*
X90089285Y-92146428D01*
X90053571Y-92217857D01*
X87553571Y-93839285D02*
X87553571Y-93089285D01*
X87839285Y-93089285D01*
X87910714Y-93125000D01*
X87946428Y-93160714D01*
X87982142Y-93232142D01*
X87982142Y-93339285D01*
X87946428Y-93410714D01*
X87910714Y-93446428D01*
X87839285Y-93482142D01*
X87553571Y-93482142D01*
X88446428Y-93089285D02*
X88517857Y-93089285D01*
X88589285Y-93125000D01*
X88625000Y-93160714D01*
X88660714Y-93232142D01*
X88696428Y-93375000D01*
X88696428Y-93553571D01*
X88660714Y-93696428D01*
X88625000Y-93767857D01*
X88589285Y-93803571D01*
X88517857Y-93839285D01*
X88446428Y-93839285D01*
X88375000Y-93803571D01*
X88339285Y-93767857D01*
X88303571Y-93696428D01*
X88267857Y-93553571D01*
X88267857Y-93375000D01*
X88303571Y-93232142D01*
X88339285Y-93160714D01*
X88375000Y-93125000D01*
X88446428Y-93089285D01*
X89017857Y-93767857D02*
X89053571Y-93803571D01*
X89017857Y-93839285D01*
X88982142Y-93803571D01*
X89017857Y-93767857D01*
X89017857Y-93839285D01*
X89767857Y-93839285D02*
X89339285Y-93839285D01*
X89553571Y-93839285D02*
X89553571Y-93089285D01*
X89482142Y-93196428D01*
X89410714Y-93267857D01*
X89339285Y-93303571D01*
X90446428Y-93089285D02*
X90089285Y-93089285D01*
X90053571Y-93446428D01*
X90089285Y-93410714D01*
X90160714Y-93375000D01*
X90339285Y-93375000D01*
X90410714Y-93410714D01*
X90446428Y-93446428D01*
X90482142Y-93517857D01*
X90482142Y-93696428D01*
X90446428Y-93767857D01*
X90410714Y-93803571D01*
X90339285Y-93839285D01*
X90160714Y-93839285D01*
X90089285Y-93803571D01*
X90053571Y-93767857D01*
X87553571Y-87439285D02*
X87553571Y-86689285D01*
X87839285Y-86689285D01*
X87910714Y-86725000D01*
X87946428Y-86760714D01*
X87982142Y-86832142D01*
X87982142Y-86939285D01*
X87946428Y-87010714D01*
X87910714Y-87046428D01*
X87839285Y-87082142D01*
X87553571Y-87082142D01*
X88446428Y-86689285D02*
X88517857Y-86689285D01*
X88589285Y-86725000D01*
X88625000Y-86760714D01*
X88660714Y-86832142D01*
X88696428Y-86975000D01*
X88696428Y-87153571D01*
X88660714Y-87296428D01*
X88625000Y-87367857D01*
X88589285Y-87403571D01*
X88517857Y-87439285D01*
X88446428Y-87439285D01*
X88375000Y-87403571D01*
X88339285Y-87367857D01*
X88303571Y-87296428D01*
X88267857Y-87153571D01*
X88267857Y-86975000D01*
X88303571Y-86832142D01*
X88339285Y-86760714D01*
X88375000Y-86725000D01*
X88446428Y-86689285D01*
X89017857Y-87367857D02*
X89053571Y-87403571D01*
X89017857Y-87439285D01*
X88982142Y-87403571D01*
X89017857Y-87367857D01*
X89017857Y-87439285D01*
X89339285Y-86760714D02*
X89375000Y-86725000D01*
X89446428Y-86689285D01*
X89625000Y-86689285D01*
X89696428Y-86725000D01*
X89732142Y-86760714D01*
X89767857Y-86832142D01*
X89767857Y-86903571D01*
X89732142Y-87010714D01*
X89303571Y-87439285D01*
X89767857Y-87439285D01*
X90232142Y-86689285D02*
X90303571Y-86689285D01*
X90375000Y-86725000D01*
X90410714Y-86760714D01*
X90446428Y-86832142D01*
X90482142Y-86975000D01*
X90482142Y-87153571D01*
X90446428Y-87296428D01*
X90410714Y-87367857D01*
X90375000Y-87403571D01*
X90303571Y-87439285D01*
X90232142Y-87439285D01*
X90160714Y-87403571D01*
X90125000Y-87367857D01*
X90089285Y-87296428D01*
X90053571Y-87153571D01*
X90053571Y-86975000D01*
X90089285Y-86832142D01*
X90125000Y-86760714D01*
X90160714Y-86725000D01*
X90232142Y-86689285D01*
X87553571Y-88639285D02*
X87553571Y-87889285D01*
X87839285Y-87889285D01*
X87910714Y-87925000D01*
X87946428Y-87960714D01*
X87982142Y-88032142D01*
X87982142Y-88139285D01*
X87946428Y-88210714D01*
X87910714Y-88246428D01*
X87839285Y-88282142D01*
X87553571Y-88282142D01*
X88446428Y-87889285D02*
X88517857Y-87889285D01*
X88589285Y-87925000D01*
X88625000Y-87960714D01*
X88660714Y-88032142D01*
X88696428Y-88175000D01*
X88696428Y-88353571D01*
X88660714Y-88496428D01*
X88625000Y-88567857D01*
X88589285Y-88603571D01*
X88517857Y-88639285D01*
X88446428Y-88639285D01*
X88375000Y-88603571D01*
X88339285Y-88567857D01*
X88303571Y-88496428D01*
X88267857Y-88353571D01*
X88267857Y-88175000D01*
X88303571Y-88032142D01*
X88339285Y-87960714D01*
X88375000Y-87925000D01*
X88446428Y-87889285D01*
X89017857Y-88567857D02*
X89053571Y-88603571D01*
X89017857Y-88639285D01*
X88982142Y-88603571D01*
X89017857Y-88567857D01*
X89017857Y-88639285D01*
X89767857Y-88639285D02*
X89339285Y-88639285D01*
X89553571Y-88639285D02*
X89553571Y-87889285D01*
X89482142Y-87996428D01*
X89410714Y-88067857D01*
X89339285Y-88103571D01*
X90125000Y-88639285D02*
X90267857Y-88639285D01*
X90339285Y-88603571D01*
X90375000Y-88567857D01*
X90446428Y-88460714D01*
X90482142Y-88317857D01*
X90482142Y-88032142D01*
X90446428Y-87960714D01*
X90410714Y-87925000D01*
X90339285Y-87889285D01*
X90196428Y-87889285D01*
X90125000Y-87925000D01*
X90089285Y-87960714D01*
X90053571Y-88032142D01*
X90053571Y-88210714D01*
X90089285Y-88282142D01*
X90125000Y-88317857D01*
X90196428Y-88353571D01*
X90339285Y-88353571D01*
X90410714Y-88317857D01*
X90446428Y-88282142D01*
X90482142Y-88210714D01*
X87553571Y-89939285D02*
X87553571Y-89189285D01*
X87839285Y-89189285D01*
X87910714Y-89225000D01*
X87946428Y-89260714D01*
X87982142Y-89332142D01*
X87982142Y-89439285D01*
X87946428Y-89510714D01*
X87910714Y-89546428D01*
X87839285Y-89582142D01*
X87553571Y-89582142D01*
X88446428Y-89189285D02*
X88517857Y-89189285D01*
X88589285Y-89225000D01*
X88625000Y-89260714D01*
X88660714Y-89332142D01*
X88696428Y-89475000D01*
X88696428Y-89653571D01*
X88660714Y-89796428D01*
X88625000Y-89867857D01*
X88589285Y-89903571D01*
X88517857Y-89939285D01*
X88446428Y-89939285D01*
X88375000Y-89903571D01*
X88339285Y-89867857D01*
X88303571Y-89796428D01*
X88267857Y-89653571D01*
X88267857Y-89475000D01*
X88303571Y-89332142D01*
X88339285Y-89260714D01*
X88375000Y-89225000D01*
X88446428Y-89189285D01*
X89017857Y-89867857D02*
X89053571Y-89903571D01*
X89017857Y-89939285D01*
X88982142Y-89903571D01*
X89017857Y-89867857D01*
X89017857Y-89939285D01*
X89767857Y-89939285D02*
X89339285Y-89939285D01*
X89553571Y-89939285D02*
X89553571Y-89189285D01*
X89482142Y-89296428D01*
X89410714Y-89367857D01*
X89339285Y-89403571D01*
X90196428Y-89510714D02*
X90125000Y-89475000D01*
X90089285Y-89439285D01*
X90053571Y-89367857D01*
X90053571Y-89332142D01*
X90089285Y-89260714D01*
X90125000Y-89225000D01*
X90196428Y-89189285D01*
X90339285Y-89189285D01*
X90410714Y-89225000D01*
X90446428Y-89260714D01*
X90482142Y-89332142D01*
X90482142Y-89367857D01*
X90446428Y-89439285D01*
X90410714Y-89475000D01*
X90339285Y-89510714D01*
X90196428Y-89510714D01*
X90125000Y-89546428D01*
X90089285Y-89582142D01*
X90053571Y-89653571D01*
X90053571Y-89796428D01*
X90089285Y-89867857D01*
X90125000Y-89903571D01*
X90196428Y-89939285D01*
X90339285Y-89939285D01*
X90410714Y-89903571D01*
X90446428Y-89867857D01*
X90482142Y-89796428D01*
X90482142Y-89653571D01*
X90446428Y-89582142D01*
X90410714Y-89546428D01*
X90339285Y-89510714D01*
X87553571Y-86139285D02*
X87553571Y-85389285D01*
X87839285Y-85389285D01*
X87910714Y-85425000D01*
X87946428Y-85460714D01*
X87982142Y-85532142D01*
X87982142Y-85639285D01*
X87946428Y-85710714D01*
X87910714Y-85746428D01*
X87839285Y-85782142D01*
X87553571Y-85782142D01*
X88446428Y-85389285D02*
X88517857Y-85389285D01*
X88589285Y-85425000D01*
X88625000Y-85460714D01*
X88660714Y-85532142D01*
X88696428Y-85675000D01*
X88696428Y-85853571D01*
X88660714Y-85996428D01*
X88625000Y-86067857D01*
X88589285Y-86103571D01*
X88517857Y-86139285D01*
X88446428Y-86139285D01*
X88375000Y-86103571D01*
X88339285Y-86067857D01*
X88303571Y-85996428D01*
X88267857Y-85853571D01*
X88267857Y-85675000D01*
X88303571Y-85532142D01*
X88339285Y-85460714D01*
X88375000Y-85425000D01*
X88446428Y-85389285D01*
X89017857Y-86067857D02*
X89053571Y-86103571D01*
X89017857Y-86139285D01*
X88982142Y-86103571D01*
X89017857Y-86067857D01*
X89017857Y-86139285D01*
X89339285Y-85460714D02*
X89375000Y-85425000D01*
X89446428Y-85389285D01*
X89625000Y-85389285D01*
X89696428Y-85425000D01*
X89732142Y-85460714D01*
X89767857Y-85532142D01*
X89767857Y-85603571D01*
X89732142Y-85710714D01*
X89303571Y-86139285D01*
X89767857Y-86139285D01*
X90482142Y-86139285D02*
X90053571Y-86139285D01*
X90267857Y-86139285D02*
X90267857Y-85389285D01*
X90196428Y-85496428D01*
X90125000Y-85567857D01*
X90053571Y-85603571D01*
X87553571Y-79939285D02*
X87553571Y-79189285D01*
X87839285Y-79189285D01*
X87910714Y-79225000D01*
X87946428Y-79260714D01*
X87982142Y-79332142D01*
X87982142Y-79439285D01*
X87946428Y-79510714D01*
X87910714Y-79546428D01*
X87839285Y-79582142D01*
X87553571Y-79582142D01*
X88446428Y-79189285D02*
X88517857Y-79189285D01*
X88589285Y-79225000D01*
X88625000Y-79260714D01*
X88660714Y-79332142D01*
X88696428Y-79475000D01*
X88696428Y-79653571D01*
X88660714Y-79796428D01*
X88625000Y-79867857D01*
X88589285Y-79903571D01*
X88517857Y-79939285D01*
X88446428Y-79939285D01*
X88375000Y-79903571D01*
X88339285Y-79867857D01*
X88303571Y-79796428D01*
X88267857Y-79653571D01*
X88267857Y-79475000D01*
X88303571Y-79332142D01*
X88339285Y-79260714D01*
X88375000Y-79225000D01*
X88446428Y-79189285D01*
X89017857Y-79867857D02*
X89053571Y-79903571D01*
X89017857Y-79939285D01*
X88982142Y-79903571D01*
X89017857Y-79867857D01*
X89017857Y-79939285D01*
X89339285Y-79260714D02*
X89375000Y-79225000D01*
X89446428Y-79189285D01*
X89625000Y-79189285D01*
X89696428Y-79225000D01*
X89732142Y-79260714D01*
X89767857Y-79332142D01*
X89767857Y-79403571D01*
X89732142Y-79510714D01*
X89303571Y-79939285D01*
X89767857Y-79939285D01*
X90410714Y-79439285D02*
X90410714Y-79939285D01*
X90232142Y-79153571D02*
X90053571Y-79689285D01*
X90517857Y-79689285D01*
X87553571Y-81139285D02*
X87553571Y-80389285D01*
X87839285Y-80389285D01*
X87910714Y-80425000D01*
X87946428Y-80460714D01*
X87982142Y-80532142D01*
X87982142Y-80639285D01*
X87946428Y-80710714D01*
X87910714Y-80746428D01*
X87839285Y-80782142D01*
X87553571Y-80782142D01*
X88446428Y-80389285D02*
X88517857Y-80389285D01*
X88589285Y-80425000D01*
X88625000Y-80460714D01*
X88660714Y-80532142D01*
X88696428Y-80675000D01*
X88696428Y-80853571D01*
X88660714Y-80996428D01*
X88625000Y-81067857D01*
X88589285Y-81103571D01*
X88517857Y-81139285D01*
X88446428Y-81139285D01*
X88375000Y-81103571D01*
X88339285Y-81067857D01*
X88303571Y-80996428D01*
X88267857Y-80853571D01*
X88267857Y-80675000D01*
X88303571Y-80532142D01*
X88339285Y-80460714D01*
X88375000Y-80425000D01*
X88446428Y-80389285D01*
X89017857Y-81067857D02*
X89053571Y-81103571D01*
X89017857Y-81139285D01*
X88982142Y-81103571D01*
X89017857Y-81067857D01*
X89017857Y-81139285D01*
X89339285Y-80460714D02*
X89375000Y-80425000D01*
X89446428Y-80389285D01*
X89625000Y-80389285D01*
X89696428Y-80425000D01*
X89732142Y-80460714D01*
X89767857Y-80532142D01*
X89767857Y-80603571D01*
X89732142Y-80710714D01*
X89303571Y-81139285D01*
X89767857Y-81139285D01*
X90017857Y-80389285D02*
X90482142Y-80389285D01*
X90232142Y-80675000D01*
X90339285Y-80675000D01*
X90410714Y-80710714D01*
X90446428Y-80746428D01*
X90482142Y-80817857D01*
X90482142Y-80996428D01*
X90446428Y-81067857D01*
X90410714Y-81103571D01*
X90339285Y-81139285D01*
X90125000Y-81139285D01*
X90053571Y-81103571D01*
X90017857Y-81067857D01*
X87553571Y-82439285D02*
X87553571Y-81689285D01*
X87839285Y-81689285D01*
X87910714Y-81725000D01*
X87946428Y-81760714D01*
X87982142Y-81832142D01*
X87982142Y-81939285D01*
X87946428Y-82010714D01*
X87910714Y-82046428D01*
X87839285Y-82082142D01*
X87553571Y-82082142D01*
X88446428Y-81689285D02*
X88517857Y-81689285D01*
X88589285Y-81725000D01*
X88625000Y-81760714D01*
X88660714Y-81832142D01*
X88696428Y-81975000D01*
X88696428Y-82153571D01*
X88660714Y-82296428D01*
X88625000Y-82367857D01*
X88589285Y-82403571D01*
X88517857Y-82439285D01*
X88446428Y-82439285D01*
X88375000Y-82403571D01*
X88339285Y-82367857D01*
X88303571Y-82296428D01*
X88267857Y-82153571D01*
X88267857Y-81975000D01*
X88303571Y-81832142D01*
X88339285Y-81760714D01*
X88375000Y-81725000D01*
X88446428Y-81689285D01*
X89017857Y-82367857D02*
X89053571Y-82403571D01*
X89017857Y-82439285D01*
X88982142Y-82403571D01*
X89017857Y-82367857D01*
X89017857Y-82439285D01*
X89339285Y-81760714D02*
X89375000Y-81725000D01*
X89446428Y-81689285D01*
X89625000Y-81689285D01*
X89696428Y-81725000D01*
X89732142Y-81760714D01*
X89767857Y-81832142D01*
X89767857Y-81903571D01*
X89732142Y-82010714D01*
X89303571Y-82439285D01*
X89767857Y-82439285D01*
X90053571Y-81760714D02*
X90089285Y-81725000D01*
X90160714Y-81689285D01*
X90339285Y-81689285D01*
X90410714Y-81725000D01*
X90446428Y-81760714D01*
X90482142Y-81832142D01*
X90482142Y-81903571D01*
X90446428Y-82010714D01*
X90017857Y-82439285D01*
X90482142Y-82439285D01*
X63753571Y-83739285D02*
X63753571Y-82989285D01*
X64039285Y-82989285D01*
X64110714Y-83025000D01*
X64146428Y-83060714D01*
X64182142Y-83132142D01*
X64182142Y-83239285D01*
X64146428Y-83310714D01*
X64110714Y-83346428D01*
X64039285Y-83382142D01*
X63753571Y-83382142D01*
X64646428Y-82989285D02*
X64717857Y-82989285D01*
X64789285Y-83025000D01*
X64825000Y-83060714D01*
X64860714Y-83132142D01*
X64896428Y-83275000D01*
X64896428Y-83453571D01*
X64860714Y-83596428D01*
X64825000Y-83667857D01*
X64789285Y-83703571D01*
X64717857Y-83739285D01*
X64646428Y-83739285D01*
X64575000Y-83703571D01*
X64539285Y-83667857D01*
X64503571Y-83596428D01*
X64467857Y-83453571D01*
X64467857Y-83275000D01*
X64503571Y-83132142D01*
X64539285Y-83060714D01*
X64575000Y-83025000D01*
X64646428Y-82989285D01*
X65217857Y-83667857D02*
X65253571Y-83703571D01*
X65217857Y-83739285D01*
X65182142Y-83703571D01*
X65217857Y-83667857D01*
X65217857Y-83739285D01*
X65539285Y-83060714D02*
X65575000Y-83025000D01*
X65646428Y-82989285D01*
X65825000Y-82989285D01*
X65896428Y-83025000D01*
X65932142Y-83060714D01*
X65967857Y-83132142D01*
X65967857Y-83203571D01*
X65932142Y-83310714D01*
X65503571Y-83739285D01*
X65967857Y-83739285D01*
X66646428Y-82989285D02*
X66289285Y-82989285D01*
X66253571Y-83346428D01*
X66289285Y-83310714D01*
X66360714Y-83275000D01*
X66539285Y-83275000D01*
X66610714Y-83310714D01*
X66646428Y-83346428D01*
X66682142Y-83417857D01*
X66682142Y-83596428D01*
X66646428Y-83667857D01*
X66610714Y-83703571D01*
X66539285Y-83739285D01*
X66360714Y-83739285D01*
X66289285Y-83703571D01*
X66253571Y-83667857D01*
X63753571Y-84939285D02*
X63753571Y-84189285D01*
X64039285Y-84189285D01*
X64110714Y-84225000D01*
X64146428Y-84260714D01*
X64182142Y-84332142D01*
X64182142Y-84439285D01*
X64146428Y-84510714D01*
X64110714Y-84546428D01*
X64039285Y-84582142D01*
X63753571Y-84582142D01*
X64646428Y-84189285D02*
X64717857Y-84189285D01*
X64789285Y-84225000D01*
X64825000Y-84260714D01*
X64860714Y-84332142D01*
X64896428Y-84475000D01*
X64896428Y-84653571D01*
X64860714Y-84796428D01*
X64825000Y-84867857D01*
X64789285Y-84903571D01*
X64717857Y-84939285D01*
X64646428Y-84939285D01*
X64575000Y-84903571D01*
X64539285Y-84867857D01*
X64503571Y-84796428D01*
X64467857Y-84653571D01*
X64467857Y-84475000D01*
X64503571Y-84332142D01*
X64539285Y-84260714D01*
X64575000Y-84225000D01*
X64646428Y-84189285D01*
X65217857Y-84867857D02*
X65253571Y-84903571D01*
X65217857Y-84939285D01*
X65182142Y-84903571D01*
X65217857Y-84867857D01*
X65217857Y-84939285D01*
X65539285Y-84260714D02*
X65575000Y-84225000D01*
X65646428Y-84189285D01*
X65825000Y-84189285D01*
X65896428Y-84225000D01*
X65932142Y-84260714D01*
X65967857Y-84332142D01*
X65967857Y-84403571D01*
X65932142Y-84510714D01*
X65503571Y-84939285D01*
X65967857Y-84939285D01*
X66610714Y-84189285D02*
X66467857Y-84189285D01*
X66396428Y-84225000D01*
X66360714Y-84260714D01*
X66289285Y-84367857D01*
X66253571Y-84510714D01*
X66253571Y-84796428D01*
X66289285Y-84867857D01*
X66325000Y-84903571D01*
X66396428Y-84939285D01*
X66539285Y-84939285D01*
X66610714Y-84903571D01*
X66646428Y-84867857D01*
X66682142Y-84796428D01*
X66682142Y-84617857D01*
X66646428Y-84546428D01*
X66610714Y-84510714D01*
X66539285Y-84475000D01*
X66396428Y-84475000D01*
X66325000Y-84510714D01*
X66289285Y-84546428D01*
X66253571Y-84617857D01*
X63753571Y-86239285D02*
X63753571Y-85489285D01*
X64039285Y-85489285D01*
X64110714Y-85525000D01*
X64146428Y-85560714D01*
X64182142Y-85632142D01*
X64182142Y-85739285D01*
X64146428Y-85810714D01*
X64110714Y-85846428D01*
X64039285Y-85882142D01*
X63753571Y-85882142D01*
X64646428Y-85489285D02*
X64717857Y-85489285D01*
X64789285Y-85525000D01*
X64825000Y-85560714D01*
X64860714Y-85632142D01*
X64896428Y-85775000D01*
X64896428Y-85953571D01*
X64860714Y-86096428D01*
X64825000Y-86167857D01*
X64789285Y-86203571D01*
X64717857Y-86239285D01*
X64646428Y-86239285D01*
X64575000Y-86203571D01*
X64539285Y-86167857D01*
X64503571Y-86096428D01*
X64467857Y-85953571D01*
X64467857Y-85775000D01*
X64503571Y-85632142D01*
X64539285Y-85560714D01*
X64575000Y-85525000D01*
X64646428Y-85489285D01*
X65217857Y-86167857D02*
X65253571Y-86203571D01*
X65217857Y-86239285D01*
X65182142Y-86203571D01*
X65217857Y-86167857D01*
X65217857Y-86239285D01*
X65539285Y-85560714D02*
X65575000Y-85525000D01*
X65646428Y-85489285D01*
X65825000Y-85489285D01*
X65896428Y-85525000D01*
X65932142Y-85560714D01*
X65967857Y-85632142D01*
X65967857Y-85703571D01*
X65932142Y-85810714D01*
X65503571Y-86239285D01*
X65967857Y-86239285D01*
X66217857Y-85489285D02*
X66717857Y-85489285D01*
X66396428Y-86239285D01*
X63753571Y-87539285D02*
X63753571Y-86789285D01*
X64039285Y-86789285D01*
X64110714Y-86825000D01*
X64146428Y-86860714D01*
X64182142Y-86932142D01*
X64182142Y-87039285D01*
X64146428Y-87110714D01*
X64110714Y-87146428D01*
X64039285Y-87182142D01*
X63753571Y-87182142D01*
X64646428Y-86789285D02*
X64717857Y-86789285D01*
X64789285Y-86825000D01*
X64825000Y-86860714D01*
X64860714Y-86932142D01*
X64896428Y-87075000D01*
X64896428Y-87253571D01*
X64860714Y-87396428D01*
X64825000Y-87467857D01*
X64789285Y-87503571D01*
X64717857Y-87539285D01*
X64646428Y-87539285D01*
X64575000Y-87503571D01*
X64539285Y-87467857D01*
X64503571Y-87396428D01*
X64467857Y-87253571D01*
X64467857Y-87075000D01*
X64503571Y-86932142D01*
X64539285Y-86860714D01*
X64575000Y-86825000D01*
X64646428Y-86789285D01*
X65217857Y-87467857D02*
X65253571Y-87503571D01*
X65217857Y-87539285D01*
X65182142Y-87503571D01*
X65217857Y-87467857D01*
X65217857Y-87539285D01*
X65539285Y-86860714D02*
X65575000Y-86825000D01*
X65646428Y-86789285D01*
X65825000Y-86789285D01*
X65896428Y-86825000D01*
X65932142Y-86860714D01*
X65967857Y-86932142D01*
X65967857Y-87003571D01*
X65932142Y-87110714D01*
X65503571Y-87539285D01*
X65967857Y-87539285D01*
X66396428Y-87110714D02*
X66325000Y-87075000D01*
X66289285Y-87039285D01*
X66253571Y-86967857D01*
X66253571Y-86932142D01*
X66289285Y-86860714D01*
X66325000Y-86825000D01*
X66396428Y-86789285D01*
X66539285Y-86789285D01*
X66610714Y-86825000D01*
X66646428Y-86860714D01*
X66682142Y-86932142D01*
X66682142Y-86967857D01*
X66646428Y-87039285D01*
X66610714Y-87075000D01*
X66539285Y-87110714D01*
X66396428Y-87110714D01*
X66325000Y-87146428D01*
X66289285Y-87182142D01*
X66253571Y-87253571D01*
X66253571Y-87396428D01*
X66289285Y-87467857D01*
X66325000Y-87503571D01*
X66396428Y-87539285D01*
X66539285Y-87539285D01*
X66610714Y-87503571D01*
X66646428Y-87467857D01*
X66682142Y-87396428D01*
X66682142Y-87253571D01*
X66646428Y-87182142D01*
X66610714Y-87146428D01*
X66539285Y-87110714D01*
X63753571Y-88739285D02*
X63753571Y-87989285D01*
X64039285Y-87989285D01*
X64110714Y-88025000D01*
X64146428Y-88060714D01*
X64182142Y-88132142D01*
X64182142Y-88239285D01*
X64146428Y-88310714D01*
X64110714Y-88346428D01*
X64039285Y-88382142D01*
X63753571Y-88382142D01*
X64646428Y-87989285D02*
X64717857Y-87989285D01*
X64789285Y-88025000D01*
X64825000Y-88060714D01*
X64860714Y-88132142D01*
X64896428Y-88275000D01*
X64896428Y-88453571D01*
X64860714Y-88596428D01*
X64825000Y-88667857D01*
X64789285Y-88703571D01*
X64717857Y-88739285D01*
X64646428Y-88739285D01*
X64575000Y-88703571D01*
X64539285Y-88667857D01*
X64503571Y-88596428D01*
X64467857Y-88453571D01*
X64467857Y-88275000D01*
X64503571Y-88132142D01*
X64539285Y-88060714D01*
X64575000Y-88025000D01*
X64646428Y-87989285D01*
X65217857Y-88667857D02*
X65253571Y-88703571D01*
X65217857Y-88739285D01*
X65182142Y-88703571D01*
X65217857Y-88667857D01*
X65217857Y-88739285D01*
X65539285Y-88060714D02*
X65575000Y-88025000D01*
X65646428Y-87989285D01*
X65825000Y-87989285D01*
X65896428Y-88025000D01*
X65932142Y-88060714D01*
X65967857Y-88132142D01*
X65967857Y-88203571D01*
X65932142Y-88310714D01*
X65503571Y-88739285D01*
X65967857Y-88739285D01*
X66325000Y-88739285D02*
X66467857Y-88739285D01*
X66539285Y-88703571D01*
X66575000Y-88667857D01*
X66646428Y-88560714D01*
X66682142Y-88417857D01*
X66682142Y-88132142D01*
X66646428Y-88060714D01*
X66610714Y-88025000D01*
X66539285Y-87989285D01*
X66396428Y-87989285D01*
X66325000Y-88025000D01*
X66289285Y-88060714D01*
X66253571Y-88132142D01*
X66253571Y-88310714D01*
X66289285Y-88382142D01*
X66325000Y-88417857D01*
X66396428Y-88453571D01*
X66539285Y-88453571D01*
X66610714Y-88417857D01*
X66646428Y-88382142D01*
X66682142Y-88310714D01*
X63753571Y-90039285D02*
X63753571Y-89289285D01*
X64039285Y-89289285D01*
X64110714Y-89325000D01*
X64146428Y-89360714D01*
X64182142Y-89432142D01*
X64182142Y-89539285D01*
X64146428Y-89610714D01*
X64110714Y-89646428D01*
X64039285Y-89682142D01*
X63753571Y-89682142D01*
X64646428Y-89289285D02*
X64717857Y-89289285D01*
X64789285Y-89325000D01*
X64825000Y-89360714D01*
X64860714Y-89432142D01*
X64896428Y-89575000D01*
X64896428Y-89753571D01*
X64860714Y-89896428D01*
X64825000Y-89967857D01*
X64789285Y-90003571D01*
X64717857Y-90039285D01*
X64646428Y-90039285D01*
X64575000Y-90003571D01*
X64539285Y-89967857D01*
X64503571Y-89896428D01*
X64467857Y-89753571D01*
X64467857Y-89575000D01*
X64503571Y-89432142D01*
X64539285Y-89360714D01*
X64575000Y-89325000D01*
X64646428Y-89289285D01*
X65217857Y-89967857D02*
X65253571Y-90003571D01*
X65217857Y-90039285D01*
X65182142Y-90003571D01*
X65217857Y-89967857D01*
X65217857Y-90039285D01*
X65503571Y-89289285D02*
X65967857Y-89289285D01*
X65717857Y-89575000D01*
X65825000Y-89575000D01*
X65896428Y-89610714D01*
X65932142Y-89646428D01*
X65967857Y-89717857D01*
X65967857Y-89896428D01*
X65932142Y-89967857D01*
X65896428Y-90003571D01*
X65825000Y-90039285D01*
X65610714Y-90039285D01*
X65539285Y-90003571D01*
X65503571Y-89967857D01*
X66432142Y-89289285D02*
X66503571Y-89289285D01*
X66575000Y-89325000D01*
X66610714Y-89360714D01*
X66646428Y-89432142D01*
X66682142Y-89575000D01*
X66682142Y-89753571D01*
X66646428Y-89896428D01*
X66610714Y-89967857D01*
X66575000Y-90003571D01*
X66503571Y-90039285D01*
X66432142Y-90039285D01*
X66360714Y-90003571D01*
X66325000Y-89967857D01*
X66289285Y-89896428D01*
X66253571Y-89753571D01*
X66253571Y-89575000D01*
X66289285Y-89432142D01*
X66325000Y-89360714D01*
X66360714Y-89325000D01*
X66432142Y-89289285D01*
X63753571Y-91339285D02*
X63753571Y-90589285D01*
X64039285Y-90589285D01*
X64110714Y-90625000D01*
X64146428Y-90660714D01*
X64182142Y-90732142D01*
X64182142Y-90839285D01*
X64146428Y-90910714D01*
X64110714Y-90946428D01*
X64039285Y-90982142D01*
X63753571Y-90982142D01*
X64646428Y-90589285D02*
X64717857Y-90589285D01*
X64789285Y-90625000D01*
X64825000Y-90660714D01*
X64860714Y-90732142D01*
X64896428Y-90875000D01*
X64896428Y-91053571D01*
X64860714Y-91196428D01*
X64825000Y-91267857D01*
X64789285Y-91303571D01*
X64717857Y-91339285D01*
X64646428Y-91339285D01*
X64575000Y-91303571D01*
X64539285Y-91267857D01*
X64503571Y-91196428D01*
X64467857Y-91053571D01*
X64467857Y-90875000D01*
X64503571Y-90732142D01*
X64539285Y-90660714D01*
X64575000Y-90625000D01*
X64646428Y-90589285D01*
X65217857Y-91267857D02*
X65253571Y-91303571D01*
X65217857Y-91339285D01*
X65182142Y-91303571D01*
X65217857Y-91267857D01*
X65217857Y-91339285D01*
X65503571Y-90589285D02*
X65967857Y-90589285D01*
X65717857Y-90875000D01*
X65825000Y-90875000D01*
X65896428Y-90910714D01*
X65932142Y-90946428D01*
X65967857Y-91017857D01*
X65967857Y-91196428D01*
X65932142Y-91267857D01*
X65896428Y-91303571D01*
X65825000Y-91339285D01*
X65610714Y-91339285D01*
X65539285Y-91303571D01*
X65503571Y-91267857D01*
X66682142Y-91339285D02*
X66253571Y-91339285D01*
X66467857Y-91339285D02*
X66467857Y-90589285D01*
X66396428Y-90696428D01*
X66325000Y-90767857D01*
X66253571Y-90803571D01*
X63732142Y-92539285D02*
X63732142Y-91789285D01*
X63910714Y-91789285D01*
X64017857Y-91825000D01*
X64089285Y-91896428D01*
X64125000Y-91967857D01*
X64160714Y-92110714D01*
X64160714Y-92217857D01*
X64125000Y-92360714D01*
X64089285Y-92432142D01*
X64017857Y-92503571D01*
X63910714Y-92539285D01*
X63732142Y-92539285D01*
X64482142Y-92146428D02*
X64732142Y-92146428D01*
X64839285Y-92539285D02*
X64482142Y-92539285D01*
X64482142Y-91789285D01*
X64839285Y-91789285D01*
X65589285Y-92467857D02*
X65553571Y-92503571D01*
X65446428Y-92539285D01*
X65375000Y-92539285D01*
X65267857Y-92503571D01*
X65196428Y-92432142D01*
X65160714Y-92360714D01*
X65125000Y-92217857D01*
X65125000Y-92110714D01*
X65160714Y-91967857D01*
X65196428Y-91896428D01*
X65267857Y-91825000D01*
X65375000Y-91789285D01*
X65446428Y-91789285D01*
X65553571Y-91825000D01*
X65589285Y-91860714D01*
X66232142Y-92039285D02*
X66232142Y-92539285D01*
X66053571Y-91753571D02*
X65875000Y-92289285D01*
X66339285Y-92289285D01*
X63767857Y-93839285D02*
X63767857Y-93089285D01*
X63946428Y-93089285D01*
X64053571Y-93125000D01*
X64125000Y-93196428D01*
X64160714Y-93267857D01*
X64196428Y-93410714D01*
X64196428Y-93517857D01*
X64160714Y-93660714D01*
X64125000Y-93732142D01*
X64053571Y-93803571D01*
X63946428Y-93839285D01*
X63767857Y-93839285D01*
X64946428Y-93767857D02*
X64910714Y-93803571D01*
X64803571Y-93839285D01*
X64732142Y-93839285D01*
X64625000Y-93803571D01*
X64553571Y-93732142D01*
X64517857Y-93660714D01*
X64482142Y-93517857D01*
X64482142Y-93410714D01*
X64517857Y-93267857D01*
X64553571Y-93196428D01*
X64625000Y-93125000D01*
X64732142Y-93089285D01*
X64803571Y-93089285D01*
X64910714Y-93125000D01*
X64946428Y-93160714D01*
X65696428Y-93767857D02*
X65660714Y-93803571D01*
X65553571Y-93839285D01*
X65482142Y-93839285D01*
X65375000Y-93803571D01*
X65303571Y-93732142D01*
X65267857Y-93660714D01*
X65232142Y-93517857D01*
X65232142Y-93410714D01*
X65267857Y-93267857D01*
X65303571Y-93196428D01*
X65375000Y-93125000D01*
X65482142Y-93089285D01*
X65553571Y-93089285D01*
X65660714Y-93125000D01*
X65696428Y-93160714D01*
X111039285Y-100346428D02*
X110289285Y-100346428D01*
X110289285Y-100060714D01*
X110325000Y-99989285D01*
X110360714Y-99953571D01*
X110432142Y-99917857D01*
X110539285Y-99917857D01*
X110610714Y-99953571D01*
X110646428Y-99989285D01*
X110682142Y-100060714D01*
X110682142Y-100346428D01*
X110289285Y-99453571D02*
X110289285Y-99382142D01*
X110325000Y-99310714D01*
X110360714Y-99275000D01*
X110432142Y-99239285D01*
X110575000Y-99203571D01*
X110753571Y-99203571D01*
X110896428Y-99239285D01*
X110967857Y-99275000D01*
X111003571Y-99310714D01*
X111039285Y-99382142D01*
X111039285Y-99453571D01*
X111003571Y-99525000D01*
X110967857Y-99560714D01*
X110896428Y-99596428D01*
X110753571Y-99632142D01*
X110575000Y-99632142D01*
X110432142Y-99596428D01*
X110360714Y-99560714D01*
X110325000Y-99525000D01*
X110289285Y-99453571D01*
X110967857Y-98882142D02*
X111003571Y-98846428D01*
X111039285Y-98882142D01*
X111003571Y-98917857D01*
X110967857Y-98882142D01*
X111039285Y-98882142D01*
X110360714Y-98560714D02*
X110325000Y-98525000D01*
X110289285Y-98453571D01*
X110289285Y-98275000D01*
X110325000Y-98203571D01*
X110360714Y-98167857D01*
X110432142Y-98132142D01*
X110503571Y-98132142D01*
X110610714Y-98167857D01*
X111039285Y-98596428D01*
X111039285Y-98132142D01*
X110360714Y-97846428D02*
X110325000Y-97810714D01*
X110289285Y-97739285D01*
X110289285Y-97560714D01*
X110325000Y-97489285D01*
X110360714Y-97453571D01*
X110432142Y-97417857D01*
X110503571Y-97417857D01*
X110610714Y-97453571D01*
X111039285Y-97882142D01*
X111039285Y-97417857D01*
X111039285Y-95346428D02*
X110289285Y-95346428D01*
X110289285Y-95060714D01*
X110325000Y-94989285D01*
X110360714Y-94953571D01*
X110432142Y-94917857D01*
X110539285Y-94917857D01*
X110610714Y-94953571D01*
X110646428Y-94989285D01*
X110682142Y-95060714D01*
X110682142Y-95346428D01*
X110289285Y-94453571D02*
X110289285Y-94382142D01*
X110325000Y-94310714D01*
X110360714Y-94275000D01*
X110432142Y-94239285D01*
X110575000Y-94203571D01*
X110753571Y-94203571D01*
X110896428Y-94239285D01*
X110967857Y-94275000D01*
X111003571Y-94310714D01*
X111039285Y-94382142D01*
X111039285Y-94453571D01*
X111003571Y-94525000D01*
X110967857Y-94560714D01*
X110896428Y-94596428D01*
X110753571Y-94632142D01*
X110575000Y-94632142D01*
X110432142Y-94596428D01*
X110360714Y-94560714D01*
X110325000Y-94525000D01*
X110289285Y-94453571D01*
X110967857Y-93882142D02*
X111003571Y-93846428D01*
X111039285Y-93882142D01*
X111003571Y-93917857D01*
X110967857Y-93882142D01*
X111039285Y-93882142D01*
X111039285Y-93132142D02*
X111039285Y-93560714D01*
X111039285Y-93346428D02*
X110289285Y-93346428D01*
X110396428Y-93417857D01*
X110467857Y-93489285D01*
X110503571Y-93560714D01*
X111039285Y-92775000D02*
X111039285Y-92632142D01*
X111003571Y-92560714D01*
X110967857Y-92525000D01*
X110860714Y-92453571D01*
X110717857Y-92417857D01*
X110432142Y-92417857D01*
X110360714Y-92453571D01*
X110325000Y-92489285D01*
X110289285Y-92560714D01*
X110289285Y-92703571D01*
X110325000Y-92775000D01*
X110360714Y-92810714D01*
X110432142Y-92846428D01*
X110610714Y-92846428D01*
X110682142Y-92810714D01*
X110717857Y-92775000D01*
X110753571Y-92703571D01*
X110753571Y-92560714D01*
X110717857Y-92489285D01*
X110682142Y-92453571D01*
X110610714Y-92417857D01*
X111039285Y-105246428D02*
X110289285Y-105246428D01*
X110289285Y-104960714D01*
X110325000Y-104889285D01*
X110360714Y-104853571D01*
X110432142Y-104817857D01*
X110539285Y-104817857D01*
X110610714Y-104853571D01*
X110646428Y-104889285D01*
X110682142Y-104960714D01*
X110682142Y-105246428D01*
X110289285Y-104353571D02*
X110289285Y-104282142D01*
X110325000Y-104210714D01*
X110360714Y-104175000D01*
X110432142Y-104139285D01*
X110575000Y-104103571D01*
X110753571Y-104103571D01*
X110896428Y-104139285D01*
X110967857Y-104175000D01*
X111003571Y-104210714D01*
X111039285Y-104282142D01*
X111039285Y-104353571D01*
X111003571Y-104425000D01*
X110967857Y-104460714D01*
X110896428Y-104496428D01*
X110753571Y-104532142D01*
X110575000Y-104532142D01*
X110432142Y-104496428D01*
X110360714Y-104460714D01*
X110325000Y-104425000D01*
X110289285Y-104353571D01*
X110967857Y-103782142D02*
X111003571Y-103746428D01*
X111039285Y-103782142D01*
X111003571Y-103817857D01*
X110967857Y-103782142D01*
X111039285Y-103782142D01*
X110360714Y-103460714D02*
X110325000Y-103425000D01*
X110289285Y-103353571D01*
X110289285Y-103175000D01*
X110325000Y-103103571D01*
X110360714Y-103067857D01*
X110432142Y-103032142D01*
X110503571Y-103032142D01*
X110610714Y-103067857D01*
X111039285Y-103496428D01*
X111039285Y-103032142D01*
X110539285Y-102389285D02*
X111039285Y-102389285D01*
X110253571Y-102567857D02*
X110789285Y-102746428D01*
X110789285Y-102282142D01*
X111039285Y-110346428D02*
X110289285Y-110346428D01*
X110289285Y-110060714D01*
X110325000Y-109989285D01*
X110360714Y-109953571D01*
X110432142Y-109917857D01*
X110539285Y-109917857D01*
X110610714Y-109953571D01*
X110646428Y-109989285D01*
X110682142Y-110060714D01*
X110682142Y-110346428D01*
X110289285Y-109453571D02*
X110289285Y-109382142D01*
X110325000Y-109310714D01*
X110360714Y-109275000D01*
X110432142Y-109239285D01*
X110575000Y-109203571D01*
X110753571Y-109203571D01*
X110896428Y-109239285D01*
X110967857Y-109275000D01*
X111003571Y-109310714D01*
X111039285Y-109382142D01*
X111039285Y-109453571D01*
X111003571Y-109525000D01*
X110967857Y-109560714D01*
X110896428Y-109596428D01*
X110753571Y-109632142D01*
X110575000Y-109632142D01*
X110432142Y-109596428D01*
X110360714Y-109560714D01*
X110325000Y-109525000D01*
X110289285Y-109453571D01*
X110967857Y-108882142D02*
X111003571Y-108846428D01*
X111039285Y-108882142D01*
X111003571Y-108917857D01*
X110967857Y-108882142D01*
X111039285Y-108882142D01*
X110360714Y-108560714D02*
X110325000Y-108525000D01*
X110289285Y-108453571D01*
X110289285Y-108275000D01*
X110325000Y-108203571D01*
X110360714Y-108167857D01*
X110432142Y-108132142D01*
X110503571Y-108132142D01*
X110610714Y-108167857D01*
X111039285Y-108596428D01*
X111039285Y-108132142D01*
X110289285Y-107489285D02*
X110289285Y-107632142D01*
X110325000Y-107703571D01*
X110360714Y-107739285D01*
X110467857Y-107810714D01*
X110610714Y-107846428D01*
X110896428Y-107846428D01*
X110967857Y-107810714D01*
X111003571Y-107775000D01*
X111039285Y-107703571D01*
X111039285Y-107560714D01*
X111003571Y-107489285D01*
X110967857Y-107453571D01*
X110896428Y-107417857D01*
X110717857Y-107417857D01*
X110646428Y-107453571D01*
X110610714Y-107489285D01*
X110575000Y-107560714D01*
X110575000Y-107703571D01*
X110610714Y-107775000D01*
X110646428Y-107810714D01*
X110717857Y-107846428D01*
X102539285Y-97646428D02*
X101789285Y-97646428D01*
X101789285Y-97360714D01*
X101825000Y-97289285D01*
X101860714Y-97253571D01*
X101932142Y-97217857D01*
X102039285Y-97217857D01*
X102110714Y-97253571D01*
X102146428Y-97289285D01*
X102182142Y-97360714D01*
X102182142Y-97646428D01*
X101789285Y-96753571D02*
X101789285Y-96682142D01*
X101825000Y-96610714D01*
X101860714Y-96575000D01*
X101932142Y-96539285D01*
X102075000Y-96503571D01*
X102253571Y-96503571D01*
X102396428Y-96539285D01*
X102467857Y-96575000D01*
X102503571Y-96610714D01*
X102539285Y-96682142D01*
X102539285Y-96753571D01*
X102503571Y-96825000D01*
X102467857Y-96860714D01*
X102396428Y-96896428D01*
X102253571Y-96932142D01*
X102075000Y-96932142D01*
X101932142Y-96896428D01*
X101860714Y-96860714D01*
X101825000Y-96825000D01*
X101789285Y-96753571D01*
X102467857Y-96182142D02*
X102503571Y-96146428D01*
X102539285Y-96182142D01*
X102503571Y-96217857D01*
X102467857Y-96182142D01*
X102539285Y-96182142D01*
X101860714Y-95860714D02*
X101825000Y-95825000D01*
X101789285Y-95753571D01*
X101789285Y-95575000D01*
X101825000Y-95503571D01*
X101860714Y-95467857D01*
X101932142Y-95432142D01*
X102003571Y-95432142D01*
X102110714Y-95467857D01*
X102539285Y-95896428D01*
X102539285Y-95432142D01*
X101789285Y-94967857D02*
X101789285Y-94896428D01*
X101825000Y-94825000D01*
X101860714Y-94789285D01*
X101932142Y-94753571D01*
X102075000Y-94717857D01*
X102253571Y-94717857D01*
X102396428Y-94753571D01*
X102467857Y-94789285D01*
X102503571Y-94825000D01*
X102539285Y-94896428D01*
X102539285Y-94967857D01*
X102503571Y-95039285D01*
X102467857Y-95075000D01*
X102396428Y-95110714D01*
X102253571Y-95146428D01*
X102075000Y-95146428D01*
X101932142Y-95110714D01*
X101860714Y-95075000D01*
X101825000Y-95039285D01*
X101789285Y-94967857D01*
X102539285Y-92646428D02*
X101789285Y-92646428D01*
X101789285Y-92360714D01*
X101825000Y-92289285D01*
X101860714Y-92253571D01*
X101932142Y-92217857D01*
X102039285Y-92217857D01*
X102110714Y-92253571D01*
X102146428Y-92289285D01*
X102182142Y-92360714D01*
X102182142Y-92646428D01*
X101789285Y-91753571D02*
X101789285Y-91682142D01*
X101825000Y-91610714D01*
X101860714Y-91575000D01*
X101932142Y-91539285D01*
X102075000Y-91503571D01*
X102253571Y-91503571D01*
X102396428Y-91539285D01*
X102467857Y-91575000D01*
X102503571Y-91610714D01*
X102539285Y-91682142D01*
X102539285Y-91753571D01*
X102503571Y-91825000D01*
X102467857Y-91860714D01*
X102396428Y-91896428D01*
X102253571Y-91932142D01*
X102075000Y-91932142D01*
X101932142Y-91896428D01*
X101860714Y-91860714D01*
X101825000Y-91825000D01*
X101789285Y-91753571D01*
X102467857Y-91182142D02*
X102503571Y-91146428D01*
X102539285Y-91182142D01*
X102503571Y-91217857D01*
X102467857Y-91182142D01*
X102539285Y-91182142D01*
X102539285Y-90432142D02*
X102539285Y-90860714D01*
X102539285Y-90646428D02*
X101789285Y-90646428D01*
X101896428Y-90717857D01*
X101967857Y-90789285D01*
X102003571Y-90860714D01*
X101789285Y-90182142D02*
X101789285Y-89682142D01*
X102539285Y-90003571D01*
X102539285Y-102546428D02*
X101789285Y-102546428D01*
X101789285Y-102260714D01*
X101825000Y-102189285D01*
X101860714Y-102153571D01*
X101932142Y-102117857D01*
X102039285Y-102117857D01*
X102110714Y-102153571D01*
X102146428Y-102189285D01*
X102182142Y-102260714D01*
X102182142Y-102546428D01*
X101789285Y-101653571D02*
X101789285Y-101582142D01*
X101825000Y-101510714D01*
X101860714Y-101475000D01*
X101932142Y-101439285D01*
X102075000Y-101403571D01*
X102253571Y-101403571D01*
X102396428Y-101439285D01*
X102467857Y-101475000D01*
X102503571Y-101510714D01*
X102539285Y-101582142D01*
X102539285Y-101653571D01*
X102503571Y-101725000D01*
X102467857Y-101760714D01*
X102396428Y-101796428D01*
X102253571Y-101832142D01*
X102075000Y-101832142D01*
X101932142Y-101796428D01*
X101860714Y-101760714D01*
X101825000Y-101725000D01*
X101789285Y-101653571D01*
X102467857Y-101082142D02*
X102503571Y-101046428D01*
X102539285Y-101082142D01*
X102503571Y-101117857D01*
X102467857Y-101082142D01*
X102539285Y-101082142D01*
X101860714Y-100760714D02*
X101825000Y-100725000D01*
X101789285Y-100653571D01*
X101789285Y-100475000D01*
X101825000Y-100403571D01*
X101860714Y-100367857D01*
X101932142Y-100332142D01*
X102003571Y-100332142D01*
X102110714Y-100367857D01*
X102539285Y-100796428D01*
X102539285Y-100332142D01*
X101789285Y-100082142D02*
X101789285Y-99617857D01*
X102075000Y-99867857D01*
X102075000Y-99760714D01*
X102110714Y-99689285D01*
X102146428Y-99653571D01*
X102217857Y-99617857D01*
X102396428Y-99617857D01*
X102467857Y-99653571D01*
X102503571Y-99689285D01*
X102539285Y-99760714D01*
X102539285Y-99975000D01*
X102503571Y-100046428D01*
X102467857Y-100082142D01*
X102539285Y-107646428D02*
X101789285Y-107646428D01*
X101789285Y-107360714D01*
X101825000Y-107289285D01*
X101860714Y-107253571D01*
X101932142Y-107217857D01*
X102039285Y-107217857D01*
X102110714Y-107253571D01*
X102146428Y-107289285D01*
X102182142Y-107360714D01*
X102182142Y-107646428D01*
X101789285Y-106753571D02*
X101789285Y-106682142D01*
X101825000Y-106610714D01*
X101860714Y-106575000D01*
X101932142Y-106539285D01*
X102075000Y-106503571D01*
X102253571Y-106503571D01*
X102396428Y-106539285D01*
X102467857Y-106575000D01*
X102503571Y-106610714D01*
X102539285Y-106682142D01*
X102539285Y-106753571D01*
X102503571Y-106825000D01*
X102467857Y-106860714D01*
X102396428Y-106896428D01*
X102253571Y-106932142D01*
X102075000Y-106932142D01*
X101932142Y-106896428D01*
X101860714Y-106860714D01*
X101825000Y-106825000D01*
X101789285Y-106753571D01*
X102467857Y-106182142D02*
X102503571Y-106146428D01*
X102539285Y-106182142D01*
X102503571Y-106217857D01*
X102467857Y-106182142D01*
X102539285Y-106182142D01*
X101860714Y-105860714D02*
X101825000Y-105825000D01*
X101789285Y-105753571D01*
X101789285Y-105575000D01*
X101825000Y-105503571D01*
X101860714Y-105467857D01*
X101932142Y-105432142D01*
X102003571Y-105432142D01*
X102110714Y-105467857D01*
X102539285Y-105896428D01*
X102539285Y-105432142D01*
X101789285Y-104753571D02*
X101789285Y-105110714D01*
X102146428Y-105146428D01*
X102110714Y-105110714D01*
X102075000Y-105039285D01*
X102075000Y-104860714D01*
X102110714Y-104789285D01*
X102146428Y-104753571D01*
X102217857Y-104717857D01*
X102396428Y-104717857D01*
X102467857Y-104753571D01*
X102503571Y-104789285D01*
X102539285Y-104860714D01*
X102539285Y-105039285D01*
X102503571Y-105110714D01*
X102467857Y-105146428D01*
X84253571Y-121539285D02*
X84253571Y-120789285D01*
X84539285Y-120789285D01*
X84610714Y-120825000D01*
X84646428Y-120860714D01*
X84682142Y-120932142D01*
X84682142Y-121039285D01*
X84646428Y-121110714D01*
X84610714Y-121146428D01*
X84539285Y-121182142D01*
X84253571Y-121182142D01*
X85146428Y-120789285D02*
X85217857Y-120789285D01*
X85289285Y-120825000D01*
X85325000Y-120860714D01*
X85360714Y-120932142D01*
X85396428Y-121075000D01*
X85396428Y-121253571D01*
X85360714Y-121396428D01*
X85325000Y-121467857D01*
X85289285Y-121503571D01*
X85217857Y-121539285D01*
X85146428Y-121539285D01*
X85075000Y-121503571D01*
X85039285Y-121467857D01*
X85003571Y-121396428D01*
X84967857Y-121253571D01*
X84967857Y-121075000D01*
X85003571Y-120932142D01*
X85039285Y-120860714D01*
X85075000Y-120825000D01*
X85146428Y-120789285D01*
X85717857Y-121467857D02*
X85753571Y-121503571D01*
X85717857Y-121539285D01*
X85682142Y-121503571D01*
X85717857Y-121467857D01*
X85717857Y-121539285D01*
X86003571Y-120789285D02*
X86467857Y-120789285D01*
X86217857Y-121075000D01*
X86325000Y-121075000D01*
X86396428Y-121110714D01*
X86432142Y-121146428D01*
X86467857Y-121217857D01*
X86467857Y-121396428D01*
X86432142Y-121467857D01*
X86396428Y-121503571D01*
X86325000Y-121539285D01*
X86110714Y-121539285D01*
X86039285Y-121503571D01*
X86003571Y-121467857D01*
X86932142Y-120789285D02*
X87003571Y-120789285D01*
X87075000Y-120825000D01*
X87110714Y-120860714D01*
X87146428Y-120932142D01*
X87182142Y-121075000D01*
X87182142Y-121253571D01*
X87146428Y-121396428D01*
X87110714Y-121467857D01*
X87075000Y-121503571D01*
X87003571Y-121539285D01*
X86932142Y-121539285D01*
X86860714Y-121503571D01*
X86825000Y-121467857D01*
X86789285Y-121396428D01*
X86753571Y-121253571D01*
X86753571Y-121075000D01*
X86789285Y-120932142D01*
X86825000Y-120860714D01*
X86860714Y-120825000D01*
X86932142Y-120789285D01*
X92167857Y-112289285D02*
X92417857Y-113039285D01*
X92667857Y-112289285D01*
X93167857Y-112646428D02*
X93275000Y-112682142D01*
X93310714Y-112717857D01*
X93346428Y-112789285D01*
X93346428Y-112896428D01*
X93310714Y-112967857D01*
X93275000Y-113003571D01*
X93203571Y-113039285D01*
X92917857Y-113039285D01*
X92917857Y-112289285D01*
X93167857Y-112289285D01*
X93239285Y-112325000D01*
X93275000Y-112360714D01*
X93310714Y-112432142D01*
X93310714Y-112503571D01*
X93275000Y-112575000D01*
X93239285Y-112610714D01*
X93167857Y-112646428D01*
X92917857Y-112646428D01*
X93632142Y-112825000D02*
X93989285Y-112825000D01*
X93560714Y-113039285D02*
X93810714Y-112289285D01*
X94060714Y-113039285D01*
X94203571Y-112289285D02*
X94632142Y-112289285D01*
X94417857Y-113039285D02*
X94417857Y-112289285D01*
X87371428Y-112289285D02*
X87835714Y-112289285D01*
X87585714Y-112575000D01*
X87692857Y-112575000D01*
X87764285Y-112610714D01*
X87800000Y-112646428D01*
X87835714Y-112717857D01*
X87835714Y-112896428D01*
X87800000Y-112967857D01*
X87764285Y-113003571D01*
X87692857Y-113039285D01*
X87478571Y-113039285D01*
X87407142Y-113003571D01*
X87371428Y-112967857D01*
X88050000Y-112289285D02*
X88300000Y-113039285D01*
X88550000Y-112289285D01*
X88728571Y-112289285D02*
X89192857Y-112289285D01*
X88942857Y-112575000D01*
X89050000Y-112575000D01*
X89121428Y-112610714D01*
X89157142Y-112646428D01*
X89192857Y-112717857D01*
X89192857Y-112896428D01*
X89157142Y-112967857D01*
X89121428Y-113003571D01*
X89050000Y-113039285D01*
X88835714Y-113039285D01*
X88764285Y-113003571D01*
X88728571Y-112967857D01*
X82253571Y-113039285D02*
X82253571Y-112289285D01*
X82432142Y-112289285D01*
X82539285Y-112325000D01*
X82610714Y-112396428D01*
X82646428Y-112467857D01*
X82682142Y-112610714D01*
X82682142Y-112717857D01*
X82646428Y-112860714D01*
X82610714Y-112932142D01*
X82539285Y-113003571D01*
X82432142Y-113039285D01*
X82253571Y-113039285D01*
X83432142Y-112967857D02*
X83396428Y-113003571D01*
X83289285Y-113039285D01*
X83217857Y-113039285D01*
X83110714Y-113003571D01*
X83039285Y-112932142D01*
X83003571Y-112860714D01*
X82967857Y-112717857D01*
X82967857Y-112610714D01*
X83003571Y-112467857D01*
X83039285Y-112396428D01*
X83110714Y-112325000D01*
X83217857Y-112289285D01*
X83289285Y-112289285D01*
X83396428Y-112325000D01*
X83432142Y-112360714D01*
X84182142Y-112967857D02*
X84146428Y-113003571D01*
X84039285Y-113039285D01*
X83967857Y-113039285D01*
X83860714Y-113003571D01*
X83789285Y-112932142D01*
X83753571Y-112860714D01*
X83717857Y-112717857D01*
X83717857Y-112610714D01*
X83753571Y-112467857D01*
X83789285Y-112396428D01*
X83860714Y-112325000D01*
X83967857Y-112289285D01*
X84039285Y-112289285D01*
X84146428Y-112325000D01*
X84182142Y-112360714D01*
X77528571Y-112325000D02*
X77457142Y-112289285D01*
X77350000Y-112289285D01*
X77242857Y-112325000D01*
X77171428Y-112396428D01*
X77135714Y-112467857D01*
X77100000Y-112610714D01*
X77100000Y-112717857D01*
X77135714Y-112860714D01*
X77171428Y-112932142D01*
X77242857Y-113003571D01*
X77350000Y-113039285D01*
X77421428Y-113039285D01*
X77528571Y-113003571D01*
X77564285Y-112967857D01*
X77564285Y-112717857D01*
X77421428Y-112717857D01*
X77885714Y-113039285D02*
X77885714Y-112289285D01*
X78314285Y-113039285D01*
X78314285Y-112289285D01*
X78671428Y-113039285D02*
X78671428Y-112289285D01*
X78850000Y-112289285D01*
X78957142Y-112325000D01*
X79028571Y-112396428D01*
X79064285Y-112467857D01*
X79100000Y-112610714D01*
X79100000Y-112717857D01*
X79064285Y-112860714D01*
X79028571Y-112932142D01*
X78957142Y-113003571D01*
X78850000Y-113039285D01*
X78671428Y-113039285D01*
X89253571Y-121539285D02*
X89253571Y-120789285D01*
X89539285Y-120789285D01*
X89610714Y-120825000D01*
X89646428Y-120860714D01*
X89682142Y-120932142D01*
X89682142Y-121039285D01*
X89646428Y-121110714D01*
X89610714Y-121146428D01*
X89539285Y-121182142D01*
X89253571Y-121182142D01*
X90146428Y-120789285D02*
X90217857Y-120789285D01*
X90289285Y-120825000D01*
X90325000Y-120860714D01*
X90360714Y-120932142D01*
X90396428Y-121075000D01*
X90396428Y-121253571D01*
X90360714Y-121396428D01*
X90325000Y-121467857D01*
X90289285Y-121503571D01*
X90217857Y-121539285D01*
X90146428Y-121539285D01*
X90075000Y-121503571D01*
X90039285Y-121467857D01*
X90003571Y-121396428D01*
X89967857Y-121253571D01*
X89967857Y-121075000D01*
X90003571Y-120932142D01*
X90039285Y-120860714D01*
X90075000Y-120825000D01*
X90146428Y-120789285D01*
X90717857Y-121467857D02*
X90753571Y-121503571D01*
X90717857Y-121539285D01*
X90682142Y-121503571D01*
X90717857Y-121467857D01*
X90717857Y-121539285D01*
X91039285Y-120860714D02*
X91075000Y-120825000D01*
X91146428Y-120789285D01*
X91325000Y-120789285D01*
X91396428Y-120825000D01*
X91432142Y-120860714D01*
X91467857Y-120932142D01*
X91467857Y-121003571D01*
X91432142Y-121110714D01*
X91003571Y-121539285D01*
X91467857Y-121539285D01*
X91825000Y-121539285D02*
X91967857Y-121539285D01*
X92039285Y-121503571D01*
X92075000Y-121467857D01*
X92146428Y-121360714D01*
X92182142Y-121217857D01*
X92182142Y-120932142D01*
X92146428Y-120860714D01*
X92110714Y-120825000D01*
X92039285Y-120789285D01*
X91896428Y-120789285D01*
X91825000Y-120825000D01*
X91789285Y-120860714D01*
X91753571Y-120932142D01*
X91753571Y-121110714D01*
X91789285Y-121182142D01*
X91825000Y-121217857D01*
X91896428Y-121253571D01*
X92039285Y-121253571D01*
X92110714Y-121217857D01*
X92146428Y-121182142D01*
X92182142Y-121110714D01*
X79353571Y-121539285D02*
X79353571Y-120789285D01*
X79639285Y-120789285D01*
X79710714Y-120825000D01*
X79746428Y-120860714D01*
X79782142Y-120932142D01*
X79782142Y-121039285D01*
X79746428Y-121110714D01*
X79710714Y-121146428D01*
X79639285Y-121182142D01*
X79353571Y-121182142D01*
X80246428Y-120789285D02*
X80317857Y-120789285D01*
X80389285Y-120825000D01*
X80425000Y-120860714D01*
X80460714Y-120932142D01*
X80496428Y-121075000D01*
X80496428Y-121253571D01*
X80460714Y-121396428D01*
X80425000Y-121467857D01*
X80389285Y-121503571D01*
X80317857Y-121539285D01*
X80246428Y-121539285D01*
X80175000Y-121503571D01*
X80139285Y-121467857D01*
X80103571Y-121396428D01*
X80067857Y-121253571D01*
X80067857Y-121075000D01*
X80103571Y-120932142D01*
X80139285Y-120860714D01*
X80175000Y-120825000D01*
X80246428Y-120789285D01*
X80817857Y-121467857D02*
X80853571Y-121503571D01*
X80817857Y-121539285D01*
X80782142Y-121503571D01*
X80817857Y-121467857D01*
X80817857Y-121539285D01*
X81103571Y-120789285D02*
X81567857Y-120789285D01*
X81317857Y-121075000D01*
X81425000Y-121075000D01*
X81496428Y-121110714D01*
X81532142Y-121146428D01*
X81567857Y-121217857D01*
X81567857Y-121396428D01*
X81532142Y-121467857D01*
X81496428Y-121503571D01*
X81425000Y-121539285D01*
X81210714Y-121539285D01*
X81139285Y-121503571D01*
X81103571Y-121467857D01*
X82282142Y-121539285D02*
X81853571Y-121539285D01*
X82067857Y-121539285D02*
X82067857Y-120789285D01*
X81996428Y-120896428D01*
X81925000Y-120967857D01*
X81853571Y-121003571D01*
X74253571Y-121539285D02*
X74253571Y-120789285D01*
X74539285Y-120789285D01*
X74610714Y-120825000D01*
X74646428Y-120860714D01*
X74682142Y-120932142D01*
X74682142Y-121039285D01*
X74646428Y-121110714D01*
X74610714Y-121146428D01*
X74539285Y-121182142D01*
X74253571Y-121182142D01*
X75146428Y-120789285D02*
X75217857Y-120789285D01*
X75289285Y-120825000D01*
X75325000Y-120860714D01*
X75360714Y-120932142D01*
X75396428Y-121075000D01*
X75396428Y-121253571D01*
X75360714Y-121396428D01*
X75325000Y-121467857D01*
X75289285Y-121503571D01*
X75217857Y-121539285D01*
X75146428Y-121539285D01*
X75075000Y-121503571D01*
X75039285Y-121467857D01*
X75003571Y-121396428D01*
X74967857Y-121253571D01*
X74967857Y-121075000D01*
X75003571Y-120932142D01*
X75039285Y-120860714D01*
X75075000Y-120825000D01*
X75146428Y-120789285D01*
X75717857Y-121467857D02*
X75753571Y-121503571D01*
X75717857Y-121539285D01*
X75682142Y-121503571D01*
X75717857Y-121467857D01*
X75717857Y-121539285D01*
X76039285Y-120860714D02*
X76075000Y-120825000D01*
X76146428Y-120789285D01*
X76325000Y-120789285D01*
X76396428Y-120825000D01*
X76432142Y-120860714D01*
X76467857Y-120932142D01*
X76467857Y-121003571D01*
X76432142Y-121110714D01*
X76003571Y-121539285D01*
X76467857Y-121539285D01*
X76717857Y-120789285D02*
X77217857Y-120789285D01*
X76896428Y-121539285D01*
X55953571Y-87339285D02*
X55953571Y-86589285D01*
X56239285Y-86589285D01*
X56310714Y-86625000D01*
X56346428Y-86660714D01*
X56382142Y-86732142D01*
X56382142Y-86839285D01*
X56346428Y-86910714D01*
X56310714Y-86946428D01*
X56239285Y-86982142D01*
X55953571Y-86982142D01*
X56846428Y-86589285D02*
X56917857Y-86589285D01*
X56989285Y-86625000D01*
X57025000Y-86660714D01*
X57060714Y-86732142D01*
X57096428Y-86875000D01*
X57096428Y-87053571D01*
X57060714Y-87196428D01*
X57025000Y-87267857D01*
X56989285Y-87303571D01*
X56917857Y-87339285D01*
X56846428Y-87339285D01*
X56775000Y-87303571D01*
X56739285Y-87267857D01*
X56703571Y-87196428D01*
X56667857Y-87053571D01*
X56667857Y-86875000D01*
X56703571Y-86732142D01*
X56739285Y-86660714D01*
X56775000Y-86625000D01*
X56846428Y-86589285D01*
X57417857Y-87267857D02*
X57453571Y-87303571D01*
X57417857Y-87339285D01*
X57382142Y-87303571D01*
X57417857Y-87267857D01*
X57417857Y-87339285D01*
X57739285Y-86660714D02*
X57775000Y-86625000D01*
X57846428Y-86589285D01*
X58025000Y-86589285D01*
X58096428Y-86625000D01*
X58132142Y-86660714D01*
X58167857Y-86732142D01*
X58167857Y-86803571D01*
X58132142Y-86910714D01*
X57703571Y-87339285D01*
X58167857Y-87339285D01*
X58810714Y-86589285D02*
X58667857Y-86589285D01*
X58596428Y-86625000D01*
X58560714Y-86660714D01*
X58489285Y-86767857D01*
X58453571Y-86910714D01*
X58453571Y-87196428D01*
X58489285Y-87267857D01*
X58525000Y-87303571D01*
X58596428Y-87339285D01*
X58739285Y-87339285D01*
X58810714Y-87303571D01*
X58846428Y-87267857D01*
X58882142Y-87196428D01*
X58882142Y-87017857D01*
X58846428Y-86946428D01*
X58810714Y-86910714D01*
X58739285Y-86875000D01*
X58596428Y-86875000D01*
X58525000Y-86910714D01*
X58489285Y-86946428D01*
X58453571Y-87017857D01*
X55953571Y-88639285D02*
X55953571Y-87889285D01*
X56239285Y-87889285D01*
X56310714Y-87925000D01*
X56346428Y-87960714D01*
X56382142Y-88032142D01*
X56382142Y-88139285D01*
X56346428Y-88210714D01*
X56310714Y-88246428D01*
X56239285Y-88282142D01*
X55953571Y-88282142D01*
X56846428Y-87889285D02*
X56917857Y-87889285D01*
X56989285Y-87925000D01*
X57025000Y-87960714D01*
X57060714Y-88032142D01*
X57096428Y-88175000D01*
X57096428Y-88353571D01*
X57060714Y-88496428D01*
X57025000Y-88567857D01*
X56989285Y-88603571D01*
X56917857Y-88639285D01*
X56846428Y-88639285D01*
X56775000Y-88603571D01*
X56739285Y-88567857D01*
X56703571Y-88496428D01*
X56667857Y-88353571D01*
X56667857Y-88175000D01*
X56703571Y-88032142D01*
X56739285Y-87960714D01*
X56775000Y-87925000D01*
X56846428Y-87889285D01*
X57417857Y-88567857D02*
X57453571Y-88603571D01*
X57417857Y-88639285D01*
X57382142Y-88603571D01*
X57417857Y-88567857D01*
X57417857Y-88639285D01*
X57739285Y-87960714D02*
X57775000Y-87925000D01*
X57846428Y-87889285D01*
X58025000Y-87889285D01*
X58096428Y-87925000D01*
X58132142Y-87960714D01*
X58167857Y-88032142D01*
X58167857Y-88103571D01*
X58132142Y-88210714D01*
X57703571Y-88639285D01*
X58167857Y-88639285D01*
X58417857Y-87889285D02*
X58917857Y-87889285D01*
X58596428Y-88639285D01*
X91400000Y-87550000D02*
X92500000Y-87550000D01*
X91400000Y-87550000D02*
X91400000Y-87000000D01*
X91400000Y-83700000D02*
X92500000Y-83700000D01*
X91400000Y-84250000D02*
X91400000Y-83700000D01*
X90671428Y-82189285D02*
X91135714Y-82189285D01*
X90885714Y-82475000D01*
X90992857Y-82475000D01*
X91064285Y-82510714D01*
X91100000Y-82546428D01*
X91135714Y-82617857D01*
X91135714Y-82796428D01*
X91100000Y-82867857D01*
X91064285Y-82903571D01*
X90992857Y-82939285D01*
X90778571Y-82939285D01*
X90707142Y-82903571D01*
X90671428Y-82867857D01*
X91350000Y-82189285D02*
X91600000Y-82939285D01*
X91850000Y-82189285D01*
X92028571Y-82189285D02*
X92492857Y-82189285D01*
X92242857Y-82475000D01*
X92350000Y-82475000D01*
X92421428Y-82510714D01*
X92457142Y-82546428D01*
X92492857Y-82617857D01*
X92492857Y-82796428D01*
X92457142Y-82867857D01*
X92421428Y-82903571D01*
X92350000Y-82939285D01*
X92135714Y-82939285D01*
X92064285Y-82903571D01*
X92028571Y-82867857D01*
X91025000Y-86221428D02*
X90989285Y-86292857D01*
X90989285Y-86400000D01*
X91025000Y-86507142D01*
X91096428Y-86578571D01*
X91167857Y-86614285D01*
X91310714Y-86650000D01*
X91417857Y-86650000D01*
X91560714Y-86614285D01*
X91632142Y-86578571D01*
X91703571Y-86507142D01*
X91739285Y-86400000D01*
X91739285Y-86328571D01*
X91703571Y-86221428D01*
X91667857Y-86185714D01*
X91417857Y-86185714D01*
X91417857Y-86328571D01*
X91739285Y-85864285D02*
X90989285Y-85864285D01*
X91739285Y-85435714D01*
X90989285Y-85435714D01*
X91739285Y-85078571D02*
X90989285Y-85078571D01*
X90989285Y-84900000D01*
X91025000Y-84792857D01*
X91096428Y-84721428D01*
X91167857Y-84685714D01*
X91310714Y-84650000D01*
X91417857Y-84650000D01*
X91560714Y-84685714D01*
X91632142Y-84721428D01*
X91703571Y-84792857D01*
X91739285Y-84900000D01*
X91739285Y-85078571D01*
X100710714Y-87989285D02*
X100460714Y-87632142D01*
X100282142Y-87989285D02*
X100282142Y-87239285D01*
X100567857Y-87239285D01*
X100639285Y-87275000D01*
X100675000Y-87310714D01*
X100710714Y-87382142D01*
X100710714Y-87489285D01*
X100675000Y-87560714D01*
X100639285Y-87596428D01*
X100567857Y-87632142D01*
X100282142Y-87632142D01*
X101032142Y-87596428D02*
X101282142Y-87596428D01*
X101389285Y-87989285D02*
X101032142Y-87989285D01*
X101032142Y-87239285D01*
X101389285Y-87239285D01*
X101675000Y-87953571D02*
X101782142Y-87989285D01*
X101960714Y-87989285D01*
X102032142Y-87953571D01*
X102067857Y-87917857D01*
X102103571Y-87846428D01*
X102103571Y-87775000D01*
X102067857Y-87703571D01*
X102032142Y-87667857D01*
X101960714Y-87632142D01*
X101817857Y-87596428D01*
X101746428Y-87560714D01*
X101710714Y-87525000D01*
X101675000Y-87453571D01*
X101675000Y-87382142D01*
X101710714Y-87310714D01*
X101746428Y-87275000D01*
X101817857Y-87239285D01*
X101996428Y-87239285D01*
X102103571Y-87275000D01*
X102425000Y-87596428D02*
X102675000Y-87596428D01*
X102782142Y-87989285D02*
X102425000Y-87989285D01*
X102425000Y-87239285D01*
X102782142Y-87239285D01*
X102996428Y-87239285D02*
X103425000Y-87239285D01*
X103210714Y-87989285D02*
X103210714Y-87239285D01*
X100264285Y-85403571D02*
X100371428Y-85439285D01*
X100550000Y-85439285D01*
X100621428Y-85403571D01*
X100657142Y-85367857D01*
X100692857Y-85296428D01*
X100692857Y-85225000D01*
X100657142Y-85153571D01*
X100621428Y-85117857D01*
X100550000Y-85082142D01*
X100407142Y-85046428D01*
X100335714Y-85010714D01*
X100300000Y-84975000D01*
X100264285Y-84903571D01*
X100264285Y-84832142D01*
X100300000Y-84760714D01*
X100335714Y-84725000D01*
X100407142Y-84689285D01*
X100585714Y-84689285D01*
X100692857Y-84725000D01*
X100942857Y-84689285D02*
X101121428Y-85439285D01*
X101264285Y-84903571D01*
X101407142Y-85439285D01*
X101585714Y-84689285D01*
X102014285Y-84689285D02*
X102157142Y-84689285D01*
X102228571Y-84725000D01*
X102300000Y-84796428D01*
X102335714Y-84939285D01*
X102335714Y-85189285D01*
X102300000Y-85332142D01*
X102228571Y-85403571D01*
X102157142Y-85439285D01*
X102014285Y-85439285D01*
X101942857Y-85403571D01*
X101871428Y-85332142D01*
X101835714Y-85189285D01*
X101835714Y-84939285D01*
X101871428Y-84796428D01*
X101942857Y-84725000D01*
X102014285Y-84689285D01*
X100203571Y-84153571D02*
X100310714Y-84189285D01*
X100489285Y-84189285D01*
X100560714Y-84153571D01*
X100596428Y-84117857D01*
X100632142Y-84046428D01*
X100632142Y-83975000D01*
X100596428Y-83903571D01*
X100560714Y-83867857D01*
X100489285Y-83832142D01*
X100346428Y-83796428D01*
X100275000Y-83760714D01*
X100239285Y-83725000D01*
X100203571Y-83653571D01*
X100203571Y-83582142D01*
X100239285Y-83510714D01*
X100275000Y-83475000D01*
X100346428Y-83439285D01*
X100525000Y-83439285D01*
X100632142Y-83475000D01*
X100882142Y-83439285D02*
X101060714Y-84189285D01*
X101203571Y-83653571D01*
X101346428Y-84189285D01*
X101525000Y-83439285D01*
X102239285Y-84117857D02*
X102203571Y-84153571D01*
X102096428Y-84189285D01*
X102025000Y-84189285D01*
X101917857Y-84153571D01*
X101846428Y-84082142D01*
X101810714Y-84010714D01*
X101775000Y-83867857D01*
X101775000Y-83760714D01*
X101810714Y-83617857D01*
X101846428Y-83546428D01*
X101917857Y-83475000D01*
X102025000Y-83439285D01*
X102096428Y-83439285D01*
X102203571Y-83475000D01*
X102239285Y-83510714D01*
X102917857Y-84189285D02*
X102560714Y-84189285D01*
X102560714Y-83439285D01*
X103167857Y-84189285D02*
X103167857Y-83439285D01*
X103596428Y-84189285D02*
X103275000Y-83760714D01*
X103596428Y-83439285D02*
X103167857Y-83867857D01*
X100210714Y-82903571D02*
X100317857Y-82939285D01*
X100496428Y-82939285D01*
X100567857Y-82903571D01*
X100603571Y-82867857D01*
X100639285Y-82796428D01*
X100639285Y-82725000D01*
X100603571Y-82653571D01*
X100567857Y-82617857D01*
X100496428Y-82582142D01*
X100353571Y-82546428D01*
X100282142Y-82510714D01*
X100246428Y-82475000D01*
X100210714Y-82403571D01*
X100210714Y-82332142D01*
X100246428Y-82260714D01*
X100282142Y-82225000D01*
X100353571Y-82189285D01*
X100532142Y-82189285D01*
X100639285Y-82225000D01*
X100889285Y-82189285D02*
X101067857Y-82939285D01*
X101210714Y-82403571D01*
X101353571Y-82939285D01*
X101532142Y-82189285D01*
X101817857Y-82939285D02*
X101817857Y-82189285D01*
X101996428Y-82189285D01*
X102103571Y-82225000D01*
X102175000Y-82296428D01*
X102210714Y-82367857D01*
X102246428Y-82510714D01*
X102246428Y-82617857D01*
X102210714Y-82760714D01*
X102175000Y-82832142D01*
X102103571Y-82903571D01*
X101996428Y-82939285D01*
X101817857Y-82939285D01*
X102567857Y-82939285D02*
X102567857Y-82189285D01*
X103067857Y-82189285D02*
X103210714Y-82189285D01*
X103282142Y-82225000D01*
X103353571Y-82296428D01*
X103389285Y-82439285D01*
X103389285Y-82689285D01*
X103353571Y-82832142D01*
X103282142Y-82903571D01*
X103210714Y-82939285D01*
X103067857Y-82939285D01*
X102996428Y-82903571D01*
X102925000Y-82832142D01*
X102889285Y-82689285D01*
X102889285Y-82439285D01*
X102925000Y-82296428D01*
X102996428Y-82225000D01*
X103067857Y-82189285D01*
X142478571Y-96889285D02*
X142728571Y-97639285D01*
X142978571Y-96889285D01*
X143228571Y-97639285D02*
X143228571Y-96889285D01*
X143585714Y-97639285D02*
X143585714Y-96889285D01*
X144014285Y-97639285D01*
X144014285Y-96889285D01*
X142928571Y-98825000D02*
X142857142Y-98789285D01*
X142750000Y-98789285D01*
X142642857Y-98825000D01*
X142571428Y-98896428D01*
X142535714Y-98967857D01*
X142500000Y-99110714D01*
X142500000Y-99217857D01*
X142535714Y-99360714D01*
X142571428Y-99432142D01*
X142642857Y-99503571D01*
X142750000Y-99539285D01*
X142821428Y-99539285D01*
X142928571Y-99503571D01*
X142964285Y-99467857D01*
X142964285Y-99217857D01*
X142821428Y-99217857D01*
X143285714Y-99539285D02*
X143285714Y-98789285D01*
X143714285Y-99539285D01*
X143714285Y-98789285D01*
X144071428Y-99539285D02*
X144071428Y-98789285D01*
X144250000Y-98789285D01*
X144357142Y-98825000D01*
X144428571Y-98896428D01*
X144464285Y-98967857D01*
X144500000Y-99110714D01*
X144500000Y-99217857D01*
X144464285Y-99360714D01*
X144428571Y-99432142D01*
X144357142Y-99503571D01*
X144250000Y-99539285D01*
X144071428Y-99539285D01*
D10*
X146885714Y-92807142D02*
X147100000Y-92878571D01*
X147457142Y-92878571D01*
X147600000Y-92807142D01*
X147671428Y-92735714D01*
X147742857Y-92592857D01*
X147742857Y-92450000D01*
X147671428Y-92307142D01*
X147600000Y-92235714D01*
X147457142Y-92164285D01*
X147171428Y-92092857D01*
X147028571Y-92021428D01*
X146957142Y-91950000D01*
X146885714Y-91807142D01*
X146885714Y-91664285D01*
X146957142Y-91521428D01*
X147028571Y-91450000D01*
X147171428Y-91378571D01*
X147528571Y-91378571D01*
X147742857Y-91450000D01*
X148671428Y-91378571D02*
X148957142Y-91378571D01*
X149100000Y-91450000D01*
X149242857Y-91592857D01*
X149314285Y-91878571D01*
X149314285Y-92378571D01*
X149242857Y-92664285D01*
X149100000Y-92807142D01*
X148957142Y-92878571D01*
X148671428Y-92878571D01*
X148528571Y-92807142D01*
X148385714Y-92664285D01*
X148314285Y-92378571D01*
X148314285Y-91878571D01*
X148385714Y-91592857D01*
X148528571Y-91450000D01*
X148671428Y-91378571D01*
X150671428Y-92878571D02*
X149957142Y-92878571D01*
X149957142Y-91378571D01*
X151100000Y-92450000D02*
X151814285Y-92450000D01*
X150957142Y-92878571D02*
X151457142Y-91378571D01*
X151957142Y-92878571D01*
X153314285Y-92878571D02*
X152814285Y-92164285D01*
X152457142Y-92878571D02*
X152457142Y-91378571D01*
X153028571Y-91378571D01*
X153171428Y-91450000D01*
X153242857Y-91521428D01*
X153314285Y-91664285D01*
X153314285Y-91878571D01*
X153242857Y-92021428D01*
X153171428Y-92092857D01*
X153028571Y-92164285D01*
X152457142Y-92164285D01*
X135507142Y-80978571D02*
X135507142Y-79478571D01*
X136078571Y-79478571D01*
X136221428Y-79550000D01*
X136292857Y-79621428D01*
X136364285Y-79764285D01*
X136364285Y-79978571D01*
X136292857Y-80121428D01*
X136221428Y-80192857D01*
X136078571Y-80264285D01*
X135507142Y-80264285D01*
X137292857Y-79478571D02*
X137435714Y-79478571D01*
X137578571Y-79550000D01*
X137650000Y-79621428D01*
X137721428Y-79764285D01*
X137792857Y-80050000D01*
X137792857Y-80407142D01*
X137721428Y-80692857D01*
X137650000Y-80835714D01*
X137578571Y-80907142D01*
X137435714Y-80978571D01*
X137292857Y-80978571D01*
X137150000Y-80907142D01*
X137078571Y-80835714D01*
X137007142Y-80692857D01*
X136935714Y-80407142D01*
X136935714Y-80050000D01*
X137007142Y-79764285D01*
X137078571Y-79621428D01*
X137150000Y-79550000D01*
X137292857Y-79478571D01*
X138435714Y-80835714D02*
X138507142Y-80907142D01*
X138435714Y-80978571D01*
X138364285Y-80907142D01*
X138435714Y-80835714D01*
X138435714Y-80978571D01*
X139078571Y-79621428D02*
X139150000Y-79550000D01*
X139292857Y-79478571D01*
X139650000Y-79478571D01*
X139792857Y-79550000D01*
X139864285Y-79621428D01*
X139935714Y-79764285D01*
X139935714Y-79907142D01*
X139864285Y-80121428D01*
X139007142Y-80978571D01*
X139935714Y-80978571D01*
X141292857Y-79478571D02*
X140578571Y-79478571D01*
X140507142Y-80192857D01*
X140578571Y-80121428D01*
X140721428Y-80050000D01*
X141078571Y-80050000D01*
X141221428Y-80121428D01*
X141292857Y-80192857D01*
X141364285Y-80335714D01*
X141364285Y-80692857D01*
X141292857Y-80835714D01*
X141221428Y-80907142D01*
X141078571Y-80978571D01*
X140721428Y-80978571D01*
X140578571Y-80907142D01*
X140507142Y-80835714D01*
X125971428Y-80978571D02*
X125471428Y-80264285D01*
X125114285Y-80978571D02*
X125114285Y-79478571D01*
X125685714Y-79478571D01*
X125828571Y-79550000D01*
X125900000Y-79621428D01*
X125971428Y-79764285D01*
X125971428Y-79978571D01*
X125900000Y-80121428D01*
X125828571Y-80192857D01*
X125685714Y-80264285D01*
X125114285Y-80264285D01*
X126614285Y-80192857D02*
X127114285Y-80192857D01*
X127328571Y-80978571D02*
X126614285Y-80978571D01*
X126614285Y-79478571D01*
X127328571Y-79478571D01*
X127900000Y-80907142D02*
X128114285Y-80978571D01*
X128471428Y-80978571D01*
X128614285Y-80907142D01*
X128685714Y-80835714D01*
X128757142Y-80692857D01*
X128757142Y-80550000D01*
X128685714Y-80407142D01*
X128614285Y-80335714D01*
X128471428Y-80264285D01*
X128185714Y-80192857D01*
X128042857Y-80121428D01*
X127971428Y-80050000D01*
X127900000Y-79907142D01*
X127900000Y-79764285D01*
X127971428Y-79621428D01*
X128042857Y-79550000D01*
X128185714Y-79478571D01*
X128542857Y-79478571D01*
X128757142Y-79550000D01*
X129400000Y-80192857D02*
X129900000Y-80192857D01*
X130114285Y-80978571D02*
X129400000Y-80978571D01*
X129400000Y-79478571D01*
X130114285Y-79478571D01*
X130542857Y-79478571D02*
X131400000Y-79478571D01*
X130971428Y-80978571D02*
X130971428Y-79478571D01*
D12*
X119078571Y-81225000D02*
X119007142Y-81189285D01*
X118900000Y-81189285D01*
X118792857Y-81225000D01*
X118721428Y-81296428D01*
X118685714Y-81367857D01*
X118650000Y-81510714D01*
X118650000Y-81617857D01*
X118685714Y-81760714D01*
X118721428Y-81832142D01*
X118792857Y-81903571D01*
X118900000Y-81939285D01*
X118971428Y-81939285D01*
X119078571Y-81903571D01*
X119114285Y-81867857D01*
X119114285Y-81617857D01*
X118971428Y-81617857D01*
X119435714Y-81939285D02*
X119435714Y-81189285D01*
X119864285Y-81939285D01*
X119864285Y-81189285D01*
X120221428Y-81939285D02*
X120221428Y-81189285D01*
X120400000Y-81189285D01*
X120507142Y-81225000D01*
X120578571Y-81296428D01*
X120614285Y-81367857D01*
X120650000Y-81510714D01*
X120650000Y-81617857D01*
X120614285Y-81760714D01*
X120578571Y-81832142D01*
X120507142Y-81903571D01*
X120400000Y-81939285D01*
X120221428Y-81939285D01*
X116739285Y-81867857D02*
X116703571Y-81903571D01*
X116596428Y-81939285D01*
X116525000Y-81939285D01*
X116417857Y-81903571D01*
X116346428Y-81832142D01*
X116310714Y-81760714D01*
X116275000Y-81617857D01*
X116275000Y-81510714D01*
X116310714Y-81367857D01*
X116346428Y-81296428D01*
X116417857Y-81225000D01*
X116525000Y-81189285D01*
X116596428Y-81189285D01*
X116703571Y-81225000D01*
X116739285Y-81260714D01*
X116953571Y-81189285D02*
X117382142Y-81189285D01*
X117167857Y-81939285D02*
X117167857Y-81189285D01*
X117596428Y-81903571D02*
X117703571Y-81939285D01*
X117882142Y-81939285D01*
X117953571Y-81903571D01*
X117989285Y-81867857D01*
X118025000Y-81796428D01*
X118025000Y-81725000D01*
X117989285Y-81653571D01*
X117953571Y-81617857D01*
X117882142Y-81582142D01*
X117739285Y-81546428D01*
X117667857Y-81510714D01*
X117632142Y-81475000D01*
X117596428Y-81403571D01*
X117596428Y-81332142D01*
X117632142Y-81260714D01*
X117667857Y-81225000D01*
X117739285Y-81189285D01*
X117917857Y-81189285D01*
X118025000Y-81225000D01*
X114239285Y-81939285D02*
X113989285Y-81582142D01*
X113810714Y-81939285D02*
X113810714Y-81189285D01*
X114096428Y-81189285D01*
X114167857Y-81225000D01*
X114203571Y-81260714D01*
X114239285Y-81332142D01*
X114239285Y-81439285D01*
X114203571Y-81510714D01*
X114167857Y-81546428D01*
X114096428Y-81582142D01*
X113810714Y-81582142D01*
X114453571Y-81189285D02*
X114882142Y-81189285D01*
X114667857Y-81939285D02*
X114667857Y-81189285D01*
X115096428Y-81903571D02*
X115203571Y-81939285D01*
X115382142Y-81939285D01*
X115453571Y-81903571D01*
X115489285Y-81867857D01*
X115525000Y-81796428D01*
X115525000Y-81725000D01*
X115489285Y-81653571D01*
X115453571Y-81617857D01*
X115382142Y-81582142D01*
X115239285Y-81546428D01*
X115167857Y-81510714D01*
X115132142Y-81475000D01*
X115096428Y-81403571D01*
X115096428Y-81332142D01*
X115132142Y-81260714D01*
X115167857Y-81225000D01*
X115239285Y-81189285D01*
X115417857Y-81189285D01*
X115525000Y-81225000D01*
X111925000Y-81939285D02*
X111675000Y-81582142D01*
X111496428Y-81939285D02*
X111496428Y-81189285D01*
X111782142Y-81189285D01*
X111853571Y-81225000D01*
X111889285Y-81260714D01*
X111925000Y-81332142D01*
X111925000Y-81439285D01*
X111889285Y-81510714D01*
X111853571Y-81546428D01*
X111782142Y-81582142D01*
X111496428Y-81582142D01*
X112175000Y-81189285D02*
X112675000Y-81939285D01*
X112675000Y-81189285D02*
X112175000Y-81939285D01*
X108978571Y-81189285D02*
X109407142Y-81189285D01*
X109192857Y-81939285D02*
X109192857Y-81189285D01*
X109585714Y-81189285D02*
X110085714Y-81939285D01*
X110085714Y-81189285D02*
X109585714Y-81939285D01*
X106121428Y-81189285D02*
X106585714Y-81189285D01*
X106335714Y-81475000D01*
X106442857Y-81475000D01*
X106514285Y-81510714D01*
X106550000Y-81546428D01*
X106585714Y-81617857D01*
X106585714Y-81796428D01*
X106550000Y-81867857D01*
X106514285Y-81903571D01*
X106442857Y-81939285D01*
X106228571Y-81939285D01*
X106157142Y-81903571D01*
X106121428Y-81867857D01*
X106800000Y-81189285D02*
X107050000Y-81939285D01*
X107300000Y-81189285D01*
X107478571Y-81189285D02*
X107942857Y-81189285D01*
X107692857Y-81475000D01*
X107800000Y-81475000D01*
X107871428Y-81510714D01*
X107907142Y-81546428D01*
X107942857Y-81617857D01*
X107942857Y-81796428D01*
X107907142Y-81867857D01*
X107871428Y-81903571D01*
X107800000Y-81939285D01*
X107585714Y-81939285D01*
X107514285Y-81903571D01*
X107478571Y-81867857D01*
D10*
X138014285Y-124792857D02*
X138514285Y-124792857D01*
X138728571Y-125578571D02*
X138014285Y-125578571D01*
X138014285Y-124078571D01*
X138728571Y-124078571D01*
X139371428Y-125578571D02*
X139371428Y-124078571D01*
X140228571Y-125578571D01*
X140228571Y-124078571D01*
X140871428Y-125150000D02*
X141585714Y-125150000D01*
X140728571Y-125578571D02*
X141228571Y-124078571D01*
X141728571Y-125578571D01*
X142728571Y-124792857D02*
X142942857Y-124864285D01*
X143014285Y-124935714D01*
X143085714Y-125078571D01*
X143085714Y-125292857D01*
X143014285Y-125435714D01*
X142942857Y-125507142D01*
X142800000Y-125578571D01*
X142228571Y-125578571D01*
X142228571Y-124078571D01*
X142728571Y-124078571D01*
X142871428Y-124150000D01*
X142942857Y-124221428D01*
X143014285Y-124364285D01*
X143014285Y-124507142D01*
X142942857Y-124650000D01*
X142871428Y-124721428D01*
X142728571Y-124792857D01*
X142228571Y-124792857D01*
X144442857Y-125578571D02*
X143728571Y-125578571D01*
X143728571Y-124078571D01*
X144942857Y-124792857D02*
X145442857Y-124792857D01*
X145657142Y-125578571D02*
X144942857Y-125578571D01*
X144942857Y-124078571D01*
X145657142Y-124078571D01*
X147271428Y-134378571D02*
X147557142Y-134378571D01*
X147700000Y-134450000D01*
X147842857Y-134592857D01*
X147914285Y-134878571D01*
X147914285Y-135378571D01*
X147842857Y-135664285D01*
X147700000Y-135807142D01*
X147557142Y-135878571D01*
X147271428Y-135878571D01*
X147128571Y-135807142D01*
X146985714Y-135664285D01*
X146914285Y-135378571D01*
X146914285Y-134878571D01*
X146985714Y-134592857D01*
X147128571Y-134450000D01*
X147271428Y-134378571D01*
X148557142Y-135878571D02*
X148557142Y-134378571D01*
X149414285Y-135878571D01*
X149414285Y-134378571D01*
X146971428Y-124778571D02*
X147257142Y-124778571D01*
X147400000Y-124850000D01*
X147542857Y-124992857D01*
X147614285Y-125278571D01*
X147614285Y-125778571D01*
X147542857Y-126064285D01*
X147400000Y-126207142D01*
X147257142Y-126278571D01*
X146971428Y-126278571D01*
X146828571Y-126207142D01*
X146685714Y-126064285D01*
X146614285Y-125778571D01*
X146614285Y-125278571D01*
X146685714Y-124992857D01*
X146828571Y-124850000D01*
X146971428Y-124778571D01*
X148757142Y-125492857D02*
X148257142Y-125492857D01*
X148257142Y-126278571D02*
X148257142Y-124778571D01*
X148971428Y-124778571D01*
X150042857Y-125492857D02*
X149542857Y-125492857D01*
X149542857Y-126278571D02*
X149542857Y-124778571D01*
X150257142Y-124778571D01*
X108900000Y-138778571D02*
X108185714Y-138778571D01*
X108185714Y-137278571D01*
X109400000Y-138778571D02*
X109400000Y-137278571D01*
X110900000Y-137350000D02*
X110757142Y-137278571D01*
X110542857Y-137278571D01*
X110328571Y-137350000D01*
X110185714Y-137492857D01*
X110114285Y-137635714D01*
X110042857Y-137921428D01*
X110042857Y-138135714D01*
X110114285Y-138421428D01*
X110185714Y-138564285D01*
X110328571Y-138707142D01*
X110542857Y-138778571D01*
X110685714Y-138778571D01*
X110900000Y-138707142D01*
X110971428Y-138635714D01*
X110971428Y-138135714D01*
X110685714Y-138135714D01*
X111614285Y-138778571D02*
X111614285Y-137278571D01*
X111614285Y-137992857D02*
X112471428Y-137992857D01*
X112471428Y-138778571D02*
X112471428Y-137278571D01*
X112971428Y-137278571D02*
X113828571Y-137278571D01*
X113400000Y-138778571D02*
X113400000Y-137278571D01*
D12*
X115903571Y-140139285D02*
X115546428Y-140139285D01*
X115546428Y-139389285D01*
X116153571Y-140139285D02*
X116153571Y-139389285D01*
X116653571Y-139389285D02*
X116796428Y-139389285D01*
X116867857Y-139425000D01*
X116939285Y-139496428D01*
X116975000Y-139639285D01*
X116975000Y-139889285D01*
X116939285Y-140032142D01*
X116867857Y-140103571D01*
X116796428Y-140139285D01*
X116653571Y-140139285D01*
X116582142Y-140103571D01*
X116510714Y-140032142D01*
X116475000Y-139889285D01*
X116475000Y-139639285D01*
X116510714Y-139496428D01*
X116582142Y-139425000D01*
X116653571Y-139389285D01*
X117653571Y-139389285D02*
X117296428Y-139389285D01*
X117260714Y-139746428D01*
X117296428Y-139710714D01*
X117367857Y-139675000D01*
X117546428Y-139675000D01*
X117617857Y-139710714D01*
X117653571Y-139746428D01*
X117689285Y-139817857D01*
X117689285Y-139996428D01*
X117653571Y-140067857D01*
X117617857Y-140103571D01*
X117546428Y-140139285D01*
X117367857Y-140139285D01*
X117296428Y-140103571D01*
X117260714Y-140067857D01*
X108203571Y-140139285D02*
X107846428Y-140139285D01*
X107846428Y-139389285D01*
X108453571Y-140139285D02*
X108453571Y-139389285D01*
X108953571Y-139389285D02*
X109096428Y-139389285D01*
X109167857Y-139425000D01*
X109239285Y-139496428D01*
X109275000Y-139639285D01*
X109275000Y-139889285D01*
X109239285Y-140032142D01*
X109167857Y-140103571D01*
X109096428Y-140139285D01*
X108953571Y-140139285D01*
X108882142Y-140103571D01*
X108810714Y-140032142D01*
X108775000Y-139889285D01*
X108775000Y-139639285D01*
X108810714Y-139496428D01*
X108882142Y-139425000D01*
X108953571Y-139389285D01*
X109560714Y-139460714D02*
X109596428Y-139425000D01*
X109667857Y-139389285D01*
X109846428Y-139389285D01*
X109917857Y-139425000D01*
X109953571Y-139460714D01*
X109989285Y-139532142D01*
X109989285Y-139603571D01*
X109953571Y-139710714D01*
X109525000Y-140139285D01*
X109989285Y-140139285D01*
X110803571Y-140139285D02*
X110446428Y-140139285D01*
X110446428Y-139389285D01*
X111053571Y-140139285D02*
X111053571Y-139389285D01*
X111553571Y-139389285D02*
X111696428Y-139389285D01*
X111767857Y-139425000D01*
X111839285Y-139496428D01*
X111875000Y-139639285D01*
X111875000Y-139889285D01*
X111839285Y-140032142D01*
X111767857Y-140103571D01*
X111696428Y-140139285D01*
X111553571Y-140139285D01*
X111482142Y-140103571D01*
X111410714Y-140032142D01*
X111375000Y-139889285D01*
X111375000Y-139639285D01*
X111410714Y-139496428D01*
X111482142Y-139425000D01*
X111553571Y-139389285D01*
X112125000Y-139389285D02*
X112589285Y-139389285D01*
X112339285Y-139675000D01*
X112446428Y-139675000D01*
X112517857Y-139710714D01*
X112553571Y-139746428D01*
X112589285Y-139817857D01*
X112589285Y-139996428D01*
X112553571Y-140067857D01*
X112517857Y-140103571D01*
X112446428Y-140139285D01*
X112232142Y-140139285D01*
X112160714Y-140103571D01*
X112125000Y-140067857D01*
X113403571Y-140139285D02*
X113046428Y-140139285D01*
X113046428Y-139389285D01*
X113653571Y-140139285D02*
X113653571Y-139389285D01*
X114153571Y-139389285D02*
X114296428Y-139389285D01*
X114367857Y-139425000D01*
X114439285Y-139496428D01*
X114475000Y-139639285D01*
X114475000Y-139889285D01*
X114439285Y-140032142D01*
X114367857Y-140103571D01*
X114296428Y-140139285D01*
X114153571Y-140139285D01*
X114082142Y-140103571D01*
X114010714Y-140032142D01*
X113975000Y-139889285D01*
X113975000Y-139639285D01*
X114010714Y-139496428D01*
X114082142Y-139425000D01*
X114153571Y-139389285D01*
X115117857Y-139639285D02*
X115117857Y-140139285D01*
X114939285Y-139353571D02*
X114760714Y-139889285D01*
X115225000Y-139889285D01*
X101367857Y-139389285D02*
X101617857Y-140139285D01*
X101867857Y-139389285D01*
X102367857Y-139746428D02*
X102475000Y-139782142D01*
X102510714Y-139817857D01*
X102546428Y-139889285D01*
X102546428Y-139996428D01*
X102510714Y-140067857D01*
X102475000Y-140103571D01*
X102403571Y-140139285D01*
X102117857Y-140139285D01*
X102117857Y-139389285D01*
X102367857Y-139389285D01*
X102439285Y-139425000D01*
X102475000Y-139460714D01*
X102510714Y-139532142D01*
X102510714Y-139603571D01*
X102475000Y-139675000D01*
X102439285Y-139710714D01*
X102367857Y-139746428D01*
X102117857Y-139746428D01*
X102832142Y-139925000D02*
X103189285Y-139925000D01*
X102760714Y-140139285D02*
X103010714Y-139389285D01*
X103260714Y-140139285D01*
X103403571Y-139389285D02*
X103832142Y-139389285D01*
X103617857Y-140139285D02*
X103617857Y-139389285D01*
X105703571Y-140139285D02*
X105346428Y-140139285D01*
X105346428Y-139389285D01*
X105953571Y-140139285D02*
X105953571Y-139389285D01*
X106453571Y-139389285D02*
X106596428Y-139389285D01*
X106667857Y-139425000D01*
X106739285Y-139496428D01*
X106775000Y-139639285D01*
X106775000Y-139889285D01*
X106739285Y-140032142D01*
X106667857Y-140103571D01*
X106596428Y-140139285D01*
X106453571Y-140139285D01*
X106382142Y-140103571D01*
X106310714Y-140032142D01*
X106275000Y-139889285D01*
X106275000Y-139639285D01*
X106310714Y-139496428D01*
X106382142Y-139425000D01*
X106453571Y-139389285D01*
X107489285Y-140139285D02*
X107060714Y-140139285D01*
X107275000Y-140139285D02*
X107275000Y-139389285D01*
X107203571Y-139496428D01*
X107132142Y-139567857D01*
X107060714Y-139603571D01*
X92671428Y-139389285D02*
X93135714Y-139389285D01*
X92885714Y-139675000D01*
X92992857Y-139675000D01*
X93064285Y-139710714D01*
X93100000Y-139746428D01*
X93135714Y-139817857D01*
X93135714Y-139996428D01*
X93100000Y-140067857D01*
X93064285Y-140103571D01*
X92992857Y-140139285D01*
X92778571Y-140139285D01*
X92707142Y-140103571D01*
X92671428Y-140067857D01*
X93350000Y-139389285D02*
X93600000Y-140139285D01*
X93850000Y-139389285D01*
X94028571Y-139389285D02*
X94492857Y-139389285D01*
X94242857Y-139675000D01*
X94350000Y-139675000D01*
X94421428Y-139710714D01*
X94457142Y-139746428D01*
X94492857Y-139817857D01*
X94492857Y-139996428D01*
X94457142Y-140067857D01*
X94421428Y-140103571D01*
X94350000Y-140139285D01*
X94135714Y-140139285D01*
X94064285Y-140103571D01*
X94028571Y-140067857D01*
X95350000Y-139925000D02*
X95707142Y-139925000D01*
X95278571Y-140139285D02*
X95528571Y-139389285D01*
X95778571Y-140139285D01*
X96028571Y-140139285D02*
X96028571Y-139389285D01*
X96385714Y-140139285D02*
X96385714Y-139389285D01*
X96814285Y-140139285D01*
X96814285Y-139389285D01*
X98028571Y-139425000D02*
X97957142Y-139389285D01*
X97850000Y-139389285D01*
X97742857Y-139425000D01*
X97671428Y-139496428D01*
X97635714Y-139567857D01*
X97600000Y-139710714D01*
X97600000Y-139817857D01*
X97635714Y-139960714D01*
X97671428Y-140032142D01*
X97742857Y-140103571D01*
X97850000Y-140139285D01*
X97921428Y-140139285D01*
X98028571Y-140103571D01*
X98064285Y-140067857D01*
X98064285Y-139817857D01*
X97921428Y-139817857D01*
X98385714Y-140139285D02*
X98385714Y-139389285D01*
X98814285Y-140139285D01*
X98814285Y-139389285D01*
X99171428Y-140139285D02*
X99171428Y-139389285D01*
X99350000Y-139389285D01*
X99457142Y-139425000D01*
X99528571Y-139496428D01*
X99564285Y-139567857D01*
X99600000Y-139710714D01*
X99600000Y-139817857D01*
X99564285Y-139960714D01*
X99528571Y-140032142D01*
X99457142Y-140103571D01*
X99350000Y-140139285D01*
X99171428Y-140139285D01*
X68921428Y-139389285D02*
X69385714Y-139389285D01*
X69135714Y-139675000D01*
X69242857Y-139675000D01*
X69314285Y-139710714D01*
X69350000Y-139746428D01*
X69385714Y-139817857D01*
X69385714Y-139996428D01*
X69350000Y-140067857D01*
X69314285Y-140103571D01*
X69242857Y-140139285D01*
X69028571Y-140139285D01*
X68957142Y-140103571D01*
X68921428Y-140067857D01*
X69600000Y-139389285D02*
X69850000Y-140139285D01*
X70100000Y-139389285D01*
X70278571Y-139389285D02*
X70742857Y-139389285D01*
X70492857Y-139675000D01*
X70600000Y-139675000D01*
X70671428Y-139710714D01*
X70707142Y-139746428D01*
X70742857Y-139817857D01*
X70742857Y-139996428D01*
X70707142Y-140067857D01*
X70671428Y-140103571D01*
X70600000Y-140139285D01*
X70385714Y-140139285D01*
X70314285Y-140103571D01*
X70278571Y-140067857D01*
X71600000Y-139925000D02*
X71957142Y-139925000D01*
X71528571Y-140139285D02*
X71778571Y-139389285D01*
X72028571Y-140139285D01*
X72278571Y-140139285D02*
X72278571Y-139389285D01*
X72635714Y-140139285D02*
X72635714Y-139389285D01*
X73064285Y-140139285D01*
X73064285Y-139389285D01*
X74278571Y-139425000D02*
X74207142Y-139389285D01*
X74100000Y-139389285D01*
X73992857Y-139425000D01*
X73921428Y-139496428D01*
X73885714Y-139567857D01*
X73850000Y-139710714D01*
X73850000Y-139817857D01*
X73885714Y-139960714D01*
X73921428Y-140032142D01*
X73992857Y-140103571D01*
X74100000Y-140139285D01*
X74171428Y-140139285D01*
X74278571Y-140103571D01*
X74314285Y-140067857D01*
X74314285Y-139817857D01*
X74171428Y-139817857D01*
X74635714Y-140139285D02*
X74635714Y-139389285D01*
X75064285Y-140139285D01*
X75064285Y-139389285D01*
X75421428Y-140139285D02*
X75421428Y-139389285D01*
X75600000Y-139389285D01*
X75707142Y-139425000D01*
X75778571Y-139496428D01*
X75814285Y-139567857D01*
X75850000Y-139710714D01*
X75850000Y-139817857D01*
X75814285Y-139960714D01*
X75778571Y-140032142D01*
X75707142Y-140103571D01*
X75600000Y-140139285D01*
X75421428Y-140139285D01*
X88728571Y-139525000D02*
X88657142Y-139489285D01*
X88550000Y-139489285D01*
X88442857Y-139525000D01*
X88371428Y-139596428D01*
X88335714Y-139667857D01*
X88300000Y-139810714D01*
X88300000Y-139917857D01*
X88335714Y-140060714D01*
X88371428Y-140132142D01*
X88442857Y-140203571D01*
X88550000Y-140239285D01*
X88621428Y-140239285D01*
X88728571Y-140203571D01*
X88764285Y-140167857D01*
X88764285Y-139917857D01*
X88621428Y-139917857D01*
X89085714Y-140239285D02*
X89085714Y-139489285D01*
X89514285Y-140239285D01*
X89514285Y-139489285D01*
X89871428Y-140239285D02*
X89871428Y-139489285D01*
X90050000Y-139489285D01*
X90157142Y-139525000D01*
X90228571Y-139596428D01*
X90264285Y-139667857D01*
X90300000Y-139810714D01*
X90300000Y-139917857D01*
X90264285Y-140060714D01*
X90228571Y-140132142D01*
X90157142Y-140203571D01*
X90050000Y-140239285D01*
X89871428Y-140239285D01*
X86407142Y-140239285D02*
X86407142Y-139489285D01*
X86764285Y-140239285D02*
X86764285Y-139489285D01*
X87192857Y-140239285D01*
X87192857Y-139489285D01*
X83200000Y-139489285D02*
X83450000Y-140239285D01*
X83700000Y-139489285D01*
X84378571Y-140167857D02*
X84342857Y-140203571D01*
X84235714Y-140239285D01*
X84164285Y-140239285D01*
X84057142Y-140203571D01*
X83985714Y-140132142D01*
X83950000Y-140060714D01*
X83914285Y-139917857D01*
X83914285Y-139810714D01*
X83950000Y-139667857D01*
X83985714Y-139596428D01*
X84057142Y-139525000D01*
X84164285Y-139489285D01*
X84235714Y-139489285D01*
X84342857Y-139525000D01*
X84378571Y-139560714D01*
X85128571Y-140167857D02*
X85092857Y-140203571D01*
X84985714Y-140239285D01*
X84914285Y-140239285D01*
X84807142Y-140203571D01*
X84735714Y-140132142D01*
X84700000Y-140060714D01*
X84664285Y-139917857D01*
X84664285Y-139810714D01*
X84700000Y-139667857D01*
X84735714Y-139596428D01*
X84807142Y-139525000D01*
X84914285Y-139489285D01*
X84985714Y-139489285D01*
X85092857Y-139525000D01*
X85128571Y-139560714D01*
D10*
X71564285Y-138878571D02*
X70850000Y-138878571D01*
X70850000Y-137378571D01*
X72064285Y-138878571D02*
X72064285Y-137378571D01*
X72421428Y-137378571D01*
X72635714Y-137450000D01*
X72778571Y-137592857D01*
X72850000Y-137735714D01*
X72921428Y-138021428D01*
X72921428Y-138235714D01*
X72850000Y-138521428D01*
X72778571Y-138664285D01*
X72635714Y-138807142D01*
X72421428Y-138878571D01*
X72064285Y-138878571D01*
X74421428Y-138878571D02*
X73921428Y-138164285D01*
X73564285Y-138878571D02*
X73564285Y-137378571D01*
X74135714Y-137378571D01*
X74278571Y-137450000D01*
X74350000Y-137521428D01*
X74421428Y-137664285D01*
X74421428Y-137878571D01*
X74350000Y-138021428D01*
X74278571Y-138092857D01*
X74135714Y-138164285D01*
X73564285Y-138164285D01*
X85200000Y-138978571D02*
X85200000Y-137478571D01*
X85771428Y-137478571D01*
X85914285Y-137550000D01*
X85985714Y-137621428D01*
X86057142Y-137764285D01*
X86057142Y-137978571D01*
X85985714Y-138121428D01*
X85914285Y-138192857D01*
X85771428Y-138264285D01*
X85200000Y-138264285D01*
X86700000Y-138978571D02*
X86700000Y-137478571D01*
X88271428Y-138978571D02*
X87771428Y-138264285D01*
X87414285Y-138978571D02*
X87414285Y-137478571D01*
X87985714Y-137478571D01*
X88128571Y-137550000D01*
X88200000Y-137621428D01*
X88271428Y-137764285D01*
X88271428Y-137978571D01*
X88200000Y-138121428D01*
X88128571Y-138192857D01*
X87985714Y-138264285D01*
X87414285Y-138264285D01*
D13*
X137850000Y-102850000D02*
X137850000Y-97150000D01*
X142150000Y-102850000D02*
X142150000Y-97150000D01*
X137850000Y-102850000D02*
X142150000Y-102850000D01*
X127690000Y-96538748D02*
X127690000Y-97061252D01*
X129110000Y-96538748D02*
X129110000Y-97061252D01*
X77390000Y-115670000D02*
X74280000Y-115670000D01*
X82470000Y-115670000D02*
X78910000Y-115670000D01*
X87550000Y-115670000D02*
X83990000Y-115670000D01*
X92630000Y-115670000D02*
X89070000Y-115670000D01*
X79930000Y-118330000D02*
X76370000Y-118330000D01*
X85010000Y-118330000D02*
X81450000Y-118330000D01*
X90090000Y-118330000D02*
X86530000Y-118330000D01*
X74850000Y-118330000D02*
X74280000Y-118330000D01*
X94720000Y-115670000D02*
X94150000Y-115670000D01*
X94150000Y-115670000D02*
X94150000Y-114150000D01*
X94720000Y-118330000D02*
X91610000Y-118330000D01*
X74280000Y-115670000D02*
X74280000Y-118330000D01*
X94720000Y-115670000D02*
X94720000Y-118330000D01*
X105170000Y-107110000D02*
X105170000Y-110220000D01*
X105170000Y-102030000D02*
X105170000Y-105590000D01*
X105170000Y-96950000D02*
X105170000Y-100510000D01*
X105170000Y-91870000D02*
X105170000Y-95430000D01*
X107830000Y-104570000D02*
X107830000Y-108130000D01*
X107830000Y-99490000D02*
X107830000Y-103050000D01*
X107830000Y-94410000D02*
X107830000Y-97970000D01*
X107830000Y-109650000D02*
X107830000Y-110220000D01*
X105170000Y-89780000D02*
X105170000Y-90350000D01*
X105170000Y-90350000D02*
X103650000Y-90350000D01*
X107830000Y-89780000D02*
X107830000Y-92890000D01*
X105170000Y-110220000D02*
X107830000Y-110220000D01*
X105170000Y-89780000D02*
X107830000Y-89780000D01*
X68838748Y-108910000D02*
X69361252Y-108910000D01*
X68838748Y-107490000D02*
X69361252Y-107490000D01*
X69102064Y-109740000D02*
X67897936Y-109740000D01*
X69102064Y-112460000D02*
X67897936Y-112460000D01*
X69102064Y-113440000D02*
X67897936Y-113440000D01*
X69102064Y-116160000D02*
X67897936Y-116160000D01*
X81662779Y-110390000D02*
X81337221Y-110390000D01*
X81662779Y-111410000D02*
X81337221Y-111410000D01*
X76737221Y-111410000D02*
X77062779Y-111410000D01*
X76737221Y-110390000D02*
X77062779Y-110390000D01*
X137025000Y-75050000D02*
X136100000Y-75050000D01*
X140900000Y-77175000D02*
X140900000Y-76625000D01*
X136000000Y-77175000D02*
X136000000Y-76625000D01*
X140800000Y-78750000D02*
X136100000Y-78750000D01*
X140800000Y-75050000D02*
X139875000Y-75050000D01*
X126825000Y-75050000D02*
X125900000Y-75050000D01*
X130700000Y-77175000D02*
X130700000Y-76625000D01*
X125800000Y-77175000D02*
X125800000Y-76625000D01*
X130600000Y-78750000D02*
X125900000Y-78750000D01*
X130600000Y-75050000D02*
X129675000Y-75050000D01*
X154410000Y-100440000D02*
X154410000Y-95760000D01*
X148190000Y-95060000D02*
X148190000Y-96340000D01*
X146590000Y-95060000D02*
X148190000Y-95060000D01*
X146590000Y-94040000D02*
X146590000Y-95060000D01*
X150840000Y-94040000D02*
X146590000Y-94040000D01*
X148190000Y-99860000D02*
X145300000Y-99860000D01*
X148190000Y-101140000D02*
X148190000Y-99860000D01*
X146590000Y-101140000D02*
X148190000Y-101140000D01*
X146590000Y-102160000D02*
X146590000Y-101140000D01*
X150840000Y-102160000D02*
X146590000Y-102160000D01*
X156700000Y-130700000D02*
X156700000Y-130700000D01*
X156700000Y-129900000D02*
X156700000Y-130700000D01*
X156700000Y-129600000D02*
X156700000Y-129600000D01*
X156700000Y-129100000D02*
X156700000Y-129600000D01*
X156700000Y-131000000D02*
X156700000Y-131000000D01*
X156700000Y-131500000D02*
X156700000Y-131000000D01*
X155400000Y-132300000D02*
X155400000Y-132300000D01*
X155900000Y-132300000D02*
X155400000Y-132300000D01*
X155400000Y-128300000D02*
X155400000Y-128300000D01*
X155900000Y-128300000D02*
X155400000Y-128300000D01*
X156200000Y-128300000D02*
X156200000Y-128300000D01*
X156700000Y-128300000D02*
X156200000Y-128300000D01*
X156700000Y-128800000D02*
X156700000Y-128800000D01*
X156700000Y-128300000D02*
X156700000Y-128800000D01*
X156700000Y-131800000D02*
X156700000Y-131800000D01*
X156700000Y-132300000D02*
X156700000Y-131800000D01*
X156200000Y-132300000D02*
X156200000Y-132300000D01*
X156700000Y-132300000D02*
X156200000Y-132300000D01*
X154800000Y-134900000D02*
X154800000Y-134900000D01*
X154800000Y-133200000D02*
X154800000Y-134900000D01*
X155100000Y-133200000D02*
X154800000Y-133200000D01*
X155100000Y-132400000D02*
X155100000Y-133200000D01*
X154800000Y-132400000D02*
X155100000Y-132400000D01*
X154800000Y-130700000D02*
X154800000Y-132400000D01*
X155100000Y-130700000D02*
X154800000Y-130700000D01*
X155100000Y-129900000D02*
X155100000Y-130700000D01*
X154800000Y-129900000D02*
X155100000Y-129900000D01*
X154800000Y-128200000D02*
X154800000Y-129900000D01*
X155100000Y-128200000D02*
X154800000Y-128200000D01*
X155100000Y-127400000D02*
X155100000Y-128200000D01*
X154800000Y-127400000D02*
X155100000Y-127400000D01*
X154800000Y-125700000D02*
X154800000Y-127400000D01*
X151000000Y-132100000D02*
X151000000Y-132100000D01*
X151000000Y-131000000D02*
X151000000Y-132100000D01*
X151000000Y-129600000D02*
X151000000Y-129600000D01*
X151000000Y-128500000D02*
X151000000Y-129600000D01*
X151000000Y-134900000D02*
X151000000Y-133500000D01*
X154800000Y-134900000D02*
X151000000Y-134900000D01*
X151000000Y-125700000D02*
X154800000Y-125700000D01*
X151000000Y-127100000D02*
X151000000Y-125700000D01*
X144430000Y-126270000D02*
X144430000Y-127600000D01*
X143100000Y-126270000D02*
X144430000Y-126270000D01*
X141830000Y-126270000D02*
X141830000Y-128930000D01*
X141830000Y-128930000D02*
X139230000Y-128930000D01*
X141830000Y-126270000D02*
X139230000Y-126270000D01*
X139230000Y-126270000D02*
X139230000Y-128930000D01*
X81600000Y-108300000D02*
G75*
G03X81600000Y-108300000I-950000J0D01*
G01*
X78700000Y-108300000D02*
G75*
G03X78700000Y-108300000I-950000J0D01*
G01*
X144810000Y-81261252D02*
X144810000Y-80738748D01*
X143390000Y-81261252D02*
X143390000Y-80738748D01*
X61661252Y-87890000D02*
X61138748Y-87890000D01*
X61661252Y-89310000D02*
X61138748Y-89310000D01*
X61661252Y-85690000D02*
X61138748Y-85690000D01*
X61661252Y-87110000D02*
X61138748Y-87110000D01*
X55740000Y-90435000D02*
X58200000Y-90435000D01*
X55740000Y-88965000D02*
X55740000Y-90435000D01*
X58200000Y-88965000D02*
X55740000Y-88965000D01*
X55740000Y-86235000D02*
X58200000Y-86235000D01*
X55740000Y-84765000D02*
X55740000Y-86235000D01*
X58200000Y-84765000D02*
X55740000Y-84765000D01*
X99200000Y-138650000D02*
G75*
G02X98500000Y-137950000I0J700000D01*
G01*
X100500000Y-137950000D02*
G75*
G02X99800000Y-138650000I-700000J0D01*
G01*
X99800000Y-134550000D02*
G75*
G02X100500000Y-135250000I0J-700000D01*
G01*
X98500000Y-135250000D02*
G75*
G02X99200000Y-134550000I700000J0D01*
G01*
X98500000Y-138000000D02*
X98500000Y-135200000D01*
X99200000Y-134550000D02*
X99800000Y-134550000D01*
X100500000Y-135200000D02*
X100500000Y-138000000D01*
X99800000Y-138650000D02*
X99200000Y-138650000D01*
X100700000Y-137800000D02*
X101000000Y-138100000D01*
X101000000Y-138100000D02*
X101000000Y-137500000D01*
X100700000Y-137800000D02*
X101000000Y-137500000D01*
X84150000Y-135400000D02*
G75*
G02X84850000Y-134700000I700000J0D01*
G01*
X84850000Y-136700000D02*
G75*
G02X84150000Y-136000000I0J700000D01*
G01*
X88250000Y-136000000D02*
G75*
G02X87550000Y-136700000I-700000J0D01*
G01*
X87550000Y-134700000D02*
G75*
G02X88250000Y-135400000I0J-700000D01*
G01*
X84800000Y-134700000D02*
X87600000Y-134700000D01*
X88250000Y-135400000D02*
X88250000Y-136000000D01*
X87600000Y-136700000D02*
X84800000Y-136700000D01*
X84150000Y-136000000D02*
X84150000Y-135400000D01*
X85000000Y-136900000D02*
X84700000Y-137200000D01*
X84700000Y-137200000D02*
X85300000Y-137200000D01*
X85000000Y-136900000D02*
X85300000Y-137200000D01*
X68561252Y-136390000D02*
X68038748Y-136390000D01*
X68561252Y-137810000D02*
X68038748Y-137810000D01*
X86961252Y-130390000D02*
X86438748Y-130390000D01*
X86961252Y-131810000D02*
X86438748Y-131810000D01*
X91710000Y-133680000D02*
X90250000Y-133680000D01*
X91710000Y-130520000D02*
X89550000Y-130520000D01*
X91710000Y-130520000D02*
X91710000Y-131450000D01*
X91710000Y-133680000D02*
X91710000Y-132750000D01*
X82770000Y-143730000D02*
X82770000Y-142400000D01*
X84100000Y-143730000D02*
X82770000Y-143730000D01*
X85370000Y-143730000D02*
X85370000Y-141070000D01*
X85370000Y-141070000D02*
X90510000Y-141070000D01*
X85370000Y-143730000D02*
X90510000Y-143730000D01*
X90510000Y-143730000D02*
X90510000Y-141070000D01*
X68530000Y-143630000D02*
X68530000Y-142300000D01*
X69860000Y-143630000D02*
X68530000Y-143630000D01*
X71130000Y-143630000D02*
X71130000Y-140970000D01*
X71130000Y-140970000D02*
X76270000Y-140970000D01*
X71130000Y-143630000D02*
X76270000Y-143630000D01*
X76270000Y-143630000D02*
X76270000Y-140970000D01*
X80838748Y-139110000D02*
X81361252Y-139110000D01*
X80838748Y-137690000D02*
X81361252Y-137690000D01*
X64490000Y-141038748D02*
X64490000Y-141561252D01*
X65910000Y-141038748D02*
X65910000Y-141561252D01*
X81202064Y-134040000D02*
X79997936Y-134040000D01*
X81202064Y-136760000D02*
X79997936Y-136760000D01*
D12*
X128400000Y-120900000D02*
X128400000Y-108000000D01*
X128400000Y-108000000D02*
X128100000Y-108000000D01*
X128200000Y-108000000D02*
X126100000Y-108000000D01*
X126100000Y-108000000D02*
X126100000Y-107700000D01*
X128200000Y-123400000D02*
X126100000Y-123400000D01*
X126100000Y-123400000D02*
X126100000Y-120900000D01*
X126100000Y-120900000D02*
X128400000Y-120900000D01*
X126100000Y-107700000D02*
X126100000Y-105600000D01*
X126100000Y-105600000D02*
X154500000Y-105600000D01*
X154500000Y-105600000D02*
X154500000Y-123400000D01*
X154100000Y-116200000D02*
X151600000Y-116200000D01*
X151600000Y-116200000D02*
X151600000Y-112400000D01*
X151600000Y-112400000D02*
X154100000Y-112400000D01*
X154100000Y-112400000D02*
X154100000Y-116100000D01*
X154500000Y-123400000D02*
X128200000Y-123400000D01*
D13*
X68230000Y-74910000D02*
X67730000Y-74910000D01*
X68230000Y-68930000D02*
X68230000Y-74910000D01*
X85970000Y-68930000D02*
X68230000Y-68930000D01*
X85970000Y-68930000D02*
X85970000Y-74910000D01*
X68230000Y-77700000D02*
X68230000Y-78740000D01*
X85970000Y-77700000D02*
X85970000Y-78740000D01*
X85970000Y-97870000D02*
X84820000Y-97870000D01*
X85970000Y-97870000D02*
X85970000Y-96750000D01*
X68230000Y-97870000D02*
X69380000Y-97870000D01*
X68230000Y-97870000D02*
X68230000Y-96750000D01*
X93261252Y-136990000D02*
X92738748Y-136990000D01*
X93261252Y-138410000D02*
X92738748Y-138410000D01*
X143010000Y-136950000D02*
X143010000Y-134500000D01*
X139790000Y-135150000D02*
X139790000Y-136950000D01*
X123760000Y-135102064D02*
X123760000Y-133897936D01*
X121040000Y-135102064D02*
X121040000Y-133897936D01*
X120160000Y-135102064D02*
X120160000Y-133897936D01*
X117440000Y-135102064D02*
X117440000Y-133897936D01*
X116560000Y-135102064D02*
X116560000Y-133897936D01*
X113840000Y-135102064D02*
X113840000Y-133897936D01*
X118161252Y-122690000D02*
X117638748Y-122690000D01*
X118161252Y-124110000D02*
X117638748Y-124110000D01*
X112960000Y-135102064D02*
X112960000Y-133897936D01*
X110240000Y-135102064D02*
X110240000Y-133897936D01*
X112661252Y-122690000D02*
X112138748Y-122690000D01*
X112661252Y-124110000D02*
X112138748Y-124110000D01*
X109360000Y-135102064D02*
X109360000Y-133897936D01*
X106640000Y-135102064D02*
X106640000Y-133897936D01*
X107161252Y-122690000D02*
X106638748Y-122690000D01*
X107161252Y-124110000D02*
X106638748Y-124110000D01*
X101661252Y-122690000D02*
X101138748Y-122690000D01*
X101661252Y-124110000D02*
X101138748Y-124110000D01*
X96161252Y-122690000D02*
X95638748Y-122690000D01*
X96161252Y-124110000D02*
X95638748Y-124110000D01*
X119610000Y-120161252D02*
X119610000Y-119638748D01*
X118190000Y-120161252D02*
X118190000Y-119638748D01*
X114110000Y-120161252D02*
X114110000Y-119638748D01*
X112690000Y-120161252D02*
X112690000Y-119638748D01*
X108610000Y-120161252D02*
X108610000Y-119638748D01*
X107190000Y-120161252D02*
X107190000Y-119638748D01*
X103110000Y-120261252D02*
X103110000Y-119738748D01*
X101690000Y-120261252D02*
X101690000Y-119738748D01*
X97610000Y-120261252D02*
X97610000Y-119738748D01*
X96190000Y-120261252D02*
X96190000Y-119738748D01*
X138610000Y-134061252D02*
X138610000Y-133538748D01*
X137190000Y-134061252D02*
X137190000Y-133538748D01*
X131861252Y-94990000D02*
X131338748Y-94990000D01*
X131861252Y-96410000D02*
X131338748Y-96410000D01*
X116420000Y-127560000D02*
X116420000Y-126100000D01*
X119580000Y-127560000D02*
X119580000Y-125400000D01*
X119580000Y-127560000D02*
X118650000Y-127560000D01*
X116420000Y-127560000D02*
X117350000Y-127560000D01*
X110920000Y-127560000D02*
X110920000Y-126100000D01*
X114080000Y-127560000D02*
X114080000Y-125400000D01*
X114080000Y-127560000D02*
X113150000Y-127560000D01*
X110920000Y-127560000D02*
X111850000Y-127560000D01*
X105420000Y-127560000D02*
X105420000Y-126100000D01*
X108580000Y-127560000D02*
X108580000Y-125400000D01*
X108580000Y-127560000D02*
X107650000Y-127560000D01*
X105420000Y-127560000D02*
X106350000Y-127560000D01*
X99920000Y-127560000D02*
X99920000Y-126100000D01*
X103080000Y-127560000D02*
X103080000Y-125400000D01*
X103080000Y-127560000D02*
X102150000Y-127560000D01*
X99920000Y-127560000D02*
X100850000Y-127560000D01*
X94420000Y-127560000D02*
X94420000Y-126100000D01*
X97580000Y-127560000D02*
X97580000Y-125400000D01*
X97580000Y-127560000D02*
X96650000Y-127560000D01*
X94420000Y-127560000D02*
X95350000Y-127560000D01*
X142002064Y-138890000D02*
X140797936Y-138890000D01*
X142002064Y-141610000D02*
X140797936Y-141610000D01*
X142252064Y-130690000D02*
X141047936Y-130690000D01*
X142252064Y-133410000D02*
X141047936Y-133410000D01*
X131338748Y-98560000D02*
X131861252Y-98560000D01*
X131338748Y-97140000D02*
X131861252Y-97140000D01*
X119990000Y-113188748D02*
X119990000Y-113711252D01*
X121410000Y-113188748D02*
X121410000Y-113711252D01*
X124161252Y-111690000D02*
X123638748Y-111690000D01*
X124161252Y-113110000D02*
X123638748Y-113110000D01*
X128097936Y-132010000D02*
X129302064Y-132010000D01*
X128097936Y-130190000D02*
X129302064Y-130190000D01*
X123638748Y-115360000D02*
X124161252Y-115360000D01*
X123638748Y-113940000D02*
X124161252Y-113940000D01*
X116390000Y-84788748D02*
X116390000Y-85311252D01*
X117810000Y-84788748D02*
X117810000Y-85311252D01*
X113890000Y-84788748D02*
X113890000Y-85311252D01*
X115310000Y-84788748D02*
X115310000Y-85311252D01*
X111340000Y-84788748D02*
X111340000Y-85311252D01*
X112760000Y-84788748D02*
X112760000Y-85311252D01*
X108790000Y-84788748D02*
X108790000Y-85311252D01*
X110210000Y-84788748D02*
X110210000Y-85311252D01*
X105730000Y-80270000D02*
X105730000Y-79000000D01*
X107000000Y-80270000D02*
X105730000Y-80270000D01*
X120080000Y-77957071D02*
X120080000Y-77560000D01*
X119320000Y-77957071D02*
X119320000Y-77560000D01*
X120080000Y-68900000D02*
X120080000Y-74900000D01*
X119320000Y-68900000D02*
X120080000Y-68900000D01*
X119320000Y-74900000D02*
X119320000Y-68900000D01*
X118430000Y-77560000D02*
X118430000Y-74900000D01*
X117540000Y-77957071D02*
X117540000Y-77560000D01*
X116780000Y-77957071D02*
X116780000Y-77560000D01*
X117540000Y-68900000D02*
X117540000Y-74900000D01*
X116780000Y-68900000D02*
X117540000Y-68900000D01*
X116780000Y-74900000D02*
X116780000Y-68900000D01*
X115890000Y-77560000D02*
X115890000Y-74900000D01*
X115000000Y-77957071D02*
X115000000Y-77560000D01*
X114240000Y-77957071D02*
X114240000Y-77560000D01*
X115000000Y-68900000D02*
X115000000Y-74900000D01*
X114240000Y-68900000D02*
X115000000Y-68900000D01*
X114240000Y-74900000D02*
X114240000Y-68900000D01*
X113350000Y-77560000D02*
X113350000Y-74900000D01*
X112460000Y-77957071D02*
X112460000Y-77560000D01*
X111700000Y-77957071D02*
X111700000Y-77560000D01*
X112460000Y-68900000D02*
X112460000Y-74900000D01*
X111700000Y-68900000D02*
X112460000Y-68900000D01*
X111700000Y-74900000D02*
X111700000Y-68900000D01*
X110810000Y-77560000D02*
X110810000Y-74900000D01*
X109920000Y-77957071D02*
X109920000Y-77560000D01*
X109160000Y-77957071D02*
X109160000Y-77560000D01*
X109920000Y-68900000D02*
X109920000Y-74900000D01*
X109160000Y-68900000D02*
X109920000Y-68900000D01*
X109160000Y-74900000D02*
X109160000Y-68900000D01*
X108270000Y-77560000D02*
X108270000Y-74900000D01*
X107380000Y-77890000D02*
X107380000Y-77560000D01*
X106620000Y-77890000D02*
X106620000Y-77560000D01*
X107280000Y-74900000D02*
X107280000Y-68900000D01*
X107160000Y-74900000D02*
X107160000Y-68900000D01*
X107040000Y-74900000D02*
X107040000Y-68900000D01*
X106920000Y-74900000D02*
X106920000Y-68900000D01*
X106800000Y-74900000D02*
X106800000Y-68900000D01*
X106680000Y-74900000D02*
X106680000Y-68900000D01*
X107380000Y-68900000D02*
X107380000Y-74900000D01*
X106620000Y-68900000D02*
X107380000Y-68900000D01*
X106620000Y-74900000D02*
X106620000Y-68900000D01*
X105670000Y-74900000D02*
X105670000Y-77560000D01*
X121030000Y-74900000D02*
X105670000Y-74900000D01*
X121030000Y-77560000D02*
X121030000Y-74900000D01*
X105670000Y-77560000D02*
X121030000Y-77560000D01*
X98065000Y-88170000D02*
X98065000Y-88235000D01*
X94535000Y-88170000D02*
X94535000Y-88235000D01*
X98065000Y-81765000D02*
X98065000Y-81830000D01*
X94535000Y-81765000D02*
X94535000Y-81830000D01*
X93210000Y-81830000D02*
X94535000Y-81830000D01*
X94535000Y-88235000D02*
X98065000Y-88235000D01*
X94535000Y-81765000D02*
X98065000Y-81765000D01*
D12*
X137452380Y-100038095D02*
X136452380Y-100038095D01*
X136452380Y-99800000D01*
X136500000Y-99657142D01*
X136595238Y-99561904D01*
X136690476Y-99514285D01*
X136880952Y-99466666D01*
X137023809Y-99466666D01*
X137214285Y-99514285D01*
X137309523Y-99561904D01*
X137404761Y-99657142D01*
X137452380Y-99800000D01*
X137452380Y-100038095D01*
X137452380Y-98514285D02*
X137452380Y-99085714D01*
X137452380Y-98800000D02*
X136452380Y-98800000D01*
X136595238Y-98895238D01*
X136690476Y-98990476D01*
X136738095Y-99085714D01*
X127152380Y-96866666D02*
X126676190Y-97200000D01*
X127152380Y-97438095D02*
X126152380Y-97438095D01*
X126152380Y-97057142D01*
X126200000Y-96961904D01*
X126247619Y-96914285D01*
X126342857Y-96866666D01*
X126485714Y-96866666D01*
X126580952Y-96914285D01*
X126628571Y-96961904D01*
X126676190Y-97057142D01*
X126676190Y-97438095D01*
X126580952Y-96295238D02*
X126533333Y-96390476D01*
X126485714Y-96438095D01*
X126390476Y-96485714D01*
X126342857Y-96485714D01*
X126247619Y-96438095D01*
X126200000Y-96390476D01*
X126152380Y-96295238D01*
X126152380Y-96104761D01*
X126200000Y-96009523D01*
X126247619Y-95961904D01*
X126342857Y-95914285D01*
X126390476Y-95914285D01*
X126485714Y-95961904D01*
X126533333Y-96009523D01*
X126580952Y-96104761D01*
X126580952Y-96295238D01*
X126628571Y-96390476D01*
X126676190Y-96438095D01*
X126771428Y-96485714D01*
X126961904Y-96485714D01*
X127057142Y-96438095D01*
X127104761Y-96390476D01*
X127152380Y-96295238D01*
X127152380Y-96104761D01*
X127104761Y-96009523D01*
X127057142Y-95961904D01*
X126961904Y-95914285D01*
X126771428Y-95914285D01*
X126676190Y-95961904D01*
X126628571Y-96009523D01*
X126580952Y-96104761D01*
X72552380Y-117709523D02*
X73266666Y-117709523D01*
X73409523Y-117757142D01*
X73504761Y-117852380D01*
X73552380Y-117995238D01*
X73552380Y-118090476D01*
X73552380Y-116709523D02*
X73552380Y-117280952D01*
X73552380Y-116995238D02*
X72552380Y-116995238D01*
X72695238Y-117090476D01*
X72790476Y-117185714D01*
X72838095Y-117280952D01*
X72552380Y-116090476D02*
X72552380Y-115995238D01*
X72600000Y-115900000D01*
X72647619Y-115852380D01*
X72742857Y-115804761D01*
X72933333Y-115757142D01*
X73171428Y-115757142D01*
X73361904Y-115804761D01*
X73457142Y-115852380D01*
X73504761Y-115900000D01*
X73552380Y-115995238D01*
X73552380Y-116090476D01*
X73504761Y-116185714D01*
X73457142Y-116233333D01*
X73361904Y-116280952D01*
X73171428Y-116328571D01*
X72933333Y-116328571D01*
X72742857Y-116280952D01*
X72647619Y-116233333D01*
X72600000Y-116185714D01*
X72552380Y-116090476D01*
X106166666Y-88232380D02*
X106166666Y-88946666D01*
X106119047Y-89089523D01*
X106023809Y-89184761D01*
X105880952Y-89232380D01*
X105785714Y-89232380D01*
X106690476Y-89232380D02*
X106880952Y-89232380D01*
X106976190Y-89184761D01*
X107023809Y-89137142D01*
X107119047Y-88994285D01*
X107166666Y-88803809D01*
X107166666Y-88422857D01*
X107119047Y-88327619D01*
X107071428Y-88280000D01*
X106976190Y-88232380D01*
X106785714Y-88232380D01*
X106690476Y-88280000D01*
X106642857Y-88327619D01*
X106595238Y-88422857D01*
X106595238Y-88660952D01*
X106642857Y-88756190D01*
X106690476Y-88803809D01*
X106785714Y-88851428D01*
X106976190Y-88851428D01*
X107071428Y-88803809D01*
X107119047Y-88756190D01*
X107166666Y-88660952D01*
X68457142Y-106857142D02*
X68409523Y-106904761D01*
X68266666Y-106952380D01*
X68171428Y-106952380D01*
X68028571Y-106904761D01*
X67933333Y-106809523D01*
X67885714Y-106714285D01*
X67838095Y-106523809D01*
X67838095Y-106380952D01*
X67885714Y-106190476D01*
X67933333Y-106095238D01*
X68028571Y-106000000D01*
X68171428Y-105952380D01*
X68266666Y-105952380D01*
X68409523Y-106000000D01*
X68457142Y-106047619D01*
X69409523Y-106952380D02*
X68838095Y-106952380D01*
X69123809Y-106952380D02*
X69123809Y-105952380D01*
X69028571Y-106095238D01*
X68933333Y-106190476D01*
X68838095Y-106238095D01*
X69742857Y-105952380D02*
X70361904Y-105952380D01*
X70028571Y-106333333D01*
X70171428Y-106333333D01*
X70266666Y-106380952D01*
X70314285Y-106428571D01*
X70361904Y-106523809D01*
X70361904Y-106761904D01*
X70314285Y-106857142D01*
X70266666Y-106904761D01*
X70171428Y-106952380D01*
X69885714Y-106952380D01*
X69790476Y-106904761D01*
X69742857Y-106857142D01*
X72157142Y-111842857D02*
X72204761Y-111890476D01*
X72252380Y-112033333D01*
X72252380Y-112128571D01*
X72204761Y-112271428D01*
X72109523Y-112366666D01*
X72014285Y-112414285D01*
X71823809Y-112461904D01*
X71680952Y-112461904D01*
X71490476Y-112414285D01*
X71395238Y-112366666D01*
X71300000Y-112271428D01*
X71252380Y-112128571D01*
X71252380Y-112033333D01*
X71300000Y-111890476D01*
X71347619Y-111842857D01*
X72252380Y-110890476D02*
X72252380Y-111461904D01*
X72252380Y-111176190D02*
X71252380Y-111176190D01*
X71395238Y-111271428D01*
X71490476Y-111366666D01*
X71538095Y-111461904D01*
X71347619Y-110509523D02*
X71300000Y-110461904D01*
X71252380Y-110366666D01*
X71252380Y-110128571D01*
X71300000Y-110033333D01*
X71347619Y-109985714D01*
X71442857Y-109938095D01*
X71538095Y-109938095D01*
X71680952Y-109985714D01*
X72252380Y-110557142D01*
X72252380Y-109938095D01*
X72257142Y-115442857D02*
X72304761Y-115490476D01*
X72352380Y-115633333D01*
X72352380Y-115728571D01*
X72304761Y-115871428D01*
X72209523Y-115966666D01*
X72114285Y-116014285D01*
X71923809Y-116061904D01*
X71780952Y-116061904D01*
X71590476Y-116014285D01*
X71495238Y-115966666D01*
X71400000Y-115871428D01*
X71352380Y-115728571D01*
X71352380Y-115633333D01*
X71400000Y-115490476D01*
X71447619Y-115442857D01*
X72352380Y-114490476D02*
X72352380Y-115061904D01*
X72352380Y-114776190D02*
X71352380Y-114776190D01*
X71495238Y-114871428D01*
X71590476Y-114966666D01*
X71638095Y-115061904D01*
X72352380Y-113538095D02*
X72352380Y-114109523D01*
X72352380Y-113823809D02*
X71352380Y-113823809D01*
X71495238Y-113919047D01*
X71590476Y-114014285D01*
X71638095Y-114109523D01*
X83857142Y-111357142D02*
X83809523Y-111404761D01*
X83666666Y-111452380D01*
X83571428Y-111452380D01*
X83428571Y-111404761D01*
X83333333Y-111309523D01*
X83285714Y-111214285D01*
X83238095Y-111023809D01*
X83238095Y-110880952D01*
X83285714Y-110690476D01*
X83333333Y-110595238D01*
X83428571Y-110500000D01*
X83571428Y-110452380D01*
X83666666Y-110452380D01*
X83809523Y-110500000D01*
X83857142Y-110547619D01*
X84809523Y-111452380D02*
X84238095Y-111452380D01*
X84523809Y-111452380D02*
X84523809Y-110452380D01*
X84428571Y-110595238D01*
X84333333Y-110690476D01*
X84238095Y-110738095D01*
X85428571Y-110452380D02*
X85523809Y-110452380D01*
X85619047Y-110500000D01*
X85666666Y-110547619D01*
X85714285Y-110642857D01*
X85761904Y-110833333D01*
X85761904Y-111071428D01*
X85714285Y-111261904D01*
X85666666Y-111357142D01*
X85619047Y-111404761D01*
X85523809Y-111452380D01*
X85428571Y-111452380D01*
X85333333Y-111404761D01*
X85285714Y-111357142D01*
X85238095Y-111261904D01*
X85190476Y-111071428D01*
X85190476Y-110833333D01*
X85238095Y-110642857D01*
X85285714Y-110547619D01*
X85333333Y-110500000D01*
X85428571Y-110452380D01*
X74133333Y-111357142D02*
X74085714Y-111404761D01*
X73942857Y-111452380D01*
X73847619Y-111452380D01*
X73704761Y-111404761D01*
X73609523Y-111309523D01*
X73561904Y-111214285D01*
X73514285Y-111023809D01*
X73514285Y-110880952D01*
X73561904Y-110690476D01*
X73609523Y-110595238D01*
X73704761Y-110500000D01*
X73847619Y-110452380D01*
X73942857Y-110452380D01*
X74085714Y-110500000D01*
X74133333Y-110547619D01*
X74609523Y-111452380D02*
X74800000Y-111452380D01*
X74895238Y-111404761D01*
X74942857Y-111357142D01*
X75038095Y-111214285D01*
X75085714Y-111023809D01*
X75085714Y-110642857D01*
X75038095Y-110547619D01*
X74990476Y-110500000D01*
X74895238Y-110452380D01*
X74704761Y-110452380D01*
X74609523Y-110500000D01*
X74561904Y-110547619D01*
X74514285Y-110642857D01*
X74514285Y-110880952D01*
X74561904Y-110976190D01*
X74609523Y-111023809D01*
X74704761Y-111071428D01*
X74895238Y-111071428D01*
X74990476Y-111023809D01*
X75038095Y-110976190D01*
X75085714Y-110880952D01*
X142666666Y-78204761D02*
X142809523Y-78252380D01*
X143047619Y-78252380D01*
X143142857Y-78204761D01*
X143190476Y-78157142D01*
X143238095Y-78061904D01*
X143238095Y-77966666D01*
X143190476Y-77871428D01*
X143142857Y-77823809D01*
X143047619Y-77776190D01*
X142857142Y-77728571D01*
X142761904Y-77680952D01*
X142714285Y-77633333D01*
X142666666Y-77538095D01*
X142666666Y-77442857D01*
X142714285Y-77347619D01*
X142761904Y-77300000D01*
X142857142Y-77252380D01*
X143095238Y-77252380D01*
X143238095Y-77300000D01*
X143571428Y-77252380D02*
X143809523Y-78252380D01*
X144000000Y-77538095D01*
X144190476Y-78252380D01*
X144428571Y-77252380D01*
X144761904Y-77347619D02*
X144809523Y-77300000D01*
X144904761Y-77252380D01*
X145142857Y-77252380D01*
X145238095Y-77300000D01*
X145285714Y-77347619D01*
X145333333Y-77442857D01*
X145333333Y-77538095D01*
X145285714Y-77680952D01*
X144714285Y-78252380D01*
X145333333Y-78252380D01*
X121466666Y-78204761D02*
X121609523Y-78252380D01*
X121847619Y-78252380D01*
X121942857Y-78204761D01*
X121990476Y-78157142D01*
X122038095Y-78061904D01*
X122038095Y-77966666D01*
X121990476Y-77871428D01*
X121942857Y-77823809D01*
X121847619Y-77776190D01*
X121657142Y-77728571D01*
X121561904Y-77680952D01*
X121514285Y-77633333D01*
X121466666Y-77538095D01*
X121466666Y-77442857D01*
X121514285Y-77347619D01*
X121561904Y-77300000D01*
X121657142Y-77252380D01*
X121895238Y-77252380D01*
X122038095Y-77300000D01*
X122371428Y-77252380D02*
X122609523Y-78252380D01*
X122800000Y-77538095D01*
X122990476Y-78252380D01*
X123228571Y-77252380D01*
X123514285Y-77252380D02*
X124133333Y-77252380D01*
X123800000Y-77633333D01*
X123942857Y-77633333D01*
X124038095Y-77680952D01*
X124085714Y-77728571D01*
X124133333Y-77823809D01*
X124133333Y-78061904D01*
X124085714Y-78157142D01*
X124038095Y-78204761D01*
X123942857Y-78252380D01*
X123657142Y-78252380D01*
X123561904Y-78204761D01*
X123514285Y-78157142D01*
X145366666Y-103152380D02*
X145366666Y-103866666D01*
X145319047Y-104009523D01*
X145223809Y-104104761D01*
X145080952Y-104152380D01*
X144985714Y-104152380D01*
X146271428Y-103485714D02*
X146271428Y-104152380D01*
X146033333Y-103104761D02*
X145795238Y-103819047D01*
X146414285Y-103819047D01*
X151666666Y-124804761D02*
X151809523Y-124852380D01*
X152047619Y-124852380D01*
X152142857Y-124804761D01*
X152190476Y-124757142D01*
X152238095Y-124661904D01*
X152238095Y-124566666D01*
X152190476Y-124471428D01*
X152142857Y-124423809D01*
X152047619Y-124376190D01*
X151857142Y-124328571D01*
X151761904Y-124280952D01*
X151714285Y-124233333D01*
X151666666Y-124138095D01*
X151666666Y-124042857D01*
X151714285Y-123947619D01*
X151761904Y-123900000D01*
X151857142Y-123852380D01*
X152095238Y-123852380D01*
X152238095Y-123900000D01*
X152571428Y-123852380D02*
X152809523Y-124852380D01*
X153000000Y-124138095D01*
X153190476Y-124852380D01*
X153428571Y-123852380D01*
X154333333Y-124852380D02*
X153761904Y-124852380D01*
X154047619Y-124852380D02*
X154047619Y-123852380D01*
X153952380Y-123995238D01*
X153857142Y-124090476D01*
X153761904Y-124138095D01*
X144882380Y-127933333D02*
X145596666Y-127933333D01*
X145739523Y-127980952D01*
X145834761Y-128076190D01*
X145882380Y-128219047D01*
X145882380Y-128314285D01*
X145310952Y-127314285D02*
X145263333Y-127409523D01*
X145215714Y-127457142D01*
X145120476Y-127504761D01*
X145072857Y-127504761D01*
X144977619Y-127457142D01*
X144930000Y-127409523D01*
X144882380Y-127314285D01*
X144882380Y-127123809D01*
X144930000Y-127028571D01*
X144977619Y-126980952D01*
X145072857Y-126933333D01*
X145120476Y-126933333D01*
X145215714Y-126980952D01*
X145263333Y-127028571D01*
X145310952Y-127123809D01*
X145310952Y-127314285D01*
X145358571Y-127409523D01*
X145406190Y-127457142D01*
X145501428Y-127504761D01*
X145691904Y-127504761D01*
X145787142Y-127457142D01*
X145834761Y-127409523D01*
X145882380Y-127314285D01*
X145882380Y-127123809D01*
X145834761Y-127028571D01*
X145787142Y-126980952D01*
X145691904Y-126933333D01*
X145501428Y-126933333D01*
X145406190Y-126980952D01*
X145358571Y-127028571D01*
X145310952Y-127123809D01*
X79388095Y-106104380D02*
X79959523Y-106104380D01*
X79673809Y-107104380D02*
X79673809Y-106104380D01*
X80292857Y-107104380D02*
X80292857Y-106104380D01*
X80673809Y-106104380D01*
X80769047Y-106152000D01*
X80816666Y-106199619D01*
X80864285Y-106294857D01*
X80864285Y-106437714D01*
X80816666Y-106532952D01*
X80769047Y-106580571D01*
X80673809Y-106628190D01*
X80292857Y-106628190D01*
X81245238Y-106199619D02*
X81292857Y-106152000D01*
X81388095Y-106104380D01*
X81626190Y-106104380D01*
X81721428Y-106152000D01*
X81769047Y-106199619D01*
X81816666Y-106294857D01*
X81816666Y-106390095D01*
X81769047Y-106532952D01*
X81197619Y-107104380D01*
X81816666Y-107104380D01*
X76488095Y-106104380D02*
X77059523Y-106104380D01*
X76773809Y-107104380D02*
X76773809Y-106104380D01*
X77392857Y-107104380D02*
X77392857Y-106104380D01*
X77773809Y-106104380D01*
X77869047Y-106152000D01*
X77916666Y-106199619D01*
X77964285Y-106294857D01*
X77964285Y-106437714D01*
X77916666Y-106532952D01*
X77869047Y-106580571D01*
X77773809Y-106628190D01*
X77392857Y-106628190D01*
X78916666Y-107104380D02*
X78345238Y-107104380D01*
X78630952Y-107104380D02*
X78630952Y-106104380D01*
X78535714Y-106247238D01*
X78440476Y-106342476D01*
X78345238Y-106390095D01*
X146252380Y-81642857D02*
X145776190Y-81976190D01*
X146252380Y-82214285D02*
X145252380Y-82214285D01*
X145252380Y-81833333D01*
X145300000Y-81738095D01*
X145347619Y-81690476D01*
X145442857Y-81642857D01*
X145585714Y-81642857D01*
X145680952Y-81690476D01*
X145728571Y-81738095D01*
X145776190Y-81833333D01*
X145776190Y-82214285D01*
X145347619Y-81261904D02*
X145300000Y-81214285D01*
X145252380Y-81119047D01*
X145252380Y-80880952D01*
X145300000Y-80785714D01*
X145347619Y-80738095D01*
X145442857Y-80690476D01*
X145538095Y-80690476D01*
X145680952Y-80738095D01*
X146252380Y-81309523D01*
X146252380Y-80690476D01*
X146252380Y-80214285D02*
X146252380Y-80023809D01*
X146204761Y-79928571D01*
X146157142Y-79880952D01*
X146014285Y-79785714D01*
X145823809Y-79738095D01*
X145442857Y-79738095D01*
X145347619Y-79785714D01*
X145300000Y-79833333D01*
X145252380Y-79928571D01*
X145252380Y-80119047D01*
X145300000Y-80214285D01*
X145347619Y-80261904D01*
X145442857Y-80309523D01*
X145680952Y-80309523D01*
X145776190Y-80261904D01*
X145823809Y-80214285D01*
X145871428Y-80119047D01*
X145871428Y-79928571D01*
X145823809Y-79833333D01*
X145776190Y-79785714D01*
X145680952Y-79738095D01*
X60757142Y-90952380D02*
X60423809Y-90476190D01*
X60185714Y-90952380D02*
X60185714Y-89952380D01*
X60566666Y-89952380D01*
X60661904Y-90000000D01*
X60709523Y-90047619D01*
X60757142Y-90142857D01*
X60757142Y-90285714D01*
X60709523Y-90380952D01*
X60661904Y-90428571D01*
X60566666Y-90476190D01*
X60185714Y-90476190D01*
X61138095Y-90047619D02*
X61185714Y-90000000D01*
X61280952Y-89952380D01*
X61519047Y-89952380D01*
X61614285Y-90000000D01*
X61661904Y-90047619D01*
X61709523Y-90142857D01*
X61709523Y-90238095D01*
X61661904Y-90380952D01*
X61090476Y-90952380D01*
X61709523Y-90952380D01*
X62280952Y-90380952D02*
X62185714Y-90333333D01*
X62138095Y-90285714D01*
X62090476Y-90190476D01*
X62090476Y-90142857D01*
X62138095Y-90047619D01*
X62185714Y-90000000D01*
X62280952Y-89952380D01*
X62471428Y-89952380D01*
X62566666Y-90000000D01*
X62614285Y-90047619D01*
X62661904Y-90142857D01*
X62661904Y-90190476D01*
X62614285Y-90285714D01*
X62566666Y-90333333D01*
X62471428Y-90380952D01*
X62280952Y-90380952D01*
X62185714Y-90428571D01*
X62138095Y-90476190D01*
X62090476Y-90571428D01*
X62090476Y-90761904D01*
X62138095Y-90857142D01*
X62185714Y-90904761D01*
X62280952Y-90952380D01*
X62471428Y-90952380D01*
X62566666Y-90904761D01*
X62614285Y-90857142D01*
X62661904Y-90761904D01*
X62661904Y-90571428D01*
X62614285Y-90476190D01*
X62566666Y-90428571D01*
X62471428Y-90380952D01*
X60607142Y-85152380D02*
X60273809Y-84676190D01*
X60035714Y-85152380D02*
X60035714Y-84152380D01*
X60416666Y-84152380D01*
X60511904Y-84200000D01*
X60559523Y-84247619D01*
X60607142Y-84342857D01*
X60607142Y-84485714D01*
X60559523Y-84580952D01*
X60511904Y-84628571D01*
X60416666Y-84676190D01*
X60035714Y-84676190D01*
X60988095Y-84247619D02*
X61035714Y-84200000D01*
X61130952Y-84152380D01*
X61369047Y-84152380D01*
X61464285Y-84200000D01*
X61511904Y-84247619D01*
X61559523Y-84342857D01*
X61559523Y-84438095D01*
X61511904Y-84580952D01*
X60940476Y-85152380D01*
X61559523Y-85152380D01*
X61892857Y-84152380D02*
X62559523Y-84152380D01*
X62130952Y-85152380D01*
X56661904Y-92152380D02*
X56661904Y-91152380D01*
X56900000Y-91152380D01*
X57042857Y-91200000D01*
X57138095Y-91295238D01*
X57185714Y-91390476D01*
X57233333Y-91580952D01*
X57233333Y-91723809D01*
X57185714Y-91914285D01*
X57138095Y-92009523D01*
X57042857Y-92104761D01*
X56900000Y-92152380D01*
X56661904Y-92152380D01*
X57566666Y-91152380D02*
X58185714Y-91152380D01*
X57852380Y-91533333D01*
X57995238Y-91533333D01*
X58090476Y-91580952D01*
X58138095Y-91628571D01*
X58185714Y-91723809D01*
X58185714Y-91961904D01*
X58138095Y-92057142D01*
X58090476Y-92104761D01*
X57995238Y-92152380D01*
X57709523Y-92152380D01*
X57614285Y-92104761D01*
X57566666Y-92057142D01*
X56661904Y-84252380D02*
X56661904Y-83252380D01*
X56900000Y-83252380D01*
X57042857Y-83300000D01*
X57138095Y-83395238D01*
X57185714Y-83490476D01*
X57233333Y-83680952D01*
X57233333Y-83823809D01*
X57185714Y-84014285D01*
X57138095Y-84109523D01*
X57042857Y-84204761D01*
X56900000Y-84252380D01*
X56661904Y-84252380D01*
X57614285Y-83347619D02*
X57661904Y-83300000D01*
X57757142Y-83252380D01*
X57995238Y-83252380D01*
X58090476Y-83300000D01*
X58138095Y-83347619D01*
X58185714Y-83442857D01*
X58185714Y-83538095D01*
X58138095Y-83680952D01*
X57566666Y-84252380D01*
X58185714Y-84252380D01*
X97152380Y-137433333D02*
X97866666Y-137433333D01*
X98009523Y-137480952D01*
X98104761Y-137576190D01*
X98152380Y-137719047D01*
X98152380Y-137814285D01*
X98152380Y-136957142D02*
X97152380Y-136957142D01*
X97152380Y-136576190D01*
X97200000Y-136480952D01*
X97247619Y-136433333D01*
X97342857Y-136385714D01*
X97485714Y-136385714D01*
X97580952Y-136433333D01*
X97628571Y-136480952D01*
X97676190Y-136576190D01*
X97676190Y-136957142D01*
X97152380Y-136052380D02*
X97152380Y-135385714D01*
X98152380Y-135814285D01*
X85366666Y-133352380D02*
X85366666Y-134066666D01*
X85319047Y-134209523D01*
X85223809Y-134304761D01*
X85080952Y-134352380D01*
X84985714Y-134352380D01*
X85842857Y-134352380D02*
X85842857Y-133352380D01*
X86223809Y-133352380D01*
X86319047Y-133400000D01*
X86366666Y-133447619D01*
X86414285Y-133542857D01*
X86414285Y-133685714D01*
X86366666Y-133780952D01*
X86319047Y-133828571D01*
X86223809Y-133876190D01*
X85842857Y-133876190D01*
X87271428Y-133352380D02*
X87080952Y-133352380D01*
X86985714Y-133400000D01*
X86938095Y-133447619D01*
X86842857Y-133590476D01*
X86795238Y-133780952D01*
X86795238Y-134161904D01*
X86842857Y-134257142D01*
X86890476Y-134304761D01*
X86985714Y-134352380D01*
X87176190Y-134352380D01*
X87271428Y-134304761D01*
X87319047Y-134257142D01*
X87366666Y-134161904D01*
X87366666Y-133923809D01*
X87319047Y-133828571D01*
X87271428Y-133780952D01*
X87176190Y-133733333D01*
X86985714Y-133733333D01*
X86890476Y-133780952D01*
X86842857Y-133828571D01*
X86795238Y-133923809D01*
X67657142Y-135852380D02*
X67323809Y-135376190D01*
X67085714Y-135852380D02*
X67085714Y-134852380D01*
X67466666Y-134852380D01*
X67561904Y-134900000D01*
X67609523Y-134947619D01*
X67657142Y-135042857D01*
X67657142Y-135185714D01*
X67609523Y-135280952D01*
X67561904Y-135328571D01*
X67466666Y-135376190D01*
X67085714Y-135376190D01*
X68038095Y-134947619D02*
X68085714Y-134900000D01*
X68180952Y-134852380D01*
X68419047Y-134852380D01*
X68514285Y-134900000D01*
X68561904Y-134947619D01*
X68609523Y-135042857D01*
X68609523Y-135138095D01*
X68561904Y-135280952D01*
X67990476Y-135852380D01*
X68609523Y-135852380D01*
X69466666Y-134852380D02*
X69276190Y-134852380D01*
X69180952Y-134900000D01*
X69133333Y-134947619D01*
X69038095Y-135090476D01*
X68990476Y-135280952D01*
X68990476Y-135661904D01*
X69038095Y-135757142D01*
X69085714Y-135804761D01*
X69180952Y-135852380D01*
X69371428Y-135852380D01*
X69466666Y-135804761D01*
X69514285Y-135757142D01*
X69561904Y-135661904D01*
X69561904Y-135423809D01*
X69514285Y-135328571D01*
X69466666Y-135280952D01*
X69371428Y-135233333D01*
X69180952Y-135233333D01*
X69085714Y-135280952D01*
X69038095Y-135328571D01*
X68990476Y-135423809D01*
X86057142Y-129802380D02*
X85723809Y-129326190D01*
X85485714Y-129802380D02*
X85485714Y-128802380D01*
X85866666Y-128802380D01*
X85961904Y-128850000D01*
X86009523Y-128897619D01*
X86057142Y-128992857D01*
X86057142Y-129135714D01*
X86009523Y-129230952D01*
X85961904Y-129278571D01*
X85866666Y-129326190D01*
X85485714Y-129326190D01*
X86438095Y-128897619D02*
X86485714Y-128850000D01*
X86580952Y-128802380D01*
X86819047Y-128802380D01*
X86914285Y-128850000D01*
X86961904Y-128897619D01*
X87009523Y-128992857D01*
X87009523Y-129088095D01*
X86961904Y-129230952D01*
X86390476Y-129802380D01*
X87009523Y-129802380D01*
X87914285Y-128802380D02*
X87438095Y-128802380D01*
X87390476Y-129278571D01*
X87438095Y-129230952D01*
X87533333Y-129183333D01*
X87771428Y-129183333D01*
X87866666Y-129230952D01*
X87914285Y-129278571D01*
X87961904Y-129373809D01*
X87961904Y-129611904D01*
X87914285Y-129707142D01*
X87866666Y-129754761D01*
X87771428Y-129802380D01*
X87533333Y-129802380D01*
X87438095Y-129754761D01*
X87390476Y-129707142D01*
X90854761Y-130147619D02*
X90759523Y-130100000D01*
X90664285Y-130004761D01*
X90521428Y-129861904D01*
X90426190Y-129814285D01*
X90330952Y-129814285D01*
X90378571Y-130052380D02*
X90283333Y-130004761D01*
X90188095Y-129909523D01*
X90140476Y-129719047D01*
X90140476Y-129385714D01*
X90188095Y-129195238D01*
X90283333Y-129100000D01*
X90378571Y-129052380D01*
X90569047Y-129052380D01*
X90664285Y-129100000D01*
X90759523Y-129195238D01*
X90807142Y-129385714D01*
X90807142Y-129719047D01*
X90759523Y-129909523D01*
X90664285Y-130004761D01*
X90569047Y-130052380D01*
X90378571Y-130052380D01*
X91664285Y-129052380D02*
X91473809Y-129052380D01*
X91378571Y-129100000D01*
X91330952Y-129147619D01*
X91235714Y-129290476D01*
X91188095Y-129480952D01*
X91188095Y-129861904D01*
X91235714Y-129957142D01*
X91283333Y-130004761D01*
X91378571Y-130052380D01*
X91569047Y-130052380D01*
X91664285Y-130004761D01*
X91711904Y-129957142D01*
X91759523Y-129861904D01*
X91759523Y-129623809D01*
X91711904Y-129528571D01*
X91664285Y-129480952D01*
X91569047Y-129433333D01*
X91378571Y-129433333D01*
X91283333Y-129480952D01*
X91235714Y-129528571D01*
X91188095Y-129623809D01*
X80866666Y-141852380D02*
X80866666Y-142566666D01*
X80819047Y-142709523D01*
X80723809Y-142804761D01*
X80580952Y-142852380D01*
X80485714Y-142852380D01*
X81247619Y-141852380D02*
X81914285Y-141852380D01*
X81485714Y-142852380D01*
X66866666Y-141752380D02*
X66866666Y-142466666D01*
X66819047Y-142609523D01*
X66723809Y-142704761D01*
X66580952Y-142752380D01*
X66485714Y-142752380D01*
X67771428Y-141752380D02*
X67580952Y-141752380D01*
X67485714Y-141800000D01*
X67438095Y-141847619D01*
X67342857Y-141990476D01*
X67295238Y-142180952D01*
X67295238Y-142561904D01*
X67342857Y-142657142D01*
X67390476Y-142704761D01*
X67485714Y-142752380D01*
X67676190Y-142752380D01*
X67771428Y-142704761D01*
X67819047Y-142657142D01*
X67866666Y-142561904D01*
X67866666Y-142323809D01*
X67819047Y-142228571D01*
X67771428Y-142180952D01*
X67676190Y-142133333D01*
X67485714Y-142133333D01*
X67390476Y-142180952D01*
X67342857Y-142228571D01*
X67295238Y-142323809D01*
X78807142Y-138566666D02*
X78854761Y-138614285D01*
X78902380Y-138757142D01*
X78902380Y-138852380D01*
X78854761Y-138995238D01*
X78759523Y-139090476D01*
X78664285Y-139138095D01*
X78473809Y-139185714D01*
X78330952Y-139185714D01*
X78140476Y-139138095D01*
X78045238Y-139090476D01*
X77950000Y-138995238D01*
X77902380Y-138852380D01*
X77902380Y-138757142D01*
X77950000Y-138614285D01*
X77997619Y-138566666D01*
X78330952Y-137995238D02*
X78283333Y-138090476D01*
X78235714Y-138138095D01*
X78140476Y-138185714D01*
X78092857Y-138185714D01*
X77997619Y-138138095D01*
X77950000Y-138090476D01*
X77902380Y-137995238D01*
X77902380Y-137804761D01*
X77950000Y-137709523D01*
X77997619Y-137661904D01*
X78092857Y-137614285D01*
X78140476Y-137614285D01*
X78235714Y-137661904D01*
X78283333Y-137709523D01*
X78330952Y-137804761D01*
X78330952Y-137995238D01*
X78378571Y-138090476D01*
X78426190Y-138138095D01*
X78521428Y-138185714D01*
X78711904Y-138185714D01*
X78807142Y-138138095D01*
X78854761Y-138090476D01*
X78902380Y-137995238D01*
X78902380Y-137804761D01*
X78854761Y-137709523D01*
X78807142Y-137661904D01*
X78711904Y-137614285D01*
X78521428Y-137614285D01*
X78426190Y-137661904D01*
X78378571Y-137709523D01*
X78330952Y-137804761D01*
X65083333Y-139057142D02*
X65035714Y-139104761D01*
X64892857Y-139152380D01*
X64797619Y-139152380D01*
X64654761Y-139104761D01*
X64559523Y-139009523D01*
X64511904Y-138914285D01*
X64464285Y-138723809D01*
X64464285Y-138580952D01*
X64511904Y-138390476D01*
X64559523Y-138295238D01*
X64654761Y-138200000D01*
X64797619Y-138152380D01*
X64892857Y-138152380D01*
X65035714Y-138200000D01*
X65083333Y-138247619D01*
X65416666Y-138152380D02*
X66083333Y-138152380D01*
X65654761Y-139152380D01*
X77807142Y-135566666D02*
X77854761Y-135614285D01*
X77902380Y-135757142D01*
X77902380Y-135852380D01*
X77854761Y-135995238D01*
X77759523Y-136090476D01*
X77664285Y-136138095D01*
X77473809Y-136185714D01*
X77330952Y-136185714D01*
X77140476Y-136138095D01*
X77045238Y-136090476D01*
X76950000Y-135995238D01*
X76902380Y-135852380D01*
X76902380Y-135757142D01*
X76950000Y-135614285D01*
X76997619Y-135566666D01*
X76902380Y-134709523D02*
X76902380Y-134900000D01*
X76950000Y-134995238D01*
X76997619Y-135042857D01*
X77140476Y-135138095D01*
X77330952Y-135185714D01*
X77711904Y-135185714D01*
X77807142Y-135138095D01*
X77854761Y-135090476D01*
X77902380Y-134995238D01*
X77902380Y-134804761D01*
X77854761Y-134709523D01*
X77807142Y-134661904D01*
X77711904Y-134614285D01*
X77473809Y-134614285D01*
X77378571Y-134661904D01*
X77330952Y-134709523D01*
X77283333Y-134804761D01*
X77283333Y-134995238D01*
X77330952Y-135090476D01*
X77378571Y-135138095D01*
X77473809Y-135185714D01*
X140138095Y-103952380D02*
X140138095Y-104761904D01*
X140185714Y-104857142D01*
X140233333Y-104904761D01*
X140328571Y-104952380D01*
X140519047Y-104952380D01*
X140614285Y-104904761D01*
X140661904Y-104857142D01*
X140709523Y-104761904D01*
X140709523Y-103952380D01*
X141138095Y-104047619D02*
X141185714Y-104000000D01*
X141280952Y-103952380D01*
X141519047Y-103952380D01*
X141614285Y-104000000D01*
X141661904Y-104047619D01*
X141709523Y-104142857D01*
X141709523Y-104238095D01*
X141661904Y-104380952D01*
X141090476Y-104952380D01*
X141709523Y-104952380D01*
X135157142Y-114428571D02*
X135300000Y-114476190D01*
X135347619Y-114523809D01*
X135395238Y-114619047D01*
X135395238Y-114761904D01*
X135347619Y-114857142D01*
X135300000Y-114904761D01*
X135204761Y-114952380D01*
X134823809Y-114952380D01*
X134823809Y-113952380D01*
X135157142Y-113952380D01*
X135252380Y-114000000D01*
X135300000Y-114047619D01*
X135347619Y-114142857D01*
X135347619Y-114238095D01*
X135300000Y-114333333D01*
X135252380Y-114380952D01*
X135157142Y-114428571D01*
X134823809Y-114428571D01*
X136252380Y-114952380D02*
X136252380Y-114428571D01*
X136204761Y-114333333D01*
X136109523Y-114285714D01*
X135919047Y-114285714D01*
X135823809Y-114333333D01*
X136252380Y-114904761D02*
X136157142Y-114952380D01*
X135919047Y-114952380D01*
X135823809Y-114904761D01*
X135776190Y-114809523D01*
X135776190Y-114714285D01*
X135823809Y-114619047D01*
X135919047Y-114571428D01*
X136157142Y-114571428D01*
X136252380Y-114523809D01*
X136585714Y-114285714D02*
X136966666Y-114285714D01*
X136728571Y-113952380D02*
X136728571Y-114809523D01*
X136776190Y-114904761D01*
X136871428Y-114952380D01*
X136966666Y-114952380D01*
X137157142Y-114285714D02*
X137538095Y-114285714D01*
X137300000Y-113952380D02*
X137300000Y-114809523D01*
X137347619Y-114904761D01*
X137442857Y-114952380D01*
X137538095Y-114952380D01*
X138252380Y-114904761D02*
X138157142Y-114952380D01*
X137966666Y-114952380D01*
X137871428Y-114904761D01*
X137823809Y-114809523D01*
X137823809Y-114428571D01*
X137871428Y-114333333D01*
X137966666Y-114285714D01*
X138157142Y-114285714D01*
X138252380Y-114333333D01*
X138300000Y-114428571D01*
X138300000Y-114523809D01*
X137823809Y-114619047D01*
X138728571Y-114952380D02*
X138728571Y-114285714D01*
X138728571Y-114476190D02*
X138776190Y-114380952D01*
X138823809Y-114333333D01*
X138919047Y-114285714D01*
X139014285Y-114285714D01*
X139252380Y-114285714D02*
X139490476Y-114952380D01*
X139728571Y-114285714D02*
X139490476Y-114952380D01*
X139395238Y-115190476D01*
X139347619Y-115238095D01*
X139252380Y-115285714D01*
X141442857Y-114857142D02*
X141395238Y-114904761D01*
X141252380Y-114952380D01*
X141157142Y-114952380D01*
X141014285Y-114904761D01*
X140919047Y-114809523D01*
X140871428Y-114714285D01*
X140823809Y-114523809D01*
X140823809Y-114380952D01*
X140871428Y-114190476D01*
X140919047Y-114095238D01*
X141014285Y-114000000D01*
X141157142Y-113952380D01*
X141252380Y-113952380D01*
X141395238Y-114000000D01*
X141442857Y-114047619D01*
X141871428Y-114952380D02*
X141871428Y-113952380D01*
X142300000Y-114952380D02*
X142300000Y-114428571D01*
X142252380Y-114333333D01*
X142157142Y-114285714D01*
X142014285Y-114285714D01*
X141919047Y-114333333D01*
X141871428Y-114380952D01*
X143204761Y-114952380D02*
X143204761Y-114428571D01*
X143157142Y-114333333D01*
X143061904Y-114285714D01*
X142871428Y-114285714D01*
X142776190Y-114333333D01*
X143204761Y-114904761D02*
X143109523Y-114952380D01*
X142871428Y-114952380D01*
X142776190Y-114904761D01*
X142728571Y-114809523D01*
X142728571Y-114714285D01*
X142776190Y-114619047D01*
X142871428Y-114571428D01*
X143109523Y-114571428D01*
X143204761Y-114523809D01*
X143680952Y-114952380D02*
X143680952Y-114285714D01*
X143680952Y-114476190D02*
X143728571Y-114380952D01*
X143776190Y-114333333D01*
X143871428Y-114285714D01*
X143966666Y-114285714D01*
X144728571Y-114285714D02*
X144728571Y-115095238D01*
X144680952Y-115190476D01*
X144633333Y-115238095D01*
X144538095Y-115285714D01*
X144395238Y-115285714D01*
X144300000Y-115238095D01*
X144728571Y-114904761D02*
X144633333Y-114952380D01*
X144442857Y-114952380D01*
X144347619Y-114904761D01*
X144300000Y-114857142D01*
X144252380Y-114761904D01*
X144252380Y-114476190D01*
X144300000Y-114380952D01*
X144347619Y-114333333D01*
X144442857Y-114285714D01*
X144633333Y-114285714D01*
X144728571Y-114333333D01*
X145585714Y-114904761D02*
X145490476Y-114952380D01*
X145300000Y-114952380D01*
X145204761Y-114904761D01*
X145157142Y-114809523D01*
X145157142Y-114428571D01*
X145204761Y-114333333D01*
X145300000Y-114285714D01*
X145490476Y-114285714D01*
X145585714Y-114333333D01*
X145633333Y-114428571D01*
X145633333Y-114523809D01*
X145157142Y-114619047D01*
X146061904Y-114952380D02*
X146061904Y-114285714D01*
X146061904Y-114476190D02*
X146109523Y-114380952D01*
X146157142Y-114333333D01*
X146252380Y-114285714D01*
X146347619Y-114285714D01*
X147966666Y-114952380D02*
X147395238Y-114952380D01*
X147680952Y-114952380D02*
X147680952Y-113952380D01*
X147585714Y-114095238D01*
X147490476Y-114190476D01*
X147395238Y-114238095D01*
X148347619Y-114666666D02*
X148823809Y-114666666D01*
X148252380Y-114952380D02*
X148585714Y-113952380D01*
X148919047Y-114952380D01*
X151938095Y-109200000D02*
X151842857Y-109152380D01*
X151700000Y-109152380D01*
X151557142Y-109200000D01*
X151461904Y-109295238D01*
X151414285Y-109390476D01*
X151366666Y-109580952D01*
X151366666Y-109723809D01*
X151414285Y-109914285D01*
X151461904Y-110009523D01*
X151557142Y-110104761D01*
X151700000Y-110152380D01*
X151795238Y-110152380D01*
X151938095Y-110104761D01*
X151985714Y-110057142D01*
X151985714Y-109723809D01*
X151795238Y-109723809D01*
X152414285Y-110152380D02*
X152414285Y-109152380D01*
X152985714Y-110152380D01*
X152985714Y-109152380D01*
X153461904Y-110152380D02*
X153461904Y-109152380D01*
X153700000Y-109152380D01*
X153842857Y-109200000D01*
X153938095Y-109295238D01*
X153985714Y-109390476D01*
X154033333Y-109580952D01*
X154033333Y-109723809D01*
X153985714Y-109914285D01*
X153938095Y-110009523D01*
X153842857Y-110104761D01*
X153700000Y-110152380D01*
X153461904Y-110152380D01*
X152657142Y-118752380D02*
X152180952Y-118752380D01*
X152133333Y-119228571D01*
X152180952Y-119180952D01*
X152276190Y-119133333D01*
X152514285Y-119133333D01*
X152609523Y-119180952D01*
X152657142Y-119228571D01*
X152704761Y-119323809D01*
X152704761Y-119561904D01*
X152657142Y-119657142D01*
X152609523Y-119704761D01*
X152514285Y-119752380D01*
X152276190Y-119752380D01*
X152180952Y-119704761D01*
X152133333Y-119657142D01*
X153038095Y-119085714D02*
X153276190Y-119752380D01*
X153514285Y-119085714D01*
X132252380Y-118228571D02*
X132395238Y-118276190D01*
X132442857Y-118323809D01*
X132490476Y-118419047D01*
X132490476Y-118561904D01*
X132442857Y-118657142D01*
X132395238Y-118704761D01*
X132300000Y-118752380D01*
X131919047Y-118752380D01*
X131919047Y-117752380D01*
X132252380Y-117752380D01*
X132347619Y-117800000D01*
X132395238Y-117847619D01*
X132442857Y-117942857D01*
X132442857Y-118038095D01*
X132395238Y-118133333D01*
X132347619Y-118180952D01*
X132252380Y-118228571D01*
X131919047Y-118228571D01*
X132919047Y-118371428D02*
X133680952Y-118371428D01*
X133300000Y-118752380D02*
X133300000Y-117990476D01*
X132252380Y-110628571D02*
X132395238Y-110676190D01*
X132442857Y-110723809D01*
X132490476Y-110819047D01*
X132490476Y-110961904D01*
X132442857Y-111057142D01*
X132395238Y-111104761D01*
X132300000Y-111152380D01*
X131919047Y-111152380D01*
X131919047Y-110152380D01*
X132252380Y-110152380D01*
X132347619Y-110200000D01*
X132395238Y-110247619D01*
X132442857Y-110342857D01*
X132442857Y-110438095D01*
X132395238Y-110533333D01*
X132347619Y-110580952D01*
X132252380Y-110628571D01*
X131919047Y-110628571D01*
X132919047Y-110771428D02*
X133680952Y-110771428D01*
X132147619Y-121252380D02*
X132338095Y-121252380D01*
X132433333Y-121300000D01*
X132528571Y-121395238D01*
X132576190Y-121585714D01*
X132576190Y-121919047D01*
X132528571Y-122109523D01*
X132433333Y-122204761D01*
X132338095Y-122252380D01*
X132147619Y-122252380D01*
X132052380Y-122204761D01*
X131957142Y-122109523D01*
X131909523Y-121919047D01*
X131909523Y-121585714D01*
X131957142Y-121395238D01*
X132052380Y-121300000D01*
X132147619Y-121252380D01*
X133433333Y-121585714D02*
X133433333Y-122252380D01*
X133004761Y-121585714D02*
X133004761Y-122109523D01*
X133052380Y-122204761D01*
X133147619Y-122252380D01*
X133290476Y-122252380D01*
X133385714Y-122204761D01*
X133433333Y-122157142D01*
X133766666Y-121585714D02*
X134147619Y-121585714D01*
X133909523Y-121252380D02*
X133909523Y-122109523D01*
X133957142Y-122204761D01*
X134052380Y-122252380D01*
X134147619Y-122252380D01*
X134480952Y-121871428D02*
X135242857Y-121871428D01*
X134861904Y-122252380D02*
X134861904Y-121490476D01*
X132147619Y-106652380D02*
X132338095Y-106652380D01*
X132433333Y-106700000D01*
X132528571Y-106795238D01*
X132576190Y-106985714D01*
X132576190Y-107319047D01*
X132528571Y-107509523D01*
X132433333Y-107604761D01*
X132338095Y-107652380D01*
X132147619Y-107652380D01*
X132052380Y-107604761D01*
X131957142Y-107509523D01*
X131909523Y-107319047D01*
X131909523Y-106985714D01*
X131957142Y-106795238D01*
X132052380Y-106700000D01*
X132147619Y-106652380D01*
X133433333Y-106985714D02*
X133433333Y-107652380D01*
X133004761Y-106985714D02*
X133004761Y-107509523D01*
X133052380Y-107604761D01*
X133147619Y-107652380D01*
X133290476Y-107652380D01*
X133385714Y-107604761D01*
X133433333Y-107557142D01*
X133766666Y-106985714D02*
X134147619Y-106985714D01*
X133909523Y-106652380D02*
X133909523Y-107509523D01*
X133957142Y-107604761D01*
X134052380Y-107652380D01*
X134147619Y-107652380D01*
X134480952Y-107271428D02*
X135242857Y-107271428D01*
X152352380Y-115561904D02*
X153161904Y-115561904D01*
X153257142Y-115514285D01*
X153304761Y-115466666D01*
X153352380Y-115371428D01*
X153352380Y-115180952D01*
X153304761Y-115085714D01*
X153257142Y-115038095D01*
X153161904Y-114990476D01*
X152352380Y-114990476D01*
X153304761Y-114561904D02*
X153352380Y-114419047D01*
X153352380Y-114180952D01*
X153304761Y-114085714D01*
X153257142Y-114038095D01*
X153161904Y-113990476D01*
X153066666Y-113990476D01*
X152971428Y-114038095D01*
X152923809Y-114085714D01*
X152876190Y-114180952D01*
X152828571Y-114371428D01*
X152780952Y-114466666D01*
X152733333Y-114514285D01*
X152638095Y-114561904D01*
X152542857Y-114561904D01*
X152447619Y-114514285D01*
X152400000Y-114466666D01*
X152352380Y-114371428D01*
X152352380Y-114133333D01*
X152400000Y-113990476D01*
X152828571Y-113228571D02*
X152876190Y-113085714D01*
X152923809Y-113038095D01*
X153019047Y-112990476D01*
X153161904Y-112990476D01*
X153257142Y-113038095D01*
X153304761Y-113085714D01*
X153352380Y-113180952D01*
X153352380Y-113561904D01*
X152352380Y-113561904D01*
X152352380Y-113228571D01*
X152400000Y-113133333D01*
X152447619Y-113085714D01*
X152542857Y-113038095D01*
X152638095Y-113038095D01*
X152733333Y-113085714D01*
X152780952Y-113133333D01*
X152828571Y-113228571D01*
X152828571Y-113561904D01*
X150119047Y-106671428D02*
X150880952Y-106671428D01*
X150219047Y-121871428D02*
X150980952Y-121871428D01*
X150600000Y-122252380D02*
X150600000Y-121490476D01*
X67438095Y-99452380D02*
X67438095Y-100261904D01*
X67485714Y-100357142D01*
X67533333Y-100404761D01*
X67628571Y-100452380D01*
X67819047Y-100452380D01*
X67914285Y-100404761D01*
X67961904Y-100357142D01*
X68009523Y-100261904D01*
X68009523Y-99452380D01*
X69009523Y-100452380D02*
X68438095Y-100452380D01*
X68723809Y-100452380D02*
X68723809Y-99452380D01*
X68628571Y-99595238D01*
X68533333Y-99690476D01*
X68438095Y-99738095D01*
X90707142Y-137916666D02*
X90754761Y-137964285D01*
X90802380Y-138107142D01*
X90802380Y-138202380D01*
X90754761Y-138345238D01*
X90659523Y-138440476D01*
X90564285Y-138488095D01*
X90373809Y-138535714D01*
X90230952Y-138535714D01*
X90040476Y-138488095D01*
X89945238Y-138440476D01*
X89850000Y-138345238D01*
X89802380Y-138202380D01*
X89802380Y-138107142D01*
X89850000Y-137964285D01*
X89897619Y-137916666D01*
X89802380Y-137011904D02*
X89802380Y-137488095D01*
X90278571Y-137535714D01*
X90230952Y-137488095D01*
X90183333Y-137392857D01*
X90183333Y-137154761D01*
X90230952Y-137059523D01*
X90278571Y-137011904D01*
X90373809Y-136964285D01*
X90611904Y-136964285D01*
X90707142Y-137011904D01*
X90754761Y-137059523D01*
X90802380Y-137154761D01*
X90802380Y-137392857D01*
X90754761Y-137488095D01*
X90707142Y-137535714D01*
X143752380Y-136811904D02*
X144561904Y-136811904D01*
X144657142Y-136764285D01*
X144704761Y-136716666D01*
X144752380Y-136621428D01*
X144752380Y-136430952D01*
X144704761Y-136335714D01*
X144657142Y-136288095D01*
X144561904Y-136240476D01*
X143752380Y-136240476D01*
X143752380Y-135859523D02*
X143752380Y-135240476D01*
X144133333Y-135573809D01*
X144133333Y-135430952D01*
X144180952Y-135335714D01*
X144228571Y-135288095D01*
X144323809Y-135240476D01*
X144561904Y-135240476D01*
X144657142Y-135288095D01*
X144704761Y-135335714D01*
X144752380Y-135430952D01*
X144752380Y-135716666D01*
X144704761Y-135811904D01*
X144657142Y-135859523D01*
X121757142Y-131552380D02*
X121423809Y-131076190D01*
X121185714Y-131552380D02*
X121185714Y-130552380D01*
X121566666Y-130552380D01*
X121661904Y-130600000D01*
X121709523Y-130647619D01*
X121757142Y-130742857D01*
X121757142Y-130885714D01*
X121709523Y-130980952D01*
X121661904Y-131028571D01*
X121566666Y-131076190D01*
X121185714Y-131076190D01*
X122138095Y-130647619D02*
X122185714Y-130600000D01*
X122280952Y-130552380D01*
X122519047Y-130552380D01*
X122614285Y-130600000D01*
X122661904Y-130647619D01*
X122709523Y-130742857D01*
X122709523Y-130838095D01*
X122661904Y-130980952D01*
X122090476Y-131552380D01*
X122709523Y-131552380D01*
X123566666Y-130885714D02*
X123566666Y-131552380D01*
X123328571Y-130504761D02*
X123090476Y-131219047D01*
X123709523Y-131219047D01*
X118157142Y-131652380D02*
X117823809Y-131176190D01*
X117585714Y-131652380D02*
X117585714Y-130652380D01*
X117966666Y-130652380D01*
X118061904Y-130700000D01*
X118109523Y-130747619D01*
X118157142Y-130842857D01*
X118157142Y-130985714D01*
X118109523Y-131080952D01*
X118061904Y-131128571D01*
X117966666Y-131176190D01*
X117585714Y-131176190D01*
X118538095Y-130747619D02*
X118585714Y-130700000D01*
X118680952Y-130652380D01*
X118919047Y-130652380D01*
X119014285Y-130700000D01*
X119061904Y-130747619D01*
X119109523Y-130842857D01*
X119109523Y-130938095D01*
X119061904Y-131080952D01*
X118490476Y-131652380D01*
X119109523Y-131652380D01*
X119442857Y-130652380D02*
X120061904Y-130652380D01*
X119728571Y-131033333D01*
X119871428Y-131033333D01*
X119966666Y-131080952D01*
X120014285Y-131128571D01*
X120061904Y-131223809D01*
X120061904Y-131461904D01*
X120014285Y-131557142D01*
X119966666Y-131604761D01*
X119871428Y-131652380D01*
X119585714Y-131652380D01*
X119490476Y-131604761D01*
X119442857Y-131557142D01*
X114557142Y-131652380D02*
X114223809Y-131176190D01*
X113985714Y-131652380D02*
X113985714Y-130652380D01*
X114366666Y-130652380D01*
X114461904Y-130700000D01*
X114509523Y-130747619D01*
X114557142Y-130842857D01*
X114557142Y-130985714D01*
X114509523Y-131080952D01*
X114461904Y-131128571D01*
X114366666Y-131176190D01*
X113985714Y-131176190D01*
X114938095Y-130747619D02*
X114985714Y-130700000D01*
X115080952Y-130652380D01*
X115319047Y-130652380D01*
X115414285Y-130700000D01*
X115461904Y-130747619D01*
X115509523Y-130842857D01*
X115509523Y-130938095D01*
X115461904Y-131080952D01*
X114890476Y-131652380D01*
X115509523Y-131652380D01*
X115890476Y-130747619D02*
X115938095Y-130700000D01*
X116033333Y-130652380D01*
X116271428Y-130652380D01*
X116366666Y-130700000D01*
X116414285Y-130747619D01*
X116461904Y-130842857D01*
X116461904Y-130938095D01*
X116414285Y-131080952D01*
X115842857Y-131652380D01*
X116461904Y-131652380D01*
X121152380Y-124042857D02*
X120676190Y-124376190D01*
X121152380Y-124614285D02*
X120152380Y-124614285D01*
X120152380Y-124233333D01*
X120200000Y-124138095D01*
X120247619Y-124090476D01*
X120342857Y-124042857D01*
X120485714Y-124042857D01*
X120580952Y-124090476D01*
X120628571Y-124138095D01*
X120676190Y-124233333D01*
X120676190Y-124614285D01*
X120247619Y-123661904D02*
X120200000Y-123614285D01*
X120152380Y-123519047D01*
X120152380Y-123280952D01*
X120200000Y-123185714D01*
X120247619Y-123138095D01*
X120342857Y-123090476D01*
X120438095Y-123090476D01*
X120580952Y-123138095D01*
X121152380Y-123709523D01*
X121152380Y-123090476D01*
X121152380Y-122138095D02*
X121152380Y-122709523D01*
X121152380Y-122423809D02*
X120152380Y-122423809D01*
X120295238Y-122519047D01*
X120390476Y-122614285D01*
X120438095Y-122709523D01*
X110957142Y-131652380D02*
X110623809Y-131176190D01*
X110385714Y-131652380D02*
X110385714Y-130652380D01*
X110766666Y-130652380D01*
X110861904Y-130700000D01*
X110909523Y-130747619D01*
X110957142Y-130842857D01*
X110957142Y-130985714D01*
X110909523Y-131080952D01*
X110861904Y-131128571D01*
X110766666Y-131176190D01*
X110385714Y-131176190D01*
X111338095Y-130747619D02*
X111385714Y-130700000D01*
X111480952Y-130652380D01*
X111719047Y-130652380D01*
X111814285Y-130700000D01*
X111861904Y-130747619D01*
X111909523Y-130842857D01*
X111909523Y-130938095D01*
X111861904Y-131080952D01*
X111290476Y-131652380D01*
X111909523Y-131652380D01*
X112528571Y-130652380D02*
X112623809Y-130652380D01*
X112719047Y-130700000D01*
X112766666Y-130747619D01*
X112814285Y-130842857D01*
X112861904Y-131033333D01*
X112861904Y-131271428D01*
X112814285Y-131461904D01*
X112766666Y-131557142D01*
X112719047Y-131604761D01*
X112623809Y-131652380D01*
X112528571Y-131652380D01*
X112433333Y-131604761D01*
X112385714Y-131557142D01*
X112338095Y-131461904D01*
X112290476Y-131271428D01*
X112290476Y-131033333D01*
X112338095Y-130842857D01*
X112385714Y-130747619D01*
X112433333Y-130700000D01*
X112528571Y-130652380D01*
X115502380Y-124042857D02*
X115026190Y-124376190D01*
X115502380Y-124614285D02*
X114502380Y-124614285D01*
X114502380Y-124233333D01*
X114550000Y-124138095D01*
X114597619Y-124090476D01*
X114692857Y-124042857D01*
X114835714Y-124042857D01*
X114930952Y-124090476D01*
X114978571Y-124138095D01*
X115026190Y-124233333D01*
X115026190Y-124614285D01*
X115502380Y-123090476D02*
X115502380Y-123661904D01*
X115502380Y-123376190D02*
X114502380Y-123376190D01*
X114645238Y-123471428D01*
X114740476Y-123566666D01*
X114788095Y-123661904D01*
X115502380Y-122614285D02*
X115502380Y-122423809D01*
X115454761Y-122328571D01*
X115407142Y-122280952D01*
X115264285Y-122185714D01*
X115073809Y-122138095D01*
X114692857Y-122138095D01*
X114597619Y-122185714D01*
X114550000Y-122233333D01*
X114502380Y-122328571D01*
X114502380Y-122519047D01*
X114550000Y-122614285D01*
X114597619Y-122661904D01*
X114692857Y-122709523D01*
X114930952Y-122709523D01*
X115026190Y-122661904D01*
X115073809Y-122614285D01*
X115121428Y-122519047D01*
X115121428Y-122328571D01*
X115073809Y-122233333D01*
X115026190Y-122185714D01*
X114930952Y-122138095D01*
X107357142Y-131652380D02*
X107023809Y-131176190D01*
X106785714Y-131652380D02*
X106785714Y-130652380D01*
X107166666Y-130652380D01*
X107261904Y-130700000D01*
X107309523Y-130747619D01*
X107357142Y-130842857D01*
X107357142Y-130985714D01*
X107309523Y-131080952D01*
X107261904Y-131128571D01*
X107166666Y-131176190D01*
X106785714Y-131176190D01*
X108309523Y-131652380D02*
X107738095Y-131652380D01*
X108023809Y-131652380D02*
X108023809Y-130652380D01*
X107928571Y-130795238D01*
X107833333Y-130890476D01*
X107738095Y-130938095D01*
X108880952Y-131080952D02*
X108785714Y-131033333D01*
X108738095Y-130985714D01*
X108690476Y-130890476D01*
X108690476Y-130842857D01*
X108738095Y-130747619D01*
X108785714Y-130700000D01*
X108880952Y-130652380D01*
X109071428Y-130652380D01*
X109166666Y-130700000D01*
X109214285Y-130747619D01*
X109261904Y-130842857D01*
X109261904Y-130890476D01*
X109214285Y-130985714D01*
X109166666Y-131033333D01*
X109071428Y-131080952D01*
X108880952Y-131080952D01*
X108785714Y-131128571D01*
X108738095Y-131176190D01*
X108690476Y-131271428D01*
X108690476Y-131461904D01*
X108738095Y-131557142D01*
X108785714Y-131604761D01*
X108880952Y-131652380D01*
X109071428Y-131652380D01*
X109166666Y-131604761D01*
X109214285Y-131557142D01*
X109261904Y-131461904D01*
X109261904Y-131271428D01*
X109214285Y-131176190D01*
X109166666Y-131128571D01*
X109071428Y-131080952D01*
X109952380Y-124142857D02*
X109476190Y-124476190D01*
X109952380Y-124714285D02*
X108952380Y-124714285D01*
X108952380Y-124333333D01*
X109000000Y-124238095D01*
X109047619Y-124190476D01*
X109142857Y-124142857D01*
X109285714Y-124142857D01*
X109380952Y-124190476D01*
X109428571Y-124238095D01*
X109476190Y-124333333D01*
X109476190Y-124714285D01*
X109952380Y-123190476D02*
X109952380Y-123761904D01*
X109952380Y-123476190D02*
X108952380Y-123476190D01*
X109095238Y-123571428D01*
X109190476Y-123666666D01*
X109238095Y-123761904D01*
X108952380Y-122857142D02*
X108952380Y-122190476D01*
X109952380Y-122619047D01*
X104452380Y-124442857D02*
X103976190Y-124776190D01*
X104452380Y-125014285D02*
X103452380Y-125014285D01*
X103452380Y-124633333D01*
X103500000Y-124538095D01*
X103547619Y-124490476D01*
X103642857Y-124442857D01*
X103785714Y-124442857D01*
X103880952Y-124490476D01*
X103928571Y-124538095D01*
X103976190Y-124633333D01*
X103976190Y-125014285D01*
X104452380Y-123490476D02*
X104452380Y-124061904D01*
X104452380Y-123776190D02*
X103452380Y-123776190D01*
X103595238Y-123871428D01*
X103690476Y-123966666D01*
X103738095Y-124061904D01*
X103452380Y-122633333D02*
X103452380Y-122823809D01*
X103500000Y-122919047D01*
X103547619Y-122966666D01*
X103690476Y-123061904D01*
X103880952Y-123109523D01*
X104261904Y-123109523D01*
X104357142Y-123061904D01*
X104404761Y-123014285D01*
X104452380Y-122919047D01*
X104452380Y-122728571D01*
X104404761Y-122633333D01*
X104357142Y-122585714D01*
X104261904Y-122538095D01*
X104023809Y-122538095D01*
X103928571Y-122585714D01*
X103880952Y-122633333D01*
X103833333Y-122728571D01*
X103833333Y-122919047D01*
X103880952Y-123014285D01*
X103928571Y-123061904D01*
X104023809Y-123109523D01*
X99152380Y-124042857D02*
X98676190Y-124376190D01*
X99152380Y-124614285D02*
X98152380Y-124614285D01*
X98152380Y-124233333D01*
X98200000Y-124138095D01*
X98247619Y-124090476D01*
X98342857Y-124042857D01*
X98485714Y-124042857D01*
X98580952Y-124090476D01*
X98628571Y-124138095D01*
X98676190Y-124233333D01*
X98676190Y-124614285D01*
X99152380Y-123090476D02*
X99152380Y-123661904D01*
X99152380Y-123376190D02*
X98152380Y-123376190D01*
X98295238Y-123471428D01*
X98390476Y-123566666D01*
X98438095Y-123661904D01*
X98152380Y-122185714D02*
X98152380Y-122661904D01*
X98628571Y-122709523D01*
X98580952Y-122661904D01*
X98533333Y-122566666D01*
X98533333Y-122328571D01*
X98580952Y-122233333D01*
X98628571Y-122185714D01*
X98723809Y-122138095D01*
X98961904Y-122138095D01*
X99057142Y-122185714D01*
X99104761Y-122233333D01*
X99152380Y-122328571D01*
X99152380Y-122566666D01*
X99104761Y-122661904D01*
X99057142Y-122709523D01*
X121252380Y-120542857D02*
X120776190Y-120876190D01*
X121252380Y-121114285D02*
X120252380Y-121114285D01*
X120252380Y-120733333D01*
X120300000Y-120638095D01*
X120347619Y-120590476D01*
X120442857Y-120542857D01*
X120585714Y-120542857D01*
X120680952Y-120590476D01*
X120728571Y-120638095D01*
X120776190Y-120733333D01*
X120776190Y-121114285D01*
X121252380Y-119590476D02*
X121252380Y-120161904D01*
X121252380Y-119876190D02*
X120252380Y-119876190D01*
X120395238Y-119971428D01*
X120490476Y-120066666D01*
X120538095Y-120161904D01*
X120585714Y-118733333D02*
X121252380Y-118733333D01*
X120204761Y-118971428D02*
X120919047Y-119209523D01*
X120919047Y-118590476D01*
X115552380Y-120542857D02*
X115076190Y-120876190D01*
X115552380Y-121114285D02*
X114552380Y-121114285D01*
X114552380Y-120733333D01*
X114600000Y-120638095D01*
X114647619Y-120590476D01*
X114742857Y-120542857D01*
X114885714Y-120542857D01*
X114980952Y-120590476D01*
X115028571Y-120638095D01*
X115076190Y-120733333D01*
X115076190Y-121114285D01*
X115552380Y-119590476D02*
X115552380Y-120161904D01*
X115552380Y-119876190D02*
X114552380Y-119876190D01*
X114695238Y-119971428D01*
X114790476Y-120066666D01*
X114838095Y-120161904D01*
X114552380Y-119257142D02*
X114552380Y-118638095D01*
X114933333Y-118971428D01*
X114933333Y-118828571D01*
X114980952Y-118733333D01*
X115028571Y-118685714D01*
X115123809Y-118638095D01*
X115361904Y-118638095D01*
X115457142Y-118685714D01*
X115504761Y-118733333D01*
X115552380Y-118828571D01*
X115552380Y-119114285D01*
X115504761Y-119209523D01*
X115457142Y-119257142D01*
X110152380Y-120542857D02*
X109676190Y-120876190D01*
X110152380Y-121114285D02*
X109152380Y-121114285D01*
X109152380Y-120733333D01*
X109200000Y-120638095D01*
X109247619Y-120590476D01*
X109342857Y-120542857D01*
X109485714Y-120542857D01*
X109580952Y-120590476D01*
X109628571Y-120638095D01*
X109676190Y-120733333D01*
X109676190Y-121114285D01*
X110152380Y-119590476D02*
X110152380Y-120161904D01*
X110152380Y-119876190D02*
X109152380Y-119876190D01*
X109295238Y-119971428D01*
X109390476Y-120066666D01*
X109438095Y-120161904D01*
X109247619Y-119209523D02*
X109200000Y-119161904D01*
X109152380Y-119066666D01*
X109152380Y-118828571D01*
X109200000Y-118733333D01*
X109247619Y-118685714D01*
X109342857Y-118638095D01*
X109438095Y-118638095D01*
X109580952Y-118685714D01*
X110152380Y-119257142D01*
X110152380Y-118638095D01*
X104552380Y-120742857D02*
X104076190Y-121076190D01*
X104552380Y-121314285D02*
X103552380Y-121314285D01*
X103552380Y-120933333D01*
X103600000Y-120838095D01*
X103647619Y-120790476D01*
X103742857Y-120742857D01*
X103885714Y-120742857D01*
X103980952Y-120790476D01*
X104028571Y-120838095D01*
X104076190Y-120933333D01*
X104076190Y-121314285D01*
X104552380Y-119790476D02*
X104552380Y-120361904D01*
X104552380Y-120076190D02*
X103552380Y-120076190D01*
X103695238Y-120171428D01*
X103790476Y-120266666D01*
X103838095Y-120361904D01*
X104552380Y-118838095D02*
X104552380Y-119409523D01*
X104552380Y-119123809D02*
X103552380Y-119123809D01*
X103695238Y-119219047D01*
X103790476Y-119314285D01*
X103838095Y-119409523D01*
X99052380Y-120742857D02*
X98576190Y-121076190D01*
X99052380Y-121314285D02*
X98052380Y-121314285D01*
X98052380Y-120933333D01*
X98100000Y-120838095D01*
X98147619Y-120790476D01*
X98242857Y-120742857D01*
X98385714Y-120742857D01*
X98480952Y-120790476D01*
X98528571Y-120838095D01*
X98576190Y-120933333D01*
X98576190Y-121314285D01*
X99052380Y-119790476D02*
X99052380Y-120361904D01*
X99052380Y-120076190D02*
X98052380Y-120076190D01*
X98195238Y-120171428D01*
X98290476Y-120266666D01*
X98338095Y-120361904D01*
X98052380Y-119171428D02*
X98052380Y-119076190D01*
X98100000Y-118980952D01*
X98147619Y-118933333D01*
X98242857Y-118885714D01*
X98433333Y-118838095D01*
X98671428Y-118838095D01*
X98861904Y-118885714D01*
X98957142Y-118933333D01*
X99004761Y-118980952D01*
X99052380Y-119076190D01*
X99052380Y-119171428D01*
X99004761Y-119266666D01*
X98957142Y-119314285D01*
X98861904Y-119361904D01*
X98671428Y-119409523D01*
X98433333Y-119409523D01*
X98242857Y-119361904D01*
X98147619Y-119314285D01*
X98100000Y-119266666D01*
X98052380Y-119171428D01*
X136702380Y-133966666D02*
X136226190Y-134300000D01*
X136702380Y-134538095D02*
X135702380Y-134538095D01*
X135702380Y-134157142D01*
X135750000Y-134061904D01*
X135797619Y-134014285D01*
X135892857Y-133966666D01*
X136035714Y-133966666D01*
X136130952Y-134014285D01*
X136178571Y-134061904D01*
X136226190Y-134157142D01*
X136226190Y-134538095D01*
X136702380Y-133490476D02*
X136702380Y-133300000D01*
X136654761Y-133204761D01*
X136607142Y-133157142D01*
X136464285Y-133061904D01*
X136273809Y-133014285D01*
X135892857Y-133014285D01*
X135797619Y-133061904D01*
X135750000Y-133109523D01*
X135702380Y-133204761D01*
X135702380Y-133395238D01*
X135750000Y-133490476D01*
X135797619Y-133538095D01*
X135892857Y-133585714D01*
X136130952Y-133585714D01*
X136226190Y-133538095D01*
X136273809Y-133490476D01*
X136321428Y-133395238D01*
X136321428Y-133204761D01*
X136273809Y-133109523D01*
X136226190Y-133061904D01*
X136130952Y-133014285D01*
X134633333Y-96152380D02*
X134300000Y-95676190D01*
X134061904Y-96152380D02*
X134061904Y-95152380D01*
X134442857Y-95152380D01*
X134538095Y-95200000D01*
X134585714Y-95247619D01*
X134633333Y-95342857D01*
X134633333Y-95485714D01*
X134585714Y-95580952D01*
X134538095Y-95628571D01*
X134442857Y-95676190D01*
X134061904Y-95676190D01*
X134966666Y-95152380D02*
X135633333Y-95152380D01*
X135204761Y-96152380D01*
X121297619Y-126895238D02*
X121250000Y-126990476D01*
X121154761Y-127085714D01*
X121011904Y-127228571D01*
X120964285Y-127323809D01*
X120964285Y-127419047D01*
X121202380Y-127371428D02*
X121154761Y-127466666D01*
X121059523Y-127561904D01*
X120869047Y-127609523D01*
X120535714Y-127609523D01*
X120345238Y-127561904D01*
X120250000Y-127466666D01*
X120202380Y-127371428D01*
X120202380Y-127180952D01*
X120250000Y-127085714D01*
X120345238Y-126990476D01*
X120535714Y-126942857D01*
X120869047Y-126942857D01*
X121059523Y-126990476D01*
X121154761Y-127085714D01*
X121202380Y-127180952D01*
X121202380Y-127371428D01*
X120202380Y-126038095D02*
X120202380Y-126514285D01*
X120678571Y-126561904D01*
X120630952Y-126514285D01*
X120583333Y-126419047D01*
X120583333Y-126180952D01*
X120630952Y-126085714D01*
X120678571Y-126038095D01*
X120773809Y-125990476D01*
X121011904Y-125990476D01*
X121107142Y-126038095D01*
X121154761Y-126085714D01*
X121202380Y-126180952D01*
X121202380Y-126419047D01*
X121154761Y-126514285D01*
X121107142Y-126561904D01*
X115647619Y-126895238D02*
X115600000Y-126990476D01*
X115504761Y-127085714D01*
X115361904Y-127228571D01*
X115314285Y-127323809D01*
X115314285Y-127419047D01*
X115552380Y-127371428D02*
X115504761Y-127466666D01*
X115409523Y-127561904D01*
X115219047Y-127609523D01*
X114885714Y-127609523D01*
X114695238Y-127561904D01*
X114600000Y-127466666D01*
X114552380Y-127371428D01*
X114552380Y-127180952D01*
X114600000Y-127085714D01*
X114695238Y-126990476D01*
X114885714Y-126942857D01*
X115219047Y-126942857D01*
X115409523Y-126990476D01*
X115504761Y-127085714D01*
X115552380Y-127180952D01*
X115552380Y-127371428D01*
X114885714Y-126085714D02*
X115552380Y-126085714D01*
X114504761Y-126323809D02*
X115219047Y-126561904D01*
X115219047Y-125942857D01*
X110047619Y-126895238D02*
X110000000Y-126990476D01*
X109904761Y-127085714D01*
X109761904Y-127228571D01*
X109714285Y-127323809D01*
X109714285Y-127419047D01*
X109952380Y-127371428D02*
X109904761Y-127466666D01*
X109809523Y-127561904D01*
X109619047Y-127609523D01*
X109285714Y-127609523D01*
X109095238Y-127561904D01*
X109000000Y-127466666D01*
X108952380Y-127371428D01*
X108952380Y-127180952D01*
X109000000Y-127085714D01*
X109095238Y-126990476D01*
X109285714Y-126942857D01*
X109619047Y-126942857D01*
X109809523Y-126990476D01*
X109904761Y-127085714D01*
X109952380Y-127180952D01*
X109952380Y-127371428D01*
X108952380Y-126609523D02*
X108952380Y-125990476D01*
X109333333Y-126323809D01*
X109333333Y-126180952D01*
X109380952Y-126085714D01*
X109428571Y-126038095D01*
X109523809Y-125990476D01*
X109761904Y-125990476D01*
X109857142Y-126038095D01*
X109904761Y-126085714D01*
X109952380Y-126180952D01*
X109952380Y-126466666D01*
X109904761Y-126561904D01*
X109857142Y-126609523D01*
X104547619Y-126895238D02*
X104500000Y-126990476D01*
X104404761Y-127085714D01*
X104261904Y-127228571D01*
X104214285Y-127323809D01*
X104214285Y-127419047D01*
X104452380Y-127371428D02*
X104404761Y-127466666D01*
X104309523Y-127561904D01*
X104119047Y-127609523D01*
X103785714Y-127609523D01*
X103595238Y-127561904D01*
X103500000Y-127466666D01*
X103452380Y-127371428D01*
X103452380Y-127180952D01*
X103500000Y-127085714D01*
X103595238Y-126990476D01*
X103785714Y-126942857D01*
X104119047Y-126942857D01*
X104309523Y-126990476D01*
X104404761Y-127085714D01*
X104452380Y-127180952D01*
X104452380Y-127371428D01*
X103547619Y-126561904D02*
X103500000Y-126514285D01*
X103452380Y-126419047D01*
X103452380Y-126180952D01*
X103500000Y-126085714D01*
X103547619Y-126038095D01*
X103642857Y-125990476D01*
X103738095Y-125990476D01*
X103880952Y-126038095D01*
X104452380Y-126609523D01*
X104452380Y-125990476D01*
X99047619Y-126895238D02*
X99000000Y-126990476D01*
X98904761Y-127085714D01*
X98761904Y-127228571D01*
X98714285Y-127323809D01*
X98714285Y-127419047D01*
X98952380Y-127371428D02*
X98904761Y-127466666D01*
X98809523Y-127561904D01*
X98619047Y-127609523D01*
X98285714Y-127609523D01*
X98095238Y-127561904D01*
X98000000Y-127466666D01*
X97952380Y-127371428D01*
X97952380Y-127180952D01*
X98000000Y-127085714D01*
X98095238Y-126990476D01*
X98285714Y-126942857D01*
X98619047Y-126942857D01*
X98809523Y-126990476D01*
X98904761Y-127085714D01*
X98952380Y-127180952D01*
X98952380Y-127371428D01*
X98952380Y-125990476D02*
X98952380Y-126561904D01*
X98952380Y-126276190D02*
X97952380Y-126276190D01*
X98095238Y-126371428D01*
X98190476Y-126466666D01*
X98238095Y-126561904D01*
X144957142Y-140416666D02*
X145004761Y-140464285D01*
X145052380Y-140607142D01*
X145052380Y-140702380D01*
X145004761Y-140845238D01*
X144909523Y-140940476D01*
X144814285Y-140988095D01*
X144623809Y-141035714D01*
X144480952Y-141035714D01*
X144290476Y-140988095D01*
X144195238Y-140940476D01*
X144100000Y-140845238D01*
X144052380Y-140702380D01*
X144052380Y-140607142D01*
X144100000Y-140464285D01*
X144147619Y-140416666D01*
X144385714Y-139559523D02*
X145052380Y-139559523D01*
X144004761Y-139797619D02*
X144719047Y-140035714D01*
X144719047Y-139416666D01*
X145207142Y-132216666D02*
X145254761Y-132264285D01*
X145302380Y-132407142D01*
X145302380Y-132502380D01*
X145254761Y-132645238D01*
X145159523Y-132740476D01*
X145064285Y-132788095D01*
X144873809Y-132835714D01*
X144730952Y-132835714D01*
X144540476Y-132788095D01*
X144445238Y-132740476D01*
X144350000Y-132645238D01*
X144302380Y-132502380D01*
X144302380Y-132407142D01*
X144350000Y-132264285D01*
X144397619Y-132216666D01*
X144302380Y-131883333D02*
X144302380Y-131264285D01*
X144683333Y-131597619D01*
X144683333Y-131454761D01*
X144730952Y-131359523D01*
X144778571Y-131311904D01*
X144873809Y-131264285D01*
X145111904Y-131264285D01*
X145207142Y-131311904D01*
X145254761Y-131359523D01*
X145302380Y-131454761D01*
X145302380Y-131740476D01*
X145254761Y-131835714D01*
X145207142Y-131883333D01*
X134633333Y-98207142D02*
X134585714Y-98254761D01*
X134442857Y-98302380D01*
X134347619Y-98302380D01*
X134204761Y-98254761D01*
X134109523Y-98159523D01*
X134061904Y-98064285D01*
X134014285Y-97873809D01*
X134014285Y-97730952D01*
X134061904Y-97540476D01*
X134109523Y-97445238D01*
X134204761Y-97350000D01*
X134347619Y-97302380D01*
X134442857Y-97302380D01*
X134585714Y-97350000D01*
X134633333Y-97397619D01*
X135014285Y-97397619D02*
X135061904Y-97350000D01*
X135157142Y-97302380D01*
X135395238Y-97302380D01*
X135490476Y-97350000D01*
X135538095Y-97397619D01*
X135585714Y-97492857D01*
X135585714Y-97588095D01*
X135538095Y-97730952D01*
X134966666Y-98302380D01*
X135585714Y-98302380D01*
X119452380Y-113616666D02*
X118976190Y-113950000D01*
X119452380Y-114188095D02*
X118452380Y-114188095D01*
X118452380Y-113807142D01*
X118500000Y-113711904D01*
X118547619Y-113664285D01*
X118642857Y-113616666D01*
X118785714Y-113616666D01*
X118880952Y-113664285D01*
X118928571Y-113711904D01*
X118976190Y-113807142D01*
X118976190Y-114188095D01*
X118452380Y-112759523D02*
X118452380Y-112950000D01*
X118500000Y-113045238D01*
X118547619Y-113092857D01*
X118690476Y-113188095D01*
X118880952Y-113235714D01*
X119261904Y-113235714D01*
X119357142Y-113188095D01*
X119404761Y-113140476D01*
X119452380Y-113045238D01*
X119452380Y-112854761D01*
X119404761Y-112759523D01*
X119357142Y-112711904D01*
X119261904Y-112664285D01*
X119023809Y-112664285D01*
X118928571Y-112711904D01*
X118880952Y-112759523D01*
X118833333Y-112854761D01*
X118833333Y-113045238D01*
X118880952Y-113140476D01*
X118928571Y-113188095D01*
X119023809Y-113235714D01*
X123783333Y-111052380D02*
X123450000Y-110576190D01*
X123211904Y-111052380D02*
X123211904Y-110052380D01*
X123592857Y-110052380D01*
X123688095Y-110100000D01*
X123735714Y-110147619D01*
X123783333Y-110242857D01*
X123783333Y-110385714D01*
X123735714Y-110480952D01*
X123688095Y-110528571D01*
X123592857Y-110576190D01*
X123211904Y-110576190D01*
X124688095Y-110052380D02*
X124211904Y-110052380D01*
X124164285Y-110528571D01*
X124211904Y-110480952D01*
X124307142Y-110433333D01*
X124545238Y-110433333D01*
X124640476Y-110480952D01*
X124688095Y-110528571D01*
X124735714Y-110623809D01*
X124735714Y-110861904D01*
X124688095Y-110957142D01*
X124640476Y-111004761D01*
X124545238Y-111052380D01*
X124307142Y-111052380D01*
X124211904Y-111004761D01*
X124164285Y-110957142D01*
X128366666Y-129208571D02*
X128033333Y-129208571D01*
X128033333Y-129732380D02*
X128033333Y-128732380D01*
X128509523Y-128732380D01*
X129414285Y-129732380D02*
X128842857Y-129732380D01*
X129128571Y-129732380D02*
X129128571Y-128732380D01*
X129033333Y-128875238D01*
X128938095Y-128970476D01*
X128842857Y-129018095D01*
X123733333Y-116807142D02*
X123685714Y-116854761D01*
X123542857Y-116902380D01*
X123447619Y-116902380D01*
X123304761Y-116854761D01*
X123209523Y-116759523D01*
X123161904Y-116664285D01*
X123114285Y-116473809D01*
X123114285Y-116330952D01*
X123161904Y-116140476D01*
X123209523Y-116045238D01*
X123304761Y-115950000D01*
X123447619Y-115902380D01*
X123542857Y-115902380D01*
X123685714Y-115950000D01*
X123733333Y-115997619D01*
X124685714Y-116902380D02*
X124114285Y-116902380D01*
X124400000Y-116902380D02*
X124400000Y-115902380D01*
X124304761Y-116045238D01*
X124209523Y-116140476D01*
X124114285Y-116188095D01*
X116933333Y-88352380D02*
X116600000Y-87876190D01*
X116361904Y-88352380D02*
X116361904Y-87352380D01*
X116742857Y-87352380D01*
X116838095Y-87400000D01*
X116885714Y-87447619D01*
X116933333Y-87542857D01*
X116933333Y-87685714D01*
X116885714Y-87780952D01*
X116838095Y-87828571D01*
X116742857Y-87876190D01*
X116361904Y-87876190D01*
X117790476Y-87685714D02*
X117790476Y-88352380D01*
X117552380Y-87304761D02*
X117314285Y-88019047D01*
X117933333Y-88019047D01*
X114433333Y-88352380D02*
X114100000Y-87876190D01*
X113861904Y-88352380D02*
X113861904Y-87352380D01*
X114242857Y-87352380D01*
X114338095Y-87400000D01*
X114385714Y-87447619D01*
X114433333Y-87542857D01*
X114433333Y-87685714D01*
X114385714Y-87780952D01*
X114338095Y-87828571D01*
X114242857Y-87876190D01*
X113861904Y-87876190D01*
X114766666Y-87352380D02*
X115385714Y-87352380D01*
X115052380Y-87733333D01*
X115195238Y-87733333D01*
X115290476Y-87780952D01*
X115338095Y-87828571D01*
X115385714Y-87923809D01*
X115385714Y-88161904D01*
X115338095Y-88257142D01*
X115290476Y-88304761D01*
X115195238Y-88352380D01*
X114909523Y-88352380D01*
X114814285Y-88304761D01*
X114766666Y-88257142D01*
X111883333Y-88352380D02*
X111550000Y-87876190D01*
X111311904Y-88352380D02*
X111311904Y-87352380D01*
X111692857Y-87352380D01*
X111788095Y-87400000D01*
X111835714Y-87447619D01*
X111883333Y-87542857D01*
X111883333Y-87685714D01*
X111835714Y-87780952D01*
X111788095Y-87828571D01*
X111692857Y-87876190D01*
X111311904Y-87876190D01*
X112264285Y-87447619D02*
X112311904Y-87400000D01*
X112407142Y-87352380D01*
X112645238Y-87352380D01*
X112740476Y-87400000D01*
X112788095Y-87447619D01*
X112835714Y-87542857D01*
X112835714Y-87638095D01*
X112788095Y-87780952D01*
X112216666Y-88352380D01*
X112835714Y-88352380D01*
X109333333Y-88352380D02*
X109000000Y-87876190D01*
X108761904Y-88352380D02*
X108761904Y-87352380D01*
X109142857Y-87352380D01*
X109238095Y-87400000D01*
X109285714Y-87447619D01*
X109333333Y-87542857D01*
X109333333Y-87685714D01*
X109285714Y-87780952D01*
X109238095Y-87828571D01*
X109142857Y-87876190D01*
X108761904Y-87876190D01*
X110285714Y-88352380D02*
X109714285Y-88352380D01*
X110000000Y-88352380D02*
X110000000Y-87352380D01*
X109904761Y-87495238D01*
X109809523Y-87590476D01*
X109714285Y-87638095D01*
X104066666Y-78652380D02*
X104066666Y-79366666D01*
X104019047Y-79509523D01*
X103923809Y-79604761D01*
X103780952Y-79652380D01*
X103685714Y-79652380D01*
X104495238Y-78747619D02*
X104542857Y-78700000D01*
X104638095Y-78652380D01*
X104876190Y-78652380D01*
X104971428Y-78700000D01*
X105019047Y-78747619D01*
X105066666Y-78842857D01*
X105066666Y-78938095D01*
X105019047Y-79080952D01*
X104447619Y-79652380D01*
X105066666Y-79652380D01*
X95966666Y-80217380D02*
X95966666Y-80931666D01*
X95919047Y-81074523D01*
X95823809Y-81169761D01*
X95680952Y-81217380D01*
X95585714Y-81217380D01*
X96966666Y-81217380D02*
X96395238Y-81217380D01*
X96680952Y-81217380D02*
X96680952Y-80217380D01*
X96585714Y-80360238D01*
X96490476Y-80455476D01*
X96395238Y-80503095D01*
M02*
