G04 #@! TF.GenerationSoftware,KiCad,Pcbnew,(5.1.5-0-10_14)*
G04 #@! TF.CreationDate,2020-04-17T21:23:14+02:00*
G04 #@! TF.ProjectId,inuk-base,696e756b-2d62-4617-9365-2e6b69636164,rev?*
G04 #@! TF.SameCoordinates,Original*
G04 #@! TF.FileFunction,Copper,L2,Bot*
G04 #@! TF.FilePolarity,Positive*
%FSLAX46Y46*%
G04 Gerber Fmt 4.6, Leading zero omitted, Abs format (unit mm)*
G04 Created by KiCad (PCBNEW (5.1.5-0-10_14)) date 2020-04-17 21:23:14*
%MOMM*%
%LPD*%
G04 APERTURE LIST*
%ADD10C,0.100000*%
%ADD11O,1.700000X1.700000*%
%ADD12R,1.700000X1.700000*%
%ADD13R,2.800000X2.800000*%
%ADD14C,0.800000*%
%ADD15C,6.400000*%
%ADD16R,3.500000X3.500000*%
%ADD17C,3.500000*%
%ADD18C,0.600000*%
%ADD19C,0.300000*%
%ADD20C,0.250000*%
%ADD21C,0.400000*%
%ADD22C,1.000000*%
%ADD23C,0.254000*%
%ADD24C,0.200000*%
G04 APERTURE END LIST*
G04 #@! TA.AperFunction,SMDPad,CuDef*
D10*
G36*
X129174504Y-141201204D02*
G01*
X129198773Y-141204804D01*
X129222571Y-141210765D01*
X129245671Y-141219030D01*
X129267849Y-141229520D01*
X129288893Y-141242133D01*
X129308598Y-141256747D01*
X129326777Y-141273223D01*
X129343253Y-141291402D01*
X129357867Y-141311107D01*
X129370480Y-141332151D01*
X129380970Y-141354329D01*
X129389235Y-141377429D01*
X129395196Y-141401227D01*
X129398796Y-141425496D01*
X129400000Y-141450000D01*
X129400000Y-144350000D01*
X129398796Y-144374504D01*
X129395196Y-144398773D01*
X129389235Y-144422571D01*
X129380970Y-144445671D01*
X129370480Y-144467849D01*
X129357867Y-144488893D01*
X129343253Y-144508598D01*
X129326777Y-144526777D01*
X129308598Y-144543253D01*
X129288893Y-144557867D01*
X129267849Y-144570480D01*
X129245671Y-144580970D01*
X129222571Y-144589235D01*
X129198773Y-144595196D01*
X129174504Y-144598796D01*
X129150000Y-144600000D01*
X128150000Y-144600000D01*
X128125496Y-144598796D01*
X128101227Y-144595196D01*
X128077429Y-144589235D01*
X128054329Y-144580970D01*
X128032151Y-144570480D01*
X128011107Y-144557867D01*
X127991402Y-144543253D01*
X127973223Y-144526777D01*
X127956747Y-144508598D01*
X127942133Y-144488893D01*
X127929520Y-144467849D01*
X127919030Y-144445671D01*
X127910765Y-144422571D01*
X127904804Y-144398773D01*
X127901204Y-144374504D01*
X127900000Y-144350000D01*
X127900000Y-141450000D01*
X127901204Y-141425496D01*
X127904804Y-141401227D01*
X127910765Y-141377429D01*
X127919030Y-141354329D01*
X127929520Y-141332151D01*
X127942133Y-141311107D01*
X127956747Y-141291402D01*
X127973223Y-141273223D01*
X127991402Y-141256747D01*
X128011107Y-141242133D01*
X128032151Y-141229520D01*
X128054329Y-141219030D01*
X128077429Y-141210765D01*
X128101227Y-141204804D01*
X128125496Y-141201204D01*
X128150000Y-141200000D01*
X129150000Y-141200000D01*
X129174504Y-141201204D01*
G37*
G04 #@! TD.AperFunction*
G04 #@! TA.AperFunction,SMDPad,CuDef*
G36*
X135874504Y-141201204D02*
G01*
X135898773Y-141204804D01*
X135922571Y-141210765D01*
X135945671Y-141219030D01*
X135967849Y-141229520D01*
X135988893Y-141242133D01*
X136008598Y-141256747D01*
X136026777Y-141273223D01*
X136043253Y-141291402D01*
X136057867Y-141311107D01*
X136070480Y-141332151D01*
X136080970Y-141354329D01*
X136089235Y-141377429D01*
X136095196Y-141401227D01*
X136098796Y-141425496D01*
X136100000Y-141450000D01*
X136100000Y-144350000D01*
X136098796Y-144374504D01*
X136095196Y-144398773D01*
X136089235Y-144422571D01*
X136080970Y-144445671D01*
X136070480Y-144467849D01*
X136057867Y-144488893D01*
X136043253Y-144508598D01*
X136026777Y-144526777D01*
X136008598Y-144543253D01*
X135988893Y-144557867D01*
X135967849Y-144570480D01*
X135945671Y-144580970D01*
X135922571Y-144589235D01*
X135898773Y-144595196D01*
X135874504Y-144598796D01*
X135850000Y-144600000D01*
X134850000Y-144600000D01*
X134825496Y-144598796D01*
X134801227Y-144595196D01*
X134777429Y-144589235D01*
X134754329Y-144580970D01*
X134732151Y-144570480D01*
X134711107Y-144557867D01*
X134691402Y-144543253D01*
X134673223Y-144526777D01*
X134656747Y-144508598D01*
X134642133Y-144488893D01*
X134629520Y-144467849D01*
X134619030Y-144445671D01*
X134610765Y-144422571D01*
X134604804Y-144398773D01*
X134601204Y-144374504D01*
X134600000Y-144350000D01*
X134600000Y-141450000D01*
X134601204Y-141425496D01*
X134604804Y-141401227D01*
X134610765Y-141377429D01*
X134619030Y-141354329D01*
X134629520Y-141332151D01*
X134642133Y-141311107D01*
X134656747Y-141291402D01*
X134673223Y-141273223D01*
X134691402Y-141256747D01*
X134711107Y-141242133D01*
X134732151Y-141229520D01*
X134754329Y-141219030D01*
X134777429Y-141210765D01*
X134801227Y-141204804D01*
X134825496Y-141201204D01*
X134850000Y-141200000D01*
X135850000Y-141200000D01*
X135874504Y-141201204D01*
G37*
G04 #@! TD.AperFunction*
G04 #@! TA.AperFunction,SMDPad,CuDef*
G36*
X131274504Y-135401204D02*
G01*
X131298773Y-135404804D01*
X131322571Y-135410765D01*
X131345671Y-135419030D01*
X131367849Y-135429520D01*
X131388893Y-135442133D01*
X131408598Y-135456747D01*
X131426777Y-135473223D01*
X131443253Y-135491402D01*
X131457867Y-135511107D01*
X131470480Y-135532151D01*
X131480970Y-135554329D01*
X131489235Y-135577429D01*
X131495196Y-135601227D01*
X131498796Y-135625496D01*
X131500000Y-135650000D01*
X131500000Y-138650000D01*
X131498796Y-138674504D01*
X131495196Y-138698773D01*
X131489235Y-138722571D01*
X131480970Y-138745671D01*
X131470480Y-138767849D01*
X131457867Y-138788893D01*
X131443253Y-138808598D01*
X131426777Y-138826777D01*
X131408598Y-138843253D01*
X131388893Y-138857867D01*
X131367849Y-138870480D01*
X131345671Y-138880970D01*
X131322571Y-138889235D01*
X131298773Y-138895196D01*
X131274504Y-138898796D01*
X131250000Y-138900000D01*
X130750000Y-138900000D01*
X130725496Y-138898796D01*
X130701227Y-138895196D01*
X130677429Y-138889235D01*
X130654329Y-138880970D01*
X130632151Y-138870480D01*
X130611107Y-138857867D01*
X130591402Y-138843253D01*
X130573223Y-138826777D01*
X130556747Y-138808598D01*
X130542133Y-138788893D01*
X130529520Y-138767849D01*
X130519030Y-138745671D01*
X130510765Y-138722571D01*
X130504804Y-138698773D01*
X130501204Y-138674504D01*
X130500000Y-138650000D01*
X130500000Y-135650000D01*
X130501204Y-135625496D01*
X130504804Y-135601227D01*
X130510765Y-135577429D01*
X130519030Y-135554329D01*
X130529520Y-135532151D01*
X130542133Y-135511107D01*
X130556747Y-135491402D01*
X130573223Y-135473223D01*
X130591402Y-135456747D01*
X130611107Y-135442133D01*
X130632151Y-135429520D01*
X130654329Y-135419030D01*
X130677429Y-135410765D01*
X130701227Y-135404804D01*
X130725496Y-135401204D01*
X130750000Y-135400000D01*
X131250000Y-135400000D01*
X131274504Y-135401204D01*
G37*
G04 #@! TD.AperFunction*
G04 #@! TA.AperFunction,SMDPad,CuDef*
G36*
X133274504Y-135401204D02*
G01*
X133298773Y-135404804D01*
X133322571Y-135410765D01*
X133345671Y-135419030D01*
X133367849Y-135429520D01*
X133388893Y-135442133D01*
X133408598Y-135456747D01*
X133426777Y-135473223D01*
X133443253Y-135491402D01*
X133457867Y-135511107D01*
X133470480Y-135532151D01*
X133480970Y-135554329D01*
X133489235Y-135577429D01*
X133495196Y-135601227D01*
X133498796Y-135625496D01*
X133500000Y-135650000D01*
X133500000Y-138650000D01*
X133498796Y-138674504D01*
X133495196Y-138698773D01*
X133489235Y-138722571D01*
X133480970Y-138745671D01*
X133470480Y-138767849D01*
X133457867Y-138788893D01*
X133443253Y-138808598D01*
X133426777Y-138826777D01*
X133408598Y-138843253D01*
X133388893Y-138857867D01*
X133367849Y-138870480D01*
X133345671Y-138880970D01*
X133322571Y-138889235D01*
X133298773Y-138895196D01*
X133274504Y-138898796D01*
X133250000Y-138900000D01*
X132750000Y-138900000D01*
X132725496Y-138898796D01*
X132701227Y-138895196D01*
X132677429Y-138889235D01*
X132654329Y-138880970D01*
X132632151Y-138870480D01*
X132611107Y-138857867D01*
X132591402Y-138843253D01*
X132573223Y-138826777D01*
X132556747Y-138808598D01*
X132542133Y-138788893D01*
X132529520Y-138767849D01*
X132519030Y-138745671D01*
X132510765Y-138722571D01*
X132504804Y-138698773D01*
X132501204Y-138674504D01*
X132500000Y-138650000D01*
X132500000Y-135650000D01*
X132501204Y-135625496D01*
X132504804Y-135601227D01*
X132510765Y-135577429D01*
X132519030Y-135554329D01*
X132529520Y-135532151D01*
X132542133Y-135511107D01*
X132556747Y-135491402D01*
X132573223Y-135473223D01*
X132591402Y-135456747D01*
X132611107Y-135442133D01*
X132632151Y-135429520D01*
X132654329Y-135419030D01*
X132677429Y-135410765D01*
X132701227Y-135404804D01*
X132725496Y-135401204D01*
X132750000Y-135400000D01*
X133250000Y-135400000D01*
X133274504Y-135401204D01*
G37*
G04 #@! TD.AperFunction*
D11*
X140560000Y-127600000D03*
D12*
X143100000Y-127600000D03*
D11*
X89180000Y-142400000D03*
X86640000Y-142400000D03*
D12*
X84100000Y-142400000D03*
D11*
X74940000Y-142300000D03*
X72400000Y-142300000D03*
D12*
X69860000Y-142300000D03*
D13*
X129900000Y-110600000D03*
X129900000Y-118200000D03*
X129900000Y-107200000D03*
X129900000Y-121700000D03*
X152800000Y-107500000D03*
X152800000Y-121700000D03*
D11*
X122360000Y-142300000D03*
X119820000Y-142300000D03*
X117280000Y-142300000D03*
X114740000Y-142300000D03*
X112200000Y-142300000D03*
X109660000Y-142300000D03*
X107120000Y-142300000D03*
X104580000Y-142300000D03*
X102040000Y-142300000D03*
D12*
X99500000Y-142300000D03*
G04 #@! TA.AperFunction,SMDPad,CuDef*
D10*
G36*
X123149398Y-139650000D02*
G01*
X123149398Y-139674534D01*
X123144588Y-139723365D01*
X123135016Y-139771490D01*
X123120772Y-139818445D01*
X123101995Y-139863778D01*
X123078864Y-139907051D01*
X123051604Y-139947850D01*
X123020476Y-139985779D01*
X122985779Y-140020476D01*
X122947850Y-140051604D01*
X122907051Y-140078864D01*
X122863778Y-140101995D01*
X122818445Y-140120772D01*
X122771490Y-140135016D01*
X122723365Y-140144588D01*
X122674534Y-140149398D01*
X122650000Y-140149398D01*
X122650000Y-140150000D01*
X122150000Y-140150000D01*
X122150000Y-140149398D01*
X122125466Y-140149398D01*
X122076635Y-140144588D01*
X122028510Y-140135016D01*
X121981555Y-140120772D01*
X121936222Y-140101995D01*
X121892949Y-140078864D01*
X121852150Y-140051604D01*
X121814221Y-140020476D01*
X121779524Y-139985779D01*
X121748396Y-139947850D01*
X121721136Y-139907051D01*
X121698005Y-139863778D01*
X121679228Y-139818445D01*
X121664984Y-139771490D01*
X121655412Y-139723365D01*
X121650602Y-139674534D01*
X121650602Y-139650000D01*
X121650000Y-139650000D01*
X121650000Y-139150000D01*
X123150000Y-139150000D01*
X123150000Y-139650000D01*
X123149398Y-139650000D01*
G37*
G04 #@! TD.AperFunction*
G04 #@! TA.AperFunction,SMDPad,CuDef*
G36*
X121650000Y-138850000D02*
G01*
X121650000Y-138350000D01*
X121650602Y-138350000D01*
X121650602Y-138325466D01*
X121655412Y-138276635D01*
X121664984Y-138228510D01*
X121679228Y-138181555D01*
X121698005Y-138136222D01*
X121721136Y-138092949D01*
X121748396Y-138052150D01*
X121779524Y-138014221D01*
X121814221Y-137979524D01*
X121852150Y-137948396D01*
X121892949Y-137921136D01*
X121936222Y-137898005D01*
X121981555Y-137879228D01*
X122028510Y-137864984D01*
X122076635Y-137855412D01*
X122125466Y-137850602D01*
X122150000Y-137850602D01*
X122150000Y-137850000D01*
X122650000Y-137850000D01*
X122650000Y-137850602D01*
X122674534Y-137850602D01*
X122723365Y-137855412D01*
X122771490Y-137864984D01*
X122818445Y-137879228D01*
X122863778Y-137898005D01*
X122907051Y-137921136D01*
X122947850Y-137948396D01*
X122985779Y-137979524D01*
X123020476Y-138014221D01*
X123051604Y-138052150D01*
X123078864Y-138092949D01*
X123101995Y-138136222D01*
X123120772Y-138181555D01*
X123135016Y-138228510D01*
X123144588Y-138276635D01*
X123149398Y-138325466D01*
X123149398Y-138350000D01*
X123150000Y-138350000D01*
X123150000Y-138850000D01*
X121650000Y-138850000D01*
G37*
G04 #@! TD.AperFunction*
G04 #@! TA.AperFunction,SMDPad,CuDef*
G36*
X120449398Y-139650000D02*
G01*
X120449398Y-139674534D01*
X120444588Y-139723365D01*
X120435016Y-139771490D01*
X120420772Y-139818445D01*
X120401995Y-139863778D01*
X120378864Y-139907051D01*
X120351604Y-139947850D01*
X120320476Y-139985779D01*
X120285779Y-140020476D01*
X120247850Y-140051604D01*
X120207051Y-140078864D01*
X120163778Y-140101995D01*
X120118445Y-140120772D01*
X120071490Y-140135016D01*
X120023365Y-140144588D01*
X119974534Y-140149398D01*
X119950000Y-140149398D01*
X119950000Y-140150000D01*
X119450000Y-140150000D01*
X119450000Y-140149398D01*
X119425466Y-140149398D01*
X119376635Y-140144588D01*
X119328510Y-140135016D01*
X119281555Y-140120772D01*
X119236222Y-140101995D01*
X119192949Y-140078864D01*
X119152150Y-140051604D01*
X119114221Y-140020476D01*
X119079524Y-139985779D01*
X119048396Y-139947850D01*
X119021136Y-139907051D01*
X118998005Y-139863778D01*
X118979228Y-139818445D01*
X118964984Y-139771490D01*
X118955412Y-139723365D01*
X118950602Y-139674534D01*
X118950602Y-139650000D01*
X118950000Y-139650000D01*
X118950000Y-139150000D01*
X120450000Y-139150000D01*
X120450000Y-139650000D01*
X120449398Y-139650000D01*
G37*
G04 #@! TD.AperFunction*
G04 #@! TA.AperFunction,SMDPad,CuDef*
G36*
X118950000Y-138850000D02*
G01*
X118950000Y-138350000D01*
X118950602Y-138350000D01*
X118950602Y-138325466D01*
X118955412Y-138276635D01*
X118964984Y-138228510D01*
X118979228Y-138181555D01*
X118998005Y-138136222D01*
X119021136Y-138092949D01*
X119048396Y-138052150D01*
X119079524Y-138014221D01*
X119114221Y-137979524D01*
X119152150Y-137948396D01*
X119192949Y-137921136D01*
X119236222Y-137898005D01*
X119281555Y-137879228D01*
X119328510Y-137864984D01*
X119376635Y-137855412D01*
X119425466Y-137850602D01*
X119450000Y-137850602D01*
X119450000Y-137850000D01*
X119950000Y-137850000D01*
X119950000Y-137850602D01*
X119974534Y-137850602D01*
X120023365Y-137855412D01*
X120071490Y-137864984D01*
X120118445Y-137879228D01*
X120163778Y-137898005D01*
X120207051Y-137921136D01*
X120247850Y-137948396D01*
X120285779Y-137979524D01*
X120320476Y-138014221D01*
X120351604Y-138052150D01*
X120378864Y-138092949D01*
X120401995Y-138136222D01*
X120420772Y-138181555D01*
X120435016Y-138228510D01*
X120444588Y-138276635D01*
X120449398Y-138325466D01*
X120449398Y-138350000D01*
X120450000Y-138350000D01*
X120450000Y-138850000D01*
X118950000Y-138850000D01*
G37*
G04 #@! TD.AperFunction*
G04 #@! TA.AperFunction,SMDPad,CuDef*
G36*
X117649398Y-139650000D02*
G01*
X117649398Y-139674534D01*
X117644588Y-139723365D01*
X117635016Y-139771490D01*
X117620772Y-139818445D01*
X117601995Y-139863778D01*
X117578864Y-139907051D01*
X117551604Y-139947850D01*
X117520476Y-139985779D01*
X117485779Y-140020476D01*
X117447850Y-140051604D01*
X117407051Y-140078864D01*
X117363778Y-140101995D01*
X117318445Y-140120772D01*
X117271490Y-140135016D01*
X117223365Y-140144588D01*
X117174534Y-140149398D01*
X117150000Y-140149398D01*
X117150000Y-140150000D01*
X116650000Y-140150000D01*
X116650000Y-140149398D01*
X116625466Y-140149398D01*
X116576635Y-140144588D01*
X116528510Y-140135016D01*
X116481555Y-140120772D01*
X116436222Y-140101995D01*
X116392949Y-140078864D01*
X116352150Y-140051604D01*
X116314221Y-140020476D01*
X116279524Y-139985779D01*
X116248396Y-139947850D01*
X116221136Y-139907051D01*
X116198005Y-139863778D01*
X116179228Y-139818445D01*
X116164984Y-139771490D01*
X116155412Y-139723365D01*
X116150602Y-139674534D01*
X116150602Y-139650000D01*
X116150000Y-139650000D01*
X116150000Y-139150000D01*
X117650000Y-139150000D01*
X117650000Y-139650000D01*
X117649398Y-139650000D01*
G37*
G04 #@! TD.AperFunction*
G04 #@! TA.AperFunction,SMDPad,CuDef*
G36*
X116150000Y-138850000D02*
G01*
X116150000Y-138350000D01*
X116150602Y-138350000D01*
X116150602Y-138325466D01*
X116155412Y-138276635D01*
X116164984Y-138228510D01*
X116179228Y-138181555D01*
X116198005Y-138136222D01*
X116221136Y-138092949D01*
X116248396Y-138052150D01*
X116279524Y-138014221D01*
X116314221Y-137979524D01*
X116352150Y-137948396D01*
X116392949Y-137921136D01*
X116436222Y-137898005D01*
X116481555Y-137879228D01*
X116528510Y-137864984D01*
X116576635Y-137855412D01*
X116625466Y-137850602D01*
X116650000Y-137850602D01*
X116650000Y-137850000D01*
X117150000Y-137850000D01*
X117150000Y-137850602D01*
X117174534Y-137850602D01*
X117223365Y-137855412D01*
X117271490Y-137864984D01*
X117318445Y-137879228D01*
X117363778Y-137898005D01*
X117407051Y-137921136D01*
X117447850Y-137948396D01*
X117485779Y-137979524D01*
X117520476Y-138014221D01*
X117551604Y-138052150D01*
X117578864Y-138092949D01*
X117601995Y-138136222D01*
X117620772Y-138181555D01*
X117635016Y-138228510D01*
X117644588Y-138276635D01*
X117649398Y-138325466D01*
X117649398Y-138350000D01*
X117650000Y-138350000D01*
X117650000Y-138850000D01*
X116150000Y-138850000D01*
G37*
G04 #@! TD.AperFunction*
G04 #@! TA.AperFunction,SMDPad,CuDef*
G36*
X114849398Y-139650000D02*
G01*
X114849398Y-139674534D01*
X114844588Y-139723365D01*
X114835016Y-139771490D01*
X114820772Y-139818445D01*
X114801995Y-139863778D01*
X114778864Y-139907051D01*
X114751604Y-139947850D01*
X114720476Y-139985779D01*
X114685779Y-140020476D01*
X114647850Y-140051604D01*
X114607051Y-140078864D01*
X114563778Y-140101995D01*
X114518445Y-140120772D01*
X114471490Y-140135016D01*
X114423365Y-140144588D01*
X114374534Y-140149398D01*
X114350000Y-140149398D01*
X114350000Y-140150000D01*
X113850000Y-140150000D01*
X113850000Y-140149398D01*
X113825466Y-140149398D01*
X113776635Y-140144588D01*
X113728510Y-140135016D01*
X113681555Y-140120772D01*
X113636222Y-140101995D01*
X113592949Y-140078864D01*
X113552150Y-140051604D01*
X113514221Y-140020476D01*
X113479524Y-139985779D01*
X113448396Y-139947850D01*
X113421136Y-139907051D01*
X113398005Y-139863778D01*
X113379228Y-139818445D01*
X113364984Y-139771490D01*
X113355412Y-139723365D01*
X113350602Y-139674534D01*
X113350602Y-139650000D01*
X113350000Y-139650000D01*
X113350000Y-139150000D01*
X114850000Y-139150000D01*
X114850000Y-139650000D01*
X114849398Y-139650000D01*
G37*
G04 #@! TD.AperFunction*
G04 #@! TA.AperFunction,SMDPad,CuDef*
G36*
X113350000Y-138850000D02*
G01*
X113350000Y-138350000D01*
X113350602Y-138350000D01*
X113350602Y-138325466D01*
X113355412Y-138276635D01*
X113364984Y-138228510D01*
X113379228Y-138181555D01*
X113398005Y-138136222D01*
X113421136Y-138092949D01*
X113448396Y-138052150D01*
X113479524Y-138014221D01*
X113514221Y-137979524D01*
X113552150Y-137948396D01*
X113592949Y-137921136D01*
X113636222Y-137898005D01*
X113681555Y-137879228D01*
X113728510Y-137864984D01*
X113776635Y-137855412D01*
X113825466Y-137850602D01*
X113850000Y-137850602D01*
X113850000Y-137850000D01*
X114350000Y-137850000D01*
X114350000Y-137850602D01*
X114374534Y-137850602D01*
X114423365Y-137855412D01*
X114471490Y-137864984D01*
X114518445Y-137879228D01*
X114563778Y-137898005D01*
X114607051Y-137921136D01*
X114647850Y-137948396D01*
X114685779Y-137979524D01*
X114720476Y-138014221D01*
X114751604Y-138052150D01*
X114778864Y-138092949D01*
X114801995Y-138136222D01*
X114820772Y-138181555D01*
X114835016Y-138228510D01*
X114844588Y-138276635D01*
X114849398Y-138325466D01*
X114849398Y-138350000D01*
X114850000Y-138350000D01*
X114850000Y-138850000D01*
X113350000Y-138850000D01*
G37*
G04 #@! TD.AperFunction*
G04 #@! TA.AperFunction,SMDPad,CuDef*
G36*
X112049398Y-139650000D02*
G01*
X112049398Y-139674534D01*
X112044588Y-139723365D01*
X112035016Y-139771490D01*
X112020772Y-139818445D01*
X112001995Y-139863778D01*
X111978864Y-139907051D01*
X111951604Y-139947850D01*
X111920476Y-139985779D01*
X111885779Y-140020476D01*
X111847850Y-140051604D01*
X111807051Y-140078864D01*
X111763778Y-140101995D01*
X111718445Y-140120772D01*
X111671490Y-140135016D01*
X111623365Y-140144588D01*
X111574534Y-140149398D01*
X111550000Y-140149398D01*
X111550000Y-140150000D01*
X111050000Y-140150000D01*
X111050000Y-140149398D01*
X111025466Y-140149398D01*
X110976635Y-140144588D01*
X110928510Y-140135016D01*
X110881555Y-140120772D01*
X110836222Y-140101995D01*
X110792949Y-140078864D01*
X110752150Y-140051604D01*
X110714221Y-140020476D01*
X110679524Y-139985779D01*
X110648396Y-139947850D01*
X110621136Y-139907051D01*
X110598005Y-139863778D01*
X110579228Y-139818445D01*
X110564984Y-139771490D01*
X110555412Y-139723365D01*
X110550602Y-139674534D01*
X110550602Y-139650000D01*
X110550000Y-139650000D01*
X110550000Y-139150000D01*
X112050000Y-139150000D01*
X112050000Y-139650000D01*
X112049398Y-139650000D01*
G37*
G04 #@! TD.AperFunction*
G04 #@! TA.AperFunction,SMDPad,CuDef*
G36*
X110550000Y-138850000D02*
G01*
X110550000Y-138350000D01*
X110550602Y-138350000D01*
X110550602Y-138325466D01*
X110555412Y-138276635D01*
X110564984Y-138228510D01*
X110579228Y-138181555D01*
X110598005Y-138136222D01*
X110621136Y-138092949D01*
X110648396Y-138052150D01*
X110679524Y-138014221D01*
X110714221Y-137979524D01*
X110752150Y-137948396D01*
X110792949Y-137921136D01*
X110836222Y-137898005D01*
X110881555Y-137879228D01*
X110928510Y-137864984D01*
X110976635Y-137855412D01*
X111025466Y-137850602D01*
X111050000Y-137850602D01*
X111050000Y-137850000D01*
X111550000Y-137850000D01*
X111550000Y-137850602D01*
X111574534Y-137850602D01*
X111623365Y-137855412D01*
X111671490Y-137864984D01*
X111718445Y-137879228D01*
X111763778Y-137898005D01*
X111807051Y-137921136D01*
X111847850Y-137948396D01*
X111885779Y-137979524D01*
X111920476Y-138014221D01*
X111951604Y-138052150D01*
X111978864Y-138092949D01*
X112001995Y-138136222D01*
X112020772Y-138181555D01*
X112035016Y-138228510D01*
X112044588Y-138276635D01*
X112049398Y-138325466D01*
X112049398Y-138350000D01*
X112050000Y-138350000D01*
X112050000Y-138850000D01*
X110550000Y-138850000D01*
G37*
G04 #@! TD.AperFunction*
D14*
X151697056Y-138302944D03*
X150000000Y-137600000D03*
X148302944Y-138302944D03*
X147600000Y-140000000D03*
X148302944Y-141697056D03*
X150000000Y-142400000D03*
X151697056Y-141697056D03*
X152400000Y-140000000D03*
D15*
X150000000Y-140000000D03*
D14*
X151697056Y-78302944D03*
X150000000Y-77600000D03*
X148302944Y-78302944D03*
X147600000Y-80000000D03*
X148302944Y-81697056D03*
X150000000Y-82400000D03*
X151697056Y-81697056D03*
X152400000Y-80000000D03*
D15*
X150000000Y-80000000D03*
D14*
X61697056Y-78302944D03*
X60000000Y-77600000D03*
X58302944Y-78302944D03*
X57600000Y-80000000D03*
X58302944Y-81697056D03*
X60000000Y-82400000D03*
X61697056Y-81697056D03*
X62400000Y-80000000D03*
D15*
X60000000Y-80000000D03*
D14*
X61697056Y-138302944D03*
X60000000Y-137600000D03*
X58302944Y-138302944D03*
X57600000Y-140000000D03*
X58302944Y-141697056D03*
X60000000Y-142400000D03*
X61697056Y-141697056D03*
X62400000Y-140000000D03*
D15*
X60000000Y-140000000D03*
D16*
X132000000Y-126000000D03*
D17*
X60000000Y-126000000D03*
D16*
X132000000Y-103000000D03*
D17*
X60000000Y-103000000D03*
D11*
X119700000Y-79000000D03*
X117160000Y-79000000D03*
X114620000Y-79000000D03*
X112080000Y-79000000D03*
X109540000Y-79000000D03*
D12*
X107000000Y-79000000D03*
D18*
X125600000Y-81200000D03*
X102400000Y-88700000D03*
X98300000Y-88700000D03*
X102400000Y-81900002D03*
D14*
X65200000Y-114150000D03*
X65200000Y-115500000D03*
X65200000Y-110650000D03*
X65200000Y-112000000D03*
X66400000Y-107600000D03*
X66400000Y-108800000D03*
X66300000Y-76050000D03*
X65000000Y-76050000D03*
X66300000Y-77400000D03*
X65000000Y-77400000D03*
X87700000Y-77300000D03*
X89000000Y-77300000D03*
X87700000Y-75950000D03*
X89000000Y-75950000D03*
X137300000Y-130300000D03*
X138650000Y-130300000D03*
X138400000Y-140100000D03*
X144000000Y-100550000D03*
X144000000Y-101550000D03*
X148400000Y-101550000D03*
X148400000Y-100550000D03*
X147300000Y-101550000D03*
X147300000Y-100550000D03*
X145100000Y-101550000D03*
X145100000Y-100550000D03*
X146200000Y-101550000D03*
X146200000Y-100550000D03*
D18*
X110350000Y-124550000D03*
X111850000Y-121850000D03*
X110350000Y-125550000D03*
X110950000Y-120850000D03*
X110950000Y-121850000D03*
X110350000Y-123550000D03*
X115850000Y-124550000D03*
X117350000Y-121850000D03*
X115850000Y-125550000D03*
X116450000Y-120850000D03*
X116450000Y-121850000D03*
X115850000Y-123550000D03*
X93850000Y-124550000D03*
X95350000Y-121850000D03*
X93850000Y-125550000D03*
X94450000Y-120850000D03*
X94450000Y-121850000D03*
X93850000Y-123550000D03*
X99350000Y-124550000D03*
X100850000Y-121850000D03*
X99350000Y-125550000D03*
X99950000Y-120850000D03*
X99950000Y-121850000D03*
X99350000Y-123550000D03*
X104850000Y-125550000D03*
X104850000Y-124550000D03*
X104850000Y-123550000D03*
X106350000Y-121850000D03*
X105450000Y-121850000D03*
X105450000Y-120850000D03*
D14*
X138400000Y-139100000D03*
X138400000Y-141200000D03*
X137300000Y-131300000D03*
X138650000Y-131300000D03*
X88450000Y-133350000D03*
X123500000Y-76000000D03*
X134000000Y-76000000D03*
X94500000Y-88500000D03*
D18*
X120700000Y-115500000D03*
X133400000Y-99000000D03*
X128800000Y-98800000D03*
D14*
X66600000Y-140300000D03*
X67300000Y-138500000D03*
X80100000Y-140000000D03*
X79100000Y-133400000D03*
D18*
X75700000Y-109700000D03*
X82600000Y-109700000D03*
X125600000Y-116200000D03*
X56100000Y-90700000D03*
X55900000Y-84600000D03*
D14*
X66200000Y-96800000D03*
X132300000Y-76000000D03*
X90500000Y-83750000D03*
X96500000Y-83750000D03*
X90000000Y-82750000D03*
X96500000Y-82500000D03*
X147000000Y-136000000D03*
X94400000Y-79000000D03*
D18*
X150000000Y-119000000D03*
D14*
X146100000Y-84400000D03*
X89000000Y-87200000D03*
X89800000Y-88600000D03*
D18*
X132500000Y-80000000D03*
X73500000Y-80900000D03*
X76500000Y-99800000D03*
X111300000Y-99300000D03*
X79000000Y-100600000D03*
X112100000Y-100700000D03*
X112100000Y-102200000D03*
X75300000Y-101200000D03*
X78200000Y-101400000D03*
X113500000Y-100000000D03*
X120700000Y-106400000D03*
X72100000Y-105300000D03*
D14*
X129700000Y-135900000D03*
X129700000Y-138000000D03*
X129700000Y-136900000D03*
D18*
X126600000Y-105500000D03*
X72900000Y-104000000D03*
X96950000Y-124750000D03*
X102400000Y-124700000D03*
X107950000Y-124750000D03*
X113450000Y-124750000D03*
X118950000Y-124850000D03*
D14*
X89300000Y-138300000D03*
X102100000Y-136700000D03*
X101900000Y-134300000D03*
D18*
X73900000Y-127100000D03*
X92000000Y-127100000D03*
X82800000Y-103100000D03*
X96500000Y-103000000D03*
X98100000Y-98900000D03*
X86200000Y-97800000D03*
X87700000Y-96000000D03*
X99100000Y-104700000D03*
X87700000Y-104700000D03*
X88400000Y-94700000D03*
X100200000Y-94700000D03*
X88300000Y-93400000D03*
X101400000Y-93400000D03*
D14*
X147300000Y-132800000D03*
X137900000Y-135900000D03*
D19*
X102400000Y-88700000D02*
X98300000Y-88700000D01*
X125600000Y-81200000D02*
X124899998Y-81900002D01*
X124899998Y-81900002D02*
X102824264Y-81900002D01*
X102824264Y-81900002D02*
X102400000Y-81900002D01*
D20*
X90500000Y-83750000D02*
X96500000Y-83750000D01*
X96250000Y-82750000D02*
X96500000Y-82500000D01*
X90000000Y-82750000D02*
X96250000Y-82750000D01*
D21*
X147000000Y-136000000D02*
X148800000Y-134200000D01*
X148800000Y-134200000D02*
X150000000Y-133000000D01*
X107000000Y-79000000D02*
X94400000Y-79000000D01*
X150000000Y-133000000D02*
X150000000Y-123600000D01*
X150000000Y-119000000D02*
X150000000Y-123600000D01*
X107450000Y-77300000D02*
X143600000Y-77300000D01*
X107000000Y-77750000D02*
X107450000Y-77300000D01*
X107000000Y-79000000D02*
X107000000Y-77750000D01*
X143600000Y-77300000D02*
X144500000Y-77300000D01*
X146100000Y-78900000D02*
X146100000Y-84400000D01*
X144500000Y-77300000D02*
X146100000Y-78900000D01*
D20*
X125874998Y-80000000D02*
X132500000Y-80000000D01*
X124974999Y-80899999D02*
X125874998Y-80000000D01*
X73500000Y-80900000D02*
X124974999Y-80899999D01*
X76500000Y-99800000D02*
X92400000Y-99800000D01*
X92400000Y-99800000D02*
X107700000Y-99800000D01*
X110800000Y-99800000D02*
X111300000Y-99300000D01*
X107700000Y-99800000D02*
X110800000Y-99800000D01*
X112000000Y-100600000D02*
X112100000Y-100700000D01*
X79000000Y-100600000D02*
X112000000Y-100600000D01*
X112100000Y-102200000D02*
X102100000Y-102200000D01*
X102100000Y-102200000D02*
X76300000Y-102200000D01*
X76300000Y-102200000D02*
X75300000Y-101200000D01*
X78200000Y-101400000D02*
X112325002Y-101400000D01*
X112325002Y-101400000D02*
X112700000Y-101400000D01*
X112700000Y-101400000D02*
X113500000Y-100600000D01*
X113500000Y-100600000D02*
X113500000Y-100000000D01*
D19*
X73200000Y-106400000D02*
X72100000Y-105300000D01*
X120700000Y-106400000D02*
X73200000Y-106400000D01*
X112700000Y-105500000D02*
X126600000Y-105500000D01*
X74400000Y-105500000D02*
X112700000Y-105500000D01*
X72900000Y-104000000D02*
X74400000Y-105500000D01*
D20*
X117330000Y-140080000D02*
X116900000Y-139650000D01*
X117280000Y-140030000D02*
X116900000Y-139650000D01*
X117280000Y-142300000D02*
X117280000Y-140030000D01*
X114740000Y-140290000D02*
X114100000Y-139650000D01*
X114740000Y-142300000D02*
X114740000Y-140290000D01*
X112200000Y-140550000D02*
X111300000Y-139650000D01*
X112200000Y-142300000D02*
X112200000Y-140550000D01*
X97000000Y-129200000D02*
X96950000Y-129150000D01*
X96950000Y-129150000D02*
X96950000Y-125174264D01*
X96950000Y-125174264D02*
X96950000Y-124750000D01*
X105200000Y-130800000D02*
X98500000Y-130800000D01*
X98500000Y-130800000D02*
X96900000Y-129200000D01*
X111300000Y-136900000D02*
X105200000Y-130800000D01*
X111300000Y-138350000D02*
X111300000Y-136900000D01*
X102400000Y-128100000D02*
X102400000Y-124700000D01*
X103700000Y-129400000D02*
X102400000Y-128100000D01*
X107900000Y-129400000D02*
X103700000Y-129400000D01*
X111600000Y-133100000D02*
X107900000Y-129400000D01*
X114100000Y-135600000D02*
X111600000Y-133100000D01*
X114100000Y-138350000D02*
X114100000Y-135600000D01*
X107950000Y-127450000D02*
X107950000Y-125174264D01*
X109700000Y-129200000D02*
X107950000Y-127450000D01*
X107950000Y-125174264D02*
X107950000Y-124750000D01*
X116900000Y-137100000D02*
X115200000Y-135400000D01*
X112200000Y-129200000D02*
X109700000Y-129200000D01*
X115200000Y-135400000D02*
X115200000Y-132200000D01*
X115200000Y-132200000D02*
X112200000Y-129200000D01*
X116900000Y-138350000D02*
X116900000Y-137100000D01*
X119870000Y-139820000D02*
X119700000Y-139650000D01*
X119820000Y-139770000D02*
X119700000Y-139650000D01*
X119820000Y-142300000D02*
X119820000Y-139770000D01*
X113450000Y-126350000D02*
X113450000Y-125174264D01*
X113450000Y-125174264D02*
X113450000Y-124750000D01*
X118750000Y-131650000D02*
X113450000Y-126350000D01*
X119700000Y-132600000D02*
X118750000Y-131650000D01*
X119700000Y-138350000D02*
X119700000Y-132600000D01*
X122410000Y-139660000D02*
X122400000Y-139650000D01*
X122360000Y-139690000D02*
X122400000Y-139650000D01*
X122360000Y-142300000D02*
X122360000Y-139690000D01*
X118950000Y-130150000D02*
X118950000Y-124850000D01*
X122400000Y-133600000D02*
X118950000Y-130150000D01*
X122400000Y-138350000D02*
X122400000Y-133600000D01*
D21*
X86950000Y-138300000D02*
X84100000Y-141150000D01*
X84100000Y-141150000D02*
X84100000Y-142400000D01*
X89300000Y-138300000D02*
X86950000Y-138300000D01*
X102100000Y-134500000D02*
X101900000Y-134300000D01*
X102100000Y-136700000D02*
X102100000Y-134500000D01*
D19*
X73900000Y-127100000D02*
X92000000Y-127100000D01*
X96400000Y-103100000D02*
X96500000Y-103000000D01*
X82800000Y-103100000D02*
X96400000Y-103100000D01*
X87300000Y-98900000D02*
X86200000Y-97800000D01*
X98100000Y-98900000D02*
X87300000Y-98900000D01*
X99100000Y-104700000D02*
X87700000Y-104700000D01*
X88400000Y-94700000D02*
X95900000Y-94700000D01*
X95900000Y-94700000D02*
X100200000Y-94700000D01*
X88300000Y-93400000D02*
X101400000Y-93400000D01*
D22*
X129900000Y-121700000D02*
X141700000Y-121700000D01*
X143100000Y-123100000D02*
X143100000Y-127600000D01*
X141700000Y-121700000D02*
X143100000Y-123100000D01*
D19*
X138000000Y-136000000D02*
X137900000Y-135900000D01*
X145500000Y-136000000D02*
X138000000Y-136000000D01*
X147300000Y-134200000D02*
X145500000Y-136000000D01*
X147300000Y-134200000D02*
X147300000Y-132800000D01*
D23*
G36*
X127278814Y-75819606D02*
G01*
X127354950Y-76003414D01*
X127465482Y-76168837D01*
X127606163Y-76309518D01*
X127771586Y-76420050D01*
X127880105Y-76465000D01*
X107491018Y-76465000D01*
X107449999Y-76460960D01*
X107408981Y-76465000D01*
X107286311Y-76477082D01*
X107128913Y-76524828D01*
X106983854Y-76602364D01*
X106856709Y-76706709D01*
X106830554Y-76738579D01*
X106438574Y-77130559D01*
X106406710Y-77156709D01*
X106336085Y-77242766D01*
X106302364Y-77283855D01*
X106224828Y-77428914D01*
X106199646Y-77511928D01*
X106150000Y-77511928D01*
X106025518Y-77524188D01*
X105905820Y-77560498D01*
X105795506Y-77619463D01*
X105698815Y-77698815D01*
X105619463Y-77795506D01*
X105560498Y-77905820D01*
X105524188Y-78025518D01*
X105511928Y-78150000D01*
X105511928Y-78165000D01*
X95013285Y-78165000D01*
X94890256Y-78082795D01*
X94701898Y-78004774D01*
X94501939Y-77965000D01*
X94298061Y-77965000D01*
X94098102Y-78004774D01*
X93909744Y-78082795D01*
X93740226Y-78196063D01*
X93596063Y-78340226D01*
X93482795Y-78509744D01*
X93404774Y-78698102D01*
X93365000Y-78898061D01*
X93365000Y-79101939D01*
X93404774Y-79301898D01*
X93482795Y-79490256D01*
X93596063Y-79659774D01*
X93740226Y-79803937D01*
X93909744Y-79917205D01*
X94098102Y-79995226D01*
X94298061Y-80035000D01*
X94501939Y-80035000D01*
X94701898Y-79995226D01*
X94890256Y-79917205D01*
X95013285Y-79835000D01*
X105511928Y-79835000D01*
X105511928Y-79850000D01*
X105524188Y-79974482D01*
X105560498Y-80094180D01*
X105584990Y-80140000D01*
X74045537Y-80140001D01*
X73942889Y-80071414D01*
X73772729Y-80000932D01*
X73592089Y-79965000D01*
X73407911Y-79965000D01*
X73227271Y-80000932D01*
X73057111Y-80071414D01*
X72903972Y-80173738D01*
X72773738Y-80303972D01*
X72671414Y-80457111D01*
X72600932Y-80627271D01*
X72565000Y-80807911D01*
X72565000Y-80992089D01*
X72600932Y-81172729D01*
X72671414Y-81342889D01*
X72773738Y-81496028D01*
X72903972Y-81626262D01*
X73057111Y-81728586D01*
X73227271Y-81799068D01*
X73407911Y-81835000D01*
X73592089Y-81835000D01*
X73772729Y-81799068D01*
X73942889Y-81728586D01*
X74045535Y-81660000D01*
X95894200Y-81659999D01*
X95840226Y-81696063D01*
X95696063Y-81840226D01*
X95595987Y-81990000D01*
X90703711Y-81990000D01*
X90659774Y-81946063D01*
X90490256Y-81832795D01*
X90301898Y-81754774D01*
X90101939Y-81715000D01*
X89898061Y-81715000D01*
X89698102Y-81754774D01*
X89509744Y-81832795D01*
X89340226Y-81946063D01*
X89196063Y-82090226D01*
X89082795Y-82259744D01*
X89004774Y-82448102D01*
X88965000Y-82648061D01*
X88965000Y-82851939D01*
X89004774Y-83051898D01*
X89082795Y-83240256D01*
X89196063Y-83409774D01*
X89340226Y-83553937D01*
X89466888Y-83638570D01*
X89465000Y-83648061D01*
X89465000Y-83851939D01*
X89504774Y-84051898D01*
X89582795Y-84240256D01*
X89696063Y-84409774D01*
X89840226Y-84553937D01*
X90009744Y-84667205D01*
X90198102Y-84745226D01*
X90398061Y-84785000D01*
X90601939Y-84785000D01*
X90801898Y-84745226D01*
X90990256Y-84667205D01*
X91159774Y-84553937D01*
X91203711Y-84510000D01*
X95796289Y-84510000D01*
X95840226Y-84553937D01*
X96009744Y-84667205D01*
X96198102Y-84745226D01*
X96398061Y-84785000D01*
X96601939Y-84785000D01*
X96801898Y-84745226D01*
X96990256Y-84667205D01*
X97159774Y-84553937D01*
X97303937Y-84409774D01*
X97417205Y-84240256D01*
X97495226Y-84051898D01*
X97535000Y-83851939D01*
X97535000Y-83648061D01*
X97495226Y-83448102D01*
X97417205Y-83259744D01*
X97327172Y-83125000D01*
X97417205Y-82990256D01*
X97495226Y-82801898D01*
X97535000Y-82601939D01*
X97535000Y-82398061D01*
X97495226Y-82198102D01*
X97417205Y-82009744D01*
X97303937Y-81840226D01*
X97159774Y-81696063D01*
X97105800Y-81659999D01*
X101494422Y-81659999D01*
X101465000Y-81807913D01*
X101465000Y-81992091D01*
X101500932Y-82172731D01*
X101571414Y-82342891D01*
X101673738Y-82496030D01*
X101803972Y-82626264D01*
X101957111Y-82728588D01*
X102127271Y-82799070D01*
X102307911Y-82835002D01*
X102492089Y-82835002D01*
X102672729Y-82799070D01*
X102842889Y-82728588D01*
X102908120Y-82685002D01*
X124861445Y-82685002D01*
X124899998Y-82688799D01*
X124938551Y-82685002D01*
X124938559Y-82685002D01*
X125053885Y-82673643D01*
X125201858Y-82628756D01*
X125338231Y-82555864D01*
X125457762Y-82457766D01*
X125482345Y-82427813D01*
X125795784Y-82114374D01*
X125872729Y-82099068D01*
X126042889Y-82028586D01*
X126196028Y-81926262D01*
X126326262Y-81796028D01*
X126428586Y-81642889D01*
X126499068Y-81472729D01*
X126535000Y-81292089D01*
X126535000Y-81107911D01*
X126499068Y-80927271D01*
X126429783Y-80760000D01*
X131954465Y-80760000D01*
X132057111Y-80828586D01*
X132227271Y-80899068D01*
X132407911Y-80935000D01*
X132592089Y-80935000D01*
X132772729Y-80899068D01*
X132942889Y-80828586D01*
X133096028Y-80726262D01*
X133226262Y-80596028D01*
X133328586Y-80442889D01*
X133399068Y-80272729D01*
X133435000Y-80092089D01*
X133435000Y-79907911D01*
X133399068Y-79727271D01*
X133328586Y-79557111D01*
X133226262Y-79403972D01*
X133096028Y-79273738D01*
X132942889Y-79171414D01*
X132772729Y-79100932D01*
X132592089Y-79065000D01*
X132407911Y-79065000D01*
X132227271Y-79100932D01*
X132057111Y-79171414D01*
X131954465Y-79240000D01*
X128559540Y-79240000D01*
X128728414Y-79170050D01*
X128893837Y-79059518D01*
X129034518Y-78918837D01*
X129145050Y-78753414D01*
X129221186Y-78569606D01*
X129260000Y-78374476D01*
X129260000Y-78175524D01*
X129251939Y-78135000D01*
X137448061Y-78135000D01*
X137440000Y-78175524D01*
X137440000Y-78374476D01*
X137478814Y-78569606D01*
X137554950Y-78753414D01*
X137665482Y-78918837D01*
X137806163Y-79059518D01*
X137971586Y-79170050D01*
X138155394Y-79246186D01*
X138350524Y-79285000D01*
X138549476Y-79285000D01*
X138744606Y-79246186D01*
X138928414Y-79170050D01*
X139093837Y-79059518D01*
X139234518Y-78918837D01*
X139345050Y-78753414D01*
X139421186Y-78569606D01*
X139460000Y-78374476D01*
X139460000Y-78175524D01*
X139451939Y-78135000D01*
X144154133Y-78135000D01*
X145265000Y-79245869D01*
X145265001Y-83786714D01*
X145182795Y-83909744D01*
X145104774Y-84098102D01*
X145065000Y-84298061D01*
X145065000Y-84501939D01*
X145104774Y-84701898D01*
X145182795Y-84890256D01*
X145296063Y-85059774D01*
X145440226Y-85203937D01*
X145609744Y-85317205D01*
X145798102Y-85395226D01*
X145998061Y-85435000D01*
X146201939Y-85435000D01*
X146401898Y-85395226D01*
X146590256Y-85317205D01*
X146759774Y-85203937D01*
X146903937Y-85059774D01*
X147017205Y-84890256D01*
X147095226Y-84701898D01*
X147135000Y-84501939D01*
X147135000Y-84298061D01*
X147095226Y-84098102D01*
X147017205Y-83909744D01*
X146935000Y-83786715D01*
X146935000Y-82315721D01*
X147021161Y-82444670D01*
X147555330Y-82978839D01*
X148183446Y-83398533D01*
X148881372Y-83687623D01*
X149622285Y-83835000D01*
X150377715Y-83835000D01*
X151118628Y-83687623D01*
X151816554Y-83398533D01*
X152444670Y-82978839D01*
X152978839Y-82444670D01*
X153398533Y-81816554D01*
X153687623Y-81118628D01*
X153835000Y-80377715D01*
X153835000Y-79622285D01*
X153687623Y-78881372D01*
X153398533Y-78183446D01*
X152978839Y-77555330D01*
X152444670Y-77021161D01*
X151816554Y-76601467D01*
X151118628Y-76312377D01*
X150377715Y-76165000D01*
X149622285Y-76165000D01*
X148881372Y-76312377D01*
X148183446Y-76601467D01*
X147555330Y-77021161D01*
X147021161Y-77555330D01*
X146601467Y-78183446D01*
X146590585Y-78209717D01*
X145119446Y-76738579D01*
X145093291Y-76706709D01*
X144966146Y-76602364D01*
X144821087Y-76524828D01*
X144663689Y-76477082D01*
X144541019Y-76465000D01*
X144541018Y-76465000D01*
X144500000Y-76460960D01*
X144458982Y-76465000D01*
X138819895Y-76465000D01*
X138928414Y-76420050D01*
X139093837Y-76309518D01*
X139234518Y-76168837D01*
X139345050Y-76003414D01*
X139421186Y-75819606D01*
X139442988Y-75710000D01*
X149968382Y-75710000D01*
X150759192Y-75780578D01*
X151494389Y-75981705D01*
X152182351Y-76309846D01*
X152801331Y-76754628D01*
X153331761Y-77301988D01*
X153756884Y-77934639D01*
X154063251Y-78632561D01*
X154242499Y-79379183D01*
X154290000Y-80026030D01*
X154290000Y-105470792D01*
X154200000Y-105461928D01*
X153085750Y-105465000D01*
X152927000Y-105623750D01*
X152927000Y-107373000D01*
X152947000Y-107373000D01*
X152947000Y-107627000D01*
X152927000Y-107627000D01*
X152927000Y-109376250D01*
X153085750Y-109535000D01*
X154200000Y-109538072D01*
X154290000Y-109529208D01*
X154290001Y-119670792D01*
X154200000Y-119661928D01*
X151400000Y-119661928D01*
X151275518Y-119674188D01*
X151155820Y-119710498D01*
X151045506Y-119769463D01*
X150948815Y-119848815D01*
X150869463Y-119945506D01*
X150835000Y-120009981D01*
X150835000Y-119427404D01*
X150899068Y-119272729D01*
X150935000Y-119092089D01*
X150935000Y-118907911D01*
X150899068Y-118727271D01*
X150828586Y-118557111D01*
X150726262Y-118403972D01*
X150596028Y-118273738D01*
X150442889Y-118171414D01*
X150272729Y-118100932D01*
X150092089Y-118065000D01*
X149907911Y-118065000D01*
X149727271Y-118100932D01*
X149557111Y-118171414D01*
X149403972Y-118273738D01*
X149273738Y-118403972D01*
X149171414Y-118557111D01*
X149100932Y-118727271D01*
X149065000Y-118907911D01*
X149065000Y-119092089D01*
X149100932Y-119272729D01*
X149165000Y-119427404D01*
X149165001Y-123558981D01*
X149165000Y-132654132D01*
X148238575Y-133580558D01*
X148238570Y-133580562D01*
X148085000Y-133734132D01*
X148085000Y-133478711D01*
X148103937Y-133459774D01*
X148217205Y-133290256D01*
X148295226Y-133101898D01*
X148335000Y-132901939D01*
X148335000Y-132698061D01*
X148295226Y-132498102D01*
X148217205Y-132309744D01*
X148103937Y-132140226D01*
X147959774Y-131996063D01*
X147790256Y-131882795D01*
X147601898Y-131804774D01*
X147401939Y-131765000D01*
X147198061Y-131765000D01*
X146998102Y-131804774D01*
X146809744Y-131882795D01*
X146640226Y-131996063D01*
X146496063Y-132140226D01*
X146382795Y-132309744D01*
X146304774Y-132498102D01*
X146265000Y-132698061D01*
X146265000Y-132901939D01*
X146304774Y-133101898D01*
X146382795Y-133290256D01*
X146496063Y-133459774D01*
X146515001Y-133478712D01*
X146515000Y-133874842D01*
X145174843Y-135215000D01*
X138678711Y-135215000D01*
X138559774Y-135096063D01*
X138390256Y-134982795D01*
X138201898Y-134904774D01*
X138001939Y-134865000D01*
X137798061Y-134865000D01*
X137598102Y-134904774D01*
X137409744Y-134982795D01*
X137240226Y-135096063D01*
X137096063Y-135240226D01*
X136982795Y-135409744D01*
X136904774Y-135598102D01*
X136865000Y-135798061D01*
X136865000Y-136001939D01*
X136904774Y-136201898D01*
X136982795Y-136390256D01*
X137096063Y-136559774D01*
X137240226Y-136703937D01*
X137409744Y-136817205D01*
X137598102Y-136895226D01*
X137798061Y-136935000D01*
X138001939Y-136935000D01*
X138201898Y-136895226D01*
X138390256Y-136817205D01*
X138438454Y-136785000D01*
X145461447Y-136785000D01*
X145500000Y-136788797D01*
X145538553Y-136785000D01*
X145538561Y-136785000D01*
X145653887Y-136773641D01*
X145801860Y-136728754D01*
X145938233Y-136655862D01*
X146057764Y-136557764D01*
X146082347Y-136527810D01*
X146097658Y-136512499D01*
X146196063Y-136659774D01*
X146340226Y-136803937D01*
X146509744Y-136917205D01*
X146698102Y-136995226D01*
X146898061Y-137035000D01*
X147101939Y-137035000D01*
X147301898Y-136995226D01*
X147490256Y-136917205D01*
X147659774Y-136803937D01*
X147803937Y-136659774D01*
X147917205Y-136490256D01*
X147995226Y-136301898D01*
X148024093Y-136156775D01*
X149419438Y-134761430D01*
X149419442Y-134761425D01*
X150561428Y-133619440D01*
X150593291Y-133593291D01*
X150593417Y-133593137D01*
X151815000Y-133593137D01*
X151815000Y-133806863D01*
X151856696Y-134016483D01*
X151938485Y-134213940D01*
X152057225Y-134391647D01*
X152208353Y-134542775D01*
X152386060Y-134661515D01*
X152583517Y-134743304D01*
X152793137Y-134785000D01*
X153006863Y-134785000D01*
X153216483Y-134743304D01*
X153413940Y-134661515D01*
X153591647Y-134542775D01*
X153742775Y-134391647D01*
X153861515Y-134213940D01*
X153943304Y-134016483D01*
X153985000Y-133806863D01*
X153985000Y-133593137D01*
X153943304Y-133383517D01*
X153861515Y-133186060D01*
X153742775Y-133008353D01*
X153591647Y-132857225D01*
X153413940Y-132738485D01*
X153216483Y-132656696D01*
X153006863Y-132615000D01*
X152793137Y-132615000D01*
X152583517Y-132656696D01*
X152386060Y-132738485D01*
X152208353Y-132857225D01*
X152057225Y-133008353D01*
X151938485Y-133186060D01*
X151856696Y-133383517D01*
X151815000Y-133593137D01*
X150593417Y-133593137D01*
X150697636Y-133466146D01*
X150775172Y-133321087D01*
X150822918Y-133163689D01*
X150835000Y-133041019D01*
X150835000Y-133041009D01*
X150839039Y-133000001D01*
X150835000Y-132958993D01*
X150835000Y-126793137D01*
X151815000Y-126793137D01*
X151815000Y-127006863D01*
X151856696Y-127216483D01*
X151938485Y-127413940D01*
X152057225Y-127591647D01*
X152208353Y-127742775D01*
X152386060Y-127861515D01*
X152583517Y-127943304D01*
X152793137Y-127985000D01*
X153006863Y-127985000D01*
X153216483Y-127943304D01*
X153413940Y-127861515D01*
X153591647Y-127742775D01*
X153742775Y-127591647D01*
X153861515Y-127413940D01*
X153943304Y-127216483D01*
X153985000Y-127006863D01*
X153985000Y-126793137D01*
X153943304Y-126583517D01*
X153861515Y-126386060D01*
X153742775Y-126208353D01*
X153591647Y-126057225D01*
X153413940Y-125938485D01*
X153216483Y-125856696D01*
X153006863Y-125815000D01*
X152793137Y-125815000D01*
X152583517Y-125856696D01*
X152386060Y-125938485D01*
X152208353Y-126057225D01*
X152057225Y-126208353D01*
X151938485Y-126386060D01*
X151856696Y-126583517D01*
X151815000Y-126793137D01*
X150835000Y-126793137D01*
X150835000Y-123390019D01*
X150869463Y-123454494D01*
X150948815Y-123551185D01*
X151045506Y-123630537D01*
X151155820Y-123689502D01*
X151275518Y-123725812D01*
X151400000Y-123738072D01*
X154200000Y-123738072D01*
X154290001Y-123729208D01*
X154290001Y-139968370D01*
X154219422Y-140759193D01*
X154018295Y-141494389D01*
X153690152Y-142182355D01*
X153245374Y-142801328D01*
X152698012Y-143331761D01*
X152065362Y-143756883D01*
X151367439Y-144063251D01*
X150620819Y-144242499D01*
X149973970Y-144290000D01*
X136738072Y-144290000D01*
X136738072Y-141450000D01*
X136721008Y-141276746D01*
X136670472Y-141110150D01*
X136588405Y-140956614D01*
X136477962Y-140822038D01*
X136343386Y-140711595D01*
X136189850Y-140629528D01*
X136023254Y-140578992D01*
X135850000Y-140561928D01*
X134850000Y-140561928D01*
X134676746Y-140578992D01*
X134510150Y-140629528D01*
X134356614Y-140711595D01*
X134222038Y-140822038D01*
X134111595Y-140956614D01*
X134029528Y-141110150D01*
X133978992Y-141276746D01*
X133961928Y-141450000D01*
X133961928Y-144290000D01*
X130038072Y-144290000D01*
X130038072Y-141450000D01*
X130021008Y-141276746D01*
X129970472Y-141110150D01*
X129888405Y-140956614D01*
X129777962Y-140822038D01*
X129643386Y-140711595D01*
X129489850Y-140629528D01*
X129323254Y-140578992D01*
X129150000Y-140561928D01*
X128150000Y-140561928D01*
X127976746Y-140578992D01*
X127810150Y-140629528D01*
X127656614Y-140711595D01*
X127522038Y-140822038D01*
X127411595Y-140956614D01*
X127329528Y-141110150D01*
X127278992Y-141276746D01*
X127261928Y-141450000D01*
X127261928Y-144290000D01*
X60031618Y-144290000D01*
X59240807Y-144219422D01*
X58505611Y-144018295D01*
X57817645Y-143690152D01*
X57198672Y-143245374D01*
X56668239Y-142698012D01*
X56243117Y-142065362D01*
X55936749Y-141367439D01*
X55757501Y-140620819D01*
X55710000Y-139973970D01*
X55710000Y-139622285D01*
X56165000Y-139622285D01*
X56165000Y-140377715D01*
X56312377Y-141118628D01*
X56601467Y-141816554D01*
X57021161Y-142444670D01*
X57555330Y-142978839D01*
X58183446Y-143398533D01*
X58881372Y-143687623D01*
X59622285Y-143835000D01*
X60377715Y-143835000D01*
X61118628Y-143687623D01*
X61816554Y-143398533D01*
X62444670Y-142978839D01*
X62978839Y-142444670D01*
X63398533Y-141816554D01*
X63550364Y-141450000D01*
X68371928Y-141450000D01*
X68371928Y-143150000D01*
X68384188Y-143274482D01*
X68420498Y-143394180D01*
X68479463Y-143504494D01*
X68558815Y-143601185D01*
X68655506Y-143680537D01*
X68765820Y-143739502D01*
X68885518Y-143775812D01*
X69010000Y-143788072D01*
X70710000Y-143788072D01*
X70834482Y-143775812D01*
X70954180Y-143739502D01*
X71064494Y-143680537D01*
X71161185Y-143601185D01*
X71240537Y-143504494D01*
X71299502Y-143394180D01*
X71321513Y-143321620D01*
X71453368Y-143453475D01*
X71696589Y-143615990D01*
X71966842Y-143727932D01*
X72253740Y-143785000D01*
X72546260Y-143785000D01*
X72833158Y-143727932D01*
X73103411Y-143615990D01*
X73346632Y-143453475D01*
X73553475Y-143246632D01*
X73675195Y-143064466D01*
X73744822Y-143181355D01*
X73939731Y-143397588D01*
X74173080Y-143571641D01*
X74435901Y-143696825D01*
X74583110Y-143741476D01*
X74813000Y-143620155D01*
X74813000Y-142427000D01*
X75067000Y-142427000D01*
X75067000Y-143620155D01*
X75296890Y-143741476D01*
X75444099Y-143696825D01*
X75706920Y-143571641D01*
X75940269Y-143397588D01*
X76135178Y-143181355D01*
X76284157Y-142931252D01*
X76381481Y-142656891D01*
X76260814Y-142427000D01*
X75067000Y-142427000D01*
X74813000Y-142427000D01*
X74793000Y-142427000D01*
X74793000Y-142173000D01*
X74813000Y-142173000D01*
X74813000Y-140979845D01*
X75067000Y-140979845D01*
X75067000Y-142173000D01*
X76260814Y-142173000D01*
X76381481Y-141943109D01*
X76284157Y-141668748D01*
X76213423Y-141550000D01*
X82611928Y-141550000D01*
X82611928Y-143250000D01*
X82624188Y-143374482D01*
X82660498Y-143494180D01*
X82719463Y-143604494D01*
X82798815Y-143701185D01*
X82895506Y-143780537D01*
X83005820Y-143839502D01*
X83125518Y-143875812D01*
X83250000Y-143888072D01*
X84950000Y-143888072D01*
X85074482Y-143875812D01*
X85194180Y-143839502D01*
X85304494Y-143780537D01*
X85401185Y-143701185D01*
X85480537Y-143604494D01*
X85539502Y-143494180D01*
X85561513Y-143421620D01*
X85693368Y-143553475D01*
X85936589Y-143715990D01*
X86206842Y-143827932D01*
X86493740Y-143885000D01*
X86786260Y-143885000D01*
X87073158Y-143827932D01*
X87343411Y-143715990D01*
X87586632Y-143553475D01*
X87793475Y-143346632D01*
X87915195Y-143164466D01*
X87984822Y-143281355D01*
X88179731Y-143497588D01*
X88413080Y-143671641D01*
X88675901Y-143796825D01*
X88823110Y-143841476D01*
X89053000Y-143720155D01*
X89053000Y-142527000D01*
X89307000Y-142527000D01*
X89307000Y-143720155D01*
X89536890Y-143841476D01*
X89684099Y-143796825D01*
X89946920Y-143671641D01*
X90180269Y-143497588D01*
X90375178Y-143281355D01*
X90524157Y-143031252D01*
X90621481Y-142756891D01*
X90500814Y-142527000D01*
X89307000Y-142527000D01*
X89053000Y-142527000D01*
X89033000Y-142527000D01*
X89033000Y-142273000D01*
X89053000Y-142273000D01*
X89053000Y-141079845D01*
X89307000Y-141079845D01*
X89307000Y-142273000D01*
X90500814Y-142273000D01*
X90621481Y-142043109D01*
X90524157Y-141768748D01*
X90375178Y-141518645D01*
X90313303Y-141450000D01*
X98011928Y-141450000D01*
X98011928Y-143150000D01*
X98024188Y-143274482D01*
X98060498Y-143394180D01*
X98119463Y-143504494D01*
X98198815Y-143601185D01*
X98295506Y-143680537D01*
X98405820Y-143739502D01*
X98525518Y-143775812D01*
X98650000Y-143788072D01*
X100350000Y-143788072D01*
X100474482Y-143775812D01*
X100594180Y-143739502D01*
X100704494Y-143680537D01*
X100801185Y-143601185D01*
X100880537Y-143504494D01*
X100939502Y-143394180D01*
X100961513Y-143321620D01*
X101093368Y-143453475D01*
X101336589Y-143615990D01*
X101606842Y-143727932D01*
X101893740Y-143785000D01*
X102186260Y-143785000D01*
X102473158Y-143727932D01*
X102743411Y-143615990D01*
X102986632Y-143453475D01*
X103193475Y-143246632D01*
X103315195Y-143064466D01*
X103384822Y-143181355D01*
X103579731Y-143397588D01*
X103813080Y-143571641D01*
X104075901Y-143696825D01*
X104223110Y-143741476D01*
X104453000Y-143620155D01*
X104453000Y-142427000D01*
X104433000Y-142427000D01*
X104433000Y-142173000D01*
X104453000Y-142173000D01*
X104453000Y-140979845D01*
X104223110Y-140858524D01*
X104075901Y-140903175D01*
X103813080Y-141028359D01*
X103579731Y-141202412D01*
X103384822Y-141418645D01*
X103315195Y-141535534D01*
X103193475Y-141353368D01*
X102986632Y-141146525D01*
X102743411Y-140984010D01*
X102473158Y-140872068D01*
X102186260Y-140815000D01*
X101893740Y-140815000D01*
X101606842Y-140872068D01*
X101336589Y-140984010D01*
X101093368Y-141146525D01*
X100961513Y-141278380D01*
X100939502Y-141205820D01*
X100880537Y-141095506D01*
X100801185Y-140998815D01*
X100704494Y-140919463D01*
X100594180Y-140860498D01*
X100474482Y-140824188D01*
X100350000Y-140811928D01*
X98650000Y-140811928D01*
X98525518Y-140824188D01*
X98405820Y-140860498D01*
X98295506Y-140919463D01*
X98198815Y-140998815D01*
X98119463Y-141095506D01*
X98060498Y-141205820D01*
X98024188Y-141325518D01*
X98011928Y-141450000D01*
X90313303Y-141450000D01*
X90180269Y-141302412D01*
X89946920Y-141128359D01*
X89684099Y-141003175D01*
X89536890Y-140958524D01*
X89307000Y-141079845D01*
X89053000Y-141079845D01*
X88823110Y-140958524D01*
X88675901Y-141003175D01*
X88413080Y-141128359D01*
X88179731Y-141302412D01*
X87984822Y-141518645D01*
X87915195Y-141635534D01*
X87793475Y-141453368D01*
X87586632Y-141246525D01*
X87343411Y-141084010D01*
X87073158Y-140972068D01*
X86786260Y-140915000D01*
X86493740Y-140915000D01*
X86206842Y-140972068D01*
X85936589Y-141084010D01*
X85693368Y-141246525D01*
X85561513Y-141378380D01*
X85539502Y-141305820D01*
X85480537Y-141195506D01*
X85401185Y-141098815D01*
X85363214Y-141067653D01*
X87295869Y-139135000D01*
X88686715Y-139135000D01*
X88809744Y-139217205D01*
X88998102Y-139295226D01*
X89198061Y-139335000D01*
X89401939Y-139335000D01*
X89601898Y-139295226D01*
X89790256Y-139217205D01*
X89959774Y-139103937D01*
X90103937Y-138959774D01*
X90217205Y-138790256D01*
X90295226Y-138601898D01*
X90335000Y-138401939D01*
X90335000Y-138198061D01*
X90295226Y-137998102D01*
X90217205Y-137809744D01*
X90103937Y-137640226D01*
X89959774Y-137496063D01*
X89790256Y-137382795D01*
X89601898Y-137304774D01*
X89401939Y-137265000D01*
X89198061Y-137265000D01*
X88998102Y-137304774D01*
X88809744Y-137382795D01*
X88686715Y-137465000D01*
X86991018Y-137465000D01*
X86950000Y-137460960D01*
X86908982Y-137465000D01*
X86908981Y-137465000D01*
X86786311Y-137477082D01*
X86635209Y-137522918D01*
X86628913Y-137524828D01*
X86483854Y-137602364D01*
X86391315Y-137678309D01*
X86356709Y-137706709D01*
X86330563Y-137738568D01*
X83538579Y-140530554D01*
X83506709Y-140556709D01*
X83453539Y-140621498D01*
X83402364Y-140683855D01*
X83324828Y-140828914D01*
X83299646Y-140911928D01*
X83250000Y-140911928D01*
X83125518Y-140924188D01*
X83005820Y-140960498D01*
X82895506Y-141019463D01*
X82798815Y-141098815D01*
X82719463Y-141195506D01*
X82660498Y-141305820D01*
X82624188Y-141425518D01*
X82611928Y-141550000D01*
X76213423Y-141550000D01*
X76135178Y-141418645D01*
X75940269Y-141202412D01*
X75706920Y-141028359D01*
X75444099Y-140903175D01*
X75296890Y-140858524D01*
X75067000Y-140979845D01*
X74813000Y-140979845D01*
X74583110Y-140858524D01*
X74435901Y-140903175D01*
X74173080Y-141028359D01*
X73939731Y-141202412D01*
X73744822Y-141418645D01*
X73675195Y-141535534D01*
X73553475Y-141353368D01*
X73346632Y-141146525D01*
X73103411Y-140984010D01*
X72833158Y-140872068D01*
X72546260Y-140815000D01*
X72253740Y-140815000D01*
X71966842Y-140872068D01*
X71696589Y-140984010D01*
X71453368Y-141146525D01*
X71321513Y-141278380D01*
X71299502Y-141205820D01*
X71240537Y-141095506D01*
X71161185Y-140998815D01*
X71064494Y-140919463D01*
X70954180Y-140860498D01*
X70834482Y-140824188D01*
X70710000Y-140811928D01*
X69010000Y-140811928D01*
X68885518Y-140824188D01*
X68765820Y-140860498D01*
X68655506Y-140919463D01*
X68558815Y-140998815D01*
X68479463Y-141095506D01*
X68420498Y-141205820D01*
X68384188Y-141325518D01*
X68371928Y-141450000D01*
X63550364Y-141450000D01*
X63687623Y-141118628D01*
X63835000Y-140377715D01*
X63835000Y-139622285D01*
X63687623Y-138881372D01*
X63398533Y-138183446D01*
X62978839Y-137555330D01*
X62444670Y-137021161D01*
X61816554Y-136601467D01*
X61118628Y-136312377D01*
X60377715Y-136165000D01*
X59622285Y-136165000D01*
X58881372Y-136312377D01*
X58183446Y-136601467D01*
X57555330Y-137021161D01*
X57021161Y-137555330D01*
X56601467Y-138183446D01*
X56312377Y-138881372D01*
X56165000Y-139622285D01*
X55710000Y-139622285D01*
X55710000Y-134198061D01*
X100865000Y-134198061D01*
X100865000Y-134401939D01*
X100904774Y-134601898D01*
X100982795Y-134790256D01*
X101096063Y-134959774D01*
X101240226Y-135103937D01*
X101265001Y-135120491D01*
X101265000Y-136086715D01*
X101182795Y-136209744D01*
X101104774Y-136398102D01*
X101065000Y-136598061D01*
X101065000Y-136801939D01*
X101104774Y-137001898D01*
X101182795Y-137190256D01*
X101296063Y-137359774D01*
X101440226Y-137503937D01*
X101609744Y-137617205D01*
X101798102Y-137695226D01*
X101998061Y-137735000D01*
X102201939Y-137735000D01*
X102401898Y-137695226D01*
X102590256Y-137617205D01*
X102759774Y-137503937D01*
X102903937Y-137359774D01*
X103017205Y-137190256D01*
X103095226Y-137001898D01*
X103135000Y-136801939D01*
X103135000Y-136598061D01*
X103095226Y-136398102D01*
X103017205Y-136209744D01*
X102935000Y-136086715D01*
X102935000Y-134541018D01*
X102939040Y-134500000D01*
X102931242Y-134420830D01*
X102935000Y-134401939D01*
X102935000Y-134198061D01*
X102895226Y-133998102D01*
X102817205Y-133809744D01*
X102703937Y-133640226D01*
X102559774Y-133496063D01*
X102390256Y-133382795D01*
X102201898Y-133304774D01*
X102001939Y-133265000D01*
X101798061Y-133265000D01*
X101598102Y-133304774D01*
X101409744Y-133382795D01*
X101240226Y-133496063D01*
X101096063Y-133640226D01*
X100982795Y-133809744D01*
X100904774Y-133998102D01*
X100865000Y-134198061D01*
X55710000Y-134198061D01*
X55710000Y-127669609D01*
X58509997Y-127669609D01*
X58696073Y-128010766D01*
X59113409Y-128226513D01*
X59564815Y-128356696D01*
X60032946Y-128396313D01*
X60499811Y-128343842D01*
X60947468Y-128201297D01*
X61303927Y-128010766D01*
X61490003Y-127669609D01*
X60000000Y-126179605D01*
X58509997Y-127669609D01*
X55710000Y-127669609D01*
X55710000Y-126032946D01*
X57603687Y-126032946D01*
X57656158Y-126499811D01*
X57798703Y-126947468D01*
X57989234Y-127303927D01*
X58330391Y-127490003D01*
X59820395Y-126000000D01*
X60179605Y-126000000D01*
X61669609Y-127490003D01*
X62010766Y-127303927D01*
X62226513Y-126886591D01*
X62356696Y-126435185D01*
X62396313Y-125967054D01*
X62375276Y-125779872D01*
X65510000Y-125779872D01*
X65510000Y-126220128D01*
X65595890Y-126651925D01*
X65764369Y-127058669D01*
X66008962Y-127424729D01*
X66320271Y-127736038D01*
X66686331Y-127980631D01*
X67093075Y-128149110D01*
X67524872Y-128235000D01*
X67965128Y-128235000D01*
X68396925Y-128149110D01*
X68803669Y-127980631D01*
X69169729Y-127736038D01*
X69481038Y-127424729D01*
X69725631Y-127058669D01*
X69746655Y-127007911D01*
X72965000Y-127007911D01*
X72965000Y-127192089D01*
X73000932Y-127372729D01*
X73071414Y-127542889D01*
X73173738Y-127696028D01*
X73303972Y-127826262D01*
X73457111Y-127928586D01*
X73627271Y-127999068D01*
X73807911Y-128035000D01*
X73992089Y-128035000D01*
X74172729Y-127999068D01*
X74342889Y-127928586D01*
X74408120Y-127885000D01*
X91491880Y-127885000D01*
X91557111Y-127928586D01*
X91727271Y-127999068D01*
X91907911Y-128035000D01*
X92092089Y-128035000D01*
X92272729Y-127999068D01*
X92442889Y-127928586D01*
X92596028Y-127826262D01*
X92726262Y-127696028D01*
X92828586Y-127542889D01*
X92899068Y-127372729D01*
X92935000Y-127192089D01*
X92935000Y-127007911D01*
X92899068Y-126827271D01*
X92828586Y-126657111D01*
X92726262Y-126503972D01*
X92596028Y-126373738D01*
X92442889Y-126271414D01*
X92272729Y-126200932D01*
X92092089Y-126165000D01*
X91907911Y-126165000D01*
X91727271Y-126200932D01*
X91557111Y-126271414D01*
X91491880Y-126315000D01*
X74408120Y-126315000D01*
X74342889Y-126271414D01*
X74172729Y-126200932D01*
X73992089Y-126165000D01*
X73807911Y-126165000D01*
X73627271Y-126200932D01*
X73457111Y-126271414D01*
X73303972Y-126373738D01*
X73173738Y-126503972D01*
X73071414Y-126657111D01*
X73000932Y-126827271D01*
X72965000Y-127007911D01*
X69746655Y-127007911D01*
X69894110Y-126651925D01*
X69980000Y-126220128D01*
X69980000Y-125779872D01*
X69894110Y-125348075D01*
X69725631Y-124941331D01*
X69536257Y-124657911D01*
X96015000Y-124657911D01*
X96015000Y-124842089D01*
X96050932Y-125022729D01*
X96121414Y-125192889D01*
X96190001Y-125295537D01*
X96190000Y-128922437D01*
X96150998Y-129051015D01*
X96136324Y-129200000D01*
X96150998Y-129348985D01*
X96194454Y-129492246D01*
X96265026Y-129624276D01*
X96336201Y-129711002D01*
X97936200Y-131311002D01*
X97959999Y-131340001D01*
X98075724Y-131434974D01*
X98207753Y-131505546D01*
X98351014Y-131549003D01*
X98462667Y-131560000D01*
X98462675Y-131560000D01*
X98500000Y-131563676D01*
X98537325Y-131560000D01*
X104885199Y-131560000D01*
X110540001Y-137214803D01*
X110540001Y-137335638D01*
X110459808Y-137378502D01*
X110378309Y-137432958D01*
X110281618Y-137512310D01*
X110212310Y-137581618D01*
X110132958Y-137678309D01*
X110078502Y-137759808D01*
X110019536Y-137870125D01*
X109982027Y-137960681D01*
X109945718Y-138080377D01*
X109926596Y-138176510D01*
X109914336Y-138300991D01*
X109914336Y-138325550D01*
X109911928Y-138350000D01*
X109911928Y-138850000D01*
X109924188Y-138974482D01*
X109931929Y-139000000D01*
X109924188Y-139025518D01*
X109911928Y-139150000D01*
X109911928Y-139650000D01*
X109914336Y-139674450D01*
X109914336Y-139699009D01*
X109926596Y-139823490D01*
X109945718Y-139919623D01*
X109982027Y-140039319D01*
X110019536Y-140129875D01*
X110078502Y-140240192D01*
X110132958Y-140321691D01*
X110212310Y-140418382D01*
X110281618Y-140487690D01*
X110378309Y-140567042D01*
X110459808Y-140621498D01*
X110570125Y-140680464D01*
X110660681Y-140717973D01*
X110780377Y-140754282D01*
X110876510Y-140773404D01*
X111000991Y-140785664D01*
X111025550Y-140785664D01*
X111050000Y-140788072D01*
X111363270Y-140788072D01*
X111440001Y-140864803D01*
X111440001Y-141021821D01*
X111253368Y-141146525D01*
X111046525Y-141353368D01*
X110930000Y-141527760D01*
X110813475Y-141353368D01*
X110606632Y-141146525D01*
X110363411Y-140984010D01*
X110093158Y-140872068D01*
X109806260Y-140815000D01*
X109513740Y-140815000D01*
X109226842Y-140872068D01*
X108956589Y-140984010D01*
X108713368Y-141146525D01*
X108506525Y-141353368D01*
X108390000Y-141527760D01*
X108273475Y-141353368D01*
X108066632Y-141146525D01*
X107823411Y-140984010D01*
X107553158Y-140872068D01*
X107266260Y-140815000D01*
X106973740Y-140815000D01*
X106686842Y-140872068D01*
X106416589Y-140984010D01*
X106173368Y-141146525D01*
X105966525Y-141353368D01*
X105844805Y-141535534D01*
X105775178Y-141418645D01*
X105580269Y-141202412D01*
X105346920Y-141028359D01*
X105084099Y-140903175D01*
X104936890Y-140858524D01*
X104707000Y-140979845D01*
X104707000Y-142173000D01*
X104727000Y-142173000D01*
X104727000Y-142427000D01*
X104707000Y-142427000D01*
X104707000Y-143620155D01*
X104936890Y-143741476D01*
X105084099Y-143696825D01*
X105346920Y-143571641D01*
X105580269Y-143397588D01*
X105775178Y-143181355D01*
X105844805Y-143064466D01*
X105966525Y-143246632D01*
X106173368Y-143453475D01*
X106416589Y-143615990D01*
X106686842Y-143727932D01*
X106973740Y-143785000D01*
X107266260Y-143785000D01*
X107553158Y-143727932D01*
X107823411Y-143615990D01*
X108066632Y-143453475D01*
X108273475Y-143246632D01*
X108390000Y-143072240D01*
X108506525Y-143246632D01*
X108713368Y-143453475D01*
X108956589Y-143615990D01*
X109226842Y-143727932D01*
X109513740Y-143785000D01*
X109806260Y-143785000D01*
X110093158Y-143727932D01*
X110363411Y-143615990D01*
X110606632Y-143453475D01*
X110813475Y-143246632D01*
X110930000Y-143072240D01*
X111046525Y-143246632D01*
X111253368Y-143453475D01*
X111496589Y-143615990D01*
X111766842Y-143727932D01*
X112053740Y-143785000D01*
X112346260Y-143785000D01*
X112633158Y-143727932D01*
X112903411Y-143615990D01*
X113146632Y-143453475D01*
X113353475Y-143246632D01*
X113470000Y-143072240D01*
X113586525Y-143246632D01*
X113793368Y-143453475D01*
X114036589Y-143615990D01*
X114306842Y-143727932D01*
X114593740Y-143785000D01*
X114886260Y-143785000D01*
X115173158Y-143727932D01*
X115443411Y-143615990D01*
X115686632Y-143453475D01*
X115893475Y-143246632D01*
X116010000Y-143072240D01*
X116126525Y-143246632D01*
X116333368Y-143453475D01*
X116576589Y-143615990D01*
X116846842Y-143727932D01*
X117133740Y-143785000D01*
X117426260Y-143785000D01*
X117713158Y-143727932D01*
X117983411Y-143615990D01*
X118226632Y-143453475D01*
X118433475Y-143246632D01*
X118550000Y-143072240D01*
X118666525Y-143246632D01*
X118873368Y-143453475D01*
X119116589Y-143615990D01*
X119386842Y-143727932D01*
X119673740Y-143785000D01*
X119966260Y-143785000D01*
X120253158Y-143727932D01*
X120523411Y-143615990D01*
X120766632Y-143453475D01*
X120973475Y-143246632D01*
X121090000Y-143072240D01*
X121206525Y-143246632D01*
X121413368Y-143453475D01*
X121656589Y-143615990D01*
X121926842Y-143727932D01*
X122213740Y-143785000D01*
X122506260Y-143785000D01*
X122793158Y-143727932D01*
X123063411Y-143615990D01*
X123306632Y-143453475D01*
X123513475Y-143246632D01*
X123675990Y-143003411D01*
X123787932Y-142733158D01*
X123845000Y-142446260D01*
X123845000Y-142153740D01*
X123787932Y-141866842D01*
X123675990Y-141596589D01*
X123513475Y-141353368D01*
X123306632Y-141146525D01*
X123120000Y-141021822D01*
X123120000Y-140684554D01*
X123129875Y-140680464D01*
X123240192Y-140621498D01*
X123321691Y-140567042D01*
X123418382Y-140487690D01*
X123487690Y-140418382D01*
X123567042Y-140321691D01*
X123621498Y-140240192D01*
X123680464Y-140129875D01*
X123717973Y-140039319D01*
X123754282Y-139919623D01*
X123773404Y-139823490D01*
X123785664Y-139699009D01*
X123785664Y-139674450D01*
X123788072Y-139650000D01*
X123788072Y-139622285D01*
X146165000Y-139622285D01*
X146165000Y-140377715D01*
X146312377Y-141118628D01*
X146601467Y-141816554D01*
X147021161Y-142444670D01*
X147555330Y-142978839D01*
X148183446Y-143398533D01*
X148881372Y-143687623D01*
X149622285Y-143835000D01*
X150377715Y-143835000D01*
X151118628Y-143687623D01*
X151816554Y-143398533D01*
X152444670Y-142978839D01*
X152978839Y-142444670D01*
X153398533Y-141816554D01*
X153687623Y-141118628D01*
X153835000Y-140377715D01*
X153835000Y-139622285D01*
X153687623Y-138881372D01*
X153398533Y-138183446D01*
X152978839Y-137555330D01*
X152444670Y-137021161D01*
X151816554Y-136601467D01*
X151118628Y-136312377D01*
X150377715Y-136165000D01*
X149622285Y-136165000D01*
X148881372Y-136312377D01*
X148183446Y-136601467D01*
X147555330Y-137021161D01*
X147021161Y-137555330D01*
X146601467Y-138183446D01*
X146312377Y-138881372D01*
X146165000Y-139622285D01*
X123788072Y-139622285D01*
X123788072Y-139150000D01*
X123775812Y-139025518D01*
X123768071Y-139000000D01*
X123775812Y-138974482D01*
X123788072Y-138850000D01*
X123788072Y-138350000D01*
X123785664Y-138325550D01*
X123785664Y-138300991D01*
X123773404Y-138176510D01*
X123754282Y-138080377D01*
X123717973Y-137960681D01*
X123680464Y-137870125D01*
X123621498Y-137759808D01*
X123567042Y-137678309D01*
X123487690Y-137581618D01*
X123418382Y-137512310D01*
X123321691Y-137432958D01*
X123240192Y-137378502D01*
X123160000Y-137335638D01*
X123160000Y-135798061D01*
X128665000Y-135798061D01*
X128665000Y-136001939D01*
X128704774Y-136201898D01*
X128782795Y-136390256D01*
X128789306Y-136400000D01*
X128782795Y-136409744D01*
X128704774Y-136598102D01*
X128665000Y-136798061D01*
X128665000Y-137001939D01*
X128704774Y-137201898D01*
X128782795Y-137390256D01*
X128822715Y-137450000D01*
X128782795Y-137509744D01*
X128704774Y-137698102D01*
X128665000Y-137898061D01*
X128665000Y-138101939D01*
X128704774Y-138301898D01*
X128782795Y-138490256D01*
X128896063Y-138659774D01*
X129040226Y-138803937D01*
X129209744Y-138917205D01*
X129398102Y-138995226D01*
X129598061Y-139035000D01*
X129801939Y-139035000D01*
X129939080Y-139007721D01*
X130011595Y-139143386D01*
X130122038Y-139277962D01*
X130256614Y-139388405D01*
X130410150Y-139470472D01*
X130576746Y-139521008D01*
X130750000Y-139538072D01*
X131250000Y-139538072D01*
X131423254Y-139521008D01*
X131589850Y-139470472D01*
X131743386Y-139388405D01*
X131877962Y-139277962D01*
X131940969Y-139201187D01*
X131969463Y-139254494D01*
X132048815Y-139351185D01*
X132145506Y-139430537D01*
X132255820Y-139489502D01*
X132375518Y-139525812D01*
X132500000Y-139538072D01*
X132714250Y-139535000D01*
X132873000Y-139376250D01*
X132873000Y-137277000D01*
X133127000Y-137277000D01*
X133127000Y-139376250D01*
X133285750Y-139535000D01*
X133500000Y-139538072D01*
X133624482Y-139525812D01*
X133744180Y-139489502D01*
X133854494Y-139430537D01*
X133951185Y-139351185D01*
X134030537Y-139254494D01*
X134089502Y-139144180D01*
X134125812Y-139024482D01*
X134138072Y-138900000D01*
X134135000Y-137435750D01*
X133976250Y-137277000D01*
X133127000Y-137277000D01*
X132873000Y-137277000D01*
X132853000Y-137277000D01*
X132853000Y-137023000D01*
X132873000Y-137023000D01*
X132873000Y-134923750D01*
X133127000Y-134923750D01*
X133127000Y-137023000D01*
X133976250Y-137023000D01*
X134135000Y-136864250D01*
X134138072Y-135400000D01*
X134125812Y-135275518D01*
X134089502Y-135155820D01*
X134030537Y-135045506D01*
X133951185Y-134948815D01*
X133854494Y-134869463D01*
X133744180Y-134810498D01*
X133624482Y-134774188D01*
X133500000Y-134761928D01*
X133285750Y-134765000D01*
X133127000Y-134923750D01*
X132873000Y-134923750D01*
X132714250Y-134765000D01*
X132500000Y-134761928D01*
X132375518Y-134774188D01*
X132255820Y-134810498D01*
X132145506Y-134869463D01*
X132048815Y-134948815D01*
X131969463Y-135045506D01*
X131940969Y-135098813D01*
X131877962Y-135022038D01*
X131743386Y-134911595D01*
X131589850Y-134829528D01*
X131423254Y-134778992D01*
X131250000Y-134761928D01*
X130750000Y-134761928D01*
X130576746Y-134778992D01*
X130410150Y-134829528D01*
X130256614Y-134911595D01*
X130176699Y-134977179D01*
X130001898Y-134904774D01*
X129801939Y-134865000D01*
X129598061Y-134865000D01*
X129398102Y-134904774D01*
X129209744Y-134982795D01*
X129040226Y-135096063D01*
X128896063Y-135240226D01*
X128782795Y-135409744D01*
X128704774Y-135598102D01*
X128665000Y-135798061D01*
X123160000Y-135798061D01*
X123160000Y-133637325D01*
X123163676Y-133600000D01*
X123160000Y-133562675D01*
X123160000Y-133562667D01*
X123149003Y-133451014D01*
X123105546Y-133307753D01*
X123034974Y-133175724D01*
X122940001Y-133059999D01*
X122911003Y-133036201D01*
X119710000Y-129835199D01*
X119710000Y-125779872D01*
X121120000Y-125779872D01*
X121120000Y-126220128D01*
X121205890Y-126651925D01*
X121374369Y-127058669D01*
X121618962Y-127424729D01*
X121930271Y-127736038D01*
X122296331Y-127980631D01*
X122703075Y-128149110D01*
X123134872Y-128235000D01*
X123575128Y-128235000D01*
X124006925Y-128149110D01*
X124413669Y-127980631D01*
X124779729Y-127736038D01*
X125091038Y-127424729D01*
X125335631Y-127058669D01*
X125504110Y-126651925D01*
X125590000Y-126220128D01*
X125590000Y-125779872D01*
X125504110Y-125348075D01*
X125335631Y-124941331D01*
X125091038Y-124575271D01*
X124779729Y-124263962D01*
X124413669Y-124019369D01*
X124006925Y-123850890D01*
X123575128Y-123765000D01*
X123134872Y-123765000D01*
X122703075Y-123850890D01*
X122296331Y-124019369D01*
X121930271Y-124263962D01*
X121618962Y-124575271D01*
X121374369Y-124941331D01*
X121205890Y-125348075D01*
X121120000Y-125779872D01*
X119710000Y-125779872D01*
X119710000Y-125395535D01*
X119778586Y-125292889D01*
X119849068Y-125122729D01*
X119885000Y-124942089D01*
X119885000Y-124757911D01*
X119849068Y-124577271D01*
X119778586Y-124407111D01*
X119676262Y-124253972D01*
X119546028Y-124123738D01*
X119392889Y-124021414D01*
X119222729Y-123950932D01*
X119042089Y-123915000D01*
X118857911Y-123915000D01*
X118677271Y-123950932D01*
X118507111Y-124021414D01*
X118353972Y-124123738D01*
X118223738Y-124253972D01*
X118121414Y-124407111D01*
X118050932Y-124577271D01*
X118015000Y-124757911D01*
X118015000Y-124942089D01*
X118050932Y-125122729D01*
X118121414Y-125292889D01*
X118190001Y-125395537D01*
X118190000Y-130015198D01*
X114210000Y-126035199D01*
X114210000Y-125295535D01*
X114278586Y-125192889D01*
X114349068Y-125022729D01*
X114385000Y-124842089D01*
X114385000Y-124657911D01*
X114349068Y-124477271D01*
X114278586Y-124307111D01*
X114176262Y-124153972D01*
X114046028Y-124023738D01*
X113892889Y-123921414D01*
X113722729Y-123850932D01*
X113542089Y-123815000D01*
X113357911Y-123815000D01*
X113177271Y-123850932D01*
X113007111Y-123921414D01*
X112853972Y-124023738D01*
X112723738Y-124153972D01*
X112621414Y-124307111D01*
X112550932Y-124477271D01*
X112515000Y-124657911D01*
X112515000Y-124842089D01*
X112550932Y-125022729D01*
X112621414Y-125192889D01*
X112690001Y-125295537D01*
X112690000Y-126312677D01*
X112686324Y-126350000D01*
X112690000Y-126387322D01*
X112690000Y-126387332D01*
X112700997Y-126498985D01*
X112726639Y-126583517D01*
X112744454Y-126642246D01*
X112815026Y-126774276D01*
X112834611Y-126798140D01*
X112909999Y-126890001D01*
X112939003Y-126913804D01*
X118238997Y-132213799D01*
X118239002Y-132213803D01*
X118940001Y-132914803D01*
X118940000Y-137335638D01*
X118859808Y-137378502D01*
X118778309Y-137432958D01*
X118681618Y-137512310D01*
X118612310Y-137581618D01*
X118532958Y-137678309D01*
X118478502Y-137759808D01*
X118419536Y-137870125D01*
X118382027Y-137960681D01*
X118345718Y-138080377D01*
X118326596Y-138176510D01*
X118314336Y-138300991D01*
X118314336Y-138325550D01*
X118311928Y-138350000D01*
X118311928Y-138850000D01*
X118324188Y-138974482D01*
X118331929Y-139000000D01*
X118324188Y-139025518D01*
X118311928Y-139150000D01*
X118311928Y-139650000D01*
X118314336Y-139674450D01*
X118314336Y-139699009D01*
X118326596Y-139823490D01*
X118345718Y-139919623D01*
X118382027Y-140039319D01*
X118419536Y-140129875D01*
X118478502Y-140240192D01*
X118532958Y-140321691D01*
X118612310Y-140418382D01*
X118681618Y-140487690D01*
X118778309Y-140567042D01*
X118859808Y-140621498D01*
X118970125Y-140680464D01*
X119060001Y-140717691D01*
X119060001Y-141021821D01*
X118873368Y-141146525D01*
X118666525Y-141353368D01*
X118550000Y-141527760D01*
X118433475Y-141353368D01*
X118226632Y-141146525D01*
X118040000Y-141021822D01*
X118040000Y-140357563D01*
X118041405Y-140352929D01*
X118067042Y-140321691D01*
X118121498Y-140240192D01*
X118180464Y-140129875D01*
X118217973Y-140039319D01*
X118254282Y-139919623D01*
X118273404Y-139823490D01*
X118285664Y-139699009D01*
X118285664Y-139674450D01*
X118288072Y-139650000D01*
X118288072Y-139150000D01*
X118275812Y-139025518D01*
X118268071Y-139000000D01*
X118275812Y-138974482D01*
X118288072Y-138850000D01*
X118288072Y-138350000D01*
X118285664Y-138325550D01*
X118285664Y-138300991D01*
X118273404Y-138176510D01*
X118254282Y-138080377D01*
X118217973Y-137960681D01*
X118180464Y-137870125D01*
X118121498Y-137759808D01*
X118067042Y-137678309D01*
X117987690Y-137581618D01*
X117918382Y-137512310D01*
X117821691Y-137432958D01*
X117740192Y-137378502D01*
X117660000Y-137335638D01*
X117660000Y-137137322D01*
X117663676Y-137099999D01*
X117660000Y-137062676D01*
X117660000Y-137062667D01*
X117649003Y-136951014D01*
X117605546Y-136807753D01*
X117600365Y-136798061D01*
X117534974Y-136675723D01*
X117463799Y-136588997D01*
X117440001Y-136559999D01*
X117411003Y-136536201D01*
X115960000Y-135085199D01*
X115960000Y-132237325D01*
X115963676Y-132200000D01*
X115960000Y-132162675D01*
X115960000Y-132162667D01*
X115949003Y-132051014D01*
X115905546Y-131907753D01*
X115834974Y-131775724D01*
X115740001Y-131659999D01*
X115711003Y-131636201D01*
X112763804Y-128689003D01*
X112740001Y-128659999D01*
X112624276Y-128565026D01*
X112492247Y-128494454D01*
X112348986Y-128450997D01*
X112237333Y-128440000D01*
X112237322Y-128440000D01*
X112200000Y-128436324D01*
X112162678Y-128440000D01*
X110014802Y-128440000D01*
X108710000Y-127135199D01*
X108710000Y-125295535D01*
X108778586Y-125192889D01*
X108849068Y-125022729D01*
X108885000Y-124842089D01*
X108885000Y-124657911D01*
X108849068Y-124477271D01*
X108778586Y-124307111D01*
X108676262Y-124153972D01*
X108546028Y-124023738D01*
X108392889Y-123921414D01*
X108222729Y-123850932D01*
X108042089Y-123815000D01*
X107857911Y-123815000D01*
X107677271Y-123850932D01*
X107507111Y-123921414D01*
X107353972Y-124023738D01*
X107223738Y-124153972D01*
X107121414Y-124307111D01*
X107050932Y-124477271D01*
X107015000Y-124657911D01*
X107015000Y-124842089D01*
X107050932Y-125022729D01*
X107121414Y-125192889D01*
X107190001Y-125295537D01*
X107190000Y-127412677D01*
X107186324Y-127450000D01*
X107190000Y-127487322D01*
X107190000Y-127487332D01*
X107200997Y-127598985D01*
X107230434Y-127696028D01*
X107244454Y-127742246D01*
X107315026Y-127874276D01*
X107354871Y-127922826D01*
X107409999Y-127990001D01*
X107439003Y-128013804D01*
X108088043Y-128662845D01*
X108048986Y-128650997D01*
X107937333Y-128640000D01*
X107937322Y-128640000D01*
X107900000Y-128636324D01*
X107862678Y-128640000D01*
X104014802Y-128640000D01*
X103160000Y-127785199D01*
X103160000Y-125245535D01*
X103228586Y-125142889D01*
X103299068Y-124972729D01*
X103335000Y-124792089D01*
X103335000Y-124607911D01*
X103299068Y-124427271D01*
X103228586Y-124257111D01*
X103126262Y-124103972D01*
X102996028Y-123973738D01*
X102842889Y-123871414D01*
X102672729Y-123800932D01*
X102492089Y-123765000D01*
X102307911Y-123765000D01*
X102127271Y-123800932D01*
X101957111Y-123871414D01*
X101803972Y-123973738D01*
X101673738Y-124103972D01*
X101571414Y-124257111D01*
X101500932Y-124427271D01*
X101465000Y-124607911D01*
X101465000Y-124792089D01*
X101500932Y-124972729D01*
X101571414Y-125142889D01*
X101640001Y-125245537D01*
X101640000Y-128062677D01*
X101636324Y-128100000D01*
X101640000Y-128137322D01*
X101640000Y-128137332D01*
X101650997Y-128248985D01*
X101667507Y-128303411D01*
X101694454Y-128392246D01*
X101765026Y-128524276D01*
X101784729Y-128548284D01*
X101859999Y-128640001D01*
X101889003Y-128663804D01*
X103136200Y-129911002D01*
X103159999Y-129940001D01*
X103275724Y-130034974D01*
X103285127Y-130040000D01*
X98814802Y-130040000D01*
X97715557Y-128940756D01*
X97710000Y-128922437D01*
X97710000Y-125295535D01*
X97778586Y-125192889D01*
X97849068Y-125022729D01*
X97885000Y-124842089D01*
X97885000Y-124657911D01*
X97849068Y-124477271D01*
X97778586Y-124307111D01*
X97676262Y-124153972D01*
X97546028Y-124023738D01*
X97392889Y-123921414D01*
X97222729Y-123850932D01*
X97042089Y-123815000D01*
X96857911Y-123815000D01*
X96677271Y-123850932D01*
X96507111Y-123921414D01*
X96353972Y-124023738D01*
X96223738Y-124153972D01*
X96121414Y-124307111D01*
X96050932Y-124477271D01*
X96015000Y-124657911D01*
X69536257Y-124657911D01*
X69481038Y-124575271D01*
X69169729Y-124263962D01*
X68803669Y-124019369D01*
X68396925Y-123850890D01*
X67965128Y-123765000D01*
X67524872Y-123765000D01*
X67093075Y-123850890D01*
X66686331Y-124019369D01*
X66320271Y-124263962D01*
X66008962Y-124575271D01*
X65764369Y-124941331D01*
X65595890Y-125348075D01*
X65510000Y-125779872D01*
X62375276Y-125779872D01*
X62343842Y-125500189D01*
X62201297Y-125052532D01*
X62010766Y-124696073D01*
X61669609Y-124509997D01*
X60179605Y-126000000D01*
X59820395Y-126000000D01*
X58330391Y-124509997D01*
X57989234Y-124696073D01*
X57773487Y-125113409D01*
X57643304Y-125564815D01*
X57603687Y-126032946D01*
X55710000Y-126032946D01*
X55710000Y-124330391D01*
X58509997Y-124330391D01*
X60000000Y-125820395D01*
X61490003Y-124330391D01*
X61303927Y-123989234D01*
X60886591Y-123773487D01*
X60435185Y-123643304D01*
X59967054Y-123603687D01*
X59500189Y-123656158D01*
X59052532Y-123798703D01*
X58696073Y-123989234D01*
X58509997Y-124330391D01*
X55710000Y-124330391D01*
X55710000Y-116800000D01*
X127861928Y-116800000D01*
X127861928Y-119600000D01*
X127874188Y-119724482D01*
X127910498Y-119844180D01*
X127967061Y-119950000D01*
X127910498Y-120055820D01*
X127874188Y-120175518D01*
X127861928Y-120300000D01*
X127861928Y-123100000D01*
X127874188Y-123224482D01*
X127910498Y-123344180D01*
X127969463Y-123454494D01*
X128048815Y-123551185D01*
X128145506Y-123630537D01*
X128255820Y-123689502D01*
X128375518Y-123725812D01*
X128500000Y-123738072D01*
X129872831Y-123738072D01*
X129798815Y-123798815D01*
X129719463Y-123895506D01*
X129660498Y-124005820D01*
X129624188Y-124125518D01*
X129611928Y-124250000D01*
X129611928Y-127750000D01*
X129624188Y-127874482D01*
X129660498Y-127994180D01*
X129719463Y-128104494D01*
X129798815Y-128201185D01*
X129895506Y-128280537D01*
X130005820Y-128339502D01*
X130125518Y-128375812D01*
X130250000Y-128388072D01*
X133750000Y-128388072D01*
X133874482Y-128375812D01*
X133994180Y-128339502D01*
X134104494Y-128280537D01*
X134201185Y-128201185D01*
X134280537Y-128104494D01*
X134339502Y-127994180D01*
X134375812Y-127874482D01*
X134388072Y-127750000D01*
X134388072Y-124250000D01*
X134375812Y-124125518D01*
X134339502Y-124005820D01*
X134280537Y-123895506D01*
X134201185Y-123798815D01*
X134104494Y-123719463D01*
X133994180Y-123660498D01*
X133874482Y-123624188D01*
X133750000Y-123611928D01*
X131677169Y-123611928D01*
X131751185Y-123551185D01*
X131830537Y-123454494D01*
X131889502Y-123344180D01*
X131925812Y-123224482D01*
X131938072Y-123100000D01*
X131938072Y-122835000D01*
X141229869Y-122835000D01*
X141965000Y-123570132D01*
X141965001Y-126182317D01*
X141895506Y-126219463D01*
X141798815Y-126298815D01*
X141719463Y-126395506D01*
X141660498Y-126505820D01*
X141638487Y-126578380D01*
X141506632Y-126446525D01*
X141263411Y-126284010D01*
X140993158Y-126172068D01*
X140706260Y-126115000D01*
X140413740Y-126115000D01*
X140126842Y-126172068D01*
X139856589Y-126284010D01*
X139613368Y-126446525D01*
X139406525Y-126653368D01*
X139244010Y-126896589D01*
X139132068Y-127166842D01*
X139075000Y-127453740D01*
X139075000Y-127746260D01*
X139132068Y-128033158D01*
X139244010Y-128303411D01*
X139406525Y-128546632D01*
X139613368Y-128753475D01*
X139856589Y-128915990D01*
X140126842Y-129027932D01*
X140413740Y-129085000D01*
X140706260Y-129085000D01*
X140993158Y-129027932D01*
X141263411Y-128915990D01*
X141506632Y-128753475D01*
X141638487Y-128621620D01*
X141660498Y-128694180D01*
X141719463Y-128804494D01*
X141798815Y-128901185D01*
X141895506Y-128980537D01*
X142005820Y-129039502D01*
X142125518Y-129075812D01*
X142250000Y-129088072D01*
X143950000Y-129088072D01*
X144074482Y-129075812D01*
X144194180Y-129039502D01*
X144304494Y-128980537D01*
X144401185Y-128901185D01*
X144480537Y-128804494D01*
X144539502Y-128694180D01*
X144575812Y-128574482D01*
X144588072Y-128450000D01*
X144588072Y-126750000D01*
X144575812Y-126625518D01*
X144539502Y-126505820D01*
X144480537Y-126395506D01*
X144401185Y-126298815D01*
X144304494Y-126219463D01*
X144235000Y-126182317D01*
X144235000Y-123155751D01*
X144240491Y-123100000D01*
X144218577Y-122877501D01*
X144153676Y-122663553D01*
X144145515Y-122648284D01*
X144048284Y-122466377D01*
X143906449Y-122293551D01*
X143863140Y-122258008D01*
X142541996Y-120936865D01*
X142506449Y-120893551D01*
X142333623Y-120751716D01*
X142136447Y-120646324D01*
X141922499Y-120581423D01*
X141755752Y-120565000D01*
X141755751Y-120565000D01*
X141700000Y-120559509D01*
X141644249Y-120565000D01*
X131938072Y-120565000D01*
X131938072Y-120300000D01*
X131925812Y-120175518D01*
X131889502Y-120055820D01*
X131832939Y-119950000D01*
X131889502Y-119844180D01*
X131925812Y-119724482D01*
X131938072Y-119600000D01*
X131938072Y-116800000D01*
X131925812Y-116675518D01*
X131889502Y-116555820D01*
X131830537Y-116445506D01*
X131751185Y-116348815D01*
X131654494Y-116269463D01*
X131544180Y-116210498D01*
X131424482Y-116174188D01*
X131300000Y-116161928D01*
X128500000Y-116161928D01*
X128375518Y-116174188D01*
X128255820Y-116210498D01*
X128145506Y-116269463D01*
X128048815Y-116348815D01*
X127969463Y-116445506D01*
X127910498Y-116555820D01*
X127874188Y-116675518D01*
X127861928Y-116800000D01*
X55710000Y-116800000D01*
X55710000Y-112000000D01*
X127861928Y-112000000D01*
X127874188Y-112124482D01*
X127910498Y-112244180D01*
X127969463Y-112354494D01*
X128048815Y-112451185D01*
X128145506Y-112530537D01*
X128255820Y-112589502D01*
X128375518Y-112625812D01*
X128500000Y-112638072D01*
X129614250Y-112635000D01*
X129773000Y-112476250D01*
X129773000Y-110727000D01*
X130027000Y-110727000D01*
X130027000Y-112476250D01*
X130185750Y-112635000D01*
X131300000Y-112638072D01*
X131424482Y-112625812D01*
X131544180Y-112589502D01*
X131654494Y-112530537D01*
X131751185Y-112451185D01*
X131830537Y-112354494D01*
X131889502Y-112244180D01*
X131925812Y-112124482D01*
X131938072Y-112000000D01*
X131935000Y-110885750D01*
X131776250Y-110727000D01*
X130027000Y-110727000D01*
X129773000Y-110727000D01*
X128023750Y-110727000D01*
X127865000Y-110885750D01*
X127861928Y-112000000D01*
X55710000Y-112000000D01*
X55710000Y-108600000D01*
X127861928Y-108600000D01*
X127874188Y-108724482D01*
X127910498Y-108844180D01*
X127940335Y-108900000D01*
X127910498Y-108955820D01*
X127874188Y-109075518D01*
X127861928Y-109200000D01*
X127865000Y-110314250D01*
X128023750Y-110473000D01*
X129773000Y-110473000D01*
X129773000Y-107327000D01*
X130027000Y-107327000D01*
X130027000Y-110473000D01*
X131776250Y-110473000D01*
X131935000Y-110314250D01*
X131938072Y-109200000D01*
X131925812Y-109075518D01*
X131889502Y-108955820D01*
X131859665Y-108900000D01*
X150761928Y-108900000D01*
X150774188Y-109024482D01*
X150810498Y-109144180D01*
X150869463Y-109254494D01*
X150948815Y-109351185D01*
X151045506Y-109430537D01*
X151155820Y-109489502D01*
X151275518Y-109525812D01*
X151400000Y-109538072D01*
X152514250Y-109535000D01*
X152673000Y-109376250D01*
X152673000Y-107627000D01*
X150923750Y-107627000D01*
X150765000Y-107785750D01*
X150761928Y-108900000D01*
X131859665Y-108900000D01*
X131889502Y-108844180D01*
X131925812Y-108724482D01*
X131938072Y-108600000D01*
X131935000Y-107485750D01*
X131776250Y-107327000D01*
X130027000Y-107327000D01*
X129773000Y-107327000D01*
X128023750Y-107327000D01*
X127865000Y-107485750D01*
X127861928Y-108600000D01*
X55710000Y-108600000D01*
X55710000Y-104669609D01*
X58509997Y-104669609D01*
X58696073Y-105010766D01*
X59113409Y-105226513D01*
X59564815Y-105356696D01*
X60032946Y-105396313D01*
X60499811Y-105343842D01*
X60947468Y-105201297D01*
X61303927Y-105010766D01*
X61490003Y-104669609D01*
X60000000Y-103179605D01*
X58509997Y-104669609D01*
X55710000Y-104669609D01*
X55710000Y-103032946D01*
X57603687Y-103032946D01*
X57656158Y-103499811D01*
X57798703Y-103947468D01*
X57989234Y-104303927D01*
X58330391Y-104490003D01*
X59820395Y-103000000D01*
X60179605Y-103000000D01*
X61669609Y-104490003D01*
X62010766Y-104303927D01*
X62226513Y-103886591D01*
X62356696Y-103435185D01*
X62396313Y-102967054D01*
X62375276Y-102779872D01*
X65510000Y-102779872D01*
X65510000Y-103220128D01*
X65595890Y-103651925D01*
X65764369Y-104058669D01*
X66008962Y-104424729D01*
X66320271Y-104736038D01*
X66686331Y-104980631D01*
X67093075Y-105149110D01*
X67524872Y-105235000D01*
X67965128Y-105235000D01*
X68101313Y-105207911D01*
X71165000Y-105207911D01*
X71165000Y-105392089D01*
X71200932Y-105572729D01*
X71271414Y-105742889D01*
X71373738Y-105896028D01*
X71503972Y-106026262D01*
X71657111Y-106128586D01*
X71827271Y-106199068D01*
X71904216Y-106214374D01*
X72617658Y-106927815D01*
X72642236Y-106957764D01*
X72672184Y-106982342D01*
X72672187Y-106982345D01*
X72688860Y-106996028D01*
X72761767Y-107055862D01*
X72893478Y-107126262D01*
X72898140Y-107128754D01*
X73046113Y-107173642D01*
X73121026Y-107181020D01*
X73161439Y-107185000D01*
X73161444Y-107185000D01*
X73200000Y-107188797D01*
X73238555Y-107185000D01*
X120191880Y-107185000D01*
X120257111Y-107228586D01*
X120427271Y-107299068D01*
X120607911Y-107335000D01*
X120792089Y-107335000D01*
X120972729Y-107299068D01*
X121142889Y-107228586D01*
X121296028Y-107126262D01*
X121426262Y-106996028D01*
X121528586Y-106842889D01*
X121599068Y-106672729D01*
X121635000Y-106492089D01*
X121635000Y-106307911D01*
X121630443Y-106285000D01*
X126091880Y-106285000D01*
X126157111Y-106328586D01*
X126327271Y-106399068D01*
X126507911Y-106435000D01*
X126692089Y-106435000D01*
X126872729Y-106399068D01*
X127042889Y-106328586D01*
X127196028Y-106226262D01*
X127326262Y-106096028D01*
X127428586Y-105942889D01*
X127487772Y-105800000D01*
X127861928Y-105800000D01*
X127865000Y-106914250D01*
X128023750Y-107073000D01*
X129773000Y-107073000D01*
X129773000Y-107053000D01*
X130027000Y-107053000D01*
X130027000Y-107073000D01*
X131776250Y-107073000D01*
X131935000Y-106914250D01*
X131937244Y-106100000D01*
X150761928Y-106100000D01*
X150765000Y-107214250D01*
X150923750Y-107373000D01*
X152673000Y-107373000D01*
X152673000Y-105623750D01*
X152514250Y-105465000D01*
X151400000Y-105461928D01*
X151275518Y-105474188D01*
X151155820Y-105510498D01*
X151045506Y-105569463D01*
X150948815Y-105648815D01*
X150869463Y-105745506D01*
X150810498Y-105855820D01*
X150774188Y-105975518D01*
X150761928Y-106100000D01*
X131937244Y-106100000D01*
X131938072Y-105800000D01*
X131925812Y-105675518D01*
X131889502Y-105555820D01*
X131830537Y-105445506D01*
X131783402Y-105388072D01*
X133750000Y-105388072D01*
X133874482Y-105375812D01*
X133994180Y-105339502D01*
X134104494Y-105280537D01*
X134201185Y-105201185D01*
X134280537Y-105104494D01*
X134339502Y-104994180D01*
X134375812Y-104874482D01*
X134388072Y-104750000D01*
X134388072Y-101250000D01*
X134375812Y-101125518D01*
X134339502Y-101005820D01*
X134280537Y-100895506D01*
X134201185Y-100798815D01*
X134104494Y-100719463D01*
X133994180Y-100660498D01*
X133874482Y-100624188D01*
X133750000Y-100611928D01*
X130250000Y-100611928D01*
X130125518Y-100624188D01*
X130005820Y-100660498D01*
X129895506Y-100719463D01*
X129798815Y-100798815D01*
X129719463Y-100895506D01*
X129660498Y-101005820D01*
X129624188Y-101125518D01*
X129611928Y-101250000D01*
X129611928Y-104750000D01*
X129624188Y-104874482D01*
X129660498Y-104994180D01*
X129719463Y-105104494D01*
X129772998Y-105169727D01*
X129772998Y-105323748D01*
X129614250Y-105165000D01*
X128500000Y-105161928D01*
X128375518Y-105174188D01*
X128255820Y-105210498D01*
X128145506Y-105269463D01*
X128048815Y-105348815D01*
X127969463Y-105445506D01*
X127910498Y-105555820D01*
X127874188Y-105675518D01*
X127861928Y-105800000D01*
X127487772Y-105800000D01*
X127499068Y-105772729D01*
X127535000Y-105592089D01*
X127535000Y-105407911D01*
X127499068Y-105227271D01*
X127428586Y-105057111D01*
X127326262Y-104903972D01*
X127196028Y-104773738D01*
X127042889Y-104671414D01*
X126872729Y-104600932D01*
X126692089Y-104565000D01*
X126507911Y-104565000D01*
X126327271Y-104600932D01*
X126157111Y-104671414D01*
X126091880Y-104715000D01*
X124800767Y-104715000D01*
X125091038Y-104424729D01*
X125335631Y-104058669D01*
X125504110Y-103651925D01*
X125590000Y-103220128D01*
X125590000Y-102779872D01*
X125504110Y-102348075D01*
X125335631Y-101941331D01*
X125091038Y-101575271D01*
X124779729Y-101263962D01*
X124413669Y-101019369D01*
X124006925Y-100850890D01*
X123575128Y-100765000D01*
X123134872Y-100765000D01*
X122703075Y-100850890D01*
X122296331Y-101019369D01*
X121930271Y-101263962D01*
X121618962Y-101575271D01*
X121374369Y-101941331D01*
X121205890Y-102348075D01*
X121120000Y-102779872D01*
X121120000Y-103220128D01*
X121205890Y-103651925D01*
X121374369Y-104058669D01*
X121618962Y-104424729D01*
X121909233Y-104715000D01*
X100035000Y-104715000D01*
X100035000Y-104607911D01*
X99999068Y-104427271D01*
X99928586Y-104257111D01*
X99826262Y-104103972D01*
X99696028Y-103973738D01*
X99542889Y-103871414D01*
X99372729Y-103800932D01*
X99192089Y-103765000D01*
X99007911Y-103765000D01*
X98827271Y-103800932D01*
X98657111Y-103871414D01*
X98591880Y-103915000D01*
X96692634Y-103915000D01*
X96772729Y-103899068D01*
X96942889Y-103828586D01*
X97096028Y-103726262D01*
X97226262Y-103596028D01*
X97328586Y-103442889D01*
X97399068Y-103272729D01*
X97435000Y-103092089D01*
X97435000Y-102960000D01*
X111554465Y-102960000D01*
X111657111Y-103028586D01*
X111827271Y-103099068D01*
X112007911Y-103135000D01*
X112192089Y-103135000D01*
X112372729Y-103099068D01*
X112542889Y-103028586D01*
X112696028Y-102926262D01*
X112826262Y-102796028D01*
X112928586Y-102642889D01*
X112999068Y-102472729D01*
X113035000Y-102292089D01*
X113035000Y-102107911D01*
X113030466Y-102085117D01*
X113124276Y-102034974D01*
X113240001Y-101940001D01*
X113263803Y-101910998D01*
X114011004Y-101163798D01*
X114040001Y-101140001D01*
X114134974Y-101024276D01*
X114205546Y-100892247D01*
X114249003Y-100748986D01*
X114260000Y-100637333D01*
X114260000Y-100637323D01*
X114263676Y-100600000D01*
X114260000Y-100562677D01*
X114260000Y-100545535D01*
X114328586Y-100442889D01*
X114399068Y-100272729D01*
X114435000Y-100092089D01*
X114435000Y-99907911D01*
X114399068Y-99727271D01*
X114328586Y-99557111D01*
X114226262Y-99403972D01*
X114096028Y-99273738D01*
X113942889Y-99171414D01*
X113772729Y-99100932D01*
X113592089Y-99065000D01*
X113407911Y-99065000D01*
X113227271Y-99100932D01*
X113057111Y-99171414D01*
X112903972Y-99273738D01*
X112773738Y-99403972D01*
X112671414Y-99557111D01*
X112600932Y-99727271D01*
X112568814Y-99888737D01*
X112542889Y-99871414D01*
X112372729Y-99800932D01*
X112192089Y-99765000D01*
X112113812Y-99765000D01*
X112128586Y-99742889D01*
X112199068Y-99572729D01*
X112235000Y-99392089D01*
X112235000Y-99207911D01*
X112199068Y-99027271D01*
X112128586Y-98857111D01*
X112026262Y-98703972D01*
X111896028Y-98573738D01*
X111742889Y-98471414D01*
X111572729Y-98400932D01*
X111392089Y-98365000D01*
X111207911Y-98365000D01*
X111027271Y-98400932D01*
X110857111Y-98471414D01*
X110703972Y-98573738D01*
X110573738Y-98703972D01*
X110471414Y-98857111D01*
X110400932Y-99027271D01*
X110398400Y-99040000D01*
X99025470Y-99040000D01*
X99035000Y-98992089D01*
X99035000Y-98807911D01*
X98999068Y-98627271D01*
X98928586Y-98457111D01*
X98826262Y-98303972D01*
X98696028Y-98173738D01*
X98542889Y-98071414D01*
X98372729Y-98000932D01*
X98192089Y-97965000D01*
X98007911Y-97965000D01*
X97827271Y-98000932D01*
X97657111Y-98071414D01*
X97591880Y-98115000D01*
X87625158Y-98115000D01*
X87114374Y-97604216D01*
X87099068Y-97527271D01*
X87028586Y-97357111D01*
X86926262Y-97203972D01*
X86796028Y-97073738D01*
X86642889Y-96971414D01*
X86472729Y-96900932D01*
X86292089Y-96865000D01*
X86107911Y-96865000D01*
X85927271Y-96900932D01*
X85757111Y-96971414D01*
X85603972Y-97073738D01*
X85473738Y-97203972D01*
X85371414Y-97357111D01*
X85300932Y-97527271D01*
X85265000Y-97707911D01*
X85265000Y-97892089D01*
X85300932Y-98072729D01*
X85371414Y-98242889D01*
X85473738Y-98396028D01*
X85603972Y-98526262D01*
X85757111Y-98628586D01*
X85927271Y-98699068D01*
X86004216Y-98714374D01*
X86329842Y-99040000D01*
X77045535Y-99040000D01*
X76942889Y-98971414D01*
X76772729Y-98900932D01*
X76592089Y-98865000D01*
X76407911Y-98865000D01*
X76227271Y-98900932D01*
X76057111Y-98971414D01*
X75903972Y-99073738D01*
X75773738Y-99203972D01*
X75671414Y-99357111D01*
X75600932Y-99527271D01*
X75565000Y-99707911D01*
X75565000Y-99892089D01*
X75600932Y-100072729D01*
X75671414Y-100242889D01*
X75768908Y-100388799D01*
X75742889Y-100371414D01*
X75572729Y-100300932D01*
X75392089Y-100265000D01*
X75207911Y-100265000D01*
X75027271Y-100300932D01*
X74857111Y-100371414D01*
X74703972Y-100473738D01*
X74573738Y-100603972D01*
X74471414Y-100757111D01*
X74400932Y-100927271D01*
X74365000Y-101107911D01*
X74365000Y-101292089D01*
X74400932Y-101472729D01*
X74471414Y-101642889D01*
X74573738Y-101796028D01*
X74703972Y-101926262D01*
X74857111Y-102028586D01*
X75027271Y-102099068D01*
X75148351Y-102123153D01*
X75736201Y-102711003D01*
X75759999Y-102740001D01*
X75788997Y-102763799D01*
X75875724Y-102834974D01*
X76007753Y-102905546D01*
X76151014Y-102949003D01*
X76300000Y-102963677D01*
X76337333Y-102960000D01*
X81874530Y-102960000D01*
X81865000Y-103007911D01*
X81865000Y-103192089D01*
X81900932Y-103372729D01*
X81971414Y-103542889D01*
X82073738Y-103696028D01*
X82203972Y-103826262D01*
X82357111Y-103928586D01*
X82527271Y-103999068D01*
X82707911Y-104035000D01*
X82892089Y-104035000D01*
X83072729Y-103999068D01*
X83242889Y-103928586D01*
X83308120Y-103885000D01*
X87236778Y-103885000D01*
X87103972Y-103973738D01*
X86973738Y-104103972D01*
X86871414Y-104257111D01*
X86800932Y-104427271D01*
X86765000Y-104607911D01*
X86765000Y-104715000D01*
X74725158Y-104715000D01*
X73814374Y-103804216D01*
X73799068Y-103727271D01*
X73728586Y-103557111D01*
X73626262Y-103403972D01*
X73496028Y-103273738D01*
X73342889Y-103171414D01*
X73172729Y-103100932D01*
X72992089Y-103065000D01*
X72807911Y-103065000D01*
X72627271Y-103100932D01*
X72457111Y-103171414D01*
X72303972Y-103273738D01*
X72173738Y-103403972D01*
X72071414Y-103557111D01*
X72000932Y-103727271D01*
X71965000Y-103907911D01*
X71965000Y-104092089D01*
X72000932Y-104272729D01*
X72039152Y-104365000D01*
X72007911Y-104365000D01*
X71827271Y-104400932D01*
X71657111Y-104471414D01*
X71503972Y-104573738D01*
X71373738Y-104703972D01*
X71271414Y-104857111D01*
X71200932Y-105027271D01*
X71165000Y-105207911D01*
X68101313Y-105207911D01*
X68396925Y-105149110D01*
X68803669Y-104980631D01*
X69169729Y-104736038D01*
X69481038Y-104424729D01*
X69725631Y-104058669D01*
X69894110Y-103651925D01*
X69980000Y-103220128D01*
X69980000Y-102779872D01*
X69894110Y-102348075D01*
X69725631Y-101941331D01*
X69481038Y-101575271D01*
X69169729Y-101263962D01*
X68803669Y-101019369D01*
X68396925Y-100850890D01*
X67965128Y-100765000D01*
X67524872Y-100765000D01*
X67093075Y-100850890D01*
X66686331Y-101019369D01*
X66320271Y-101263962D01*
X66008962Y-101575271D01*
X65764369Y-101941331D01*
X65595890Y-102348075D01*
X65510000Y-102779872D01*
X62375276Y-102779872D01*
X62343842Y-102500189D01*
X62201297Y-102052532D01*
X62010766Y-101696073D01*
X61669609Y-101509997D01*
X60179605Y-103000000D01*
X59820395Y-103000000D01*
X58330391Y-101509997D01*
X57989234Y-101696073D01*
X57773487Y-102113409D01*
X57643304Y-102564815D01*
X57603687Y-103032946D01*
X55710000Y-103032946D01*
X55710000Y-101330391D01*
X58509997Y-101330391D01*
X60000000Y-102820395D01*
X61490003Y-101330391D01*
X61303927Y-100989234D01*
X60886591Y-100773487D01*
X60435185Y-100643304D01*
X59967054Y-100603687D01*
X59500189Y-100656158D01*
X59052532Y-100798703D01*
X58696073Y-100989234D01*
X58509997Y-101330391D01*
X55710000Y-101330391D01*
X55710000Y-95907911D01*
X86765000Y-95907911D01*
X86765000Y-96092089D01*
X86800932Y-96272729D01*
X86871414Y-96442889D01*
X86973738Y-96596028D01*
X87103972Y-96726262D01*
X87257111Y-96828586D01*
X87427271Y-96899068D01*
X87607911Y-96935000D01*
X87792089Y-96935000D01*
X87972729Y-96899068D01*
X88142889Y-96828586D01*
X88296028Y-96726262D01*
X88426262Y-96596028D01*
X88528586Y-96442889D01*
X88599068Y-96272729D01*
X88635000Y-96092089D01*
X88635000Y-95907911D01*
X88599068Y-95727271D01*
X88555614Y-95622364D01*
X88672729Y-95599068D01*
X88842889Y-95528586D01*
X88908120Y-95485000D01*
X99691880Y-95485000D01*
X99757111Y-95528586D01*
X99927271Y-95599068D01*
X100107911Y-95635000D01*
X100292089Y-95635000D01*
X100472729Y-95599068D01*
X100642889Y-95528586D01*
X100796028Y-95426262D01*
X100926262Y-95296028D01*
X101028586Y-95142889D01*
X101099068Y-94972729D01*
X101135000Y-94792089D01*
X101135000Y-94607911D01*
X101099068Y-94427271D01*
X101029126Y-94258415D01*
X101127271Y-94299068D01*
X101307911Y-94335000D01*
X101492089Y-94335000D01*
X101672729Y-94299068D01*
X101842889Y-94228586D01*
X101996028Y-94126262D01*
X102126262Y-93996028D01*
X102228586Y-93842889D01*
X102299068Y-93672729D01*
X102335000Y-93492089D01*
X102335000Y-93307911D01*
X102299068Y-93127271D01*
X102228586Y-92957111D01*
X102126262Y-92803972D01*
X101996028Y-92673738D01*
X101842889Y-92571414D01*
X101672729Y-92500932D01*
X101492089Y-92465000D01*
X101307911Y-92465000D01*
X101127271Y-92500932D01*
X100957111Y-92571414D01*
X100891880Y-92615000D01*
X88808120Y-92615000D01*
X88742889Y-92571414D01*
X88572729Y-92500932D01*
X88392089Y-92465000D01*
X88207911Y-92465000D01*
X88027271Y-92500932D01*
X87857111Y-92571414D01*
X87703972Y-92673738D01*
X87573738Y-92803972D01*
X87471414Y-92957111D01*
X87400932Y-93127271D01*
X87365000Y-93307911D01*
X87365000Y-93492089D01*
X87400932Y-93672729D01*
X87471414Y-93842889D01*
X87573738Y-93996028D01*
X87677710Y-94100000D01*
X87673738Y-94103972D01*
X87571414Y-94257111D01*
X87500932Y-94427271D01*
X87465000Y-94607911D01*
X87465000Y-94792089D01*
X87500932Y-94972729D01*
X87544386Y-95077636D01*
X87427271Y-95100932D01*
X87257111Y-95171414D01*
X87103972Y-95273738D01*
X86973738Y-95403972D01*
X86871414Y-95557111D01*
X86800932Y-95727271D01*
X86765000Y-95907911D01*
X55710000Y-95907911D01*
X55710000Y-87098061D01*
X87965000Y-87098061D01*
X87965000Y-87301939D01*
X88004774Y-87501898D01*
X88082795Y-87690256D01*
X88196063Y-87859774D01*
X88340226Y-88003937D01*
X88509744Y-88117205D01*
X88698102Y-88195226D01*
X88836023Y-88222660D01*
X88804774Y-88298102D01*
X88765000Y-88498061D01*
X88765000Y-88701939D01*
X88804774Y-88901898D01*
X88882795Y-89090256D01*
X88996063Y-89259774D01*
X89140226Y-89403937D01*
X89309744Y-89517205D01*
X89498102Y-89595226D01*
X89698061Y-89635000D01*
X89901939Y-89635000D01*
X90101898Y-89595226D01*
X90290256Y-89517205D01*
X90459774Y-89403937D01*
X90603937Y-89259774D01*
X90717205Y-89090256D01*
X90795226Y-88901898D01*
X90835000Y-88701939D01*
X90835000Y-88607911D01*
X97365000Y-88607911D01*
X97365000Y-88792089D01*
X97400932Y-88972729D01*
X97471414Y-89142889D01*
X97573738Y-89296028D01*
X97703972Y-89426262D01*
X97857111Y-89528586D01*
X98027271Y-89599068D01*
X98207911Y-89635000D01*
X98392089Y-89635000D01*
X98572729Y-89599068D01*
X98742889Y-89528586D01*
X98808120Y-89485000D01*
X101891880Y-89485000D01*
X101957111Y-89528586D01*
X102127271Y-89599068D01*
X102307911Y-89635000D01*
X102492089Y-89635000D01*
X102672729Y-89599068D01*
X102842889Y-89528586D01*
X102996028Y-89426262D01*
X103126262Y-89296028D01*
X103228586Y-89142889D01*
X103299068Y-88972729D01*
X103335000Y-88792089D01*
X103335000Y-88607911D01*
X103299068Y-88427271D01*
X103228586Y-88257111D01*
X103126262Y-88103972D01*
X102996028Y-87973738D01*
X102842889Y-87871414D01*
X102672729Y-87800932D01*
X102492089Y-87765000D01*
X102307911Y-87765000D01*
X102127271Y-87800932D01*
X101957111Y-87871414D01*
X101891880Y-87915000D01*
X98808120Y-87915000D01*
X98742889Y-87871414D01*
X98572729Y-87800932D01*
X98392089Y-87765000D01*
X98207911Y-87765000D01*
X98027271Y-87800932D01*
X97857111Y-87871414D01*
X97703972Y-87973738D01*
X97573738Y-88103972D01*
X97471414Y-88257111D01*
X97400932Y-88427271D01*
X97365000Y-88607911D01*
X90835000Y-88607911D01*
X90835000Y-88498061D01*
X90795226Y-88298102D01*
X90717205Y-88109744D01*
X90603937Y-87940226D01*
X90459774Y-87796063D01*
X90290256Y-87682795D01*
X90101898Y-87604774D01*
X89963977Y-87577340D01*
X89995226Y-87501898D01*
X90035000Y-87301939D01*
X90035000Y-87098061D01*
X89995226Y-86898102D01*
X89917205Y-86709744D01*
X89803937Y-86540226D01*
X89659774Y-86396063D01*
X89490256Y-86282795D01*
X89301898Y-86204774D01*
X89101939Y-86165000D01*
X88898061Y-86165000D01*
X88698102Y-86204774D01*
X88509744Y-86282795D01*
X88340226Y-86396063D01*
X88196063Y-86540226D01*
X88082795Y-86709744D01*
X88004774Y-86898102D01*
X87965000Y-87098061D01*
X55710000Y-87098061D01*
X55710000Y-80031618D01*
X55746532Y-79622285D01*
X56165000Y-79622285D01*
X56165000Y-80377715D01*
X56312377Y-81118628D01*
X56601467Y-81816554D01*
X57021161Y-82444670D01*
X57555330Y-82978839D01*
X58183446Y-83398533D01*
X58881372Y-83687623D01*
X59622285Y-83835000D01*
X60377715Y-83835000D01*
X61118628Y-83687623D01*
X61816554Y-83398533D01*
X62444670Y-82978839D01*
X62978839Y-82444670D01*
X63398533Y-81816554D01*
X63687623Y-81118628D01*
X63835000Y-80377715D01*
X63835000Y-79622285D01*
X63687623Y-78881372D01*
X63398533Y-78183446D01*
X62978839Y-77555330D01*
X62444670Y-77021161D01*
X61816554Y-76601467D01*
X61118628Y-76312377D01*
X60377715Y-76165000D01*
X59622285Y-76165000D01*
X58881372Y-76312377D01*
X58183446Y-76601467D01*
X57555330Y-77021161D01*
X57021161Y-77555330D01*
X56601467Y-78183446D01*
X56312377Y-78881372D01*
X56165000Y-79622285D01*
X55746532Y-79622285D01*
X55780578Y-79240808D01*
X55981705Y-78505611D01*
X56309846Y-77817649D01*
X56754628Y-77198669D01*
X57301988Y-76668239D01*
X57934639Y-76243116D01*
X58632561Y-75936749D01*
X59379183Y-75757501D01*
X60026030Y-75710000D01*
X127257012Y-75710000D01*
X127278814Y-75819606D01*
G37*
X127278814Y-75819606D02*
X127354950Y-76003414D01*
X127465482Y-76168837D01*
X127606163Y-76309518D01*
X127771586Y-76420050D01*
X127880105Y-76465000D01*
X107491018Y-76465000D01*
X107449999Y-76460960D01*
X107408981Y-76465000D01*
X107286311Y-76477082D01*
X107128913Y-76524828D01*
X106983854Y-76602364D01*
X106856709Y-76706709D01*
X106830554Y-76738579D01*
X106438574Y-77130559D01*
X106406710Y-77156709D01*
X106336085Y-77242766D01*
X106302364Y-77283855D01*
X106224828Y-77428914D01*
X106199646Y-77511928D01*
X106150000Y-77511928D01*
X106025518Y-77524188D01*
X105905820Y-77560498D01*
X105795506Y-77619463D01*
X105698815Y-77698815D01*
X105619463Y-77795506D01*
X105560498Y-77905820D01*
X105524188Y-78025518D01*
X105511928Y-78150000D01*
X105511928Y-78165000D01*
X95013285Y-78165000D01*
X94890256Y-78082795D01*
X94701898Y-78004774D01*
X94501939Y-77965000D01*
X94298061Y-77965000D01*
X94098102Y-78004774D01*
X93909744Y-78082795D01*
X93740226Y-78196063D01*
X93596063Y-78340226D01*
X93482795Y-78509744D01*
X93404774Y-78698102D01*
X93365000Y-78898061D01*
X93365000Y-79101939D01*
X93404774Y-79301898D01*
X93482795Y-79490256D01*
X93596063Y-79659774D01*
X93740226Y-79803937D01*
X93909744Y-79917205D01*
X94098102Y-79995226D01*
X94298061Y-80035000D01*
X94501939Y-80035000D01*
X94701898Y-79995226D01*
X94890256Y-79917205D01*
X95013285Y-79835000D01*
X105511928Y-79835000D01*
X105511928Y-79850000D01*
X105524188Y-79974482D01*
X105560498Y-80094180D01*
X105584990Y-80140000D01*
X74045537Y-80140001D01*
X73942889Y-80071414D01*
X73772729Y-80000932D01*
X73592089Y-79965000D01*
X73407911Y-79965000D01*
X73227271Y-80000932D01*
X73057111Y-80071414D01*
X72903972Y-80173738D01*
X72773738Y-80303972D01*
X72671414Y-80457111D01*
X72600932Y-80627271D01*
X72565000Y-80807911D01*
X72565000Y-80992089D01*
X72600932Y-81172729D01*
X72671414Y-81342889D01*
X72773738Y-81496028D01*
X72903972Y-81626262D01*
X73057111Y-81728586D01*
X73227271Y-81799068D01*
X73407911Y-81835000D01*
X73592089Y-81835000D01*
X73772729Y-81799068D01*
X73942889Y-81728586D01*
X74045535Y-81660000D01*
X95894200Y-81659999D01*
X95840226Y-81696063D01*
X95696063Y-81840226D01*
X95595987Y-81990000D01*
X90703711Y-81990000D01*
X90659774Y-81946063D01*
X90490256Y-81832795D01*
X90301898Y-81754774D01*
X90101939Y-81715000D01*
X89898061Y-81715000D01*
X89698102Y-81754774D01*
X89509744Y-81832795D01*
X89340226Y-81946063D01*
X89196063Y-82090226D01*
X89082795Y-82259744D01*
X89004774Y-82448102D01*
X88965000Y-82648061D01*
X88965000Y-82851939D01*
X89004774Y-83051898D01*
X89082795Y-83240256D01*
X89196063Y-83409774D01*
X89340226Y-83553937D01*
X89466888Y-83638570D01*
X89465000Y-83648061D01*
X89465000Y-83851939D01*
X89504774Y-84051898D01*
X89582795Y-84240256D01*
X89696063Y-84409774D01*
X89840226Y-84553937D01*
X90009744Y-84667205D01*
X90198102Y-84745226D01*
X90398061Y-84785000D01*
X90601939Y-84785000D01*
X90801898Y-84745226D01*
X90990256Y-84667205D01*
X91159774Y-84553937D01*
X91203711Y-84510000D01*
X95796289Y-84510000D01*
X95840226Y-84553937D01*
X96009744Y-84667205D01*
X96198102Y-84745226D01*
X96398061Y-84785000D01*
X96601939Y-84785000D01*
X96801898Y-84745226D01*
X96990256Y-84667205D01*
X97159774Y-84553937D01*
X97303937Y-84409774D01*
X97417205Y-84240256D01*
X97495226Y-84051898D01*
X97535000Y-83851939D01*
X97535000Y-83648061D01*
X97495226Y-83448102D01*
X97417205Y-83259744D01*
X97327172Y-83125000D01*
X97417205Y-82990256D01*
X97495226Y-82801898D01*
X97535000Y-82601939D01*
X97535000Y-82398061D01*
X97495226Y-82198102D01*
X97417205Y-82009744D01*
X97303937Y-81840226D01*
X97159774Y-81696063D01*
X97105800Y-81659999D01*
X101494422Y-81659999D01*
X101465000Y-81807913D01*
X101465000Y-81992091D01*
X101500932Y-82172731D01*
X101571414Y-82342891D01*
X101673738Y-82496030D01*
X101803972Y-82626264D01*
X101957111Y-82728588D01*
X102127271Y-82799070D01*
X102307911Y-82835002D01*
X102492089Y-82835002D01*
X102672729Y-82799070D01*
X102842889Y-82728588D01*
X102908120Y-82685002D01*
X124861445Y-82685002D01*
X124899998Y-82688799D01*
X124938551Y-82685002D01*
X124938559Y-82685002D01*
X125053885Y-82673643D01*
X125201858Y-82628756D01*
X125338231Y-82555864D01*
X125457762Y-82457766D01*
X125482345Y-82427813D01*
X125795784Y-82114374D01*
X125872729Y-82099068D01*
X126042889Y-82028586D01*
X126196028Y-81926262D01*
X126326262Y-81796028D01*
X126428586Y-81642889D01*
X126499068Y-81472729D01*
X126535000Y-81292089D01*
X126535000Y-81107911D01*
X126499068Y-80927271D01*
X126429783Y-80760000D01*
X131954465Y-80760000D01*
X132057111Y-80828586D01*
X132227271Y-80899068D01*
X132407911Y-80935000D01*
X132592089Y-80935000D01*
X132772729Y-80899068D01*
X132942889Y-80828586D01*
X133096028Y-80726262D01*
X133226262Y-80596028D01*
X133328586Y-80442889D01*
X133399068Y-80272729D01*
X133435000Y-80092089D01*
X133435000Y-79907911D01*
X133399068Y-79727271D01*
X133328586Y-79557111D01*
X133226262Y-79403972D01*
X133096028Y-79273738D01*
X132942889Y-79171414D01*
X132772729Y-79100932D01*
X132592089Y-79065000D01*
X132407911Y-79065000D01*
X132227271Y-79100932D01*
X132057111Y-79171414D01*
X131954465Y-79240000D01*
X128559540Y-79240000D01*
X128728414Y-79170050D01*
X128893837Y-79059518D01*
X129034518Y-78918837D01*
X129145050Y-78753414D01*
X129221186Y-78569606D01*
X129260000Y-78374476D01*
X129260000Y-78175524D01*
X129251939Y-78135000D01*
X137448061Y-78135000D01*
X137440000Y-78175524D01*
X137440000Y-78374476D01*
X137478814Y-78569606D01*
X137554950Y-78753414D01*
X137665482Y-78918837D01*
X137806163Y-79059518D01*
X137971586Y-79170050D01*
X138155394Y-79246186D01*
X138350524Y-79285000D01*
X138549476Y-79285000D01*
X138744606Y-79246186D01*
X138928414Y-79170050D01*
X139093837Y-79059518D01*
X139234518Y-78918837D01*
X139345050Y-78753414D01*
X139421186Y-78569606D01*
X139460000Y-78374476D01*
X139460000Y-78175524D01*
X139451939Y-78135000D01*
X144154133Y-78135000D01*
X145265000Y-79245869D01*
X145265001Y-83786714D01*
X145182795Y-83909744D01*
X145104774Y-84098102D01*
X145065000Y-84298061D01*
X145065000Y-84501939D01*
X145104774Y-84701898D01*
X145182795Y-84890256D01*
X145296063Y-85059774D01*
X145440226Y-85203937D01*
X145609744Y-85317205D01*
X145798102Y-85395226D01*
X145998061Y-85435000D01*
X146201939Y-85435000D01*
X146401898Y-85395226D01*
X146590256Y-85317205D01*
X146759774Y-85203937D01*
X146903937Y-85059774D01*
X147017205Y-84890256D01*
X147095226Y-84701898D01*
X147135000Y-84501939D01*
X147135000Y-84298061D01*
X147095226Y-84098102D01*
X147017205Y-83909744D01*
X146935000Y-83786715D01*
X146935000Y-82315721D01*
X147021161Y-82444670D01*
X147555330Y-82978839D01*
X148183446Y-83398533D01*
X148881372Y-83687623D01*
X149622285Y-83835000D01*
X150377715Y-83835000D01*
X151118628Y-83687623D01*
X151816554Y-83398533D01*
X152444670Y-82978839D01*
X152978839Y-82444670D01*
X153398533Y-81816554D01*
X153687623Y-81118628D01*
X153835000Y-80377715D01*
X153835000Y-79622285D01*
X153687623Y-78881372D01*
X153398533Y-78183446D01*
X152978839Y-77555330D01*
X152444670Y-77021161D01*
X151816554Y-76601467D01*
X151118628Y-76312377D01*
X150377715Y-76165000D01*
X149622285Y-76165000D01*
X148881372Y-76312377D01*
X148183446Y-76601467D01*
X147555330Y-77021161D01*
X147021161Y-77555330D01*
X146601467Y-78183446D01*
X146590585Y-78209717D01*
X145119446Y-76738579D01*
X145093291Y-76706709D01*
X144966146Y-76602364D01*
X144821087Y-76524828D01*
X144663689Y-76477082D01*
X144541019Y-76465000D01*
X144541018Y-76465000D01*
X144500000Y-76460960D01*
X144458982Y-76465000D01*
X138819895Y-76465000D01*
X138928414Y-76420050D01*
X139093837Y-76309518D01*
X139234518Y-76168837D01*
X139345050Y-76003414D01*
X139421186Y-75819606D01*
X139442988Y-75710000D01*
X149968382Y-75710000D01*
X150759192Y-75780578D01*
X151494389Y-75981705D01*
X152182351Y-76309846D01*
X152801331Y-76754628D01*
X153331761Y-77301988D01*
X153756884Y-77934639D01*
X154063251Y-78632561D01*
X154242499Y-79379183D01*
X154290000Y-80026030D01*
X154290000Y-105470792D01*
X154200000Y-105461928D01*
X153085750Y-105465000D01*
X152927000Y-105623750D01*
X152927000Y-107373000D01*
X152947000Y-107373000D01*
X152947000Y-107627000D01*
X152927000Y-107627000D01*
X152927000Y-109376250D01*
X153085750Y-109535000D01*
X154200000Y-109538072D01*
X154290000Y-109529208D01*
X154290001Y-119670792D01*
X154200000Y-119661928D01*
X151400000Y-119661928D01*
X151275518Y-119674188D01*
X151155820Y-119710498D01*
X151045506Y-119769463D01*
X150948815Y-119848815D01*
X150869463Y-119945506D01*
X150835000Y-120009981D01*
X150835000Y-119427404D01*
X150899068Y-119272729D01*
X150935000Y-119092089D01*
X150935000Y-118907911D01*
X150899068Y-118727271D01*
X150828586Y-118557111D01*
X150726262Y-118403972D01*
X150596028Y-118273738D01*
X150442889Y-118171414D01*
X150272729Y-118100932D01*
X150092089Y-118065000D01*
X149907911Y-118065000D01*
X149727271Y-118100932D01*
X149557111Y-118171414D01*
X149403972Y-118273738D01*
X149273738Y-118403972D01*
X149171414Y-118557111D01*
X149100932Y-118727271D01*
X149065000Y-118907911D01*
X149065000Y-119092089D01*
X149100932Y-119272729D01*
X149165000Y-119427404D01*
X149165001Y-123558981D01*
X149165000Y-132654132D01*
X148238575Y-133580558D01*
X148238570Y-133580562D01*
X148085000Y-133734132D01*
X148085000Y-133478711D01*
X148103937Y-133459774D01*
X148217205Y-133290256D01*
X148295226Y-133101898D01*
X148335000Y-132901939D01*
X148335000Y-132698061D01*
X148295226Y-132498102D01*
X148217205Y-132309744D01*
X148103937Y-132140226D01*
X147959774Y-131996063D01*
X147790256Y-131882795D01*
X147601898Y-131804774D01*
X147401939Y-131765000D01*
X147198061Y-131765000D01*
X146998102Y-131804774D01*
X146809744Y-131882795D01*
X146640226Y-131996063D01*
X146496063Y-132140226D01*
X146382795Y-132309744D01*
X146304774Y-132498102D01*
X146265000Y-132698061D01*
X146265000Y-132901939D01*
X146304774Y-133101898D01*
X146382795Y-133290256D01*
X146496063Y-133459774D01*
X146515001Y-133478712D01*
X146515000Y-133874842D01*
X145174843Y-135215000D01*
X138678711Y-135215000D01*
X138559774Y-135096063D01*
X138390256Y-134982795D01*
X138201898Y-134904774D01*
X138001939Y-134865000D01*
X137798061Y-134865000D01*
X137598102Y-134904774D01*
X137409744Y-134982795D01*
X137240226Y-135096063D01*
X137096063Y-135240226D01*
X136982795Y-135409744D01*
X136904774Y-135598102D01*
X136865000Y-135798061D01*
X136865000Y-136001939D01*
X136904774Y-136201898D01*
X136982795Y-136390256D01*
X137096063Y-136559774D01*
X137240226Y-136703937D01*
X137409744Y-136817205D01*
X137598102Y-136895226D01*
X137798061Y-136935000D01*
X138001939Y-136935000D01*
X138201898Y-136895226D01*
X138390256Y-136817205D01*
X138438454Y-136785000D01*
X145461447Y-136785000D01*
X145500000Y-136788797D01*
X145538553Y-136785000D01*
X145538561Y-136785000D01*
X145653887Y-136773641D01*
X145801860Y-136728754D01*
X145938233Y-136655862D01*
X146057764Y-136557764D01*
X146082347Y-136527810D01*
X146097658Y-136512499D01*
X146196063Y-136659774D01*
X146340226Y-136803937D01*
X146509744Y-136917205D01*
X146698102Y-136995226D01*
X146898061Y-137035000D01*
X147101939Y-137035000D01*
X147301898Y-136995226D01*
X147490256Y-136917205D01*
X147659774Y-136803937D01*
X147803937Y-136659774D01*
X147917205Y-136490256D01*
X147995226Y-136301898D01*
X148024093Y-136156775D01*
X149419438Y-134761430D01*
X149419442Y-134761425D01*
X150561428Y-133619440D01*
X150593291Y-133593291D01*
X150593417Y-133593137D01*
X151815000Y-133593137D01*
X151815000Y-133806863D01*
X151856696Y-134016483D01*
X151938485Y-134213940D01*
X152057225Y-134391647D01*
X152208353Y-134542775D01*
X152386060Y-134661515D01*
X152583517Y-134743304D01*
X152793137Y-134785000D01*
X153006863Y-134785000D01*
X153216483Y-134743304D01*
X153413940Y-134661515D01*
X153591647Y-134542775D01*
X153742775Y-134391647D01*
X153861515Y-134213940D01*
X153943304Y-134016483D01*
X153985000Y-133806863D01*
X153985000Y-133593137D01*
X153943304Y-133383517D01*
X153861515Y-133186060D01*
X153742775Y-133008353D01*
X153591647Y-132857225D01*
X153413940Y-132738485D01*
X153216483Y-132656696D01*
X153006863Y-132615000D01*
X152793137Y-132615000D01*
X152583517Y-132656696D01*
X152386060Y-132738485D01*
X152208353Y-132857225D01*
X152057225Y-133008353D01*
X151938485Y-133186060D01*
X151856696Y-133383517D01*
X151815000Y-133593137D01*
X150593417Y-133593137D01*
X150697636Y-133466146D01*
X150775172Y-133321087D01*
X150822918Y-133163689D01*
X150835000Y-133041019D01*
X150835000Y-133041009D01*
X150839039Y-133000001D01*
X150835000Y-132958993D01*
X150835000Y-126793137D01*
X151815000Y-126793137D01*
X151815000Y-127006863D01*
X151856696Y-127216483D01*
X151938485Y-127413940D01*
X152057225Y-127591647D01*
X152208353Y-127742775D01*
X152386060Y-127861515D01*
X152583517Y-127943304D01*
X152793137Y-127985000D01*
X153006863Y-127985000D01*
X153216483Y-127943304D01*
X153413940Y-127861515D01*
X153591647Y-127742775D01*
X153742775Y-127591647D01*
X153861515Y-127413940D01*
X153943304Y-127216483D01*
X153985000Y-127006863D01*
X153985000Y-126793137D01*
X153943304Y-126583517D01*
X153861515Y-126386060D01*
X153742775Y-126208353D01*
X153591647Y-126057225D01*
X153413940Y-125938485D01*
X153216483Y-125856696D01*
X153006863Y-125815000D01*
X152793137Y-125815000D01*
X152583517Y-125856696D01*
X152386060Y-125938485D01*
X152208353Y-126057225D01*
X152057225Y-126208353D01*
X151938485Y-126386060D01*
X151856696Y-126583517D01*
X151815000Y-126793137D01*
X150835000Y-126793137D01*
X150835000Y-123390019D01*
X150869463Y-123454494D01*
X150948815Y-123551185D01*
X151045506Y-123630537D01*
X151155820Y-123689502D01*
X151275518Y-123725812D01*
X151400000Y-123738072D01*
X154200000Y-123738072D01*
X154290001Y-123729208D01*
X154290001Y-139968370D01*
X154219422Y-140759193D01*
X154018295Y-141494389D01*
X153690152Y-142182355D01*
X153245374Y-142801328D01*
X152698012Y-143331761D01*
X152065362Y-143756883D01*
X151367439Y-144063251D01*
X150620819Y-144242499D01*
X149973970Y-144290000D01*
X136738072Y-144290000D01*
X136738072Y-141450000D01*
X136721008Y-141276746D01*
X136670472Y-141110150D01*
X136588405Y-140956614D01*
X136477962Y-140822038D01*
X136343386Y-140711595D01*
X136189850Y-140629528D01*
X136023254Y-140578992D01*
X135850000Y-140561928D01*
X134850000Y-140561928D01*
X134676746Y-140578992D01*
X134510150Y-140629528D01*
X134356614Y-140711595D01*
X134222038Y-140822038D01*
X134111595Y-140956614D01*
X134029528Y-141110150D01*
X133978992Y-141276746D01*
X133961928Y-141450000D01*
X133961928Y-144290000D01*
X130038072Y-144290000D01*
X130038072Y-141450000D01*
X130021008Y-141276746D01*
X129970472Y-141110150D01*
X129888405Y-140956614D01*
X129777962Y-140822038D01*
X129643386Y-140711595D01*
X129489850Y-140629528D01*
X129323254Y-140578992D01*
X129150000Y-140561928D01*
X128150000Y-140561928D01*
X127976746Y-140578992D01*
X127810150Y-140629528D01*
X127656614Y-140711595D01*
X127522038Y-140822038D01*
X127411595Y-140956614D01*
X127329528Y-141110150D01*
X127278992Y-141276746D01*
X127261928Y-141450000D01*
X127261928Y-144290000D01*
X60031618Y-144290000D01*
X59240807Y-144219422D01*
X58505611Y-144018295D01*
X57817645Y-143690152D01*
X57198672Y-143245374D01*
X56668239Y-142698012D01*
X56243117Y-142065362D01*
X55936749Y-141367439D01*
X55757501Y-140620819D01*
X55710000Y-139973970D01*
X55710000Y-139622285D01*
X56165000Y-139622285D01*
X56165000Y-140377715D01*
X56312377Y-141118628D01*
X56601467Y-141816554D01*
X57021161Y-142444670D01*
X57555330Y-142978839D01*
X58183446Y-143398533D01*
X58881372Y-143687623D01*
X59622285Y-143835000D01*
X60377715Y-143835000D01*
X61118628Y-143687623D01*
X61816554Y-143398533D01*
X62444670Y-142978839D01*
X62978839Y-142444670D01*
X63398533Y-141816554D01*
X63550364Y-141450000D01*
X68371928Y-141450000D01*
X68371928Y-143150000D01*
X68384188Y-143274482D01*
X68420498Y-143394180D01*
X68479463Y-143504494D01*
X68558815Y-143601185D01*
X68655506Y-143680537D01*
X68765820Y-143739502D01*
X68885518Y-143775812D01*
X69010000Y-143788072D01*
X70710000Y-143788072D01*
X70834482Y-143775812D01*
X70954180Y-143739502D01*
X71064494Y-143680537D01*
X71161185Y-143601185D01*
X71240537Y-143504494D01*
X71299502Y-143394180D01*
X71321513Y-143321620D01*
X71453368Y-143453475D01*
X71696589Y-143615990D01*
X71966842Y-143727932D01*
X72253740Y-143785000D01*
X72546260Y-143785000D01*
X72833158Y-143727932D01*
X73103411Y-143615990D01*
X73346632Y-143453475D01*
X73553475Y-143246632D01*
X73675195Y-143064466D01*
X73744822Y-143181355D01*
X73939731Y-143397588D01*
X74173080Y-143571641D01*
X74435901Y-143696825D01*
X74583110Y-143741476D01*
X74813000Y-143620155D01*
X74813000Y-142427000D01*
X75067000Y-142427000D01*
X75067000Y-143620155D01*
X75296890Y-143741476D01*
X75444099Y-143696825D01*
X75706920Y-143571641D01*
X75940269Y-143397588D01*
X76135178Y-143181355D01*
X76284157Y-142931252D01*
X76381481Y-142656891D01*
X76260814Y-142427000D01*
X75067000Y-142427000D01*
X74813000Y-142427000D01*
X74793000Y-142427000D01*
X74793000Y-142173000D01*
X74813000Y-142173000D01*
X74813000Y-140979845D01*
X75067000Y-140979845D01*
X75067000Y-142173000D01*
X76260814Y-142173000D01*
X76381481Y-141943109D01*
X76284157Y-141668748D01*
X76213423Y-141550000D01*
X82611928Y-141550000D01*
X82611928Y-143250000D01*
X82624188Y-143374482D01*
X82660498Y-143494180D01*
X82719463Y-143604494D01*
X82798815Y-143701185D01*
X82895506Y-143780537D01*
X83005820Y-143839502D01*
X83125518Y-143875812D01*
X83250000Y-143888072D01*
X84950000Y-143888072D01*
X85074482Y-143875812D01*
X85194180Y-143839502D01*
X85304494Y-143780537D01*
X85401185Y-143701185D01*
X85480537Y-143604494D01*
X85539502Y-143494180D01*
X85561513Y-143421620D01*
X85693368Y-143553475D01*
X85936589Y-143715990D01*
X86206842Y-143827932D01*
X86493740Y-143885000D01*
X86786260Y-143885000D01*
X87073158Y-143827932D01*
X87343411Y-143715990D01*
X87586632Y-143553475D01*
X87793475Y-143346632D01*
X87915195Y-143164466D01*
X87984822Y-143281355D01*
X88179731Y-143497588D01*
X88413080Y-143671641D01*
X88675901Y-143796825D01*
X88823110Y-143841476D01*
X89053000Y-143720155D01*
X89053000Y-142527000D01*
X89307000Y-142527000D01*
X89307000Y-143720155D01*
X89536890Y-143841476D01*
X89684099Y-143796825D01*
X89946920Y-143671641D01*
X90180269Y-143497588D01*
X90375178Y-143281355D01*
X90524157Y-143031252D01*
X90621481Y-142756891D01*
X90500814Y-142527000D01*
X89307000Y-142527000D01*
X89053000Y-142527000D01*
X89033000Y-142527000D01*
X89033000Y-142273000D01*
X89053000Y-142273000D01*
X89053000Y-141079845D01*
X89307000Y-141079845D01*
X89307000Y-142273000D01*
X90500814Y-142273000D01*
X90621481Y-142043109D01*
X90524157Y-141768748D01*
X90375178Y-141518645D01*
X90313303Y-141450000D01*
X98011928Y-141450000D01*
X98011928Y-143150000D01*
X98024188Y-143274482D01*
X98060498Y-143394180D01*
X98119463Y-143504494D01*
X98198815Y-143601185D01*
X98295506Y-143680537D01*
X98405820Y-143739502D01*
X98525518Y-143775812D01*
X98650000Y-143788072D01*
X100350000Y-143788072D01*
X100474482Y-143775812D01*
X100594180Y-143739502D01*
X100704494Y-143680537D01*
X100801185Y-143601185D01*
X100880537Y-143504494D01*
X100939502Y-143394180D01*
X100961513Y-143321620D01*
X101093368Y-143453475D01*
X101336589Y-143615990D01*
X101606842Y-143727932D01*
X101893740Y-143785000D01*
X102186260Y-143785000D01*
X102473158Y-143727932D01*
X102743411Y-143615990D01*
X102986632Y-143453475D01*
X103193475Y-143246632D01*
X103315195Y-143064466D01*
X103384822Y-143181355D01*
X103579731Y-143397588D01*
X103813080Y-143571641D01*
X104075901Y-143696825D01*
X104223110Y-143741476D01*
X104453000Y-143620155D01*
X104453000Y-142427000D01*
X104433000Y-142427000D01*
X104433000Y-142173000D01*
X104453000Y-142173000D01*
X104453000Y-140979845D01*
X104223110Y-140858524D01*
X104075901Y-140903175D01*
X103813080Y-141028359D01*
X103579731Y-141202412D01*
X103384822Y-141418645D01*
X103315195Y-141535534D01*
X103193475Y-141353368D01*
X102986632Y-141146525D01*
X102743411Y-140984010D01*
X102473158Y-140872068D01*
X102186260Y-140815000D01*
X101893740Y-140815000D01*
X101606842Y-140872068D01*
X101336589Y-140984010D01*
X101093368Y-141146525D01*
X100961513Y-141278380D01*
X100939502Y-141205820D01*
X100880537Y-141095506D01*
X100801185Y-140998815D01*
X100704494Y-140919463D01*
X100594180Y-140860498D01*
X100474482Y-140824188D01*
X100350000Y-140811928D01*
X98650000Y-140811928D01*
X98525518Y-140824188D01*
X98405820Y-140860498D01*
X98295506Y-140919463D01*
X98198815Y-140998815D01*
X98119463Y-141095506D01*
X98060498Y-141205820D01*
X98024188Y-141325518D01*
X98011928Y-141450000D01*
X90313303Y-141450000D01*
X90180269Y-141302412D01*
X89946920Y-141128359D01*
X89684099Y-141003175D01*
X89536890Y-140958524D01*
X89307000Y-141079845D01*
X89053000Y-141079845D01*
X88823110Y-140958524D01*
X88675901Y-141003175D01*
X88413080Y-141128359D01*
X88179731Y-141302412D01*
X87984822Y-141518645D01*
X87915195Y-141635534D01*
X87793475Y-141453368D01*
X87586632Y-141246525D01*
X87343411Y-141084010D01*
X87073158Y-140972068D01*
X86786260Y-140915000D01*
X86493740Y-140915000D01*
X86206842Y-140972068D01*
X85936589Y-141084010D01*
X85693368Y-141246525D01*
X85561513Y-141378380D01*
X85539502Y-141305820D01*
X85480537Y-141195506D01*
X85401185Y-141098815D01*
X85363214Y-141067653D01*
X87295869Y-139135000D01*
X88686715Y-139135000D01*
X88809744Y-139217205D01*
X88998102Y-139295226D01*
X89198061Y-139335000D01*
X89401939Y-139335000D01*
X89601898Y-139295226D01*
X89790256Y-139217205D01*
X89959774Y-139103937D01*
X90103937Y-138959774D01*
X90217205Y-138790256D01*
X90295226Y-138601898D01*
X90335000Y-138401939D01*
X90335000Y-138198061D01*
X90295226Y-137998102D01*
X90217205Y-137809744D01*
X90103937Y-137640226D01*
X89959774Y-137496063D01*
X89790256Y-137382795D01*
X89601898Y-137304774D01*
X89401939Y-137265000D01*
X89198061Y-137265000D01*
X88998102Y-137304774D01*
X88809744Y-137382795D01*
X88686715Y-137465000D01*
X86991018Y-137465000D01*
X86950000Y-137460960D01*
X86908982Y-137465000D01*
X86908981Y-137465000D01*
X86786311Y-137477082D01*
X86635209Y-137522918D01*
X86628913Y-137524828D01*
X86483854Y-137602364D01*
X86391315Y-137678309D01*
X86356709Y-137706709D01*
X86330563Y-137738568D01*
X83538579Y-140530554D01*
X83506709Y-140556709D01*
X83453539Y-140621498D01*
X83402364Y-140683855D01*
X83324828Y-140828914D01*
X83299646Y-140911928D01*
X83250000Y-140911928D01*
X83125518Y-140924188D01*
X83005820Y-140960498D01*
X82895506Y-141019463D01*
X82798815Y-141098815D01*
X82719463Y-141195506D01*
X82660498Y-141305820D01*
X82624188Y-141425518D01*
X82611928Y-141550000D01*
X76213423Y-141550000D01*
X76135178Y-141418645D01*
X75940269Y-141202412D01*
X75706920Y-141028359D01*
X75444099Y-140903175D01*
X75296890Y-140858524D01*
X75067000Y-140979845D01*
X74813000Y-140979845D01*
X74583110Y-140858524D01*
X74435901Y-140903175D01*
X74173080Y-141028359D01*
X73939731Y-141202412D01*
X73744822Y-141418645D01*
X73675195Y-141535534D01*
X73553475Y-141353368D01*
X73346632Y-141146525D01*
X73103411Y-140984010D01*
X72833158Y-140872068D01*
X72546260Y-140815000D01*
X72253740Y-140815000D01*
X71966842Y-140872068D01*
X71696589Y-140984010D01*
X71453368Y-141146525D01*
X71321513Y-141278380D01*
X71299502Y-141205820D01*
X71240537Y-141095506D01*
X71161185Y-140998815D01*
X71064494Y-140919463D01*
X70954180Y-140860498D01*
X70834482Y-140824188D01*
X70710000Y-140811928D01*
X69010000Y-140811928D01*
X68885518Y-140824188D01*
X68765820Y-140860498D01*
X68655506Y-140919463D01*
X68558815Y-140998815D01*
X68479463Y-141095506D01*
X68420498Y-141205820D01*
X68384188Y-141325518D01*
X68371928Y-141450000D01*
X63550364Y-141450000D01*
X63687623Y-141118628D01*
X63835000Y-140377715D01*
X63835000Y-139622285D01*
X63687623Y-138881372D01*
X63398533Y-138183446D01*
X62978839Y-137555330D01*
X62444670Y-137021161D01*
X61816554Y-136601467D01*
X61118628Y-136312377D01*
X60377715Y-136165000D01*
X59622285Y-136165000D01*
X58881372Y-136312377D01*
X58183446Y-136601467D01*
X57555330Y-137021161D01*
X57021161Y-137555330D01*
X56601467Y-138183446D01*
X56312377Y-138881372D01*
X56165000Y-139622285D01*
X55710000Y-139622285D01*
X55710000Y-134198061D01*
X100865000Y-134198061D01*
X100865000Y-134401939D01*
X100904774Y-134601898D01*
X100982795Y-134790256D01*
X101096063Y-134959774D01*
X101240226Y-135103937D01*
X101265001Y-135120491D01*
X101265000Y-136086715D01*
X101182795Y-136209744D01*
X101104774Y-136398102D01*
X101065000Y-136598061D01*
X101065000Y-136801939D01*
X101104774Y-137001898D01*
X101182795Y-137190256D01*
X101296063Y-137359774D01*
X101440226Y-137503937D01*
X101609744Y-137617205D01*
X101798102Y-137695226D01*
X101998061Y-137735000D01*
X102201939Y-137735000D01*
X102401898Y-137695226D01*
X102590256Y-137617205D01*
X102759774Y-137503937D01*
X102903937Y-137359774D01*
X103017205Y-137190256D01*
X103095226Y-137001898D01*
X103135000Y-136801939D01*
X103135000Y-136598061D01*
X103095226Y-136398102D01*
X103017205Y-136209744D01*
X102935000Y-136086715D01*
X102935000Y-134541018D01*
X102939040Y-134500000D01*
X102931242Y-134420830D01*
X102935000Y-134401939D01*
X102935000Y-134198061D01*
X102895226Y-133998102D01*
X102817205Y-133809744D01*
X102703937Y-133640226D01*
X102559774Y-133496063D01*
X102390256Y-133382795D01*
X102201898Y-133304774D01*
X102001939Y-133265000D01*
X101798061Y-133265000D01*
X101598102Y-133304774D01*
X101409744Y-133382795D01*
X101240226Y-133496063D01*
X101096063Y-133640226D01*
X100982795Y-133809744D01*
X100904774Y-133998102D01*
X100865000Y-134198061D01*
X55710000Y-134198061D01*
X55710000Y-127669609D01*
X58509997Y-127669609D01*
X58696073Y-128010766D01*
X59113409Y-128226513D01*
X59564815Y-128356696D01*
X60032946Y-128396313D01*
X60499811Y-128343842D01*
X60947468Y-128201297D01*
X61303927Y-128010766D01*
X61490003Y-127669609D01*
X60000000Y-126179605D01*
X58509997Y-127669609D01*
X55710000Y-127669609D01*
X55710000Y-126032946D01*
X57603687Y-126032946D01*
X57656158Y-126499811D01*
X57798703Y-126947468D01*
X57989234Y-127303927D01*
X58330391Y-127490003D01*
X59820395Y-126000000D01*
X60179605Y-126000000D01*
X61669609Y-127490003D01*
X62010766Y-127303927D01*
X62226513Y-126886591D01*
X62356696Y-126435185D01*
X62396313Y-125967054D01*
X62375276Y-125779872D01*
X65510000Y-125779872D01*
X65510000Y-126220128D01*
X65595890Y-126651925D01*
X65764369Y-127058669D01*
X66008962Y-127424729D01*
X66320271Y-127736038D01*
X66686331Y-127980631D01*
X67093075Y-128149110D01*
X67524872Y-128235000D01*
X67965128Y-128235000D01*
X68396925Y-128149110D01*
X68803669Y-127980631D01*
X69169729Y-127736038D01*
X69481038Y-127424729D01*
X69725631Y-127058669D01*
X69746655Y-127007911D01*
X72965000Y-127007911D01*
X72965000Y-127192089D01*
X73000932Y-127372729D01*
X73071414Y-127542889D01*
X73173738Y-127696028D01*
X73303972Y-127826262D01*
X73457111Y-127928586D01*
X73627271Y-127999068D01*
X73807911Y-128035000D01*
X73992089Y-128035000D01*
X74172729Y-127999068D01*
X74342889Y-127928586D01*
X74408120Y-127885000D01*
X91491880Y-127885000D01*
X91557111Y-127928586D01*
X91727271Y-127999068D01*
X91907911Y-128035000D01*
X92092089Y-128035000D01*
X92272729Y-127999068D01*
X92442889Y-127928586D01*
X92596028Y-127826262D01*
X92726262Y-127696028D01*
X92828586Y-127542889D01*
X92899068Y-127372729D01*
X92935000Y-127192089D01*
X92935000Y-127007911D01*
X92899068Y-126827271D01*
X92828586Y-126657111D01*
X92726262Y-126503972D01*
X92596028Y-126373738D01*
X92442889Y-126271414D01*
X92272729Y-126200932D01*
X92092089Y-126165000D01*
X91907911Y-126165000D01*
X91727271Y-126200932D01*
X91557111Y-126271414D01*
X91491880Y-126315000D01*
X74408120Y-126315000D01*
X74342889Y-126271414D01*
X74172729Y-126200932D01*
X73992089Y-126165000D01*
X73807911Y-126165000D01*
X73627271Y-126200932D01*
X73457111Y-126271414D01*
X73303972Y-126373738D01*
X73173738Y-126503972D01*
X73071414Y-126657111D01*
X73000932Y-126827271D01*
X72965000Y-127007911D01*
X69746655Y-127007911D01*
X69894110Y-126651925D01*
X69980000Y-126220128D01*
X69980000Y-125779872D01*
X69894110Y-125348075D01*
X69725631Y-124941331D01*
X69536257Y-124657911D01*
X96015000Y-124657911D01*
X96015000Y-124842089D01*
X96050932Y-125022729D01*
X96121414Y-125192889D01*
X96190001Y-125295537D01*
X96190000Y-128922437D01*
X96150998Y-129051015D01*
X96136324Y-129200000D01*
X96150998Y-129348985D01*
X96194454Y-129492246D01*
X96265026Y-129624276D01*
X96336201Y-129711002D01*
X97936200Y-131311002D01*
X97959999Y-131340001D01*
X98075724Y-131434974D01*
X98207753Y-131505546D01*
X98351014Y-131549003D01*
X98462667Y-131560000D01*
X98462675Y-131560000D01*
X98500000Y-131563676D01*
X98537325Y-131560000D01*
X104885199Y-131560000D01*
X110540001Y-137214803D01*
X110540001Y-137335638D01*
X110459808Y-137378502D01*
X110378309Y-137432958D01*
X110281618Y-137512310D01*
X110212310Y-137581618D01*
X110132958Y-137678309D01*
X110078502Y-137759808D01*
X110019536Y-137870125D01*
X109982027Y-137960681D01*
X109945718Y-138080377D01*
X109926596Y-138176510D01*
X109914336Y-138300991D01*
X109914336Y-138325550D01*
X109911928Y-138350000D01*
X109911928Y-138850000D01*
X109924188Y-138974482D01*
X109931929Y-139000000D01*
X109924188Y-139025518D01*
X109911928Y-139150000D01*
X109911928Y-139650000D01*
X109914336Y-139674450D01*
X109914336Y-139699009D01*
X109926596Y-139823490D01*
X109945718Y-139919623D01*
X109982027Y-140039319D01*
X110019536Y-140129875D01*
X110078502Y-140240192D01*
X110132958Y-140321691D01*
X110212310Y-140418382D01*
X110281618Y-140487690D01*
X110378309Y-140567042D01*
X110459808Y-140621498D01*
X110570125Y-140680464D01*
X110660681Y-140717973D01*
X110780377Y-140754282D01*
X110876510Y-140773404D01*
X111000991Y-140785664D01*
X111025550Y-140785664D01*
X111050000Y-140788072D01*
X111363270Y-140788072D01*
X111440001Y-140864803D01*
X111440001Y-141021821D01*
X111253368Y-141146525D01*
X111046525Y-141353368D01*
X110930000Y-141527760D01*
X110813475Y-141353368D01*
X110606632Y-141146525D01*
X110363411Y-140984010D01*
X110093158Y-140872068D01*
X109806260Y-140815000D01*
X109513740Y-140815000D01*
X109226842Y-140872068D01*
X108956589Y-140984010D01*
X108713368Y-141146525D01*
X108506525Y-141353368D01*
X108390000Y-141527760D01*
X108273475Y-141353368D01*
X108066632Y-141146525D01*
X107823411Y-140984010D01*
X107553158Y-140872068D01*
X107266260Y-140815000D01*
X106973740Y-140815000D01*
X106686842Y-140872068D01*
X106416589Y-140984010D01*
X106173368Y-141146525D01*
X105966525Y-141353368D01*
X105844805Y-141535534D01*
X105775178Y-141418645D01*
X105580269Y-141202412D01*
X105346920Y-141028359D01*
X105084099Y-140903175D01*
X104936890Y-140858524D01*
X104707000Y-140979845D01*
X104707000Y-142173000D01*
X104727000Y-142173000D01*
X104727000Y-142427000D01*
X104707000Y-142427000D01*
X104707000Y-143620155D01*
X104936890Y-143741476D01*
X105084099Y-143696825D01*
X105346920Y-143571641D01*
X105580269Y-143397588D01*
X105775178Y-143181355D01*
X105844805Y-143064466D01*
X105966525Y-143246632D01*
X106173368Y-143453475D01*
X106416589Y-143615990D01*
X106686842Y-143727932D01*
X106973740Y-143785000D01*
X107266260Y-143785000D01*
X107553158Y-143727932D01*
X107823411Y-143615990D01*
X108066632Y-143453475D01*
X108273475Y-143246632D01*
X108390000Y-143072240D01*
X108506525Y-143246632D01*
X108713368Y-143453475D01*
X108956589Y-143615990D01*
X109226842Y-143727932D01*
X109513740Y-143785000D01*
X109806260Y-143785000D01*
X110093158Y-143727932D01*
X110363411Y-143615990D01*
X110606632Y-143453475D01*
X110813475Y-143246632D01*
X110930000Y-143072240D01*
X111046525Y-143246632D01*
X111253368Y-143453475D01*
X111496589Y-143615990D01*
X111766842Y-143727932D01*
X112053740Y-143785000D01*
X112346260Y-143785000D01*
X112633158Y-143727932D01*
X112903411Y-143615990D01*
X113146632Y-143453475D01*
X113353475Y-143246632D01*
X113470000Y-143072240D01*
X113586525Y-143246632D01*
X113793368Y-143453475D01*
X114036589Y-143615990D01*
X114306842Y-143727932D01*
X114593740Y-143785000D01*
X114886260Y-143785000D01*
X115173158Y-143727932D01*
X115443411Y-143615990D01*
X115686632Y-143453475D01*
X115893475Y-143246632D01*
X116010000Y-143072240D01*
X116126525Y-143246632D01*
X116333368Y-143453475D01*
X116576589Y-143615990D01*
X116846842Y-143727932D01*
X117133740Y-143785000D01*
X117426260Y-143785000D01*
X117713158Y-143727932D01*
X117983411Y-143615990D01*
X118226632Y-143453475D01*
X118433475Y-143246632D01*
X118550000Y-143072240D01*
X118666525Y-143246632D01*
X118873368Y-143453475D01*
X119116589Y-143615990D01*
X119386842Y-143727932D01*
X119673740Y-143785000D01*
X119966260Y-143785000D01*
X120253158Y-143727932D01*
X120523411Y-143615990D01*
X120766632Y-143453475D01*
X120973475Y-143246632D01*
X121090000Y-143072240D01*
X121206525Y-143246632D01*
X121413368Y-143453475D01*
X121656589Y-143615990D01*
X121926842Y-143727932D01*
X122213740Y-143785000D01*
X122506260Y-143785000D01*
X122793158Y-143727932D01*
X123063411Y-143615990D01*
X123306632Y-143453475D01*
X123513475Y-143246632D01*
X123675990Y-143003411D01*
X123787932Y-142733158D01*
X123845000Y-142446260D01*
X123845000Y-142153740D01*
X123787932Y-141866842D01*
X123675990Y-141596589D01*
X123513475Y-141353368D01*
X123306632Y-141146525D01*
X123120000Y-141021822D01*
X123120000Y-140684554D01*
X123129875Y-140680464D01*
X123240192Y-140621498D01*
X123321691Y-140567042D01*
X123418382Y-140487690D01*
X123487690Y-140418382D01*
X123567042Y-140321691D01*
X123621498Y-140240192D01*
X123680464Y-140129875D01*
X123717973Y-140039319D01*
X123754282Y-139919623D01*
X123773404Y-139823490D01*
X123785664Y-139699009D01*
X123785664Y-139674450D01*
X123788072Y-139650000D01*
X123788072Y-139622285D01*
X146165000Y-139622285D01*
X146165000Y-140377715D01*
X146312377Y-141118628D01*
X146601467Y-141816554D01*
X147021161Y-142444670D01*
X147555330Y-142978839D01*
X148183446Y-143398533D01*
X148881372Y-143687623D01*
X149622285Y-143835000D01*
X150377715Y-143835000D01*
X151118628Y-143687623D01*
X151816554Y-143398533D01*
X152444670Y-142978839D01*
X152978839Y-142444670D01*
X153398533Y-141816554D01*
X153687623Y-141118628D01*
X153835000Y-140377715D01*
X153835000Y-139622285D01*
X153687623Y-138881372D01*
X153398533Y-138183446D01*
X152978839Y-137555330D01*
X152444670Y-137021161D01*
X151816554Y-136601467D01*
X151118628Y-136312377D01*
X150377715Y-136165000D01*
X149622285Y-136165000D01*
X148881372Y-136312377D01*
X148183446Y-136601467D01*
X147555330Y-137021161D01*
X147021161Y-137555330D01*
X146601467Y-138183446D01*
X146312377Y-138881372D01*
X146165000Y-139622285D01*
X123788072Y-139622285D01*
X123788072Y-139150000D01*
X123775812Y-139025518D01*
X123768071Y-139000000D01*
X123775812Y-138974482D01*
X123788072Y-138850000D01*
X123788072Y-138350000D01*
X123785664Y-138325550D01*
X123785664Y-138300991D01*
X123773404Y-138176510D01*
X123754282Y-138080377D01*
X123717973Y-137960681D01*
X123680464Y-137870125D01*
X123621498Y-137759808D01*
X123567042Y-137678309D01*
X123487690Y-137581618D01*
X123418382Y-137512310D01*
X123321691Y-137432958D01*
X123240192Y-137378502D01*
X123160000Y-137335638D01*
X123160000Y-135798061D01*
X128665000Y-135798061D01*
X128665000Y-136001939D01*
X128704774Y-136201898D01*
X128782795Y-136390256D01*
X128789306Y-136400000D01*
X128782795Y-136409744D01*
X128704774Y-136598102D01*
X128665000Y-136798061D01*
X128665000Y-137001939D01*
X128704774Y-137201898D01*
X128782795Y-137390256D01*
X128822715Y-137450000D01*
X128782795Y-137509744D01*
X128704774Y-137698102D01*
X128665000Y-137898061D01*
X128665000Y-138101939D01*
X128704774Y-138301898D01*
X128782795Y-138490256D01*
X128896063Y-138659774D01*
X129040226Y-138803937D01*
X129209744Y-138917205D01*
X129398102Y-138995226D01*
X129598061Y-139035000D01*
X129801939Y-139035000D01*
X129939080Y-139007721D01*
X130011595Y-139143386D01*
X130122038Y-139277962D01*
X130256614Y-139388405D01*
X130410150Y-139470472D01*
X130576746Y-139521008D01*
X130750000Y-139538072D01*
X131250000Y-139538072D01*
X131423254Y-139521008D01*
X131589850Y-139470472D01*
X131743386Y-139388405D01*
X131877962Y-139277962D01*
X131940969Y-139201187D01*
X131969463Y-139254494D01*
X132048815Y-139351185D01*
X132145506Y-139430537D01*
X132255820Y-139489502D01*
X132375518Y-139525812D01*
X132500000Y-139538072D01*
X132714250Y-139535000D01*
X132873000Y-139376250D01*
X132873000Y-137277000D01*
X133127000Y-137277000D01*
X133127000Y-139376250D01*
X133285750Y-139535000D01*
X133500000Y-139538072D01*
X133624482Y-139525812D01*
X133744180Y-139489502D01*
X133854494Y-139430537D01*
X133951185Y-139351185D01*
X134030537Y-139254494D01*
X134089502Y-139144180D01*
X134125812Y-139024482D01*
X134138072Y-138900000D01*
X134135000Y-137435750D01*
X133976250Y-137277000D01*
X133127000Y-137277000D01*
X132873000Y-137277000D01*
X132853000Y-137277000D01*
X132853000Y-137023000D01*
X132873000Y-137023000D01*
X132873000Y-134923750D01*
X133127000Y-134923750D01*
X133127000Y-137023000D01*
X133976250Y-137023000D01*
X134135000Y-136864250D01*
X134138072Y-135400000D01*
X134125812Y-135275518D01*
X134089502Y-135155820D01*
X134030537Y-135045506D01*
X133951185Y-134948815D01*
X133854494Y-134869463D01*
X133744180Y-134810498D01*
X133624482Y-134774188D01*
X133500000Y-134761928D01*
X133285750Y-134765000D01*
X133127000Y-134923750D01*
X132873000Y-134923750D01*
X132714250Y-134765000D01*
X132500000Y-134761928D01*
X132375518Y-134774188D01*
X132255820Y-134810498D01*
X132145506Y-134869463D01*
X132048815Y-134948815D01*
X131969463Y-135045506D01*
X131940969Y-135098813D01*
X131877962Y-135022038D01*
X131743386Y-134911595D01*
X131589850Y-134829528D01*
X131423254Y-134778992D01*
X131250000Y-134761928D01*
X130750000Y-134761928D01*
X130576746Y-134778992D01*
X130410150Y-134829528D01*
X130256614Y-134911595D01*
X130176699Y-134977179D01*
X130001898Y-134904774D01*
X129801939Y-134865000D01*
X129598061Y-134865000D01*
X129398102Y-134904774D01*
X129209744Y-134982795D01*
X129040226Y-135096063D01*
X128896063Y-135240226D01*
X128782795Y-135409744D01*
X128704774Y-135598102D01*
X128665000Y-135798061D01*
X123160000Y-135798061D01*
X123160000Y-133637325D01*
X123163676Y-133600000D01*
X123160000Y-133562675D01*
X123160000Y-133562667D01*
X123149003Y-133451014D01*
X123105546Y-133307753D01*
X123034974Y-133175724D01*
X122940001Y-133059999D01*
X122911003Y-133036201D01*
X119710000Y-129835199D01*
X119710000Y-125779872D01*
X121120000Y-125779872D01*
X121120000Y-126220128D01*
X121205890Y-126651925D01*
X121374369Y-127058669D01*
X121618962Y-127424729D01*
X121930271Y-127736038D01*
X122296331Y-127980631D01*
X122703075Y-128149110D01*
X123134872Y-128235000D01*
X123575128Y-128235000D01*
X124006925Y-128149110D01*
X124413669Y-127980631D01*
X124779729Y-127736038D01*
X125091038Y-127424729D01*
X125335631Y-127058669D01*
X125504110Y-126651925D01*
X125590000Y-126220128D01*
X125590000Y-125779872D01*
X125504110Y-125348075D01*
X125335631Y-124941331D01*
X125091038Y-124575271D01*
X124779729Y-124263962D01*
X124413669Y-124019369D01*
X124006925Y-123850890D01*
X123575128Y-123765000D01*
X123134872Y-123765000D01*
X122703075Y-123850890D01*
X122296331Y-124019369D01*
X121930271Y-124263962D01*
X121618962Y-124575271D01*
X121374369Y-124941331D01*
X121205890Y-125348075D01*
X121120000Y-125779872D01*
X119710000Y-125779872D01*
X119710000Y-125395535D01*
X119778586Y-125292889D01*
X119849068Y-125122729D01*
X119885000Y-124942089D01*
X119885000Y-124757911D01*
X119849068Y-124577271D01*
X119778586Y-124407111D01*
X119676262Y-124253972D01*
X119546028Y-124123738D01*
X119392889Y-124021414D01*
X119222729Y-123950932D01*
X119042089Y-123915000D01*
X118857911Y-123915000D01*
X118677271Y-123950932D01*
X118507111Y-124021414D01*
X118353972Y-124123738D01*
X118223738Y-124253972D01*
X118121414Y-124407111D01*
X118050932Y-124577271D01*
X118015000Y-124757911D01*
X118015000Y-124942089D01*
X118050932Y-125122729D01*
X118121414Y-125292889D01*
X118190001Y-125395537D01*
X118190000Y-130015198D01*
X114210000Y-126035199D01*
X114210000Y-125295535D01*
X114278586Y-125192889D01*
X114349068Y-125022729D01*
X114385000Y-124842089D01*
X114385000Y-124657911D01*
X114349068Y-124477271D01*
X114278586Y-124307111D01*
X114176262Y-124153972D01*
X114046028Y-124023738D01*
X113892889Y-123921414D01*
X113722729Y-123850932D01*
X113542089Y-123815000D01*
X113357911Y-123815000D01*
X113177271Y-123850932D01*
X113007111Y-123921414D01*
X112853972Y-124023738D01*
X112723738Y-124153972D01*
X112621414Y-124307111D01*
X112550932Y-124477271D01*
X112515000Y-124657911D01*
X112515000Y-124842089D01*
X112550932Y-125022729D01*
X112621414Y-125192889D01*
X112690001Y-125295537D01*
X112690000Y-126312677D01*
X112686324Y-126350000D01*
X112690000Y-126387322D01*
X112690000Y-126387332D01*
X112700997Y-126498985D01*
X112726639Y-126583517D01*
X112744454Y-126642246D01*
X112815026Y-126774276D01*
X112834611Y-126798140D01*
X112909999Y-126890001D01*
X112939003Y-126913804D01*
X118238997Y-132213799D01*
X118239002Y-132213803D01*
X118940001Y-132914803D01*
X118940000Y-137335638D01*
X118859808Y-137378502D01*
X118778309Y-137432958D01*
X118681618Y-137512310D01*
X118612310Y-137581618D01*
X118532958Y-137678309D01*
X118478502Y-137759808D01*
X118419536Y-137870125D01*
X118382027Y-137960681D01*
X118345718Y-138080377D01*
X118326596Y-138176510D01*
X118314336Y-138300991D01*
X118314336Y-138325550D01*
X118311928Y-138350000D01*
X118311928Y-138850000D01*
X118324188Y-138974482D01*
X118331929Y-139000000D01*
X118324188Y-139025518D01*
X118311928Y-139150000D01*
X118311928Y-139650000D01*
X118314336Y-139674450D01*
X118314336Y-139699009D01*
X118326596Y-139823490D01*
X118345718Y-139919623D01*
X118382027Y-140039319D01*
X118419536Y-140129875D01*
X118478502Y-140240192D01*
X118532958Y-140321691D01*
X118612310Y-140418382D01*
X118681618Y-140487690D01*
X118778309Y-140567042D01*
X118859808Y-140621498D01*
X118970125Y-140680464D01*
X119060001Y-140717691D01*
X119060001Y-141021821D01*
X118873368Y-141146525D01*
X118666525Y-141353368D01*
X118550000Y-141527760D01*
X118433475Y-141353368D01*
X118226632Y-141146525D01*
X118040000Y-141021822D01*
X118040000Y-140357563D01*
X118041405Y-140352929D01*
X118067042Y-140321691D01*
X118121498Y-140240192D01*
X118180464Y-140129875D01*
X118217973Y-140039319D01*
X118254282Y-139919623D01*
X118273404Y-139823490D01*
X118285664Y-139699009D01*
X118285664Y-139674450D01*
X118288072Y-139650000D01*
X118288072Y-139150000D01*
X118275812Y-139025518D01*
X118268071Y-139000000D01*
X118275812Y-138974482D01*
X118288072Y-138850000D01*
X118288072Y-138350000D01*
X118285664Y-138325550D01*
X118285664Y-138300991D01*
X118273404Y-138176510D01*
X118254282Y-138080377D01*
X118217973Y-137960681D01*
X118180464Y-137870125D01*
X118121498Y-137759808D01*
X118067042Y-137678309D01*
X117987690Y-137581618D01*
X117918382Y-137512310D01*
X117821691Y-137432958D01*
X117740192Y-137378502D01*
X117660000Y-137335638D01*
X117660000Y-137137322D01*
X117663676Y-137099999D01*
X117660000Y-137062676D01*
X117660000Y-137062667D01*
X117649003Y-136951014D01*
X117605546Y-136807753D01*
X117600365Y-136798061D01*
X117534974Y-136675723D01*
X117463799Y-136588997D01*
X117440001Y-136559999D01*
X117411003Y-136536201D01*
X115960000Y-135085199D01*
X115960000Y-132237325D01*
X115963676Y-132200000D01*
X115960000Y-132162675D01*
X115960000Y-132162667D01*
X115949003Y-132051014D01*
X115905546Y-131907753D01*
X115834974Y-131775724D01*
X115740001Y-131659999D01*
X115711003Y-131636201D01*
X112763804Y-128689003D01*
X112740001Y-128659999D01*
X112624276Y-128565026D01*
X112492247Y-128494454D01*
X112348986Y-128450997D01*
X112237333Y-128440000D01*
X112237322Y-128440000D01*
X112200000Y-128436324D01*
X112162678Y-128440000D01*
X110014802Y-128440000D01*
X108710000Y-127135199D01*
X108710000Y-125295535D01*
X108778586Y-125192889D01*
X108849068Y-125022729D01*
X108885000Y-124842089D01*
X108885000Y-124657911D01*
X108849068Y-124477271D01*
X108778586Y-124307111D01*
X108676262Y-124153972D01*
X108546028Y-124023738D01*
X108392889Y-123921414D01*
X108222729Y-123850932D01*
X108042089Y-123815000D01*
X107857911Y-123815000D01*
X107677271Y-123850932D01*
X107507111Y-123921414D01*
X107353972Y-124023738D01*
X107223738Y-124153972D01*
X107121414Y-124307111D01*
X107050932Y-124477271D01*
X107015000Y-124657911D01*
X107015000Y-124842089D01*
X107050932Y-125022729D01*
X107121414Y-125192889D01*
X107190001Y-125295537D01*
X107190000Y-127412677D01*
X107186324Y-127450000D01*
X107190000Y-127487322D01*
X107190000Y-127487332D01*
X107200997Y-127598985D01*
X107230434Y-127696028D01*
X107244454Y-127742246D01*
X107315026Y-127874276D01*
X107354871Y-127922826D01*
X107409999Y-127990001D01*
X107439003Y-128013804D01*
X108088043Y-128662845D01*
X108048986Y-128650997D01*
X107937333Y-128640000D01*
X107937322Y-128640000D01*
X107900000Y-128636324D01*
X107862678Y-128640000D01*
X104014802Y-128640000D01*
X103160000Y-127785199D01*
X103160000Y-125245535D01*
X103228586Y-125142889D01*
X103299068Y-124972729D01*
X103335000Y-124792089D01*
X103335000Y-124607911D01*
X103299068Y-124427271D01*
X103228586Y-124257111D01*
X103126262Y-124103972D01*
X102996028Y-123973738D01*
X102842889Y-123871414D01*
X102672729Y-123800932D01*
X102492089Y-123765000D01*
X102307911Y-123765000D01*
X102127271Y-123800932D01*
X101957111Y-123871414D01*
X101803972Y-123973738D01*
X101673738Y-124103972D01*
X101571414Y-124257111D01*
X101500932Y-124427271D01*
X101465000Y-124607911D01*
X101465000Y-124792089D01*
X101500932Y-124972729D01*
X101571414Y-125142889D01*
X101640001Y-125245537D01*
X101640000Y-128062677D01*
X101636324Y-128100000D01*
X101640000Y-128137322D01*
X101640000Y-128137332D01*
X101650997Y-128248985D01*
X101667507Y-128303411D01*
X101694454Y-128392246D01*
X101765026Y-128524276D01*
X101784729Y-128548284D01*
X101859999Y-128640001D01*
X101889003Y-128663804D01*
X103136200Y-129911002D01*
X103159999Y-129940001D01*
X103275724Y-130034974D01*
X103285127Y-130040000D01*
X98814802Y-130040000D01*
X97715557Y-128940756D01*
X97710000Y-128922437D01*
X97710000Y-125295535D01*
X97778586Y-125192889D01*
X97849068Y-125022729D01*
X97885000Y-124842089D01*
X97885000Y-124657911D01*
X97849068Y-124477271D01*
X97778586Y-124307111D01*
X97676262Y-124153972D01*
X97546028Y-124023738D01*
X97392889Y-123921414D01*
X97222729Y-123850932D01*
X97042089Y-123815000D01*
X96857911Y-123815000D01*
X96677271Y-123850932D01*
X96507111Y-123921414D01*
X96353972Y-124023738D01*
X96223738Y-124153972D01*
X96121414Y-124307111D01*
X96050932Y-124477271D01*
X96015000Y-124657911D01*
X69536257Y-124657911D01*
X69481038Y-124575271D01*
X69169729Y-124263962D01*
X68803669Y-124019369D01*
X68396925Y-123850890D01*
X67965128Y-123765000D01*
X67524872Y-123765000D01*
X67093075Y-123850890D01*
X66686331Y-124019369D01*
X66320271Y-124263962D01*
X66008962Y-124575271D01*
X65764369Y-124941331D01*
X65595890Y-125348075D01*
X65510000Y-125779872D01*
X62375276Y-125779872D01*
X62343842Y-125500189D01*
X62201297Y-125052532D01*
X62010766Y-124696073D01*
X61669609Y-124509997D01*
X60179605Y-126000000D01*
X59820395Y-126000000D01*
X58330391Y-124509997D01*
X57989234Y-124696073D01*
X57773487Y-125113409D01*
X57643304Y-125564815D01*
X57603687Y-126032946D01*
X55710000Y-126032946D01*
X55710000Y-124330391D01*
X58509997Y-124330391D01*
X60000000Y-125820395D01*
X61490003Y-124330391D01*
X61303927Y-123989234D01*
X60886591Y-123773487D01*
X60435185Y-123643304D01*
X59967054Y-123603687D01*
X59500189Y-123656158D01*
X59052532Y-123798703D01*
X58696073Y-123989234D01*
X58509997Y-124330391D01*
X55710000Y-124330391D01*
X55710000Y-116800000D01*
X127861928Y-116800000D01*
X127861928Y-119600000D01*
X127874188Y-119724482D01*
X127910498Y-119844180D01*
X127967061Y-119950000D01*
X127910498Y-120055820D01*
X127874188Y-120175518D01*
X127861928Y-120300000D01*
X127861928Y-123100000D01*
X127874188Y-123224482D01*
X127910498Y-123344180D01*
X127969463Y-123454494D01*
X128048815Y-123551185D01*
X128145506Y-123630537D01*
X128255820Y-123689502D01*
X128375518Y-123725812D01*
X128500000Y-123738072D01*
X129872831Y-123738072D01*
X129798815Y-123798815D01*
X129719463Y-123895506D01*
X129660498Y-124005820D01*
X129624188Y-124125518D01*
X129611928Y-124250000D01*
X129611928Y-127750000D01*
X129624188Y-127874482D01*
X129660498Y-127994180D01*
X129719463Y-128104494D01*
X129798815Y-128201185D01*
X129895506Y-128280537D01*
X130005820Y-128339502D01*
X130125518Y-128375812D01*
X130250000Y-128388072D01*
X133750000Y-128388072D01*
X133874482Y-128375812D01*
X133994180Y-128339502D01*
X134104494Y-128280537D01*
X134201185Y-128201185D01*
X134280537Y-128104494D01*
X134339502Y-127994180D01*
X134375812Y-127874482D01*
X134388072Y-127750000D01*
X134388072Y-124250000D01*
X134375812Y-124125518D01*
X134339502Y-124005820D01*
X134280537Y-123895506D01*
X134201185Y-123798815D01*
X134104494Y-123719463D01*
X133994180Y-123660498D01*
X133874482Y-123624188D01*
X133750000Y-123611928D01*
X131677169Y-123611928D01*
X131751185Y-123551185D01*
X131830537Y-123454494D01*
X131889502Y-123344180D01*
X131925812Y-123224482D01*
X131938072Y-123100000D01*
X131938072Y-122835000D01*
X141229869Y-122835000D01*
X141965000Y-123570132D01*
X141965001Y-126182317D01*
X141895506Y-126219463D01*
X141798815Y-126298815D01*
X141719463Y-126395506D01*
X141660498Y-126505820D01*
X141638487Y-126578380D01*
X141506632Y-126446525D01*
X141263411Y-126284010D01*
X140993158Y-126172068D01*
X140706260Y-126115000D01*
X140413740Y-126115000D01*
X140126842Y-126172068D01*
X139856589Y-126284010D01*
X139613368Y-126446525D01*
X139406525Y-126653368D01*
X139244010Y-126896589D01*
X139132068Y-127166842D01*
X139075000Y-127453740D01*
X139075000Y-127746260D01*
X139132068Y-128033158D01*
X139244010Y-128303411D01*
X139406525Y-128546632D01*
X139613368Y-128753475D01*
X139856589Y-128915990D01*
X140126842Y-129027932D01*
X140413740Y-129085000D01*
X140706260Y-129085000D01*
X140993158Y-129027932D01*
X141263411Y-128915990D01*
X141506632Y-128753475D01*
X141638487Y-128621620D01*
X141660498Y-128694180D01*
X141719463Y-128804494D01*
X141798815Y-128901185D01*
X141895506Y-128980537D01*
X142005820Y-129039502D01*
X142125518Y-129075812D01*
X142250000Y-129088072D01*
X143950000Y-129088072D01*
X144074482Y-129075812D01*
X144194180Y-129039502D01*
X144304494Y-128980537D01*
X144401185Y-128901185D01*
X144480537Y-128804494D01*
X144539502Y-128694180D01*
X144575812Y-128574482D01*
X144588072Y-128450000D01*
X144588072Y-126750000D01*
X144575812Y-126625518D01*
X144539502Y-126505820D01*
X144480537Y-126395506D01*
X144401185Y-126298815D01*
X144304494Y-126219463D01*
X144235000Y-126182317D01*
X144235000Y-123155751D01*
X144240491Y-123100000D01*
X144218577Y-122877501D01*
X144153676Y-122663553D01*
X144145515Y-122648284D01*
X144048284Y-122466377D01*
X143906449Y-122293551D01*
X143863140Y-122258008D01*
X142541996Y-120936865D01*
X142506449Y-120893551D01*
X142333623Y-120751716D01*
X142136447Y-120646324D01*
X141922499Y-120581423D01*
X141755752Y-120565000D01*
X141755751Y-120565000D01*
X141700000Y-120559509D01*
X141644249Y-120565000D01*
X131938072Y-120565000D01*
X131938072Y-120300000D01*
X131925812Y-120175518D01*
X131889502Y-120055820D01*
X131832939Y-119950000D01*
X131889502Y-119844180D01*
X131925812Y-119724482D01*
X131938072Y-119600000D01*
X131938072Y-116800000D01*
X131925812Y-116675518D01*
X131889502Y-116555820D01*
X131830537Y-116445506D01*
X131751185Y-116348815D01*
X131654494Y-116269463D01*
X131544180Y-116210498D01*
X131424482Y-116174188D01*
X131300000Y-116161928D01*
X128500000Y-116161928D01*
X128375518Y-116174188D01*
X128255820Y-116210498D01*
X128145506Y-116269463D01*
X128048815Y-116348815D01*
X127969463Y-116445506D01*
X127910498Y-116555820D01*
X127874188Y-116675518D01*
X127861928Y-116800000D01*
X55710000Y-116800000D01*
X55710000Y-112000000D01*
X127861928Y-112000000D01*
X127874188Y-112124482D01*
X127910498Y-112244180D01*
X127969463Y-112354494D01*
X128048815Y-112451185D01*
X128145506Y-112530537D01*
X128255820Y-112589502D01*
X128375518Y-112625812D01*
X128500000Y-112638072D01*
X129614250Y-112635000D01*
X129773000Y-112476250D01*
X129773000Y-110727000D01*
X130027000Y-110727000D01*
X130027000Y-112476250D01*
X130185750Y-112635000D01*
X131300000Y-112638072D01*
X131424482Y-112625812D01*
X131544180Y-112589502D01*
X131654494Y-112530537D01*
X131751185Y-112451185D01*
X131830537Y-112354494D01*
X131889502Y-112244180D01*
X131925812Y-112124482D01*
X131938072Y-112000000D01*
X131935000Y-110885750D01*
X131776250Y-110727000D01*
X130027000Y-110727000D01*
X129773000Y-110727000D01*
X128023750Y-110727000D01*
X127865000Y-110885750D01*
X127861928Y-112000000D01*
X55710000Y-112000000D01*
X55710000Y-108600000D01*
X127861928Y-108600000D01*
X127874188Y-108724482D01*
X127910498Y-108844180D01*
X127940335Y-108900000D01*
X127910498Y-108955820D01*
X127874188Y-109075518D01*
X127861928Y-109200000D01*
X127865000Y-110314250D01*
X128023750Y-110473000D01*
X129773000Y-110473000D01*
X129773000Y-107327000D01*
X130027000Y-107327000D01*
X130027000Y-110473000D01*
X131776250Y-110473000D01*
X131935000Y-110314250D01*
X131938072Y-109200000D01*
X131925812Y-109075518D01*
X131889502Y-108955820D01*
X131859665Y-108900000D01*
X150761928Y-108900000D01*
X150774188Y-109024482D01*
X150810498Y-109144180D01*
X150869463Y-109254494D01*
X150948815Y-109351185D01*
X151045506Y-109430537D01*
X151155820Y-109489502D01*
X151275518Y-109525812D01*
X151400000Y-109538072D01*
X152514250Y-109535000D01*
X152673000Y-109376250D01*
X152673000Y-107627000D01*
X150923750Y-107627000D01*
X150765000Y-107785750D01*
X150761928Y-108900000D01*
X131859665Y-108900000D01*
X131889502Y-108844180D01*
X131925812Y-108724482D01*
X131938072Y-108600000D01*
X131935000Y-107485750D01*
X131776250Y-107327000D01*
X130027000Y-107327000D01*
X129773000Y-107327000D01*
X128023750Y-107327000D01*
X127865000Y-107485750D01*
X127861928Y-108600000D01*
X55710000Y-108600000D01*
X55710000Y-104669609D01*
X58509997Y-104669609D01*
X58696073Y-105010766D01*
X59113409Y-105226513D01*
X59564815Y-105356696D01*
X60032946Y-105396313D01*
X60499811Y-105343842D01*
X60947468Y-105201297D01*
X61303927Y-105010766D01*
X61490003Y-104669609D01*
X60000000Y-103179605D01*
X58509997Y-104669609D01*
X55710000Y-104669609D01*
X55710000Y-103032946D01*
X57603687Y-103032946D01*
X57656158Y-103499811D01*
X57798703Y-103947468D01*
X57989234Y-104303927D01*
X58330391Y-104490003D01*
X59820395Y-103000000D01*
X60179605Y-103000000D01*
X61669609Y-104490003D01*
X62010766Y-104303927D01*
X62226513Y-103886591D01*
X62356696Y-103435185D01*
X62396313Y-102967054D01*
X62375276Y-102779872D01*
X65510000Y-102779872D01*
X65510000Y-103220128D01*
X65595890Y-103651925D01*
X65764369Y-104058669D01*
X66008962Y-104424729D01*
X66320271Y-104736038D01*
X66686331Y-104980631D01*
X67093075Y-105149110D01*
X67524872Y-105235000D01*
X67965128Y-105235000D01*
X68101313Y-105207911D01*
X71165000Y-105207911D01*
X71165000Y-105392089D01*
X71200932Y-105572729D01*
X71271414Y-105742889D01*
X71373738Y-105896028D01*
X71503972Y-106026262D01*
X71657111Y-106128586D01*
X71827271Y-106199068D01*
X71904216Y-106214374D01*
X72617658Y-106927815D01*
X72642236Y-106957764D01*
X72672184Y-106982342D01*
X72672187Y-106982345D01*
X72688860Y-106996028D01*
X72761767Y-107055862D01*
X72893478Y-107126262D01*
X72898140Y-107128754D01*
X73046113Y-107173642D01*
X73121026Y-107181020D01*
X73161439Y-107185000D01*
X73161444Y-107185000D01*
X73200000Y-107188797D01*
X73238555Y-107185000D01*
X120191880Y-107185000D01*
X120257111Y-107228586D01*
X120427271Y-107299068D01*
X120607911Y-107335000D01*
X120792089Y-107335000D01*
X120972729Y-107299068D01*
X121142889Y-107228586D01*
X121296028Y-107126262D01*
X121426262Y-106996028D01*
X121528586Y-106842889D01*
X121599068Y-106672729D01*
X121635000Y-106492089D01*
X121635000Y-106307911D01*
X121630443Y-106285000D01*
X126091880Y-106285000D01*
X126157111Y-106328586D01*
X126327271Y-106399068D01*
X126507911Y-106435000D01*
X126692089Y-106435000D01*
X126872729Y-106399068D01*
X127042889Y-106328586D01*
X127196028Y-106226262D01*
X127326262Y-106096028D01*
X127428586Y-105942889D01*
X127487772Y-105800000D01*
X127861928Y-105800000D01*
X127865000Y-106914250D01*
X128023750Y-107073000D01*
X129773000Y-107073000D01*
X129773000Y-107053000D01*
X130027000Y-107053000D01*
X130027000Y-107073000D01*
X131776250Y-107073000D01*
X131935000Y-106914250D01*
X131937244Y-106100000D01*
X150761928Y-106100000D01*
X150765000Y-107214250D01*
X150923750Y-107373000D01*
X152673000Y-107373000D01*
X152673000Y-105623750D01*
X152514250Y-105465000D01*
X151400000Y-105461928D01*
X151275518Y-105474188D01*
X151155820Y-105510498D01*
X151045506Y-105569463D01*
X150948815Y-105648815D01*
X150869463Y-105745506D01*
X150810498Y-105855820D01*
X150774188Y-105975518D01*
X150761928Y-106100000D01*
X131937244Y-106100000D01*
X131938072Y-105800000D01*
X131925812Y-105675518D01*
X131889502Y-105555820D01*
X131830537Y-105445506D01*
X131783402Y-105388072D01*
X133750000Y-105388072D01*
X133874482Y-105375812D01*
X133994180Y-105339502D01*
X134104494Y-105280537D01*
X134201185Y-105201185D01*
X134280537Y-105104494D01*
X134339502Y-104994180D01*
X134375812Y-104874482D01*
X134388072Y-104750000D01*
X134388072Y-101250000D01*
X134375812Y-101125518D01*
X134339502Y-101005820D01*
X134280537Y-100895506D01*
X134201185Y-100798815D01*
X134104494Y-100719463D01*
X133994180Y-100660498D01*
X133874482Y-100624188D01*
X133750000Y-100611928D01*
X130250000Y-100611928D01*
X130125518Y-100624188D01*
X130005820Y-100660498D01*
X129895506Y-100719463D01*
X129798815Y-100798815D01*
X129719463Y-100895506D01*
X129660498Y-101005820D01*
X129624188Y-101125518D01*
X129611928Y-101250000D01*
X129611928Y-104750000D01*
X129624188Y-104874482D01*
X129660498Y-104994180D01*
X129719463Y-105104494D01*
X129772998Y-105169727D01*
X129772998Y-105323748D01*
X129614250Y-105165000D01*
X128500000Y-105161928D01*
X128375518Y-105174188D01*
X128255820Y-105210498D01*
X128145506Y-105269463D01*
X128048815Y-105348815D01*
X127969463Y-105445506D01*
X127910498Y-105555820D01*
X127874188Y-105675518D01*
X127861928Y-105800000D01*
X127487772Y-105800000D01*
X127499068Y-105772729D01*
X127535000Y-105592089D01*
X127535000Y-105407911D01*
X127499068Y-105227271D01*
X127428586Y-105057111D01*
X127326262Y-104903972D01*
X127196028Y-104773738D01*
X127042889Y-104671414D01*
X126872729Y-104600932D01*
X126692089Y-104565000D01*
X126507911Y-104565000D01*
X126327271Y-104600932D01*
X126157111Y-104671414D01*
X126091880Y-104715000D01*
X124800767Y-104715000D01*
X125091038Y-104424729D01*
X125335631Y-104058669D01*
X125504110Y-103651925D01*
X125590000Y-103220128D01*
X125590000Y-102779872D01*
X125504110Y-102348075D01*
X125335631Y-101941331D01*
X125091038Y-101575271D01*
X124779729Y-101263962D01*
X124413669Y-101019369D01*
X124006925Y-100850890D01*
X123575128Y-100765000D01*
X123134872Y-100765000D01*
X122703075Y-100850890D01*
X122296331Y-101019369D01*
X121930271Y-101263962D01*
X121618962Y-101575271D01*
X121374369Y-101941331D01*
X121205890Y-102348075D01*
X121120000Y-102779872D01*
X121120000Y-103220128D01*
X121205890Y-103651925D01*
X121374369Y-104058669D01*
X121618962Y-104424729D01*
X121909233Y-104715000D01*
X100035000Y-104715000D01*
X100035000Y-104607911D01*
X99999068Y-104427271D01*
X99928586Y-104257111D01*
X99826262Y-104103972D01*
X99696028Y-103973738D01*
X99542889Y-103871414D01*
X99372729Y-103800932D01*
X99192089Y-103765000D01*
X99007911Y-103765000D01*
X98827271Y-103800932D01*
X98657111Y-103871414D01*
X98591880Y-103915000D01*
X96692634Y-103915000D01*
X96772729Y-103899068D01*
X96942889Y-103828586D01*
X97096028Y-103726262D01*
X97226262Y-103596028D01*
X97328586Y-103442889D01*
X97399068Y-103272729D01*
X97435000Y-103092089D01*
X97435000Y-102960000D01*
X111554465Y-102960000D01*
X111657111Y-103028586D01*
X111827271Y-103099068D01*
X112007911Y-103135000D01*
X112192089Y-103135000D01*
X112372729Y-103099068D01*
X112542889Y-103028586D01*
X112696028Y-102926262D01*
X112826262Y-102796028D01*
X112928586Y-102642889D01*
X112999068Y-102472729D01*
X113035000Y-102292089D01*
X113035000Y-102107911D01*
X113030466Y-102085117D01*
X113124276Y-102034974D01*
X113240001Y-101940001D01*
X113263803Y-101910998D01*
X114011004Y-101163798D01*
X114040001Y-101140001D01*
X114134974Y-101024276D01*
X114205546Y-100892247D01*
X114249003Y-100748986D01*
X114260000Y-100637333D01*
X114260000Y-100637323D01*
X114263676Y-100600000D01*
X114260000Y-100562677D01*
X114260000Y-100545535D01*
X114328586Y-100442889D01*
X114399068Y-100272729D01*
X114435000Y-100092089D01*
X114435000Y-99907911D01*
X114399068Y-99727271D01*
X114328586Y-99557111D01*
X114226262Y-99403972D01*
X114096028Y-99273738D01*
X113942889Y-99171414D01*
X113772729Y-99100932D01*
X113592089Y-99065000D01*
X113407911Y-99065000D01*
X113227271Y-99100932D01*
X113057111Y-99171414D01*
X112903972Y-99273738D01*
X112773738Y-99403972D01*
X112671414Y-99557111D01*
X112600932Y-99727271D01*
X112568814Y-99888737D01*
X112542889Y-99871414D01*
X112372729Y-99800932D01*
X112192089Y-99765000D01*
X112113812Y-99765000D01*
X112128586Y-99742889D01*
X112199068Y-99572729D01*
X112235000Y-99392089D01*
X112235000Y-99207911D01*
X112199068Y-99027271D01*
X112128586Y-98857111D01*
X112026262Y-98703972D01*
X111896028Y-98573738D01*
X111742889Y-98471414D01*
X111572729Y-98400932D01*
X111392089Y-98365000D01*
X111207911Y-98365000D01*
X111027271Y-98400932D01*
X110857111Y-98471414D01*
X110703972Y-98573738D01*
X110573738Y-98703972D01*
X110471414Y-98857111D01*
X110400932Y-99027271D01*
X110398400Y-99040000D01*
X99025470Y-99040000D01*
X99035000Y-98992089D01*
X99035000Y-98807911D01*
X98999068Y-98627271D01*
X98928586Y-98457111D01*
X98826262Y-98303972D01*
X98696028Y-98173738D01*
X98542889Y-98071414D01*
X98372729Y-98000932D01*
X98192089Y-97965000D01*
X98007911Y-97965000D01*
X97827271Y-98000932D01*
X97657111Y-98071414D01*
X97591880Y-98115000D01*
X87625158Y-98115000D01*
X87114374Y-97604216D01*
X87099068Y-97527271D01*
X87028586Y-97357111D01*
X86926262Y-97203972D01*
X86796028Y-97073738D01*
X86642889Y-96971414D01*
X86472729Y-96900932D01*
X86292089Y-96865000D01*
X86107911Y-96865000D01*
X85927271Y-96900932D01*
X85757111Y-96971414D01*
X85603972Y-97073738D01*
X85473738Y-97203972D01*
X85371414Y-97357111D01*
X85300932Y-97527271D01*
X85265000Y-97707911D01*
X85265000Y-97892089D01*
X85300932Y-98072729D01*
X85371414Y-98242889D01*
X85473738Y-98396028D01*
X85603972Y-98526262D01*
X85757111Y-98628586D01*
X85927271Y-98699068D01*
X86004216Y-98714374D01*
X86329842Y-99040000D01*
X77045535Y-99040000D01*
X76942889Y-98971414D01*
X76772729Y-98900932D01*
X76592089Y-98865000D01*
X76407911Y-98865000D01*
X76227271Y-98900932D01*
X76057111Y-98971414D01*
X75903972Y-99073738D01*
X75773738Y-99203972D01*
X75671414Y-99357111D01*
X75600932Y-99527271D01*
X75565000Y-99707911D01*
X75565000Y-99892089D01*
X75600932Y-100072729D01*
X75671414Y-100242889D01*
X75768908Y-100388799D01*
X75742889Y-100371414D01*
X75572729Y-100300932D01*
X75392089Y-100265000D01*
X75207911Y-100265000D01*
X75027271Y-100300932D01*
X74857111Y-100371414D01*
X74703972Y-100473738D01*
X74573738Y-100603972D01*
X74471414Y-100757111D01*
X74400932Y-100927271D01*
X74365000Y-101107911D01*
X74365000Y-101292089D01*
X74400932Y-101472729D01*
X74471414Y-101642889D01*
X74573738Y-101796028D01*
X74703972Y-101926262D01*
X74857111Y-102028586D01*
X75027271Y-102099068D01*
X75148351Y-102123153D01*
X75736201Y-102711003D01*
X75759999Y-102740001D01*
X75788997Y-102763799D01*
X75875724Y-102834974D01*
X76007753Y-102905546D01*
X76151014Y-102949003D01*
X76300000Y-102963677D01*
X76337333Y-102960000D01*
X81874530Y-102960000D01*
X81865000Y-103007911D01*
X81865000Y-103192089D01*
X81900932Y-103372729D01*
X81971414Y-103542889D01*
X82073738Y-103696028D01*
X82203972Y-103826262D01*
X82357111Y-103928586D01*
X82527271Y-103999068D01*
X82707911Y-104035000D01*
X82892089Y-104035000D01*
X83072729Y-103999068D01*
X83242889Y-103928586D01*
X83308120Y-103885000D01*
X87236778Y-103885000D01*
X87103972Y-103973738D01*
X86973738Y-104103972D01*
X86871414Y-104257111D01*
X86800932Y-104427271D01*
X86765000Y-104607911D01*
X86765000Y-104715000D01*
X74725158Y-104715000D01*
X73814374Y-103804216D01*
X73799068Y-103727271D01*
X73728586Y-103557111D01*
X73626262Y-103403972D01*
X73496028Y-103273738D01*
X73342889Y-103171414D01*
X73172729Y-103100932D01*
X72992089Y-103065000D01*
X72807911Y-103065000D01*
X72627271Y-103100932D01*
X72457111Y-103171414D01*
X72303972Y-103273738D01*
X72173738Y-103403972D01*
X72071414Y-103557111D01*
X72000932Y-103727271D01*
X71965000Y-103907911D01*
X71965000Y-104092089D01*
X72000932Y-104272729D01*
X72039152Y-104365000D01*
X72007911Y-104365000D01*
X71827271Y-104400932D01*
X71657111Y-104471414D01*
X71503972Y-104573738D01*
X71373738Y-104703972D01*
X71271414Y-104857111D01*
X71200932Y-105027271D01*
X71165000Y-105207911D01*
X68101313Y-105207911D01*
X68396925Y-105149110D01*
X68803669Y-104980631D01*
X69169729Y-104736038D01*
X69481038Y-104424729D01*
X69725631Y-104058669D01*
X69894110Y-103651925D01*
X69980000Y-103220128D01*
X69980000Y-102779872D01*
X69894110Y-102348075D01*
X69725631Y-101941331D01*
X69481038Y-101575271D01*
X69169729Y-101263962D01*
X68803669Y-101019369D01*
X68396925Y-100850890D01*
X67965128Y-100765000D01*
X67524872Y-100765000D01*
X67093075Y-100850890D01*
X66686331Y-101019369D01*
X66320271Y-101263962D01*
X66008962Y-101575271D01*
X65764369Y-101941331D01*
X65595890Y-102348075D01*
X65510000Y-102779872D01*
X62375276Y-102779872D01*
X62343842Y-102500189D01*
X62201297Y-102052532D01*
X62010766Y-101696073D01*
X61669609Y-101509997D01*
X60179605Y-103000000D01*
X59820395Y-103000000D01*
X58330391Y-101509997D01*
X57989234Y-101696073D01*
X57773487Y-102113409D01*
X57643304Y-102564815D01*
X57603687Y-103032946D01*
X55710000Y-103032946D01*
X55710000Y-101330391D01*
X58509997Y-101330391D01*
X60000000Y-102820395D01*
X61490003Y-101330391D01*
X61303927Y-100989234D01*
X60886591Y-100773487D01*
X60435185Y-100643304D01*
X59967054Y-100603687D01*
X59500189Y-100656158D01*
X59052532Y-100798703D01*
X58696073Y-100989234D01*
X58509997Y-101330391D01*
X55710000Y-101330391D01*
X55710000Y-95907911D01*
X86765000Y-95907911D01*
X86765000Y-96092089D01*
X86800932Y-96272729D01*
X86871414Y-96442889D01*
X86973738Y-96596028D01*
X87103972Y-96726262D01*
X87257111Y-96828586D01*
X87427271Y-96899068D01*
X87607911Y-96935000D01*
X87792089Y-96935000D01*
X87972729Y-96899068D01*
X88142889Y-96828586D01*
X88296028Y-96726262D01*
X88426262Y-96596028D01*
X88528586Y-96442889D01*
X88599068Y-96272729D01*
X88635000Y-96092089D01*
X88635000Y-95907911D01*
X88599068Y-95727271D01*
X88555614Y-95622364D01*
X88672729Y-95599068D01*
X88842889Y-95528586D01*
X88908120Y-95485000D01*
X99691880Y-95485000D01*
X99757111Y-95528586D01*
X99927271Y-95599068D01*
X100107911Y-95635000D01*
X100292089Y-95635000D01*
X100472729Y-95599068D01*
X100642889Y-95528586D01*
X100796028Y-95426262D01*
X100926262Y-95296028D01*
X101028586Y-95142889D01*
X101099068Y-94972729D01*
X101135000Y-94792089D01*
X101135000Y-94607911D01*
X101099068Y-94427271D01*
X101029126Y-94258415D01*
X101127271Y-94299068D01*
X101307911Y-94335000D01*
X101492089Y-94335000D01*
X101672729Y-94299068D01*
X101842889Y-94228586D01*
X101996028Y-94126262D01*
X102126262Y-93996028D01*
X102228586Y-93842889D01*
X102299068Y-93672729D01*
X102335000Y-93492089D01*
X102335000Y-93307911D01*
X102299068Y-93127271D01*
X102228586Y-92957111D01*
X102126262Y-92803972D01*
X101996028Y-92673738D01*
X101842889Y-92571414D01*
X101672729Y-92500932D01*
X101492089Y-92465000D01*
X101307911Y-92465000D01*
X101127271Y-92500932D01*
X100957111Y-92571414D01*
X100891880Y-92615000D01*
X88808120Y-92615000D01*
X88742889Y-92571414D01*
X88572729Y-92500932D01*
X88392089Y-92465000D01*
X88207911Y-92465000D01*
X88027271Y-92500932D01*
X87857111Y-92571414D01*
X87703972Y-92673738D01*
X87573738Y-92803972D01*
X87471414Y-92957111D01*
X87400932Y-93127271D01*
X87365000Y-93307911D01*
X87365000Y-93492089D01*
X87400932Y-93672729D01*
X87471414Y-93842889D01*
X87573738Y-93996028D01*
X87677710Y-94100000D01*
X87673738Y-94103972D01*
X87571414Y-94257111D01*
X87500932Y-94427271D01*
X87465000Y-94607911D01*
X87465000Y-94792089D01*
X87500932Y-94972729D01*
X87544386Y-95077636D01*
X87427271Y-95100932D01*
X87257111Y-95171414D01*
X87103972Y-95273738D01*
X86973738Y-95403972D01*
X86871414Y-95557111D01*
X86800932Y-95727271D01*
X86765000Y-95907911D01*
X55710000Y-95907911D01*
X55710000Y-87098061D01*
X87965000Y-87098061D01*
X87965000Y-87301939D01*
X88004774Y-87501898D01*
X88082795Y-87690256D01*
X88196063Y-87859774D01*
X88340226Y-88003937D01*
X88509744Y-88117205D01*
X88698102Y-88195226D01*
X88836023Y-88222660D01*
X88804774Y-88298102D01*
X88765000Y-88498061D01*
X88765000Y-88701939D01*
X88804774Y-88901898D01*
X88882795Y-89090256D01*
X88996063Y-89259774D01*
X89140226Y-89403937D01*
X89309744Y-89517205D01*
X89498102Y-89595226D01*
X89698061Y-89635000D01*
X89901939Y-89635000D01*
X90101898Y-89595226D01*
X90290256Y-89517205D01*
X90459774Y-89403937D01*
X90603937Y-89259774D01*
X90717205Y-89090256D01*
X90795226Y-88901898D01*
X90835000Y-88701939D01*
X90835000Y-88607911D01*
X97365000Y-88607911D01*
X97365000Y-88792089D01*
X97400932Y-88972729D01*
X97471414Y-89142889D01*
X97573738Y-89296028D01*
X97703972Y-89426262D01*
X97857111Y-89528586D01*
X98027271Y-89599068D01*
X98207911Y-89635000D01*
X98392089Y-89635000D01*
X98572729Y-89599068D01*
X98742889Y-89528586D01*
X98808120Y-89485000D01*
X101891880Y-89485000D01*
X101957111Y-89528586D01*
X102127271Y-89599068D01*
X102307911Y-89635000D01*
X102492089Y-89635000D01*
X102672729Y-89599068D01*
X102842889Y-89528586D01*
X102996028Y-89426262D01*
X103126262Y-89296028D01*
X103228586Y-89142889D01*
X103299068Y-88972729D01*
X103335000Y-88792089D01*
X103335000Y-88607911D01*
X103299068Y-88427271D01*
X103228586Y-88257111D01*
X103126262Y-88103972D01*
X102996028Y-87973738D01*
X102842889Y-87871414D01*
X102672729Y-87800932D01*
X102492089Y-87765000D01*
X102307911Y-87765000D01*
X102127271Y-87800932D01*
X101957111Y-87871414D01*
X101891880Y-87915000D01*
X98808120Y-87915000D01*
X98742889Y-87871414D01*
X98572729Y-87800932D01*
X98392089Y-87765000D01*
X98207911Y-87765000D01*
X98027271Y-87800932D01*
X97857111Y-87871414D01*
X97703972Y-87973738D01*
X97573738Y-88103972D01*
X97471414Y-88257111D01*
X97400932Y-88427271D01*
X97365000Y-88607911D01*
X90835000Y-88607911D01*
X90835000Y-88498061D01*
X90795226Y-88298102D01*
X90717205Y-88109744D01*
X90603937Y-87940226D01*
X90459774Y-87796063D01*
X90290256Y-87682795D01*
X90101898Y-87604774D01*
X89963977Y-87577340D01*
X89995226Y-87501898D01*
X90035000Y-87301939D01*
X90035000Y-87098061D01*
X89995226Y-86898102D01*
X89917205Y-86709744D01*
X89803937Y-86540226D01*
X89659774Y-86396063D01*
X89490256Y-86282795D01*
X89301898Y-86204774D01*
X89101939Y-86165000D01*
X88898061Y-86165000D01*
X88698102Y-86204774D01*
X88509744Y-86282795D01*
X88340226Y-86396063D01*
X88196063Y-86540226D01*
X88082795Y-86709744D01*
X88004774Y-86898102D01*
X87965000Y-87098061D01*
X55710000Y-87098061D01*
X55710000Y-80031618D01*
X55746532Y-79622285D01*
X56165000Y-79622285D01*
X56165000Y-80377715D01*
X56312377Y-81118628D01*
X56601467Y-81816554D01*
X57021161Y-82444670D01*
X57555330Y-82978839D01*
X58183446Y-83398533D01*
X58881372Y-83687623D01*
X59622285Y-83835000D01*
X60377715Y-83835000D01*
X61118628Y-83687623D01*
X61816554Y-83398533D01*
X62444670Y-82978839D01*
X62978839Y-82444670D01*
X63398533Y-81816554D01*
X63687623Y-81118628D01*
X63835000Y-80377715D01*
X63835000Y-79622285D01*
X63687623Y-78881372D01*
X63398533Y-78183446D01*
X62978839Y-77555330D01*
X62444670Y-77021161D01*
X61816554Y-76601467D01*
X61118628Y-76312377D01*
X60377715Y-76165000D01*
X59622285Y-76165000D01*
X58881372Y-76312377D01*
X58183446Y-76601467D01*
X57555330Y-77021161D01*
X57021161Y-77555330D01*
X56601467Y-78183446D01*
X56312377Y-78881372D01*
X56165000Y-79622285D01*
X55746532Y-79622285D01*
X55780578Y-79240808D01*
X55981705Y-78505611D01*
X56309846Y-77817649D01*
X56754628Y-77198669D01*
X57301988Y-76668239D01*
X57934639Y-76243116D01*
X58632561Y-75936749D01*
X59379183Y-75757501D01*
X60026030Y-75710000D01*
X127257012Y-75710000D01*
X127278814Y-75819606D01*
G36*
X127240000Y-78175524D02*
G01*
X127240000Y-78374476D01*
X127278814Y-78569606D01*
X127354950Y-78753414D01*
X127465482Y-78918837D01*
X127606163Y-79059518D01*
X127771586Y-79170050D01*
X127940460Y-79240000D01*
X125912323Y-79240000D01*
X125874998Y-79236324D01*
X125837673Y-79240000D01*
X125837665Y-79240000D01*
X125726012Y-79250997D01*
X125582751Y-79294454D01*
X125450722Y-79365026D01*
X125334997Y-79459999D01*
X125311199Y-79488997D01*
X124660198Y-80139999D01*
X120643409Y-80139999D01*
X120700269Y-80097588D01*
X120895178Y-79881355D01*
X121044157Y-79631252D01*
X121141481Y-79356891D01*
X121020814Y-79127000D01*
X119827000Y-79127000D01*
X119827000Y-79147000D01*
X119573000Y-79147000D01*
X119573000Y-79127000D01*
X119553000Y-79127000D01*
X119553000Y-78873000D01*
X119573000Y-78873000D01*
X119573000Y-78853000D01*
X119827000Y-78853000D01*
X119827000Y-78873000D01*
X121020814Y-78873000D01*
X121141481Y-78643109D01*
X121044157Y-78368748D01*
X120904920Y-78135000D01*
X127248061Y-78135000D01*
X127240000Y-78175524D01*
G37*
X127240000Y-78175524D02*
X127240000Y-78374476D01*
X127278814Y-78569606D01*
X127354950Y-78753414D01*
X127465482Y-78918837D01*
X127606163Y-79059518D01*
X127771586Y-79170050D01*
X127940460Y-79240000D01*
X125912323Y-79240000D01*
X125874998Y-79236324D01*
X125837673Y-79240000D01*
X125837665Y-79240000D01*
X125726012Y-79250997D01*
X125582751Y-79294454D01*
X125450722Y-79365026D01*
X125334997Y-79459999D01*
X125311199Y-79488997D01*
X124660198Y-80139999D01*
X120643409Y-80139999D01*
X120700269Y-80097588D01*
X120895178Y-79881355D01*
X121044157Y-79631252D01*
X121141481Y-79356891D01*
X121020814Y-79127000D01*
X119827000Y-79127000D01*
X119827000Y-79147000D01*
X119573000Y-79147000D01*
X119573000Y-79127000D01*
X119553000Y-79127000D01*
X119553000Y-78873000D01*
X119573000Y-78873000D01*
X119573000Y-78853000D01*
X119827000Y-78853000D01*
X119827000Y-78873000D01*
X121020814Y-78873000D01*
X121141481Y-78643109D01*
X121044157Y-78368748D01*
X120904920Y-78135000D01*
X127248061Y-78135000D01*
X127240000Y-78175524D01*
G36*
X137478814Y-75819606D02*
G01*
X137554950Y-76003414D01*
X137665482Y-76168837D01*
X137806163Y-76309518D01*
X137971586Y-76420050D01*
X138080105Y-76465000D01*
X128619895Y-76465000D01*
X128728414Y-76420050D01*
X128893837Y-76309518D01*
X129034518Y-76168837D01*
X129145050Y-76003414D01*
X129221186Y-75819606D01*
X129242988Y-75710000D01*
X137457012Y-75710000D01*
X137478814Y-75819606D01*
G37*
X137478814Y-75819606D02*
X137554950Y-76003414D01*
X137665482Y-76168837D01*
X137806163Y-76309518D01*
X137971586Y-76420050D01*
X138080105Y-76465000D01*
X128619895Y-76465000D01*
X128728414Y-76420050D01*
X128893837Y-76309518D01*
X129034518Y-76168837D01*
X129145050Y-76003414D01*
X129221186Y-75819606D01*
X129242988Y-75710000D01*
X137457012Y-75710000D01*
X137478814Y-75819606D01*
D24*
G36*
X131950030Y-135335579D02*
G01*
X131905602Y-135482039D01*
X131889059Y-135650000D01*
X131889059Y-138650000D01*
X131903799Y-138799657D01*
X131454006Y-139324416D01*
X129641422Y-139324416D01*
X129200000Y-138882994D01*
X129200000Y-135465838D01*
X129641422Y-135024416D01*
X131543377Y-135024416D01*
X131950030Y-135335579D01*
G37*
X131950030Y-135335579D02*
X131905602Y-135482039D01*
X131889059Y-135650000D01*
X131889059Y-138650000D01*
X131903799Y-138799657D01*
X131454006Y-139324416D01*
X129641422Y-139324416D01*
X129200000Y-138882994D01*
X129200000Y-135465838D01*
X129641422Y-135024416D01*
X131543377Y-135024416D01*
X131950030Y-135335579D01*
M02*
