M48
; DRILL file {KiCad (5.1.5-0-10_14)} date 2020 April 17, Friday 21:23:03
; FORMAT={-:-/ absolute / inch / decimal}
; #@! TF.CreationDate,2020-04-17T21:23:03+02:00
; #@! TF.GenerationSoftware,Kicad,Pcbnew,(5.1.5-0-10_14)
; #@! TF.FileFunction,Plated,1,2,PTH
FMAT,2
INCH
T1C0.0118
T2C0.0157
T3C0.0197
T4C0.0394
T5C0.0606
T6C0.0787
T7C0.1260
%
G90
G05
T1
X2.2008Y-3.3307
X2.2087Y-3.5709
X2.8386Y-4.1457
X2.8701Y-4.0945
X2.8937Y-3.185
X2.9094Y-5.0039
X2.9646Y-3.9843
X2.9803Y-4.3189
X3.0118Y-3.9291
X3.0787Y-3.9921
X3.1102Y-3.9606
X3.252Y-4.3189
X3.2598Y-4.0591
X3.3937Y-3.8504
X3.4528Y-3.7795
X3.4528Y-4.122
X3.4764Y-3.6772
X3.4803Y-3.7283
X3.622Y-5.0039
X3.6949Y-4.8642
X3.6949Y-4.9035
X3.6949Y-4.9429
X3.7185Y-4.7579
X3.7185Y-4.7972
X3.7539Y-4.7972
X3.7992Y-4.0551
X3.8169Y-4.9114
X3.8622Y-3.8937
X3.8701Y-3.4921
X3.9016Y-4.122
X3.9114Y-4.8642
X3.9114Y-4.9035
X3.9114Y-4.9429
X3.935Y-4.7579
X3.935Y-4.7972
X3.9449Y-3.7283
X3.9705Y-4.7972
X3.9921Y-3.6772
X4.0315Y-3.2244
X4.0315Y-3.4921
X4.0315Y-4.9094
X4.128Y-4.8642
X4.128Y-4.9035
X4.128Y-4.9429
X4.1516Y-4.7579
X4.1516Y-4.7972
X4.187Y-4.7972
X4.25Y-4.9114
X4.3445Y-4.8642
X4.3445Y-4.9035
X4.3445Y-4.9429
X4.3681Y-4.7579
X4.3681Y-4.7972
X4.3819Y-3.9094
X4.4035Y-4.7972
X4.4134Y-3.9646
X4.4134Y-4.0236
X4.4665Y-4.9114
X4.4685Y-3.937
X4.561Y-4.8642
X4.561Y-4.9035
X4.561Y-4.9429
X4.5846Y-4.7579
X4.5846Y-4.7972
X4.6201Y-4.7972
X4.6831Y-4.9154
X4.752Y-4.189
X4.752Y-4.5472
X4.9449Y-3.1969
X4.9449Y-4.5748
X4.9843Y-4.1535
X5.0709Y-3.8898
X5.2165Y-3.1496
X5.252Y-3.8976
X5.9055Y-4.685
T2
X2.5591Y-2.9941
X2.5591Y-3.0472
X2.5669Y-4.3563
X2.5669Y-4.4094
X2.5669Y-4.4941
X2.5669Y-4.5472
X2.6063Y-3.811
X2.6102Y-2.9941
X2.6102Y-3.0472
X2.6142Y-4.2362
X2.6142Y-4.2835
X2.622Y-5.5236
X2.6496Y-5.4528
X3.1142Y-5.252
X3.1535Y-5.5118
X3.4528Y-2.9902
X3.4528Y-3.0433
X3.4823Y-5.25
X3.5039Y-2.9902
X3.5039Y-3.0433
X3.5039Y-3.4331
X3.5157Y-5.4449
X3.5354Y-3.4882
X3.5433Y-3.2579
X3.563Y-3.2972
X3.7165Y-3.1102
X3.7205Y-3.4843
X3.7992Y-3.248
X3.7992Y-3.2972
X4.0118Y-5.2874
X4.0197Y-5.3819
X4.8622Y-2.9921
X5.1063Y-5.3504
X5.1063Y-5.3898
X5.1063Y-5.4331
X5.2087Y-2.9921
X5.2756Y-2.9921
X5.4055Y-5.1299
X5.4055Y-5.1693
X5.4291Y-5.3504
X5.4488Y-5.4764
X5.4488Y-5.5157
X5.4488Y-5.5591
X5.4587Y-5.1299
X5.4587Y-5.1693
X5.6693Y-3.9587
X5.6693Y-3.998
X5.7126Y-3.9587
X5.7126Y-3.998
X5.752Y-3.3228
X5.7559Y-3.9587
X5.7559Y-3.998
X5.7874Y-5.3543
X5.7992Y-3.9587
X5.7992Y-3.998
X5.7992Y-5.2283
X5.8425Y-3.9587
X5.8425Y-3.998
T3
X5.811Y-3.1496
X5.8387Y-3.0828
X5.8387Y-3.2164
X5.9055Y-3.0551
X5.9055Y-3.2441
X5.9723Y-3.0828
X5.9723Y-3.2164
X6.0Y-3.1496
X2.2677Y-5.5118
X2.2954Y-5.445
X2.2954Y-5.5786
X2.3622Y-5.4173
X2.3622Y-5.6063
X2.429Y-5.445
X2.429Y-5.5786
X2.4567Y-5.5118
X2.2677Y-3.1496
X2.2954Y-3.0828
X2.2954Y-3.2164
X2.3622Y-3.0551
X2.3622Y-3.2441
X2.429Y-3.0828
X2.429Y-3.2164
X2.4567Y-3.1496
X5.811Y-5.5118
X5.8387Y-5.445
X5.8387Y-5.5786
X5.9055Y-5.4173
X5.9055Y-5.6063
X5.9723Y-5.445
X5.9723Y-5.5786
X6.0Y-5.5118
T4
X2.7504Y-5.6024
X2.8504Y-5.6024
X2.9504Y-5.6024
X3.9173Y-5.6024
X4.0173Y-5.6024
X4.1173Y-5.6024
X4.2173Y-5.6024
X4.3173Y-5.6024
X4.4173Y-5.6024
X4.5173Y-5.6024
X4.6173Y-5.6024
X4.7173Y-5.6024
X4.8173Y-5.6024
X3.311Y-5.6063
X3.411Y-5.6063
X3.511Y-5.6063
X5.5339Y-5.0236
X5.6339Y-5.0236
X4.2126Y-3.1102
X4.3126Y-3.1102
X4.4126Y-3.1102
X4.5126Y-3.1102
X4.6126Y-3.1102
X4.7126Y-3.1102
T5
X5.1142Y-4.2205
X5.1142Y-4.3543
X5.1142Y-4.6535
X5.1142Y-4.7913
X6.0157Y-4.2323
X6.0157Y-4.7913
T6
X2.3622Y-4.0551
X5.1969Y-4.0551
X2.3622Y-4.9606
X5.1969Y-4.9606
T7
X2.3622Y-3.1496
X5.9055Y-5.5118
X5.9055Y-3.1496
X2.3622Y-5.5118
T0
M30
