G04 #@! TF.GenerationSoftware,KiCad,Pcbnew,(5.1.5-0-10_14)*
G04 #@! TF.CreationDate,2020-04-17T21:23:15+02:00*
G04 #@! TF.ProjectId,inuk-base,696e756b-2d62-4617-9365-2e6b69636164,rev?*
G04 #@! TF.SameCoordinates,Original*
G04 #@! TF.FileFunction,Soldermask,Bot*
G04 #@! TF.FilePolarity,Negative*
%FSLAX46Y46*%
G04 Gerber Fmt 4.6, Leading zero omitted, Abs format (unit mm)*
G04 Created by KiCad (PCBNEW (5.1.5-0-10_14)) date 2020-04-17 21:23:15*
%MOMM*%
%LPD*%
G04 APERTURE LIST*
%ADD10C,1.150000*%
%ADD11C,0.100000*%
%ADD12C,1.300000*%
%ADD13O,2.100000X2.100000*%
%ADD14R,2.100000X2.100000*%
%ADD15R,3.200000X3.200000*%
%ADD16C,1.200000*%
%ADD17C,6.800000*%
%ADD18C,3.600000*%
%ADD19R,3.900000X3.900000*%
%ADD20C,3.900000*%
G04 APERTURE END LIST*
D10*
X138450000Y-75525000D03*
X138450000Y-78275000D03*
X128250000Y-75525000D03*
X128250000Y-78275000D03*
D11*
G36*
X129314372Y-141001525D02*
G01*
X129345112Y-141006085D01*
X129375257Y-141013636D01*
X129404516Y-141024105D01*
X129432609Y-141037392D01*
X129459264Y-141053368D01*
X129484224Y-141071880D01*
X129507250Y-141092750D01*
X129528120Y-141115776D01*
X129546632Y-141140736D01*
X129562608Y-141167391D01*
X129575895Y-141195484D01*
X129586364Y-141224743D01*
X129593915Y-141254888D01*
X129598475Y-141285628D01*
X129600000Y-141316667D01*
X129600000Y-144483333D01*
X129598475Y-144514372D01*
X129593915Y-144545112D01*
X129586364Y-144575257D01*
X129575895Y-144604516D01*
X129562608Y-144632609D01*
X129546632Y-144659264D01*
X129528120Y-144684224D01*
X129507250Y-144707250D01*
X129484224Y-144728120D01*
X129459264Y-144746632D01*
X129432609Y-144762608D01*
X129404516Y-144775895D01*
X129375257Y-144786364D01*
X129345112Y-144793915D01*
X129314372Y-144798475D01*
X129283333Y-144800000D01*
X128016667Y-144800000D01*
X127985628Y-144798475D01*
X127954888Y-144793915D01*
X127924743Y-144786364D01*
X127895484Y-144775895D01*
X127867391Y-144762608D01*
X127840736Y-144746632D01*
X127815776Y-144728120D01*
X127792750Y-144707250D01*
X127771880Y-144684224D01*
X127753368Y-144659264D01*
X127737392Y-144632609D01*
X127724105Y-144604516D01*
X127713636Y-144575257D01*
X127706085Y-144545112D01*
X127701525Y-144514372D01*
X127700000Y-144483333D01*
X127700000Y-141316667D01*
X127701525Y-141285628D01*
X127706085Y-141254888D01*
X127713636Y-141224743D01*
X127724105Y-141195484D01*
X127737392Y-141167391D01*
X127753368Y-141140736D01*
X127771880Y-141115776D01*
X127792750Y-141092750D01*
X127815776Y-141071880D01*
X127840736Y-141053368D01*
X127867391Y-141037392D01*
X127895484Y-141024105D01*
X127924743Y-141013636D01*
X127954888Y-141006085D01*
X127985628Y-141001525D01*
X128016667Y-141000000D01*
X129283333Y-141000000D01*
X129314372Y-141001525D01*
G37*
G36*
X136014372Y-141001525D02*
G01*
X136045112Y-141006085D01*
X136075257Y-141013636D01*
X136104516Y-141024105D01*
X136132609Y-141037392D01*
X136159264Y-141053368D01*
X136184224Y-141071880D01*
X136207250Y-141092750D01*
X136228120Y-141115776D01*
X136246632Y-141140736D01*
X136262608Y-141167391D01*
X136275895Y-141195484D01*
X136286364Y-141224743D01*
X136293915Y-141254888D01*
X136298475Y-141285628D01*
X136300000Y-141316667D01*
X136300000Y-144483333D01*
X136298475Y-144514372D01*
X136293915Y-144545112D01*
X136286364Y-144575257D01*
X136275895Y-144604516D01*
X136262608Y-144632609D01*
X136246632Y-144659264D01*
X136228120Y-144684224D01*
X136207250Y-144707250D01*
X136184224Y-144728120D01*
X136159264Y-144746632D01*
X136132609Y-144762608D01*
X136104516Y-144775895D01*
X136075257Y-144786364D01*
X136045112Y-144793915D01*
X136014372Y-144798475D01*
X135983333Y-144800000D01*
X134716667Y-144800000D01*
X134685628Y-144798475D01*
X134654888Y-144793915D01*
X134624743Y-144786364D01*
X134595484Y-144775895D01*
X134567391Y-144762608D01*
X134540736Y-144746632D01*
X134515776Y-144728120D01*
X134492750Y-144707250D01*
X134471880Y-144684224D01*
X134453368Y-144659264D01*
X134437392Y-144632609D01*
X134424105Y-144604516D01*
X134413636Y-144575257D01*
X134406085Y-144545112D01*
X134401525Y-144514372D01*
X134400000Y-144483333D01*
X134400000Y-141316667D01*
X134401525Y-141285628D01*
X134406085Y-141254888D01*
X134413636Y-141224743D01*
X134424105Y-141195484D01*
X134437392Y-141167391D01*
X134453368Y-141140736D01*
X134471880Y-141115776D01*
X134492750Y-141092750D01*
X134515776Y-141071880D01*
X134540736Y-141053368D01*
X134567391Y-141037392D01*
X134595484Y-141024105D01*
X134624743Y-141013636D01*
X134654888Y-141006085D01*
X134685628Y-141001525D01*
X134716667Y-141000000D01*
X135983333Y-141000000D01*
X136014372Y-141001525D01*
G37*
G36*
X131384306Y-135201685D02*
G01*
X131418282Y-135206725D01*
X131451600Y-135215071D01*
X131483939Y-135226642D01*
X131514989Y-135241328D01*
X131544450Y-135258986D01*
X131572038Y-135279446D01*
X131597487Y-135302513D01*
X131620554Y-135327962D01*
X131641014Y-135355550D01*
X131658672Y-135385011D01*
X131673358Y-135416061D01*
X131684929Y-135448400D01*
X131693275Y-135481718D01*
X131698315Y-135515694D01*
X131700000Y-135550000D01*
X131700000Y-138750000D01*
X131698315Y-138784306D01*
X131693275Y-138818282D01*
X131684929Y-138851600D01*
X131673358Y-138883939D01*
X131658672Y-138914989D01*
X131641014Y-138944450D01*
X131620554Y-138972038D01*
X131597487Y-138997487D01*
X131572038Y-139020554D01*
X131544450Y-139041014D01*
X131514989Y-139058672D01*
X131483939Y-139073358D01*
X131451600Y-139084929D01*
X131418282Y-139093275D01*
X131384306Y-139098315D01*
X131350000Y-139100000D01*
X130650000Y-139100000D01*
X130615694Y-139098315D01*
X130581718Y-139093275D01*
X130548400Y-139084929D01*
X130516061Y-139073358D01*
X130485011Y-139058672D01*
X130455550Y-139041014D01*
X130427962Y-139020554D01*
X130402513Y-138997487D01*
X130379446Y-138972038D01*
X130358986Y-138944450D01*
X130341328Y-138914989D01*
X130326642Y-138883939D01*
X130315071Y-138851600D01*
X130306725Y-138818282D01*
X130301685Y-138784306D01*
X130300000Y-138750000D01*
X130300000Y-135550000D01*
X130301685Y-135515694D01*
X130306725Y-135481718D01*
X130315071Y-135448400D01*
X130326642Y-135416061D01*
X130341328Y-135385011D01*
X130358986Y-135355550D01*
X130379446Y-135327962D01*
X130402513Y-135302513D01*
X130427962Y-135279446D01*
X130455550Y-135258986D01*
X130485011Y-135241328D01*
X130516061Y-135226642D01*
X130548400Y-135215071D01*
X130581718Y-135206725D01*
X130615694Y-135201685D01*
X130650000Y-135200000D01*
X131350000Y-135200000D01*
X131384306Y-135201685D01*
G37*
G36*
X133384306Y-135201685D02*
G01*
X133418282Y-135206725D01*
X133451600Y-135215071D01*
X133483939Y-135226642D01*
X133514989Y-135241328D01*
X133544450Y-135258986D01*
X133572038Y-135279446D01*
X133597487Y-135302513D01*
X133620554Y-135327962D01*
X133641014Y-135355550D01*
X133658672Y-135385011D01*
X133673358Y-135416061D01*
X133684929Y-135448400D01*
X133693275Y-135481718D01*
X133698315Y-135515694D01*
X133700000Y-135550000D01*
X133700000Y-138750000D01*
X133698315Y-138784306D01*
X133693275Y-138818282D01*
X133684929Y-138851600D01*
X133673358Y-138883939D01*
X133658672Y-138914989D01*
X133641014Y-138944450D01*
X133620554Y-138972038D01*
X133597487Y-138997487D01*
X133572038Y-139020554D01*
X133544450Y-139041014D01*
X133514989Y-139058672D01*
X133483939Y-139073358D01*
X133451600Y-139084929D01*
X133418282Y-139093275D01*
X133384306Y-139098315D01*
X133350000Y-139100000D01*
X132650000Y-139100000D01*
X132615694Y-139098315D01*
X132581718Y-139093275D01*
X132548400Y-139084929D01*
X132516061Y-139073358D01*
X132485011Y-139058672D01*
X132455550Y-139041014D01*
X132427962Y-139020554D01*
X132402513Y-138997487D01*
X132379446Y-138972038D01*
X132358986Y-138944450D01*
X132341328Y-138914989D01*
X132326642Y-138883939D01*
X132315071Y-138851600D01*
X132306725Y-138818282D01*
X132301685Y-138784306D01*
X132300000Y-138750000D01*
X132300000Y-135550000D01*
X132301685Y-135515694D01*
X132306725Y-135481718D01*
X132315071Y-135448400D01*
X132326642Y-135416061D01*
X132341328Y-135385011D01*
X132358986Y-135355550D01*
X132379446Y-135327962D01*
X132402513Y-135302513D01*
X132427962Y-135279446D01*
X132455550Y-135258986D01*
X132485011Y-135241328D01*
X132516061Y-135226642D01*
X132548400Y-135215071D01*
X132581718Y-135206725D01*
X132615694Y-135201685D01*
X132650000Y-135200000D01*
X133350000Y-135200000D01*
X133384306Y-135201685D01*
G37*
D12*
X152900000Y-126900000D03*
X152900000Y-133700000D03*
D13*
X140560000Y-127600000D03*
D14*
X143100000Y-127600000D03*
D13*
X89180000Y-142400000D03*
X86640000Y-142400000D03*
D14*
X84100000Y-142400000D03*
D13*
X74940000Y-142300000D03*
X72400000Y-142300000D03*
D14*
X69860000Y-142300000D03*
D15*
X129900000Y-110600000D03*
X129900000Y-118200000D03*
X129900000Y-107200000D03*
X129900000Y-121700000D03*
X152800000Y-107500000D03*
X152800000Y-121700000D03*
D13*
X122360000Y-142300000D03*
X119820000Y-142300000D03*
X117280000Y-142300000D03*
X114740000Y-142300000D03*
X112200000Y-142300000D03*
X109660000Y-142300000D03*
X107120000Y-142300000D03*
X104580000Y-142300000D03*
X102040000Y-142300000D03*
D14*
X99500000Y-142300000D03*
D11*
G36*
X123349398Y-139656112D02*
G01*
X123349398Y-139674534D01*
X123348435Y-139694140D01*
X123343625Y-139742971D01*
X123340746Y-139762380D01*
X123331174Y-139810505D01*
X123326404Y-139829548D01*
X123312160Y-139876503D01*
X123305549Y-139894980D01*
X123286772Y-139940313D01*
X123278377Y-139958061D01*
X123255246Y-140001334D01*
X123245160Y-140018162D01*
X123217900Y-140058961D01*
X123206205Y-140074730D01*
X123175077Y-140112659D01*
X123161897Y-140127200D01*
X123127200Y-140161897D01*
X123112659Y-140175077D01*
X123074730Y-140206205D01*
X123058961Y-140217900D01*
X123018162Y-140245160D01*
X123001334Y-140255246D01*
X122958061Y-140278377D01*
X122940313Y-140286772D01*
X122894980Y-140305549D01*
X122876503Y-140312160D01*
X122829548Y-140326404D01*
X122810505Y-140331174D01*
X122762380Y-140340746D01*
X122742971Y-140343625D01*
X122694140Y-140348435D01*
X122674534Y-140349398D01*
X122656112Y-140349398D01*
X122650000Y-140350000D01*
X122150000Y-140350000D01*
X122143888Y-140349398D01*
X122125466Y-140349398D01*
X122105860Y-140348435D01*
X122057029Y-140343625D01*
X122037620Y-140340746D01*
X121989495Y-140331174D01*
X121970452Y-140326404D01*
X121923497Y-140312160D01*
X121905020Y-140305549D01*
X121859687Y-140286772D01*
X121841939Y-140278377D01*
X121798666Y-140255246D01*
X121781838Y-140245160D01*
X121741039Y-140217900D01*
X121725270Y-140206205D01*
X121687341Y-140175077D01*
X121672800Y-140161897D01*
X121638103Y-140127200D01*
X121624923Y-140112659D01*
X121593795Y-140074730D01*
X121582100Y-140058961D01*
X121554840Y-140018162D01*
X121544754Y-140001334D01*
X121521623Y-139958061D01*
X121513228Y-139940313D01*
X121494451Y-139894980D01*
X121487840Y-139876503D01*
X121473596Y-139829548D01*
X121468826Y-139810505D01*
X121459254Y-139762380D01*
X121456375Y-139742971D01*
X121451565Y-139694140D01*
X121450602Y-139674534D01*
X121450602Y-139656112D01*
X121450000Y-139650000D01*
X121450000Y-139150000D01*
X121453843Y-139110982D01*
X121465224Y-139073463D01*
X121483706Y-139038886D01*
X121508579Y-139008579D01*
X121538886Y-138983706D01*
X121573463Y-138965224D01*
X121610982Y-138953843D01*
X121650000Y-138950000D01*
X123150000Y-138950000D01*
X123189018Y-138953843D01*
X123226537Y-138965224D01*
X123261114Y-138983706D01*
X123291421Y-139008579D01*
X123316294Y-139038886D01*
X123334776Y-139073463D01*
X123346157Y-139110982D01*
X123350000Y-139150000D01*
X123350000Y-139650000D01*
X123349398Y-139656112D01*
G37*
G36*
X123346157Y-138889018D02*
G01*
X123334776Y-138926537D01*
X123316294Y-138961114D01*
X123291421Y-138991421D01*
X123261114Y-139016294D01*
X123226537Y-139034776D01*
X123189018Y-139046157D01*
X123150000Y-139050000D01*
X121650000Y-139050000D01*
X121610982Y-139046157D01*
X121573463Y-139034776D01*
X121538886Y-139016294D01*
X121508579Y-138991421D01*
X121483706Y-138961114D01*
X121465224Y-138926537D01*
X121453843Y-138889018D01*
X121450000Y-138850000D01*
X121450000Y-138350000D01*
X121450602Y-138343888D01*
X121450602Y-138325466D01*
X121451565Y-138305860D01*
X121456375Y-138257029D01*
X121459254Y-138237620D01*
X121468826Y-138189495D01*
X121473596Y-138170452D01*
X121487840Y-138123497D01*
X121494451Y-138105020D01*
X121513228Y-138059687D01*
X121521623Y-138041939D01*
X121544754Y-137998666D01*
X121554840Y-137981838D01*
X121582100Y-137941039D01*
X121593795Y-137925270D01*
X121624923Y-137887341D01*
X121638103Y-137872800D01*
X121672800Y-137838103D01*
X121687341Y-137824923D01*
X121725270Y-137793795D01*
X121741039Y-137782100D01*
X121781838Y-137754840D01*
X121798666Y-137744754D01*
X121841939Y-137721623D01*
X121859687Y-137713228D01*
X121905020Y-137694451D01*
X121923497Y-137687840D01*
X121970452Y-137673596D01*
X121989495Y-137668826D01*
X122037620Y-137659254D01*
X122057029Y-137656375D01*
X122105860Y-137651565D01*
X122125466Y-137650602D01*
X122143888Y-137650602D01*
X122150000Y-137650000D01*
X122650000Y-137650000D01*
X122656112Y-137650602D01*
X122674534Y-137650602D01*
X122694140Y-137651565D01*
X122742971Y-137656375D01*
X122762380Y-137659254D01*
X122810505Y-137668826D01*
X122829548Y-137673596D01*
X122876503Y-137687840D01*
X122894980Y-137694451D01*
X122940313Y-137713228D01*
X122958061Y-137721623D01*
X123001334Y-137744754D01*
X123018162Y-137754840D01*
X123058961Y-137782100D01*
X123074730Y-137793795D01*
X123112659Y-137824923D01*
X123127200Y-137838103D01*
X123161897Y-137872800D01*
X123175077Y-137887341D01*
X123206205Y-137925270D01*
X123217900Y-137941039D01*
X123245160Y-137981838D01*
X123255246Y-137998666D01*
X123278377Y-138041939D01*
X123286772Y-138059687D01*
X123305549Y-138105020D01*
X123312160Y-138123497D01*
X123326404Y-138170452D01*
X123331174Y-138189495D01*
X123340746Y-138237620D01*
X123343625Y-138257029D01*
X123348435Y-138305860D01*
X123349398Y-138325466D01*
X123349398Y-138343888D01*
X123350000Y-138350000D01*
X123350000Y-138850000D01*
X123346157Y-138889018D01*
G37*
G36*
X120649398Y-139656112D02*
G01*
X120649398Y-139674534D01*
X120648435Y-139694140D01*
X120643625Y-139742971D01*
X120640746Y-139762380D01*
X120631174Y-139810505D01*
X120626404Y-139829548D01*
X120612160Y-139876503D01*
X120605549Y-139894980D01*
X120586772Y-139940313D01*
X120578377Y-139958061D01*
X120555246Y-140001334D01*
X120545160Y-140018162D01*
X120517900Y-140058961D01*
X120506205Y-140074730D01*
X120475077Y-140112659D01*
X120461897Y-140127200D01*
X120427200Y-140161897D01*
X120412659Y-140175077D01*
X120374730Y-140206205D01*
X120358961Y-140217900D01*
X120318162Y-140245160D01*
X120301334Y-140255246D01*
X120258061Y-140278377D01*
X120240313Y-140286772D01*
X120194980Y-140305549D01*
X120176503Y-140312160D01*
X120129548Y-140326404D01*
X120110505Y-140331174D01*
X120062380Y-140340746D01*
X120042971Y-140343625D01*
X119994140Y-140348435D01*
X119974534Y-140349398D01*
X119956112Y-140349398D01*
X119950000Y-140350000D01*
X119450000Y-140350000D01*
X119443888Y-140349398D01*
X119425466Y-140349398D01*
X119405860Y-140348435D01*
X119357029Y-140343625D01*
X119337620Y-140340746D01*
X119289495Y-140331174D01*
X119270452Y-140326404D01*
X119223497Y-140312160D01*
X119205020Y-140305549D01*
X119159687Y-140286772D01*
X119141939Y-140278377D01*
X119098666Y-140255246D01*
X119081838Y-140245160D01*
X119041039Y-140217900D01*
X119025270Y-140206205D01*
X118987341Y-140175077D01*
X118972800Y-140161897D01*
X118938103Y-140127200D01*
X118924923Y-140112659D01*
X118893795Y-140074730D01*
X118882100Y-140058961D01*
X118854840Y-140018162D01*
X118844754Y-140001334D01*
X118821623Y-139958061D01*
X118813228Y-139940313D01*
X118794451Y-139894980D01*
X118787840Y-139876503D01*
X118773596Y-139829548D01*
X118768826Y-139810505D01*
X118759254Y-139762380D01*
X118756375Y-139742971D01*
X118751565Y-139694140D01*
X118750602Y-139674534D01*
X118750602Y-139656112D01*
X118750000Y-139650000D01*
X118750000Y-139150000D01*
X118753843Y-139110982D01*
X118765224Y-139073463D01*
X118783706Y-139038886D01*
X118808579Y-139008579D01*
X118838886Y-138983706D01*
X118873463Y-138965224D01*
X118910982Y-138953843D01*
X118950000Y-138950000D01*
X120450000Y-138950000D01*
X120489018Y-138953843D01*
X120526537Y-138965224D01*
X120561114Y-138983706D01*
X120591421Y-139008579D01*
X120616294Y-139038886D01*
X120634776Y-139073463D01*
X120646157Y-139110982D01*
X120650000Y-139150000D01*
X120650000Y-139650000D01*
X120649398Y-139656112D01*
G37*
G36*
X120646157Y-138889018D02*
G01*
X120634776Y-138926537D01*
X120616294Y-138961114D01*
X120591421Y-138991421D01*
X120561114Y-139016294D01*
X120526537Y-139034776D01*
X120489018Y-139046157D01*
X120450000Y-139050000D01*
X118950000Y-139050000D01*
X118910982Y-139046157D01*
X118873463Y-139034776D01*
X118838886Y-139016294D01*
X118808579Y-138991421D01*
X118783706Y-138961114D01*
X118765224Y-138926537D01*
X118753843Y-138889018D01*
X118750000Y-138850000D01*
X118750000Y-138350000D01*
X118750602Y-138343888D01*
X118750602Y-138325466D01*
X118751565Y-138305860D01*
X118756375Y-138257029D01*
X118759254Y-138237620D01*
X118768826Y-138189495D01*
X118773596Y-138170452D01*
X118787840Y-138123497D01*
X118794451Y-138105020D01*
X118813228Y-138059687D01*
X118821623Y-138041939D01*
X118844754Y-137998666D01*
X118854840Y-137981838D01*
X118882100Y-137941039D01*
X118893795Y-137925270D01*
X118924923Y-137887341D01*
X118938103Y-137872800D01*
X118972800Y-137838103D01*
X118987341Y-137824923D01*
X119025270Y-137793795D01*
X119041039Y-137782100D01*
X119081838Y-137754840D01*
X119098666Y-137744754D01*
X119141939Y-137721623D01*
X119159687Y-137713228D01*
X119205020Y-137694451D01*
X119223497Y-137687840D01*
X119270452Y-137673596D01*
X119289495Y-137668826D01*
X119337620Y-137659254D01*
X119357029Y-137656375D01*
X119405860Y-137651565D01*
X119425466Y-137650602D01*
X119443888Y-137650602D01*
X119450000Y-137650000D01*
X119950000Y-137650000D01*
X119956112Y-137650602D01*
X119974534Y-137650602D01*
X119994140Y-137651565D01*
X120042971Y-137656375D01*
X120062380Y-137659254D01*
X120110505Y-137668826D01*
X120129548Y-137673596D01*
X120176503Y-137687840D01*
X120194980Y-137694451D01*
X120240313Y-137713228D01*
X120258061Y-137721623D01*
X120301334Y-137744754D01*
X120318162Y-137754840D01*
X120358961Y-137782100D01*
X120374730Y-137793795D01*
X120412659Y-137824923D01*
X120427200Y-137838103D01*
X120461897Y-137872800D01*
X120475077Y-137887341D01*
X120506205Y-137925270D01*
X120517900Y-137941039D01*
X120545160Y-137981838D01*
X120555246Y-137998666D01*
X120578377Y-138041939D01*
X120586772Y-138059687D01*
X120605549Y-138105020D01*
X120612160Y-138123497D01*
X120626404Y-138170452D01*
X120631174Y-138189495D01*
X120640746Y-138237620D01*
X120643625Y-138257029D01*
X120648435Y-138305860D01*
X120649398Y-138325466D01*
X120649398Y-138343888D01*
X120650000Y-138350000D01*
X120650000Y-138850000D01*
X120646157Y-138889018D01*
G37*
G36*
X117849398Y-139656112D02*
G01*
X117849398Y-139674534D01*
X117848435Y-139694140D01*
X117843625Y-139742971D01*
X117840746Y-139762380D01*
X117831174Y-139810505D01*
X117826404Y-139829548D01*
X117812160Y-139876503D01*
X117805549Y-139894980D01*
X117786772Y-139940313D01*
X117778377Y-139958061D01*
X117755246Y-140001334D01*
X117745160Y-140018162D01*
X117717900Y-140058961D01*
X117706205Y-140074730D01*
X117675077Y-140112659D01*
X117661897Y-140127200D01*
X117627200Y-140161897D01*
X117612659Y-140175077D01*
X117574730Y-140206205D01*
X117558961Y-140217900D01*
X117518162Y-140245160D01*
X117501334Y-140255246D01*
X117458061Y-140278377D01*
X117440313Y-140286772D01*
X117394980Y-140305549D01*
X117376503Y-140312160D01*
X117329548Y-140326404D01*
X117310505Y-140331174D01*
X117262380Y-140340746D01*
X117242971Y-140343625D01*
X117194140Y-140348435D01*
X117174534Y-140349398D01*
X117156112Y-140349398D01*
X117150000Y-140350000D01*
X116650000Y-140350000D01*
X116643888Y-140349398D01*
X116625466Y-140349398D01*
X116605860Y-140348435D01*
X116557029Y-140343625D01*
X116537620Y-140340746D01*
X116489495Y-140331174D01*
X116470452Y-140326404D01*
X116423497Y-140312160D01*
X116405020Y-140305549D01*
X116359687Y-140286772D01*
X116341939Y-140278377D01*
X116298666Y-140255246D01*
X116281838Y-140245160D01*
X116241039Y-140217900D01*
X116225270Y-140206205D01*
X116187341Y-140175077D01*
X116172800Y-140161897D01*
X116138103Y-140127200D01*
X116124923Y-140112659D01*
X116093795Y-140074730D01*
X116082100Y-140058961D01*
X116054840Y-140018162D01*
X116044754Y-140001334D01*
X116021623Y-139958061D01*
X116013228Y-139940313D01*
X115994451Y-139894980D01*
X115987840Y-139876503D01*
X115973596Y-139829548D01*
X115968826Y-139810505D01*
X115959254Y-139762380D01*
X115956375Y-139742971D01*
X115951565Y-139694140D01*
X115950602Y-139674534D01*
X115950602Y-139656112D01*
X115950000Y-139650000D01*
X115950000Y-139150000D01*
X115953843Y-139110982D01*
X115965224Y-139073463D01*
X115983706Y-139038886D01*
X116008579Y-139008579D01*
X116038886Y-138983706D01*
X116073463Y-138965224D01*
X116110982Y-138953843D01*
X116150000Y-138950000D01*
X117650000Y-138950000D01*
X117689018Y-138953843D01*
X117726537Y-138965224D01*
X117761114Y-138983706D01*
X117791421Y-139008579D01*
X117816294Y-139038886D01*
X117834776Y-139073463D01*
X117846157Y-139110982D01*
X117850000Y-139150000D01*
X117850000Y-139650000D01*
X117849398Y-139656112D01*
G37*
G36*
X117846157Y-138889018D02*
G01*
X117834776Y-138926537D01*
X117816294Y-138961114D01*
X117791421Y-138991421D01*
X117761114Y-139016294D01*
X117726537Y-139034776D01*
X117689018Y-139046157D01*
X117650000Y-139050000D01*
X116150000Y-139050000D01*
X116110982Y-139046157D01*
X116073463Y-139034776D01*
X116038886Y-139016294D01*
X116008579Y-138991421D01*
X115983706Y-138961114D01*
X115965224Y-138926537D01*
X115953843Y-138889018D01*
X115950000Y-138850000D01*
X115950000Y-138350000D01*
X115950602Y-138343888D01*
X115950602Y-138325466D01*
X115951565Y-138305860D01*
X115956375Y-138257029D01*
X115959254Y-138237620D01*
X115968826Y-138189495D01*
X115973596Y-138170452D01*
X115987840Y-138123497D01*
X115994451Y-138105020D01*
X116013228Y-138059687D01*
X116021623Y-138041939D01*
X116044754Y-137998666D01*
X116054840Y-137981838D01*
X116082100Y-137941039D01*
X116093795Y-137925270D01*
X116124923Y-137887341D01*
X116138103Y-137872800D01*
X116172800Y-137838103D01*
X116187341Y-137824923D01*
X116225270Y-137793795D01*
X116241039Y-137782100D01*
X116281838Y-137754840D01*
X116298666Y-137744754D01*
X116341939Y-137721623D01*
X116359687Y-137713228D01*
X116405020Y-137694451D01*
X116423497Y-137687840D01*
X116470452Y-137673596D01*
X116489495Y-137668826D01*
X116537620Y-137659254D01*
X116557029Y-137656375D01*
X116605860Y-137651565D01*
X116625466Y-137650602D01*
X116643888Y-137650602D01*
X116650000Y-137650000D01*
X117150000Y-137650000D01*
X117156112Y-137650602D01*
X117174534Y-137650602D01*
X117194140Y-137651565D01*
X117242971Y-137656375D01*
X117262380Y-137659254D01*
X117310505Y-137668826D01*
X117329548Y-137673596D01*
X117376503Y-137687840D01*
X117394980Y-137694451D01*
X117440313Y-137713228D01*
X117458061Y-137721623D01*
X117501334Y-137744754D01*
X117518162Y-137754840D01*
X117558961Y-137782100D01*
X117574730Y-137793795D01*
X117612659Y-137824923D01*
X117627200Y-137838103D01*
X117661897Y-137872800D01*
X117675077Y-137887341D01*
X117706205Y-137925270D01*
X117717900Y-137941039D01*
X117745160Y-137981838D01*
X117755246Y-137998666D01*
X117778377Y-138041939D01*
X117786772Y-138059687D01*
X117805549Y-138105020D01*
X117812160Y-138123497D01*
X117826404Y-138170452D01*
X117831174Y-138189495D01*
X117840746Y-138237620D01*
X117843625Y-138257029D01*
X117848435Y-138305860D01*
X117849398Y-138325466D01*
X117849398Y-138343888D01*
X117850000Y-138350000D01*
X117850000Y-138850000D01*
X117846157Y-138889018D01*
G37*
G36*
X115049398Y-139656112D02*
G01*
X115049398Y-139674534D01*
X115048435Y-139694140D01*
X115043625Y-139742971D01*
X115040746Y-139762380D01*
X115031174Y-139810505D01*
X115026404Y-139829548D01*
X115012160Y-139876503D01*
X115005549Y-139894980D01*
X114986772Y-139940313D01*
X114978377Y-139958061D01*
X114955246Y-140001334D01*
X114945160Y-140018162D01*
X114917900Y-140058961D01*
X114906205Y-140074730D01*
X114875077Y-140112659D01*
X114861897Y-140127200D01*
X114827200Y-140161897D01*
X114812659Y-140175077D01*
X114774730Y-140206205D01*
X114758961Y-140217900D01*
X114718162Y-140245160D01*
X114701334Y-140255246D01*
X114658061Y-140278377D01*
X114640313Y-140286772D01*
X114594980Y-140305549D01*
X114576503Y-140312160D01*
X114529548Y-140326404D01*
X114510505Y-140331174D01*
X114462380Y-140340746D01*
X114442971Y-140343625D01*
X114394140Y-140348435D01*
X114374534Y-140349398D01*
X114356112Y-140349398D01*
X114350000Y-140350000D01*
X113850000Y-140350000D01*
X113843888Y-140349398D01*
X113825466Y-140349398D01*
X113805860Y-140348435D01*
X113757029Y-140343625D01*
X113737620Y-140340746D01*
X113689495Y-140331174D01*
X113670452Y-140326404D01*
X113623497Y-140312160D01*
X113605020Y-140305549D01*
X113559687Y-140286772D01*
X113541939Y-140278377D01*
X113498666Y-140255246D01*
X113481838Y-140245160D01*
X113441039Y-140217900D01*
X113425270Y-140206205D01*
X113387341Y-140175077D01*
X113372800Y-140161897D01*
X113338103Y-140127200D01*
X113324923Y-140112659D01*
X113293795Y-140074730D01*
X113282100Y-140058961D01*
X113254840Y-140018162D01*
X113244754Y-140001334D01*
X113221623Y-139958061D01*
X113213228Y-139940313D01*
X113194451Y-139894980D01*
X113187840Y-139876503D01*
X113173596Y-139829548D01*
X113168826Y-139810505D01*
X113159254Y-139762380D01*
X113156375Y-139742971D01*
X113151565Y-139694140D01*
X113150602Y-139674534D01*
X113150602Y-139656112D01*
X113150000Y-139650000D01*
X113150000Y-139150000D01*
X113153843Y-139110982D01*
X113165224Y-139073463D01*
X113183706Y-139038886D01*
X113208579Y-139008579D01*
X113238886Y-138983706D01*
X113273463Y-138965224D01*
X113310982Y-138953843D01*
X113350000Y-138950000D01*
X114850000Y-138950000D01*
X114889018Y-138953843D01*
X114926537Y-138965224D01*
X114961114Y-138983706D01*
X114991421Y-139008579D01*
X115016294Y-139038886D01*
X115034776Y-139073463D01*
X115046157Y-139110982D01*
X115050000Y-139150000D01*
X115050000Y-139650000D01*
X115049398Y-139656112D01*
G37*
G36*
X115046157Y-138889018D02*
G01*
X115034776Y-138926537D01*
X115016294Y-138961114D01*
X114991421Y-138991421D01*
X114961114Y-139016294D01*
X114926537Y-139034776D01*
X114889018Y-139046157D01*
X114850000Y-139050000D01*
X113350000Y-139050000D01*
X113310982Y-139046157D01*
X113273463Y-139034776D01*
X113238886Y-139016294D01*
X113208579Y-138991421D01*
X113183706Y-138961114D01*
X113165224Y-138926537D01*
X113153843Y-138889018D01*
X113150000Y-138850000D01*
X113150000Y-138350000D01*
X113150602Y-138343888D01*
X113150602Y-138325466D01*
X113151565Y-138305860D01*
X113156375Y-138257029D01*
X113159254Y-138237620D01*
X113168826Y-138189495D01*
X113173596Y-138170452D01*
X113187840Y-138123497D01*
X113194451Y-138105020D01*
X113213228Y-138059687D01*
X113221623Y-138041939D01*
X113244754Y-137998666D01*
X113254840Y-137981838D01*
X113282100Y-137941039D01*
X113293795Y-137925270D01*
X113324923Y-137887341D01*
X113338103Y-137872800D01*
X113372800Y-137838103D01*
X113387341Y-137824923D01*
X113425270Y-137793795D01*
X113441039Y-137782100D01*
X113481838Y-137754840D01*
X113498666Y-137744754D01*
X113541939Y-137721623D01*
X113559687Y-137713228D01*
X113605020Y-137694451D01*
X113623497Y-137687840D01*
X113670452Y-137673596D01*
X113689495Y-137668826D01*
X113737620Y-137659254D01*
X113757029Y-137656375D01*
X113805860Y-137651565D01*
X113825466Y-137650602D01*
X113843888Y-137650602D01*
X113850000Y-137650000D01*
X114350000Y-137650000D01*
X114356112Y-137650602D01*
X114374534Y-137650602D01*
X114394140Y-137651565D01*
X114442971Y-137656375D01*
X114462380Y-137659254D01*
X114510505Y-137668826D01*
X114529548Y-137673596D01*
X114576503Y-137687840D01*
X114594980Y-137694451D01*
X114640313Y-137713228D01*
X114658061Y-137721623D01*
X114701334Y-137744754D01*
X114718162Y-137754840D01*
X114758961Y-137782100D01*
X114774730Y-137793795D01*
X114812659Y-137824923D01*
X114827200Y-137838103D01*
X114861897Y-137872800D01*
X114875077Y-137887341D01*
X114906205Y-137925270D01*
X114917900Y-137941039D01*
X114945160Y-137981838D01*
X114955246Y-137998666D01*
X114978377Y-138041939D01*
X114986772Y-138059687D01*
X115005549Y-138105020D01*
X115012160Y-138123497D01*
X115026404Y-138170452D01*
X115031174Y-138189495D01*
X115040746Y-138237620D01*
X115043625Y-138257029D01*
X115048435Y-138305860D01*
X115049398Y-138325466D01*
X115049398Y-138343888D01*
X115050000Y-138350000D01*
X115050000Y-138850000D01*
X115046157Y-138889018D01*
G37*
G36*
X112249398Y-139656112D02*
G01*
X112249398Y-139674534D01*
X112248435Y-139694140D01*
X112243625Y-139742971D01*
X112240746Y-139762380D01*
X112231174Y-139810505D01*
X112226404Y-139829548D01*
X112212160Y-139876503D01*
X112205549Y-139894980D01*
X112186772Y-139940313D01*
X112178377Y-139958061D01*
X112155246Y-140001334D01*
X112145160Y-140018162D01*
X112117900Y-140058961D01*
X112106205Y-140074730D01*
X112075077Y-140112659D01*
X112061897Y-140127200D01*
X112027200Y-140161897D01*
X112012659Y-140175077D01*
X111974730Y-140206205D01*
X111958961Y-140217900D01*
X111918162Y-140245160D01*
X111901334Y-140255246D01*
X111858061Y-140278377D01*
X111840313Y-140286772D01*
X111794980Y-140305549D01*
X111776503Y-140312160D01*
X111729548Y-140326404D01*
X111710505Y-140331174D01*
X111662380Y-140340746D01*
X111642971Y-140343625D01*
X111594140Y-140348435D01*
X111574534Y-140349398D01*
X111556112Y-140349398D01*
X111550000Y-140350000D01*
X111050000Y-140350000D01*
X111043888Y-140349398D01*
X111025466Y-140349398D01*
X111005860Y-140348435D01*
X110957029Y-140343625D01*
X110937620Y-140340746D01*
X110889495Y-140331174D01*
X110870452Y-140326404D01*
X110823497Y-140312160D01*
X110805020Y-140305549D01*
X110759687Y-140286772D01*
X110741939Y-140278377D01*
X110698666Y-140255246D01*
X110681838Y-140245160D01*
X110641039Y-140217900D01*
X110625270Y-140206205D01*
X110587341Y-140175077D01*
X110572800Y-140161897D01*
X110538103Y-140127200D01*
X110524923Y-140112659D01*
X110493795Y-140074730D01*
X110482100Y-140058961D01*
X110454840Y-140018162D01*
X110444754Y-140001334D01*
X110421623Y-139958061D01*
X110413228Y-139940313D01*
X110394451Y-139894980D01*
X110387840Y-139876503D01*
X110373596Y-139829548D01*
X110368826Y-139810505D01*
X110359254Y-139762380D01*
X110356375Y-139742971D01*
X110351565Y-139694140D01*
X110350602Y-139674534D01*
X110350602Y-139656112D01*
X110350000Y-139650000D01*
X110350000Y-139150000D01*
X110353843Y-139110982D01*
X110365224Y-139073463D01*
X110383706Y-139038886D01*
X110408579Y-139008579D01*
X110438886Y-138983706D01*
X110473463Y-138965224D01*
X110510982Y-138953843D01*
X110550000Y-138950000D01*
X112050000Y-138950000D01*
X112089018Y-138953843D01*
X112126537Y-138965224D01*
X112161114Y-138983706D01*
X112191421Y-139008579D01*
X112216294Y-139038886D01*
X112234776Y-139073463D01*
X112246157Y-139110982D01*
X112250000Y-139150000D01*
X112250000Y-139650000D01*
X112249398Y-139656112D01*
G37*
G36*
X112246157Y-138889018D02*
G01*
X112234776Y-138926537D01*
X112216294Y-138961114D01*
X112191421Y-138991421D01*
X112161114Y-139016294D01*
X112126537Y-139034776D01*
X112089018Y-139046157D01*
X112050000Y-139050000D01*
X110550000Y-139050000D01*
X110510982Y-139046157D01*
X110473463Y-139034776D01*
X110438886Y-139016294D01*
X110408579Y-138991421D01*
X110383706Y-138961114D01*
X110365224Y-138926537D01*
X110353843Y-138889018D01*
X110350000Y-138850000D01*
X110350000Y-138350000D01*
X110350602Y-138343888D01*
X110350602Y-138325466D01*
X110351565Y-138305860D01*
X110356375Y-138257029D01*
X110359254Y-138237620D01*
X110368826Y-138189495D01*
X110373596Y-138170452D01*
X110387840Y-138123497D01*
X110394451Y-138105020D01*
X110413228Y-138059687D01*
X110421623Y-138041939D01*
X110444754Y-137998666D01*
X110454840Y-137981838D01*
X110482100Y-137941039D01*
X110493795Y-137925270D01*
X110524923Y-137887341D01*
X110538103Y-137872800D01*
X110572800Y-137838103D01*
X110587341Y-137824923D01*
X110625270Y-137793795D01*
X110641039Y-137782100D01*
X110681838Y-137754840D01*
X110698666Y-137744754D01*
X110741939Y-137721623D01*
X110759687Y-137713228D01*
X110805020Y-137694451D01*
X110823497Y-137687840D01*
X110870452Y-137673596D01*
X110889495Y-137668826D01*
X110937620Y-137659254D01*
X110957029Y-137656375D01*
X111005860Y-137651565D01*
X111025466Y-137650602D01*
X111043888Y-137650602D01*
X111050000Y-137650000D01*
X111550000Y-137650000D01*
X111556112Y-137650602D01*
X111574534Y-137650602D01*
X111594140Y-137651565D01*
X111642971Y-137656375D01*
X111662380Y-137659254D01*
X111710505Y-137668826D01*
X111729548Y-137673596D01*
X111776503Y-137687840D01*
X111794980Y-137694451D01*
X111840313Y-137713228D01*
X111858061Y-137721623D01*
X111901334Y-137744754D01*
X111918162Y-137754840D01*
X111958961Y-137782100D01*
X111974730Y-137793795D01*
X112012659Y-137824923D01*
X112027200Y-137838103D01*
X112061897Y-137872800D01*
X112075077Y-137887341D01*
X112106205Y-137925270D01*
X112117900Y-137941039D01*
X112145160Y-137981838D01*
X112155246Y-137998666D01*
X112178377Y-138041939D01*
X112186772Y-138059687D01*
X112205549Y-138105020D01*
X112212160Y-138123497D01*
X112226404Y-138170452D01*
X112231174Y-138189495D01*
X112240746Y-138237620D01*
X112243625Y-138257029D01*
X112248435Y-138305860D01*
X112249398Y-138325466D01*
X112249398Y-138343888D01*
X112250000Y-138350000D01*
X112250000Y-138850000D01*
X112246157Y-138889018D01*
G37*
D16*
X151697056Y-138302944D03*
X150000000Y-137600000D03*
X148302944Y-138302944D03*
X147600000Y-140000000D03*
X148302944Y-141697056D03*
X150000000Y-142400000D03*
X151697056Y-141697056D03*
X152400000Y-140000000D03*
D17*
X150000000Y-140000000D03*
D16*
X151697056Y-78302944D03*
X150000000Y-77600000D03*
X148302944Y-78302944D03*
X147600000Y-80000000D03*
X148302944Y-81697056D03*
X150000000Y-82400000D03*
X151697056Y-81697056D03*
X152400000Y-80000000D03*
D17*
X150000000Y-80000000D03*
D16*
X61697056Y-78302944D03*
X60000000Y-77600000D03*
X58302944Y-78302944D03*
X57600000Y-80000000D03*
X58302944Y-81697056D03*
X60000000Y-82400000D03*
X61697056Y-81697056D03*
X62400000Y-80000000D03*
D17*
X60000000Y-80000000D03*
D16*
X61697056Y-138302944D03*
X60000000Y-137600000D03*
X58302944Y-138302944D03*
X57600000Y-140000000D03*
X58302944Y-141697056D03*
X60000000Y-142400000D03*
X61697056Y-141697056D03*
X62400000Y-140000000D03*
D17*
X60000000Y-140000000D03*
D18*
X67745000Y-126000000D03*
X123355000Y-126000000D03*
D19*
X132000000Y-126000000D03*
D20*
X60000000Y-126000000D03*
D18*
X67745000Y-103000000D03*
X123355000Y-103000000D03*
D19*
X132000000Y-103000000D03*
D20*
X60000000Y-103000000D03*
D13*
X119700000Y-79000000D03*
X117160000Y-79000000D03*
X114620000Y-79000000D03*
X112080000Y-79000000D03*
X109540000Y-79000000D03*
D14*
X107000000Y-79000000D03*
M02*
